<?xml version="1.0" encoding="UTF-8" standalone="no"?>
<!-- Created with Inkscape (http://www.inkscape.org/) -->

<svg
   width="16"
   height="16"
   viewBox="0 0 4.2333332 4.2333333"
   version="1.1"
   id="svg5"
   xml:space="preserve"
   inkscape:version="1.2.2 (b0a8486541, 2022-12-01)"
   sodipodi:docname="baseline-ideo-embox-horizontal-center.svg"
   xmlns:inkscape="http://www.inkscape.org/namespaces/inkscape"
   xmlns:sodipodi="http://sodipodi.sourceforge.net/DTD/sodipodi-0.dtd"
   xmlns="http://www.w3.org/2000/svg"
   xmlns:svg="http://www.w3.org/2000/svg"
   xmlns:rdf="http://www.w3.org/1999/02/22-rdf-syntax-ns#"
   xmlns:cc="http://creativecommons.org/ns#"
   xmlns:dc="http://purl.org/dc/elements/1.1/"><sodipodi:namedview
     id="namedview7"
     pagecolor="#ffffff"
     bordercolor="#666666"
     borderopacity="1.0"
     inkscape:showpageshadow="2"
     inkscape:pageopacity="0.0"
     inkscape:pagecheckerboard="0"
     inkscape:deskcolor="#d1d1d1"
     inkscape:document-units="mm"
     showgrid="true"
     inkscape:zoom="39.500006"
     inkscape:cx="9.6075935"
     inkscape:cy="7.4430368"
     inkscape:window-width="1920"
     inkscape:window-height="1010"
     inkscape:window-x="0"
     inkscape:window-y="0"
     inkscape:window-maximized="1"
     inkscape:current-layer="svg5"><inkscape:grid
       type="xygrid"
       id="grid1725"
       spacingx="0.13229166"
       spacingy="0.13229166"
       empspacing="2"
       originx="0"
       originy="0" /></sodipodi:namedview><defs
     id="defs2" /><metadata
     id="metadata3005"><rdf:RDF><cc:Work
         rdf:about=""><dc:creator><cc:Agent><dc:title>Wolthera van Hövell tot Westerflier</dc:title></cc:Agent></dc:creator><dc:rights><cc:Agent><dc:title>CC-BY-SA 4.0 Wolthera van Hövell tot Westerflier</dc:title></cc:Agent></dc:rights><dc:date>february 2025</dc:date></cc:Work></rdf:RDF></metadata><path
     id="path2193"
     style="color:#000000;opacity:0.5;fill:#d2d2d2;fill-opacity:1;stroke:none;stroke-linecap:square;stroke-linejoin:round;stroke-opacity:1;-inkscape-stroke:none;paint-order:stroke markers fill"
     d="M 2.1171834,0.79271647 V 3.0432251 C 2.1166666,3.1749998 2.1166666,3.1749998 1.984375,3.1760335 H 1.3223999 V 3.4395833 H 1.984375 C 2.2460396,3.4568691 2.3812499,3.3072915 2.3807332,3.0432251 V 2.4597982 c 0.3007443,0.394216 0.5985052,0.6344925 1.0237102,0.7431071 L 3.4669718,2.9455566 C 3.1044339,2.8581111 2.7935947,2.5893723 2.6282633,2.3368083 2.8965922,2.2373743 3.303835,1.8016339 3.4783407,1.3807943 L 3.2344279,1.2831258 C 3.0970373,1.6498591 2.7910879,1.9352994 2.5032064,2.102714 2.4324116,1.9393966 2.387385,1.7622659 2.3807332,1.5818156 V 0.79271647 Z M 0.79271647,1.5880168 V 1.8515666 H 1.5606283 C 1.5461568,2.1108281 1.5113929,2.3770264 1.4138672,2.5647013 1.2984272,2.7868498 1.1482379,2.9100253 0.9255249,2.9098999 H 0.79271647 V 3.1760335 H 0.9255249 C 1.255873,3.1762196 1.5043842,2.9629134 1.6484782,2.6856242 1.7925721,2.408335 1.8535129,2.0598344 1.8515666,1.7187581 1.8507224,1.6469042 1.7926791,1.5888609 1.7208252,1.5880168 Z"
     inkscape:label="water-glyph"
     sodipodi:nodetypes="ccccccccccccccccccccsccccsccc" /><path
     id="path3115-7"
     style="color:#000000;fill:#d2d2d2;fill-opacity:0.25;stroke-linecap:square;stroke-linejoin:round;-inkscape-stroke:none;paint-order:stroke markers fill"
     d="M 0.26458332,3.7050779 V 3.9687498 L 3.9687499,3.9682942 V 3.7046223 Z"
     inkscape:label="baseline"
     sodipodi:nodetypes="ccccc" /><path
     id="path3115-7-1"
     style="color:#000000;fill:#d2d2d2;fill-opacity:0.25;stroke-linecap:square;stroke-linejoin:round;-inkscape-stroke:none;paint-order:stroke markers fill"
     d="m 0.26458324,0.26526688 v 0.2636718 l 3.70416666,-4.555e-4 v -0.2636719 z"
     inkscape:label="baseline"
     sodipodi:nodetypes="ccccc" /><path
     id="path3115-7-2"
     style="color:#000000;fill:#d2d2d2;fill-opacity:1;stroke-linecap:square;stroke-linejoin:round;-inkscape-stroke:none;paint-order:stroke markers fill"
     d="M 0.26458322,2.1180336 V 2.3817055 L 3.9687498,2.3812499 V 2.117578 Z"
     inkscape:label="baseline"
     sodipodi:nodetypes="ccccc" /></svg>
