<!--Created with Inkscape (http://www.inkscape.org/)--><svg width="16" height="16" viewBox="0 0 16 16" version="1.1" id="svg5" xml:space="preserve" xmlns="http://www.w3.org/2000/svg" xmlns:rdf="http://www.w3.org/1999/02/22-rdf-syntax-ns#" xmlns:cc="http://creativecommons.org/ns#" xmlns:dc="http://purl.org/dc/elements/1.1/"><metadata id="metadata3005"><rdf:RDF><cc:Work><dc:creator><cc:Agent><dc:title>Wolthera van Hövell tot Westerflier</dc:title></cc:Agent></dc:creator><dc:rights><cc:Agent><dc:title>CC-BY-SA 4.0 Wolthera van Hövell tot Westerflier</dc:title></cc:Agent></dc:rights><dc:date>february 2025</dc:date><cc:license rdf:resource="http://creativecommons.org/licenses/by-sa/4.0/"/><dc:contributor><cc:Agent><dc:title>Timothée Giet</dc:title></cc:Agent></dc:contributor></cc:Work><cc:License rdf:about="http://creativecommons.org/licenses/by-sa/4.0/"><cc:permits rdf:resource="http://creativecommons.org/ns#Reproduction"/><cc:permits rdf:resource="http://creativecommons.org/ns#Distribution"/><cc:requires rdf:resource="http://creativecommons.org/ns#Notice"/><cc:requires rdf:resource="http://creativecommons.org/ns#Attribution"/><cc:permits rdf:resource="http://creativecommons.org/ns#DerivativeWorks"/><cc:requires rdf:resource="http://creativecommons.org/ns#ShareAlike"/></cc:License></rdf:RDF></metadata><path id="path3115-7" style="color:#000;fill:#d2d2d2;fill-opacity:1;stroke-width:.999999;stroke-linecap:square;stroke-linejoin:round;-inkscape-stroke:none;paint-order:stroke markers fill" d="M0 6v.997L2 7v-.997zm14 .003V7l2-.003V6z"/><path id="path3089" style="color:#000;display:inline;fill:#d2d2d2;fill-opacity:.5;stroke-width:.999999;stroke-linecap:square;stroke-linejoin:round;-inkscape-stroke:none;paint-order:stroke markers fill" d="M7.1 2.995c-1.6.012-3.102.464-3.102 2.002v1.005H2.994V7h1.004v6h.996v-6H6v-.997H4.994V4.997C4.994 3.98 6 4.002 7.01 4c2.49-.003 3.066.634 3.53 1.264.194.266.306.525.37.738H10V7h.996v6H12v-6h.996v-.997H11.94a3.435 3.435 0 0 0-.587-1.33c-.646-.879-1.8-1.696-4.252-1.677zM10 8.489C10 7 9.5 5.997 8 6.002c-1.184.005-2 .53-2 1.498C6 8.497 6.5 8.997 8 9v-.997c-1-.005-1-.005-1.004-.502C6.992 6.997 7.5 6.997 8 7c.5.001.992.498.996 1.513.004.985-.232 1.376-.64 1.758a3.358 3.358 0 0 0-1.36-.268C6.273 10.013 6 10.497 6 11c0 .766.5 1 .996 1.003a2.552 2.552 0 0 0 1.49-.488c.467.496.506.86.51 1.485H10c0-1.002-.396-1.617-.783-2.198.518-.688.783-1.304.783-2.312z"/></svg>