<!--Created with Inkscape (http://www.inkscape.org/)--><svg width="16" height="16" viewBox="0 0 16 16" version="1.1" id="svg5" xml:space="preserve" xmlns="http://www.w3.org/2000/svg" xmlns:rdf="http://www.w3.org/1999/02/22-rdf-syntax-ns#" xmlns:cc="http://creativecommons.org/ns#" xmlns:dc="http://purl.org/dc/elements/1.1/"><metadata id="metadata3005"><rdf:RDF><cc:Work><dc:creator><cc:Agent><dc:title>Wolthera van Hövell tot Westerflier</dc:title></cc:Agent></dc:creator><dc:rights><cc:Agent><dc:title>CC-BY-SA 4.0 Wolthera van Hövell tot Westerflier</dc:title></cc:Agent></dc:rights><dc:date>february 2025</dc:date><dc:contributor><cc:Agent><dc:title>Timothée Giet</dc:title></cc:Agent></dc:contributor><cc:license rdf:resource="http://creativecommons.org/licenses/by-sa/4.0/"/></cc:Work><cc:License rdf:about="http://creativecommons.org/licenses/by-sa/4.0/"><cc:permits rdf:resource="http://creativecommons.org/ns#Reproduction"/><cc:permits rdf:resource="http://creativecommons.org/ns#Distribution"/><cc:requires rdf:resource="http://creativecommons.org/ns#Notice"/><cc:requires rdf:resource="http://creativecommons.org/ns#Attribution"/><cc:permits rdf:resource="http://creativecommons.org/ns#DerivativeWorks"/><cc:requires rdf:resource="http://creativecommons.org/ns#ShareAlike"/></cc:License></rdf:RDF></metadata><path id="path8827" style="color:#232629;fill:#d2d2d2;fill-opacity:.5;stroke:none;stroke-width:.264583" d="m21.225.794-1.142 3.555H21.1l.776-2.453.7 2.455h.997L22.528.794zm-1.996 6.22-.57 1.776h1.037l.563-1.777zm4.106.001.507 1.775h1.036l-.522-1.775z"/><path id="path3115-7" style="color:#000;fill:#d2d2d2;fill-opacity:1;stroke-width:1;stroke-linecap:square;stroke-linejoin:round;-inkscape-stroke:none;paint-order:stroke markers fill" d="M7.5 8.996v.998H10v-.998zM0 9v.996h1.5V9zm13 0v.996h3V9z"/><path id="path30460" style="fill:#d2d2d2;fill-opacity:.501961;stroke:none;stroke-width:8;stroke-linejoin:round" d="m4 4-3 8h1l1.072-3h2.856L7 12h1L5 4zm.5 1 1.072 3H3.428z"/><path id="path48682" style="fill:#d2d2d2;fill-opacity:.50196081;stroke-width:8;stroke-linejoin:round" d="m9 7 2 2.5L9 12h1l1.5-1.875L13 12h1l-2-2.5L14 7h-1l-1.5 1.875L10 7H9z"/></svg>