<?xml version="1.0" encoding="UTF-8" standalone="no"?>
<!-- Created with Inkscape (http://www.inkscape.org/) -->

<svg
   width="16"
   height="16"
   viewBox="0 0 4.2333332 4.2333333"
   version="1.1"
   id="svg5"
   xml:space="preserve"
   inkscape:version="1.2.2 (b0a8486541, 2022-12-01)"
   sodipodi:docname="baseline-text-math.svg"
   xmlns:inkscape="http://www.inkscape.org/namespaces/inkscape"
   xmlns:sodipodi="http://sodipodi.sourceforge.net/DTD/sodipodi-0.dtd"
   xmlns="http://www.w3.org/2000/svg"
   xmlns:svg="http://www.w3.org/2000/svg"
   xmlns:rdf="http://www.w3.org/1999/02/22-rdf-syntax-ns#"
   xmlns:cc="http://creativecommons.org/ns#"
   xmlns:dc="http://purl.org/dc/elements/1.1/"><sodipodi:namedview
     id="namedview7"
     pagecolor="#ffffff"
     bordercolor="#666666"
     borderopacity="1.0"
     inkscape:showpageshadow="2"
     inkscape:pageopacity="0.0"
     inkscape:pagecheckerboard="0"
     inkscape:deskcolor="#d1d1d1"
     inkscape:document-units="mm"
     showgrid="true"
     inkscape:zoom="39.500006"
     inkscape:cx="5.2025309"
     inkscape:cy="7.4430368"
     inkscape:window-width="1920"
     inkscape:window-height="1010"
     inkscape:window-x="0"
     inkscape:window-y="0"
     inkscape:window-maximized="1"
     inkscape:current-layer="svg5"><inkscape:grid
       type="xygrid"
       id="grid1725"
       spacingx="0.13229166"
       spacingy="0.13229166"
       empspacing="2"
       originx="0"
       originy="0" /></sodipodi:namedview><defs
     id="defs2" /><metadata
     id="metadata3005"><rdf:RDF><cc:Work
         rdf:about=""><dc:creator><cc:Agent><dc:title>Wolthera van Hövell tot Westerflier</dc:title></cc:Agent></dc:creator><dc:rights><cc:Agent><dc:title>CC-BY-SA 4.0 Wolthera van Hövell tot Westerflier</dc:title></cc:Agent></dc:rights><dc:date>february 2025</dc:date></cc:Work></rdf:RDF></metadata><path
     id="path3115-7"
     style="color:#000000;display:inline;fill:#d2d2d2;fill-opacity:1;stroke-linecap:square;stroke-linejoin:round;-inkscape-stroke:none;paint-order:stroke markers fill"
     d="m 1.0583333,2.1166666 -0.79375019,2.276e-4 v 0.263672 l 0.79375019,6.837e-4 z m 1.8520832,9.113e-4 v 0.263672 L 3.96875,2.3810222 v -0.263672 z"
     inkscape:label="baseline"
     sodipodi:nodetypes="cccccccccc" /><path
     id="path8995"
     style="color:#000000;fill:#d2d2d2;fill-opacity:0.5;stroke-linecap:square;stroke-linejoin:bevel;-inkscape-stroke:none;paint-order:stroke markers fill"
     inkscape:label="1-glyph"
     d="M 0.79375,1.0583333 0.26458333,1.5875 h 0.33331299 l 0.19482015,-0.1834513 -2e-8,0.4480345 H 1.0583333 V 1.0583333 Z m -4e-8,1.5874999 -0.001034,0.5302003 H 0.2635498 v 0.2635498 h 1.324467 V 3.1760335 H 1.0588501 L 1.0598841,2.64635 Z"
     sodipodi:nodetypes="ccccccccccccccccc" /><path
     id="path9045"
     style="color:#000000;fill:#d2d2d2;fill-opacity:0.5;stroke-linecap:square;stroke-linejoin:round;-inkscape-stroke:none;paint-order:stroke markers fill"
     d="M 1.8515666,1.5880168 V 2.1171834 H 1.3223999 V 2.3807332 H 1.8515666 V 2.9098999 H 2.1171834 V 2.3807332 H 2.6463501 V 2.1171834 H 2.1171834 V 1.5880168 Z"
     inkscape:label="+glyph"
     sodipodi:nodetypes="ccccccccccccc" /><path
     id="path9003"
     style="color:#000000;fill:#d2d2d2;fill-opacity:0.5;stroke-linecap:square;-inkscape-stroke:none;paint-order:stroke markers fill"
     inkscape:label="2-glyph"
     d="M 3.2902384 1.0588501 C 3.1202822 1.063837 2.9657261 1.1456508 2.8494385 1.2619385 C 2.6855003 1.4701044 2.6485119 1.6137733 2.6463501 1.8515666 L 2.9098999 1.8515666 C 2.8843223 1.6880431 2.9725242 1.5607479 3.0370239 1.4490072 C 3.1154218 1.3706092 3.2186501 1.3223999 3.3067749 1.3223999 C 3.416983 1.3223999 3.5177577 1.3514588 3.5858276 1.4081828 C 3.6538976 1.4649077 3.7031331 1.5518325 3.7031331 1.7208252 C 3.7031331 1.7677144 3.6916805 1.8096019 3.6679932 1.8520833 L 3.95118 1.8520833 C 3.9623821 1.8104935 3.96875 1.766853 3.96875 1.7208252 C 3.96875 1.4929437 3.8862102 1.3137337 3.7558431 1.2050944 C 3.6254759 1.0964551 3.4611496 1.0588501 3.3067749 1.0588501 C 3.3012606 1.0588501 3.2957209 1.0586892 3.2902384 1.0588501 z M 2.8530558 2.6458333 C 2.732212 2.8205701 2.6463501 3.0352516 2.6463501 3.3067749 L 2.6463501 3.4395833 L 3.96875 3.4395833 L 3.96875 3.1739665 L 2.9367716 3.1760335 C 2.9751929 2.9687475 3.0744141 2.7927823 3.203422 2.6458333 L 2.8530558 2.6458333 z " /></svg>
