<!--Created with Inkscape (http://www.inkscape.org/)--><svg width="16" height="16" viewBox="0 0 16 16" version="1.1" id="svg5" xml:space="preserve" xmlns="http://www.w3.org/2000/svg" xmlns:rdf="http://www.w3.org/1999/02/22-rdf-syntax-ns#" xmlns:cc="http://creativecommons.org/ns#" xmlns:dc="http://purl.org/dc/elements/1.1/"><metadata id="metadata3005"><rdf:RDF><cc:Work><dc:creator><cc:Agent><dc:title>Wolthera van Hövell tot Westerflier</dc:title></cc:Agent></dc:creator><dc:rights><cc:Agent><dc:title>CC-BY-SA 4.0 Wolthera van Hövell tot Westerflier</dc:title></cc:Agent></dc:rights><dc:date>february 2025</dc:date><dc:description>Adapted from Breeze icon &quot;format-text-capitalize&quot;</dc:description><dc:contributor><cc:Agent><dc:title>Timothée Giet</dc:title></cc:Agent></dc:contributor><cc:license rdf:resource="http://creativecommons.org/licenses/by-sa/4.0/"/></cc:Work><cc:License rdf:about="http://creativecommons.org/licenses/by-sa/4.0/"><cc:permits rdf:resource="http://creativecommons.org/ns#Reproduction"/><cc:permits rdf:resource="http://creativecommons.org/ns#Distribution"/><cc:requires rdf:resource="http://creativecommons.org/ns#Notice"/><cc:requires rdf:resource="http://creativecommons.org/ns#Attribution"/><cc:permits rdf:resource="http://creativecommons.org/ns#DerivativeWorks"/><cc:requires rdf:resource="http://creativecommons.org/ns#ShareAlike"/></cc:License></rdf:RDF></metadata><path id="path7010" style="color:#232629;fill:#d2d2d2;fill-opacity:.5;stroke:none;stroke-width:.264583" d="M11.996 5.998a3 3 0 0 0 0 6A3 3 0 0 0 14 11.225V12c0 .639-.205 1.123-.541 1.459-.336.336-.82.541-1.459.541-1.278 0-2-.833-2-1.5H9c0 1.333 1.278 2.5 3 2.5.861 0 1.628-.295 2.166-.834.539-.538.834-1.305.834-2.166V6h-1v.77a3 3 0 0 0-2.004-.772zm-.013 1.014a1.983 1.983 0 0 1 2.013 1.986 2 2 0 0 1-4 0c0-1.087.869-1.973 1.987-1.986z"/><path id="path3115-7" style="color:#000;fill:#d2d2d2;fill-opacity:1;stroke-width:.999999;stroke-linecap:square;stroke-linejoin:round;-inkscape-stroke:none;paint-order:stroke markers fill" d="M0 15.002v.996h16v-.996z"/><path id="path30460" style="fill:#d2d2d2;fill-opacity:.501961;stroke:none;stroke-width:2.11667;stroke-linejoin:round" d="m4 3.998-3 8h1l1.072-3h2.856l1.072 3h1l-3-8zm.5 1 1.072 3H3.428z"/></svg>