<?xml version="1.0" encoding="UTF-8" standalone="no"?>
<!-- Created with Inkscape (http://www.inkscape.org/) -->

<svg
   width="16"
   height="16"
   viewBox="0 0 4.2333332 4.2333333"
   version="1.1"
   id="svg5"
   xml:space="preserve"
   inkscape:version="1.2.2 (b0a8486541, 2022-12-01)"
   sodipodi:docname="baseline-text-middle.svg"
   xmlns:inkscape="http://www.inkscape.org/namespaces/inkscape"
   xmlns:sodipodi="http://sodipodi.sourceforge.net/DTD/sodipodi-0.dtd"
   xmlns="http://www.w3.org/2000/svg"
   xmlns:svg="http://www.w3.org/2000/svg"
   xmlns:rdf="http://www.w3.org/1999/02/22-rdf-syntax-ns#"
   xmlns:cc="http://creativecommons.org/ns#"
   xmlns:dc="http://purl.org/dc/elements/1.1/"><sodipodi:namedview
     id="namedview7"
     pagecolor="#ffffff"
     bordercolor="#666666"
     borderopacity="1.0"
     inkscape:showpageshadow="2"
     inkscape:pageopacity="0.0"
     inkscape:pagecheckerboard="0"
     inkscape:deskcolor="#d1d1d1"
     inkscape:document-units="mm"
     showgrid="true"
     inkscape:zoom="39.500006"
     inkscape:cx="9.2405049"
     inkscape:cy="7.4430368"
     inkscape:window-width="1920"
     inkscape:window-height="1010"
     inkscape:window-x="0"
     inkscape:window-y="0"
     inkscape:window-maximized="1"
     inkscape:current-layer="svg5"><inkscape:grid
       type="xygrid"
       id="grid1725"
       spacingx="0.13229166"
       spacingy="0.13229166"
       empspacing="2"
       originx="0"
       originy="0" /></sodipodi:namedview><defs
     id="defs2" /><metadata
     id="metadata3005"><rdf:RDF><cc:Work
         rdf:about=""><dc:creator><cc:Agent><dc:title>Wolthera van Hövell tot Westerflier</dc:title></cc:Agent></dc:creator><dc:rights><cc:Agent><dc:title>CC-BY-SA 4.0 Wolthera van Hövell tot Westerflier</dc:title></cc:Agent></dc:rights><dc:date>february 2025</dc:date><dc:description>Adapted from Breeze icon &quot;format-text-capitalize&quot;</dc:description></cc:Work></rdf:RDF></metadata><path
     id="path8827"
     style="color:#232629;fill:#d2d2d2;fill-opacity:0.5;stroke:none;stroke-width:0.264583"
     d="M 1.0299113 0.79323324 L 0.68988037 1.8520833 L 0.99270426 1.8520833 L 1.2236979 1.1213786 L 1.4319539 1.8526001 L 1.7290934 1.8526001 L 1.4180013 0.79323324 L 1.0299113 0.79323324 z M 0.43563232 2.6453166 L 0.26561686 3.1744832 L 0.57464193 3.1744832 L 0.74207357 2.6453166 L 0.43563232 2.6453166 z M 1.6582967 2.6458333 L 1.8091919 3.1744832 L 2.1177002 3.1744832 L 1.9621541 2.6458333 L 1.6582967 2.6458333 z " /><path
     id="path3115-7"
     style="color:#000000;fill:#d2d2d2;fill-opacity:1;stroke-linecap:square;stroke-linejoin:round;-inkscape-stroke:none;paint-order:stroke markers fill"
     d="m 0.26458332,2.1175779 v 0.263672 L 2.6458331,2.3805664 v -0.263672 z m 3.17499988,0 v 0.263672 L 3.96875,2.3810222 v -0.263672 z"
     inkscape:label="baseline"
     sodipodi:nodetypes="cccccccccc" /><path
     id="path8922"
     style="color:#000000;opacity:1;fill:#d2d2d2;fill-opacity:0.501961;stroke-linecap:square;stroke-linejoin:round;-inkscape-stroke:none;paint-order:stroke markers fill"
     d="M 2.1171834,1.3231688 V 1.5867186 H 2.2479248 2.4494629 L 2.8732096,2.2480736 2.4494629,2.9098999 H 2.2479248 2.1171834 v 0.2661336 h 0.1307414 0.2656169 c 0.040643,-1.937e-4 0.078942,-0.019057 0.1038696,-0.05116 L 3.0427083,2.459947 3.4685221,3.1248739 c 0.024927,0.032102 0.063226,0.050966 0.1038697,0.05116 H 3.8359416 3.96875 V 2.9098999 H 3.8359416 3.6349202 L 3.212207,2.2480736 3.6349202,1.5867186 H 3.8359416 3.96875 V 1.3231688 H 3.8359416 3.5723918 c -0.040206,-4.325e-4 -0.078426,0.017442 -0.1038697,0.048576 L 3.0427083,2.0362003 2.6174113,1.3717446 C 2.591968,1.3406106 2.5537474,1.3227363 2.5135417,1.3231688 H 2.2479248 Z"
     sodipodi:nodetypes="ccccccccccccccccccccccccccccccccc" /></svg>
