<?xml version="1.0" encoding="UTF-8" standalone="no"?>
<!-- Created with Inkscape (http://www.inkscape.org/) -->

<svg
   width="16"
   height="16"
   viewBox="0 0 4.2333332 4.2333333"
   version="1.1"
   id="svg5"
   xml:space="preserve"
   inkscape:version="1.2.2 (b0a8486541, 2022-12-01)"
   sodipodi:docname="baseline-text-bottom.svg"
   xmlns:inkscape="http://www.inkscape.org/namespaces/inkscape"
   xmlns:sodipodi="http://sodipodi.sourceforge.net/DTD/sodipodi-0.dtd"
   xmlns="http://www.w3.org/2000/svg"
   xmlns:svg="http://www.w3.org/2000/svg"
   xmlns:rdf="http://www.w3.org/1999/02/22-rdf-syntax-ns#"
   xmlns:cc="http://creativecommons.org/ns#"
   xmlns:dc="http://purl.org/dc/elements/1.1/"><sodipodi:namedview
     id="namedview7"
     pagecolor="#ffffff"
     bordercolor="#666666"
     borderopacity="1.0"
     inkscape:showpageshadow="2"
     inkscape:pageopacity="0.0"
     inkscape:pagecheckerboard="0"
     inkscape:deskcolor="#d1d1d1"
     inkscape:document-units="mm"
     showgrid="true"
     inkscape:zoom="39.500006"
     inkscape:cx="9.6455682"
     inkscape:cy="7.4430368"
     inkscape:window-width="1920"
     inkscape:window-height="1010"
     inkscape:window-x="0"
     inkscape:window-y="0"
     inkscape:window-maximized="1"
     inkscape:current-layer="svg5"><inkscape:grid
       type="xygrid"
       id="grid1725"
       spacingx="0.13229166"
       spacingy="0.13229166"
       empspacing="2"
       originx="0"
       originy="0" /></sodipodi:namedview><defs
     id="defs2" /><metadata
     id="metadata3005"><rdf:RDF><cc:Work
         rdf:about=""><dc:creator><cc:Agent><dc:title>Wolthera van Hövell tot Westerflier</dc:title></cc:Agent></dc:creator><dc:rights><cc:Agent><dc:title>CC-BY-SA 4.0 Wolthera van Hövell tot Westerflier</dc:title></cc:Agent></dc:rights><dc:date>february 2025</dc:date><dc:description>Adapted from Breeze icon &quot;format-text-capitalize&quot;</dc:description></cc:Work></rdf:RDF></metadata><path
     id="path8827"
     style="color:#232629;fill:#d2d2d2;fill-opacity:0.5;stroke:none;stroke-width:0.264583"
     d="M 1.0299112,1.0578165 0.26561681,3.1744832 H 0.57464186 L 0.83767491,2.569869 H 1.5725138 l 0.236678,0.6046142 H 2.1177001 L 1.4180012,1.0578165 Z m 0.1937867,0.3281453 0.289388,0.8815998 H 0.90382074 Z" /><path
     id="path7010"
     style="color:#232629;fill:#d2d2d2;fill-opacity:0.5;stroke:none;stroke-width:0.264583"
     d="m 3.1739665,1.5875 c -0.4383756,0 -0.79375,0.3553744 -0.79375,0.79375 0,0.4383756 0.3553744,0.79375 0.79375,0.79375 0.1959328,-4.362e-4 0.3847814,-0.073325 0.5302002,-0.2046387 v 0.3364136 h -0.00103 v 0.1328084 c 0.00104,0.2647132 -0.2632979,0.2645913 -0.5270996,0.2635498 l -0.5302003,-2e-7 v 0.2656169 l 0.5302003,2e-7 C 3.8486632,3.9742433 3.9687498,3.7042965 3.96875,3.4395833 V 3.3067749 1.5875 H 3.7041667 V 1.7916219 C 3.5586711,1.660496 3.3698309,1.5877944 3.1739665,1.5875 Z m -0.013436,0.2645833 c 0.00454,-1.15e-4 0.00887,0 0.013436,0 0.2922504,0 0.5291666,0.2369163 0.5291666,0.5291667 0,0.2922504 -0.2369162,0.5291667 -0.5291666,0.5291667 -0.2922503,0 -0.5291667,-0.2369164 -0.5291667,-0.5291667 0,-0.287684 0.2297926,-0.5219224 0.5157308,-0.5291667 z"
     sodipodi:nodetypes="cscccccccccscccccssssss" /><path
     id="path3115-7"
     style="color:#000000;fill:#d2d2d2;fill-opacity:1;stroke-linecap:square;stroke-linejoin:round;-inkscape-stroke:none;paint-order:stroke markers fill"
     d="m 0.26458332,3.9696611 v 0.263672 L 3.96875,4.2331055 v -0.263672 z"
     inkscape:label="baseline"
     sodipodi:nodetypes="ccccc" /></svg>
