<!--Created with Inkscape (http://www.inkscape.org/)--><svg width="16" height="16" viewBox="0 0 16 16" version="1.1" id="svg5" xml:space="preserve" xmlns="http://www.w3.org/2000/svg" xmlns:rdf="http://www.w3.org/1999/02/22-rdf-syntax-ns#" xmlns:cc="http://creativecommons.org/ns#" xmlns:dc="http://purl.org/dc/elements/1.1/"><metadata id="metadata3005"><rdf:RDF><cc:Work><dc:creator><cc:Agent><dc:title>Wolthera van Hövell tot Westerflier</dc:title></cc:Agent></dc:creator><dc:rights><cc:Agent><dc:title>CC-BY-SA 4.0 Wolthera van Hövell tot Westerflier</dc:title></cc:Agent></dc:rights><dc:date>february 2025</dc:date><dc:contributor><cc:Agent><dc:title>Timothée Giet</dc:title></cc:Agent></dc:contributor><cc:license rdf:resource="http://creativecommons.org/licenses/by-sa/4.0/"/></cc:Work><cc:License rdf:about="http://creativecommons.org/licenses/by-sa/4.0/"><cc:permits rdf:resource="http://creativecommons.org/ns#Reproduction"/><cc:permits rdf:resource="http://creativecommons.org/ns#Distribution"/><cc:requires rdf:resource="http://creativecommons.org/ns#Notice"/><cc:requires rdf:resource="http://creativecommons.org/ns#Attribution"/><cc:permits rdf:resource="http://creativecommons.org/ns#DerivativeWorks"/><cc:requires rdf:resource="http://creativecommons.org/ns#ShareAlike"/></cc:License></rdf:RDF></metadata><path id="path2193" style="color:#000;opacity:.5;fill:#d2d2d2;fill-opacity:1;stroke:none;stroke-width:.999999;stroke-linecap:square;stroke-linejoin:round;stroke-opacity:1;-inkscape-stroke:none;paint-order:stroke markers fill" d="M8.002 2.995v8.506C8 12 8 12 7.5 12.003H4.998v.996H7.5c.989.065 1.5-.5 1.498-1.498V9.296c1.137 1.49 2.262 2.398 3.87 2.809l.236-.973c-1.37-.33-2.546-1.346-3.17-2.3 1.014-.377 2.553-2.024 3.212-3.614l-.921-.37c-.52 1.387-1.676 2.466-2.764 3.098a5.483 5.483 0 0 1-.463-1.968V2.995zM2.996 6.001v.996h2.902c-.054.98-.186 1.986-.554 2.695-.437.84-1.004 1.306-1.846 1.305h-.502v1.006h.502c1.249 0 2.188-.805 2.732-1.853.545-1.048.775-2.366.768-3.655a.5.5 0 0 0-.494-.494z"/><path id="path3115-7" style="color:#000;fill:#d2d2d2;fill-opacity:.25;stroke-width:.999999;stroke-linecap:square;stroke-linejoin:round;-inkscape-stroke:none;paint-order:stroke markers fill" d="M0 14v1h16v-1z"/><path id="path3115-7-1" style="color:#000;fill:#d2d2d2;fill-opacity:.25;stroke-width:.999999;stroke-linecap:square;stroke-linejoin:round;-inkscape-stroke:none;paint-order:stroke markers fill" d="M0 1v1h16V1z"/><path id="path3115-7-2" style="color:#000;fill:#d2d2d2;fill-opacity:1;stroke-width:.999999;stroke-linecap:square;stroke-linejoin:round;-inkscape-stroke:none;paint-order:stroke markers fill" d="M0 8.005v.996h16v-.996h-4V9H4v-.994z"/></svg>