<?xml version="1.0" encoding="UTF-8" standalone="no"?>
<!-- Created with Inkscape (http://www.inkscape.org/) -->

<svg
   width="16"
   height="16"
   viewBox="0 0 4.2333332 4.2333333"
   version="1.1"
   id="svg5"
   xml:space="preserve"
   inkscape:version="1.2.2 (b0a8486541, 2022-12-01)"
   sodipodi:docname="baseline-hanging-b.svg"
   xmlns:inkscape="http://www.inkscape.org/namespaces/inkscape"
   xmlns:sodipodi="http://sodipodi.sourceforge.net/DTD/sodipodi-0.dtd"
   xmlns="http://www.w3.org/2000/svg"
   xmlns:svg="http://www.w3.org/2000/svg"
   xmlns:rdf="http://www.w3.org/1999/02/22-rdf-syntax-ns#"
   xmlns:cc="http://creativecommons.org/ns#"
   xmlns:dc="http://purl.org/dc/elements/1.1/"><sodipodi:namedview
     id="namedview7"
     pagecolor="#ffffff"
     bordercolor="#666666"
     borderopacity="1.0"
     inkscape:showpageshadow="2"
     inkscape:pageopacity="0.0"
     inkscape:pagecheckerboard="0"
     inkscape:deskcolor="#d1d1d1"
     inkscape:document-units="mm"
     showgrid="true"
     inkscape:zoom="64"
     inkscape:cx="9.203125"
     inkscape:cy="8.25"
     inkscape:window-width="1920"
     inkscape:window-height="1010"
     inkscape:window-x="0"
     inkscape:window-y="0"
     inkscape:window-maximized="1"
     inkscape:current-layer="svg5"><inkscape:grid
       type="xygrid"
       id="grid1725"
       spacingx="0.13229166"
       spacingy="0.13229166"
       empspacing="2"
       originx="0"
       originy="0" /></sodipodi:namedview><defs
     id="defs2" /><metadata
     id="metadata3005"><rdf:RDF><cc:Work
         rdf:about=""><dc:creator><cc:Agent><dc:title>Wolthera van Hövell tot Westerflier</dc:title></cc:Agent></dc:creator><dc:rights><cc:Agent><dc:title>CC-BY-SA 4.0 Wolthera van Hövell tot Westerflier</dc:title></cc:Agent></dc:rights><dc:date>february 2025</dc:date></cc:Work></rdf:RDF></metadata><path
     id="path3115-7"
     style="color:#000000;fill:#d2d2d2;fill-opacity:1;stroke-linecap:square;stroke-linejoin:round;-inkscape-stroke:none;paint-order:stroke markers fill"
     d="m 0.2645831,1.588411 v 0.263672 l 0.52916686,2e-7 v -0.263672 z m 1.3229166,0 v 0.263672 l 1.0583335,2e-7 v -0.263672 z m 1.8520835,2e-7 v 0.263672 L 3.9687501,1.852539 V 1.588867 Z"
     inkscape:label="baseline"
     sodipodi:nodetypes="ccccccccccccccc" /><path
     id="path3089"
     style="color:#000000;display:inline;fill:#d2d2d2;fill-opacity:0.5;stroke-linecap:square;stroke-linejoin:round;-inkscape-stroke:none;paint-order:stroke markers fill"
     inkscape:label="śirorekhā-glyph"
     d="M 1.8784383 0.79323324 C 1.4552206 0.79642448 1.0578166 0.9160067 1.0578166 1.3229167 L 1.0578166 1.5890503 L 0.79375 1.5890503 L 0.79375 1.8520833 L 0.79219971 1.8520833 L 0.79219971 1.8526001 L 1.0578166 1.8526001 L 1.0578166 3.4401001 L 1.3213664 3.4401001 L 1.3213664 1.8526001 L 1.5875 1.8526001 L 1.5875 1.5890503 L 1.3213664 1.5890503 L 1.3213664 1.3229167 C 1.3213664 1.0539942 1.5874988 1.0597857 1.8546672 1.0593669 C 2.5135411 1.0583369 2.6660465 1.2270466 2.7884603 1.3937134 C 2.8401392 1.4640743 2.8696625 1.5327047 2.8866455 1.5890503 L 2.6458333 1.5890503 L 2.6458333 1.8526001 L 2.9093831 1.8526001 L 2.9093831 3.4401001 L 3.175 3.4401001 L 3.175 1.8526001 L 3.4385498 1.8526001 L 3.4385498 1.5890503 L 3.1589803 1.5890503 C 3.1395698 1.4955179 3.0970495 1.3645892 3.0034342 1.2371338 C 2.8325941 1.0045346 2.5270974 0.78834207 1.8784383 0.79323324 z M 1.6019694 2.1166667 C 1.6451208 2.2927791 1.7923689 2.3813453 2.1166667 2.3817668 L 2.1166667 2.118217 C 2.0670573 2.1179263 2.0269503 2.1177238 1.9941935 2.1166667 L 1.6019694 2.1166667 z M 2.3667806 2.1166667 C 2.3751604 2.157308 2.3800173 2.2029054 2.3802165 2.2530924 C 2.3812465 2.5135419 2.3187432 2.6171854 2.2107178 2.7181803 C 2.1040971 2.6731864 1.9825396 2.6453796 1.8510498 2.6473836 C 1.6596293 2.6503036 1.5875001 2.778126 1.5875 2.9109334 C 1.5874998 3.1138133 1.7197851 3.1758234 1.8510498 3.1765503 C 1.9996056 3.1773729 2.1330925 3.1262581 2.245341 3.0473592 C 2.3689033 3.1784752 2.3790199 3.2750619 2.3802165 3.4401001 L 2.6458333 3.4401001 C 2.6458333 3.1750003 2.5409942 3.0123552 2.4386108 2.8587402 C 2.5756678 2.6766835 2.6458333 2.5135414 2.6458333 2.2468913 C 2.6458333 2.2017765 2.6438217 2.1582092 2.6401489 2.1166667 L 2.3667806 2.1166667 z " /></svg>
