<?xml version="1.0" encoding="UTF-8"?>
<!--Created with Inkscape (http://www.inkscape.org/)-->
<svg width="16" height="16" version="1.1" viewBox="0 0 16 16" xml:space="preserve" xmlns="http://www.w3.org/2000/svg" xmlns:rdf="http://www.w3.org/1999/02/22-rdf-syntax-ns#"><metadata><rdf:RDF/></metadata><path d="m0 6v0.997l2 3e-3v-0.997zm14 3e-3v0.997l2-3e-3v-0.997z" color="#000000" fill="#d2d2d2" stroke-linecap="square" stroke-linejoin="round" style="-inkscape-stroke:none;paint-order:stroke markers fill"/><path d="m3 6v1h5v2.2969c-0.63001 0.73011-1.5006 1.7268-2 1.7031-0.82913-0.039248-0.99142-0.28143-1-1-0.0088206-0.73914 0.5-1 0.99219-1h1.0078v-1h-0.99219c-1.4299 0-2.0078 1-2.0078 2 0 1.4084 0.88278 1.9946 2 2 0.75 0.0036 1.4936-0.7504 2-1.2969v2.2969h1v-3.2793c0.48546-0.56517 0.5-0.7207 1-0.7207 0.45768 0 1.0203 0.89495 1 1.5 0 0.76343-0.5728 1.3754-1.0645 2.0078l0.78906 0.61524c0.42822-0.5508 1.2754-1.3865 1.2754-2.623-0.052485-1.5012-1-2.5-2-2.5-0.40011 0-0.70308 0.27249-1 0.5v-1.5h4v-1z" color="#000000" fill="#d2d2d2" opacity=".5" stroke-linejoin="round" style="-inkscape-stroke:none;paint-order:markers fill stroke"/></svg>
