<?xml version="1.0" encoding="UTF-8" standalone="no"?>
<!-- Created with Inkscape (http://www.inkscape.org/) -->

<svg
   width="12"
   height="12"
   viewBox="0 0 3.1749999 3.175"
   version="1.1"
   id="svg5"
   xml:space="preserve"
   inkscape:version="1.2.2 (b0a8486541, 2022-12-01)"
   sodipodi:docname="font-color-type-svg.svg"
   xmlns:inkscape="http://www.inkscape.org/namespaces/inkscape"
   xmlns:sodipodi="http://sodipodi.sourceforge.net/DTD/sodipodi-0.dtd"
   xmlns="http://www.w3.org/2000/svg"
   xmlns:svg="http://www.w3.org/2000/svg"
   xmlns:rdf="http://www.w3.org/1999/02/22-rdf-syntax-ns#"
   xmlns:cc="http://creativecommons.org/ns#"
   xmlns:dc="http://purl.org/dc/elements/1.1/"><sodipodi:namedview
     id="namedview7"
     pagecolor="#ffffff"
     bordercolor="#666666"
     borderopacity="1.0"
     inkscape:showpageshadow="2"
     inkscape:pageopacity="0.0"
     inkscape:pagecheckerboard="0"
     inkscape:deskcolor="#d1d1d1"
     inkscape:document-units="mm"
     showgrid="true"
     inkscape:zoom="52.712632"
     inkscape:cx="7.3701499"
     inkscape:cy="6.9053657"
     inkscape:window-width="1351"
     inkscape:window-height="456"
     inkscape:window-x="72"
     inkscape:window-y="116"
     inkscape:window-maximized="0"
     inkscape:current-layer="svg5"><inkscape:grid
       type="xygrid"
       id="grid1725"
       spacingx="0.13229166"
       spacingy="0.13229166"
       empspacing="2" /></sodipodi:namedview><defs
     id="defs2" /><metadata
     id="metadata3005"><rdf:RDF><cc:Work
         rdf:about=""><dc:creator><cc:Agent><dc:title>Wolthera van Hövell tot Westerflier</dc:title></cc:Agent></dc:creator><dc:rights><cc:Agent><dc:title>CC-BY-SA 4.0 Wolthera van Hövell tot Westerflier</dc:title></cc:Agent></dc:rights><dc:date>october 2024</dc:date></cc:Work></rdf:RDF></metadata><path
     style="color:#000000;fill:#026eff;fill-opacity:1;stroke-linejoin:bevel;-inkscape-stroke:none"
     d="M 1.8639323,0.79165092 1.5904948,1.8855573 1.3229166,0.79374996 1.0173858,0.79620829 1.4635416,2.3883401 H 1.7154948 L 2.1601243,0.79620829 Z"
     id="path11705"
     sodipodi:nodetypes="cccccccc" /><path
     style="color:#000000;fill:#026eff;fill-opacity:1;stroke-linejoin:round;-inkscape-stroke:none"
     d="m 2.6467478,1.5872394 c -0.1701349,10e-8 -0.3088795,0.078204 -0.3964844,0.1777344 -0.087605,0.09953 -0.1330861,0.2149169 -0.1328125,0.328125 l 0.00195,0.5527344 c 2.8e-4,0.1158594 0.046426,0.2337261 0.1328125,0.3378906 0.086386,0.1041645 0.224472,0.1914063 0.3945312,0.1914063 0.1668062,-1e-7 0.3068163,-0.069588 0.3964844,-0.171875 C 3.132897,2.9009675 3.1760415,2.7716227 3.1760415,2.6458332 h -0.265625 c 0,0.064322 -0.023783,0.1349718 -0.066406,0.1835937 -0.042623,0.048622 -0.099489,0.082031 -0.1972656,0.082031 -0.082527,0 -0.1416606,-0.038075 -0.1894531,-0.095703 -0.04779,-0.057628 -0.074142,-0.1392026 -0.074216,-0.1699217 V 2.0930988 c -8.06e-5,-0.03337 0.020033,-0.1038303 0.064453,-0.1542969 0.04442,-0.050467 0.1047705,-0.085937 0.1992187,-0.085937 0.098528,0 0.1551078,0.032268 0.1972656,0.080078 0.042158,0.04781 0.066107,0.1178663 0.066406,0.1855469 l 0.265625,-0.00195 C 3.1754835,1.989607 3.1331508,1.8591359 3.0432322,1.7571613 2.9533136,1.6551867 2.812803,1.5872394 2.6467478,1.5872394 Z"
     id="rect11761" /><path
     id="rect11933"
     style="font-variation-settings:'opsz' 10;fill:#026eff;fill-opacity:1;stroke-width:0.264999;stroke-linejoin:round"
     d="M 2.6458332,2.3812499 H 3.1749998 V 2.6458332 H 2.6458332 Z" /><path
     style="color:#000000;fill:#026eff;stroke-linejoin:round;-inkscape-stroke:none"
     d="m 0.39687498,0 c -0.0857856,0 -0.19019723,0.0257022 -0.27148437,0.10546875 -0.0812871,0.0797665 -0.125,0.20373729 -0.125,0.35937499 0,0.11031223 0.0553273,0.2005629 0.1171875,0.26757813 0.0618602,0.0670153 0.13307299,0.11835946 0.19921875,0.16796876 0.0661458,0.049609 0.12670406,0.096247 0.1640625,0.13671867 0.0373584,0.040472 0.0488281,0.065911 0.0488281,0.087891 0,0.1102083 -0.026543,0.1534961 -0.0449219,0.171875 -0.0183789,0.018379 -0.0438281,0.027344 -0.0878906,0.027344 -0.0219793,0 -0.0477625,-0.009 -0.0761719,-0.046875 -0.0284094,-0.037879 -0.0566406,-0.1085416 -0.0566406,-0.21875 H 3.9061e-4 c 0,0.1543748 0.0385658,0.2825409 0.109375,0.3769531 0.0708092,0.094412 0.17679718,0.1523438 0.28710937,0.1523438 0.0882289,0 0.19455088,-0.022676 0.27539063,-0.1035156 0.0808398,-0.08084 0.12109375,-0.2050003 0.12109375,-0.359375 0,-0.1103123 -0.0553273,-0.20056287 -0.1171875,-0.26757817 -0.0618602,-0.0670158 -0.13307299,-0.11836 -0.19921875,-0.16796931 -0.0661458,-0.0496093 -0.12670406,-0.0962471 -0.1640625,-0.13671875 -0.0373584,-0.0404716 -0.0488281,-0.0659113 -0.0488281,-0.0878906 0,-0.10894531 0.027052,-0.15242285 0.046875,-0.171875 0.019823,-0.0194521 0.0469975,-0.0273437 0.0859375,-0.0273438 0.0310344,0 0.1328125,0.0457812 0.1328125,0.26367188 H 0.79335939 C 0.79335939,0.21802143 0.61529188,-3e-8 0.39687498,0 Z"
     id="path12045" /></svg>
