<?xml version="1.0" encoding="UTF-8" standalone="no"?>
<!-- Created with Inkscape (http://www.inkscape.org/) -->

<svg
   width="12"
   height="12"
   viewBox="0 0 3.1749999 3.175"
   version="1.1"
   id="svg5"
   xml:space="preserve"
   inkscape:version="1.2.2 (b0a8486541, 2022-12-01)"
   sodipodi:docname="font-type-bitmap.svg"
   xmlns:inkscape="http://www.inkscape.org/namespaces/inkscape"
   xmlns:sodipodi="http://sodipodi.sourceforge.net/DTD/sodipodi-0.dtd"
   xmlns="http://www.w3.org/2000/svg"
   xmlns:svg="http://www.w3.org/2000/svg"
   xmlns:rdf="http://www.w3.org/1999/02/22-rdf-syntax-ns#"
   xmlns:cc="http://creativecommons.org/ns#"
   xmlns:dc="http://purl.org/dc/elements/1.1/"><sodipodi:namedview
     id="namedview7"
     pagecolor="#ffffff"
     bordercolor="#666666"
     borderopacity="1.0"
     inkscape:showpageshadow="2"
     inkscape:pageopacity="0.0"
     inkscape:pagecheckerboard="0"
     inkscape:deskcolor="#d1d1d1"
     inkscape:document-units="mm"
     showgrid="true"
     inkscape:zoom="52.712632"
     inkscape:cx="4.6478423"
     inkscape:cy="6.0137388"
     inkscape:window-width="1920"
     inkscape:window-height="1010"
     inkscape:window-x="0"
     inkscape:window-y="0"
     inkscape:window-maximized="1"
     inkscape:current-layer="svg5"><inkscape:grid
       type="xygrid"
       id="grid1725"
       spacingx="0.13229166"
       spacingy="0.13229166"
       empspacing="2" /></sodipodi:namedview><defs
     id="defs2" /><path
     id="rect2437"
     style="display:inline;font-variation-settings:'opsz' 10;opacity:1;fill:#4d4d4d;stroke-width:1.207"
     d="M 0.26458333 0.79375 L 0.26458333 2.38125 L 0.52916667 2.38125 L 1.0583333 2.38125 L 1.0583333 2.1166667 L 0.52916667 2.1166667 L 0.52916667 1.5875 L 1.0583333 1.5875 L 1.0583333 1.3229167 L 0.52916667 1.3229167 L 0.52916667 1.0583333 L 1.0583333 1.0583333 L 1.0583333 0.79375 L 0.52916667 0.79375 L 0.26458333 0.79375 z M 1.0583333 1.0583333 L 1.0583333 1.3229167 L 1.3229167 1.3229167 L 1.3229167 1.0583333 L 1.0583333 1.0583333 z M 1.0583333 1.5875 L 1.0583333 2.1166667 L 1.3229167 2.1166667 L 1.3229167 1.5875 L 1.0583333 1.5875 z "
     inkscape:label="B" /><path
     id="rect2501"
     style="display:inline;font-variation-settings:'opsz' 10;opacity:1;fill:#4d4d4d;stroke-width:1.207"
     d="M 1.5875 0.79375 L 1.5875 2.38125 L 1.8520833 2.38125 L 1.8520833 1.3229167 L 2.1166667 1.3229167 L 2.1166667 1.0583333 L 1.8520833 1.0583333 L 1.8520833 0.79375 L 1.5875 0.79375 z M 2.1166667 1.3229167 L 2.1166667 1.5875 L 2.38125 1.5875 L 2.38125 1.3229167 L 2.1166667 1.3229167 z M 2.38125 1.3229167 L 2.6458333 1.3229167 L 2.6458333 2.38125 L 2.9104167 2.38125 L 2.9104167 0.79375 L 2.6458333 0.79375 L 2.6458333 1.0583333 L 2.38125 1.0583333 L 2.38125 1.3229167 z "
     inkscape:label="M" /><metadata
     id="metadata3005"><rdf:RDF><cc:Work
         rdf:about=""><dc:creator><cc:Agent><dc:title>Wolthera van Hövell tot Westerflier</dc:title></cc:Agent></dc:creator><dc:rights><cc:Agent><dc:title>CC-BY-SA 4.0 Wolthera van Hövell tot Westerflier</dc:title></cc:Agent></dc:rights><dc:date>october 2024</dc:date></cc:Work></rdf:RDF></metadata></svg>
