<?xml version="1.0" encoding="UTF-8" standalone="no"?>
<!-- Created with Inkscape (http://www.inkscape.org/) -->

<svg
   width="12"
   height="12"
   viewBox="0 0 3.1749999 3.175"
   version="1.1"
   id="svg5"
   xml:space="preserve"
   inkscape:version="1.2.2 (b0a8486541, 2022-12-01)"
   sodipodi:docname="font-type-opentype-variable.svg"
   xmlns:inkscape="http://www.inkscape.org/namespaces/inkscape"
   xmlns:sodipodi="http://sodipodi.sourceforge.net/DTD/sodipodi-0.dtd"
   xmlns="http://www.w3.org/2000/svg"
   xmlns:svg="http://www.w3.org/2000/svg"
   xmlns:rdf="http://www.w3.org/1999/02/22-rdf-syntax-ns#"
   xmlns:cc="http://creativecommons.org/ns#"
   xmlns:dc="http://purl.org/dc/elements/1.1/"><sodipodi:namedview
     id="namedview7"
     pagecolor="#ffffff"
     bordercolor="#666666"
     borderopacity="1.0"
     inkscape:showpageshadow="2"
     inkscape:pageopacity="0.0"
     inkscape:pagecheckerboard="0"
     inkscape:deskcolor="#d1d1d1"
     inkscape:document-units="mm"
     showgrid="true"
     inkscape:zoom="37.27346"
     inkscape:cx="3.6487088"
     inkscape:cy="6.8681577"
     inkscape:window-width="1920"
     inkscape:window-height="1010"
     inkscape:window-x="0"
     inkscape:window-y="0"
     inkscape:window-maximized="1"
     inkscape:current-layer="svg5"><inkscape:grid
       type="xygrid"
       id="grid1725"
       spacingx="0.13229166"
       spacingy="0.13229166"
       empspacing="2" /></sodipodi:namedview><defs
     id="defs2" /><metadata
     id="metadata3005"><rdf:RDF><cc:Work
         rdf:about=""><dc:creator><cc:Agent><dc:title>Wolthera van Hövell tot Westerflier</dc:title></cc:Agent></dc:creator><dc:rights><cc:Agent><dc:title>CC-BY-SA 4.0 Wolthera van Hövell tot Westerflier</dc:title></cc:Agent></dc:rights><dc:date>october 2024</dc:date></cc:Work></rdf:RDF></metadata><path
     id="rect6743"
     style="font-variation-settings:'opsz' 10;fill:#787777;fill-opacity:1;stroke-width:0.295813"
     d="M 2.3812499,0.26458333 H 2.6458332 V 1.5874999 H 2.3812499 Z" /><path
     id="rect7108"
     style="font-variation-settings:'opsz' 10;fill:#787777;fill-opacity:1;stroke-width:0.295813"
     d="M 1.8520832,0.26458333 H 3.1749998 V 0.52916665 H 1.8520832 Z"
     sodipodi:nodetypes="ccccc" /><path
     id="rect7108-3"
     style="font-variation-settings:'opsz' 10;fill:#787777;fill-opacity:1;stroke-width:0.187089"
     d="M 1.4542968,2.3812498 H 1.9834634 V 2.6458332 H 1.4542968 Z"
     sodipodi:nodetypes="ccccc" /><path
     id="rect7110"
     style="font-variation-settings:'opsz' 10;fill:#787777;fill-opacity:1;stroke-width:0.264583"
     d="M 2.3805987,1.8528644 H 2.645182 V 2.9111977 H 2.3805987 Z" /><path
     style="color:#000000;fill:#787777;fill-opacity:1;-inkscape-stroke:none"
     d="M 2.511979,1.851953 V 2.117578 H 2.9104165 V 2.3812499 H 2.511979 v 0.2656249 h 0.3984375 c 0.1442906,0 0.2636719,-0.1213344 0.2636719,-0.2656249 V 2.117578 c 0,-0.1442902 -0.1193812,-0.265625 -0.2636719,-0.265625 z"
     id="rect7113" /><path
     id="rect7113-36-7"
     style="color:#000000;fill:#787777;fill-opacity:1;-inkscape-stroke:none"
     d="M 1.5865885,2.1166666 V 2.9104165 H 1.3229166 V 2.1166666 c 0,-0.1442902 0.1193812,-0.265625 0.2636719,-0.265625 h 0.2645833 c 0.1442907,0 0.2636719,0.1213348 0.2636719,0.265625 V 2.9104165 H 1.8511718 V 2.1166666 Z"
     sodipodi:nodetypes="cccsscscccc" /><path
     id="rect7113-36-7-5"
     style="color:#000000;fill:#787777;fill-opacity:1;-inkscape-stroke:none"
     d="M 0.52916666,2.6447915 V 1.8510416 h -0.2636719 v 0.7937499 c 0,0.1442902 0.1193812,0.265625 0.2636719,0.265625 h 0.2645833 c 0.1442907,0 0.26367194,-0.1213348 0.26367194,-0.265625 V 1.8510416 H 0.79374996 v 0.7937499 z"
     sodipodi:nodetypes="cccsscscccc" /><path
     style="color:#000000;fill:#787777;fill-opacity:1;-inkscape-stroke:none"
     d="m 2.6486977,2.3812499 -0.00781,0.2656249 c 0.1549863,0.00418 0.2096295,0.032688 0.2304688,0.056641 0.020839,0.023952 0.039063,0.083993 0.039063,0.2070312 h 0.2636719 c 0,-0.1415447 -0.011257,-0.2748192 -0.1035157,-0.3808593 C 2.9783167,2.4236475 2.8350697,2.3862714 2.6487007,2.3812502 Z"
     id="rect7113-3" /><path
     style="color:#000000;fill:#787777;fill-opacity:1;stroke-linejoin:bevel;-inkscape-stroke:none"
     d="m 0.66139316,0.26490877 c -0.12662408,0 -0.23172308,0.0761 -0.29687498,0.1738281 -0.065152,0.097728 -0.099609,0.2218302 -0.099609,0.3554688 V 1.0578776 c 0,0.1336385 0.034458,0.2577409 0.099609,0.3554687 0.065152,0.097728 0.1702509,0.1738282 0.29687498,0.1738282 H 1.190758 c 0.1266241,0 0.2317231,-0.0761 0.296875,-0.1738282 C 1.552785,1.3156183 1.587242,1.1915161 1.587242,1.0578776 V 0.79420567 c 0,-0.1336385 -0.034458,-0.2577409 -0.099609,-0.3554688 C 1.422481,0.34100907 1.3173821,0.26490877 1.190758,0.26490877 Z m 0,0.2636719 H 1.190758 c 0.019955,0 0.045677,0.012851 0.076172,0.058594 0.030495,0.045742 0.056641,0.1208013 0.056641,0.2070313 V 1.0578779 c 0,0.08623 -0.026146,0.1612888 -0.056641,0.2070312 -0.030495,0.045742 -0.056217,0.058594 -0.076172,0.058594 H 0.66139316 c -0.019955,0 -0.045677,-0.012851 -0.076172,-0.058594 -0.030495,-0.045743 -0.056641,-0.1208016 -0.056641,-0.2070315 V 0.79420567 c 0,-0.08623 0.026146,-0.1612888 0.056641,-0.2070313 0.030495,-0.045742 0.056217,-0.058594 0.076172,-0.0585937 z"
     id="rect7274"
     sodipodi:nodetypes="scsscssssscsscscsssssssscc" /></svg>
