<?xml version="1.0" encoding="UTF-8" standalone="no"?>
<!-- Created with Inkscape (http://www.inkscape.org/) -->

<svg
   width="12"
   height="12"
   viewBox="0 0 3.1749999 3.175"
   version="1.1"
   id="svg5"
   xml:space="preserve"
   inkscape:version="1.2.2 (b0a8486541, 2022-12-01)"
   sodipodi:docname="font-color-type-clr-v0.svg"
   xmlns:inkscape="http://www.inkscape.org/namespaces/inkscape"
   xmlns:sodipodi="http://sodipodi.sourceforge.net/DTD/sodipodi-0.dtd"
   xmlns="http://www.w3.org/2000/svg"
   xmlns:svg="http://www.w3.org/2000/svg"
   xmlns:rdf="http://www.w3.org/1999/02/22-rdf-syntax-ns#"
   xmlns:cc="http://creativecommons.org/ns#"
   xmlns:dc="http://purl.org/dc/elements/1.1/"><sodipodi:namedview
     id="namedview7"
     pagecolor="#ffffff"
     bordercolor="#666666"
     borderopacity="1.0"
     inkscape:showpageshadow="2"
     inkscape:pageopacity="0.0"
     inkscape:pagecheckerboard="0"
     inkscape:deskcolor="#d1d1d1"
     inkscape:document-units="mm"
     showgrid="true"
     inkscape:zoom="52.712632"
     inkscape:cx="4.1735727"
     inkscape:cy="6.8105118"
     inkscape:window-width="1920"
     inkscape:window-height="1010"
     inkscape:window-x="0"
     inkscape:window-y="0"
     inkscape:window-maximized="1"
     inkscape:current-layer="svg5"><inkscape:grid
       type="xygrid"
       id="grid1725"
       spacingx="0.13229166"
       spacingy="0.13229166"
       empspacing="2" /></sodipodi:namedview><defs
     id="defs2" /><metadata
     id="metadata3005"><rdf:RDF><cc:Work
         rdf:about=""><dc:creator><cc:Agent><dc:title>Wolthera van Hövell tot Westerflier</dc:title></cc:Agent></dc:creator><dc:rights><cc:Agent><dc:title>CC-BY-SA 4.0 Wolthera van Hövell tot Westerflier</dc:title></cc:Agent></dc:rights><dc:date>october 2024</dc:date></cc:Work></rdf:RDF></metadata><path
     style="color:#000000;fill:#ef0022;-inkscape-stroke:none;fill-opacity:1"
     d="m 0.72851562,0.26367188 c -0.11291222,0 -0.21738962,0.0269181 -0.30273437,0.078125 C 0.3404365,0.39300373 0.26367188,0.48156837 0.26367188,0.59570312 V 0.9921875 c 0,0.1141347 0.0767646,0.2026994 0.16210937,0.2539062 0.0853448,0.051207 0.18982218,0.076172 0.30273437,0.076172 0.11291225,0 0.2154365,-0.024965 0.30078128,-0.076172 0.085345,-0.051207 0.1621094,-0.1397714 0.1621093,-0.2539062 H 0.92578125 c 0,-0.004201 0.002964,0.006815 -0.03125,0.0273437 -0.0342137,0.020528 -0.0957041,0.039063 -0.16601563,0.039063 -0.0703116,0 -0.13180192,-0.018534 -0.16601562,-0.039063 -0.0342137,-0.0205282 -0.0332031,-0.031544 -0.0332031,-0.0273437 V 0.59570312 c 0,0.0042 -0.001011,-0.006816 0.0332031,-0.0273438 0.0342137,-0.0205282 0.0957041,-0.0390625 0.16601562,-0.0390625 0.0703116,0 0.13180191,0.0185343 0.16601563,0.0390625 0.0342137,0.0205282 0.03125,0.0315442 0.03125,0.0273438 H 1.1914062 c 10e-8,-0.11413475 -0.076765,-0.2026994 -0.1621093,-0.25390624 -0.0853448,-0.0512069 -0.18786905,-0.078125 -0.30078128,-0.078125 z"
     id="rect6741" /><path
     id="rect6743"
     style="font-variation-settings:'opsz' 10;fill:#ef0022;stroke-width:0.264583;fill-opacity:1"
     d="M 1.3229166,0.26458332 H 1.5874999 V 1.3229167 H 1.3229166 Z" /><path
     id="rect7108"
     style="font-variation-settings:'opsz' 10;fill:#ef0022;stroke-width:0.264583;fill-opacity:1"
     d="m 1.5874999,1.0583333 h 0.396875 v 0.2645833 h -0.396875 z" /><path
     id="rect7110"
     style="font-variation-settings:'opsz' 10;fill:#ef0022;stroke-width:0.264583;fill-opacity:1"
     d="M 2.1166666,0.26458332 H 2.3812499 V 1.3229166 H 2.1166666 Z" /><path
     style="color:#000000;fill:#ef0022;-inkscape-stroke:none;fill-opacity:1"
     d="M 2.2480469,0.26367188 V 0.52929687 H 2.6464844 V 0.79296875 H 2.2480469 V 1.0585937 h 0.3984375 c 0.1442906,0 0.2636719,-0.1213344 0.2636719,-0.26562495 V 0.52929687 c 0,-0.14429018 -0.1193812,-0.265625 -0.2636719,-0.26562499 z"
     id="rect7113" /><path
     style="color:#000000;fill:#ef0022;-inkscape-stroke:none;fill-opacity:1"
     d="m 2.3847656,0.79296875 -0.00781,0.26562495 c 0.1549863,0.00418 0.2096295,0.032688 0.2304688,0.056641 0.020839,0.023952 0.039063,0.083993 0.039063,0.2070312 h 0.2636719 c 0,-0.1415447 -0.011257,-0.2748192 -0.1035157,-0.38085935 -0.092259,-0.10604016 -0.235506,-0.14341624 -0.421875,-0.1484375 z"
     id="rect7113-3" /><path
     style="color:#000000;fill:#ef0022;stroke-linejoin:bevel;-inkscape-stroke:none;fill-opacity:1"
     d="m 1.3222656,1.5859375 -0.2636719,0.00195 C 1.0623812,2.0268747 0.90253438,2.413222 0.79374996,2.5929167 0.68584968,2.411207 0.52929688,2.0231448 0.52929687,1.5878906 H 0.26367188 C 0.26367189,2.3023482 0.6875,2.9094417 0.6875,2.9094417 l 0.2109375,0.00195 c 0,0 0.430046,-0.6047618 0.4238281,-1.3254573 z"
     id="path7268"
     sodipodi:nodetypes="ccccccccc" /><path
     style="color:#000000;fill:#ef0022;stroke-linejoin:bevel;-inkscape-stroke:none;fill-opacity:1"
     d="m 1.984375,1.5878906 c -0.1266241,0 -0.2317231,0.0761 -0.296875,0.1738281 -0.065152,0.097728 -0.099609,0.2218302 -0.099609,0.3554688 v 0.2636719 c 0,0.1336385 0.034458,0.2577409 0.099609,0.3554687 0.065152,0.097728 0.1702509,0.1738282 0.296875,0.1738282 h 0.5292969 c 0.1266241,0 0.2317231,-0.0761 0.296875,-0.1738282 0.065152,-0.097728 0.099609,-0.2218302 0.099609,-0.3554687 V 2.1171875 c 0,-0.1336385 -0.034458,-0.2577409 -0.099609,-0.3554688 C 2.745395,1.6639909 2.640296,1.5878906 2.5136719,1.5878906 Z m 0,0.2636719 h 0.5292969 c 0.019955,0 0.045677,0.012851 0.076172,0.058594 0.030495,0.045742 0.056641,0.1208013 0.056641,0.2070313 v 0.2636719 c 0,0.08623 -0.026146,0.1612888 -0.056641,0.2070312 -0.030495,0.045742 -0.056217,0.058594 -0.076172,0.058594 H 1.984375 c -0.019955,0 -0.045677,-0.012851 -0.076172,-0.058594 C 1.8777082,2.5421482 1.8515625,2.4670893 1.8515625,2.3808594 V 2.1171875 c 0,-0.08623 0.026146,-0.1612888 0.056641,-0.2070313 0.030495,-0.045742 0.056217,-0.058594 0.076172,-0.058594 z"
     id="rect7274" /></svg>
