#define dcolorarrow_width 12
#define dcolorarrow_height 12
static const unsigned char dcolorarrow_bits[] = {
  0x08, 0x00, 0x0c, 0x00, 0x0e, 0x00, 0xff, 0x00, 0x0e, 0x01, 0x0c, 0x01,
  0x08, 0x01, 0x00, 0x01, 0xe0, 0x0f, 0xc0, 0x07, 0x80, 0x03, 0x00, 0x01,
  };
