/* XPM */
static char *closedhand_cursor[]={
"22 22 3 1",
". c None",
"# c #000000",
"a c #ffffff",
"......................",
"......................",
"......................",
"......................",
".......##.##.##.......",
"......#aa#aa#aa###....",
"......#aa#aa#aa#aa#...",
"......#aa#aa#aa#aa#...",
".....##aaaaaaaa#aa#...",
"....#a#aaaaaaaaaaa#...",
"....#a#aaaaaaaaaaa#...",
"....#a#aaaaaaaaaaa#...",
"....#aaaaaaaaaaaaa#...",
".....#aaaaaaaaaaaa#...",
".....#aaaaaaaaaaa#....",
"......#aaaaaaaaaa#....",
"......#aaaaaaaaaa#....",
".......#aaaaaaaa#.....",
".......#aaaaaaaa#.....",
".......##########.....",
"......................",
"......................"};
