/* XPM */
static char *openhand_cursor[]={
"22 22 3 1",
". c None",
"# c #000000",
"a c #ffffff",
"......................",
"..........##..........",
".........#aa###.......",
".......###aa#aa#......",
"......#aa#aa#aa##.....",
"......#aa#aa#aa#a#....",
"......#aa#aa#aa#aa#...",
"..###.#aa#aa#aa#aa#...",
"..#aa##aaaaaaaa#aa#...",
"..#aaa#aaaaaaaaaaa#...",
"...#aa#aaaaaaaaaaa#...",
"....#a#aaaaaaaaaaa#...",
"....#aaaaaaaaaaaaa#...",
".....#aaaaaaaaaaaa#...",
".....#aaaaaaaaaaa#....",
"......#aaaaaaaaaa#....",
"......#aaaaaaaaaa#....",
".......#aaaaaaaa#.....",
".......#aaaaaaaa#.....",
".......##########.....",
"......................",
"......................"};
