/* XPM */
static char *rotate_cursor[]={
"22 22 4 1",
"b c None",
". c None",
"a c #000000",
"# c #ffffff",
"......................",
"......................",
"....##...#####........",
"....#a###aaaaa##......",
"....#aaaabbbbbaa#.....",
"....#aaa#.....bba#....",
"....#aaaa#......ba#...",
"....######......bba#..",
".................ba#..",
"..bbb.............ba#.",
"..#ab.............ba#.",
"..#ab.............ba#.",
"..#ab.............ba#.",
"..#ab.............ba#.",
"...#ab............bbb.",
"...#ab.......######...",
"....#ab......#aaaa#...",
".....#abbb....#aaa#...",
"......#aabbbb#aaaa#...",
".......##aaaaa###a#...",
".........#####...##...",
"......................"};
