<?xml version="1.0" encoding="utf-8"?>
<!-- Generator: Adobe Illustrator 16.0.0, SVG Export Plug-In . SVG Version: 6.00 Build 0)  -->
<!DOCTYPE svg PUBLIC "-//W3C//DTD SVG 1.1//EN" "http://www.w3.org/Graphics/SVG/1.1/DTD/svg11.dtd">
<svg version="1.1" id="Layer_1" xmlns="http://www.w3.org/2000/svg" xmlns:xlink="http://www.w3.org/1999/xlink" x="0px" y="0px"
	 width="24px" height="24px" viewBox="0 0 24 24" enable-background="new 0 0 24 24" xml:space="preserve">
<path d="M9.488,3.907H24v2.791H9.488V3.907z M11.163,8.372H24v2.791H11.163V8.372z M11.163,12.837H24v2.791H11.163V12.837z
	 M9.488,17.302H24v2.791H9.488V17.302z M2.791,10.604c0,1.233,1,2.233,2.233,2.233H6.14v-2.233l3.767,3.628L6.14,17.86v-2.232H5.023
	C2.249,15.628,0,13.379,0,10.604V8.93c0-2.774,2.249-5.023,5.023-5.023H6.14v2.791H5.023c-1.233,0-2.233,1-2.233,2.232V10.604z"/>
</svg>
