<?xml version="1.0" encoding="UTF-8" standalone="no"?>
<!-- Created with Inkscape (http://www.inkscape.org/) -->

<svg
   xmlns:dc="http://purl.org/dc/elements/1.1/"
   xmlns:cc="http://creativecommons.org/ns#"
   xmlns:rdf="http://www.w3.org/1999/02/22-rdf-syntax-ns#"
   xmlns:svg="http://www.w3.org/2000/svg"
   xmlns="http://www.w3.org/2000/svg"
   xmlns:xlink="http://www.w3.org/1999/xlink"
   xmlns:sodipodi="http://sodipodi.sourceforge.net/DTD/sodipodi-0.dtd"
   xmlns:inkscape="http://www.inkscape.org/namespaces/inkscape"
   width="48px"
   height="48px"
   id="svg3463"
   version="1.1"
   inkscape:version="0.48.4 r9939"
   sodipodi:docname="icon-layer_paint-red.svg">
  <defs
     id="defs3465">
    <linearGradient
       y2="56.055851"
       x2="65.687874"
       y1="55.998959"
       x1="80.010139"
       gradientTransform="matrix(1.0606604,-1.0606604,1.0606604,1.0606604,-71.968564,109.54959)"
       gradientUnits="userSpaceOnUse"
       id="linearGradient7095"
       xlink:href="#linearGradient4214-9-6-6"
       inkscape:collect="always" />
    <linearGradient
       id="linearGradient4214-9-6-6">
      <stop
         style="stop-color:#000000;stop-opacity:1;"
         offset="0"
         id="stop4216-3-1-6" />
      <stop
         id="stop4218-02-2-7"
         offset="0.79447055"
         style="stop-color:#000000;stop-opacity:0.47058824;" />
      <stop
         style="stop-color:#000000;stop-opacity:0;"
         offset="1"
         id="stop4220-56-7-0" />
    </linearGradient>
    <linearGradient
       y2="56.055851"
       x2="65.687874"
       y1="55.998959"
       x1="80.010139"
       gradientTransform="matrix(1.0606604,-1.0606604,1.0606604,1.0606604,-71.968564,109.54959)"
       gradientUnits="userSpaceOnUse"
       id="linearGradient3490"
       xlink:href="#linearGradient4214-9-6-6"
       inkscape:collect="always" />
  </defs>
  <sodipodi:namedview
     id="base"
     pagecolor="#ffffff"
     bordercolor="#666666"
     borderopacity="1.0"
     inkscape:pageopacity="0.0"
     inkscape:pageshadow="2"
     inkscape:zoom="3.5"
     inkscape:cx="28.170429"
     inkscape:cy="26.892404"
     inkscape:current-layer="layer1"
     showgrid="true"
     inkscape:grid-bbox="true"
     inkscape:document-units="px"
     inkscape:window-width="775"
     inkscape:window-height="418"
     inkscape:window-x="1005"
     inkscape:window-y="137"
     inkscape:window-maximized="0">
    <inkscape:grid
       type="xygrid"
       id="grid3517"
       empspacing="8"
       visible="true"
       enabled="true"
       snapvisiblegridlinesonly="true" />
  </sodipodi:namedview>
  <metadata
     id="metadata3468">
    <rdf:RDF>
      <cc:Work
         rdf:about="">
        <dc:format>image/svg+xml</dc:format>
        <dc:type
           rdf:resource="http://purl.org/dc/dcmitype/StillImage" />
        <dc:title />
      </cc:Work>
    </rdf:RDF>
  </metadata>
  <g
     id="layer1"
     inkscape:label="Layer 1"
     inkscape:groupmode="layer">
    <g
       transform="matrix(1.2,0,0,1.2,-48,-86.4)"
       style="display:inline"
       id="g3450">
      <path
         inkscape:connector-curvature="0"
         d="M 60,72 C 48.95431,72 40,80.954308 40,91.999999 40,103.04569 48.95431,112 60,112 71.04569,112 80,103.04569 80,91.999999 80,80.954308 71.04569,72 60,72 z m 0,3.333333 c 9.20474,0 16.66666,7.461916 16.66666,16.666666 0,9.204741 -7.46192,16.666661 -16.66666,16.666661 -9.20475,0 -16.66667,-7.46192 -16.66667,-16.666661 0,-9.20475 7.46192,-16.666666 16.66667,-16.666666 z"
         id="path3850-7-4-8-4"
         style="color:#000000;fill:#000000;fill-opacity:1;fill-rule:nonzero;stroke:none;stroke-width:1.50000000000000000;marker:none;visibility:visible;display:inline;overflow:visible;enable-background:accumulate" />
      <path
         sodipodi:nodetypes="cccccscsccccc"
         inkscape:connector-curvature="0"
         id="path7077"
         d="m 52,82 0,21 16,0 0,-11.771447 c -2.230398,2.177414 -4.384688,3.636896 -6.354473,4.760724 -0.591323,1.122962 -0.767858,2.61161 -1.625,3.46875 -1.060661,1.060663 -5.883347,-0.27589 -3.762025,-0.27589 1.060663,-1.060662 0.566562,-2.811197 1.627221,-3.871858 0.830003,-0.830003 1.888747,-0.578729 2.71875,-0.84375 C 62.023364,92.022723 65.421489,88.144737 68,85.740197 L 68,82 66,82 z"
         style="fill:#000000;fill-opacity:1;stroke:none" />
      <path
         id="path4094-3"
         d="m 72,83.999998 c -1.726178,0.07023 -8.633339,7.006274 -11.015629,11.109377 -0.830003,0.265021 -1.654373,-0.173753 -2.484376,0.65625 -1.060659,1.060661 -0.01746,2.12684 -1.078123,3.187503 -2.121322,0 1.048713,1.060662 2.109374,0 0.857142,-0.85714 1.049302,-2.392666 1.640625,-3.515628 C 65.547147,92.941259 73.300449,85.112947 72.28125,84.093748 72.21496,84.027468 72.12093,83.995078 72,83.999998 z"
         style="fill:url(#linearGradient3490);fill-opacity:1;stroke:none;display:inline"
         inkscape:connector-curvature="0" />
    </g>
  </g>
</svg>
