<?xml version="1.0" encoding="UTF-8" standalone="no"?>
<!-- Created with Inkscape (http://www.inkscape.org/) -->

<svg
   xmlns:dc="http://purl.org/dc/elements/1.1/"
   xmlns:cc="http://creativecommons.org/ns#"
   xmlns:rdf="http://www.w3.org/1999/02/22-rdf-syntax-ns#"
   xmlns:svg="http://www.w3.org/2000/svg"
   xmlns="http://www.w3.org/2000/svg"
   xmlns:xlink="http://www.w3.org/1999/xlink"
   xmlns:sodipodi="http://sodipodi.sourceforge.net/DTD/sodipodi-0.dtd"
   xmlns:inkscape="http://www.inkscape.org/namespaces/inkscape"
   width="48"
   height="48"
   id="svg3531"
   version="1.1"
   inkscape:version="0.48.3.1 r9886"
   sodipodi:docname="icon-colorsampler.svg">
  <defs
     id="defs3533">
    <linearGradient
       id="linearGradient9325-9-2-1">
      <stop
         style="stop-color:#ffffff;stop-opacity:0.58823532;"
         offset="0"
         id="stop9327-9-6-9" />
      <stop
         style="stop-color:#ffffff;stop-opacity:0;"
         offset="1"
         id="stop9329-0-5-2" />
    </linearGradient>
    <linearGradient
       inkscape:collect="always"
       xlink:href="#linearGradient6412"
       id="linearGradient6418"
       x1="152.66541"
       y1="92.126663"
       x2="155.85199"
       y2="92.126663"
       gradientUnits="userSpaceOnUse"
       gradientTransform="matrix(0.40610859,-1.5156179,1.5156179,0.40610859,-45.127839,290.46424)" />
    <linearGradient
       id="linearGradient6412">
      <stop
         style="stop-color:#00821e;stop-opacity:0.58823532;"
         offset="0"
         id="stop6414" />
      <stop
         id="stop6478"
         offset="0.39999965"
         style="stop-color:#00821e;stop-opacity:1;" />
      <stop
         style="stop-color:#00821e;stop-opacity:0;"
         offset="1"
         id="stop6416" />
    </linearGradient>
    <linearGradient
       inkscape:collect="always"
       xlink:href="#linearGradient6430"
       id="linearGradient6446"
       gradientUnits="userSpaceOnUse"
       x1="155.85197"
       y1="87.390831"
       x2="155.85197"
       y2="94.401299" />
    <linearGradient
       id="linearGradient6430">
      <stop
         style="stop-color:#00821e;stop-opacity:1;"
         offset="0"
         id="stop6432" />
      <stop
         style="stop-color:#00821e;stop-opacity:0;"
         offset="1"
         id="stop6434" />
    </linearGradient>
    <linearGradient
       inkscape:collect="always"
       xlink:href="#linearGradient6486"
       id="linearGradient6492"
       x1="208"
       y1="95"
       x2="208"
       y2="104"
       gradientUnits="userSpaceOnUse"
       gradientTransform="matrix(0.70710678,0.70710678,-0.70710678,0.70710678,134.89243,-124.92385)" />
    <linearGradient
       id="linearGradient6486">
      <stop
         style="stop-color:#ffffff;stop-opacity:1;"
         offset="0"
         id="stop6488" />
      <stop
         style="stop-color:#ffffff;stop-opacity:0;"
         offset="1"
         id="stop6490" />
    </linearGradient>
    <linearGradient
       y2="104"
       x2="208"
       y1="95"
       x1="208"
       gradientTransform="matrix(1.4196767,1.4196767,-1.4196767,1.4196767,49.020403,-335.66274)"
       gradientUnits="userSpaceOnUse"
       id="linearGradient4750"
       xlink:href="#linearGradient6486"
       inkscape:collect="always" />
  </defs>
  <sodipodi:namedview
     id="base"
     pagecolor="#ffffff"
     bordercolor="#666666"
     borderopacity="1.0"
     inkscape:pageopacity="0"
     inkscape:pageshadow="2"
     inkscape:zoom="0.97227183"
     inkscape:cx="23.664042"
     inkscape:cy="14.097494"
     inkscape:current-layer="layer1"
     showgrid="false"
     inkscape:document-units="px"
     inkscape:grid-bbox="true"
     inkscape:window-width="1920"
     inkscape:window-height="1025"
     inkscape:window-x="-3"
     inkscape:window-y="32"
     inkscape:window-maximized="1">
    <inkscape:grid
       type="xygrid"
       id="grid3539"
       empspacing="8"
       visible="true"
       enabled="true"
       snapvisiblegridlinesonly="true" />
  </sodipodi:namedview>
  <metadata
     id="metadata3536">
    <rdf:RDF>
      <cc:Work
         rdf:about="">
        <dc:format>image/svg+xml</dc:format>
        <dc:type
           rdf:resource="http://purl.org/dc/dcmitype/StillImage" />
        <dc:title></dc:title>
      </cc:Work>
    </rdf:RDF>
  </metadata>
  <g
     id="layer1"
     inkscape:label="Layer 1"
     inkscape:groupmode="layer"
     transform="translate(0,-16)">
    <g
       transform="translate(-184,-56)"
       style="display:inline"
       id="g4719">
      <g
         transform="translate(176.00003,0)"
         id="g6302-6-0-6"
         style="display:inline">
        <g
           transform="matrix(0.75000001,0,0,0.75,-106.00003,-66)"
           id="g4182-7-9-4-3-0"
           style="fill:#00821e;fill-opacity:1;display:inline">
          <path
             id="path3850-7-6-0-3-7"
             d="m 184,184 c -17.67311,0 -32,14.32689 -32,32 0,17.67311 14.32689,32 32,32 17.67311,0 32,-14.32689 32,-32 0,-17.67311 -14.32689,-32 -32,-32 z m 0,5.33333 c 14.72759,0 26.66666,11.93907 26.66666,26.66667 0,14.72759 -11.93907,26.66666 -26.66666,26.66666 -14.7276,0 -26.66667,-11.93907 -26.66667,-26.66666 0,-14.7276 11.93907,-26.66667 26.66667,-26.66667 z"
             style="color:#000000;fill:#ffffff;fill-opacity:1;fill-rule:nonzero;stroke:none;stroke-width:1.5;marker:none;visibility:visible;display:inline;overflow:visible;enable-background:accumulate"
             inkscape:connector-curvature="0"
             sodipodi:nodetypes="ssssssssss" />
        </g>
      </g>
      <path
         transform="matrix(1.4196767,1.4196767,-1.4196767,1.4196767,49.020397,-335.66273)"
         d="m 210,90 c 0,1.104569 -0.89543,2 -2,2 -1.10457,0 -2,-0.895431 -2,-2 0,-1.104569 0.89543,-2 2,-2 1.10457,0 2,0.895431 2,2 z"
         sodipodi:ry="2"
         sodipodi:rx="2"
         sodipodi:cy="90"
         sodipodi:cx="208"
         id="path6480"
         style="color:#000000;fill:#ffffff;fill-opacity:1;fill-rule:nonzero;stroke:none;stroke-width:0.40000001000000002;marker:none;visibility:visible;display:inline;overflow:visible;enable-background:accumulate"
         sodipodi:type="arc" />
      <path
         inkscape:connector-curvature="0"
         id="path6482"
         d="m 215.12257,88.820605 c -0.36465,-0.364646 -0.90972,-0.703859 -1.55278,-1.020393 0.0849,0.630862 0.35346,1.240755 0.84295,1.73023 0.48948,0.489476 1.09937,0.757995 1.73023,0.842934 -0.31653,-0.643055 -0.65576,-1.188128 -1.0204,-1.552771 z m -3.54918,-1.774597 c -1.41968,-0.354918 -2.83937,-0.354918 -3.5492,0.354919 -1.41968,1.419678 -1.41968,7.098384 -1.41968,7.098384 l 2.83936,2.839353 c 0,0 5.6787,0 7.09838,-1.419676 0.70983,-0.709839 0.70983,-2.129516 0.35493,-3.549192 -1.40585,0.101531 -2.83552,-0.351073 -3.90413,-1.419677 -1.06859,-1.068604 -1.52121,-2.498259 -1.41966,-3.904111 z"
         style="fill:#ffffff;fill-opacity:1;stroke:none" />
      <path
         sodipodi:nodetypes="cccccc"
         inkscape:connector-curvature="0"
         id="path6484"
         d="m 197.45903,108.06866 2.0471,-0.79225 9.93774,-9.937746 -2.83936,-2.839353 -9.93774,9.937729 L 196,106.60962"
         style="fill:url(#linearGradient4750);fill-opacity:1;stroke:#ffffff;stroke-width:1.00386298000000007;stroke-linecap:round;stroke-miterlimit:4;stroke-opacity:1;stroke-dasharray:none" />
    </g>
  </g>
</svg>
