<?xml version="1.0" encoding="UTF-8" standalone="no"?>
<!-- Created with Inkscape (http://www.inkscape.org/) -->

<svg
   xmlns:dc="http://purl.org/dc/elements/1.1/"
   xmlns:cc="http://creativecommons.org/ns#"
   xmlns:rdf="http://www.w3.org/1999/02/22-rdf-syntax-ns#"
   xmlns:svg="http://www.w3.org/2000/svg"
   xmlns="http://www.w3.org/2000/svg"
   xmlns:xlink="http://www.w3.org/1999/xlink"
   xmlns:sodipodi="http://sodipodi.sourceforge.net/DTD/sodipodi-0.dtd"
   xmlns:inkscape="http://www.inkscape.org/namespaces/inkscape"
   width="48"
   height="48"
   id="svg3531"
   version="1.1"
   inkscape:version="0.48.3.1 r9886"
   sodipodi:docname="icon-select-reselect.svg">
  <defs
     id="defs3533">
    <linearGradient
       inkscape:collect="always"
       xlink:href="#linearGradient9325-9-2-1"
       id="linearGradient9331-1-7-6"
       x1="72"
       y1="256"
       x2="72"
       y2="272"
       gradientUnits="userSpaceOnUse" />
    <linearGradient
       id="linearGradient9325-9-2-1">
      <stop
         style="stop-color:#ffffff;stop-opacity:0.58823532;"
         offset="0"
         id="stop9327-9-6-9" />
      <stop
         style="stop-color:#ffffff;stop-opacity:0;"
         offset="1"
         id="stop9329-0-5-2" />
    </linearGradient>
  </defs>
  <sodipodi:namedview
     id="base"
     pagecolor="#888888"
     bordercolor="#666666"
     borderopacity="1.0"
     inkscape:pageopacity="0.50980392"
     inkscape:pageshadow="2"
     inkscape:zoom="5.5"
     inkscape:cx="22.545455"
     inkscape:cy="25.090909"
     inkscape:current-layer="layer1"
     showgrid="true"
     inkscape:document-units="px"
     inkscape:grid-bbox="true"
     inkscape:window-width="736"
     inkscape:window-height="596"
     inkscape:window-x="1068"
     inkscape:window-y="272"
     inkscape:window-maximized="0">
    <inkscape:grid
       type="xygrid"
       id="grid3539"
       empspacing="8"
       visible="true"
       enabled="true"
       snapvisiblegridlinesonly="true" />
  </sodipodi:namedview>
  <metadata
     id="metadata3536">
    <rdf:RDF>
      <cc:Work
         rdf:about="">
        <dc:format>image/svg+xml</dc:format>
        <dc:type
           rdf:resource="http://purl.org/dc/dcmitype/StillImage" />
        <dc:title></dc:title>
      </cc:Work>
    </rdf:RDF>
  </metadata>
  <g
     id="layer1"
     inkscape:label="Layer 1"
     inkscape:groupmode="layer"
     transform="translate(0,-16)">
    <g
       style="display:inline"
       inkscape:label="Layer 1"
       id="layer1-2"
       transform="translate(0,16)">
      <g
         id="layer1-1"
         inkscape:label="Layer 1"
         style="display:inline">
        <g
           transform="translate(-48,-287.99995)"
           style="display:inline"
           id="g3392">
          <path
             inkscape:connector-curvature="0"
             d="m 71.999999,287.99995 c -13.254833,0 -23.999999,10.74517 -23.999999,24 0,13.25483 10.745166,24 23.999999,24 13.254831,0 24.000001,-10.74517 24.000001,-24 0,-13.25483 -10.74517,-24 -24.000001,-24 z m 0,4 c 11.045691,0 19.999993,8.9543 19.999993,20 0,11.04569 -8.954302,19.99999 -19.999993,19.99999 -11.0457,0 -20.000002,-8.9543 -20.000002,-19.99999 0,-11.0457 8.954302,-20 20.000002,-20 z"
             id="path3850-7-3"
             style="color:#000000;fill:#ffffff;fill-opacity:1;fill-rule:nonzero;stroke:none;stroke-width:1.5;marker:none;visibility:visible;display:inline;overflow:visible;enable-background:accumulate" />
          <path
             transform="matrix(0.53038674,0,0,0.52174023,39.79558,166.95625)"
             d="m 80,264 c 0,4.41828 -3.581722,8 -8,8 -4.418278,0 -8,-3.58172 -8,-8 0,-4.41828 3.581722,-8 8,-8 4.418278,0 8,3.58172 8,8 z"
             sodipodi:ry="8"
             sodipodi:rx="8"
             sodipodi:cy="264"
             sodipodi:cx="72"
             id="path9319"
             style="color:#000000;fill:url(#linearGradient9331-1-7-6);fill-opacity:1;stroke:#ffffff;stroke-width:1.9009757;stroke-linecap:round;stroke-linejoin:round;stroke-miterlimit:4;stroke-opacity:1;stroke-dasharray:none;stroke-dashoffset:0;marker:none;visibility:visible;display:inline;overflow:visible;enable-background:accumulate"
             sodipodi:type="arc" />
          <path
             transform="matrix(0.53038674,0,0,0.52174023,39.79558,166.95625)"
             d="m 76,264 c 0,2.20914 -1.790861,4 -4,4 -2.209139,0 -4,-1.79086 -4,-4 0,-2.20914 1.790861,-4 4,-4 2.209139,0 4,1.79086 4,4 z"
             sodipodi:ry="4"
             sodipodi:rx="4"
             sodipodi:cy="264"
             sodipodi:cx="72"
             id="path9323"
             style="color:#000000;fill:#ffffff;fill-opacity:1;stroke:#ffffff;stroke-width:1.9009757;stroke-linecap:round;stroke-linejoin:round;stroke-miterlimit:4;stroke-opacity:1;stroke-dasharray:none;stroke-dashoffset:0;marker:none;visibility:visible;display:inline;overflow:visible;enable-background:accumulate"
             sodipodi:type="arc" />
          <path
             sodipodi:nodetypes="scccscccsssscss"
             inkscape:connector-curvature="0"
             id="path9402"
             d="M 77.983425,299.99998 C 71.471455,299.99998 69,305.82075 69,305.82075 l -0.03315,0.0815 0.03315,0.0977 c 0,0 2.441989,5.99991 8.983425,5.99991 6.541437,0 8.983426,-5.90223 8.983426,-5.90223 L 87,305.99995 l -0.03315,-0.0815 c 0,0 -2.471455,-5.91845 -8.983426,-5.91845 z M 78,300.99995 c 6.050151,0 7.892634,4.74268 8,5 -0.107076,0.30563 -1.992771,5.47831 -8.016575,5.47831 -6.023803,0 -7.876349,-5.17268 -7.983425,-5.47831 0.107366,-0.25732 1.94985,-5 8,-5 z"
             style="font-size:medium;font-style:normal;font-variant:normal;font-weight:normal;font-stretch:normal;text-indent:0;text-align:start;text-decoration:none;line-height:normal;letter-spacing:normal;word-spacing:normal;text-transform:none;direction:ltr;block-progression:tb;writing-mode:lr-tb;text-anchor:start;baseline-shift:baseline;color:#000000;fill:#ffffff;fill-opacity:1;stroke:none;stroke-width:1;marker:none;visibility:visible;display:inline;overflow:visible;enable-background:accumulate;font-family:Sans;-inkscape-font-specification:Sans" />
        </g>
      </g>
    </g>
    <path
       style="font-size:medium;font-style:normal;font-variant:normal;font-weight:normal;font-stretch:normal;text-indent:0;text-align:start;text-decoration:none;line-height:normal;letter-spacing:normal;word-spacing:normal;text-transform:none;direction:ltr;block-progression:tb;writing-mode:lr-tb;text-anchor:start;baseline-shift:baseline;color:#000000;fill:#ffffff;fill-opacity:1;stroke:none;stroke-width:1;marker:none;visibility:visible;display:inline;overflow:visible;enable-background:accumulate;font-family:Sans;-inkscape-font-specification:Sans"
       d="m 13.5,30 0,1 1,0 0,-0.5 0.5,0 0,-1 -1,0 -0.5,0 z m 3.5,0.5 2,0 0,-1 -2,0 z m 4,0 2,0 0,-1 -2,0 z m -7.5,4.5 1,0 0,-2 -1,0 z m 0,4 1,0 0,-2 -1,0 z m 0,4 1,0 0,-2 -1,0 z m 20,0 1,0 0,-2 -1,0 z m -20,4 1,0 0,-2 -1,0 z m 20,0 1,0 0,-2 -1,0 z m -20,3 0,0.5 0.5,0 1,0 0,-1 -0.5,0 0,-0.5 -1,0 z m 20,-0.5 -0.5,0 0,1 1,0 0.5,0 0,-0.5 0,-1 -1,0 z m -16.5,1 2,0 0,-1 -2,0 z m 4,0 2,0 0,-1 -2,0 z m 4,0 2,0 0,-1 -2,0 z m 4,0 2,0 0,-1 -2,0 z"
       id="rect6027-0"
       inkscape:connector-curvature="0" />
  </g>
</svg>
