<svg xmlns:dc="http://purl.org/dc/elements/1.1/" xmlns:cc="http://creativecommons.org/ns#" xmlns:rdf="http://www.w3.org/1999/02/22-rdf-syntax-ns#" xmlns="http://www.w3.org/2000/svg" xmlns:sodipodi="http://sodipodi.sourceforge.net/DTD/sodipodi-0.dtd" xmlns:inkscape="http://www.inkscape.org/namespaces/inkscape" viewBox="0 0 22 22" id="svg2" version="1.1" inkscape:version="0.91 r13725" sodipodi:docname="dark_zoom-in.svg"><metadata id="metadata10"><rdf:RDF><cc:Work><dc:format>image/svg+xml</dc:format><dc:type rdf:resource="http://purl.org/dc/dcmitype/StillImage"/></cc:Work></rdf:RDF></metadata><sodipodi:namedview pagecolor="#ffffff" bordercolor="#666666" borderopacity="1" objecttolerance="10" gridtolerance="10" guidetolerance="10" inkscape:pageopacity="0" inkscape:pageshadow="2" inkscape:window-width="1884" inkscape:window-height="1051" id="namedview8" showgrid="false" inkscape:zoom="10.727273" inkscape:cx="-1.4125805" inkscape:cy="17.152542" inkscape:window-x="0" inkscape:window-y="0" inkscape:window-maximized="1" inkscape:current-layer="svg2"/><path style="fill:#373737;fill-opacity:1;stroke:none;color:#f2f2f2" d="M3 3v2h1V4h1V3H3zm5 0v1h2V3H8zm4 0v1h2V3h-2zm5 0v1h1v1h1V3h-2zm-6 4v1h2.293L10 11.293l.707.707L14 8.707V11h1V7h-4zM3 8v2h1V8H3zm15 0v2h1V8h-1zm0 4v2h1v-2h-1zM3 13v6h6v-6H3zm1 1h4v4H4v-4zm14 3v1h-1v1h2v-2h-1z" id="path6"/></svg>