<?xml version="1.0" encoding="UTF-8" standalone="no"?>
<!-- Created with Inkscape (http://www.inkscape.org/) -->

<svg
   xmlns:dc="http://purl.org/dc/elements/1.1/"
   xmlns:cc="http://creativecommons.org/ns#"
   xmlns:rdf="http://www.w3.org/1999/02/22-rdf-syntax-ns#"
   xmlns:svg="http://www.w3.org/2000/svg"
   xmlns="http://www.w3.org/2000/svg"
   xmlns:sodipodi="http://sodipodi.sourceforge.net/DTD/sodipodi-0.dtd"
   xmlns:inkscape="http://www.inkscape.org/namespaces/inkscape"
   width="22"
   height="22"
   id="svg18109"
   version="1.1"
   inkscape:version="0.91pre2 r"
   sodipodi:docname="object-rotate-left.svg">
  <defs
     id="defs18111" />
  <sodipodi:namedview
     id="base"
     pagecolor="#ffffff"
     bordercolor="#666666"
     borderopacity="1.0"
     inkscape:pageopacity="0.0"
     inkscape:pageshadow="2"
     inkscape:zoom="22.627417"
     inkscape:cx="6.5453363"
     inkscape:cy="10.899178"
     inkscape:document-units="px"
     inkscape:current-layer="layer1"
     showgrid="true"
     inkscape:window-width="1366"
     inkscape:window-height="672"
     inkscape:window-x="-4"
     inkscape:window-y="25"
     inkscape:window-maximized="1"
     inkscape:showpageshadow="false"
     showguides="true">
    <inkscape:grid
       type="xygrid"
       id="grid4122" />
    <sodipodi:guide
       position="3,3.0000174"
       orientation="-16,0"
       id="guide4126" />
    <sodipodi:guide
       position="3,19.000017"
       orientation="0,16"
       id="guide4128" />
    <sodipodi:guide
       position="19,19.000017"
       orientation="16,0"
       id="guide4130" />
    <sodipodi:guide
       position="19,3.0000174"
       orientation="0,-16"
       id="guide4132" />
    <sodipodi:guide
       position="2,2.0000174"
       orientation="-18,0"
       id="guide4134" />
    <sodipodi:guide
       position="2,20.000017"
       orientation="0,18"
       id="guide4136" />
    <sodipodi:guide
       position="20,20.000017"
       orientation="18,0"
       id="guide4138" />
    <sodipodi:guide
       position="20,2.0000174"
       orientation="0,-18"
       id="guide4140" />
  </sodipodi:namedview>
  <metadata
     id="metadata18114">
    <rdf:RDF>
      <cc:Work
         rdf:about="">
        <dc:format>image/svg+xml</dc:format>
        <dc:type
           rdf:resource="http://purl.org/dc/dcmitype/StillImage" />
        <dc:title />
      </cc:Work>
    </rdf:RDF>
  </metadata>
  <g
     inkscape:label="Capa 1"
     inkscape:groupmode="layer"
     id="layer1"
     transform="translate(0,-1030.3622)">
    <path
       style="color:#000000;text-decoration:none;text-decoration-line:none;text-decoration-style:solid;text-decoration-color:#000000;clip-rule:nonzero;display:inline;overflow:visible;visibility:visible;opacity:1;isolation:auto;mix-blend-mode:normal;color-interpolation:sRGB;color-interpolation-filters:linearRGB;solid-color:#000000;solid-opacity:1;fill:#4d4d4d;fill-opacity:1;fill-rule:nonzero;stroke:none;stroke-width:1;stroke-linecap:butt;stroke-linejoin:miter;stroke-miterlimit:4;stroke-dasharray:none;stroke-dashoffset:0;stroke-opacity:1;color-rendering:auto;image-rendering:auto;shape-rendering:auto;text-rendering:auto;enable-background:accumulate"
       d="M 12.400391 3 L 9.1074219 6.2929688 L 8.9003906 6.5 L 9.1074219 6.7070312 L 12.400391 10 L 13.107422 9.2929688 L 10.814453 7 L 13.099609 7 L 14 7 L 14 6 L 13.099609 6 L 10.814453 6 L 13.107422 3.7070312 L 12.400391 3 z M 15.5 6 C 15.223 6 15 6.223 15 6.5 C 15 6.777 15.223 7 15.5 7 C 15.777 7 16 6.777 16 6.5 C 16 6.223 15.777 6 15.5 6 z M 6.9492188 8 L 2 12.949219 L 8.0507812 19 L 13 14.050781 L 6.9492188 8 z M 18.5 8 C 18.223 8 18 8.223 18 8.5 C 18 8.777 18.223 9 18.5 9 C 18.777 9 19 8.777 19 8.5 C 19 8.223 18.777 8 18.5 8 z M 6.9492188 9.4140625 L 11.726562 14.191406 L 8.1914062 17.726562 L 3.4140625 12.949219 L 6.9492188 9.4140625 z M 19.5 11 C 19.223 11 19 11.223 19 11.5 C 19 11.777 19.223 12 19.5 12 C 19.777 12 20 11.777 20 11.5 C 20 11.223 19.777 11 19.5 11 z M 18.5 14 C 18.223 14 18 14.223 18 14.5 C 18 14.777 18.223 15 18.5 15 C 18.777 15 19 14.777 19 14.5 C 19 14.223 18.777 14 18.5 14 z M 15.5 16 C 15.223 16 15 16.223 15 16.5 C 15 16.777 15.223 17 15.5 17 C 15.777 17 16 16.777 16 16.5 C 16 16.223 15.777 16 15.5 16 z "
       transform="translate(0,1030.3622)"
       id="rect4144" />
  </g>
</svg>
