<!--Created with Inkscape (http://www.inkscape.org/)--><svg xmlns:dc="http://purl.org/dc/elements/1.1/" xmlns:cc="http://creativecommons.org/ns#" xmlns:rdf="http://www.w3.org/1999/02/22-rdf-syntax-ns#" xmlns="http://www.w3.org/2000/svg" xmlns:sodipodi="http://sodipodi.sourceforge.net/DTD/sodipodi-0.dtd" xmlns:inkscape="http://www.inkscape.org/namespaces/inkscape" width="22" height="22" id="svg2" version="1.1" inkscape:version="0.91+devel r" viewBox="0 0 22 22" sodipodi:docname="kde.svg"><sodipodi:namedview id="base" pagecolor="#ffffff" bordercolor="#666666" borderopacity="1.0" inkscape:pageopacity="0.0" inkscape:pageshadow="2" inkscape:zoom="25.212092" inkscape:cx="7.3679769" inkscape:cy="9.3171986" inkscape:document-units="px" inkscape:current-layer="layer1" showgrid="true" units="px" inkscape:showpageshadow="false" inkscape:window-width="1366" inkscape:window-height="670" inkscape:window-x="-4" inkscape:window-y="29" inkscape:window-maximized="1" showguides="true"><inkscape:grid type="xygrid" id="grid4101"/><sodipodi:guide position="2,20.000017" orientation="18,0" id="guide4107"/><sodipodi:guide position="2,2.0000174" orientation="0,18" id="guide4109"/><sodipodi:guide position="20,2.0000174" orientation="-18,0" id="guide4111"/><sodipodi:guide position="20,20.000017" orientation="0,-18" id="guide4113"/><sodipodi:guide position="3,19.000017" orientation="16,0" id="guide4115"/><sodipodi:guide position="3,3.0000174" orientation="0,16" id="guide4117"/><sodipodi:guide position="19,3.0000174" orientation="-16,0" id="guide4119"/><sodipodi:guide position="19,19.000017" orientation="0,-16" id="guide4121"/><sodipodi:guide position="10,6.0000174" orientation="-7,0" id="guide4162"/><sodipodi:guide position="11,12.000017" orientation="5,0" id="guide4280"/><sodipodi:guide position="11,7.0000174" orientation="0,5" id="guide4282"/><sodipodi:guide position="16,7.0000174" orientation="-5,0" id="guide4284"/><sodipodi:guide position="16,12.000017" orientation="0,-5" id="guide4286"/><sodipodi:guide position="5,13.000017" orientation="6,0" id="guide4294"/><sodipodi:guide position="5,7.0000174" orientation="0,6" id="guide4296"/><sodipodi:guide position="11,7.0000174" orientation="-6,0" id="guide4298"/></sodipodi:namedview><metadata id="metadata7"><rdf:RDF><cc:Work><dc:format>image/svg+xml</dc:format><dc:type rdf:resource="http://purl.org/dc/dcmitype/StillImage"/><dc:title/></cc:Work></rdf:RDF></metadata><g inkscape:label="Capa 1" inkscape:groupmode="layer" id="layer1" transform="translate(0 -1030.362)"><path style="fill:#373737;fill-opacity:1;stroke:none" d="m12.339 1033.362-2.833.265v10.94l2.801-.382v-4.676l3.736 5.176 2.926-.883-3.829-4.97 3.86-4.705-2.988-.647-3.705 4.705.032-4.823zm-6.382 2.676a.22.22 0 0 0-.093.03l-1.09 1.06c-.046.045-.065.122-.03.176l1.275 2c-.229.363-.398.762-.529 1.175l-2.366.471c-.066.017-.124.054-.124.118v1.47c0 .063.061.132.124.147l2.304.53c.123.48.309.935.56 1.352l-1.338 1.912c-.037.054-.018.132.031.177l1.09 1.029c.046.042.13.064.186.03l2.086-1.206c.41.224.84.41 1.307.53l.498 2.205c.015.064.058.118.125.118h1.556c.066 0 .14-.057.156-.118l.56-2.206c.482-.122.95-.324 1.37-.558l2.054 1.294c.057.034.139.017.187-.03l1.09-1.03c.046-.046.065-.122.03-.176l-.746-1.176-.25.088c-.035.017-.072 0-.093-.03 0 0-.47-.674-1.09-1.53-.739 1.368-2.246 2.295-3.984 2.295-2.469 0-4.482-1.873-4.482-4.206 0-1.715 1.09-3.191 2.646-3.852v-1.088c-.283.094-.55.19-.81.323h-.03l-2.087-1.294a.162.162 0 0 0-.093-.029z" id="path5692_2_-3-2" inkscape:connector-curvature="0"/></g></svg>