<!--Created with Inkscape (http://www.inkscape.org/)--><svg xmlns:dc="http://purl.org/dc/elements/1.1/" xmlns:cc="http://creativecommons.org/ns#" xmlns:rdf="http://www.w3.org/1999/02/22-rdf-syntax-ns#" xmlns="http://www.w3.org/2000/svg" xmlns:sodipodi="http://sodipodi.sourceforge.net/DTD/sodipodi-0.dtd" xmlns:inkscape="http://www.inkscape.org/namespaces/inkscape" width="24" height="24" id="svg3760" version="1.1" inkscape:version="0.91+devel r" sodipodi:docname="dialog-cancel.svg"><sodipodi:namedview id="base" pagecolor="#ffffff" bordercolor="#666666" borderopacity="1.0" inkscape:pageopacity="0.0" inkscape:pageshadow="2" inkscape:zoom="22.627417" inkscape:cx="12.063674" inkscape:cy="12.115534" inkscape:document-units="px" inkscape:current-layer="layer1" showgrid="true" fit-margin-top="0" fit-margin-left="0" fit-margin-right="0" fit-margin-bottom="0" inkscape:window-width="1366" inkscape:window-height="670" inkscape:window-x="-4" inkscape:window-y="29" inkscape:window-maximized="1" inkscape:showpageshadow="false"><sodipodi:guide position="-1.4433594e-05,24.000012" orientation="24,0" id="guide4115"/><sodipodi:guide position="-1.4433594e-05,1.1816406e-05" orientation="0,24" id="guide4117"/><sodipodi:guide position="23.999986,1.1816406e-05" orientation="-24,0" id="guide4119"/><sodipodi:guide position="23.999986,24.000012" orientation="0,-24" id="guide4121"/><sodipodi:guide position="2.9999856,21.000012" orientation="18,0" id="guide4123"/><sodipodi:guide position="2.9999856,3.0000118" orientation="0,18" id="guide4125"/><sodipodi:guide position="20.999986,3.0000118" orientation="-18,0" id="guide4127"/><sodipodi:guide position="20.999986,21.000012" orientation="0,-18" id="guide4129"/><sodipodi:guide position="3.9999856,20.000012" orientation="16,0" id="guide4131"/><sodipodi:guide position="3.9999856,4.0000118" orientation="0,16" id="guide4133"/><sodipodi:guide position="19.999986,4.0000118" orientation="-16,0" id="guide4135"/><sodipodi:guide position="19.999986,20.000012" orientation="0,-16" id="guide4137"/><inkscape:grid type="xygrid" id="grid4139"/><sodipodi:guide position="5.9999856,18.000012" orientation="12,0" id="guide4207"/><sodipodi:guide position="5.9999856,6.0000118" orientation="0,12" id="guide4209"/><sodipodi:guide position="17.999986,6.0000118" orientation="-12,0" id="guide4211"/><sodipodi:guide position="17.999986,18.000012" orientation="0,-12" id="guide4213"/></sodipodi:namedview><metadata id="metadata3765"><rdf:RDF><cc:Work><dc:format>image/svg+xml</dc:format><dc:type rdf:resource="http://purl.org/dc/dcmitype/StillImage"/><dc:title/></cc:Work></rdf:RDF></metadata><g inkscape:label="Capa 1" inkscape:groupmode="layer" id="layer1" transform="translate(-550.286 -606.648)"><path style="fill:#373737;fill-opacity:1;stroke:none" d="M12 4a7.952 7.952 0 0 0-5.281 2c-.126.111-.256.225-.375.344L6 6.719A7.952 7.952 0 0 0 4 12a8 8 0 0 0 8 8 7.952 7.952 0 0 0 5.281-2l.375-.344c.12-.119.233-.249.344-.375A7.952 7.952 0 0 0 20 12a8 8 0 0 0-8-8zm0 1a7 7 0 0 1 7 7 6.921 6.921 0 0 1-1.719 4.563L7.438 6.719A6.921 6.921 0 0 1 12 5zM6.719 7.438l9.843 9.843A6.921 6.921 0 0 1 12 19a7 7 0 0 1-7-7c0-1.754.653-3.334 1.719-4.563z" transform="translate(550.286 606.648)" id="rect4203"/></g></svg>