<!--Created with Inkscape (http://www.inkscape.org/)--><svg xmlns:dc="http://purl.org/dc/elements/1.1/" xmlns:cc="http://creativecommons.org/ns#" xmlns:rdf="http://www.w3.org/1999/02/22-rdf-syntax-ns#" xmlns="http://www.w3.org/2000/svg" xmlns:sodipodi="http://sodipodi.sourceforge.net/DTD/sodipodi-0.dtd" xmlns:inkscape="http://www.inkscape.org/namespaces/inkscape" width="22" height="22" id="svg2" version="1.1" inkscape:version="0.48+devel r" viewBox="0 0 22 22" sodipodi:docname="tools-report-bug.svg"><sodipodi:namedview id="base" pagecolor="#ffffff" bordercolor="#666666" borderopacity="1.0" inkscape:pageopacity="0.0" inkscape:pageshadow="2" inkscape:zoom="22.4" inkscape:cx="15.660962" inkscape:cy="10.475372" inkscape:document-units="px" inkscape:current-layer="layer1" showgrid="true" inkscape:showpageshadow="false" units="px" inkscape:window-width="1366" inkscape:window-height="718" inkscape:window-x="-2" inkscape:window-y="23" inkscape:window-maximized="1"><inkscape:grid type="xygrid" id="grid4101"/><sodipodi:guide position="2,20.000017" orientation="18,0" id="guide4107"/><sodipodi:guide position="2,2.0000174" orientation="0,18" id="guide4109"/><sodipodi:guide position="20,2.0000174" orientation="-18,0" id="guide4111"/><sodipodi:guide position="20,20.000017" orientation="0,-18" id="guide4113"/><sodipodi:guide position="3,19.000017" orientation="16,0" id="guide4115"/><sodipodi:guide position="3,3.0000174" orientation="0,16" id="guide4117"/><sodipodi:guide position="19,3.0000174" orientation="-16,0" id="guide4119"/><sodipodi:guide position="19,19.000017" orientation="0,-16" id="guide4121"/></sodipodi:namedview><metadata id="metadata7"><rdf:RDF><cc:Work><dc:format>image/svg+xml</dc:format><dc:type rdf:resource="http://purl.org/dc/dcmitype/StillImage"/><dc:title/></cc:Work></rdf:RDF></metadata><g inkscape:label="Capa 1" inkscape:groupmode="layer" id="layer1" transform="translate(0 -1030.362)"><path style="opacity:1;fill:#373737;fill-opacity:1;stroke:none" d="M3 3v16h16V3H3zm1 1h14v14H4V4zm1 1v1h1V5H5zm1 1v2h2V6H6zm2 0h1V5H8v1zm0 2v1h1V8H8zM6 8H5v1h1V8zm7-3v1h1V5h-1zm1 1v2h2V6h-2zm2 0h1V5h-1v1zm0 2v1h1V8h-1zm-2 0h-1v1h1V8zm-5 3v2h4v-2H9zm4 2v2h2v-2h-2zm2 2v2h2v-2h-2zm-6-2H7v2h2v-2zm-2 2H5v2h2v-2z" transform="translate(0 1030.362)" id="rect4129"/></g></svg>