<!--Created with Inkscape (http://www.inkscape.org/)--><svg xmlns:dc="http://purl.org/dc/elements/1.1/" xmlns:cc="http://creativecommons.org/ns#" xmlns:rdf="http://www.w3.org/1999/02/22-rdf-syntax-ns#" xmlns="http://www.w3.org/2000/svg" xmlns:sodipodi="http://sodipodi.sourceforge.net/DTD/sodipodi-0.dtd" xmlns:inkscape="http://www.inkscape.org/namespaces/inkscape" width="22" height="22" id="svg4355" version="1.1" inkscape:version="0.91 r13725" sodipodi:docname="show-grid.svg"><sodipodi:namedview id="base" pagecolor="#ffffff" bordercolor="#666666" borderopacity="1.0" inkscape:pageopacity="0.0" inkscape:pageshadow="2" inkscape:zoom="16.556338" inkscape:cx="14.621636" inkscape:cy="3.3959985" inkscape:document-units="px" inkscape:current-layer="layer1" showgrid="true" width="0px" height="0px" fit-margin-top="0" fit-margin-left="0" fit-margin-right="0" fit-margin-bottom="0" inkscape:window-width="1920" inkscape:window-height="1021" inkscape:window-x="-4" inkscape:window-y="0" inkscape:window-maximized="1" inkscape:showpageshadow="false"><inkscape:grid type="xygrid" id="grid4114"/><sodipodi:guide position="2.0000011,19.999996" orientation="18,0" id="guide4120"/><sodipodi:guide position="2.0000011,1.9999962" orientation="0,18" id="guide4122"/><sodipodi:guide position="20.000001,1.9999962" orientation="-18,0" id="guide4124"/><sodipodi:guide position="20.000001,19.999996" orientation="0,-18" id="guide4126"/><sodipodi:guide position="3.0000011,18.999996" orientation="16,0" id="guide4128"/><sodipodi:guide position="3.0000011,2.9999962" orientation="0,16" id="guide4130"/><sodipodi:guide position="19.000001,2.9999962" orientation="-16,0" id="guide4132"/><sodipodi:guide position="19.000001,18.999996" orientation="0,-16" id="guide4134"/></sodipodi:namedview><metadata id="metadata4360"><rdf:RDF><cc:Work><dc:format>image/svg+xml</dc:format><dc:type rdf:resource="http://purl.org/dc/dcmitype/StillImage"/><dc:title/></cc:Work></rdf:RDF></metadata><g inkscape:label="Capa 1" inkscape:groupmode="layer" id="layer1" transform="translate(-544.571 -742.934)"><g transform="translate(544.571 -287.429)" id="layer1-5" inkscape:label="Capa 1"><path id="rect3081" transform="translate(-1 1029.362)" d="M4 4v1h1V4H4zm5 0v1h1V4H9zm5 0v1h1V4h-1zm5 0v1h1V4h-1zM4 7v1h1V7H4zm5 0v1h1V7H9zm5 0v1h1V7h-1zm5 0v1h1V7h-1zM4 10v1h1v-1H4zm5 0v1h1v-1H9zm5 0v1h1v-1h-1zm5 0v1h1v-1h-1zM4 13v1h1v-1H4zm5 0v1h1v-1H9zm5 0v1h1v-1h-1zm5 0v1h1v-1h-1zM4 16v1h1v-1H4zm5 0v1h1v-1H9zm5 0v1h1v-1h-1zm5 0v1h1v-1h-1zM4 19v1h1v-1H4zm5 0v1h1v-1H9zm5 0v1h1v-1h-1zm5 0v1h1v-1h-1z" style="color:#000;display:inline;overflow:visible;visibility:visible;fill:#373737;fill-opacity:1;fill-rule:evenodd;stroke:none;stroke-width:1;marker:none;enable-background:accumulate" inkscape:connector-curvature="0"/></g></g></svg>