<?xml version="1.0" encoding="UTF-8" standalone="no"?>
<!-- Created with Inkscape (http://www.inkscape.org/) -->

<svg
   xmlns:dc="http://purl.org/dc/elements/1.1/"
   xmlns:cc="http://creativecommons.org/ns#"
   xmlns:rdf="http://www.w3.org/1999/02/22-rdf-syntax-ns#"
   xmlns:svg="http://www.w3.org/2000/svg"
   xmlns="http://www.w3.org/2000/svg"
   xmlns:sodipodi="http://sodipodi.sourceforge.net/DTD/sodipodi-0.dtd"
   xmlns:inkscape="http://www.inkscape.org/namespaces/inkscape"
   width="22"
   height="22"
   id="svg2"
   version="1.1"
   inkscape:version="0.48+devel r"
   sodipodi:docname="system-help.svg">
  <defs
     id="defs4" />
  <sodipodi:namedview
     id="base"
     pagecolor="#ffffff"
     bordercolor="#666666"
     borderopacity="1.0"
     inkscape:pageopacity="0.0"
     inkscape:pageshadow="2"
     inkscape:zoom="13.085735"
     inkscape:cx="13.067182"
     inkscape:cy="13.439407"
     inkscape:document-units="px"
     inkscape:current-layer="g846"
     showgrid="true"
     inkscape:window-width="1366"
     inkscape:window-height="668"
     inkscape:window-x="-2"
     inkscape:window-y="23"
     inkscape:window-maximized="1"
     inkscape:showpageshadow="false"
     showguides="true">
    <inkscape:grid
       type="xygrid"
       id="grid4108" />
    <sodipodi:guide
       position="1.9999987,20.000051"
       orientation="18,0"
       id="guide4114" />
    <sodipodi:guide
       position="1.9999987,2.0000511"
       orientation="0,18"
       id="guide4116" />
    <sodipodi:guide
       position="19.999999,2.0000511"
       orientation="-18,0"
       id="guide4118" />
    <sodipodi:guide
       position="19.999999,20.000051"
       orientation="0,-18"
       id="guide4120" />
    <sodipodi:guide
       position="2.9999987,19.000051"
       orientation="16,0"
       id="guide4122" />
    <sodipodi:guide
       position="9,3"
       orientation="0,16"
       id="guide4124" />
    <sodipodi:guide
       position="18.999999,3.0000511"
       orientation="-16,0"
       id="guide4126" />
    <sodipodi:guide
       position="18.999999,19.000051"
       orientation="0,-16"
       id="guide4128" />
    <sodipodi:guide
       position="3.0001595,6.0074575"
       orientation="0.70710678,0.70710678"
       id="guide4293" />
    <sodipodi:guide
       position="13.000084,14.593168"
       orientation="-0.70710678,-0.70710678"
       id="guide4297" />
    <sodipodi:guide
       position="13.59239,14"
       orientation="9.2928177,-9.2928177"
       id="guide4303" />
    <sodipodi:guide
       position="5.0070239,3.99973"
       orientation="-9.2928177,9.2928177"
       id="guide4307" />
    <sodipodi:guide
       position="14.299842,13.292548"
       orientation="-0.70710678,-0.70710678"
       id="guide4309" />
    <sodipodi:guide
       position="12.292977,15.300275"
       orientation="9.2928177,-9.2928177"
       id="guide4313" />
    <sodipodi:guide
       position="3.0001595,6.0074575"
       orientation="0.70710678,0.70710678"
       id="guide4315" />
    <sodipodi:guide
       position="3.7072663,5.3003507"
       orientation="-9.2928177,9.2928177"
       id="guide4317" />
    <sodipodi:guide
       position="13.000084,14.593168"
       orientation="-0.70710678,-0.70710678"
       id="guide4319" />
    <sodipodi:guide
       position="1.9999987,4.0001732"
       orientation="1.0001221,0"
       id="guide4342" />
    <sodipodi:guide
       position="1.9999987,3.0000511"
       orientation="0,3.0074539"
       id="guide4344" />
    <sodipodi:guide
       position="5.0074526,3.0000511"
       orientation="-1.0001221,0"
       id="guide4346" />
    <sodipodi:guide
       position="5.0074526,4.0001732"
       orientation="0,-3.0074539"
       id="guide4348" />
  </sodipodi:namedview>
  <metadata
     id="metadata7">
    <rdf:RDF>
      <cc:Work
         rdf:about="">
        <dc:format>image/svg+xml</dc:format>
        <dc:type
           rdf:resource="http://purl.org/dc/dcmitype/StillImage" />
        <dc:title />
      </cc:Work>
    </rdf:RDF>
  </metadata>
  <g
     inkscape:label="Capa 1"
     inkscape:groupmode="layer"
     id="layer1"
     transform="translate(0,-1030.3622)">
    <g
       id="g846"
       transform="translate(-61.043672,-14.648105)">
      <path
         style="opacity:1;fill:#4d4d4d;fill-opacity:1;stroke:none"
         d="M 11,3 C 9.1218971,3 7.4030555,3.6450374 6.0410156,4.7207031 c -0.00511,0.00403 -0.01053,0.00767 -0.015625,0.011719 -0.053047,0.042104 -0.10627,0.083538 -0.1582031,0.1269531 L 5.0078125,4 3,4 3,6.0078125 4.0429688,7.0507812 C 3.3827678,8.2153736 3,9.5604392 3,11 c 0,1.439561 0.3827678,2.784626 1.0429688,3.949219 L 3,15.992188 3,18 l 2.0078125,0 0.859375,-0.859375 c 0.051933,0.04341 0.1051562,0.08485 0.1582031,0.126953 0.0051,0.004 0.010518,0.0077 0.015625,0.01172 C 7.4030555,18.354963 9.1218971,19 11,19 c 1.958443,0 3.745099,-0.699284 5.132812,-1.859375 L 16.992188,18 19,18 19,15.992188 17.957031,14.949219 C 18.617232,13.784626 19,12.439561 19,11 19,9.5604392 18.617232,8.2153736 17.957031,7.0507812 L 19,6.0078125 19,4 16.992188,4 16.132812,4.859375 c -0.05193,-0.043415 -0.105156,-0.084849 -0.158203,-0.1269531 -0.0051,-0.00404 -0.01052,-0.00769 -0.01563,-0.011719 C 14.596944,3.6450374 12.878103,3 11,3 Z m 0,1 c 1.240475,0 2.401828,0.3213657 3.410156,0.8828125 L 12.117188,7.1757812 C 11.760745,7.0722749 11.390711,7 11,7 10.609289,7 10.239255,7.0722749 9.8828125,7.1757812 L 8.7070312,6 7.5898438,4.8828125 C 8.5981723,4.3213657 9.7595253,4 11,4 Z m -6.6992188,0.7070312 0.84375,0.84375 C 5.0017761,5.7041722 4.8628506,5.861065 4.7324219,6.0253906 c -0.00404,0.0051 -0.00769,0.010518 -0.011719,0.015625 -0.040368,0.051115 -0.078055,0.1041288 -0.1171875,0.15625 L 3.7070312,5.3007812 Z m 13.3984378,0 0.59375,0.59375 -0.896485,0.8964844 C 17.227386,5.9720391 17.046973,5.7565533 16.855469,5.5507812 Z M 4.8828125,7.5898438 7.1757812,9.8828125 C 7.0722749,10.239255 7,10.609289 7,11 c 0,0.390711 0.072275,0.760745 0.1757812,1.117188 L 6,13.292969 4.8828125,14.410156 C 4.3213657,13.401828 4,12.240475 4,11 4,9.7595253 4.3213657,8.5981723 4.8828125,7.5898438 Z m 12.2343755,0 C 17.678634,8.5981723 18,9.7595253 18,11 c 0,1.240475 -0.321366,2.401828 -0.882812,3.410156 L 16,13.292969 14.824219,12.117188 C 14.927725,11.760745 15,11.390711 15,11 15,10.609289 14.927725,10.239255 14.824219,9.8828125 Z M 11,8 c 0.09117,0 0.176574,0.019459 0.265625,0.027344 0.394743,0.034951 0.764336,0.1424372 1.099609,0.3144531 0.557016,0.2857828 1.007186,0.7359534 1.292969,1.2929687 0.172016,0.3352737 0.279502,0.7048664 0.314453,1.0996094 C 13.980541,10.823426 14,10.908831 14,11 c 0,0.09117 -0.01946,0.176574 -0.02734,0.265625 -0.03495,0.394743 -0.142437,0.764336 -0.314453,1.099609 -0.285783,0.557016 -0.735953,1.007186 -1.292969,1.292969 -0.335273,0.172016 -0.704866,0.279502 -1.099609,0.314453 C 11.176574,13.980541 11.091169,14 11,14 10.908831,14 10.823426,13.980541 10.734375,13.972656 10.339632,13.937705 9.9700393,13.830219 9.6347656,13.658203 9.0777503,13.37242 8.6275797,12.92225 8.3417969,12.365234 8.169781,12.029961 8.0622952,11.660368 8.0273438,11.265625 8.0194589,11.176574 8,11.091169 8,11 8,10.908831 8.0194589,10.823426 8.0273438,10.734375 8.0622951,10.339632 8.169781,9.9700393 8.3417969,9.6347656 8.6275797,9.0777503 9.0777503,8.6275797 9.6347656,8.3417969 9.9700393,8.169781 10.339632,8.0622952 10.734375,8.0273438 10.823426,8.0194589 10.908831,8 11,8 Z M 9.8828125,14.824219 C 10.239255,14.927725 10.609289,15 11,15 c 0.390711,0 0.760745,-0.07227 1.117188,-0.175781 l 2.292968,2.292969 C 13.401828,17.678634 12.240475,18 11,18 9.7595253,18 8.5981723,17.678634 7.5898438,17.117188 L 8.7070312,16 Z m -5.2792969,0.978515 c 0.1690983,0.225227 0.3495114,0.440713 0.5410156,0.646485 l -0.84375,0.84375 -0.59375,-0.59375 z m 12.7929684,0 0.896485,0.896485 -0.59375,0.59375 -0.84375,-0.84375 c 0.191504,-0.205772 0.371917,-0.421258 0.541015,-0.646485 z"
         transform="translate(61.043672,1045.0103)"
         id="rect4216"
         inkscape:connector-curvature="0"
         sodipodi:nodetypes="scscccccscccccccscccccscccccccssccscccsccscccccccccccscccsccscccsccssssssssssssssssssssscsccsccccccccccccc" />
    </g>
  </g>
</svg>
