<?xml version="1.0" encoding="UTF-8"?>
<svg width="131" height="80" version="1.1" viewBox="0 0 131 80" xmlns="http://www.w3.org/2000/svg" xmlns:cc="http://creativecommons.org/ns#" xmlns:dc="http://purl.org/dc/elements/1.1/" xmlns:rdf="http://www.w3.org/1999/02/22-rdf-syntax-ns#"><metadata><rdf:RDF><cc:Work rdf:about=""><dc:format>image/svg+xml</dc:format><dc:type rdf:resource="http://purl.org/dc/dcmitype/StillImage"/><dc:title/></cc:Work></rdf:RDF></metadata><g transform="translate(-52.098 -11.8)"><text font-family="'Bailey Sans ITC Book'" font-size="6.6667px" letter-spacing="0px" word-spacing="0px" style="line-height:1.25;shape-inside:url(#rect850);white-space:pre" xml:space="preserve"/><g fill="#fffffd" aria-label="KRITA"><path d="m75.891 23.76c-1.12 0-2.64 0.16-4.16 0.48l-12.64 23.68v-24.08c-6.64 0-6.64 0-6.64 1.28v54.72c6.64 0 6.64 0 6.64-1.36v-26.24c1.12 0.48 2.24 1.2 3.2 2.16 4.48 4.88 6.72 12.88 8.96 25.36 1.6 0.16 3.12 0.24 4.56 0.24 2.24 0 2.72-0.4 2.64-1.6-2.08-15.28-6.48-25.6-12.8-30.4l12.88-22.32c0.64-1.28-0.24-1.92-2.64-1.92z"/><path d="m108.21 78.32c-0.8-12.24-4.96-19.6-7.52-23.04 4.16-2.32 6.96-7.12 6.96-15.6 0-11.12-4.64-15.84-14.72-15.84h-7.92c-1.36 0-1.36 1.28-1.36 1.28v54.72c6.4 0 6.56 0 6.56-1.36v-21.36h2.8c0.48 0 1.04 0 1.52-0.08 1.92 2.64 5.76 9.28 6.56 22.8 1.44 0.08 2.8 0.16 3.84 0.16 3.04 0 3.28-0.4 3.28-1.68zm-18-27.2v-21.6h3.92c4.72 0 6.32 3.68 6.32 9.84 0 8.48-2.32 11.76-6.8 11.76z"/><path d="m113.41 26.8v53.04c6.56 0 6.64 0 6.64-1.36v-54.64c-6.48 0-6.64 0-6.64 2.96z"/><path d="m125.49 23.84c-0.96 0-1.36 0.4-1.36 1.28v4.8h10.88v49.92c6.4 0 6.48 0 6.48-1.28v-48.64h9.84c0.96 0 1.36-0.32 1.36-1.36v-4.72z"/><path d="m182.69 78.64-14.32-54.8c-0.72-0.16-1.92-0.24-3.04-0.24-1.44 0-2.32 0.32-2.48 1.12l-14.24 55.04c1.52 0.16 3.2 0.24 4.08 0.24 2.56 0 2.8-0.4 3.04-1.28l3.04-13.12h13.84l3.44 14.24c1.6 0.16 2.88 0.16 3.84 0.16 2.56 0 3.04-0.48 2.8-1.36zm-22.48-18.96 2.72-11.36c1.2-5.36 2.32-11.52 2.8-15.36 0.4 3.84 1.52 10.08 2.8 15.36l2.72 11.36z"/></g></g></svg>
