<svg width="315" height="80" version="1.1" viewBox="0 0 315 80" id="svg20" xmlns="http://www.w3.org/2000/svg" xmlns:rdf="http://www.w3.org/1999/02/22-rdf-syntax-ns#" xmlns:cc="http://creativecommons.org/ns#" xmlns:dc="http://purl.org/dc/elements/1.1/"><metadata id="metadata2"><rdf:RDF><cc:Work><dc:format>image/svg+xml</dc:format><dc:type rdf:resource="http://purl.org/dc/dcmitype/StillImage"/></cc:Work></rdf:RDF></metadata><g transform="translate(131.5 -11.8)" id="g18"><g fill="#fffffd" aria-label="KRITA" id="g16"><path d="M75.891 23.76c-1.12 0-2.64.16-4.16.48l-12.64 23.68V23.84c-6.64 0-6.64 0-6.64 1.28v54.72c6.64 0 6.64 0 6.64-1.36V52.24c1.12.48 2.24 1.2 3.2 2.16 4.48 4.88 6.72 12.88 8.96 25.36 1.6.16 3.12.24 4.56.24 2.24 0 2.72-.4 2.64-1.6-2.08-15.28-6.48-25.6-12.8-30.4l12.88-22.32c.64-1.28-.24-1.92-2.64-1.92z" id="path6"/><path d="M108.21 78.32c-.8-12.24-4.96-19.6-7.52-23.04 4.16-2.32 6.96-7.12 6.96-15.6 0-11.12-4.64-15.84-14.72-15.84h-7.92c-1.36 0-1.36 1.28-1.36 1.28v54.72c6.4 0 6.56 0 6.56-1.36V57.12h2.8c.48 0 1.04 0 1.52-.08 1.92 2.64 5.76 9.28 6.56 22.8 1.44.08 2.8.16 3.84.16 3.04 0 3.28-.4 3.28-1.68zm-18-27.2v-21.6h3.92c4.72 0 6.32 3.68 6.32 9.84 0 8.48-2.32 11.76-6.8 11.76z" id="path8"/><path d="M113.41 26.8v53.04c6.56 0 6.64 0 6.64-1.36V23.84c-6.48 0-6.64 0-6.64 2.96z" id="path10"/><path d="M125.49 23.84c-.96 0-1.36.4-1.36 1.28v4.8h10.88v49.92c6.4 0 6.48 0 6.48-1.28V29.92h9.84c.96 0 1.36-.32 1.36-1.36v-4.72z" id="path12"/><path d="m182.69 78.64-14.32-54.8c-.72-.16-1.92-.24-3.04-.24-1.44 0-2.32.32-2.48 1.12l-14.24 55.04c1.52.16 3.2.24 4.08.24 2.56 0 2.8-.4 3.04-1.28l3.04-13.12h13.84l3.44 14.24c1.6.16 2.88.16 3.84.16 2.56 0 3.04-.48 2.8-1.36zm-22.48-18.96 2.72-11.36c1.2-5.36 2.32-11.52 2.8-15.36.4 3.84 1.52 10.08 2.8 15.36l2.72 11.36z" id="path14"/></g></g><g aria-label="25 years of" transform="matrix(1 0 -.1998 1 -18.213 0)" id="text307" style="font-size:48px;font-family:'Yanone Kaffeesatz';-inkscape-font-specification:'Yanone Kaffeesatz';fill:#fffffd"><path d="M48.836 67.911c.768 0 .816-1.104.816-3.984 0 0-3.12.336-5.664.336h-6.48c1.536-2.448 3.36-4.656 5.088-6.672 3.36-4.032 6.336-7.536 6.336-11.952 0-4.176-1.584-6.528-7.104-6.528-4.656 0-8.496 1.392-8.496 2.544 0 .672.048 1.824.48 2.832 1.536-.912 4.416-1.68 7.056-1.68 2.688 0 3.696 1.296 3.696 3.312 0 3.36-2.592 6.432-5.568 9.984-1.872 2.16-3.84 4.512-5.424 7.2-.912 1.584-1.2 2.064-1.2 3.408 0 .24.048.816.192 1.2z" style="font-style:italic" id="path3533"/><path d="M54.452 39.111 53.06 53.223c.864-.192 2.64-.624 4.656-.624 4.464 0 7.44 1.248 7.44 6.768 0 4.944-2.064 9.744-7.344 9.744-2.064 0-3.6-.528-4.704-1.536-.336.96-.432 1.776-.432 3.168 0 .672 1.632 1.968 5.472 1.968 7.728 0 11.136-5.616 11.136-14.16 0-8.064-5.472-9.168-9.216-9.168-1.776 0-2.736.192-3.072.24l.768-7.248s7.824.192 9.36.192c1.824 0 2.016-.576 2.016-3.456z" style="font-style:italic" id="path3535"/><path d="M85.604 68.68c-.72 3.983-1.968 5.183-3.504 5.183-1.104 0-2.4-.288-3.024-.72-.384.528-.576 1.44-.576 2.16 0 1.104 1.008 1.872 3.888 1.872 3.504 0 5.28-1.872 6.72-7.968l5.904-25.296c-3.936 0-3.984 0-4.176 1.104l-2.16 10.368c-.672 3.888-1.152 8.544-1.152 8.544s-.528-4.704-1.296-8.496l-2.64-11.52c-3.168 0-3.84 0-3.84.528 0 .144.048.336.096.528z" style="font-style:italic" id="path3537"/><path d="M104.948 64.647c-2.928 0-4.32-1.344-4.512-6.528 2.4 0 6.912-.144 10.08-.768.384-1.728.528-4.08.528-6.24 0-5.136-2.064-7.68-6.096-7.68-4.224 0-8.496 1.728-8.496 13.728 0 9.408 3.216 11.232 7.68 11.232 3.6 0 6.624-1.152 6.624-2.64 0-.768-.096-1.872-.336-2.64-1.632.96-3.552 1.536-5.472 1.536zm-.432-17.808c2.112 0 2.736 1.248 2.784 4.752 0 .912-.048 2.016-.24 2.88-1.68.48-4.752.576-6.624.528.336-6.528 2.064-8.16 4.08-8.16z" style="font-style:italic" id="path3539"/><path d="M127.556 49.287c0-4.32-1.824-5.856-5.904-5.856-3.648 0-6.528.768-7.344 1.296-.384.24-.528.816-.528 1.296 0 .576.096 1.44.528 2.256 1.392-.576 3.936-1.104 6.384-1.104 1.92 0 2.976.576 2.976 2.88v3.792c-.96-.48-2.448-.624-3.504-.624-3.264 0-6.432 1.2-6.432 7.872 0 6.48 3.216 7.296 6.624 7.296 3.264 0 5.568-.816 6.912-1.632.24-3.648.288-9.408.288-14.928zm-3.888 7.296c0 2.592 0 6.144-.144 7.776-.432.384-1.488.768-2.544.768-1.92 0-3.216-.576-3.216-4.128 0-4.224 1.68-4.896 3.648-4.896.672 0 1.632.144 2.256.48z" style="font-style:italic" id="path3541"/><path d="M131.492 67.911c3.888 0 3.936 0 3.936-.768V48.231a5.127 5.127 0 0 1 3.216-1.104c.816 0 1.632.192 2.304.576.336-.816.432-1.776.432-2.256 0-1.296-.912-2.016-3.36-2.016-2.352 0-4.608.816-6.528 2.16z" style="font-style:italic" id="path3543"/><path d="M150.884 58.167c1.488 1.296 1.92 2.448 1.92 3.792 0 1.92-1.44 2.928-3.936 2.928-1.872 0-3.36-.336-4.752-1.152-.528.816-.72 1.632-.72 2.256 0 1.584 2.448 2.4 5.856 2.4 4.896 0 7.968-2.4 7.968-6.672 0-2.4-.768-3.984-2.88-6l-4.464-3.6c-1.632-1.344-1.92-2.112-1.92-2.976 0-1.488 1.488-2.352 3.792-2.352 1.824 0 3.264.384 4.752 1.296.48-.576.816-1.392.816-1.968 0-.96-1.104-2.688-6-2.688-5.376 0-7.872 2.304-7.872 5.664 0 1.584.576 3.312 2.784 5.088z" style="font-style:italic" id="path3545"/><path d="M167.445 55.911c0 10.8 2.64 12.48 7.536 12.48 5.136 0 7.92-3.696 7.92-12.576 0-9.792-2.448-12.384-7.44-12.384-5.04 0-8.016 3.696-8.016 12.48zm4.224.096c0-7.488 1.488-9.312 3.648-9.312 2.256 0 3.36 1.44 3.36 9.12 0 7.488-1.488 9.312-3.6 9.312-2.208 0-3.408-1.2-3.408-9.12z" style="font-style:italic" id="path3547"/><path d="M187.508 47.175v20.736h3.024c.768 0 .816-.672.816-.768V47.175h3.504c.768 0 .816-.192.816-3.264h-4.32v-3.216c0-4.176 2.304-4.752 4.8-4.752 1.104 0 2.256.096 3.408.576a5.727 5.727 0 0 0 .432-2.112c0-1.2-1.536-1.968-4.464-1.968-3.648 0-8.016 1.152-8.016 8.544v2.928h-2.352c-.96 0-.96.24-.96 3.264z" style="font-style:italic" id="path3549"/></g></svg>