<?xml version="1.0" encoding="UTF-8" standalone="no"?>
<!-- Created with Inkscape (http://www.inkscape.org/) -->

<svg
   xmlns:dc="http://purl.org/dc/elements/1.1/"
   xmlns:cc="http://creativecommons.org/ns#"
   xmlns:rdf="http://www.w3.org/1999/02/22-rdf-syntax-ns#"
   xmlns:svg="http://www.w3.org/2000/svg"
   xmlns="http://www.w3.org/2000/svg"
   xmlns:sodipodi="http://sodipodi.sourceforge.net/DTD/sodipodi-0.dtd"
   xmlns:inkscape="http://www.inkscape.org/namespaces/inkscape"
   width="128"
   height="128"
   id="svg2"
   version="1.1"
   inkscape:version="0.48.3.1 r9886"
   sodipodi:docname="hi128-action-template_comics_empty.svg"
   inkscape:export-filename="/home/timo/comics.png"
   inkscape:export-xdpi="90"
   inkscape:export-ydpi="90">
  <title
     id="title2995">ComicsIcon</title>
  <defs
     id="defs4">
    <filter
       inkscape:collect="always"
       id="filter4117"
       x="-0.1270498"
       width="1.2540996"
       y="-0.19286843"
       height="1.3857368"
       color-interpolation-filters="sRGB">
      <feGaussianBlur
         inkscape:collect="always"
         stdDeviation="12.86643"
         id="feGaussianBlur4119" />
    </filter>
  </defs>
  <sodipodi:namedview
     id="base"
     pagecolor="#ffffff"
     bordercolor="#666666"
     borderopacity="1.0"
     inkscape:pageopacity="0.0"
     inkscape:pageshadow="2"
     inkscape:zoom="1.4"
     inkscape:cx="139.54168"
     inkscape:cy="-1.1585797"
     inkscape:document-units="px"
     inkscape:current-layer="layer5"
     showgrid="false"
     inkscape:window-width="1920"
     inkscape:window-height="1025"
     inkscape:window-x="-3"
     inkscape:window-y="32"
     inkscape:window-maximized="1" />
  <metadata
     id="metadata7">
    <rdf:RDF>
      <cc:Work
         rdf:about="">
        <dc:format>image/svg+xml</dc:format>
        <dc:type
           rdf:resource="http://purl.org/dc/dcmitype/StillImage" />
        <dc:title>ComicsIcon</dc:title>
        <cc:license
           rdf:resource="same as Krita licence :)" />
        <dc:creator>
          <cc:Agent>
            <dc:title>Timothée Giet</dc:title>
          </cc:Agent>
        </dc:creator>
        <dc:date>18/19/2010</dc:date>
      </cc:Work>
    </rdf:RDF>
  </metadata>
  <g
     inkscape:groupmode="layer"
     id="layer6"
     inkscape:label="Calque#2"
     style="display:inline"
     transform="translate(0,-152)">
    <path
       style="opacity:0.62999998;fill:#000000;fill-opacity:1;stroke:#000000;stroke-width:0.25253814;stroke-linecap:round;stroke-linejoin:round;stroke-miterlimit:4;stroke-opacity:1;stroke-dasharray:none;stroke-dashoffset:0;display:inline;filter:url(#filter4117)"
       d="M 144.78125,67.874995 C 123.1312,68.271579 100.14834,71.33374 79.344204,77.539857 62.617942,84.226249 47.812345,92.594194 35.125,105.49999 c -9.667592,9.76927 -15.198477,23.79623 -13.09375,37.5625 1.733291,13.4182 11.856731,23.64884 21.9375,31.71876 11.45688,8.32445 25.963473,10.21772 39.5625,12.65625 33.13261,4.81831 67.12625,4.6749 100.51924,3.05568 10.65069,-0.61126 20.89707,-1.77969 31.31208,-3.74374 1.37507,-0.39106 0.74435,-2.98811 2.19993,-1.09319 0.45469,0.28563 0.92584,0.58496 1.375,0.90625 -0.14514,3.69161 4.48457,6.76996 3.45414,10.60813 -3.89466,6.22379 -10.15677,11.32812 -14.89164,16.95437 -2.05108,2.8699 -8.45237,10.23864 -9.39635,13.73373 -0.12221,0.95069 5.40246,-4.17464 6.44481,-5.44872 10.53166,-7.89406 22.05694,-14.21838 28.05134,-24.33429 2.08709,-4.06021 1.09852,-7.74977 0.2127,-12.20072 -0.0943,-0.19175 -0.48972,-0.90887 -0.78125,-1.4375 0.34641,-1.11724 0.51975,-2.14584 0.40625,-2.84375 1.30082,-0.83279 1.55512,2.71988 3.67591,1.86751 6.48842,-2.4392 10.71057,-7.66505 15.07409,-12.89876 6.74955,-9.72826 11.35579,-21.12064 13,-32.87501 1.44094,-12.11607 -0.58161,-24.53917 -6.15625,-35.40625 -6.56932,-13.457446 -19.19685,-23.812476 -34,-26.718745 -25.00695,-5.614862 -50.74948,-7.462915 -76.34375,-7.6875 -0.97339,-0.0051 -1.93292,-0.0096 -2.90625,0 z"
       id="path3052-4"
       inkscape:connector-curvature="0"
       sodipodi:nodetypes="ccccccccccccccccccccccccc"
       transform="matrix(0.41975525,0,0,0.53978418,3.6922676,143.19825)" />
  </g>
  <g
     inkscape:groupmode="layer"
     id="layer4"
     inkscape:label="Calque"
     style="display:inline"
     transform="translate(0,-152)">
    <path
       style="fill:#ffffff;fill-opacity:1;stroke:#000000;stroke-width:0.10600421;stroke-linecap:round;stroke-linejoin:round;stroke-miterlimit:4;stroke-opacity:1;stroke-dasharray:none;stroke-dashoffset:0;display:inline"
       d="m 64.464957,179.8361 c -9.087723,0.16647 -18.734898,1.45183 -27.467543,4.05688 -7.020936,2.80665 -13.235664,6.31914 -18.561243,11.73641 -4.058023,4.10071 -6.379641,9.9886 -5.49617,15.76706 0.727557,5.63236 4.976925,9.92672 9.20838,13.31411 4.809086,3.49423 10.898305,4.28895 16.606567,5.31253 13.907587,2.02251 28.176595,1.96232 42.193479,1.28264 4.470683,-0.25658 8.771654,-0.74703 13.143409,-1.57145 0.577193,-0.16415 0.312445,-1.25428 0.923432,-0.45888 0.190859,0.1199 0.388627,0.24554 0.577164,0.38041 -0.06093,1.54956 1.882421,2.84172 1.449893,4.45282 -1.634804,2.61246 -4.263358,4.75503 -6.250844,7.11668 -0.860951,1.20466 -3.547927,4.29773 -3.944167,5.7648 -0.05129,0.39906 2.267711,-1.75232 2.705243,-2.28713 4.420719,-3.31357 9.258512,-5.96824 11.774693,-10.21444 0.87607,-1.70429 0.46112,-3.25301 0.0893,-5.12131 -0.0396,-0.0805 -0.20556,-0.38151 -0.32793,-0.60341 0.14541,-0.46897 0.21817,-0.90072 0.17052,-1.19368 0.54603,-0.34956 0.65277,1.14169 1.54299,0.7839 2.72355,-1.02387 4.49581,-3.21744 6.32743,-5.41432 2.83316,-4.08348 4.76665,-8.8655 5.45681,-13.79945 0.60485,-5.08579 -0.24413,-10.30045 -2.58412,-14.86196 -2.7575,-5.64884 -8.05798,-9.99542 -14.271674,-11.21534 -10.496798,-2.35686 -21.30236,-3.1326 -32.04569,-3.22687 -0.408585,-0.002 -0.811353,-0.004 -1.219913,0 z"
       id="path3052"
       inkscape:connector-curvature="0"
       sodipodi:nodetypes="ccccccccccccccccccccccccc" />
  </g>
  <g
     inkscape:label="Calque 1"
     inkscape:groupmode="layer"
     id="layer1"
     transform="translate(0,-924.36218)"
     style="display:inline">
    <path
       style="font-size:medium;font-style:normal;font-variant:normal;font-weight:normal;font-stretch:normal;text-indent:0;text-align:start;text-decoration:none;line-height:normal;letter-spacing:normal;word-spacing:normal;text-transform:none;direction:ltr;block-progression:tb;writing-mode:lr-tb;text-anchor:start;baseline-shift:baseline;color:#000000;fill:#000000;fill-opacity:1;stroke:none;stroke-width:1px;marker:none;visibility:visible;display:inline;overflow:visible;enable-background:accumulate;font-family:Sans;-inkscape-font-specification:Sans"
       d="m 64.635482,950.5455 c -10.317596,0.13498 -19.631858,2.38576 -27.507085,5.70605 8.879951,-2.67599 19.416697,-3.68453 29.199224,-3.65975 14.481757,0.0367 27.839502,2.1049 33.344313,3.75156 7.470016,2.23453 12.206776,8.49715 14.022446,15.96383 1.81566,7.46667 0.21652,14.39638 -3.96144,21.53873 l -1.94137,2.55786 c -2.08496,2.08328 -3.80084,2.8854 -6.02,3.70162 0.8508,0.1982 -1.53297,1.9211 0.38603,1.2444 4.7465,-1.44737 8.73245,-5.06641 9.70035,-6.70375 4.10685,-7.03687 5.82686,-15.69956 4.04014,-23.0472 -1.78887,-7.35648 -7.03983,-14.82638 -14.35038,-17.0132 -5.418063,-1.62073 -19.205428,-3.928 -35.403732,-4.04015 -0.506196,-0.003 -1.006997,-0.007 -1.508496,0 z m 30.778658,51.9431 c -0.33132,-1.7228 -2.320415,-0.7462 -3.888088,-0.4443 -7.874864,1.4746 -15.375387,1.7881 -25.119727,1.7708 -9.744342,-0.017 -19.289936,-0.5803 -27.270973,-1.7315 -7.981036,-1.1512 -13.628896,-2.95933 -16.160578,-4.8272 -6.174929,-4.59562 -9.947095,-9.66571 -9.877365,-15.9376 0.06973,-6.27185 2.879265,-12.51463 13.222291,-19.32185 3.196706,-2.10391 6.817658,-4.06274 10.808697,-5.7454 -4.265663,1.28546 -8.144912,2.95202 -11.372744,5.07641 -10.408108,6.85006 -14.986965,13.65502 -15.058719,20.1089 -0.07175,6.45384 3.585314,12.12028 9.824896,16.76401 2.696232,1.98923 10.371416,4.52503 18.37741,5.67983 8.005992,1.1548 17.65205,1.032 27.415263,1.0494 9.763213,0.017 17.218218,-0.4986 25.132845,-1.9808 l 2.689057,-0.4984"
       id="path3767"
       inkscape:connector-curvature="0"
       sodipodi:nodetypes="scssscccccssssccsscsscsscsscc" />
    <path
       style="font-size:medium;font-style:normal;font-variant:normal;font-weight:normal;font-stretch:normal;text-indent:0;text-align:start;text-decoration:none;line-height:normal;letter-spacing:normal;word-spacing:normal;text-transform:none;direction:ltr;block-progression:tb;writing-mode:lr-tb;text-anchor:start;baseline-shift:baseline;color:#000000;fill:#000000;fill-opacity:1;stroke:none;stroke-width:1px;marker:none;visibility:visible;display:inline;overflow:visible;enable-background:accumulate;font-family:Sans;-inkscape-font-specification:Sans"
       d="m 100.74592,1000.4623 c 0.77141,2.632 0.5138,4.3886 -0.16415,6.1085 -0.677956,1.72 -1.935635,3.122 -3.50233,4.4468 -2.77551,2.3471 -7.286758,5.2514 -10.308862,8.343 2.06991,-3.6237 4.892005,-5.9814 6.742769,-8.2142 1.046609,-1.2627 3.53352,-3.3999 3.763466,-4.8277 0.229946,-1.4278 -1.0165,-3.2337 -2.157173,-5.1768 -1.13953,-0.6334 -1.139501,-0.092 -0.690661,1.0603 1.10857,1.8884 1.927332,2.8195 1.715309,4.1359 -0.212023,1.3166 -2.087896,2.9375 -3.11434,4.1758 -2.046135,2.4686 -6.68456,7.5907 -6.522955,9.3087 1.563668,-1.1704 7.454391,-4.3836 10.591676,-7.0959 1.579111,-1.3653 4.367091,-3.4546 5.081331,-5.2666 0.71424,-1.812 0.52454,-5.3993 -0.26647,-8.09815 -1.16906,-0.21035 -1.19667,0.0537 -1.16761,1.10035 z"
       id="path2991"
       inkscape:connector-curvature="0"
       sodipodi:nodetypes="csscssccsscsscc" />
  </g>
  <g
     inkscape:groupmode="layer"
     id="layer5"
     inkscape:label="Calque#1"
     style="display:inline"
     transform="translate(0,-152)">
    <path
       style="fill:#000000;fill-opacity:1;stroke:#000000;stroke-width:0.20987763;stroke-linecap:round;stroke-linejoin:round;stroke-miterlimit:4;stroke-opacity:1;stroke-dasharray:none;stroke-dashoffset:0"
       d="m 56.339065,197.88047 c -1.905609,-0.14322 -3.913638,-0.1889 -5.614876,-1.10211 -0.740432,-1.07976 0.350739,-2.66027 0.970125,-3.57217 1.89787,-2.53663 4.87453,-3.94375 7.738919,-5.10304 1.73238,-0.6986 3.797861,-1.20571 5.527643,-0.21602 1.489187,0.691 2.134808,2.32709 2.752529,3.73507 0.741892,2.11694 1.078665,4.49829 0.432503,6.68171 -0.499731,1.83634 -2.129579,3.77414 -3.810236,4.51026 -2.02377,0.92972 -4.022234,1.39373 -5.25764,3.32258 -1.370103,1.99089 -1.935748,4.59285 -1.136639,6.91601 0.335108,1.15408 -0.837928,0.46794 -1.031188,-0.0869 -1.085159,-2.22172 -0.354248,-4.85982 0.82856,-6.88968 1.035477,-1.82053 2.726629,-3.15963 4.609966,-4.02516 1.663557,-0.76481 2.606009,-1.64034 3.442333,-3.39211 1.192923,-2.50085 1.527817,-4.49283 0.477719,-6.96809 -0.906285,-1.81726 -1.116436,-2.49648 -2.997061,-3.07856 -2.386103,-0.1895 -3.551561,0.18756 -5.662556,1.16863 -2.191006,1.17967 -4.703433,2.48137 -5.754879,4.81873 -0.448223,0.62328 -0.381385,1.4102 0.07494,1.87728 0.523997,0.0995 1.51077,0.0707 2.348635,-0.29902 0.742668,-0.0844 1.459472,0.0774 2.167238,0.38683 0.365733,0.16368 0.23751,0.86663 -0.10606,1.31573 z"
       id="path3942"
       inkscape:connector-curvature="0"
       sodipodi:nodetypes="ccccccccccccccccccccccc" />
    <path
       style="fill:#000000;fill-opacity:1;stroke:#000000;stroke-width:0.20987763;stroke-linecap:round;stroke-linejoin:round;stroke-miterlimit:4;stroke-opacity:1;stroke-dasharray:none;stroke-dashoffset:0"
       id="path3946"
       d="m 77.124742,188.28449 c -0.561767,1.42344 -0.91963,2.26722 -1.377931,3.72664 -0.920369,2.13182 -1.403755,3.78468 -2.286453,6.05058 -0.920159,3.5033 -1.812739,6.33426 -1.760051,8.84167 0.0649,0.90883 0.304604,5.2014 0.487734,6.09541 -1.244091,2.10237 -1.377363,-5.97358 -1.393851,-6.58005 -0.04532,-2.36683 0.551461,-4.86483 1.048041,-7.18684 0.593697,-2.66328 1.232254,-5.2258 2.076906,-7.82046 0.45991,-1.46142 0.708984,-2.79589 1.306846,-4.20806 1.067971,-0.53176 2.438399,-0.29702 1.898759,1.08111 z"
       inkscape:connector-curvature="0"
       sodipodi:nodetypes="cccccccccc" />
    <path
       style="fill:#000000;fill-opacity:1;stroke:#000000;stroke-width:0.20987763;stroke-linecap:round;stroke-linejoin:round;stroke-miterlimit:4;stroke-opacity:1;stroke-dasharray:none;stroke-dashoffset:0"
       d="m 74.081604,219.97005 c -1.696001,1.93415 -3.69006,0.89568 -3.989736,-0.76903 -0.21337,-1.77006 1.181791,-3.44649 2.083073,-2.56711 1.1585,0.81673 2.688335,2.24407 1.906663,3.33614 z"
       id="path3948"
       inkscape:connector-curvature="0"
       sodipodi:nodetypes="cccc" />
    <path
       style="fill:#000000;fill-opacity:1;stroke:#000000;stroke-width:0.20987763;stroke-linecap:round;stroke-linejoin:round;stroke-miterlimit:4;stroke-opacity:1;stroke-dasharray:none;stroke-dashoffset:0"
       d="m 59.715464,219.79921 c -1.696001,1.93415 -3.897004,0.4416 -4.196679,-1.22311 -0.213371,-1.77005 1.498882,-3.25283 2.400164,-2.37346 1.158499,0.81674 2.578187,2.5045 1.796515,3.59657 z"
       id="path3948-8"
       inkscape:connector-curvature="0"
       sodipodi:nodetypes="cccc" />
  </g>
</svg>
