<?xml version="1.0" encoding="UTF-8" standalone="no"?>
<!-- Created with Inkscape (http://www.inkscape.org/) -->

<svg
   xmlns:dc="http://purl.org/dc/elements/1.1/"
   xmlns:cc="http://creativecommons.org/ns#"
   xmlns:rdf="http://www.w3.org/1999/02/22-rdf-syntax-ns#"
   xmlns:svg="http://www.w3.org/2000/svg"
   xmlns="http://www.w3.org/2000/svg"
   xmlns:sodipodi="http://sodipodi.sourceforge.net/DTD/sodipodi-0.dtd"
   xmlns:inkscape="http://www.inkscape.org/namespaces/inkscape"
   width="280"
   height="280"
   id="svg2"
   version="1.1"
   inkscape:version="0.48.0 r9654"
   sodipodi:docname="IconComics.svg"
   inkscape:export-filename="/home/timo/Dessins/IconComics.png"
   inkscape:export-xdpi="90"
   inkscape:export-ydpi="90">
  <title
     id="title2995">ComicsIcon</title>
  <defs
     id="defs4">
    <filter
       inkscape:collect="always"
       id="filter4117"
       x="-0.12704981"
       width="1.2540996"
       y="-0.19286842"
       height="1.3857368">
      <feGaussianBlur
         inkscape:collect="always"
         stdDeviation="12.86643"
         id="feGaussianBlur4119" />
    </filter>
  </defs>
  <sodipodi:namedview
     id="base"
     pagecolor="#ffffff"
     bordercolor="#666666"
     borderopacity="1.0"
     inkscape:pageopacity="0.0"
     inkscape:pageshadow="2"
     inkscape:zoom="1.4"
     inkscape:cx="139.54168"
     inkscape:cy="84.555706"
     inkscape:document-units="px"
     inkscape:current-layer="layer6"
     showgrid="false"
     inkscape:window-width="1920"
     inkscape:window-height="1031"
     inkscape:window-x="0"
     inkscape:window-y="24"
     inkscape:window-maximized="1" />
  <metadata
     id="metadata7">
    <rdf:RDF>
      <cc:Work
         rdf:about="">
        <dc:format>image/svg+xml</dc:format>
        <dc:type
           rdf:resource="http://purl.org/dc/dcmitype/StillImage" />
        <dc:title>ComicsIcon</dc:title>
        <cc:license
           rdf:resource="same as Krita licence :)" />
        <dc:creator>
          <cc:Agent>
            <dc:title>Timothée Giet</dc:title>
          </cc:Agent>
        </dc:creator>
        <dc:date>18/19/2010</dc:date>
      </cc:Work>
    </rdf:RDF>
  </metadata>
  <g
     inkscape:groupmode="layer"
     id="layer6"
     inkscape:label="Calque#2"
     style="display:inline">
    <path
       style="fill:#000000;fill-opacity:1;stroke:#000000;stroke-width:0.25253814000000002;stroke-linecap:round;stroke-linejoin:round;stroke-miterlimit:4;stroke-opacity:1;stroke-dasharray:none;stroke-dashoffset:0;display:inline;opacity:0.63;filter:url(#filter4117)"
       d="M 144.78125,67.874995 C 123.1312,68.271579 100.14834,71.33374 79.344204,77.539857 62.617942,84.226249 47.812345,92.594194 35.125,105.49999 c -9.667592,9.76927 -15.198477,23.79623 -13.09375,37.5625 1.733291,13.4182 11.856731,23.64884 21.9375,31.71876 11.45688,8.32445 25.963473,10.21772 39.5625,12.65625 33.13261,4.81831 67.12625,4.6749 100.51924,3.05568 10.65069,-0.61126 20.89707,-1.77969 31.31208,-3.74374 1.37507,-0.39106 0.74435,-2.98811 2.19993,-1.09319 0.45469,0.28563 0.92584,0.58496 1.375,0.90625 -0.14514,3.69161 4.48457,6.76996 3.45414,10.60813 -3.89466,6.22379 -10.15677,11.32812 -14.89164,16.95437 -2.05108,2.8699 -8.45237,10.23864 -9.39635,13.73373 -0.12221,0.95069 5.40246,-4.17464 6.44481,-5.44872 10.53166,-7.89406 22.05694,-14.21838 28.05134,-24.33429 2.08709,-4.06021 1.09852,-7.74977 0.2127,-12.20072 -0.0943,-0.19175 -0.48972,-0.90887 -0.78125,-1.4375 0.34641,-1.11724 0.51975,-2.14584 0.40625,-2.84375 1.30082,-0.83279 1.55512,2.71988 3.67591,1.86751 6.48842,-2.4392 10.71057,-7.66505 15.07409,-12.89876 6.74955,-9.72826 11.35579,-21.12064 13,-32.87501 1.44094,-12.11607 -0.58161,-24.53917 -6.15625,-35.40625 -6.56932,-13.457446 -19.19685,-23.812476 -34,-26.718745 -25.00695,-5.614862 -50.74948,-7.462915 -76.34375,-7.6875 -0.97339,-0.0051 -1.93292,-0.0096 -2.90625,0 z"
       id="path3052-4"
       inkscape:connector-curvature="0"
       sodipodi:nodetypes="ccccccccccccccccccccccccc"
       transform="matrix(1,0,0,1.2859498,-3.6896071,-36.462122)" />
  </g>
  <g
     inkscape:groupmode="layer"
     id="layer4"
     inkscape:label="Calque"
     style="display:inline">
    <path
       style="fill:#ffffff;fill-opacity:1;stroke:#000000;stroke-width:0.25253814;stroke-linecap:round;stroke-linejoin:round;stroke-miterlimit:4;stroke-opacity:1;stroke-dasharray:none;stroke-dashoffset:0;display:inline"
       d="M 141.09164,50.821716 C 119.44159,51.2183 96.458733,54.280461 75.654597,60.486578 58.928335,67.17297 44.122738,75.540915 31.435393,88.446716 c -9.667592,9.76927 -15.198477,23.796234 -13.09375,37.562504 1.733291,13.4182 11.856731,23.64884 21.9375,31.71875 11.45688,8.32445 25.963473,10.21772 39.5625,12.65625 33.132607,4.81831 67.126247,4.6749 100.519237,3.05568 10.65069,-0.61126 20.89707,-1.77969 31.31208,-3.74374 1.37507,-0.39106 0.74435,-2.98811 2.19993,-1.09319 0.45469,0.28563 0.92584,0.58496 1.375,0.90625 -0.14514,3.69161 4.48457,6.76996 3.45414,10.60813 -3.89466,6.22379 -10.15677,11.32812 -14.89164,16.95437 -2.05108,2.8699 -8.45237,10.23864 -9.39635,13.73373 -0.12221,0.95069 5.40246,-4.17464 6.44481,-5.44872 10.53166,-7.89406 22.05694,-14.21838 28.05134,-24.33429 2.08709,-4.06021 1.09852,-7.74977 0.2127,-12.20072 -0.0943,-0.19175 -0.48972,-0.90887 -0.78125,-1.4375 0.34641,-1.11724 0.51975,-2.14584 0.40625,-2.84375 1.30082,-0.83279 1.55512,2.71988 3.67591,1.86751 6.48842,-2.4392 10.71057,-7.66505 15.07409,-12.89876 6.74955,-9.72825 11.35579,-21.12063 13,-32.875 1.44094,-12.11607 -0.58161,-24.539174 -6.15625,-35.406254 -6.56932,-13.457451 -19.19685,-23.812481 -34,-26.71875 -25.00695,-5.614862 -50.74948,-7.462915 -76.34375,-7.6875 -0.97339,-0.0051 -1.93292,-0.0096 -2.90625,0 z"
       id="path3052"
       inkscape:connector-curvature="0"
       sodipodi:nodetypes="ccccccccccccccccccccccccc" />
  </g>
  <g
     inkscape:label="Calque 1"
     inkscape:groupmode="layer"
     id="layer1"
     transform="translate(0,-772.36218)"
     style="display:inline">
    <path
       style="font-size:medium;font-style:normal;font-variant:normal;font-weight:normal;font-stretch:normal;text-indent:0;text-align:start;text-decoration:none;line-height:normal;letter-spacing:normal;word-spacing:normal;text-transform:none;direction:ltr;block-progression:tb;writing-mode:lr-tb;text-anchor:start;baseline-shift:baseline;color:#000000;fill:#000000;fill-opacity:1;stroke:none;stroke-width:1px;marker:none;visibility:visible;display:inline;overflow:visible;enable-background:accumulate;font-family:Sans;-inkscape-font-specification:Sans"
       d="m 141.49789,819.2464 c -24.58003,0.32158 -46.769774,5.6837 -65.531247,13.59375 21.15507,-6.37511 46.257187,-8.77779 69.562497,-8.71875 34.50048,0.0874 66.32318,5.01458 79.4375,8.9375 17.79614,5.3234 29.08071,20.24308 33.40625,38.03125 4.32554,17.78817 0.51584,34.29711 -9.4375,51.3125 l -4.625,6.09375 c -4.96708,4.96303 -9.05489,6.87405 -14.3417,8.81865 2.02689,0.4723 -3.65204,4.57655 0.91967,2.96457 11.30776,-3.44811 20.80365,-12.06986 23.10953,-15.97072 9.78392,-16.76423 13.88158,-37.40165 9.625,-54.90625 -4.2617,-17.52563 -16.77128,-35.32149 -34.1875,-40.53125 -12.90767,-3.86111 -45.75387,-9.35782 -84.34375,-9.625 -1.20593,-0.008 -2.39901,-0.0156 -3.59375,0 z m 73.32525,123.74606 c -0.78932,-4.10425 -5.52802,-1.77767 -9.26275,-1.05856 -18.76061,3.51312 -36.62941,4.25992 -59.84375,4.21875 -23.21434,-0.0412 -45.955197,-1.38254 -64.968747,-4.125 -19.013546,-2.74246 -32.468672,-7.04998 -38.5,-11.5 -14.710784,-10.94825 -23.697372,-23.02706 -23.53125,-37.96875 0.166122,-14.94169 6.859391,-29.81412 31.5,-46.03125 7.615644,-5.01221 16.241985,-9.67882 25.75,-13.6875 -10.162262,3.06241 -19.403954,7.03274 -27.09375,12.09375 -24.795657,16.31917 -35.704057,32.53092 -35.875,47.90625 -0.170943,15.37533 8.541439,28.87461 23.40625,39.9375 6.423343,4.73926 24.708246,10.78021 43.78125,13.53125 19.073,2.75104 42.053197,2.45875 65.312497,2.5 23.2593,0.0412 41.01966,-1.18789 59.875,-4.71875 l 6.40625,-1.1875"
       id="path3767"
       inkscape:connector-curvature="0"
       sodipodi:nodetypes="scssscccccssssccsscsscsscsscc" />
    <path
       style="font-size:medium;font-style:normal;font-variant:normal;font-weight:normal;font-stretch:normal;text-indent:0;text-align:start;text-decoration:none;line-height:normal;letter-spacing:normal;word-spacing:normal;text-transform:none;direction:ltr;block-progression:tb;writing-mode:lr-tb;text-anchor:start;baseline-shift:baseline;color:#000000;fill:#000000;fill-opacity:1;stroke:none;stroke-width:1px;marker:none;visibility:visible;display:inline;overflow:visible;enable-background:accumulate;font-family:Sans;-inkscape-font-specification:Sans"
       d="m 227.52525,938.16521 c 1.83778,6.27018 1.22403,10.45505 -0.39105,14.55259 -1.61513,4.09754 -4.61135,7.4376 -8.34375,10.59375 -6.61221,5.59135 -17.35954,12.51041 -24.55922,19.87597 4.93123,-8.63295 11.65442,-14.24988 16.06357,-19.56934 2.49338,-3.00816 8.41805,-8.09951 8.96586,-11.50098 0.54781,-3.40147 -2.42165,-7.7038 -5.13912,-12.33307 -2.71475,-1.50888 -2.71468,-0.22074 -1.64539,2.52599 2.64099,4.49897 4.59156,6.71696 4.08645,9.8533 -0.50511,3.13634 -4.97408,6.99806 -7.41942,9.94827 -4.87459,5.88099 -15.9249,18.0834 -15.5399,22.17623 3.72519,-2.78839 17.7589,-10.44309 25.23298,-16.90491 3.76198,-3.25247 10.4039,-8.22987 12.10546,-12.54668 1.70156,-4.31681 1.24963,-12.86303 -0.63481,-19.29251 -2.78513,-0.50111 -2.85088,0.1281 -2.78166,2.62139 z"
       id="path2991"
       inkscape:connector-curvature="0"
       sodipodi:nodetypes="csscssccsscsscc" />
  </g>
  <g
     inkscape:groupmode="layer"
     id="layer5"
     inkscape:label="Calque#1"
     style="display:inline">
    <path
       style="fill:#000000;fill-opacity:1;stroke:#000000;stroke-width:0.5;stroke-linecap:round;stroke-linejoin:round;stroke-miterlimit:4;stroke-opacity:1;stroke-dasharray:none;stroke-dashoffset:0"
       d="m 121.733,93.809536 c -4.53981,-0.34118 -9.32362,-0.45001 -13.37655,-2.62558 -1.76396,-2.57236 0.83558,-6.33768 2.31117,-8.510141 4.52137,-6.043098 11.61279,-9.395366 18.43674,-12.157169 4.12712,-1.664324 9.0478,-2.872418 13.16873,-0.514646 3.54775,1.646215 5.08584,5.543908 6.55746,8.8982 1.76744,5.043306 2.56975,10.716486 1.03037,15.918126 -1.19053,4.3748 -5.07338,8.991274 -9.07728,10.744984 -4.82131,2.21492 -9.58233,3.32033 -12.52549,7.91549 -3.26405,4.74301 -4.61161,10.94176 -2.70786,16.4763 0.79834,2.74942 -1.99623,1.11481 -2.45664,-0.20694 -2.58522,-5.29289 -0.84394,-11.57774 1.97391,-16.41358 2.46686,-4.33711 6.49576,-7.5273 10.98251,-9.5893 3.96316,-1.82203 6.2084,-3.907844 8.20081,-8.081154 2.84195,-5.95787 3.63978,-10.70346 1.13809,-16.600365 -2.15908,-4.329318 -2.65973,-5.947467 -7.14002,-7.334182 -5.68451,-0.451456 -8.46103,0.446832 -13.49014,2.784064 -5.21972,2.810396 -11.20518,5.911491 -13.71008,11.479863 -1.06782,1.48488 -0.90859,3.3596 0.17854,4.47233 1.24834,0.23702 3.59917,0.16845 5.59525,-0.71235 1.76929,-0.20116 3.47696,0.18441 5.1631,0.92155 0.8713,0.38994 0.56583,2.06462 -0.25267,3.1345 z"
       id="path3942"
       inkscape:connector-curvature="0"
       sodipodi:nodetypes="ccccccccccccccccccccccc" />
    <path
       style="fill:#000000;fill-opacity:1;stroke:#000000;stroke-width:0.5;stroke-linecap:round;stroke-linejoin:round;stroke-miterlimit:4;stroke-opacity:1;stroke-dasharray:none;stroke-dashoffset:0"
       id="path3946"
       d="m 171.25156,70.948658 c -1.33832,3.39113 -2.19087,5.401302 -3.2827,8.87811 -2.19263,5.078738 -3.34422,9.016408 -5.44711,14.414548 -2.19213,8.346054 -4.31856,15.090374 -4.19304,21.063884 0.15462,2.16515 0.72567,12.3915 1.16195,14.52134 -2.96385,5.00856 -3.28135,-14.23109 -3.32063,-15.67593 -0.10796,-5.6386 1.31377,-11.58968 2.49679,-17.121504 1.41439,-6.34483 2.93565,-12.44962 4.9479,-18.63099 1.09566,-3.481612 1.68904,-6.660774 3.11335,-10.025031 2.54427,-1.266822 5.8091,-0.707596 4.52349,2.575573 z"
       inkscape:connector-curvature="0"
       sodipodi:nodetypes="cccccccccc" />
    <path
       style="fill:#000000;fill-opacity:1;stroke:#000000;stroke-width:0.5;stroke-linecap:round;stroke-linejoin:round;stroke-miterlimit:4;stroke-opacity:1;stroke-dasharray:none;stroke-dashoffset:0"
       d="m 164.00177,146.43447 c -4.04045,4.6078 -8.79098,2.13379 -9.50491,-1.83212 -0.50832,-4.21687 2.81543,-8.21069 4.96259,-6.11572 2.75994,1.94573 6.40453,5.34615 4.54232,7.94784 z"
       id="path3948"
       inkscape:connector-curvature="0"
       sodipodi:nodetypes="cccc" />
    <path
       style="fill:#000000;fill-opacity:1;stroke:#000000;stroke-width:0.5;stroke-linecap:round;stroke-linejoin:round;stroke-miterlimit:4;stroke-opacity:1;stroke-dasharray:none;stroke-dashoffset:0"
       d="m 129.77673,146.02746 c -4.04045,4.6078 -9.28399,1.05204 -9.99792,-2.91387 -0.50832,-4.21687 3.57085,-7.74935 5.71801,-5.65438 2.75994,1.94573 6.14212,5.96656 4.27991,8.56825 z"
       id="path3948-8"
       inkscape:connector-curvature="0"
       sodipodi:nodetypes="cccc" />
  </g>
</svg>
