<?xml version="1.0" encoding="UTF-8" standalone="no"?>
<!-- Generator: Adobe Illustrator 19.1.0, SVG Export Plug-In . SVG Version: 6.00 Build 0)  -->

<svg
   xmlns:dc="http://purl.org/dc/elements/1.1/"
   xmlns:cc="http://creativecommons.org/ns#"
   xmlns:rdf="http://www.w3.org/1999/02/22-rdf-syntax-ns#"
   xmlns:svg="http://www.w3.org/2000/svg"
   xmlns="http://www.w3.org/2000/svg"
   xmlns:sodipodi="http://sodipodi.sourceforge.net/DTD/sodipodi-0.dtd"
   xmlns:inkscape="http://www.inkscape.org/namespaces/inkscape"
   version="1.1"
   id="Capa_1"
   x="0px"
   y="0px"
   viewBox="0 0 487.7 487.7"
   style="enable-background:new 0 0 487.7 487.7;"
   xml:space="preserve"
   inkscape:version="0.91 r13725"
   sodipodi:docname="comics-template.svg"><metadata
     id="metadata47"><rdf:RDF><cc:Work
         rdf:about=""><dc:format>image/svg+xml</dc:format><dc:type
           rdf:resource="http://purl.org/dc/dcmitype/StillImage" /><dc:title /></cc:Work></rdf:RDF></metadata><defs
     id="defs45" /><sodipodi:namedview
     pagecolor="#ffffff"
     bordercolor="#666666"
     borderopacity="1"
     objecttolerance="10"
     gridtolerance="10"
     guidetolerance="10"
     inkscape:pageopacity="0"
     inkscape:pageshadow="2"
     inkscape:window-width="1517"
     inkscape:window-height="752"
     id="namedview43"
     showgrid="false"
     inkscape:zoom="0.34217182"
     inkscape:cx="466.4653"
     inkscape:cy="266.04348"
     inkscape:window-x="70"
     inkscape:window-y="82"
     inkscape:window-maximized="0"
     inkscape:current-layer="g3" /><g
     id="g3"><path
       style="fill:none;stroke:#000000;stroke-width:31.775;stroke-linejoin:round;stroke-miterlimit:4;stroke-dasharray:none;stroke-opacity:1"
       d="M 80.876953 42.251953 C 55.987128 42.251953 35.949219 62.791492 35.949219 88.304688 L 35.949219 302.12109 C 35.949219 327.63429 55.987128 348.17383 80.876953 348.17383 L 122.74609 348.17383 L 122.74609 448.24609 L 222.81641 348.17383 L 408.53516 348.17383 C 433.42498 348.17383 453.46289 327.63429 453.46289 302.12109 L 453.46289 88.304688 C 453.46289 62.791492 433.42498 42.251953 408.53516 42.251953 L 80.876953 42.251953 z "
       id="rect4373" /><path
       inkscape:connector-curvature="0"
       id="path3284"
       style="font-style:normal;font-variant:normal;font-weight:bold;font-stretch:normal;font-size:medium;line-height:125%;font-family:'Adobe Gothic Std';-inkscape-font-specification:'Adobe Gothic Std Bold';letter-spacing:0px;word-spacing:0px;fill:#000000;fill-opacity:1;stroke:none;stroke-width:1px;stroke-linecap:butt;stroke-linejoin:miter;stroke-opacity:1"
       d="m 210.12102,214.9206 -42.07164,0 0,-3.86248 q 0,-6.46372 3.84588,-11.42976 3.84588,-5.04485 16.19933,-12.76979 l 7.45868,-4.57191 q 6.6429,-4.09895 9.67298,-7.72494 3.14664,-3.626 3.14664,-7.25199 0,-5.51781 -5.59401,-8.59202 -5.59401,-3.15305 -15.61663,-3.15305 -9.43989,0 -20.39483,2.68009 -10.95493,2.60125 -22.84221,7.80376 l 0,-24.75134 q 14.10158,-3.31069 25.75575,-4.88721 11.6542,-1.57651 22.4926,-1.57651 28.43623,0 43.3536,7.88258 14.91737,7.80377 14.91737,22.85953 0,7.72495 -4.54514,13.87336 -4.54514,6.0696 -15.50007,13.08511 l -7.4587,4.49308 q -7.92484,4.8872 -10.37223,7.8826 -2.44737,2.91655 -2.44737,6.46371 l 0,3.54718 z m -42.07164,11.66623 42.07164,0 0,28.06203 -42.07164,0 0,-28.06203 z" /><path
       inkscape:connector-curvature="0"
       id="path3286"
       style="font-style:normal;font-variant:normal;font-weight:bold;font-stretch:normal;font-size:medium;line-height:125%;font-family:'Adobe Gothic Std';-inkscape-font-specification:'Adobe Gothic Std Bold';letter-spacing:0px;word-spacing:0px;fill:#000000;fill-opacity:1;stroke:none;stroke-width:1px;stroke-linecap:butt;stroke-linejoin:miter;stroke-opacity:1"
       d="m 299.39211,136.96174 41.95511,0 0,45.16726 -5.94365,32.94925 -30.06781,0 -5.94365,-32.94925 0,-45.16726 z m 0,89.62509 41.95511,0 0,28.06203 -41.95511,0 0,-28.06203 z" /></g><g
     id="g13" /><g
     id="g15" /><g
     id="g17" /><g
     id="g19" /><g
     id="g21" /><g
     id="g23" /><g
     id="g25" /><g
     id="g27" /><g
     id="g29" /><g
     id="g31" /><g
     id="g33" /><g
     id="g35" /><g
     id="g37" /><g
     id="g39" /><g
     id="g41" /></svg>