<!--Created with Inkscape (http://www.inkscape.org/)--><svg xmlns:dc="http://purl.org/dc/elements/1.1/" xmlns:cc="http://creativecommons.org/ns#" xmlns:rdf="http://www.w3.org/1999/02/22-rdf-syntax-ns#" xmlns="http://www.w3.org/2000/svg" xmlns:sodipodi="http://sodipodi.sourceforge.net/DTD/sodipodi-0.dtd" xmlns:inkscape="http://www.inkscape.org/namespaces/inkscape" width="24" height="24" id="svg3760" version="1.1" inkscape:version="0.91 r13725" sodipodi:docname="light_brushsize-increase.svg"><sodipodi:namedview id="base" pagecolor="#ffffff" bordercolor="#666666" borderopacity="1.0" inkscape:pageopacity="0.0" inkscape:pageshadow="2" inkscape:zoom="14.924466" inkscape:cx="25.71549" inkscape:cy="11.379903" inkscape:document-units="px" inkscape:current-layer="layer1" showgrid="false" fit-margin-top="0" fit-margin-left="0" fit-margin-right="0" fit-margin-bottom="0" inkscape:window-width="1293" inkscape:window-height="665" inkscape:window-x="1877" inkscape:window-y="237" inkscape:window-maximized="0" inkscape:showpageshadow="false"><inkscape:grid type="xygrid" id="grid4139"/></sodipodi:namedview><metadata id="metadata3765"><rdf:RDF><cc:Work><dc:format>image/svg+xml</dc:format><dc:type rdf:resource="http://purl.org/dc/dcmitype/StillImage"/><dc:title/></cc:Work></rdf:RDF></metadata><g inkscape:label="Capa 1" inkscape:groupmode="layer" id="layer1" transform="translate(-550.286 -606.648)"><path style="fill:#e6e6e6;fill-opacity:1;stroke:none;stroke-width:.02835826px;stroke-linecap:butt;stroke-linejoin:miter;stroke-opacity:1" d="M562.246 614.714c.19.253.048.919-.317 1.347-.364.427-3.046 3.41-3.046 3.41l-1.061-1.06 3.093-3.159s.808-.808 1.331-.538z" id="path6264-9" inkscape:connector-curvature="0" sodipodi:nodetypes="cccccc"/><path style="fill:#e6e6e6;fill-opacity:1;stroke:none;stroke-width:.02835826px;stroke-linecap:butt;stroke-linejoin:miter;stroke-opacity:1" d="M558.677 619.805s-.07.76-.38 1.188c-.333.46-1.125.365-1.585.46-.507.253-.538.491-.713.871-.174.38-.142.523-.396.793-.11-.159-.27-1.173-.301-1.633.016-.38.11-1.473.92-2.075.807-.603 1.235-.793 1.235-.793z" id="path6266-0" inkscape:connector-curvature="0" sodipodi:nodetypes="csccccccc"/><rect style="fill:none;fill-opacity:1;stroke:#e6e6e6;stroke-width:.91204602;stroke-miterlimit:4;stroke-dasharray:none;stroke-opacity:1" id="rect4583-7-0" width="11.711576" height="10.827164" x="552.23175" y="613.34198"/><path sodipodi:type="star" style="fill:#e6e6e6;fill-opacity:1;stroke:none;stroke-width:.47142518;stroke-miterlimit:4;stroke-dasharray:none;stroke-opacity:1" id="path6465-9-1-7-8" sodipodi:sides="3" sodipodi:cx="14.263792" sodipodi:cy="271.25827" sodipodi:r1="1.6301788" sodipodi:r2="0.8150894" sodipodi:arg1="0.52359878" sodipodi:arg2="1.5707963" inkscape:flatsided="false" inkscape:rounded="0" inkscape:randomized="0" d="M15.676 272.073h-2.824l.706-1.222.706-1.223.706 1.223z" inkscape:transform-center-y="-0.29039264" transform="matrix(2.42648 0 0 2.6934 534.601 -110.982)"/></g></svg>