<svg xmlns:dc="http://purl.org/dc/elements/1.1/" xmlns:cc="http://creativecommons.org/ns#" xmlns:rdf="http://www.w3.org/1999/02/22-rdf-syntax-ns#" xmlns="http://www.w3.org/2000/svg" xmlns:sodipodi="http://sodipodi.sourceforge.net/DTD/sodipodi-0.dtd" xmlns:inkscape="http://www.inkscape.org/namespaces/inkscape" viewBox="0 0 16 16" version="1.1" id="svg8" sodipodi:docname="light_pathpoint-smooth.svg" width="16" height="16" inkscape:version="0.92.1 r15371"><metadata id="metadata12"><rdf:RDF><cc:Work><dc:format>image/svg+xml</dc:format><dc:type rdf:resource="http://purl.org/dc/dcmitype/StillImage"/><dc:title/><dc:date>2017</dc:date><dc:creator><cc:Agent><dc:title>Timothée Giet</dc:title></cc:Agent></dc:creator><dc:description>Based on Breeze icons</dc:description><cc:license rdf:resource="http://creativecommons.org/licenses/by-sa/4.0/"/></cc:Work><cc:License rdf:about="http://creativecommons.org/licenses/by-sa/4.0/"><cc:permits rdf:resource="http://creativecommons.org/ns#Reproduction"/><cc:permits rdf:resource="http://creativecommons.org/ns#Distribution"/><cc:requires rdf:resource="http://creativecommons.org/ns#Notice"/><cc:requires rdf:resource="http://creativecommons.org/ns#Attribution"/><cc:permits rdf:resource="http://creativecommons.org/ns#DerivativeWorks"/><cc:requires rdf:resource="http://creativecommons.org/ns#ShareAlike"/></cc:License></rdf:RDF></metadata><sodipodi:namedview pagecolor="#ffffff" bordercolor="#666666" borderopacity="1" objecttolerance="10" gridtolerance="10" guidetolerance="10" inkscape:pageopacity="0" inkscape:pageshadow="2" inkscape:window-width="1884" inkscape:window-height="1051" id="namedview10" showgrid="true" inkscape:zoom="21.454545" inkscape:cx="-7.1744387" inkscape:cy="11.461417" inkscape:window-x="0" inkscape:window-y="0" inkscape:window-maximized="1" inkscape:current-layer="svg8"><inkscape:grid type="xygrid" id="grid4489"/></sodipodi:namedview><defs id="defs3051"><style type="text/css" id="current-color-scheme"></style></defs><path style="color:#373737;fill:#d2d2d2;fill-opacity:1;stroke:none" d="M0 0c0 8 3 13 5 13v-1C4 12 1 8 1 0zm15 0c0 6-4 12-8 12v1c4 0 9-6 9-13zM0 12v3h3v-1h1v-1H3v-1zm13 0v1h-1v1h1v1h3v-3zM1 13h1v1H1zm7 0v1h1v-1zm2 0v1h1v-1zm4 0h1v1h-1z" id="path4" inkscape:connector-curvature="0" sodipodi:nodetypes="cccccccccccccccccccccccccccccccccccccccccccccccc"/><path style="color:#3daee9;fill:currentColor;fill-opacity:1;stroke:none" d="M3 11v5h5v-5zm2 2h1v1H5z" id="path6" inkscape:connector-curvature="0" sodipodi:nodetypes="cccccccccc"/></svg>