<svg xmlns="http://www.w3.org/2000/svg" viewBox="0 0 22 22">
  <defs id="defs3051">
    <style type="text/css" id="current-color-scheme">
      .ColorScheme-Text {
        color:#cacaca;
      }
      .ColorScheme-Highlight {
        color:#3daee9;
      }
      </style>
  </defs>
 <path 
     style="fill:currentColor;fill-opacity:1;stroke:none" 
     d="M 9 3 L 9 4 L 3 4 L 3 5 L 9 5 L 9 7 L 13 7 L 13 5 L 19 5 L 19 4 L 13 4 L 13 3 L 9 3 z M 10 4 L 12 4 L 12 5 L 12 6 L 10 6 L 10 4 z M 3 16 L 3 19 L 6 19 L 6 18 L 9 18 L 9 17 L 6 17 L 6 16 L 3 16 z M 16 16 L 16 17 L 13 17 L 13 18 L 16 18 L 16 19 L 19 19 L 19 16 L 16 16 z M 4 17 L 5 17 L 5 18 L 4 18 L 4 17 z M 17 17 L 18 17 L 18 18 L 17 18 L 17 17 z "
     class="ColorScheme-Text"
     />
 <path 
     style="fill:currentColor;fill-opacity:1;stroke:none" 
     d="M 9 9.5 L 11 12.5 L 13 9.5 L 9 9.5 z "
     class="ColorScheme-Highlight"
     />
</svg>
