/* XPM */
static char *dummy[]={
"32 32 3 1",
". c None",
"a c #000000",
"# c #ffffff",
".....#a#........................",
".....#a#........................",
".....#a#........................",
".....#a#........................",
".....#a#........................",
"#####...#####...................",
"aaaaa...aaaaa...................",
"#####...#####...................",
".....#a#........................",
".....#a#........................",
".....#a#...aaaaaaaaaaaaaaaaaa#..",
".....#a#...##################...",
".....#a#........................",
"................................",
".............##############.....",
".............#aaaaaaaaaaaa#.....",
".............#aaaaaaaaaaaa#.....",
".............#a####aa####a#.....",
".............##...#aa#...##.....",
"..................#aa#..........",
"..................#aa#..........",
"..................#aa#..........",
"..................#aa#..........",
"..................#aa#..........",
"..................#aa#..........",
"..................#aa#..........",
"..................#aa#..........",
".................#aaaa#.........",
".................######.........",
"................................",
"...........aaaaaaaaaaaaaaaaaa#..",
"...........##################..."};
