/* XPM */
static char *dummy[]={
"32 32 3 1",
". c None",
"a c #000000",
"# c #ffffff",
".....#a#........................",
".....#a#........................",
".....#a#........................",
".....#a#........................",
".....#a#........................",
"#####...#####...................",
"aaaaa...aaaaa...................",
"#####...#####...................",
".....#a#........aaaaaaaaaaaaaa#.",
".....#a#......aa#############a#.",
".....#a#.....a##.............a#.",
".....#a#....a#...............a#.",
".....#a#...a#................a#.",
"...........a###############..a#.",
"..........a#.#aaaaaaaaaaaa#..a#.",
"..........a#.#aaaaaaaaaaaa#..a#.",
"..........a#.#a####aa####a#..a#.",
"..........a#.##...#aa#...##..a#.",
"..........a#......#aa#.......a#.",
"..........a#......#aa#.......a#.",
"..........a#......#aa#.......a#.",
"..........a#......#aa#.......a#.",
"..........a#......#aa#.......a#.",
"..........a#......#aa#.......a#.",
"..........a#......#aa#.......a#.",
"..........a#......#aa#......a#..",
"..........a#.....#aaaa#.....a#..",
"..........a#.....######....a#...",
"..........a#..............a#....",
"..........a#............aa#.....",
"..........aaaaaaaaaaaaaa##......",
"..........##############........"};
