/* XPM */
static char *dummy[]={
"22 22 4 1",
". c None",
"b c None",
"a c #000000",
"# c #ffffff",
".......#aaa#aaa#......",
".......####a####......",
"..........#a#b........",
"..........#a#b........",
"..........#a#b........",
"..........#a#b........",
"..........#a#b........",
"..........#a#b........",
"..........#a#b........",
"..........#a#b........",
"..........#a#b........",
"..........#a#b........",
"..........#a#.........",
"..........#a#.........",
"..........#a#.........",
"..........#a#.........",
"..........#a#b........",
"..........#a#b........",
"..........#a#b........",
"..........#a#b........",
".......####a####......",
".......#aaa#aaa#......"};
