/* XPM */
static char *dummy[]={
"22 22 4 1",
". c None",
"b c None",
"a c #000000",
"# c #ffffff",
"......................",
"......................",
"......................",
"......................",
"......................",
"......................",
"......................",
"##..................##",
"a#..................#a",
"a#..................#a",
"a####################a",
"#aaaaaaaaaaaaaaaaaaaa#",
"a####################a",
"a#bbbb..............#a",
"a#..................#a",
"##..................##",
"......................",
"......................",
"......................",
"......................",
"......................",
"......................"};
