/* XPM */
static char * color_sampler_image_background_xpm[] = {
"33 31 3 1",
" 	c None",
".	c #FFFFFF",
"+	c #000000",
"                         ....    ",
"  .......               .++++.   ",
"  .+++++.              .++++++.  ",
"  .+...+.....       ...+++++++.  ",
"  .+..++++++.      .++++++++++.  ",
"  .+..++++++.     .+++++++++++.  ",
"  .+++++++++.     .++++++++++.   ",
"  ....++++++.      .++++++++.    ",
"     .++++++.     .+.++++++.     ",
"     .++++++.    .+...+++++.     ",
"     ........   .+.....++++.     ",
"               .+.....+.++.      ",
"              .+.....+. ..       ",
"             .+.....+.           ",
"            .+.....+.            ",
"           .+.....+.             ",
"           .+....+.              ",
"      .+.  .+...+.               ",
"      .+. .+++++.                ",
"      .+. .++...                 ",
"      .+.  ..                    ",
"      .+.                        ",
" .....   .....                   ",
" +++++   +++++                   ",
" .....   .....                   ",
"      .+.                        ",
"      .+.                        ",
"      .+.                        ",
"      .+.                        ",
"      .+.                        ",
"                                 "};
