/* XPM */
static char *dummy[]={
"31 31 3 1",
". c None",
"a c #000000",
"# c #ffffff",
"...............................",
"..............###..............",
"..............#a#..............",
"..............#a#..............",
"..............#a#..............",
"..............#a#..............",
"..............#a#..............",
"..............#a#..............",
"..............#a#..............",
"..............#a#..............",
"..............#a#..............",
"...............#...............",
"...............................",
"...............................",
".##########.........##########.",
".#aaaaaaaaa#.......#aaaaaaaaa#.",
".##########.........##########.",
"...............................",
"...............................",
"...............#...............",
"..............#a#..............",
"..............#a#..............",
"..............#a#..............",
"..............#a#..............",
"..............#a#..............",
"..............#a#..............",
"..............#a#..............",
"..............#a#..............",
"..............#a#..............",
"..............###..............",
"..............................."};
