/* XPM */
static char * cursor_triangle_L_xpm[] = {
"31 31 3 1",
" 	c None",
".	c #000000",
"+	c #FFFFFF",
"                               ",
"                               ",
"                               ",
"                               ",
"                               ",
"                               ",
"                               ",
"                               ",
"                               ",
"                               ",
"                               ",
"                               ",
"                               ",
"                               ",
"                               ",
"               .               ",
"              ..               ",
"             .+.               ",
"            .++.               ",
"           .+++.               ",
"          .++++.               ",
"         .+++++.               ",
"        .++++++.               ",
"       ......++.               ",
"             .+.               ",
"              ..               ",
"               .               ",
"                               ",
"                               ",
"                               ",
"                               "};
