/* XPM */
static char *dummy[]={
"32 32 3 1",
". c None",
"b c #000000",
"a c #ffffff",
"................................",
"................................",
".....abbb.......................",
"....abaaab......................",
"...abaaabab.....................",
"..abaaabbbab....................",
"..abaabbbbbab...................",
"..ababbbbbbbab..................",
"...abbbbbbbbbab.................",
"....abbbbbbbbabb................",
".....abbbbbbaabb................",
"......abbbbaabbb................",
".......abbaabbb.................",
"........ababbb..................",
".........abbb...................",
"................................",
"................................",
"................................",
"................................",
"................................",
"................................",
"................................",
"................................",
"................................",
"................................",
"................................",
"................................",
"................................",
"................................",
"................................",
"................................",
"................................"};
