/* XPM */
static char *dummy[]={
"32 32 3 1",
". c None",
"a c #000000",
"# c #ffffff",
"................................",
"................................",
"...#............................",
"..#a#...........................",
"..#aa#..........................",
"..#aaa#.........................",
"..#aaaa#........................",
"..#aaaaa#.......................",
"..#aaaaaa#......................",
"..#aaaaaaa#.....................",
"..#aaa####......................",
"..#aa#..........................",
"..#a#...........................",
"...#................aaaa........",
"...................a#aaaa.......",
"..................a###aaaa......",
".................a#aa##aaaa.....",
"................a#aaaa##aaaa....",
"...............a#aaaaaa##aaa....",
"..............a#aaaaaaaa#aa#....",
".............a#aaaaaaaaaaa#.....",
"............a#aaaaaaaaaaa#......",
"............a##aaaaaaaaa#.......",
"............a###aaaaaaa#........",
"............#a###aaaaa#.........",
".............#a###aaa#..........",
"..............#a##aa#...........",
"...............#aa##............",
"................##..............",
"................................",
"................................",
"................................"};
