/* XPM */
static char * exposure_cursor_gesture_xpm[] = {
"32 32 3 1",
" 	c None",
".	c #FFFFFF",
"+	c #000000",
"                                ",
"                                ",
"     .                          ",
"    .+.                         ",
"   .+++.                        ",
"  .+++++.                       ",
"   ..+..                        ",
"    .+.                         ",
"    .+.                         ",
"    .+.                         ",
"   ..+..                        ",
"  .+++++.                       ",
"   .+++.   ...................  ",
"    .+.    .+++++++++++++++++.  ",
"     .     .+++++++++++++++.+.  ",
"           .++++.+++++++++..+.  ",
"           .++++.++++++++...+.  ",
"           .++.....+++++....+.  ",
"           .++++.++++++.....+.  ",
"           .++++.+++++......+.  ",
"           .+++++++++.......+.  ",
"           .++++++++........+.  ",
"           .+++++++.........+.  ",
"           .++++++..........+.  ",
"           .+++++....+++++..+.  ",
"           .++++............+.  ",
"           .+++.............+.  ",
"           .++..............+.  ",
"           .+++++++++++++++++.  ",
"           ...................  ",
"                                ",
"                                "};
