/* XPM */
static char * exposure_cursor_gesture_xpm[] = {
"33 31 3 1",
" 	c None",
".	c #FFFFFF",
"+	c #000000",
"                                 ",
"                                 ",
"           ...................   ",
"           .+++++++++++++++++.   ",
"           .+++++++++++++++.+.   ",
"           .++++.+++++++++..+.   ",
"           .++++.++++++++...+.   ",
"           .++.....+++++....+.   ",
"           .++++.++++++.....+.   ",
"           .++++.+++++......+.   ",
"           .+++++++++.......+.   ",
"           .++++++++........+.   ",
"           .+++++++.........+.   ",
"           .++++++..........+.   ",
"           .+++++....+++++..+.   ",
"           .++++............+.   ",
"           .+++.............+.   ",
"      .+.  .++..............+.   ",
"      .+.  .+++++++++++++++++.   ",
"      .+.  ...................   ",
"      .+.                        ",
"      .+.                        ",
" .....   .....                   ",
" +++++   +++++                   ",
" .....   .....                   ",
"      .+.                        ",
"      .+.                        ",
"      .+.                        ",
"      .+.                        ",
"      .+.                        ",
"                                 "};
