#define picker_width 32
#define picker_height 32
#define picker_x_hot 0
#define picker_y_hot 0
static unsigned char picker_bits[] = {
   0x00, 0x00, 0x00, 0x00, 0x00, 0x00, 0x00, 0x00, 0x00, 0x00, 0x00, 0x00,
   0x00, 0x00, 0x00, 0x06, 0x00, 0x00, 0x00, 0x0d, 0x00, 0x00, 0x80, 0x1e,
   0x00, 0x00, 0x40, 0x1f, 0x00, 0x00, 0xb0, 0x1f, 0x00, 0x00, 0xe8, 0x0f,
   0x00, 0x00, 0xd0, 0x07, 0x00, 0x00, 0xa8, 0x03, 0x00, 0x00, 0x64, 0x03,
   0x00, 0x00, 0x72, 0x01, 0x00, 0x00, 0xb9, 0x00, 0x00, 0x80, 0x1c, 0x00,
   0x00, 0x40, 0x0e, 0x00, 0x00, 0x20, 0x07, 0x00, 0x00, 0x90, 0x03, 0x00,
   0x00, 0xc8, 0x01, 0x00, 0x40, 0xe4, 0x00, 0x00, 0x40, 0x74, 0x00, 0x00,
   0x40, 0x3c, 0x00, 0x00, 0x40, 0x00, 0x00, 0x00, 0x40, 0x00, 0x00, 0x00,
   0x00, 0x00, 0x00, 0x00, 0x1f, 0x1f, 0x00, 0x00, 0x00, 0x00, 0x00, 0x00,
   0x40, 0x00, 0x00, 0x00, 0x40, 0x00, 0x00, 0x00, 0x40, 0x00, 0x00, 0x00,
   0x40, 0x00, 0x00, 0x00, 0x40, 0x00, 0x00, 0x00 };
