/* XPM */
static char * precise_pick_layer_icon_xpm[] = {
"33 31 3 1",
" 	c None",
".	c #FFFFFF",
"+	c #000000",
"                                 ",
"                                 ",
"                   ....          ",
"                 ...++...        ",
"               ...++++++...      ",
"             ...+++....+++...    ",
"           ...+++...  ...+++...  ",
"           .+++...      ...+++.  ",
"           .+++...      ...+++.  ",
"           ...+++...  ...+++...  ",
"            ....+++....+++....   ",
"           .+++...++++++...+++.  ",
"           .+++++...++...+++++.  ",
"            ..+++++....+++++..   ",
"           .....++++++++++.....  ",
"           .+++...++++++...+++.  ",
"           .+++++...++...+++++.  ",
"      .+.  ...+++++....+++++...  ",
"      .+.   ....++++++++++....   ",
"      .+.      ...++++++...      ",
"      .+.        ...++...        ",
"      .+.          ....          ",
" .....   .....                   ",
" +++++   +++++                   ",
" .....   .....                   ",
"      .+.                        ",
"      .+.                        ",
"      .+.                        ",
"      .+.                        ",
"      .+.                        ",
"                                 "};
