/* XPM */
static char * precise_pick_layer_icon_xpm[] = {
"33 31 2 1",
" 	c None",
".	c #000000",
"                                 ",
"                                 ",
"                   ..            ",
"                 ......          ",
"               ...    ...        ",
"             ...        ...      ",
"           ...            ...    ",
"           ...            ...    ",
"             ...        ...      ",
"               ...    ...        ",
"           ...   ......   ...    ",
"             ...   ..   ...      ",
"               ...    ...        ",
"           ...   ......   ...    ",
"             ...   ..   ...      ",
"               ...    ...        ",
"           ...   ......   ...    ",
"       .     ...   ..   ...      ",
"       .       ...    ...        ",
"       .         ......          ",
"       .           ..            ",
"       .                         ",
"                                 ",
" .....   .....                   ",
"                                 ",
"       .                         ",
"       .                         ",
"       .                         ",
"       .                         ",
"       .                         ",
"                                 "};
