/* XPM */
static char * shear_x_xpm[] = {
"33 31 3 1",
" 	c None",
".	c #FFFFFF",
"+	c #000000",
"                                 ",
"                                 ",
"                                 ",
"       ..                        ",
"      .+.                        ",
"     .++.                        ",
"    .+++.                        ",
"   .++++.......................  ",
"  .+++++++++++++++++++++++++++.  ",
"   .++++.......................  ",
"    .+++.                        ",
"     .++.                        ",
"      .+.                        ",
"       ..                        ",
"                                 ",
"                                 ",
"                                 ",
"                        ..       ",
"                        .+.      ",
"                        .++.     ",
"                        .+++.    ",
"  .......................++++.   ",
"  .+++++++++++++++++++++++++++.  ",
"  .......................++++.   ",
"                        .+++.    ",
"                        .++.     ",
"                        .+.      ",
"                        ..       ",
"                                 ",
"                                 ",
"                                 "};
