/* XPM */
static char * tool_color_sampler_cursor_xpm[] = {
"32 32 3 1",
" 	c None",
".	c #FFFFFF",
"+	c #000000",
"                                ",
"                                ",
"   .                            ",
"  .+.                           ",
"  .++.                          ",
"  .+++.              ....       ",
"  .++++.            .++++.      ",
"  .+++++.          .++++++.     ",
"  .++++++.      ...+++++++.     ",
"  .+++++++.    .++++++++++.     ",
"  .+++....    .+++++++++++.     ",
"  .++.        .++++++++++.      ",
"  .+.          .++++++++.       ",
"   .          .+.++++++.        ",
"             .+...+++++.        ",
"            .+.....++++.        ",
"           .+.....+.++.         ",
"          .+.....+. ..          ",
"         .+.....+.              ",
"        .+.....+.               ",
"       .+.....+.                ",
"      .+.....+.                 ",
"     .+.....+.                  ",
"     .+....+.                   ",
"     .+...+.                    ",
"    .+++++.                     ",
"    .++...                      ",
"     ..                         ",
"                                ",
"                                ",
"                                ",
"                                "};
