/* XPM */
static char * zoom_smooth_xpm[] = {
"33 31 3 1",
" 	c None",
".	c #FFFFFF",
"+	c #000000",
"                                 ",
"                                 ",
"                                 ",
"                                 ",
"                                 ",
"                                 ",
"        ......                   ",
"      ..++++++..                 ",
"     .++++++++++.                ",
"    .+++......+++.               ",
"   .++...+......++.              ",
"   .++..+.......++.              ",
"  .++..+.........++.             ",
"  .++.++.........++.             ",
"  .++.++.........++.             ",
"  .++.++.........++.             ",
"  .++..++........+.              ",
"   .++..++......++.              ",
"   .+++...++...++++.             ",
"    .+++......+++.++.            ",
"     .++++++++++.++.+.           ",
"      ..++++++.+++++.+.          ",
"        ...... .+++++.+.         ",
"                .+++++.+.        ",
"                 .+++++.+.       ",
"                  .++++++.       ",
"                   .+++++.       ",
"                    .+++.        ",
"                     ...         ",
"                                 ",
"                                 "};
