<?xml version="1.0" encoding="UTF-8" standalone="no"?>
<!-- Generator: Adobe Illustrator 19.1.0, SVG Export Plug-In . SVG Version: 6.00 Build 0)  -->

<svg
   xmlns:dc="http://purl.org/dc/elements/1.1/"
   xmlns:cc="http://creativecommons.org/ns#"
   xmlns:rdf="http://www.w3.org/1999/02/22-rdf-syntax-ns#"
   xmlns:svg="http://www.w3.org/2000/svg"
   xmlns="http://www.w3.org/2000/svg"
   xmlns:sodipodi="http://sodipodi.sourceforge.net/DTD/sodipodi-0.dtd"
   xmlns:inkscape="http://www.inkscape.org/namespaces/inkscape"
   version="1.1"
   id="Capa_1"
   x="0px"
   y="0px"
   viewBox="0 0 487.7 487.7"
   style="enable-background:new 0 0 487.7 487.7;"
   xml:space="preserve"
   inkscape:version="0.91 r13725"
   sodipodi:docname="photo-camera.svg"><metadata
     id="metadata47"><rdf:RDF><cc:Work
         rdf:about=""><dc:format>image/svg+xml</dc:format><dc:type
           rdf:resource="http://purl.org/dc/dcmitype/StillImage" /></cc:Work></rdf:RDF></metadata><defs
     id="defs45" /><sodipodi:namedview
     pagecolor="#ffffff"
     bordercolor="#666666"
     borderopacity="1"
     objecttolerance="10"
     gridtolerance="10"
     guidetolerance="10"
     inkscape:pageopacity="0"
     inkscape:pageshadow="2"
     inkscape:window-width="1535"
     inkscape:window-height="786"
     id="namedview43"
     showgrid="false"
     inkscape:zoom="0.68434364"
     inkscape:cx="29.652728"
     inkscape:cy="290.39134"
     inkscape:window-x="37"
     inkscape:window-y="321"
     inkscape:window-maximized="0"
     inkscape:current-layer="g3" /><g
     id="g3"><path
       style="stroke:#000000;stroke-width:6.69999981;stroke-miterlimit:4;stroke-dasharray:none;stroke-opacity:1"
       d="M 312.29688,41.089844 C 303.05391,40.986323 291.83789,41.75 278.90039,41.75 l -70.09961,0 c -34.4,0 -54.60208,-3.981091 -60.43555,16.703125 L 134,111.55078 C 56,126.15078 9.1992187,150.55039 7.1992188,151.65039 2.7992187,153.95039 0,158.55078 0,163.55078 l 0,159 c 0,63.7 31.608389,84.9594 68.839844,100.6211 29.429781,12.81364 131.249166,16.42272 172.448236,15.78539 64.90918,-0.82226 139.45556,-6.06967 166.24708,-16.15063 56.07968,-21.10133 80.16406,-36.45586 80.16406,-100.25586 l 0,-159 c 0,-5 -2.69922,-9.60039 -7.19922,-11.90039 -2,-1.1 -48.80078,-25.39961 -126.80078,-40.09961 L 340.88477,56.386719 C 337.62424,43.844478 327.70182,41.262378 312.29688,41.089844 Z m -3.6875,26.474609 c 7.71139,0.06356 9.2539,2.492969 12.6914,17.136719 l 8.09961,41.648438 c 1.2,5.3 5.49883,9.30117 10.79883,10.20117 61.3,10.6 104.2,28.1 120.5,35.5 l 0,150.5 c 0,48.8 -27.13342,71.90576 -67.41016,87.86914 -41.9735,16.63589 -117.41471,20.19248 -153.04666,21.46835 -34.46322,-0.54339 -94.34623,-3.21306 -134.14084,-17.816 C 60.288711,397.26088 27,371.45078 27,322.55078 l 0,-150.5 c 16.2,-7.4 59,-24.9 120.5,-35.5 5.3,-0.9 9.60078,-5.00117 10.80078,-10.20117 l 5,-21.5 c 5,-21.200001 5.69975,-36.386878 27.59961,-36.464844 l 102.61133,-0.365235 c 6.81246,-0.02425 11.59248,-0.483968 15.09766,-0.455078 z"
       id="path7"
       inkscape:connector-curvature="0"
       sodipodi:nodetypes="ssscccssccssscccssccccsscssccccsss" /><path
       inkscape:connector-curvature="0"
       style="stroke:#000000;stroke-width:6.09513283;stroke-miterlimit:4;stroke-dasharray:none;stroke-opacity:1"
       id="path9"
       d="m 389.42152,101.70081 c 23.89736,7.19246 43.31637,13.48633 71.32835,22.7332 11.15147,5.0288 7.88048,-26.047923 -22.41978,-35.521152 -38.95985,-12.694762 -63.21818,7.945028 -48.90857,12.787952 z"
       sodipodi:nodetypes="cccc"
       inkscape:transform-center-x="-45.172277"
       inkscape:transform-center-y="-43.494773" /><path
       inkscape:connector-curvature="0"
       style="stroke:#000000;stroke-width:7.49443865;stroke-miterlimit:4;stroke-dasharray:none;stroke-opacity:1"
       id="path11"
       d="m 248.81405,138.39691 c -76.90342,0 -139.44911,61.29217 -139.44911,136.65429 0,75.36212 62.54569,136.74221 139.44911,136.74221 76.90339,0 139.44908,-61.29217 139.44908,-136.65429 0,-75.36209 -62.54569,-136.74221 -139.44908,-136.74221 z m 0,249.65349 c -63.5328,0 -115.22052,-50.6518 -115.22052,-112.91128 0,-62.25948 51.68772,-112.99917 115.22052,-112.99917 63.53278,0 115.22048,50.65176 115.22048,112.91125 0,62.25947 -51.6877,112.9992 -115.22048,112.9992 z" /></g><g
     id="g13" /><g
     id="g15" /><g
     id="g17" /><g
     id="g19" /><g
     id="g21" /><g
     id="g23" /><g
     id="g25" /><g
     id="g27" /><g
     id="g29" /><g
     id="g31" /><g
     id="g33" /><g
     id="g35" /><g
     id="g37" /><g
     id="g39" /><g
     id="g41" /></svg>