<?xml version="1.0" encoding="UTF-8" standalone="no"?>
<!-- Created with Inkscape (http://www.inkscape.org/) -->

<svg
   xmlns:dc="http://purl.org/dc/elements/1.1/"
   xmlns:cc="http://creativecommons.org/ns#"
   xmlns:rdf="http://www.w3.org/1999/02/22-rdf-syntax-ns#"
   xmlns:svg="http://www.w3.org/2000/svg"
   xmlns="http://www.w3.org/2000/svg"
   xmlns:sodipodi="http://sodipodi.sourceforge.net/DTD/sodipodi-0.dtd"
   xmlns:inkscape="http://www.inkscape.org/namespaces/inkscape"
   id="svg864"
   version="1.1"
   inkscape:version="0.48+devel r12017"
   width="20"
   height="20"
   sodipodi:docname="tool-text.svg"
   inkscape:export-xdpi="99"
   inkscape:export-ydpi="99"
   inkscape:export-filename="hi22-action-tool-text.png">
  <metadata
     id="metadata870">
    <rdf:RDF>
      <cc:Work
         rdf:about="">
        <dc:format>image/svg+xml</dc:format>
        <dc:type
           rdf:resource="http://purl.org/dc/dcmitype/StillImage" />
        <dc:title></dc:title>
      </cc:Work>
    </rdf:RDF>
  </metadata>
  <defs
     id="defs868">
    <marker
       inkscape:stockid="Arrow1Lend"
       orient="auto"
       refY="0.0"
       refX="0.0"
       id="Arrow1Lend"
       style="overflow:visible;"
       inkscape:isstock="true">
      <path
         id="path1260"
         d="M 0.0,0.0 L 5.0,-5.0 L -12.5,0.0 L 5.0,5.0 L 0.0,0.0 z "
         style="fill-rule:evenodd;stroke:#000000;stroke-width:1pt;stroke-opacity:1;fill:#000000;fill-opacity:1"
         transform="scale(0.8) rotate(180) translate(12.5,0)" />
    </marker>
    <marker
       inkscape:stockid="Arrow1Lstart"
       orient="auto"
       refY="0.0"
       refX="0.0"
       id="marker5177"
       style="overflow:visible"
       inkscape:isstock="true">
      <path
         id="path5179"
         d="M 0.0,0.0 L 5.0,-5.0 L -12.5,0.0 L 5.0,5.0 L 0.0,0.0 z "
         style="fill-rule:evenodd;stroke:#000000;stroke-width:1pt;stroke-opacity:1;fill:#ffffff;fill-opacity:1"
         transform="scale(0.8) translate(12.5,0)" />
    </marker>
    <marker
       inkscape:stockid="Scissors"
       orient="auto"
       refY="0.0"
       refX="0.0"
       id="Scissors"
       style="overflow:visible"
       inkscape:isstock="true">
      <path
         id="schere"
         d="M 9.0898857,-3.6061018 C 8.1198849,-4.7769976 6.3697607,-4.7358294 5.0623558,-4.2327734 L -3.1500488,-1.1548705 C -5.5383421,-2.4615840 -7.8983361,-2.0874077 -7.8983361,-2.7236578 C -7.8983361,-3.2209742 -7.4416699,-3.1119800 -7.5100293,-4.4068519 C -7.5756648,-5.6501286 -8.8736064,-6.5699315 -10.100428,-6.4884954 C -11.327699,-6.4958500 -12.599867,-5.5553341 -12.610769,-4.2584343 C -12.702194,-2.9520479 -11.603560,-1.7387447 -10.304005,-1.6532027 C -8.7816644,-1.4265411 -6.0857470,-2.3487593 -4.8210600,-0.082342643 C -5.7633447,1.6559151 -7.4350844,1.6607341 -8.9465707,1.5737277 C -10.201445,1.5014928 -11.708664,1.8611256 -12.307219,3.0945882 C -12.885586,4.2766744 -12.318421,5.9591904 -10.990470,6.3210002 C -9.6502788,6.8128279 -7.8098011,6.1912892 -7.4910978,4.6502760 C -7.2454393,3.4624530 -8.0864637,2.9043186 -7.7636052,2.4731223 C -7.5199917,2.1477623 -5.9728246,2.3362771 -3.2164999,1.0982979 L 5.6763468,4.2330688 C 6.8000164,4.5467672 8.1730685,4.5362646 9.1684433,3.4313614 L -0.051640930,- 0.053722219 L 9.0898857,-3.6061018 z M -9.2179159,-5.5066058 C -7.9233569,-4.7838060 -8.0290767,-2.8230356 -9.3743431,-2.4433169 C -10.590861,-2.0196559 -12.145370,-3.2022863 -11.757521,-4.5207817 C -11.530373,-5.6026336 -10.104134,-6.0014137 -9.2179159,-5.5066058 z M -9.1616516,2.5107591 C -7.8108215,3.0096239 -8.0402087,5.2951947 -9.4138723,5.6023681 C -10.324932,5.9187072 -11.627422,5.4635705 -11.719569,4.3902287 C -11.897178,3.0851737 -10.363484,1.9060805 -9.1616516,2.5107591 z "
         style="fill:#ffffff;stroke:#000000;stroke-opacity:1;fill-opacity:1" />
    </marker>
    <marker
       inkscape:stockid="StopS"
       orient="auto"
       refY="0.0"
       refX="0.0"
       id="StopS"
       style="overflow:visible"
       inkscape:isstock="true">
      <path
         id="path5070"
         d="M 0.0,5.65 L 0.0,-5.65"
         style="fill:#ffffff;fill-opacity:1;fill-rule:evenodd;stroke:#000000;stroke-width:1pt;stroke-opacity:1"
         transform="scale(0.2)" />
    </marker>
    <marker
       inkscape:stockid="EmptyDiamondMstart"
       orient="auto"
       refY="0.0"
       refX="0.0"
       id="EmptyDiamondMstart"
       style="overflow:visible"
       inkscape:isstock="true">
      <path
         id="path5013"
         d="M 0,-7.0710768 L -7.0710894,0 L 0,7.0710589 L 7.0710462,0 L 0,-7.0710768 z "
         style="fill-rule:evenodd;fill:#ffffff;stroke:#000000;stroke-width:1pt;stroke-opacity:1;fill-opacity:1"
         transform="scale(0.4) translate(6.5,0)" />
    </marker>
    <marker
       inkscape:stockid="EmptyDiamondSstart"
       orient="auto"
       refY="0.0"
       refX="0.0"
       id="EmptyDiamondSstart"
       style="overflow:visible"
       inkscape:isstock="true">
      <path
         id="path5016"
         d="M 0,-7.0710768 L -7.0710894,0 L 0,7.0710589 L 7.0710462,0 L 0,-7.0710768 z "
         style="fill-rule:evenodd;fill:#ffffff;stroke:#000000;stroke-width:1pt;stroke-opacity:1;fill-opacity:1"
         transform="scale(0.2) translate(6,0)" />
    </marker>
    <marker
       inkscape:stockid="TriangleInL"
       orient="auto"
       refY="0.0"
       refX="0.0"
       id="TriangleInL"
       style="overflow:visible"
       inkscape:isstock="true">
      <path
         id="path5028"
         d="M 5.77,0.0 L -2.88,5.0 L -2.88,-5.0 L 5.77,0.0 z "
         style="fill-rule:evenodd;stroke:#000000;stroke-width:1pt;stroke-opacity:1;fill:#ffffff;fill-opacity:1"
         transform="scale(-0.8)" />
    </marker>
    <marker
       inkscape:stockid="Arrow1Lstart"
       orient="auto"
       refY="0.0"
       refX="0.0"
       id="marker5163"
       style="overflow:visible"
       inkscape:isstock="true">
      <path
         id="path5165"
         d="M 0.0,0.0 L 5.0,-5.0 L -12.5,0.0 L 5.0,5.0 L 0.0,0.0 z "
         style="fill-rule:evenodd;stroke:#000000;stroke-width:1pt;stroke-opacity:1;fill:#ffffff;fill-opacity:1"
         transform="scale(0.8) translate(12.5,0)" />
    </marker>
    <marker
       inkscape:stockid="Arrow2Lstart"
       orient="auto"
       refY="0.0"
       refX="0.0"
       id="Arrow2Lstart"
       style="overflow:visible"
       inkscape:isstock="true">
      <path
         id="path4913"
         style="fill-rule:evenodd;stroke-width:0.625;stroke-linejoin:round;stroke:#000000;stroke-opacity:1;fill:#ffffff;fill-opacity:1"
         d="M 8.7185878,4.0337352 L -2.2072895,0.016013256 L 8.7185884,-4.0017078 C 6.9730900,-1.6296469 6.9831476,1.6157441 8.7185878,4.0337352 z "
         transform="scale(1.1) translate(1,0)" />
    </marker>
    <marker
       inkscape:stockid="Arrow2Lend"
       orient="auto"
       refY="0.0"
       refX="0.0"
       id="marker5157"
       style="overflow:visible;"
       inkscape:isstock="true">
      <path
         id="path5159"
         style="fill-rule:evenodd;stroke-width:0.625;stroke-linejoin:round;stroke:#000000;stroke-opacity:1;fill:#ffffff;fill-opacity:1"
         d="M 8.7185878,4.0337352 L -2.2072895,0.016013256 L 8.7185884,-4.0017078 C 6.9730900,-1.6296469 6.9831476,1.6157441 8.7185878,4.0337352 z "
         transform="scale(1.1) rotate(180) translate(1,0)" />
    </marker>
    <marker
       inkscape:stockid="Arrow1Mend"
       orient="auto"
       refY="0.0"
       refX="0.0"
       id="Arrow1Mend"
       style="overflow:visible;"
       inkscape:isstock="true">
      <path
         id="path4904"
         d="M 0.0,0.0 L 5.0,-5.0 L -12.5,0.0 L 5.0,5.0 L 0.0,0.0 z "
         style="fill-rule:evenodd;stroke:#000000;stroke-width:1pt;stroke-opacity:1;fill:#ffffff;fill-opacity:1"
         transform="scale(0.4) rotate(180) translate(10,0)" />
    </marker>
    <marker
       inkscape:stockid="Arrow1Lstart"
       orient="auto"
       refY="0.0"
       refX="0.0"
       id="Arrow1Lstart"
       style="overflow:visible"
       inkscape:isstock="true">
      <path
         id="path4895"
         d="M 0.0,0.0 L 5.0,-5.0 L -12.5,0.0 L 5.0,5.0 L 0.0,0.0 z "
         style="fill-rule:evenodd;stroke:#000000;stroke-width:1pt;stroke-opacity:1;fill:#ffffff;fill-opacity:1"
         transform="scale(0.8) translate(12.5,0)" />
    </marker>
    <marker
       inkscape:stockid="Arrow2Lend"
       orient="auto"
       refY="0.0"
       refX="0.0"
       id="Arrow2Lend"
       style="overflow:visible;"
       inkscape:isstock="true">
      <path
         id="path4916"
         style="fill-rule:evenodd;stroke-width:0.625;stroke-linejoin:round;stroke:#000000;stroke-opacity:1;fill:#ffffff;fill-opacity:1"
         d="M 8.7185878,4.0337352 L -2.2072895,0.016013256 L 8.7185884,-4.0017078 C 6.9730900,-1.6296469 6.9831476,1.6157441 8.7185878,4.0337352 z "
         transform="scale(1.1) rotate(180) translate(1,0)" />
    </marker>
    <inkscape:path-effect
       effect="skeletal"
       id="path-effect4889"
       is_visible="true"
       pattern="M 0,5 C 0,2.24 2.24,0 5,0 7.76,0 10,2.24 10,5 10,7.76 7.76,10 5,10 2.24,10 0,7.76 0,5 Z"
       copytype="single_stretched"
       prop_scale="1"
       scale_y_rel="false"
       spacing="0"
       normal_offset="0"
       tang_offset="0"
       prop_units="false"
       vertical_pattern="false"
       fuse_tolerance="0" />
  </defs>
  <sodipodi:namedview
     pagecolor="#ffffff"
     bordercolor="#666666"
     borderopacity="1"
     objecttolerance="10"
     gridtolerance="10"
     guidetolerance="10"
     inkscape:pageopacity="0"
     inkscape:pageshadow="2"
     inkscape:window-width="1920"
     inkscape:window-height="1060"
     id="namedview866"
     showgrid="true"
     inkscape:zoom="43.45"
     inkscape:cx="11.09972"
     inkscape:cy="10.109321"
     inkscape:window-x="-2"
     inkscape:window-y="-3"
     inkscape:window-maximized="1"
     inkscape:current-layer="svg864"
     showguides="true">
    <inkscape:grid
       type="xygrid"
       id="grid980" />
  </sodipodi:namedview>
  <path
     sodipodi:type="inkscape:offset"
     inkscape:radius="0.31319982"
     inkscape:original="M 4.21875 6.5625 L 0.6875 15.21875 L 1.90625 15.21875 L 2.875 12.6875 L 6.84375 12.6875 L 7.8125 15.21875 L 9.03125 15.21875 L 5.53125 6.5625 L 4.21875 6.5625 z M 4.875 7.4375 C 4.8790974 7.4579869 4.8775683 7.5307601 4.90625 7.625 C 4.9390291 7.7151425 4.9861787 7.8294389 5.03125 7.96875 C 5.0763213 8.1039638 5.1301366 8.2382572 5.1875 8.40625 C 5.2489608 8.5742428 5.3094418 8.7423545 5.375 8.90625 L 6.46875 11.78125 L 3.25 11.78125 L 4.34375 8.9375 C 4.4052108 8.7736045 4.4738866 8.6054928 4.53125 8.4375 C 4.5927108 8.2695072 4.6424287 8.1080611 4.6875 7.96875 C 4.7366686 7.8294389 4.7838183 7.7192399 4.8125 7.625 C 4.8411817 7.5307601 4.8668052 7.4579869 4.875 7.4375 z "
     style="font-size:12.58717155px;font-style:normal;font-variant:normal;font-weight:normal;font-stretch:normal;line-height:125%;letter-spacing:0px;word-spacing:0px;fill:#ffffff;fill-opacity:0;stroke:none;font-family:Liberation Sans;-inkscape-font-specification:Liberation Sans"
     id="path1200"
     d="M 4.125,6.25 A 0.31323114,0.31323114 0 0 0 4.03125,6.3125 0.31323114,0.31323114 0 0 0 3.9375,6.4375 L 0.40625,15.09375 A 0.31323114,0.31323114 0 0 0 0.5625,15.5 a 0.31323114,0.31323114 0 0 0 0.125,0.03125 l 1.21875,0 a 0.31323114,0.31323114 0 0 0 0.1875,-0.0625 0.31323114,0.31323114 0 0 0 0.09375,-0.125 L 3.09375,13 6.625,13 7.53125,15.34375 a 0.31323114,0.31323114 0 0 0 0.09375,0.125 0.31323114,0.31323114 0 0 0 0.1875,0.0625 l 1.21875,0 a 0.31323114,0.31323114 0 0 0 0.1875,-0.0625 0.31323114,0.31323114 0 0 0 0.09375,-0.375 L 5.8125,6.4375 A 0.31323114,0.31323114 0 0 0 5.78125,6.375 0.31323114,0.31323114 0 0 0 5.71875,6.3125 0.31323114,0.31323114 0 0 0 5.53125,6.25 l -1.3125,0 A 0.31323114,0.31323114 0 0 0 4.125,6.25 z m 0.75,2.15625 c 0.011155,0.031099 0.019974,0.060728 0.03125,0.09375 0.061075,0.1669394 0.119183,0.3604575 0.1875,0.53125 l 0.9375,2.4375 -2.34375,0 L 4.625,9.0625 C 4.6842513,8.9044965 4.7510821,8.7111166 4.8125,8.53125 4.8304259,8.4822525 4.8590433,8.4531247 4.875,8.40625 Z"
     transform="matrix(1.0234068,0,0,0.97712853,-0.34711051,-3.414843)" />
  <g
     id="g3448"
     transform="translate(0.11507479,0)">
    <path
       d="m 11.78125,1.90625 a 0.98974224,0.98974224 0 0 0 -0.90625,1 l 0,2.03125 a 0.98974224,0.98974224 0 0 0 1,1 l 0.625,0 0,8.0625 -0.625,0 a 0.98974224,0.98974224 0 0 0 -1,1 l 0,2 a 0.98974224,0.98974224 0 0 0 1,1 l 5.625,0 a 0.98974224,0.98974224 0 0 0 1,-1 l 0,-2 a 0.98974224,0.98974224 0 0 0 -1,-1 l -0.59375,0 0,-8.0625 0.59375,0 a 0.98974224,0.98974224 0 0 0 1,-1 l 0,-2.03125 a 0.98974224,0.98974224 0 0 0 -1,-1 l -5.625,0 A 0.98974224,0.98974224 0 0 0 11.78125,1.90625 Z"
       id="path3446"
       style="fill:#ffffff;fill-opacity:1;stroke:#ffffff;stroke-width:0.89980268px;stroke-linecap:butt;stroke-linejoin:round;stroke-opacity:1"
       inkscape:original="M 11.875 2.90625 L 11.875 4.9375 L 13.5 4.9375 L 13.5 15 L 11.875 15 L 11.875 17 L 17.5 17 L 17.5 15 L 15.90625 15 L 15.90625 4.9375 L 17.5 4.9375 L 17.5 2.90625 L 11.875 2.90625 z "
       inkscape:radius="0.98964328"
       sodipodi:type="inkscape:offset" />
    <path
       inkscape:connector-curvature="0"
       id="path3426"
       d="m 13.501297,4.9642152 -1.607783,0 0,-2.0143139 5.62724,0 0,2.0143139 -1.607783,0 0,10.0715698 1.607783,0 0,2.014314 -5.62724,0 0,-2.014314 L 13.501297,15.035785 Z"
       style="fill:#ffffff;fill-opacity:1;stroke:#000000;stroke-width:0.89980268px;stroke-linecap:butt;stroke-linejoin:round;stroke-opacity:1" />
  </g>
  <g
     id="g3422"
     transform="matrix(1.0500042,0,0,1.1944836,0.19100345,3.8861029)">
    <path
       transform="matrix(1.0234068,0,0,0.97712853,0.18223308,-5.4165706)"
       d="M 4,5.5625 A 0.68583259,0.68583259 0 0 0 3.75,5.65625 c 0.00768,-0.00421 -0.069867,0.035997 -0.0625,0.03125 0.00737,-0.00475 -0.038261,0.036507 -0.03125,0.03125 0.00701,-0.00526 -0.069121,0.068242 -0.0625,0.0625 0.00662,-0.00574 -0.068697,0.037447 -0.0625,0.03125 0.0062,-0.0062 -0.036992,0.069121 -0.03125,0.0625 0.00574,-0.00662 -0.067757,0.069511 -0.0625,0.0625 0.00526,-0.00701 -0.035997,0.038617 -0.03125,0.03125 0.0019,-0.00295 0.00775,0.018187 0,0.03125 -0.01162,0.019594 -0.033777,0.035861 -0.03125,0.03125 -0.00619,0.010132 -0.00136,0.033629 0,0.03125 0.0034,-0.00595 -0.034313,0.037376 -0.03125,0.03125 0.00306,-0.00613 -0.033969,0.068787 -0.03125,0.0625 0.00136,-0.00314 0.00579,0.016765 0,0.03125 l -3.53125,8.65625 c 0.002256,-0.0054 -0.0332451,0.03677 -0.03125,0.03125 0.001995,-0.0055 -0.00173,0.03686 0,0.03125 0.00173,-0.0056 -0.0327111,0.06819 -0.03125,0.0625 0.001461,-0.0057 -0.001189,0.037 0,0.03125 0.001189,-0.0058 -9.1394e-4,0.0683 0,0.0625 9.1394e-4,-0.0058 -0.0318869,0.03709 -0.03125,0.03125 6.3694e-4,-0.0058 -3.5849e-4,0.06836 0,0.0625 3.5849e-4,-0.0059 -7.924e-5,0.03712 0,0.03125 7.924e-5,-0.0059 2.002e-4,0.06837 0,0.0625 -2.002e-4,-0.0059 4.7918e-4,0.0371 0,0.03125 -4.7918e-4,-0.0059 0.0320071,0.06832 0.03125,0.0625 -7.5707e-4,-0.0058 0.001033,0.06828 0,0.0625 -0.001033,-0.0058 0.001307,0.03698 0,0.03125 -0.001307,-0.0057 0.001578,0.03691 0,0.03125 -0.001578,-0.0057 0.0330953,0.06808 0.03125,0.0625 -0.001845,-0.0056 0.002108,0.03673 0,0.03125 -0.002108,-0.0055 0.0336168,0.06788 0.03125,0.0625 -0.002367,-0.0054 0.0338698,0.03651 0.03125,0.03125 -0.00262,-0.0053 0.002867,0.06763 0,0.0625 -0.002867,-0.0051 0.0343575,0.03623 0.03125,0.03125 -0.003107,-0.005 0.034591,0.03608 0.03125,0.03125 -0.003341,-0.0048 0.034817,0.03592 0.03125,0.03125 -0.003567,-0.0047 0.03503491,0.06699 0.03125,0.0625 -0.0037849,-0.0045 0.03524425,0.03556 0.03125,0.03125 -0.0039942,-0.0043 0.03544456,0.03536 0.03125,0.03125 -0.00419456,-0.0041 0.03563536,0.03516 0.03125,0.03125 -0.0043854,-0.0039 0.03581624,0.03494 0.03125,0.03125 -0.0045662,-0.0037 0.03598679,0.03472 0.03125,0.03125 -0.0047368,-0.0035 0.06739661,0.03449 0.0625,0.03125 -0.004897,-0.0032 0.0362953,0.003 0.03125,0 -0.005045,-0.003 0.0364327,0.03401 0.03125,0.03125 -0.00311,-0.0017 0.0176167,0.02437 0.03125,0.03125 0.009089,0.0046 0.0333733,0.001 0.03125,0 0.0131692,0.006 0.0341738,0.0012 0.03125,0 -0.005848,-0.0025 0.0372166,0.03341 0.03125,0.03125 -0.005967,-0.0022 0.0685699,0.0331 0.0625,0.03125 -0.00607,-0.0019 0.0686572,0.0015 0.0625,0 -0.006157,-0.0015 0.0374781,0.0012 0.03125,0 -0.006228,-0.0012 0.0687826,0.03215 0.0625,0.03125 -0.006283,-8.99e-4 0.0375705,5.75e-4 0.03125,0 -0.006321,-5.75e-4 0.0688417,2.49e-4 0.0625,0 a 0.68583259,0.68583259 0 0 0 0.03125,0 l 1.21875,0 c -0.00872,1.97e-4 0.1024359,-8.13e-4 0.09375,0 -0.00869,8.13e-4 0.071107,-0.0014 0.0625,0 -0.00861,0.0014 0.070985,-0.03328 0.0625,-0.03125 -0.00848,0.002 0.07082,-0.03387 0.0625,-0.03125 -0.00832,0.0026 0.1018645,-0.0032 0.09375,0 -0.00811,0.0032 0.070368,-0.03502 0.0625,-0.03125 -0.00787,0.0038 0.070082,-0.03556 0.0625,-0.03125 -0.00758,0.0043 0.069759,-0.03609 0.0625,-0.03125 -0.00726,0.0048 0.038149,-0.06784 0.03125,-0.0625 -0.0069,0.0053 0.069005,-0.03706 0.0625,-0.03125 -0.0065,0.0058 0.068578,-0.06876 0.0625,-0.0625 -0.00608,0.0063 0.036871,-0.03792 0.03125,-0.03125 -0.00562,0.0067 0.067636,-0.06955 0.0625,-0.0625 -0.00514,0.0071 0.035875,-0.0699 0.03125,-0.0625 -0.00462,0.0074 0.035341,-0.0702 0.03125,-0.0625 -0.00409,0.0077 0.034786,-0.07048 0.03125,-0.0625 a 0.68583259,0.68583259 0 0 0 0,-0.03125 l 0.75,-1.90625 2.59375,0 0.6875,1.71875 0,0.03125 a 0.68583259,0.68583259 0 0 0 0.03125,0.09375 0.68583259,0.68583259 0 0 0 0.0625,0.1875 c -0.00421,-0.0077 0.035997,0.06987 0.03125,0.0625 -0.00475,-0.0074 0.036507,0.03826 0.03125,0.03125 -0.00526,-0.007 0.068242,0.06912 0.0625,0.0625 -0.00574,-0.0066 0.037447,0.0687 0.03125,0.0625 -0.0062,-0.0062 0.069121,0.03699 0.0625,0.03125 -0.00662,-0.0057 0.069511,0.06776 0.0625,0.0625 -0.00701,-0.0053 0.038617,0.036 0.03125,0.03125 -0.00737,-0.0047 0.070185,0.03546 0.0625,0.03125 A 0.68583259,0.68583259 0 0 0 7.34375,16.125 c -0.00709,-0.0034 0.069791,0.03424 0.0625,0.03125 -0.00729,-0.003 0.069966,0.0025 0.0625,0 -0.00747,-0.0025 0.070112,0.03328 0.0625,0.03125 -0.00761,-0.002 0.070226,0.0015 0.0625,0 -0.00773,-0.0015 0.070309,0.0323 0.0625,0.03125 -0.00781,-0.001 0.07036,5.49e-4 0.0625,0 -0.00786,-5.49e-4 0.070379,4.7e-5 0.0625,0 -0.00394,-2.3e-5 0.013313,4.67e-4 0.03125,0 0.017937,-4.67e-4 0.035183,-2.28e-4 0.03125,0 l 1.1875,0 a 0.68583259,0.68583259 0 0 0 0.03125,0 c -0.00747,2.27e-4 0.069945,-6.79e-4 0.0625,0 -0.00745,6.79e-4 0.06989,-0.0011 0.0625,0 -0.00739,0.0011 0.038559,-0.03282 0.03125,-0.03125 -0.00731,0.0016 0.0697,-0.002 0.0625,0 -0.0072,0.002 0.069565,-0.0337 0.0625,-0.03125 -0.00706,0.0024 0.069404,-0.03412 0.0625,-0.03125 -0.0069,0.0029 0.069218,-0.0033 0.0625,0 -0.00672,0.0033 0.037757,-0.03493 0.03125,-0.03125 -0.00651,0.0037 0.068772,-0.03532 0.0625,-0.03125 -0.00627,0.0041 0.068514,-0.03569 0.0625,-0.03125 -0.00601,0.0044 0.036984,-0.0673 0.03125,-0.0625 -0.00573,0.0048 0.067933,-0.03638 0.0625,-0.03125 -0.00543,0.0051 0.036363,-0.0367 0.03125,-0.03125 -0.00511,0.0055 0.036023,-0.06825 0.03125,-0.0625 -0.00477,0.0058 0.066916,-0.03728 0.0625,-0.03125 -0.00442,0.006 0.035293,-0.06879 0.03125,-0.0625 -0.00404,0.0063 0.034905,-0.03777 0.03125,-0.03125 -0.00365,0.0065 0.034503,-0.06923 0.03125,-0.0625 -0.00325,0.0067 0.00284,-0.06942 0,-0.0625 -0.00284,0.0069 0.033666,-0.06958 0.03125,-0.0625 -0.00242,0.0071 0.033233,-0.06971 0.03125,-0.0625 -0.00198,0.0072 0.0015,-0.03857 0,-0.03125 -0.00154,0.0073 0.0011,-0.0699 0,-0.0625 -0.0011,0.0074 0.0319,-0.06995 0.03125,-0.0625 -6.48e-4,0.0074 1.96e-4,-0.06997 0,-0.0625 -1.96e-4,0.0075 -2.57e-4,-0.06997 0,-0.0625 2.57e-4,0.0075 -7.08e-4,-0.06994 0,-0.0625 7.08e-4,0.0074 -0.032408,-0.06989 -0.03125,-0.0625 0.0012,0.0074 -0.0016,-0.0698 0,-0.0625 0.0016,0.0073 -0.00204,-0.06969 0,-0.0625 0.002,0.0072 -0.033723,-0.06955 -0.03125,-0.0625 0.00247,0.0071 -0.034146,-0.03814 -0.03125,-0.03125 l -3.5,-8.65625 c -0.00579,-0.014485 -0.00136,-0.034393 0,-0.03125 0.00272,0.00629 -0.034313,-0.068626 -0.03125,-0.0625 C 6.4093132,6.0998764 6.3716017,6.0565529 6.375,6.0625 6.3783983,6.0684471 6.3400271,5.9942506 6.34375,6 A 0.68583259,0.68583259 0 0 0 6.3125,5.9375 C 6.3153376,5.9407662 6.2946874,5.920664 6.28125,5.90625 6.2840876,5.9095162 6.2634374,5.889414 6.25,5.875 6.2530594,5.8780594 6.233164,5.8571874 6.21875,5.84375 6.2218094,5.8468094 6.201914,5.8259374 6.1875,5.8125 6.173086,5.7990626 6.1529838,5.7784124 6.15625,5.78125 A 0.68583259,0.68583259 0 0 0 6.125,5.75 c 0.00788,0.00587 -0.070827,-0.036479 -0.0625,-0.03125 0.00833,0.00523 -0.071216,-0.0358 -0.0625,-0.03125 0.00872,0.00455 -0.1028008,-0.035092 -0.09375,-0.03125 0.00905,0.00384 -0.071828,-0.034359 -0.0625,-0.03125 0.00933,0.00311 -0.072046,-0.033607 -0.0625,-0.03125 0.00955,0.00236 -0.1034529,-0.03284 -0.09375,-0.03125 0.0097,0.00159 -0.072299,-8.13e-4 -0.0625,0 0.0098,8.13e-4 -0.1035823,-3.07e-5 -0.09375,0 l -1.21875,0 -0.0625,0 c 0.00459,3.429e-4 -0.010303,7.814e-4 -0.03125,0 -0.020947,-7.814e-4 -0.035852,0 -0.03125,0 0.00307,0 -0.019179,-4.884e-4 -0.03125,0 -0.012071,4.884e-4 -0.019176,-4.122e-4 -0.03125,0 0.00306,0 -0.017324,-3.451e-4 -0.03125,0 0.00459,-3.429e-4 -0.01042,-0.00234 -0.03125,0 a 0.68583259,0.68583259 0 0 0 -0.03125,0 A 0.68583259,0.68583259 0 0 0 4,5.5625 z m 0.875,4.75 0.15625,0.46875 -0.34375,0 L 4.875,10.3125 Z"
       id="path1222"
       style="font-size:12.58717155px;font-style:normal;font-variant:normal;font-weight:normal;font-stretch:normal;line-height:125%;letter-spacing:0px;word-spacing:0px;fill:#ffffff;fill-opacity:1;stroke:none;font-family:Liberation Sans;-inkscape-font-specification:Liberation Sans"
       inkscape:original="M 4.09375 6.25 A 0.31545968 0.31545968 0 0 0 3.96875 6.375 A 0.31545968 0.31545968 0 0 0 3.9375 6.4375 L 0.40625 15.09375 A 0.31545968 0.31545968 0 0 0 0.5625 15.5 A 0.31545968 0.31545968 0 0 0 0.6875 15.53125 L 1.90625 15.53125 A 0.31545968 0.31545968 0 0 0 2.1875 15.34375 L 3.09375 13 L 6.625 13 L 7.53125 15.34375 A 0.31545968 0.31545968 0 0 0 7.53125 15.375 A 0.31545968 0.31545968 0 0 0 7.65625 15.5 A 0.31545968 0.31545968 0 0 0 7.8125 15.53125 L 9.03125 15.53125 A 0.31545968 0.31545968 0 0 0 9.3125 15.09375 L 5.8125 6.4375 A 0.31545968 0.31545968 0 0 0 5.78125 6.375 A 0.31545968 0.31545968 0 0 0 5.75 6.34375 A 0.31545968 0.31545968 0 0 0 5.71875 6.3125 A 0.31545968 0.31545968 0 0 0 5.53125 6.25 L 4.21875 6.25 A 0.31545968 0.31545968 0 0 0 4.125 6.25 A 0.31545968 0.31545968 0 0 0 4.09375 6.25 z M 4.84375 8.4375 C 4.8518272 8.4602721 4.8668649 8.4761759 4.875 8.5 A 0.31545968 0.31545968 0 0 0 4.90625 8.5 C 4.9673227 8.6669319 5.0254134 8.8604084 5.09375 9.03125 L 6.03125 11.46875 L 3.6875 11.46875 L 4.625 9.0625 C 4.6842356 8.9045384 4.7823033 8.711201 4.84375 8.53125 L 4.8125 8.53125 C 4.8252024 8.4965301 4.8320576 8.47121 4.84375 8.4375 z "
       inkscape:radius="0.68576401"
       sodipodi:type="inkscape:offset" />
    <path
       transform="matrix(1.0234068,0,0,0.97712853,0.18411968,-5.4085155)"
       d="m 4.21875,6.5625 -3.53125,8.65625 1.21875,0 0.96875,-2.53125 3.96875,0 0.96875,2.53125 1.21875,0 -3.5,-8.65625 L 4.21875,6.5625 Z M 4.875,7.4375 c 0.0041,0.020487 0.00257,0.09326 0.03125,0.1875 0.032779,0.090142 0.079929,0.2044389 0.125,0.34375 0.045071,0.1352138 0.098887,0.2695072 0.15625,0.4375 0.061461,0.1679928 0.1219418,0.3361045 0.1875,0.5 l 1.09375,2.875 -3.21875,0 L 4.34375,8.9375 C 4.4052108,8.7736045 4.4738866,8.6054928 4.53125,8.4375 4.5927108,8.2695072 4.6424287,8.1080611 4.6875,7.96875 4.7366686,7.8294389 4.7838183,7.7192399 4.8125,7.625 4.8411817,7.5307601 4.8668052,7.4579869 4.875,7.4375 Z"
       id="path1180"
       style="font-size:12.58717155px;font-style:normal;font-variant:normal;font-weight:normal;font-stretch:normal;line-height:125%;letter-spacing:0px;word-spacing:0px;fill:#000000;fill-opacity:1;stroke:none;font-family:Liberation Sans;-inkscape-font-specification:Liberation Sans"
       inkscape:original="M 4.21875 6.5625 L 0.6875 15.21875 L 1.90625 15.21875 L 2.875 12.6875 L 6.84375 12.6875 L 7.8125 15.21875 L 9.03125 15.21875 L 5.53125 6.5625 L 4.21875 6.5625 z M 4.875 7.4375 C 4.8790974 7.4579869 4.8775683 7.5307601 4.90625 7.625 C 4.9390291 7.7151425 4.9861787 7.8294389 5.03125 7.96875 C 5.0763213 8.1039638 5.1301366 8.2382572 5.1875 8.40625 C 5.2489608 8.5742428 5.3094418 8.7423545 5.375 8.90625 L 6.46875 11.78125 L 3.25 11.78125 L 4.34375 8.9375 C 4.4052108 8.7736045 4.4738866 8.6054928 4.53125 8.4375 C 4.5927108 8.2695072 4.6424287 8.1080611 4.6875 7.96875 C 4.7366686 7.8294389 4.7838183 7.7192399 4.8125 7.625 C 4.8411817 7.5307601 4.8668052 7.4579869 4.875 7.4375 z "
       inkscape:radius="0"
       sodipodi:type="inkscape:offset" />
  </g>
</svg>
