<svg width="16" height="16" xmlns="http://www.w3.org/2000/svg"><path d="M10.5 10.5c.002 2.762-2.237 5-5 5s-5.002-2.238-5-5c-.002-2.76 2.237-5 5-5s5.002 2.24 5 5z" color="#000" fill="#ff15a1" stroke="#373737" stroke-width=".49999682600000006"/><path d="M8 1.401a4.998 4.998 0 0 0-2.488 9.334c-.004-.078-.012-.155-.012-.234a4.998 4.998 0 0 1 7.488-4.334A4.994 4.994 0 0 0 8 1.4z" fill="#1583ff"/><path d="M10.5 5.5a4.998 4.998 0 0 0-5 5c0 .08.008.157.012.235A4.998 4.998 0 0 0 13 6.401c0-.079-.008-.156-.012-.234A4.975 4.975 0 0 0 10.5 5.5z" fill="#00cf2d"/><path d="M12.988 6.167c.004.078.012.155.012.234a4.998 4.998 0 0 1-7.489 4.334 4.994 4.994 0 0 0 4.989 4.766 4.998 4.998 0 0 0 2.488-9.334z" fill="#f8ff15"/><path d="M5.512 10.735a4.996 4.996 0 0 0 2.486 4.093 4.987 4.987 0 0 0 2.49-4.091A4.978 4.978 0 0 1 8 11.4a4.975 4.975 0 0 1-2.488-.666z" fill="#ef0000"/><path d="M7.998 6.173A4.991 4.991 0 0 0 5.5 10.5c0 .079.008.156.012.234a4.978 4.978 0 0 0 4.977.002c.003-.079.011-.157.011-.236a4.99 4.99 0 0 0-2.502-4.328z" fill="#383027"/><path d="M5.5 5.5c-.91 0-1.76.247-2.494.67a4.99 4.99 0 0 0 2.506 4.564c-.004-.077-.012-.154-.012-.233a4.991 4.991 0 0 1 2.498-4.328A4.975 4.975 0 0 0 5.5 5.5z" fill="#5100cc"/><path d="M8 1.401a4.998 4.998 0 0 0-4.994 4.77 4.998 4.998 0 1 0 4.992 8.658 4.998 4.998 0 1 0 4.99-8.662A4.994 4.994 0 0 0 8 1.4z" fill="none" stroke="#373737" stroke-width=".9999936520000001"/></svg>