<svg xmlns:dc="http://purl.org/dc/elements/1.1/" xmlns:cc="http://creativecommons.org/ns#" xmlns:rdf="http://www.w3.org/1999/02/22-rdf-syntax-ns#" xmlns="http://www.w3.org/2000/svg" width="22" height="22" id="svg4183" version="1.1"><metadata id="metadata4188"><rdf:RDF><cc:Work><dc:format>image/svg+xml</dc:format><dc:type rdf:resource="http://purl.org/dc/dcmitype/StillImage"/><dc:title/><dc:date>2021</dc:date><dc:creator><cc:Agent><dc:title>Timothée Giet</dc:title></cc:Agent></dc:creator><cc:license rdf:resource="http://creativecommons.org/licenses/by-sa/4.0/"/></cc:Work><cc:License rdf:about="http://creativecommons.org/licenses/by-sa/4.0/"><cc:permits rdf:resource="http://creativecommons.org/ns#Reproduction"/><cc:permits rdf:resource="http://creativecommons.org/ns#Distribution"/><cc:requires rdf:resource="http://creativecommons.org/ns#Notice"/><cc:requires rdf:resource="http://creativecommons.org/ns#Attribution"/><cc:permits rdf:resource="http://creativecommons.org/ns#DerivativeWorks"/><cc:requires rdf:resource="http://creativecommons.org/ns#ShareAlike"/></cc:License></rdf:RDF></metadata><g id="layer1" transform="rotate(-90 -504.181 526.181)"><path style="opacity:1;vector-effect:none;fill:#373737;fill-opacity:1;stroke:none;stroke-width:4;stroke-linecap:square;stroke-linejoin:round;stroke-miterlimit:4;stroke-dasharray:none;stroke-dashoffset:3.20000005;stroke-opacity:.55063291" d="M11 2a9 9 0 0 0-4.676 1.324l1.461 1.461A7 7 0 0 1 11 4a7 7 0 0 1 7 7 7 7 0 0 1-.787 3.213l1.465 1.465A9 9 0 0 0 20 11a9 9 0 0 0-9-9zM3.322 6.322A9 9 0 0 0 2 11a9 9 0 0 0 9 9 9 9 0 0 0 4.676-1.324l-1.461-1.461A7 7 0 0 1 11 18a7 7 0 0 1-7-7 7 7 0 0 1 .787-3.213z" transform="translate(0 1030.362)" id="path840"/><path style="fill:#373737;fill-opacity:1;stroke:none;stroke-width:1px;stroke-linecap:butt;stroke-linejoin:miter;stroke-opacity:1" d="m7 1034.362 3 3 1-1-3-3z" id="path850"/><path style="fill:#373737;fill-opacity:1;stroke:none;stroke-width:1px;stroke-linecap:butt;stroke-linejoin:miter;stroke-opacity:1" d="m11 1046.362 3 3 1-1-3-3z" id="path850-3"/></g></svg>