<?xml version="1.0" encoding="UTF-8"?>
<svg class="highlighter" width="16" height="16" fill="none" stroke="currentColor" stroke-linecap="round" stroke-linejoin="round" stroke-width="2" version="1.1" viewBox="0 0 16 16" xmlns="http://www.w3.org/2000/svg">
 <g transform="matrix(.089683 0 0 .090884 7.5726 7.5726)">
  <path d="m26.889-81.302-31.808 31.771a6.908 6.908 0 0 0-0.037438 0.0365c-7.846 8.0045-7.846 21.025 0 29.029a6.908 6.908 0 0 0 0.037438 0.0365l35.939 35.939a6.908 6.908 0 0 0 0.03744 0.0365c8.0045 7.846 21.025 7.846 29.029 0a6.908 6.908 0 0 0 0.03744-0.0365l31.806-31.771a6.9073 6.9073 0 0 0 0-9.7983 6.9073 6.9073 0 0 0-9.7983 0l-31.735 31.735c-2.7425 2.6882-6.9095 2.6882-9.652 0l-35.829-35.829c-2.6882-2.7425-2.6882-6.9096 0-9.652l31.735-31.735a6.9073 6.9073 0 0 0 0-9.7617 6.9073 6.9073 0 0 0-9.7617 0z" fill="#373737" stroke-width="0"/>
  <path d="m-1.3633-55.125h-76.201c-3.8024 0.01909-6.8745 3.1075-6.8734 6.91v134.07c0.01872 3.7882 3.0852 6.8545 6.8734 6.8734h134.07c3.8025 0.0011 6.8909-3.071 6.91-6.8734v-71.873l-3.2905 3.2905c-0.01222 0.01214-0.02433 0.02433-0.03744 0.0365-2.9728 2.9139-6.6504 4.7346-10.493 5.4841v49.79c-7e-3 3.5101-2.8506 6.3537-6.3607 6.3616h-108.37c-3.0521 0.0077-5.5283-2.4685-5.5207-5.5207v-108.59c9e-3 -3.3885 2.7537-6.1332 6.1422-6.1422h52.62c0.94644-2.9959 2.5713-5.8147 4.8991-8.1896 0.012242-0.01214 0.024335-0.02433 0.037438-0.0365z" fill="#373737" stroke-width="0" style="paint-order:markers fill stroke"/>
  <path d="m-2.7923-28.069-41.457 41.457v20.729h62.186l20.729-20.729" stroke="#373737" stroke-width="13.819"/>
 </g>
</svg>