<!--Created with Inkscape (http://www.inkscape.org/)--><svg xmlns:dc="http://purl.org/dc/elements/1.1/" xmlns:cc="http://creativecommons.org/ns#" xmlns:rdf="http://www.w3.org/1999/02/22-rdf-syntax-ns#" xmlns="http://www.w3.org/2000/svg" xmlns:sodipodi="http://sodipodi.sourceforge.net/DTD/sodipodi-0.dtd" xmlns:inkscape="http://www.inkscape.org/namespaces/inkscape" width="22" height="22" id="svg2" version="1.1" inkscape:version="0.92.1 r15371" viewBox="0 0 22 22" sodipodi:docname="dark_rotation-reset.svg"><sodipodi:namedview id="base" pagecolor="#ffffff" bordercolor="#666666" borderopacity="1.0" inkscape:pageopacity="0.0" inkscape:pageshadow="2" inkscape:zoom="16.3125" inkscape:cx="-18.258997" inkscape:cy="14.348416" inkscape:document-units="px" inkscape:current-layer="layer1" showgrid="true" units="px" borderlayer="true" inkscape:showpageshadow="false" inkscape:window-width="1884" inkscape:window-height="1051" inkscape:window-x="0" inkscape:window-y="0" inkscape:window-maximized="1"><sodipodi:guide position="2,20.000017" orientation="18,0" id="guide4066" inkscape:locked="false"/><sodipodi:guide position="2,2.0000174" orientation="0,18" id="guide4068" inkscape:locked="false"/><sodipodi:guide position="20,2.0000174" orientation="-18,0" id="guide4070" inkscape:locked="false"/><sodipodi:guide position="20,20.000017" orientation="0,-18" id="guide4072" inkscape:locked="false"/><sodipodi:guide position="3,19.000017" orientation="16,0" id="guide4074" inkscape:locked="false"/><sodipodi:guide position="3,3.0000174" orientation="0,16" id="guide4076" inkscape:locked="false"/><sodipodi:guide position="19,3.0000174" orientation="-16,0" id="guide4078" inkscape:locked="false"/><sodipodi:guide position="19,19.000017" orientation="0,-16" id="guide4080" inkscape:locked="false"/><inkscape:grid type="xygrid" id="grid4101"/><sodipodi:guide position="8,19.000017" orientation="0,-5" id="guide4124" inkscape:locked="false"/><sodipodi:guide position="11,3.0000174" orientation="0,4" id="guide4241" inkscape:locked="false"/></sodipodi:namedview><metadata id="metadata7"><rdf:RDF><cc:Work><dc:format>image/svg+xml</dc:format><dc:type rdf:resource="http://purl.org/dc/dcmitype/StillImage"/><dc:title/><dc:date>2015</dc:date><dc:creator><cc:Agent><dc:title>Timothée Giet</dc:title></cc:Agent></dc:creator><cc:license rdf:resource="http://creativecommons.org/licenses/by-sa/4.0/"/></cc:Work><cc:License rdf:about="http://creativecommons.org/licenses/by-sa/4.0/"><cc:permits rdf:resource="http://creativecommons.org/ns#Reproduction"/><cc:permits rdf:resource="http://creativecommons.org/ns#Distribution"/><cc:requires rdf:resource="http://creativecommons.org/ns#Notice"/><cc:requires rdf:resource="http://creativecommons.org/ns#Attribution"/><cc:permits rdf:resource="http://creativecommons.org/ns#DerivativeWorks"/><cc:requires rdf:resource="http://creativecommons.org/ns#ShareAlike"/></cc:License></rdf:RDF></metadata><g inkscape:label="Capa 1" inkscape:groupmode="layer" id="layer1" transform="translate(0 -1030.362)"><path style="color:#000;clip-rule:nonzero;display:inline;overflow:visible;visibility:visible;opacity:1;isolation:auto;mix-blend-mode:normal;color-interpolation:sRGB;color-interpolation-filters:linearRGB;solid-color:#000;solid-opacity:1;fill:#373737;fill-opacity:1;fill-rule:evenodd;stroke:none;stroke-width:1;stroke-linecap:square;stroke-linejoin:miter;stroke-miterlimit:4;stroke-dasharray:none;stroke-dashoffset:0;stroke-opacity:1;marker:none;color-rendering:auto;image-rendering:auto;shape-rendering:auto;text-rendering:auto;enable-background:accumulate" d="M11 3a8 8 0 0 0-7.273 4.693l.906.412A7 7 0 0 1 11 4a7 7 0 0 1 7 7 7 7 0 0 1-7 7 7 7 0 0 1-6.752-5.158l-.957.26A8 8 0 0 0 11 19a8 8 0 0 0 8-8 8 8 0 0 0-8-8z" transform="translate(0 1030.362)" id="path4508"/><path style="fill:#373737;fill-opacity:1;fill-rule:evenodd;stroke:none;stroke-width:1px;stroke-linecap:butt;stroke-linejoin:miter;stroke-opacity:1" d="m2.879 1039.484 1.414-7.071 5.657 5.656z" id="path4513" inkscape:connector-curvature="0" sodipodi:nodetypes="cccc"/><path style="color:#000;font-style:normal;font-variant:normal;font-weight:400;font-stretch:normal;font-size:medium;line-height:normal;font-family:sans-serif;font-variant-ligatures:normal;font-variant-position:normal;font-variant-caps:normal;font-variant-numeric:normal;font-variant-alternates:normal;font-feature-settings:normal;text-indent:0;text-align:start;text-decoration:none;text-decoration-line:none;text-decoration-style:solid;text-decoration-color:#000;letter-spacing:normal;word-spacing:normal;text-transform:none;writing-mode:lr-tb;direction:ltr;text-orientation:mixed;dominant-baseline:auto;baseline-shift:baseline;text-anchor:start;white-space:normal;shape-padding:0;clip-rule:nonzero;display:inline;overflow:visible;visibility:visible;opacity:1;isolation:auto;mix-blend-mode:normal;color-interpolation:sRGB;color-interpolation-filters:linearRGB;solid-color:#000;solid-opacity:1;vector-effect:none;fill:#373737;fill-opacity:1;fill-rule:evenodd;stroke:none;stroke-width:1;stroke-linecap:square;stroke-linejoin:miter;stroke-miterlimit:4;stroke-dasharray:none;stroke-dashoffset:0;stroke-opacity:1;marker:none;color-rendering:auto;image-rendering:auto;shape-rendering:auto;text-rendering:auto;enable-background:accumulate" d="M11 1039.861c-.755 0-1.403.461-1.83 1.102-.427.64-.67 1.48-.67 2.398 0 .919.243 1.76.67 2.4.427.641 1.075 1.1 1.83 1.1.755 0 1.403-.459 1.83-1.1.427-.64.67-1.481.67-2.4 0-.918-.243-1.758-.67-2.398-.427-.64-1.075-1.102-1.83-1.102zm0 1c.35 0 .701.211.998.657.297.445.502 1.105.502 1.843 0 .739-.205 1.4-.502 1.846-.297.445-.648.654-.998.654s-.701-.209-.998-.654c-.297-.445-.502-1.107-.502-1.846 0-.738.205-1.398.502-1.843.297-.446.648-.657.998-.657z" id="path4521" inkscape:connector-curvature="0"/><path style="color:#000;font-style:normal;font-variant:normal;font-weight:400;font-stretch:normal;font-size:medium;line-height:normal;font-family:sans-serif;font-variant-ligatures:normal;font-variant-position:normal;font-variant-caps:normal;font-variant-numeric:normal;font-variant-alternates:normal;font-feature-settings:normal;text-indent:0;text-align:start;text-decoration:none;text-decoration-line:none;text-decoration-style:solid;text-decoration-color:#000;letter-spacing:normal;word-spacing:normal;text-transform:none;writing-mode:lr-tb;direction:ltr;text-orientation:mixed;dominant-baseline:auto;baseline-shift:baseline;text-anchor:start;white-space:normal;shape-padding:0;clip-rule:nonzero;display:inline;overflow:visible;visibility:visible;opacity:1;isolation:auto;mix-blend-mode:normal;color-interpolation:sRGB;color-interpolation-filters:linearRGB;solid-color:#000;solid-opacity:1;vector-effect:none;fill:#373737;fill-opacity:1;fill-rule:evenodd;stroke:none;stroke-width:1;stroke-linecap:square;stroke-linejoin:miter;stroke-miterlimit:4;stroke-dasharray:none;stroke-dashoffset:0;stroke-opacity:1;marker:none;color-rendering:auto;image-rendering:auto;shape-rendering:auto;text-rendering:auto;enable-background:accumulate" d="M14 1037.861c-.823 0-1.5.678-1.5 1.5 0 .823.677 1.5 1.5 1.5s1.5-.677 1.5-1.5c0-.822-.677-1.5-1.5-1.5zm0 1c.282 0 .5.218.5.5 0 .282-.218.5-.5.5a.493.493 0 0 1-.5-.5c0-.282.218-.5.5-.5z" id="path4523" inkscape:connector-curvature="0"/></g></svg>