<?xml version="1.0" encoding="UTF-8" standalone="no"?>
<svg
   xmlns:dc="http://purl.org/dc/elements/1.1/"
   xmlns:cc="http://creativecommons.org/ns#"
   xmlns:rdf="http://www.w3.org/1999/02/22-rdf-syntax-ns#"
   xmlns:svg="http://www.w3.org/2000/svg"
   xmlns="http://www.w3.org/2000/svg"
   xmlns:xlink="http://www.w3.org/1999/xlink"
   width="32"
   height="32"
   viewBox="0 0 32 32"
   version="1.1"
   id="svg820">
  <defs
     id="defs814">
    <linearGradient
       xlink:href="#linearGradient4424"
       id="linearGradient4358"
       x1="401.57144"
       y1="535.79797"
       x2="401.57144"
       y2="520.79797"
       gradientUnits="userSpaceOnUse"
       gradientTransform="matrix(1.2500008,0,0,1.2000018,-484.71412,468.56127)" />
    <linearGradient
       id="linearGradient4424">
      <stop
         id="stop4426"
         offset="0"
         style="stop-color:#60a5e7;stop-opacity:0" />
      <stop
         id="stop4428"
         offset="1"
         style="stop-color:#a6f3fb;stop-opacity:0.25773194" />
    </linearGradient>
  </defs>
  <metadata
     id="metadata817">
    <rdf:RDF>
      <cc:Work
         rdf:about="">
        <dc:format>image/svg+xml</dc:format>
        <dc:type
           rdf:resource="http://purl.org/dc/dcmitype/StillImage" />
        <dc:title></dc:title>
        <dc:date>2021</dc:date>
        <dc:creator>
          <cc:Agent>
            <dc:title>Timothée Giet</dc:title>
          </cc:Agent>
        </dc:creator>
        <cc:license
           rdf:resource="http://creativecommons.org/licenses/by-sa/4.0/" />
      </cc:Work>
      <cc:License
         rdf:about="http://creativecommons.org/licenses/by-sa/4.0/">
        <cc:permits
           rdf:resource="http://creativecommons.org/ns#Reproduction" />
        <cc:permits
           rdf:resource="http://creativecommons.org/ns#Distribution" />
        <cc:requires
           rdf:resource="http://creativecommons.org/ns#Notice" />
        <cc:requires
           rdf:resource="http://creativecommons.org/ns#Attribution" />
        <cc:permits
           rdf:resource="http://creativecommons.org/ns#DerivativeWorks" />
        <cc:requires
           rdf:resource="http://creativecommons.org/ns#ShareAlike" />
      </cc:License>
    </rdf:RDF>
  </metadata>
  <g
     id="layer1"
     transform="translate(0.07190916,-1091.1917)">
    <path
       style="opacity:1;vector-effect:none;fill:#373737;fill-opacity:1;stroke:none;stroke-width:2;stroke-linecap:butt;stroke-linejoin:bevel;stroke-miterlimit:4;stroke-dasharray:none;stroke-dashoffset:3.20000005;stroke-opacity:1"
       d="m 17.19825,1099.5308 -1.649398,2.8569 a 7,6.9999533 30 0 0 -1.42125,-0.1868 l -0.853546,-3.1856 -3.863341,1.0352 0.852158,3.1802 a 7,6.9999533 30 0 0 -1.1393493,0.8758 l -2.8534662,-1.6475 -2.0000008,3.4641 2.856869,1.6495 a 7,6.9999533 30 0 0 -0.1868067,1.4212 l -3.185662,0.8536 1.0351984,3.8633 3.1802445,-0.8522 a 7,6.9999533 30 0 0 0.875804,1.1394 l -1.647457,2.8534 3.4641071,2 1.649398,-2.8568 a 7,6.9999533 30 0 0 1.42125,0.1866 l 0.853546,3.1857 3.863292,-1.0351 -0.852109,-3.1804 a 7,6.9999533 30 0 0 1.139349,-0.8757 l 2.853467,1.6474 2,-3.464 -2.856868,-1.6494 a 7,6.9999533 30 0 0 0.186806,-1.4212 l 3.18559,-0.8536 -1.035127,-3.8633 -3.180316,0.8522 a 7,6.9999533 30 0 0 -0.875732,-1.1394 l 1.647457,-2.8535 z m -1.267947,6.1962 a 4,4 0 0 1 1.464106,5.4641 4,4 0 0 1 -5.464108,1.4641 4,4 0 0 1 -1.464106,-5.4641 4,4 0 0 1 5.464108,-1.4641 z"
       id="rect2175-7" />
    <path
       style="opacity:1;vector-effect:none;fill:#373737;fill-opacity:1;stroke:none;stroke-width:2;stroke-linecap:butt;stroke-linejoin:bevel;stroke-miterlimit:4;stroke-dasharray:none;stroke-dashoffset:3.20000005;stroke-opacity:1"
       d="m 18.584942,1096.8673 0.979335,0.5655 a 4,4 0 0 0 1.051162,3.9176 l -0.56641,0.981 1.732034,1 0.565487,-0.9794 a 4,4 0 0 0 3.91794,-1.0497 l 0.981034,0.5664 1.000019,-1.7321 -0.979334,-0.5654 a 4,4 0 0 0 -1.051163,-3.9176 l 0.56641,-0.9811 -1.732034,-0.9999 -0.565486,0.9793 a 4,4 0 0 0 -3.91794,1.0498 l -0.981035,-0.5664 z m 3.098084,0.634 a 1.9999533,2 30 0 1 2.732032,-0.7321 1.9999533,2 30 0 1 0.732038,2.7321 1.9999533,2 30 0 1 -2.732055,0.732 1.9999533,2 30 0 1 -0.732015,-2.732 z"
       id="rect2261" />
  </g>
</svg>
