<svg xmlns:dc="http://purl.org/dc/elements/1.1/" xmlns:cc="http://creativecommons.org/ns#" xmlns:rdf="http://www.w3.org/1999/02/22-rdf-syntax-ns#" xmlns="http://www.w3.org/2000/svg" xmlns:sodipodi="http://sodipodi.sourceforge.net/DTD/sodipodi-0.dtd" xmlns:inkscape="http://www.inkscape.org/namespaces/inkscape" id="svg6190" height="16" width="16" version="1.1" sodipodi:docname="dark_ratio.svg" inkscape:version="0.92.4 (5da689c313, 2019-01-14)"><sodipodi:namedview pagecolor="#ffffff" bordercolor="#666666" borderopacity="1" objecttolerance="10" gridtolerance="10" guidetolerance="10" inkscape:pageopacity="0" inkscape:pageshadow="2" inkscape:window-width="1884" inkscape:window-height="1054" id="namedview10" showgrid="true" inkscape:zoom="41.7193" inkscape:cx="8" inkscape:cy="8" inkscape:window-x="0" inkscape:window-y="0" inkscape:window-maximized="1" inkscape:current-layer="text1158"><inkscape:grid type="xygrid" id="grid817"/></sodipodi:namedview><metadata id="metadata6196"><rdf:RDF><cc:Work><dc:format>image/svg+xml</dc:format><dc:type rdf:resource="http://purl.org/dc/dcmitype/StillImage"/><dc:title/><dc:date>2021</dc:date><dc:creator><cc:Agent><dc:title>Timothée Giet</dc:title></cc:Agent></dc:creator><cc:license rdf:resource="http://creativecommons.org/licenses/by-sa/4.0/"/></cc:Work><cc:License rdf:about="http://creativecommons.org/licenses/by-sa/4.0/"><cc:permits rdf:resource="http://creativecommons.org/ns#Reproduction"/><cc:permits rdf:resource="http://creativecommons.org/ns#Distribution"/><cc:requires rdf:resource="http://creativecommons.org/ns#Notice"/><cc:requires rdf:resource="http://creativecommons.org/ns#Attribution"/><cc:permits rdf:resource="http://creativecommons.org/ns#DerivativeWorks"/><cc:requires rdf:resource="http://creativecommons.org/ns#ShareAlike"/></cc:License></rdf:RDF></metadata><g id="layer1" transform="translate(6.025 -1038.1)"><g id="text1158" style="font-style:normal;font-variant:normal;font-weight:400;font-stretch:normal;font-size:18.77863503px;line-height:1.25;font-family:'Noto Color Emoji';-inkscape-font-specification:'Noto Color Emoji, Normal';font-variant-ligatures:normal;font-variant-caps:normal;font-variant-numeric:normal;font-feature-settings:normal;text-align:start;letter-spacing:0;word-spacing:0;writing-mode:lr-tb;text-anchor:start;fill:#d2d2d2;fill-opacity:1;stroke:none;stroke-width:1.00599837" transform="matrix(.8877 0 0 .86248 -.647 131.624)" aria-label="%"><path id="path1156" style="fill:#373737;fill-opacity:1;stroke-width:1.00599837" d="M6.333 1053.326h1.126l-7.885 13.913h-1.127z" inkscape:connector-curvature="0" sodipodi:nodetypes="ccccc"/><path id="path1528" d="M-1.553 1053.326a3.38 3.478 0 0 0-3.38 3.478 3.38 3.478 0 0 0 3.38 3.478 3.38 3.478 0 0 0 3.38-3.478 3.38 3.478 0 0 0-3.38-3.478zm0 1.159a2.253 2.319 0 0 1 2.253 2.319 2.253 2.319 0 0 1-2.253 2.319 2.253 2.319 0 0 1-2.253-2.32 2.253 2.319 0 0 1 2.253-2.318z" style="opacity:1;vector-effect:none;fill:#373737;fill-opacity:1;stroke:none;stroke-width:4.5714283;stroke-linecap:square;stroke-linejoin:round;stroke-miterlimit:4;stroke-dasharray:none;stroke-dashoffset:3.20000005;stroke-opacity:.55063291" inkscape:connector-curvature="0"/><path id="path1528-3" d="M7.46 1060.282a3.38 3.478 0 0 0-3.38 3.479 3.38 3.478 0 0 0 3.38 3.478 3.38 3.478 0 0 0 3.379-3.478 3.38 3.478 0 0 0-3.38-3.479zm0 1.16a2.253 2.319 0 0 1 2.252 2.319 2.253 2.319 0 0 1-2.253 2.319 2.253 2.319 0 0 1-2.253-2.32 2.253 2.319 0 0 1 2.253-2.318z" style="font-style:normal;font-variant:normal;font-weight:400;font-stretch:normal;font-size:18.77863503px;line-height:1.25;font-family:'Noto Color Emoji';-inkscape-font-specification:'Noto Color Emoji, Normal';font-variant-ligatures:normal;font-variant-caps:normal;font-variant-numeric:normal;font-feature-settings:normal;text-align:start;letter-spacing:0;word-spacing:0;writing-mode:lr-tb;text-anchor:start;opacity:1;vector-effect:none;fill:#373737;fill-opacity:1;stroke:none;stroke-width:4.5714283;stroke-linecap:square;stroke-linejoin:round;stroke-miterlimit:4;stroke-dasharray:none;stroke-dashoffset:3.20000005;stroke-opacity:.55063291" inkscape:connector-curvature="0"/></g></g></svg>