<svg width="16" height="16" viewBox="0 0 16 16" xmlns="http://www.w3.org/2000/svg"><g transform="matrix(1.1485 0 0 1.2471 -1.233 -1.917)" fill="#373737" stroke-width=".82858px"><rect x="1.0737" y="1.5368" width="13.931" height="12.83" fill-opacity=".25"/><path d="M1.074 1.537v12.83h13.93V1.538H1.075zm.835.836h2.41c-.28 1.934.04 3.95 1.045 5.678.803 1.428 1.797 2.841 1.932 4.49-.05.342.328 1.14-.312.99H1.908V2.374zm3.253 0h9.006v2.854L6.434 8.24c-.86-1.37-1.42-2.926-1.37-4.523.001-.45.035-.899.098-1.344zm9.006 3.753v7.406H8.173c.072-1.603-.46-3.177-1.312-4.56 2.435-.95 4.87-1.898 7.307-2.846z" color="#000" style="-inkscape-stroke:none"/></g></svg>