<?xml version="1.0" encoding="UTF-8" standalone="no"?>
<svg
   xmlns:dc="http://purl.org/dc/elements/1.1/"
   xmlns:cc="http://creativecommons.org/ns#"
   xmlns:rdf="http://www.w3.org/1999/02/22-rdf-syntax-ns#"
   xmlns:svg="http://www.w3.org/2000/svg"
   xmlns="http://www.w3.org/2000/svg"
   id="svg6190"
   height="22"
   width="22"
   version="1.1">
  <metadata
     id="metadata6196">
    <rdf:RDF>
      <cc:Work
         rdf:about="">
        <dc:format>image/svg+xml</dc:format>
        <dc:type
           rdf:resource="http://purl.org/dc/dcmitype/StillImage" />
        <dc:title></dc:title>
        <dc:date>2015</dc:date>
        <dc:creator>
          <cc:Agent>
            <dc:title>Timothée Giet</dc:title>
          </cc:Agent>
        </dc:creator>
        <cc:license
           rdf:resource="http://creativecommons.org/licenses/by-sa/4.0/" />
      </cc:Work>
      <cc:License
         rdf:about="http://creativecommons.org/licenses/by-sa/4.0/">
        <cc:permits
           rdf:resource="http://creativecommons.org/ns#Reproduction" />
        <cc:permits
           rdf:resource="http://creativecommons.org/ns#Distribution" />
        <cc:requires
           rdf:resource="http://creativecommons.org/ns#Notice" />
        <cc:requires
           rdf:resource="http://creativecommons.org/ns#Attribution" />
        <cc:permits
           rdf:resource="http://creativecommons.org/ns#DerivativeWorks" />
        <cc:requires
           rdf:resource="http://creativecommons.org/ns#ShareAlike" />
      </cc:License>
    </rdf:RDF>
  </metadata>
  <defs
     id="defs6194" />
  <g
     id="g6460">
    <path
       id="path6416"
       d="m 1,7 v 2 9 h 2 14 v -2 -2 h -1 v 1 h -1 v -1 h -1 v 2 H 4 V 9 H 5 V 7 H 3 Z M 2,8 H 3 V 9 H 2 Z m 0,2 h 1 v 1 H 2 Z m 0,2 h 1 v 1 H 2 Z m 0,2 h 1 v 1 H 2 Z m 0,2 h 1 v 1 H 2 Z m 12.96875,0 h 1 v 1 h -1 z"
       style="color:#000000;display:inline;overflow:visible;visibility:visible;fill:#373737;fill-opacity:1;fill-rule:nonzero;stroke:none;stroke-width:1;marker:none;enable-background:accumulate" />
    <path
       id="rect6143"
       d="m 5,3 v 2 9 H 7 21 V 12 5 3 H 19 7 Z M 6,4 H 7 V 5 H 6 Z m 12.96875,0 h 1 v 1 h -1 z M 8,5 h 10 v 7 H 8 Z M 6,6 H 7 V 7 H 6 Z m 12.96875,0 h 1 v 1 h -1 z M 6,8 H 7 V 9 H 6 Z m 12.96875,0 h 1 v 1 h -1 z M 6,10 h 1 v 1 H 6 Z m 12.96875,0 h 1 v 1 h -1 z M 6,12 h 1 v 1 H 6 Z m 12.96875,0 h 1 v 1 h -1 z"
       style="color:#000000;display:inline;overflow:visible;visibility:visible;fill:#373737;fill-opacity:1;fill-rule:nonzero;stroke:none;stroke-width:1;marker:none;enable-background:accumulate" />
  </g>
</svg>
