<svg xmlns:dc="http://purl.org/dc/elements/1.1/" xmlns:cc="http://creativecommons.org/ns#" xmlns:rdf="http://www.w3.org/1999/02/22-rdf-syntax-ns#" xmlns="http://www.w3.org/2000/svg" width="32" height="32" viewBox="0 0 32 32" version="1.1" id="svg820"><metadata id="metadata817"><rdf:RDF><cc:Work><dc:format>image/svg+xml</dc:format><dc:type rdf:resource="http://purl.org/dc/dcmitype/StillImage"/><dc:title/><dc:date>2021</dc:date><dc:creator><cc:Agent><dc:title>Timothée Giet</dc:title></cc:Agent></dc:creator><cc:license rdf:resource="http://creativecommons.org/licenses/by-sa/4.0/"/></cc:Work><cc:License rdf:about="http://creativecommons.org/licenses/by-sa/4.0/"><cc:permits rdf:resource="http://creativecommons.org/ns#Reproduction"/><cc:permits rdf:resource="http://creativecommons.org/ns#Distribution"/><cc:requires rdf:resource="http://creativecommons.org/ns#Notice"/><cc:requires rdf:resource="http://creativecommons.org/ns#Attribution"/><cc:permits rdf:resource="http://creativecommons.org/ns#DerivativeWorks"/><cc:requires rdf:resource="http://creativecommons.org/ns#ShareAlike"/></cc:License></rdf:RDF></metadata><path id="path1271" d="M16 0A16 16 0 0 0 0 16a16 16 0 0 0 16 16 16 16 0 0 0 16-16A16 16 0 0 0 16 0zm0 8a8 8 0 0 1 8 8 8 8 0 0 1-8 8 8 8 0 0 1-8-8 8 8 0 0 1 8-8z" style="fill:#373737;fill-opacity:.25098041;stroke:none;stroke-width:.5;stroke-linejoin:bevel;stroke-miterlimit:4;stroke-dasharray:none;stroke-dashoffset:0;stroke-opacity:1"/><path id="path820-1" d="M16 0A16 16 0 0 0 0 16a16 16 0 0 0 16 16 16 16 0 0 0 16-16A16 16 0 0 0 16 0zm0 1a3 3 0 0 1 3 3 3 3 0 0 1-3 3 3 3 0 0 1-3-3 3 3 0 0 1 3-3zm7.139 2.293a3 3 0 0 1 1.677.572 3 3 0 0 1 .664 4.19 3 3 0 0 1-4.189.664 3 3 0 0 1-.664-4.19 3 3 0 0 1 2.299-1.234 3 3 0 0 1 .213-.002zm-14.065.002a3 3 0 0 1 2.299 1.234 3 3 0 0 1-.664 4.19 3 3 0 0 1-4.19-.664 3 3 0 0 1 .665-4.19 3 3 0 0 1 1.89-.57zM16 9a7 7 0 0 1 7 7 7 7 0 0 1-7 7 7 7 0 0 1-7-7 7 7 0 0 1 7-7zm-11.371.293a3 3 0 0 1 .885.146 3 3 0 0 1 1.927 3.78 3 3 0 0 1-3.78 1.926 3 3 0 0 1-1.927-3.78A3 3 0 0 1 4.63 9.293zm22.742 0a3 3 0 0 1 2.895 2.072 3 3 0 0 1-1.926 3.78 3 3 0 0 1-3.781-1.926 3 3 0 0 1 1.927-3.78 3 3 0 0 1 .885-.146zM16 11a5 5 0 0 0-5 5 5 5 0 0 0 5 5 5 5 0 0 0 5-5 5 5 0 0 0-5-5zm0 .334 4 6.93h-8l4-6.93zM4.545 16.709a3 3 0 0 1 2.896 2.072 3 3 0 0 1-1.927 3.78 3 3 0 0 1-3.78-1.926 3 3 0 0 1 1.926-3.78 3 3 0 0 1 .885-.146zm22.91 0a3 3 0 0 1 .885.146 3 3 0 0 1 1.926 3.78 3 3 0 0 1-3.78 1.926 3 3 0 0 1-1.927-3.78 3 3 0 0 1 2.896-2.072zm-18.424 6a3 3 0 0 1 1.678.572 3 3 0 0 1 .664 4.19 3 3 0 0 1-4.19.664 3 3 0 0 1-.663-4.19 3 3 0 0 1 2.298-1.234 3 3 0 0 1 .213-.002zm14.15.002a3 3 0 0 1 2.3 1.234 3 3 0 0 1-.665 4.19 3 3 0 0 1-4.189-.664 3 3 0 0 1 .664-4.19 3 3 0 0 1 1.89-.57zM16 25a3 3 0 0 1 3 3 3 3 0 0 1-3 3 3 3 0 0 1-3-3 3 3 0 0 1 3-3z" style="fill:#373737;fill-opacity:1;stroke:none;stroke-width:.5;stroke-linejoin:bevel;stroke-miterlimit:4;stroke-dasharray:none;stroke-dashoffset:0;stroke-opacity:1"/></svg>