<?xml version="1.0" encoding="UTF-8"?>
<svg width="16" height="16" version="1.1" viewBox="0 0 16 16" xmlns="http://www.w3.org/2000/svg">
 <g transform="matrix(1.1485,0,0,1.2471,-1.2331,-1.9166)" fill="#373737" stroke-width=".82858px">
  <path d="m6.2976 4.7442-5.224 2.6405 0.74313 0.37587 1.4046 0.70945-2.1478 1.0853 2.1478 1.0853-2.1478 1.0853 5.224 2.6405 5.224-2.6405-2.1478-1.0853 2.1478-1.0853-2.1478-1.0853 2.1478-1.0853zm0 0.9381 3.3653 1.7024-1.2176 0.61548-2.1478 1.0853-2.1478-1.0853-1.2176-0.61548zm-2.1478 3.2575 2.1478 1.0853 2.1478-1.0853 1.2176 0.61548-1.2176 0.61548-2.1478 1.0869-2.1478-1.0869-1.2176-0.61548zm0 2.1706 2.1478 1.0853 2.1478-1.0853 1.2176 0.61548-3.3653 1.7024-3.3653-1.7024z" color="#000000" fill-opacity=".4" style="-inkscape-stroke:none"/>
  <path d="m7.8847 1.5368v1.9546a1.9955 1.8355 0 0 0-0.18367 0.072045l-1.505-1.3829-0.94047 0.86451 1.4983 1.3783a1.9955 1.8355 0 0 0-0.07993 0.17541h-2.1173v1.2232h2.1088a1.9955 1.8355 0 0 0 0.08163 0.18168l-1.4915 1.3719 0.94047 0.86451 1.4881-1.3688a1.9955 1.8355 0 0 0 0.20068 0.076743v1.9358h1.3316v-1.939a1.9955 1.8355 0 0 0 0.18877-0.070479l4.658 4.2851 0.94212-0.86451-4.6598-4.2851a1.9955 1.8355 0 0 0 0.08503-0.18795h2.1139v-1.2232h-2.1206a1.9955 1.8355 0 0 0-0.078221-0.17541l1.4983-1.3783-0.94047-0.86451-1.5017 1.3814a1.9955 1.8355 0 0 0-0.18537-0.070479v-1.9546z" stroke-width=".9062px" style="font-feature-settings:normal;font-variant-alternates:normal;font-variant-caps:normal;font-variant-ligatures:normal;font-variant-numeric:normal;font-variant-position:normal;isolation:auto;mix-blend-mode:normal;shape-padding:0;text-decoration-color:#000000;text-decoration-line:none;text-decoration-style:solid;text-indent:0;text-orientation:mixed;text-transform:none;white-space:normal"/>
 </g>
</svg>
