<?xml version="1.0" encoding="UTF-8" standalone="no"?>
<!-- Created with Inkscape (http://www.inkscape.org/) -->

<svg
   xmlns:dc="http://purl.org/dc/elements/1.1/"
   xmlns:cc="http://creativecommons.org/ns#"
   xmlns:rdf="http://www.w3.org/1999/02/22-rdf-syntax-ns#"
   xmlns:svg="http://www.w3.org/2000/svg"
   xmlns="http://www.w3.org/2000/svg"
   xmlns:xlink="http://www.w3.org/1999/xlink"
   version="1.1"
   width="22"
   height="22"
   id="svg5119">
  <metadata
     id="metadata5125">
    <rdf:RDF>
      <cc:Work
         rdf:about="">
        <dc:format>image/svg+xml</dc:format>
        <dc:type
           rdf:resource="http://purl.org/dc/dcmitype/StillImage" />
        <dc:title></dc:title>
      </cc:Work>
    </rdf:RDF>
  </metadata>
  <defs
     id="defs5123">
    <linearGradient
       x1="178.39517"
       y1="87.793045"
       x2="185.75043"
       y2="95.148293"
       id="linearGradient10539"
       xlink:href="#linearGradient6935"
       gradientUnits="userSpaceOnUse"
       gradientTransform="matrix(1.259156,0,0,1.259156,-7.4350029,33.683404)" />
    <linearGradient
       id="linearGradient6935">
      <stop
         id="stop6937"
         style="stop-color:#666666;stop-opacity:1"
         offset="0" />
      <stop
         id="stop6939"
         style="stop-color:#1a1a1a;stop-opacity:1"
         offset="1" />
    </linearGradient>
    <linearGradient
       x1="178.39517"
       y1="87.793045"
       x2="185.75043"
       y2="95.148293"
       id="linearGradient5162"
       xlink:href="#linearGradient6935"
       gradientUnits="userSpaceOnUse"
       gradientTransform="matrix(1.259156,0,0,1.259156,-7.4350029,33.683404)" />
  </defs>
  <g
     transform="translate(-212.2503,-137.093)"
     id="g5129"
     style="display:inline">
    <path
       d="m 214.31816,155.8371 -1.2097,0.1476 0.0686,0.6366 0.71812,-0.1273 z"
       id="path9892"
       style="fill:#ffffff;fill-opacity:1;stroke:none" />
    <path
       d="m 233.32355,144.6682 0.0686,0.6367 -0.77834,0.1594 -0.0209,-0.8764 z"
       id="path9894"
       style="fill:#ffffff;stroke:none" />
    <path
       d="m 222.71821,147.5528 0.0686,0.6367 -0.67761,0.2478 0.0295,-0.7771 z"
       id="path9896"
       style="fill:#ffffff;stroke:none" />
    <path
       d="m 214.53694,157.4047 0.0686,0.6367 0.42091,0.1248 -0.0101,-0.9246 z"
       id="path9898"
       style="fill:#ffffff;stroke:none" />
    <path
       d="m 224.83927,138.8547 0.0686,0.6367 1.28563,-0.017 -0.15993,-0.6956 z"
       id="path9900"
       style="fill:#ffffff;stroke:none" />
    <path
       d="m 226.29305,138.0269 -1.38519,1.4645 0.69259,0.71 -8.55907,5.3848 c 0.70573,0.7329 -1.02779,8.127 -3.86433,11.0351 l 0.6926,0.7101 8.91714,-9.1419 c -0.78472,-0.8348 -0.56051,-2.8434 0.34628,-3.4886 0.91547,-0.6514 2.02915,-0.8043 2.81369,0 0.78454,0.8043 0.78454,3.0836 0,3.888 -0.66199,0.6786 -1.6537,0.7772 -2.42408,0.3106 l -8.91716,9.1419 0.6926,0.7544 c 2.83652,-2.9079 9.9338,-4.3624 10.64864,-3.639 l 5.32431,-9.0975 0.73587,0.71 1.38519,-1.4644 z"
       id="path9902"
       style="fill:#ffffff;fill-opacity:1;stroke:none" />
    <path
       d="m 222.78679,148.1895 c -1.18172,-2.8603 2.56704,-4.5921 3.7479,-1.6101 0.12256,-1.6989 -1.06835,-2.8333 -2.60611,-3.2727 l -2.68161,2.9628 z"
       id="path9904"
       style="fill:#ffffff;stroke:none;display:inline" />
    <path
       d="m 226.22446,137.3902 -1.38519,1.4645 0.69259,0.71 -8.87386,5.5029 c 0.70573,0.7329 -0.713,8.009 -3.54954,10.9171 l 0.6926,0.71 8.91715,-9.1419 c -0.45511,-0.7898 -0.31568,-1.8066 0.34628,-2.4852 0.78455,-0.8044 2.02915,-0.8044 2.81369,0 0.78453,0.8043 0.78453,2.0803 0,2.8846 -0.66199,0.6786 -1.6537,0.7772 -2.42409,0.3106 l -8.91715,9.1419 0.6926,0.7545 c 2.83654,-2.9081 9.93379,-4.3626 10.64864,-3.639 l 5.3243,-9.0975 0.73588,0.71 1.38519,-1.4645 -7.09909,-7.278 z"
       id="path9906"
       style="fill:url(#linearGradient5162);fill-opacity:1;stroke:none" />
  </g>
</svg>
