<svg width="16" height="16" viewBox="0 0 16 16" xmlns="http://www.w3.org/2000/svg"><g fill="#373737" stroke-width=".82858px"><path d="m6.298 4.744-5.224 2.64.743.377 1.404.709-2.147 1.085 2.147 1.086-2.147 1.085 5.224 2.64 5.224-2.64-2.148-1.085 2.148-1.086L9.374 8.47l2.148-1.085zm0 .938 3.365 1.703L8.445 8 6.297 9.085 4.15 8l-1.218-.615zM4.15 8.94l2.148 1.085L8.445 8.94l1.218.615-1.218.616-2.147 1.087L4.15 10.17l-1.218-.616zm0 2.17 2.148 1.086 2.147-1.086 1.218.616-3.365 1.702-3.366-1.702z" color="#000" fill-opacity=".4" style="-inkscape-stroke:none" transform="matrix(1.1485 0 0 1.2471 -1.233 -1.917)"/><path d="M7.885 1.537V3.49a1.996 1.835 0 0 0-.184.072L6.196 2.181l-.94.864 1.498 1.378a1.996 1.835 0 0 0-.08.176H4.557v1.223h2.108a1.996 1.835 0 0 0 .082.182L5.256 7.376l.94.864 1.488-1.369a1.996 1.835 0 0 0 .2.077v1.936h1.332v-1.94a1.996 1.835 0 0 0 .19-.07l4.657 4.285.942-.864-4.66-4.285a1.996 1.835 0 0 0 .086-.188h2.113V4.599h-2.12a1.996 1.835 0 0 0-.078-.176l1.498-1.378-.94-.865-1.502 1.382a1.996 1.835 0 0 0-.186-.07V1.536z" style="font-feature-settings:normal;font-variant-alternates:normal;font-variant-caps:normal;font-variant-ligatures:normal;font-variant-numeric:normal;font-variant-position:normal;isolation:auto;mix-blend-mode:normal;shape-padding:0;text-decoration-color:#000;text-decoration-line:none;text-decoration-style:solid;text-indent:0;text-orientation:mixed;text-transform:none;white-space:normal" transform="matrix(1.1485 0 0 1.2471 -1.233 -1.917)"/></g></svg>