<svg xmlns:dc="http://purl.org/dc/elements/1.1/" xmlns:cc="http://creativecommons.org/ns#" xmlns:rdf="http://www.w3.org/1999/02/22-rdf-syntax-ns#" xmlns="http://www.w3.org/2000/svg" width="16" height="16" id="svg2" version="1.1"><metadata id="metadata7"><rdf:RDF><cc:Work><dc:format>image/svg+xml</dc:format><dc:type rdf:resource="http://purl.org/dc/dcmitype/StillImage"/><dc:title/><dc:date>2021</dc:date><dc:creator><cc:Agent><dc:title>Timothée Giet</dc:title></cc:Agent></dc:creator><cc:license rdf:resource="http://creativecommons.org/licenses/by-sa/4.0/"/></cc:Work><cc:License rdf:about="http://creativecommons.org/licenses/by-sa/4.0/"><cc:permits rdf:resource="http://creativecommons.org/ns#Reproduction"/><cc:permits rdf:resource="http://creativecommons.org/ns#Distribution"/><cc:requires rdf:resource="http://creativecommons.org/ns#Notice"/><cc:requires rdf:resource="http://creativecommons.org/ns#Attribution"/><cc:permits rdf:resource="http://creativecommons.org/ns#DerivativeWorks"/><cc:requires rdf:resource="http://creativecommons.org/ns#ShareAlike"/></cc:License></rdf:RDF></metadata><path id="path817" d="M8 1a7 7 0 0 0-7 7 7 7 0 0 0 7 7 7 7 0 0 0 7-7 7 7 0 0 0-7-7zm0 1a6 6 0 0 1 6 6 6 6 0 0 1-6 6 6 6 0 0 1-6-6 6 6 0 0 1 6-6z" style="opacity:1;vector-effect:none;fill:#373737;fill-opacity:1;stroke:none;stroke-width:4;stroke-linecap:square;stroke-linejoin:round;stroke-miterlimit:4;stroke-dasharray:none;stroke-dashoffset:3.20000005;stroke-opacity:.55063291"/><g transform="translate(.989 -.086)" id="text854" style="font-style:normal;font-variant:normal;font-weight:400;font-stretch:normal;font-size:10.66666698px;line-height:1.25;font-family:'Clear Sans Medium';-inkscape-font-specification:'Clear Sans Medium, ';letter-spacing:0;word-spacing:0;fill:#373737;fill-opacity:1;stroke:none" aria-label="?"><path style="fill:#373737;fill-opacity:1" id="path858" d="M6.458 9.703V8.208q.516-.229.891-.432.375-.208.62-.417.25-.213.364-.448.12-.234.12-.515 0-.443-.292-.703-.291-.266-.89-.266-.255 0-.459.052-.203.052-.364.151-.156.094-.281.235-.125.135-.23.307l-1.005-.62q.313-.552.875-.864.563-.318 1.453-.318.51 0 .959.114.448.11.776.35.333.234.526.598.193.36.193.86 0 .468-.172.828-.172.36-.464.646-.286.286-.667.515-.38.23-.791.438v.984zm1.334 1.406q0 .396-.177.547-.178.146-.568.146-.214 0-.354-.047-.14-.041-.23-.125-.083-.088-.12-.219-.036-.13-.036-.302 0-.37.167-.53.167-.162.573-.162.411 0 .578.166.167.162.167.526z"/></g></svg>