<?xml version="1.0" encoding="UTF-8" standalone="no"?>
<!-- Created with Inkscape (http://www.inkscape.org/) -->

<svg
   xmlns:dc="http://purl.org/dc/elements/1.1/"
   xmlns:cc="http://creativecommons.org/ns#"
   xmlns:rdf="http://www.w3.org/1999/02/22-rdf-syntax-ns#"
   xmlns:svg="http://www.w3.org/2000/svg"
   xmlns="http://www.w3.org/2000/svg"
   xmlns:xlink="http://www.w3.org/1999/xlink"
   version="1.1"
   width="22"
   height="22"
   id="svg6190">
  <metadata
     id="metadata6196">
    <rdf:RDF>
      <cc:Work
         rdf:about="">
        <dc:format>image/svg+xml</dc:format>
        <dc:type
           rdf:resource="http://purl.org/dc/dcmitype/StillImage" />
        <dc:title></dc:title>
      </cc:Work>
    </rdf:RDF>
  </metadata>
  <defs
     id="defs6194">
    <linearGradient
       x1="169.27542"
       y1="7.6329279"
       x2="169"
       y2="22.362183"
       id="linearGradient10736"
       xlink:href="#linearGradient6935"
       gradientUnits="userSpaceOnUse"
       gradientTransform="matrix(0.93513011,-0.93513011,0.93513011,0.93513011,48.841877,196.8352)" />
    <linearGradient
       id="linearGradient6935">
      <stop
         id="stop6937"
         style="stop-color:#666666;stop-opacity:1"
         offset="0" />
      <stop
         id="stop6939"
         style="stop-color:#1a1a1a;stop-opacity:1"
         offset="1" />
    </linearGradient>
    <linearGradient
       x1="169.27542"
       y1="7.6329279"
       x2="169"
       y2="22.362183"
       id="linearGradient8068"
       xlink:href="#linearGradient5536"
       gradientUnits="userSpaceOnUse" />
    <linearGradient
       id="linearGradient5536">
      <stop
         id="stop5538"
         style="stop-color:#e6e6e6;stop-opacity:1"
         offset="0" />
      <stop
         id="stop5540"
         style="stop-color:#aaaaaa;stop-opacity:1"
         offset="1" />
    </linearGradient>
    <linearGradient
       id="linearGradient6294">
      <stop
         id="stop6296"
         style="stop-color:#e6e6e6;stop-opacity:1"
         offset="0" />
      <stop
         id="stop6298"
         style="stop-color:#aaaaaa;stop-opacity:1"
         offset="1" />
    </linearGradient>
    <linearGradient
       id="linearGradient6301">
      <stop
         id="stop6303"
         style="stop-color:#e6e6e6;stop-opacity:1"
         offset="0" />
      <stop
         id="stop6305"
         style="stop-color:#aaaaaa;stop-opacity:1"
         offset="1" />
    </linearGradient>
    <linearGradient
       x1="169.27542"
       y1="7.6329279"
       x2="169"
       y2="22.362183"
       id="linearGradient6317"
       xlink:href="#linearGradient5536"
       gradientUnits="userSpaceOnUse" />
    <linearGradient
       id="linearGradient6935-0">
      <stop
         id="stop6937-2"
         style="stop-color:#666666;stop-opacity:1"
         offset="0" />
      <stop
         id="stop6939-9"
         style="stop-color:#1a1a1a;stop-opacity:1"
         offset="1" />
    </linearGradient>
    <linearGradient
       id="linearGradient6487">
      <stop
         id="stop6489"
         style="stop-color:#666666;stop-opacity:1"
         offset="0" />
      <stop
         id="stop6491"
         style="stop-color:#1a1a1a;stop-opacity:1"
         offset="1" />
    </linearGradient>
    <linearGradient
       x1="177.10535"
       y1="58.018219"
       x2="180.81274"
       y2="61.725616"
       id="linearGradient7711"
       xlink:href="#linearGradient5536-3"
       gradientUnits="userSpaceOnUse"
       gradientTransform="matrix(1.2865905,0,0,1.2865905,26.676037,32.001204)" />
    <linearGradient
       id="linearGradient5536-3">
      <stop
         id="stop5538-1"
         style="stop-color:#e6e6e6;stop-opacity:1"
         offset="0" />
      <stop
         id="stop5540-1"
         style="stop-color:#aaaaaa;stop-opacity:1"
         offset="1" />
    </linearGradient>
    <linearGradient
       x1="185.28304"
       y1="65.508415"
       x2="188.82698"
       y2="69.052368"
       id="linearGradient7703"
       xlink:href="#linearGradient5536-3"
       gradientUnits="userSpaceOnUse"
       gradientTransform="matrix(1.2865905,0,0,1.2865905,26.676037,32.001204)" />
    <linearGradient
       id="linearGradient6622">
      <stop
         id="stop6624"
         style="stop-color:#e6e6e6;stop-opacity:1"
         offset="0" />
      <stop
         id="stop6626"
         style="stop-color:#aaaaaa;stop-opacity:1"
         offset="1" />
    </linearGradient>
    <linearGradient
       x1="140.52614"
       y1="1255.219"
       x2="124.65959"
       y2="1255.219"
       id="linearGradient10387"
       xlink:href="#linearGradient8666"
       gradientUnits="userSpaceOnUse"
       gradientTransform="matrix(1.2061786,0,0,1.2061786,61.727197,-1332.3163)" />
    <linearGradient
       id="linearGradient8666">
      <stop
         id="stop8668"
         style="stop-color:#4d4d4d;stop-opacity:1"
         offset="0" />
      <stop
         id="stop8670"
         style="stop-color:#f2f2f2;stop-opacity:1"
         offset="1" />
    </linearGradient>
    <linearGradient
       x1="140.52614"
       y1="1255.219"
       x2="124.65959"
       y2="1255.219"
       id="linearGradient6773"
       xlink:href="#linearGradient8666"
       gradientUnits="userSpaceOnUse"
       gradientTransform="matrix(1.2061786,0,0,1.2061786,61.727197,-1332.3163)" />
  </defs>
  <g
     transform="translate(-210.54585,-170.8903)"
     id="g6748"
     style="display:inline">
    <path
       d="m 211.89642,172.2031 0,19.9397 19.29886,0 0,-19.2988 z"
       id="path10170"
       style="fill:#ffffff;fill-opacity:1;stroke:none;display:inline" />
    <path
       d="m 220.1512,173.9517 2.78929,0 0,1.8093 c 0.49802,0.1289 0.92325,0.3491 1.35695,0.6031 l 1.31926,-1.2816 2.88478,1.759 -1.28156,1.2816 c 0.24882,0.4249 0.47405,0.8702 0.60309,1.3569 l 1.77157,0 0.24124,3.9279 -1.77158,0 c -0.12764,0.4916 -0.31523,0.9296 -0.56539,1.357 l 1.24387,1.3193 -1.96004,1.96 -2.48524,-1.4423 c -0.43378,0.2509 -0.859,0.4762 -1.35695,0.6031 l 0,1.7715 -2.78929,0 0,-1.7715 c -0.49794,-0.1269 -0.92317,-0.3522 -1.35695,-0.6031 l -2.56564,1.2816 -1.96003,-1.9601 1.24386,-1.3193 c -0.25016,-0.4273 -0.43775,-0.8654 -0.56539,-1.3569 l -1.77157,0 0.0402,-4.0486 1.77157,0 c 0.12904,-0.4867 0.35426,-0.932 0.60309,-1.3569 l -1.28156,-1.2816 3.16622,-1.4776 1.31925,1.2816 c 0.43371,-0.254 0.85893,-0.4742 1.35695,-0.6031 z"
       id="path10172"
       style="fill:#1a1a1a;fill-opacity:1;stroke:none;display:inline" />
    <path
       d="m 221.54585,179.46 c -1.2887,0 -2.33697,1.104 -2.33697,2.3926 0,1.2886 1.04827,2.2992 2.33697,2.2992 1.28869,0 2.33697,-1.0106 2.33697,-2.2992 0,-1.2886 -1.04828,-2.3926 -2.33697,-2.3926 z"
       id="path10174"
       style="fill:#1a1a1a;fill-opacity:1;stroke:none;display:inline" />
    <path
       d="m 211.89642,171.6378 0,19.2989 19.29886,0 0,-19.2989 -19.29886,0 z m 8.25478,2.4877 2.78929,0 0,1.8093 c 0.49802,0.129 0.92325,0.3491 1.35695,0.6031 l 1.31926,-1.2816 1.96004,1.9601 -1.28156,1.2815 c 0.24882,0.425 0.47405,0.8703 0.60309,1.357 l 1.77157,0 0,2.8269 -1.77157,0 c -0.12764,0.4915 -0.31524,0.9296 -0.5654,1.357 l 1.24387,1.3193 -1.96004,1.96 -1.31926,-1.2815 c -0.43378,0.2508 -0.859,0.4762 -1.35695,0.603 l 0,1.7716 -2.78929,0 0,-1.7716 c -0.49794,-0.1268 -0.92317,-0.3522 -1.35695,-0.603 l -1.31925,1.2815 -1.96004,-1.96 1.24387,-1.3193 c -0.25016,-0.4274 -0.43776,-0.8655 -0.56539,-1.357 l -1.77158,0 0,-2.8269 1.77158,0 c 0.12903,-0.4867 0.35426,-0.932 0.60308,-1.357 l -1.28156,-1.2815 1.96004,-1.9601 1.31925,1.2816 c 0.43371,-0.254 0.85893,-0.4741 1.35695,-0.6031 l 0,-1.8093 z m 1.39465,4.8248 c -1.2887,0 -2.33697,1.0484 -2.33697,2.3369 0,1.2887 1.04827,2.2992 2.33697,2.2992 1.28869,0 2.33697,-1.0105 2.33697,-2.2992 0,-1.2885 -1.04828,-2.3369 -2.33697,-2.3369 z"
       id="path10176"
       style="fill:url(#linearGradient6773);fill-opacity:1;stroke:none;display:inline" />
  </g>
</svg>
