<?xml version="1.0" encoding="UTF-8" standalone="no"?>
<svg
   xmlns:dc="http://purl.org/dc/elements/1.1/"
   xmlns:cc="http://creativecommons.org/ns#"
   xmlns:rdf="http://www.w3.org/1999/02/22-rdf-syntax-ns#"
   xmlns:svg="http://www.w3.org/2000/svg"
   xmlns="http://www.w3.org/2000/svg"
   width="16"
   height="16"
   viewBox="0 0 16 16"
   id="svg2"
   version="1.1">
  <defs
     id="defs4" />
  <metadata
     id="metadata7">
    <rdf:RDF>
      <cc:Work
         rdf:about="">
        <dc:format>image/svg+xml</dc:format>
        <dc:type
           rdf:resource="http://purl.org/dc/dcmitype/StillImage" />
        <dc:title></dc:title>
        <dc:date>2021</dc:date>
        <dc:creator>
          <cc:Agent>
            <dc:title>Timothée Giet</dc:title>
          </cc:Agent>
        </dc:creator>
        <cc:license
           rdf:resource="http://creativecommons.org/licenses/by-sa/4.0/" />
      </cc:Work>
      <cc:License
         rdf:about="http://creativecommons.org/licenses/by-sa/4.0/">
        <cc:permits
           rdf:resource="http://creativecommons.org/ns#Reproduction" />
        <cc:permits
           rdf:resource="http://creativecommons.org/ns#Distribution" />
        <cc:requires
           rdf:resource="http://creativecommons.org/ns#Notice" />
        <cc:requires
           rdf:resource="http://creativecommons.org/ns#Attribution" />
        <cc:permits
           rdf:resource="http://creativecommons.org/ns#DerivativeWorks" />
        <cc:requires
           rdf:resource="http://creativecommons.org/ns#ShareAlike" />
      </cc:License>
    </rdf:RDF>
  </metadata>
  <circle
     style="opacity:1;vector-effect:none;fill:#373737;fill-opacity:0.5;stroke:none;stroke-width:4;stroke-linecap:square;stroke-linejoin:round;stroke-miterlimit:4;stroke-dasharray:none;stroke-dashoffset:3.20000005;stroke-opacity:1"
     id="path1057"
     cx="9"
     cy="8"
     r="6" />
  <path
     style="opacity:1;vector-effect:none;fill:#373737;fill-opacity:1;stroke:none;stroke-width:4;stroke-linecap:square;stroke-linejoin:round;stroke-miterlimit:4;stroke-dasharray:none;stroke-dashoffset:3.20000005;stroke-opacity:1"
     d="M 4.7792671,2.423851 A 7,7 0 0 0 2.5224144,5.3664301 L 4.3700666,6.1174388 A 5,5 0 0 1 5.9862695,4.0183468 Z M 6.2822564,1.558355 7.0576759,3.3975147 A 5,5 0 0 1 9.6848824,3.0534391 L 9.9577928,1.0691018 A 7,7 0 0 0 6.2822564,1.558355 Z M 2.0691019,7.0422072 A 7,7 0 0 0 2.558355,10.717744 L 4.3975148,9.9423241 A 5,5 0 0 1 4.053439,7.3151174 Z M 11.63357,1.5224144 10.882561,3.3700668 a 5,5 0 0 1 2.099092,1.6162027 L 14.576149,3.7792671 A 7,7 0 0 0 11.63357,1.5224144 Z M 5.0183468,11.013731 3.4238511,12.220733 a 7,7 0 0 0 2.9425792,2.256853 L 7.1174387,12.629933 A 5,5 0 0 1 5.0183468,11.013731 Z M 13.602485,6.057676 a 5,5 0 0 1 0.344076,2.6272065 l 1.984338,0.27291 A 7,7 0 0 0 15.441645,5.2822564 Z m -5.2873676,6.888885 -0.2729099,1.984338 a 7,7 0 0 0 3.6755365,-0.489254 l -0.77542,-1.83916 A 5,5 0 0 1 8.3151174,12.946561 Z M 13.629933,9.8825609 a 5,5 0 0 1 -1.616202,2.0990921 l 1.207002,1.594496 a 7,7 0 0 0 2.256853,-2.942579 z"
     id="path1012" />
</svg>
