<?xml version="1.0" encoding="UTF-8"?>
<svg width="16" height="16" version="1.1" viewBox="0 0 16 16" xmlns="http://www.w3.org/2000/svg">
 <g fill="#373737">
  <path d="m0 10v6h16v-6z" fill-opacity=".25"/>
  <path d="m0 10h16v-10h-16z" fill-opacity=".5"/>
  <path d="M0 0v16h16V0H0zm1 1h14v14H1V1z"/>
 </g>
 <path d="m4.5 0c-2.4794 0-4.5 2.0206-4.5 4.5s2.0206 4.5 4.5 4.5 4.5-2.0206 4.5-4.5-2.0206-4.5-4.5-4.5zm4.6875 0c1.1208 1.1673 1.8125 2.7499 1.8125 4.5 0 3.5958-2.9042 6.5-6.5 6.5-1.7501 0-3.3327-0.69171-4.5-1.8125v1.2988c1.2551 0.94574 2.8106 1.5137 4.5 1.5137 4.1362 0 7.5-3.3638 7.5-7.5 0-1.6894-0.56794-3.2449-1.5137-4.5h-1.2988zm3.6836 0c0.72032 1.3389 1.1289 2.871 1.1289 4.5 0 5.2526-4.2474 9.5-9.5 9.5-1.629 0-3.1611-0.40859-4.5-1.1289v1.1133c1.3647 0.64968 2.8896 1.0156 4.5 1.0156 5.793 0 10.5-4.707 10.5-10.5 0-1.6104-0.36594-3.1353-1.0156-4.5h-1.1133zm-8.3711 1c1.9389 0 3.5 1.5611 3.5 3.5s-1.5611 3.5-3.5 3.5-3.5-1.5611-3.5-3.5 1.5611-3.5 3.5-3.5zm0 2.5a1 1 0 0 0-1 1 1 1 0 0 0 1 1 1 1 0 0 0 1-1 1 1 0 0 0-1-1zm11.5 5.9062c-1.2629 2.96-3.6338 5.3309-6.5938 6.5938h2.1621c1.8007-1.11 3.3216-2.631 4.4316-4.4316v-2.1621z" fill="#373737"/>
</svg>
