<svg width="16" height="16" data-name="Layer 2" viewBox="0 0 16 16" xmlns="http://www.w3.org/2000/svg"><defs><style></style></defs><g fill="#373737" stroke-width="3.7795"><path d="m8 13-1.5 3h3z"/><path d="M14.5 13 13 16h3z"/><path d="M1.5 13 0 16h3z"/><path d="M0 12v1h16v-1z" color="#000" stroke-dashoffset="3.2" style="-inkscape-stroke:none"/></g><g fill="none" stroke="#373737" stroke-width=".99999px"><path d="M9.067 8.067 7.635 6.634"/><path d="M6.5 9V7"/><path d="M15 5.5H6.001"/><path d="m4.056 8.064 1.431-1.43"/><path d="M5 5.5H3.001"/><path d="M6.5 4V2"/><path d="m7.578 4.543 1.43-1.431"/><path d="M5.486 4.486 4.054 3.054"/><path d="M3 1.5h-.999"/><path d="M6.5 1V0"/><path d="M10.5 2V1"/><path d="M10.001 9.5H11"/><path d="M6.5 10v.999"/><path d="M2.5 9v1"/><path d="M2 5.5H1"/></g></svg>