<?xml version="1.0" encoding="UTF-8"?>
<svg width="16" height="16" version="1.1" viewBox="0 0 16 16" xmlns="http://www.w3.org/2000/svg">
 <g fill="#373737">
  <path d="m0 10v6h16v-6z" fill-opacity=".25"/>
  <path d="m0 10h16v-10h-16z" fill-opacity=".5"/>
  <path d="M0 0v16h16V0H0zm1 1h14v14H1V1z"/>
 </g>
 <path d="m4.5 0c-2.4794 0-4.5 2.0206-4.5 4.5s2.0206 4.5 4.5 4.5 4.5-2.0206 4.5-4.5-2.0206-4.5-4.5-4.5zm4.6875 0c1.1208 1.1673 1.8125 2.7499 1.8125 4.5 0 2.3228-1.2156 4.3508-3.043 5.5h1.625c1.4826-1.371 2.418-3.3257 2.418-5.5 0-1.6894-0.56794-3.2449-1.5137-4.5h-1.2988zm3.6836 0c0.72032 1.3389 1.1289 2.871 1.1289 4.5 0 2.0513-0.64948 3.9484-1.752 5.5h1.1934c0.98764-1.6004 1.5586-3.4838 1.5586-5.5 0-1.6104-0.36594-3.1353-1.0156-4.5h-1.1133zm-8.3711 1c1.9389 0 3.5 1.5611 3.5 3.5s-1.5611 3.5-3.5 3.5-3.5-1.5611-3.5-3.5 1.5611-3.5 3.5-3.5zm0 2.5a1 1 0 0 0-1 1 1 1 0 0 0 1 1 1 1 0 0 0 1-1 1 1 0 0 0-1-1zm-4.5 5.6875v0.8125h1.043c-0.37532-0.23603-0.72474-0.50697-1.043-0.8125zm16 0.21875c-0.085514 0.20043-0.17597 0.39888-0.27148 0.59375h0.27148v-0.59375z" fill="#373737"/>
</svg>
