<svg xmlns:dc="http://purl.org/dc/elements/1.1/" xmlns:cc="http://creativecommons.org/ns#" xmlns:rdf="http://www.w3.org/1999/02/22-rdf-syntax-ns#" xmlns="http://www.w3.org/2000/svg" xmlns:xlink="http://www.w3.org/1999/xlink" version="1.1" id="svg2" viewBox="0 0 16 16" height="16" width="16"><defs id="defs4"><linearGradient gradientUnits="userSpaceOnUse" y2="1049.3622" x2="6" y1="1043.3622" x1="6" id="linearGradient5761" xlink:href="#linearGradient5755" gradientTransform="translate(6 -2)"/><linearGradient id="linearGradient5755"><stop id="stop5757" offset="0" style="stop-color:#d2d2d2;stop-opacity:1"/><stop id="stop5759" offset="1" style="stop-color:#d2d2d2;stop-opacity:0"/></linearGradient></defs><metadata id="metadata7"><rdf:RDF><cc:Work><dc:format>image/svg+xml</dc:format><dc:type rdf:resource="http://purl.org/dc/dcmitype/StillImage"/><dc:title/><dc:date>2021</dc:date><dc:creator><cc:Agent><dc:title>Timothée Giet</dc:title></cc:Agent></dc:creator><cc:license rdf:resource="http://creativecommons.org/licenses/by-sa/4.0/"/></cc:Work><cc:License rdf:about="http://creativecommons.org/licenses/by-sa/4.0/"><cc:permits rdf:resource="http://creativecommons.org/ns#Reproduction"/><cc:permits rdf:resource="http://creativecommons.org/ns#Distribution"/><cc:requires rdf:resource="http://creativecommons.org/ns#Notice"/><cc:requires rdf:resource="http://creativecommons.org/ns#Attribution"/><cc:permits rdf:resource="http://creativecommons.org/ns#DerivativeWorks"/><cc:requires rdf:resource="http://creativecommons.org/ns#ShareAlike"/></cc:License></rdf:RDF></metadata><g transform="translate(0 -1036.362)" id="layer1"><path id="path838" d="m5 1044.362-5-5v10z" style="fill:#373737;fill-opacity:1;stroke:none;stroke-width:1px;stroke-linecap:butt;stroke-linejoin:miter;stroke-opacity:1"/><path id="path5625" d="M14.432 1040.726a5 5 0 0 0-6.431-.363 5 5 0 0 0-.53.47l.689.688a4.021 4.021 0 0 1 .428-.375 4.021 4.021 0 0 1 5.173.292 4.021 4.021 0 0 1 .455.51 4.021 4.021 0 0 1 .661 3.462l.77.771a5 5 0 0 0-.648-4.823 5 5 0 0 0-.567-.632zm-.59 6.477a4.021 4.021 0 0 1-.423.373l-.01.01a4.021 4.021 0 0 1-5.628-.81 4.021 4.021 0 0 1-.657-3.459l-.77-.77a5 5 0 0 0 .644 4.815 5 5 0 0 0 6.997 1.008l.012-.01a5 5 0 0 0 .525-.464l-.69-.69z" style="color:#000;clip-rule:nonzero;display:inline;overflow:visible;visibility:visible;opacity:1;isolation:auto;mix-blend-mode:normal;color-interpolation:sRGB;color-interpolation-filters:linearRGB;solid-color:#000;solid-opacity:1;fill:#373737;fill-opacity:1;fill-rule:nonzero;stroke:none;stroke-width:0;stroke-linecap:butt;stroke-linejoin:miter;stroke-miterlimit:4;stroke-dasharray:none;stroke-dashoffset:0;stroke-opacity:1;marker:none;color-rendering:auto;image-rendering:auto;shape-rendering:auto;text-rendering:auto;enable-background:accumulate"/><path id="path5655" d="M8.88 1040.827H7.464l2.121 2.121.707-.707z" style="fill:#373737;fill-opacity:1;fill-rule:evenodd;stroke:none;stroke-width:1px;stroke-linecap:butt;stroke-linejoin:miter;stroke-opacity:1"/><path id="path5668" d="m12.415 1045.776-.708.707 1.415 1.415h1.414z" style="fill:#373737;fill-opacity:1;fill-rule:evenodd;stroke:none;stroke-width:1px;stroke-linecap:butt;stroke-linejoin:miter;stroke-opacity:1"/></g></svg>