<?xml version="1.0" encoding="UTF-8" standalone="no"?>
<svg
   xmlns:dc="http://purl.org/dc/elements/1.1/"
   xmlns:cc="http://creativecommons.org/ns#"
   xmlns:rdf="http://www.w3.org/1999/02/22-rdf-syntax-ns#"
   xmlns:svg="http://www.w3.org/2000/svg"
   xmlns="http://www.w3.org/2000/svg"
   id="svg6190"
   height="22"
   width="22"
   version="1.1">
  <metadata
     id="metadata6196">
    <rdf:RDF>
      <cc:Work
         rdf:about="">
        <dc:format>image/svg+xml</dc:format>
        <dc:type
           rdf:resource="http://purl.org/dc/dcmitype/StillImage" />
        <dc:title></dc:title>
        <dc:date>2015</dc:date>
        <dc:creator>
          <cc:Agent>
            <dc:title>Timothée Giet</dc:title>
          </cc:Agent>
        </dc:creator>
        <cc:license
           rdf:resource="http://creativecommons.org/licenses/by-sa/4.0/" />
      </cc:Work>
      <cc:License
         rdf:about="http://creativecommons.org/licenses/by-sa/4.0/">
        <cc:permits
           rdf:resource="http://creativecommons.org/ns#Reproduction" />
        <cc:permits
           rdf:resource="http://creativecommons.org/ns#Distribution" />
        <cc:requires
           rdf:resource="http://creativecommons.org/ns#Notice" />
        <cc:requires
           rdf:resource="http://creativecommons.org/ns#Attribution" />
        <cc:permits
           rdf:resource="http://creativecommons.org/ns#DerivativeWorks" />
        <cc:requires
           rdf:resource="http://creativecommons.org/ns#ShareAlike" />
      </cc:License>
    </rdf:RDF>
  </metadata>
  <defs
     id="defs6194" />
  <g
     transform="translate(0,-1)"
     id="g6344">
    <path
       id="path6348"
       transform="translate(0,1)"
       d="M 2,4 V 6 17 H 4 20 V 15 6 4 H 18 4 Z M 3,5 H 4 V 6 H 3 Z m 14.96875,0 h 1 v 1 h -1 z M 5,6 h 12 v 9 H 5 Z M 3,7 H 4 V 8 H 3 Z m 14.96875,0 h 1 v 1 h -1 z M 3,9 h 1 v 1 H 3 Z m 14.96875,0 h 1 v 1 h -1 z M 3,11 h 1 v 1 H 3 Z m 14.96875,0 h 1 v 1 h -1 z M 3,13 h 1 v 1 H 3 Z m 14.96875,0 h 1 v 1 h -1 z M 3,15 h 1 v 1 H 3 Z m 14.96875,0 h 1 v 1 h -1 z"
       style="color:#000000;display:inline;overflow:visible;visibility:visible;fill:#373737;fill-opacity:1;fill-rule:nonzero;stroke:none;stroke-width:1;marker:none;enable-background:accumulate" />
  </g>
</svg>
