<?xml version="1.0" encoding="UTF-8" standalone="no"?>
<svg
   xmlns:dc="http://purl.org/dc/elements/1.1/"
   xmlns:cc="http://creativecommons.org/ns#"
   xmlns:rdf="http://www.w3.org/1999/02/22-rdf-syntax-ns#"
   xmlns:svg="http://www.w3.org/2000/svg"
   xmlns="http://www.w3.org/2000/svg"
   id="svg16"
   viewBox="0 0 16 16"
   version="1.1"
   height="16"
   width="16">
  <metadata
     id="metadata22">
    <rdf:RDF>
      <cc:Work
         rdf:about="">
        <dc:format>image/svg+xml</dc:format>
        <dc:type
           rdf:resource="http://purl.org/dc/dcmitype/StillImage" />
        <dc:title></dc:title>
        <dc:date>2021</dc:date>
        <dc:creator>
          <cc:Agent>
            <dc:title>Timothée Giet</dc:title>
          </cc:Agent>
        </dc:creator>
        <cc:license
           rdf:resource="http://creativecommons.org/licenses/by-sa/4.0/" />
      </cc:Work>
      <cc:License
         rdf:about="http://creativecommons.org/licenses/by-sa/4.0/">
        <cc:permits
           rdf:resource="http://creativecommons.org/ns#Reproduction" />
        <cc:permits
           rdf:resource="http://creativecommons.org/ns#Distribution" />
        <cc:requires
           rdf:resource="http://creativecommons.org/ns#Notice" />
        <cc:requires
           rdf:resource="http://creativecommons.org/ns#Attribution" />
        <cc:permits
           rdf:resource="http://creativecommons.org/ns#DerivativeWorks" />
        <cc:requires
           rdf:resource="http://creativecommons.org/ns#ShareAlike" />
      </cc:License>
    </rdf:RDF>
  </metadata>
  <defs
     id="defs20" />
  <path
     id="path892"
     d="M 4.5,10 A 2.5,2.5 0 0 0 2,12.5 2.5,2.5 0 0 0 4.5,15 2.5,2.5 0 0 0 7,12.5 2.5,2.5 0 0 0 4.5,10 Z m 0,1 A 1.5,1.5 0 0 1 6,12.5 1.5,1.5 0 0 1 4.5,14 1.5,1.5 0 0 1 3,12.5 1.5,1.5 0 0 1 4.5,11 Z"
     style="fill:#373737;fill-opacity:1;stroke:none;stroke-width:0.5;stroke-linejoin:bevel;stroke-miterlimit:4;stroke-dasharray:none;stroke-dashoffset:0;stroke-opacity:1" />
  <path
     id="path897"
     d="M 12 1 L 5 11 L 6 11 L 6 12 L 12 3 L 12 1 z M 8 7.5 A 0.5 0.5 0 0 1 8.5 8 A 0.5 0.5 0 0 1 8 8.5 A 0.5 0.5 0 0 1 7.5 8 A 0.5 0.5 0 0 1 8 7.5 z "
     style="fill:#373737;fill-opacity:1;stroke:none;stroke-width:1px;stroke-linecap:butt;stroke-linejoin:miter;stroke-opacity:1" />
  <path
     id="path892-6"
     d="M 11.5,10 A 2.5,2.5 0 0 1 14,12.5 2.5,2.5 0 0 1 11.5,15 2.5,2.5 0 0 1 9,12.5 2.5,2.5 0 0 1 11.5,10 Z m 0,1 A 1.5,1.5 0 0 0 10,12.5 1.5,1.5 0 0 0 11.5,14 1.5,1.5 0 0 0 13,12.5 1.5,1.5 0 0 0 11.5,11 Z"
     style="fill:#373737;fill-opacity:1;stroke:none;stroke-width:0.5;stroke-linejoin:bevel;stroke-miterlimit:4;stroke-dasharray:none;stroke-dashoffset:0;stroke-opacity:1" />
  <path
     id="path897-7"
     d="M 4 1 L 4 3 L 10 12 L 10 11 L 11 11 L 4 1 z M 8 7.5 A 0.5 0.5 0 0 1 8.5 8 A 0.5 0.5 0 0 1 8 8.5 A 0.5 0.5 0 0 1 7.5 8 A 0.5 0.5 0 0 1 8 7.5 z "
     style="fill:#373737;fill-opacity:1;stroke:none;stroke-width:1px;stroke-linecap:butt;stroke-linejoin:miter;stroke-opacity:1" />
  <path
     id="rect936"
     d="m 0,5 h 4 l -7e-7,1 H 0 Z"
     style="fill:#373737;fill-opacity:1;stroke:none;stroke-width:0.5;stroke-linejoin:bevel;stroke-miterlimit:4;stroke-dasharray:none;stroke-dashoffset:0;stroke-opacity:1" />
  <path
     id="rect936-3"
     d="m 12,5 h 4 l -10e-7,1 H 12 Z"
     style="fill:#373737;fill-opacity:1;stroke:none;stroke-width:0.5;stroke-linejoin:bevel;stroke-miterlimit:4;stroke-dasharray:none;stroke-dashoffset:0;stroke-opacity:1" />
</svg>
