<svg width="22" height="22" viewBox="0 0 22 22" fill="none" xmlns="http://www.w3.org/2000/svg" xmlns:dc="http://purl.org/dc/elements/1.1/" xmlns:cc="http://creativecommons.org/ns#" xmlns:rdf="http://www.w3.org/1999/02/22-rdf-syntax-ns#"><metadata id="metadata7"><rdf:RDF><cc:Work><dc:format>image/svg+xml</dc:format><dc:type rdf:resource="http://purl.org/dc/dcmitype/StillImage"/><dc:date>2026</dc:date><dc:creator><cc:Agent><dc:title>Timothée Giet and superfurryfrog</dc:title></cc:Agent></dc:creator><cc:license rdf:resource="http://creativecommons.org/licenses/by-sa/4.0/"/></cc:Work><cc:License rdf:about="http://creativecommons.org/licenses/by-sa/4.0/"><cc:permits rdf:resource="http://creativecommons.org/ns#Reproduction"/><cc:permits rdf:resource="http://creativecommons.org/ns#Distribution"/><cc:requires rdf:resource="http://creativecommons.org/ns#Notice"/><cc:requires rdf:resource="http://creativecommons.org/ns#Attribution"/><cc:permits rdf:resource="http://creativecommons.org/ns#DerivativeWorks"/><cc:requires rdf:resource="http://creativecommons.org/ns#ShareAlike"/></cc:License></rdf:RDF></metadata><path fill-rule="evenodd" clip-rule="evenodd" d="M20 17V4H2v13h18zm-4-2V6H6v9h10zm3-1h-2v2h2v-2zm0-3h-2v2h2v-2zm0-3h-2v2h2V8zm0-3h-2v2h2V5zM3 14h2v2H3v-2zm0-3h2v2H3v-2zm0-3h2v2H3V8zm0-3h2v2H3V5z" fill="#373737"/></svg>