<svg width="16" height="16" viewBox="0 0 16 16" fill="none" version="1.1" id="svg5" xmlns="http://www.w3.org/2000/svg" xmlns:rdf="http://www.w3.org/1999/02/22-rdf-syntax-ns#" xmlns:cc="http://creativecommons.org/ns#" xmlns:dc="http://purl.org/dc/elements/1.1/"><metadata id="metadata7"><rdf:RDF><cc:Work><dc:format>image/svg+xml</dc:format><dc:type rdf:resource="http://purl.org/dc/dcmitype/StillImage"/><dc:date>2026</dc:date><dc:creator><cc:Agent><dc:title>Timothée Giet and superfurryfrog</dc:title></cc:Agent></dc:creator><cc:license rdf:resource="http://creativecommons.org/licenses/by-sa/4.0/"/></cc:Work><cc:License rdf:about="http://creativecommons.org/licenses/by-sa/4.0/"><cc:permits rdf:resource="http://creativecommons.org/ns#Reproduction"/><cc:permits rdf:resource="http://creativecommons.org/ns#Distribution"/><cc:requires rdf:resource="http://creativecommons.org/ns#Notice"/><cc:requires rdf:resource="http://creativecommons.org/ns#Attribution"/><cc:permits rdf:resource="http://creativecommons.org/ns#DerivativeWorks"/><cc:requires rdf:resource="http://creativecommons.org/ns#ShareAlike"/></cc:License></rdf:RDF></metadata><path id="path4" style="baseline-shift:baseline;display:inline;overflow:visible;opacity:1;vector-effect:none;fill:#373737;enable-background:accumulate;stop-color:#000;stop-opacity:1" d="M0 0v3h1V1h2V0zm15 13v2h-2v1h3v-3z"/><path id="path1" style="fill:#373737" d="M10 0 4 3l6 3 6-3-6-3zm4 5-4 2v.686c.217.326.401.674.55 1.039L16 6l-2-1zm0 3-3.17 1.584a6 6 0 0 1 .149 1.926L16 9l-2-1z"/><path d="M10 11c-.629 2.058-2.498 4-4.998 4S.629 13.058 0 11c1.25 1.929 2.77 2.752 5 2.714 2.142-.036 3.75-.785 5-2.714zM5 6c2.5 0 5 1.816 5 5-.42-1.43-1.362-2.226-2.508-2.648.003.049.008.098.008.148a2.5 2.5 0 1 1-4.986-.264C1.304 8.633.338 9.46 0 11c0-3.184 2.5-5 5-5z" fill="#373737" id="path2-9"/></svg>