<?xml version="1.0" encoding="UTF-8"?>
<svg width="16" height="16" version="1.1" viewBox="0 0 16 16" xmlns="http://www.w3.org/2000/svg">
 <g transform="matrix(1.1485,0,0,1.2471,-1.2331,-1.9166)" fill="#373737" stroke-width=".82858px">
  <path d="m8.0401 10.471-5.1021-2.5184 2.085-1.0291-0.93217-0.46015-3.0171 1.4893 6.9665 3.4371 6.9648-3.4371-3.0171-1.4893-0.93046 0.46015 2.085 1.0291z" color="#000000" style="-inkscape-stroke:none"/>
  <path d="m8.0401 13.448-5.1021-2.5184 2.085-1.0291-0.93217-0.46015-3.0171 1.4893 6.9665 3.4371 6.9648-3.4371-3.0171-1.4893-0.93046 0.46015 2.085 1.0291z" color="#000000" fill="#373737" fill-opacity=".4" style="-inkscape-stroke:none"/>
  <path d="m8.0401 1.5368-6.9665 3.4371 6.9665 3.4371 6.9648-3.4371zm0 0.91874 5.1021 2.5184-5.1021 2.5184-5.1021-2.5184z" color="#000000" fill="#373737" fill-opacity=".4" style="-inkscape-stroke:none"/>
 </g>
</svg>
