<?xml version="1.0" encoding="UTF-8" standalone="no"?>
<!-- Created with Inkscape (http://www.inkscape.org/) -->

<svg
   xmlns:dc="http://purl.org/dc/elements/1.1/"
   xmlns:cc="http://creativecommons.org/ns#"
   xmlns:rdf="http://www.w3.org/1999/02/22-rdf-syntax-ns#"
   xmlns:svg="http://www.w3.org/2000/svg"
   xmlns="http://www.w3.org/2000/svg"
   xmlns:sodipodi="http://sodipodi.sourceforge.net/DTD/sodipodi-0.dtd"
   xmlns:inkscape="http://www.inkscape.org/namespaces/inkscape"
   width="22"
   height="22"
   id="svg3771"
   version="1.1"
   inkscape:version="0.48.4 r9939"
   sodipodi:docname="deletelayer.svg"
   inkscape:export-filename="../deletelayer.png"
   inkscape:export-xdpi="90"
   inkscape:export-ydpi="90">
  <defs
     id="defs3773" />
  <sodipodi:namedview
     id="base"
     pagecolor="#ffffff"
     bordercolor="#666666"
     borderopacity="1.0"
     inkscape:pageopacity="0"
     inkscape:pageshadow="2"
     inkscape:zoom="26.881134"
     inkscape:cx="9.6861177"
     inkscape:cy="9.9373143"
     inkscape:current-layer="layer1"
     showgrid="true"
     inkscape:grid-bbox="true"
     inkscape:document-units="px"
     inkscape:window-width="1407"
     inkscape:window-height="970"
     inkscape:window-x="1872"
     inkscape:window-y="157"
     inkscape:window-maximized="0">
    <inkscape:grid
       type="xygrid"
       id="grid3779"
       empspacing="5"
       visible="true"
       enabled="true"
       snapvisiblegridlinesonly="true" />
  </sodipodi:namedview>
  <metadata
     id="metadata3776">
    <rdf:RDF>
      <cc:Work
         rdf:about="">
        <dc:format>image/svg+xml</dc:format>
        <dc:type
           rdf:resource="http://purl.org/dc/dcmitype/StillImage" />
        <dc:title />
      </cc:Work>
    </rdf:RDF>
  </metadata>
  <g
     id="layer1"
     inkscape:label="shape"
     inkscape:groupmode="layer"
     transform="translate(0,-10)"
     style="display:inline">
    <path
       sodipodi:type="inkscape:offset"
       inkscape:radius="-0.007375563"
       inkscape:original="M 14.25 15.75 L 10.4375 19.53125 L 6.71875 15.8125 L 4.78125 17.71875 L 8.5 21.46875 L 4.71875 25.21875 L 6.71875 27.21875 L 10.46875 23.4375 L 14.25 27.21875 L 16.1875 25.3125 L 12.40625 21.53125 L 16.21875 17.75 L 14.25 15.75 z "
       style="fill:#000000;fill-opacity:0.74635572;stroke:#ffffff;stroke-width:0.24446593;stroke-miterlimit:4;stroke-opacity:0.9037901;stroke-dasharray:none;filter:url(#filter3796)"
       id="path3758"
       d="m 14.25,15.75 -3.8125,3.78125 -3.71875,-3.71875 -1.9375,1.90625 3.71875,3.75 -3.78125,3.75 2,2 3.75,-3.78125 3.78125,3.78125 1.9375,-1.90625 -3.78125,-3.78125 3.8125,-3.78125 -1.96875,-2 z"
       transform="matrix(1.021247,0,0,1.0240297,-18.873401,-1.51327)" />
    <path
       style="font-size:medium;font-style:normal;font-variant:normal;font-weight:normal;font-stretch:normal;text-indent:0;text-align:start;text-decoration:none;line-height:normal;letter-spacing:normal;word-spacing:normal;text-transform:none;direction:ltr;block-progression:tb;writing-mode:lr-tb;text-anchor:start;baseline-shift:baseline;color:#000000;fill:#000000;fill-opacity:0.74509804;stroke:#ffffff;stroke-width:0.25;stroke-linejoin:round;stroke-miterlimit:4;stroke-opacity:0.84313725;marker:none;visibility:visible;display:inline;overflow:visible;enable-background:accumulate;font-family:Sans;-inkscape-font-specification:Sans"
       d="M 9.59375 1.0625 C 9.03975 1.0625 8.59375 1.5085 8.59375 2.0625 C 8.59375 2.2577013 8.6540439 2.4401505 8.75 2.59375 L 3.90625 2.59375 C 3.2432269 2.59375 2.71875 2.7773863 2.71875 3 L 2.71875 4.6875 C 2.71875 4.8953385 3.1809906 5.0439522 3.78125 5.0625 C 3.5075346 5.623563 3.366949 6.261777 3.375 6.90625 L 3.5 16.71875 C 3.525609 18.76871 4.8450305 20.46875 6.5625 20.46875 L 14.4375 20.46875 C 16.154971 20.46875 17.512026 18.770548 17.53125 16.71875 L 17.625 6.90625 C 17.631313 6.2324587 17.452734 5.6135522 17.1875 5.0625 C 17.819219 5.052809 18.3125 4.9027261 18.3125 4.6875 L 18.3125 3 C 18.3125 2.7773863 17.788023 2.59375 17.125 2.59375 L 12.4375 2.59375 C 12.530082 2.4420419 12.59375 2.2539559 12.59375 2.0625 C 12.59375 1.5085 12.14775 1.0625 11.59375 1.0625 L 9.59375 1.0625 z M 6.53125 6.09375 L 15 6.09375 C 15.332343 6.09375 15.690477 6.476264 15.6875 6.96875 L 15.625 17.34375 C 15.622 17.836137 15.296091 18.21875 14.96875 18.21875 L 6.59375 18.21875 C 6.0452079 18.21875 5.5043575 17.836602 5.5 17.34375 L 5.40625 6.96875 C 5.4019 6.476389 5.974321 6.09375 6.53125 6.09375 z "
       transform="translate(0,10)"
       id="path3807" />
    <rect
       style="color:#000000;fill:#000000;fill-opacity:0.74509804;fill-rule:nonzero;stroke:#ffffff;stroke-width:0.25;stroke-linecap:butt;stroke-linejoin:round;stroke-miterlimit:4;stroke-opacity:0.84313725;stroke-dasharray:none;stroke-dashoffset:0;marker:none;visibility:visible;display:inline;overflow:visible;enable-background:accumulate"
       id="rect3778"
       width="1.9722923"
       height="9.2687273"
       x="6.5702524"
       y="17.683062"
       ry="1"
       rx="0.99999994" />
    <rect
       rx="0.99999994"
       style="color:#000000;fill:#000000;fill-opacity:0.74509804;fill-rule:nonzero;stroke:#ffffff;stroke-width:0.25;stroke-linecap:butt;stroke-linejoin:round;stroke-miterlimit:4;stroke-opacity:0.84313725;stroke-dasharray:none;stroke-dashoffset:0;marker:none;visibility:visible;display:inline;overflow:visible;enable-background:accumulate"
       id="rect3778-8"
       width="1.9722923"
       height="9.2687273"
       x="12.585451"
       y="17.516829"
       ry="1" />
    <rect
       ry="1"
       y="17.573088"
       x="9.591917"
       height="9.2687273"
       width="1.9722923"
       id="rect3846"
       style="color:#000000;fill:#000000;fill-opacity:0.74509804;fill-rule:nonzero;stroke:#ffffff;stroke-width:0.25;stroke-linecap:butt;stroke-linejoin:round;stroke-miterlimit:4;stroke-opacity:0.84313725;stroke-dasharray:none;stroke-dashoffset:0;marker:none;visibility:visible;display:inline;overflow:visible;enable-background:accumulate"
       rx="0.99999988" />
    <path
       style="font-size:medium;font-style:normal;font-variant:normal;font-weight:normal;font-stretch:normal;text-indent:0;text-align:start;text-decoration:none;line-height:normal;letter-spacing:normal;word-spacing:normal;text-transform:none;direction:ltr;block-progression:tb;writing-mode:lr-tb;text-anchor:start;baseline-shift:baseline;color:#000000;fill:#000000;fill-opacity:0.74509804;stroke:#ffffff;stroke-width:0.25;stroke-linejoin:round;stroke-miterlimit:4;stroke-opacity:0.84313725;marker:none;visibility:visible;display:inline;overflow:visible;enable-background:accumulate;font-family:Sans;-inkscape-font-specification:Sans"
       d="m -12.993697,29.947825 c -1.74373,0 -3.143714,1.845034 -3.11981,3.758562 l 0.122626,9.816049 c 0.02561,2.04996 1.355355,3.758562 3.072824,3.758562 l 7.859341,0 c 1.717471,0 3.083147,-1.706764 3.102371,-3.758562 l 0.09197,-9.816049 c 0.01923,-2.052336 -1.406076,-3.758562 -3.149807,-3.758562 z m 0.04001,2.955762 8.486354,0 c 0.332343,0 0.672951,0.358034 0.669974,0.85052 l -0.06286,10.399542 c -0.003,0.492387 -0.332543,0.850521 -0.659884,0.850521 l -8.358548,0 c -0.548542,0 -1.101453,-0.357669 -1.105811,-0.850521 l -0.09194,-10.399542 c -0.0044,-0.492361 0.565789,-0.85052 1.122718,-0.85052 z"
       id="path3807-6"
       inkscape:connector-curvature="0"
       sodipodi:nodetypes="ssssssssssssssssss" />
    <path
       inkscape:connector-curvature="0"
       style="color:#000000;fill:#000000;fill-opacity:0.74509804;fill-rule:nonzero;stroke:#ffffff;stroke-width:0.24999997;stroke-linecap:butt;stroke-linejoin:round;stroke-miterlimit:4;stroke-opacity:0.84313725;stroke-dasharray:none;stroke-dashoffset:0;marker:none;visibility:visible;display:inline;overflow:visible;enable-background:accumulate"
       d="m -9.8888059,27.862176 c -0.5540001,0 -1.0000001,0.446 -1.0000001,1 0,0.195201 0.06029,0.377651 0.15625,0.53125 l -4.84375,0 c -0.663023,0 -1.1875,0.183636 -1.1875,0.40625 l 0,1.6875 c 0,0.222614 0.524477,0.375 1.1875,0.375 l 13.21875,0 c 0.663023,0 1.1875,-0.152386 1.1875,-0.375 l 0,-1.6875 c 0,-0.222614 -0.524477,-0.40625 -1.1875,-0.40625 l -4.6875,0 c 0.09258,-0.151708 0.15625,-0.339794 0.15625,-0.53125 0,-0.554 -0.446,-1 -1,-1 l -1.9999999,0 z"
       id="rect3774-7" />
  </g>
</svg>
