<?xml version="1.0" encoding="UTF-8"?>
<svg width="32" height="32" version="1.1" viewBox="0 0 32 32" xmlns="http://www.w3.org/2000/svg">
 <g display="none" fill="#f2f2f2">
  <rect y="-6e-7" width="4" height="32" display="inline"/>
  <rect x="14" y="-9.5367e-7" width="4" height="32" display="inline"/>
  <rect x="28" y="-9.5367e-7" width="4" height="32" display="inline"/>
  <rect transform="rotate(-90)" x="-32" y="1.7684e-7" width="4" height="32" display="inline"/>
  <rect transform="rotate(-90)" x="-18" y="-1.7684e-7" width="4" height="32" display="inline"/>
  <rect transform="rotate(-90)" x="-4" y="-1.7684e-7" width="4" height="32" display="inline"/>
 </g>
 <path d="m19 16a3 3 0 0 1-3 3 3 3 0 0 1-3-3 3 3 0 0 1 3-3 3 3 0 0 1 3 3zm0 13a3 3 0 0 1-3 3 3 3 0 0 1-3-3 3 3 0 0 1 3-3 3 3 0 0 1 3 3zm0-26a3 3 0 0 1-3 3 3 3 0 0 1-3-3 3 3 0 0 1 3-3 3 3 0 0 1 3 3z" fill="#f2f2f2"/>
</svg>
