<?xml version="1.0" encoding="UTF-8" standalone="no"?>
<svg
   xmlns:dc="http://purl.org/dc/elements/1.1/"
   xmlns:cc="http://creativecommons.org/ns#"
   xmlns:rdf="http://www.w3.org/1999/02/22-rdf-syntax-ns#"
   xmlns:svg="http://www.w3.org/2000/svg"
   xmlns="http://www.w3.org/2000/svg"
   width="22"
   height="22"
   id="svg4183"
   version="1.1">
  <defs
     id="defs4185" />
  <metadata
     id="metadata4188">
    <rdf:RDF>
      <cc:Work
         rdf:about="">
        <dc:format>image/svg+xml</dc:format>
        <dc:type
           rdf:resource="http://purl.org/dc/dcmitype/StillImage" />
        <dc:title></dc:title>
        <dc:date>2021</dc:date>
        <dc:creator>
          <cc:Agent>
            <dc:title>Timothée Giet</dc:title>
          </cc:Agent>
        </dc:creator>
        <cc:license
           rdf:resource="http://creativecommons.org/licenses/by-sa/4.0/" />
      </cc:Work>
      <cc:License
         rdf:about="http://creativecommons.org/licenses/by-sa/4.0/">
        <cc:permits
           rdf:resource="http://creativecommons.org/ns#Reproduction" />
        <cc:permits
           rdf:resource="http://creativecommons.org/ns#Distribution" />
        <cc:requires
           rdf:resource="http://creativecommons.org/ns#Notice" />
        <cc:requires
           rdf:resource="http://creativecommons.org/ns#Attribution" />
        <cc:permits
           rdf:resource="http://creativecommons.org/ns#DerivativeWorks" />
        <cc:requires
           rdf:resource="http://creativecommons.org/ns#ShareAlike" />
      </cc:License>
    </rdf:RDF>
  </metadata>
  <g
     id="layer1"
     transform="rotate(-90,-504.1811,526.1811)">
    <path
       style="opacity:1;vector-effect:none;fill:#d2d2d2;fill-opacity:1;stroke:none;stroke-width:4;stroke-linecap:square;stroke-linejoin:round;stroke-miterlimit:4;stroke-dasharray:none;stroke-dashoffset:3.20000005;stroke-opacity:0.55063291"
       d="M 11,2 A 9,8.9999914 0 0 0 6.3242188,3.3242188 L 7.7851562,4.7851562 A 7,7 0 0 1 11,4 a 7,7 0 0 1 7,7 7,7 0 0 1 -0.787109,3.212891 l 1.464843,1.464843 A 9,8.9999914 0 0 0 20,11 9,8.9999914 0 0 0 11,2 Z M 3.3222656,6.3222656 A 9,8.9999914 0 0 0 2,11 a 9,8.9999914 0 0 0 9,9 9,8.9999914 0 0 0 4.675781,-1.324219 L 14.214844,17.214844 A 7,7 0 0 1 11,18 7,7 0 0 1 4,11 7,7 0 0 1 4.7871094,7.7871094 Z"
       transform="translate(0,1030.3622)"
       id="path840" />
    <path
       style="fill:#d2d2d2;fill-opacity:1;stroke:none;stroke-width:1px;stroke-linecap:butt;stroke-linejoin:miter;stroke-opacity:1"
       d="m 7.0001,1034.3622 2.9999,2.9999 1,-0.9999 -3,-3 z"
       id="path850" />
    <path
       style="fill:#d2d2d2;fill-opacity:1;stroke:none;stroke-width:1px;stroke-linecap:butt;stroke-linejoin:miter;stroke-opacity:1"
       d="m 11.0001,1046.3622 2.9999,2.9999 1,-0.9999 -3,-3 z"
       id="path850-3" />
  </g>
</svg>
