<?xml version="1.0" encoding="UTF-8" standalone="no"?>
<!-- Created with Inkscape (http://www.inkscape.org/) -->

<svg
   xmlns:dc="http://purl.org/dc/elements/1.1/"
   xmlns:cc="http://creativecommons.org/ns#"
   xmlns:rdf="http://www.w3.org/1999/02/22-rdf-syntax-ns#"
   xmlns:svg="http://www.w3.org/2000/svg"
   xmlns="http://www.w3.org/2000/svg"
   xmlns:sodipodi="http://sodipodi.sourceforge.net/DTD/sodipodi-0.dtd"
   xmlns:inkscape="http://www.inkscape.org/namespaces/inkscape"
   version="1.1"
   width="16"
   height="16"
   id="svg3071"
   inkscape:version="0.91 r13725"
   sodipodi:docname="light_docker_lock_b.svg"
   inkscape:export-filename="/home/timo/Téléchargements/icons/dark_docker_lock_icons_b.png"
   inkscape:export-xdpi="89"
   inkscape:export-ydpi="89">
  <sodipodi:namedview
     pagecolor="#ffffff"
     bordercolor="#666666"
     borderopacity="1"
     objecttolerance="10"
     gridtolerance="10"
     guidetolerance="10"
     inkscape:pageopacity="0"
     inkscape:pageshadow="2"
     inkscape:window-width="1880"
     inkscape:window-height="1060"
     id="namedview23"
     showgrid="false"
     inkscape:zoom="23.568333"
     inkscape:cx="0.19877135"
     inkscape:cy="6.8312002"
     inkscape:window-x="-3"
     inkscape:window-y="-3"
     inkscape:window-maximized="1"
     inkscape:current-layer="svg3071" />
  <metadata
     id="metadata3077">
    <rdf:RDF>
      <cc:Work
         rdf:about="">
        <dc:format>image/svg+xml</dc:format>
        <dc:type
           rdf:resource="http://purl.org/dc/dcmitype/StillImage" />
        <dc:title />
      </cc:Work>
    </rdf:RDF>
  </metadata>
  <defs
     id="defs3075" />
  <g
     transform="matrix(0.24227062,0,0,0.24227062,-197.44864,-48.979043)"
     id="g5357">
    <path
       d="m 1099.9697,233.25606 a 32.884708,31.931528 0 1 1 -65.7694,0 32.884708,31.931528 0 1 1 65.7694,0 z"
       transform="matrix(0.91227812,0,0,0.93951031,-125.46529,16.041114)"
       id="path5359"
       style="color:#000000;fill:#000000;fill-opacity:0;fill-rule:nonzero;stroke:#cacaca;stroke-width:6.4809227;stroke-miterlimit:4;stroke-dasharray:none;marker:none;visibility:visible;display:inline;overflow:visible;enable-background:accumulate;stroke-opacity:1"
       inkscape:connector-curvature="0" />
    <g
       transform="translate(0.28948514,0.70769159)"
       id="g5361">
      <path
         d="m 848.0625,214.5625 c -3.61431,0.0873 -6.73195,1.30715 -8.6875,3.71875 -1.95555,2.4116 -2.63149,5.64093 -2.53125,9.3125 l 5,-0.15625 c -0.0814,-2.97982 0.50523,-4.88885 1.40625,-6 0.90102,-1.11115 2.27247,-1.81065 4.9375,-1.875 2.08995,-0.0505 3.40404,0.57429 4.375,1.75 0.97096,1.17571 1.6153,3.16269 1.46875,6.09375 -0.0819,1.63726 0.0352,4.55403 0.0937,7.40625 0.0294,1.42611 0.0363,2.8028 0.0312,3.875 -0.003,0.68231 -0.0501,1.32735 -0.0625,1.625 l -16.6875,0 c -1.49359,0 -2.71875,1.66508 -2.71875,3.71875 l 0,8.09375 c 0,2.05368 1.22516,3.6875 2.71875,3.6875 l 21.21875,0 c 1.49358,0 2.6875,-1.63382 2.6875,-3.6875 l 0,-8.09375 c 0,-1.81105 -0.91101,-3.32717 -2.15625,-3.65625 0.0281,-0.50733 -0.003,-0.97859 0,-1.65625 0.005,-1.16095 -0.002,-2.56119 -0.0312,-4 -0.0592,-2.87762 -0.14657,-6.00712 -0.0937,-7.0625 0.19045,-3.80894 -0.64682,-7.13592 -2.625,-9.53125 -1.97818,-2.39533 -5.04327,-3.64219 -8.34375,-3.5625 z"
         transform="translate(-0.28948514,-0.70769159)"
         id="path5363"
         style="color:#000000;fill:#cacaca;fill-opacity:1;fill-rule:nonzero;stroke:none;stroke-width:5;marker:none;visibility:visible;display:inline;overflow:visible;enable-background:accumulate"
         inkscape:connector-curvature="0" />
    </g>
  </g>
</svg>
