<svg xmlns:dc="http://purl.org/dc/elements/1.1/" xmlns:cc="http://creativecommons.org/ns#" xmlns:rdf="http://www.w3.org/1999/02/22-rdf-syntax-ns#" xmlns="http://www.w3.org/2000/svg" xmlns:sodipodi="http://sodipodi.sourceforge.net/DTD/sodipodi-0.dtd" xmlns:inkscape="http://www.inkscape.org/namespaces/inkscape" version="1.1" width="22" height="22" id="svg6190" inkscape:version="1.0 (6e3e5246a0, 2020-05-07)" sodipodi:docname="light_python.svg" inkscape:export-filename="../light_animation_play.png" inkscape:export-xdpi="90" inkscape:export-ydpi="90"><sodipodi:namedview pagecolor="#ffffff" bordercolor="#666666" borderopacity="1" objecttolerance="10" gridtolerance="10" guidetolerance="10" inkscape:pageopacity="0" inkscape:pageshadow="2" inkscape:window-width="2275" inkscape:window-height="1644" id="namedview4440" showgrid="true" inkscape:zoom="60.68262" inkscape:cx="14.741948" inkscape:cy="11.084622" inkscape:window-x="1178" inkscape:window-y="101" inkscape:window-maximized="0" inkscape:current-layer="svg6190" inkscape:snap-bbox="true" inkscape:snap-bbox-edge-midpoints="true" inkscape:document-rotation="0"><inkscape:grid type="xygrid" id="grid3250"/></sodipodi:namedview><metadata id="metadata6196"><rdf:RDF><cc:Work><dc:format>image/svg+xml</dc:format><dc:type rdf:resource="http://purl.org/dc/dcmitype/StillImage"/><dc:title/><dc:date>2015</dc:date><dc:creator><cc:Agent><dc:title>Timothée Giet</dc:title></cc:Agent></dc:creator><cc:license rdf:resource="http://creativecommons.org/licenses/by-sa/4.0/"/></cc:Work><cc:License rdf:about="http://creativecommons.org/licenses/by-sa/4.0/"><cc:permits rdf:resource="http://creativecommons.org/ns#Reproduction"/><cc:permits rdf:resource="http://creativecommons.org/ns#Distribution"/><cc:requires rdf:resource="http://creativecommons.org/ns#Notice"/><cc:requires rdf:resource="http://creativecommons.org/ns#Attribution"/><cc:permits rdf:resource="http://creativecommons.org/ns#DerivativeWorks"/><cc:requires rdf:resource="http://creativecommons.org/ns#ShareAlike"/></cc:License></rdf:RDF></metadata><path sodipodi:nodetypes="sscccssscsssssccscssssssscccssscsssccccssscsscss" d="M10.986 1.693c-2.642 0-4.769 1.064-4.769 2.385v1.88l4.775.019-.02.485h-7.14c-1.32 0-2.383 2.127-2.383 4.77C1.449 13.872 2.512 16 3.833 16H5.74c0-1.202.074-2.112.25-2.815.176-.703.462-1.207.883-1.544.842-.674 2.086-.648 3.875-.648 2.026 0 3.295-.027 4-.55.353-.26.599-.648.765-1.284.166-.637.242-1.514.242-2.697h.477c0 1.203-.074 2.113-.258 2.817-.184.705-.49 1.213-.941 1.547-.905.67-2.259.644-4.285.644-1.789 0-2.929.025-3.577.543-.324.26-.56.65-.719 1.288-.16.638-.235 1.517-.235 2.699v2.384c0 1.321 2.127 2.385 4.77 2.385 2.641 0 4.768-1.064 4.768-2.385v-1.899L11 16.486V16h7.14c1.32 0 2.384-2.127 2.384-4.769 0-2.642-1.064-4.769-2.385-4.769h-2.384V4.078c0-1.321-2.127-2.384-4.769-2.384zm-2.63 1.503h.007a.882.882 0 1 1-.006 0zm5.247 14.306h.006a.882.882 0 1 1-.006 0z" style="fill:#d2d2d2;fill-opacity:1;stroke-width:.476881" id="rect12"/></svg>