<?xml version="1.0" encoding="UTF-8"?>
<svg width="16" height="16" version="1.1" viewBox="0 0 16 16" xmlns="http://www.w3.org/2000/svg">
 <g fill="#d2d2d2">
  <path d="m-7.04e-5 -5.672e-5v16h7.6305c0.15545-1.9989-0.27801-4.0243-1.218-5.7942-0.93867-1.809-2.0471-3.5898-2.3756-5.6374-0.27236-1.5081-0.21601-3.0571 0.0019537-4.5683-1.3463-3.3672e-6 -2.6927-6.6096e-6 -4.0389-9.9768e-6z" fill-opacity=".74902" stroke-width=".82856px"/>
  <path d="m15.999 4.746c-3.3938 1.4434-6.7876 2.8867-10.182 4.3301 0.91588 1.6207 1.6986 3.3786 1.8062 5.2618 0.041158 0.55294 0.0428 1.1087 0.00619 1.6619h8.3687c1.37e-4 -3.7513 2.69e-4 -7.5026 4.01e-4 -11.254z" fill-opacity=".25098" stroke-width=".82856px"/>
  <path d="m4.0389-5.672e-5c-0.34752 2.2836-0.25161 4.6898 0.66821 6.836 0.31776 0.77156 0.71139 1.5086 1.111 2.2402 3.3938-1.4434 6.7876-2.8867 10.182-4.3301v-4.7461c-3.9869 1.3344e-5 -7.9738 2.6688e-5 -11.96 4.0032e-5z" fill-opacity=".50196" stroke-width=".99163px"/>
  <path d="m0 0v16h16v-16h-16zm1 1h14v14h-14v-14z" stroke-linecap="square"/>
 </g>
</svg>
