<?xml version="1.0" encoding="UTF-8" standalone="no"?>
<!-- Created with Inkscape (http://www.inkscape.org/) -->

<svg
   xmlns:dc="http://purl.org/dc/elements/1.1/"
   xmlns:cc="http://creativecommons.org/ns#"
   xmlns:rdf="http://www.w3.org/1999/02/22-rdf-syntax-ns#"
   xmlns:svg="http://www.w3.org/2000/svg"
   xmlns="http://www.w3.org/2000/svg"
   xmlns:sodipodi="http://sodipodi.sourceforge.net/DTD/sodipodi-0.dtd"
   xmlns:inkscape="http://www.inkscape.org/namespaces/inkscape"
   version="1.1"
   width="22"
   height="22"
   id="svg6190"
   inkscape:version="0.92.1 r15371"
   sodipodi:docname="light_addduplicateframe.svg"
   inkscape:export-filename="../light_addduplicateframe.png"
   inkscape:export-xdpi="90"
   inkscape:export-ydpi="90">
  <sodipodi:namedview
     pagecolor="#ffffff"
     bordercolor="#666666"
     borderopacity="1"
     objecttolerance="10"
     gridtolerance="10"
     guidetolerance="10"
     inkscape:pageopacity="0"
     inkscape:pageshadow="2"
     inkscape:window-width="1884"
     inkscape:window-height="1051"
     id="namedview4440"
     showgrid="true"
     inkscape:zoom="21.454545"
     inkscape:cx="-5.3498138"
     inkscape:cy="13.103048"
     inkscape:window-x="0"
     inkscape:window-y="0"
     inkscape:window-maximized="1"
     inkscape:current-layer="g6460"
     inkscape:snap-bbox="true">
    <inkscape:grid
       type="xygrid"
       id="grid3250" />
  </sodipodi:namedview>
  <metadata
     id="metadata6196">
    <rdf:RDF>
      <cc:Work
         rdf:about="">
        <dc:format>image/svg+xml</dc:format>
        <dc:type
           rdf:resource="http://purl.org/dc/dcmitype/StillImage" />
        <dc:title></dc:title>
        <dc:date>2015</dc:date>
        <dc:creator>
          <cc:Agent>
            <dc:title>Timothée Giet</dc:title>
          </cc:Agent>
        </dc:creator>
        <cc:license
           rdf:resource="http://creativecommons.org/licenses/by-sa/4.0/" />
      </cc:Work>
      <cc:License
         rdf:about="http://creativecommons.org/licenses/by-sa/4.0/">
        <cc:permits
           rdf:resource="http://creativecommons.org/ns#Reproduction" />
        <cc:permits
           rdf:resource="http://creativecommons.org/ns#Distribution" />
        <cc:requires
           rdf:resource="http://creativecommons.org/ns#Notice" />
        <cc:requires
           rdf:resource="http://creativecommons.org/ns#Attribution" />
        <cc:permits
           rdf:resource="http://creativecommons.org/ns#DerivativeWorks" />
        <cc:requires
           rdf:resource="http://creativecommons.org/ns#ShareAlike" />
      </cc:License>
    </rdf:RDF>
  </metadata>
  <defs
     id="defs6194" />
  <g
     id="g6460">
    <path
       style="color:#000000;fill:#d2d2d2;fill-opacity:1;fill-rule:nonzero;stroke:none;stroke-width:1;marker:none;visibility:visible;display:inline;overflow:visible;enable-background:accumulate"
       d="M 1 7 L 1 9 L 1 18 L 3 18 L 17 18 L 17 16 L 17 14 L 16 14 L 16 15 L 15 15 L 15 14 L 14 14 L 14 16 L 4 16 L 4 9 L 5 9 L 5 7 L 3 7 L 1 7 z M 2 8 L 3 8 L 3 9 L 2 9 L 2 8 z M 2 10 L 3 10 L 3 11 L 2 11 L 2 10 z M 2 12 L 3 12 L 3 13 L 2 13 L 2 12 z M 2 14 L 3 14 L 3 15 L 2 15 L 2 14 z M 2 16 L 3 16 L 3 17 L 2 17 L 2 16 z M 14.96875 16 L 15.96875 16 L 15.96875 17 L 14.96875 17 L 14.96875 16 z "
       id="path6416" />
    <path
       style="color:#000000;fill:#d2d2d2;fill-opacity:1;fill-rule:nonzero;stroke:none;stroke-width:1;marker:none;visibility:visible;display:inline;overflow:visible;enable-background:accumulate"
       d="M 5 3 L 5 5 L 5 14 L 7 14 L 21 14 L 21 12 L 21 5 L 21 3 L 19 3 L 7 3 L 5 3 z M 6 4 L 7 4 L 7 5 L 6 5 L 6 4 z M 18.96875 4 L 19.96875 4 L 19.96875 5 L 18.96875 5 L 18.96875 4 z M 8 5 L 18 5 L 18 12 L 8 12 L 8 5 z M 6 6 L 7 6 L 7 7 L 6 7 L 6 6 z M 18.96875 6 L 19.96875 6 L 19.96875 7 L 18.96875 7 L 18.96875 6 z M 6 8 L 7 8 L 7 9 L 6 9 L 6 8 z M 18.96875 8 L 19.96875 8 L 19.96875 9 L 18.96875 9 L 18.96875 8 z M 6 10 L 7 10 L 7 11 L 6 11 L 6 10 z M 18.96875 10 L 19.96875 10 L 19.96875 11 L 18.96875 11 L 18.96875 10 z M 6 12 L 7 12 L 7 13 L 6 13 L 6 12 z M 18.96875 12 L 19.96875 12 L 19.96875 13 L 18.96875 13 L 18.96875 12 z "
       id="rect6143" />
  </g>
</svg>
