<!--Created with Inkscape (http://www.inkscape.org/)--><svg xmlns:dc="http://purl.org/dc/elements/1.1/" xmlns:cc="http://creativecommons.org/ns#" xmlns:rdf="http://www.w3.org/1999/02/22-rdf-syntax-ns#" xmlns="http://www.w3.org/2000/svg" xmlns:sodipodi="http://sodipodi.sourceforge.net/DTD/sodipodi-0.dtd" xmlns:inkscape="http://www.inkscape.org/namespaces/inkscape" version="1.1" width="22" height="22" id="svg6190" inkscape:version="0.92.1 r15371" sodipodi:docname="light_addduplicateframe.svg" inkscape:export-filename="../light_addduplicateframe.png" inkscape:export-xdpi="90" inkscape:export-ydpi="90"><sodipodi:namedview pagecolor="#ffffff" bordercolor="#666666" borderopacity="1" objecttolerance="10" gridtolerance="10" guidetolerance="10" inkscape:pageopacity="0" inkscape:pageshadow="2" inkscape:window-width="1884" inkscape:window-height="1051" id="namedview4440" showgrid="true" inkscape:zoom="21.454545" inkscape:cx="-5.3498138" inkscape:cy="13.103048" inkscape:window-x="0" inkscape:window-y="0" inkscape:window-maximized="1" inkscape:current-layer="g6460" inkscape:snap-bbox="true"><inkscape:grid type="xygrid" id="grid3250"/></sodipodi:namedview><metadata id="metadata6196"><rdf:RDF><cc:Work><dc:format>image/svg+xml</dc:format><dc:type rdf:resource="http://purl.org/dc/dcmitype/StillImage"/><dc:title/><dc:date>2015</dc:date><dc:creator><cc:Agent><dc:title>Timothée Giet</dc:title></cc:Agent></dc:creator><cc:license rdf:resource="http://creativecommons.org/licenses/by-sa/4.0/"/></cc:Work><cc:License rdf:about="http://creativecommons.org/licenses/by-sa/4.0/"><cc:permits rdf:resource="http://creativecommons.org/ns#Reproduction"/><cc:permits rdf:resource="http://creativecommons.org/ns#Distribution"/><cc:requires rdf:resource="http://creativecommons.org/ns#Notice"/><cc:requires rdf:resource="http://creativecommons.org/ns#Attribution"/><cc:permits rdf:resource="http://creativecommons.org/ns#DerivativeWorks"/><cc:requires rdf:resource="http://creativecommons.org/ns#ShareAlike"/></cc:License></rdf:RDF></metadata><g id="g6460"><path style="color:#000;fill:#d2d2d2;fill-opacity:1;fill-rule:nonzero;stroke:none;stroke-width:1;marker:none;visibility:visible;display:inline;overflow:visible;enable-background:accumulate" d="M1 7v11h16v-4h-1v1h-1v-1h-1v2H4V9h1V7H1zm1 1h1v1H2V8zm0 2h1v1H2v-1zm0 2h1v1H2v-1zm0 2h1v1H2v-1zm0 2h1v1H2v-1zm12.969 0h1v1h-1v-1z" id="path6416"/><path style="color:#000;fill:#d2d2d2;fill-opacity:1;fill-rule:nonzero;stroke:none;stroke-width:1;marker:none;visibility:visible;display:inline;overflow:visible;enable-background:accumulate" d="M5 3v11h16V3H5zm1 1h1v1H6V4zm12.969 0h1v1h-1V4zM8 5h10v7H8V5zM6 6h1v1H6V6zm12.969 0h1v1h-1V6zM6 8h1v1H6V8zm12.969 0h1v1h-1V8zM6 10h1v1H6v-1zm12.969 0h1v1h-1v-1zM6 12h1v1H6v-1zm12.969 0h1v1h-1v-1z" id="rect6143"/></g></svg>