<?xml version="1.0" encoding="UTF-8" standalone="no"?>
<svg
   xmlns:dc="http://purl.org/dc/elements/1.1/"
   xmlns:cc="http://creativecommons.org/ns#"
   xmlns:rdf="http://www.w3.org/1999/02/22-rdf-syntax-ns#"
   xmlns:svg="http://www.w3.org/2000/svg"
   xmlns="http://www.w3.org/2000/svg"
   id="svg6190"
   height="18"
   width="18"
   version="1.1">
  <metadata
     id="metadata6196">
    <rdf:RDF>
      <cc:Work
         rdf:about="">
        <dc:format>image/svg+xml</dc:format>
        <dc:type
           rdf:resource="http://purl.org/dc/dcmitype/StillImage" />
        <dc:title></dc:title>
        <dc:date>2016</dc:date>
        <dc:creator>
          <cc:Agent>
            <dc:title>Timothée Giet</dc:title>
          </cc:Agent>
        </dc:creator>
        <cc:license
           rdf:resource="http://creativecommons.org/licenses/by-sa/4.0/" />
      </cc:Work>
      <cc:License
         rdf:about="http://creativecommons.org/licenses/by-sa/4.0/">
        <cc:permits
           rdf:resource="http://creativecommons.org/ns#Reproduction" />
        <cc:permits
           rdf:resource="http://creativecommons.org/ns#Distribution" />
        <cc:requires
           rdf:resource="http://creativecommons.org/ns#Notice" />
        <cc:requires
           rdf:resource="http://creativecommons.org/ns#Attribution" />
        <cc:permits
           rdf:resource="http://creativecommons.org/ns#DerivativeWorks" />
        <cc:requires
           rdf:resource="http://creativecommons.org/ns#ShareAlike" />
      </cc:License>
    </rdf:RDF>
  </metadata>
  <defs
     id="defs6194" />
  <g
     id="layer1"
     transform="translate(6.0254234,-1036.0995)">
    <path
       id="path1139"
       d="m 7.9243298,1040.1497 -1.4142263,1.4143 -1.4142004,1.4142 1.4142136,1.4142 1.1172871,-1.1173 a 5,5 0 0 1 -1.1172933,5.3599 5,5 0 0 1 -5.3571675,1.1146 l -1.50536728,1.5054 a 7,7 0 0 0 8.27674828,-1.2058 7,7 0 0 0 5.8e-6,-9.8995 z m -1.6227523,-1.2057 a 7,7 0 0 0 -8.2767483,1.2058 7,7 0 0 0 -5.8e-6,9.8995 l 1.41422629,-1.4143 1.41420041,-1.4142 -1.41421357,-1.4142 -1.11728703,1.1173 a 5,5 0 0 1 1.11729321,-5.3599 5,5 0 0 1 5.35716739,-1.1146 z"
       style="opacity:1;vector-effect:none;fill:#f2f2f2;fill-opacity:1;stroke:none;stroke-width:4;stroke-linecap:square;stroke-linejoin:round;stroke-miterlimit:4;stroke-dasharray:none;stroke-dashoffset:3.20000005;stroke-opacity:0.55063291" />
  </g>
</svg>
