<svg width="16" height="16" viewBox="0 0 16 16" fill="none" xmlns="http://www.w3.org/2000/svg">
<metadata
     id="metadata7">
    <rdf:RDF>
      <cc:Work>
        <dc:format>image/svg+xml</dc:format>
        <dc:type
           rdf:resource="http://purl.org/dc/dcmitype/StillImage" />
        <dc:date>2026</dc:date>
        <dc:creator>
          <cc:Agent>
            <dc:title>superfurryfrog</dc:title>
          </cc:Agent>
        </dc:creator>
<dc:description>"The Android robot is reproduced or modified from work created and shared by Google and used according to terms described in the Creative Commons 3.0 Attribution License."</dc:description> 
        <cc:license
           rdf:resource="http://creativecommons.org/licenses/by-sa/4.0/" />
      </cc:Work>
      <cc:License
         rdf:about="http://creativecommons.org/licenses/by-sa/4.0/">
        <cc:permits
           rdf:resource="http://creativecommons.org/ns#Reproduction" />
        <cc:permits
           rdf:resource="http://creativecommons.org/ns#Distribution" />
        <cc:requires
           rdf:resource="http://creativecommons.org/ns#Notice" />
        <cc:requires
           rdf:resource="http://creativecommons.org/ns#Attribution" />
        <cc:permits
           rdf:resource="http://creativecommons.org/ns#DerivativeWorks" />
        <cc:requires
           rdf:resource="http://creativecommons.org/ns#ShareAlike" />
      </cc:License>
    </rdf:RDF>
  </metadata>
<path d="M12 3L10.5 5.5M4 3L5.5 5.5" stroke="#D2D2D2"/>
<path d="M8 4C11.3137 4 14 6.68629 14 10H2C2 6.68629 4.68629 4 8 4ZM5.25 6.5C4.83579 6.5 4.5 6.83579 4.5 7.25C4.5 7.66421 4.83579 8 5.25 8C5.6642 7.99999 6 7.66421 6 7.25C6 6.83579 5.6642 6.50001 5.25 6.5ZM10.75 6.5C10.3358 6.5 10 6.83579 10 7.25C10 7.66421 10.3358 8 10.75 8C11.1642 7.99999 11.5 7.66421 11.5 7.25C11.5 6.83579 11.1642 6.50001 10.75 6.5Z" fill="#D2D2D2"/>
<path d="M6 12V13H11V12H6ZM6 14V15H10V14H6Z" fill="#D2D2D2"/>
<path d="M5 12.5C5 12.7761 4.77614 13 4.5 13C4.22386 13 4 12.7761 4 12.5C4 12.2239 4.22386 12 4.5 12C4.77614 12 5 12.2239 5 12.5Z" fill="#D2D2D2"/>
<path d="M5 14.5C5 14.7761 4.77614 15 4.5 15C4.22386 15 4 14.7761 4 14.5C4 14.2239 4.22386 14 4.5 14C4.77614 14 5 14.2239 5 14.5Z" fill="#D2D2D2"/>
</svg>
