<?xml version="1.0" encoding="UTF-8" standalone="no"?>
<svg
   xmlns:dc="http://purl.org/dc/elements/1.1/"
   xmlns:cc="http://creativecommons.org/ns#"
   xmlns:rdf="http://www.w3.org/1999/02/22-rdf-syntax-ns#"
   xmlns:svg="http://www.w3.org/2000/svg"
   xmlns="http://www.w3.org/2000/svg"
   id="svg6190"
   height="16"
   width="16"
   version="1.1">
  <metadata
     id="metadata6196">
    <rdf:RDF>
      <cc:Work
         rdf:about="">
        <dc:format>image/svg+xml</dc:format>
        <dc:type
           rdf:resource="http://purl.org/dc/dcmitype/StillImage" />
        <dc:title></dc:title>
        <dc:date>2021</dc:date>
        <dc:creator>
          <cc:Agent>
            <dc:title>Timothée Giet</dc:title>
          </cc:Agent>
        </dc:creator>
        <cc:license
           rdf:resource="http://creativecommons.org/licenses/by-sa/4.0/" />
      </cc:Work>
      <cc:License
         rdf:about="http://creativecommons.org/licenses/by-sa/4.0/">
        <cc:permits
           rdf:resource="http://creativecommons.org/ns#Reproduction" />
        <cc:permits
           rdf:resource="http://creativecommons.org/ns#Distribution" />
        <cc:requires
           rdf:resource="http://creativecommons.org/ns#Notice" />
        <cc:requires
           rdf:resource="http://creativecommons.org/ns#Attribution" />
        <cc:permits
           rdf:resource="http://creativecommons.org/ns#DerivativeWorks" />
        <cc:requires
           rdf:resource="http://creativecommons.org/ns#ShareAlike" />
      </cc:License>
    </rdf:RDF>
  </metadata>
  <defs
     id="defs6194" />
  <path
     id="rect1290"
     d="M 0 0 L 0 16 L 16 16 L 16 0 L 0 0 z M 1 1 L 5 1 L 5 5 L 1 5 L 1 1 z M 6 1 L 10 1 L 10 5 L 6 5 L 6 1 z M 11 1 L 15 1 L 15 5 L 11 5 L 11 1 z M 1 6 L 5 6 L 5 10 L 1 10 L 1 6 z M 6 6 L 10 6 L 10 10 L 6 10 L 6 6 z M 11 6 L 15 6 L 15 10 L 11 10 L 11 6 z M 1 11 L 5 11 L 5 15 L 1 15 L 1 11 z M 6 11 L 10 11 L 10 15 L 6 15 L 6 11 z M 11 11 L 15 11 L 15 15 L 11 15 L 11 11 z "
     style="opacity:1;vector-effect:none;fill:#d2d2d2;fill-opacity:1;stroke:none;stroke-width:3.20000005;stroke-linecap:square;stroke-linejoin:round;stroke-miterlimit:4;stroke-dasharray:none;stroke-dashoffset:3.20000005;stroke-opacity:1" />
</svg>
