<?xml version="1.0" encoding="UTF-8" standalone="no"?>
<svg
   xmlns:osb="http://www.openswatchbook.org/uri/2009/osb"
   xmlns:dc="http://purl.org/dc/elements/1.1/"
   xmlns:cc="http://creativecommons.org/ns#"
   xmlns:rdf="http://www.w3.org/1999/02/22-rdf-syntax-ns#"
   xmlns:svg="http://www.w3.org/2000/svg"
   xmlns="http://www.w3.org/2000/svg"
   id="svg6190"
   height="16"
   width="16"
   version="1.1">
  <metadata
     id="metadata6196">
    <rdf:RDF>
      <cc:Work
         rdf:about="">
        <dc:format>image/svg+xml</dc:format>
        <dc:type
           rdf:resource="http://purl.org/dc/dcmitype/StillImage" />
        <dc:title></dc:title>
        <dc:date>2021</dc:date>
        <dc:creator>
          <cc:Agent>
            <dc:title>Timothée Giet</dc:title>
          </cc:Agent>
        </dc:creator>
        <cc:license
           rdf:resource="http://creativecommons.org/licenses/by-sa/4.0/" />
      </cc:Work>
      <cc:License
         rdf:about="http://creativecommons.org/licenses/by-sa/4.0/">
        <cc:permits
           rdf:resource="http://creativecommons.org/ns#Reproduction" />
        <cc:permits
           rdf:resource="http://creativecommons.org/ns#Distribution" />
        <cc:requires
           rdf:resource="http://creativecommons.org/ns#Notice" />
        <cc:requires
           rdf:resource="http://creativecommons.org/ns#Attribution" />
        <cc:permits
           rdf:resource="http://creativecommons.org/ns#DerivativeWorks" />
        <cc:requires
           rdf:resource="http://creativecommons.org/ns#ShareAlike" />
      </cc:License>
    </rdf:RDF>
  </metadata>
  <defs
     id="defs6194">
    <linearGradient
       gradientTransform="matrix(1.0815437,0,0,1.0815437,-0.65704073,9.2826462)"
       osb:paint="solid"
       id="linearGradient1152">
      <stop
         id="stop1150"
         offset="0"
         style="stop-color:#373737;stop-opacity:1;" />
    </linearGradient>
  </defs>
  <g
     id="layer1"
     transform="translate(6.0254234,-1038.0995)">
    <path
       id="path1142"
       d="m -2.025423,1042.0995 c -2.209139,0 -4,1.7909 -4,4 0,2.2091 1.790861,4 4,4 1.9999996,0 4,-1 5,-4 -1,-3 -3.0000004,-4 -5,-4 z m 0,2 c 0,0 2,0 3,2 -1,2 -3,2 -3,2 -1.10457,0 -2,-0.8954 -2,-2 0,-1.1046 0.89543,-2 2,-2 z"
       style="opacity:1;vector-effect:none;fill:#d2d2d2;fill-opacity:1;stroke:none;stroke-width:4;stroke-linecap:square;stroke-linejoin:round;stroke-miterlimit:4;stroke-dasharray:none;stroke-dashoffset:3.20000005;stroke-opacity:0.55063291" />
    <path
       id="path1142-3"
       d="m 5.974577,1042.0995 c 2.209139,0 4,1.7909 4,4 0,2.2091 -1.790861,4 -4,4 -2.0000004,0 -4,-1 -5,-4 1,-3 2.9999996,-4 5,-4 z m 0,2 c 0,0 -2,0 -3,2 1,2 3,2 3,2 1.104569,0 2,-0.8954 2,-2 0,-1.1046 -0.895431,-2 -2,-2 z"
       style="opacity:1;vector-effect:none;fill:#d2d2d2;fill-opacity:1;stroke:none;stroke-width:4;stroke-linecap:square;stroke-linejoin:round;stroke-miterlimit:4;stroke-dasharray:none;stroke-dashoffset:3.20000005;stroke-opacity:0.55063291" />
  </g>
</svg>
