<?xml version="1.0" encoding="UTF-8" standalone="no"?>
<svg
   xmlns:dc="http://purl.org/dc/elements/1.1/"
   xmlns:cc="http://creativecommons.org/ns#"
   xmlns:rdf="http://www.w3.org/1999/02/22-rdf-syntax-ns#"
   xmlns:svg="http://www.w3.org/2000/svg"
   xmlns="http://www.w3.org/2000/svg"
   xmlns:xlink="http://www.w3.org/1999/xlink"
   version="1.1"
   id="svg2"
   viewBox="0 0 16 16"
   height="16"
   width="16">
  <defs
     id="defs4">
    <linearGradient
       gradientUnits="userSpaceOnUse"
       y2="1049.3622"
       x2="6"
       y1="1043.3622"
       x1="6"
       id="linearGradient5761"
       xlink:href="#linearGradient5755"
       gradientTransform="translate(6,-2)" />
    <linearGradient
       id="linearGradient5755">
      <stop
         id="stop5757"
         offset="0"
         style="stop-color:#d2d2d2;stop-opacity:1" />
      <stop
         id="stop5759"
         offset="1"
         style="stop-color:#d2d2d2;stop-opacity:0" />
    </linearGradient>
  </defs>
  <metadata
     id="metadata7">
    <rdf:RDF>
      <cc:Work
         rdf:about="">
        <dc:format>image/svg+xml</dc:format>
        <dc:type
           rdf:resource="http://purl.org/dc/dcmitype/StillImage" />
        <dc:title></dc:title>
        <dc:date>2021</dc:date>
        <dc:creator>
          <cc:Agent>
            <dc:title>Timothée Giet</dc:title>
          </cc:Agent>
        </dc:creator>
        <cc:license
           rdf:resource="http://creativecommons.org/licenses/by-sa/4.0/" />
      </cc:Work>
      <cc:License
         rdf:about="http://creativecommons.org/licenses/by-sa/4.0/">
        <cc:permits
           rdf:resource="http://creativecommons.org/ns#Reproduction" />
        <cc:permits
           rdf:resource="http://creativecommons.org/ns#Distribution" />
        <cc:requires
           rdf:resource="http://creativecommons.org/ns#Notice" />
        <cc:requires
           rdf:resource="http://creativecommons.org/ns#Attribution" />
        <cc:permits
           rdf:resource="http://creativecommons.org/ns#DerivativeWorks" />
        <cc:requires
           rdf:resource="http://creativecommons.org/ns#ShareAlike" />
      </cc:License>
    </rdf:RDF>
  </metadata>
  <g
     transform="translate(0,-1036.3622)"
     id="layer1">
    <path
       id="path838"
       d="m 5,1044.3622 -5,-5 v 10 z"
       style="fill:#d2d2d2;fill-opacity:1;stroke:none;stroke-width:1px;stroke-linecap:butt;stroke-linejoin:miter;stroke-opacity:1" />
    <path
       id="path5625"
       d="m 14.432344,1040.7258 a 5,5 0 0 0 -6.4316335,-0.3632 5,5 0 0 0 -0.53033,0.4696 l 0.6891529,0.6891 a 4.0214148,4.0214148 0 0 1 0.428131,-0.3756 4.0214148,4.0214148 0 0 1 5.1734806,0.2928 4.0214148,4.0214148 0 0 1 0.454371,0.5096 4.0214148,4.0214148 0 0 1 0.661532,3.4623 l 0.770636,0.7706 a 5,5 0 0 0 -0.649102,-4.8226 5,5 0 0 0 -0.566238,-0.6326 z m -0.591097,6.4772 a 4.0214148,4.0214148 0 0 1 -0.422607,0.3729 l -0.0097,0.01 a 4.0214148,4.0214148 0 0 1 -5.6278517,-0.8107 4.0214148,4.0214148 0 0 1 -0.6573884,-3.4582 l -0.7706359,-0.7706 a 5,5 0 0 0 0.6449586,4.8158 5,5 0 0 0 6.9964904,1.0082 l 0.01243,-0.01 a 5,5 0 0 0 0.524806,-0.464 l -0.690534,-0.6906 z"
       style="color:#000000;clip-rule:nonzero;display:inline;overflow:visible;visibility:visible;opacity:1;isolation:auto;mix-blend-mode:normal;color-interpolation:sRGB;color-interpolation-filters:linearRGB;solid-color:#000000;solid-opacity:1;fill:#d2d2d2;fill-opacity:1;fill-rule:nonzero;stroke:none;stroke-width:0;stroke-linecap:butt;stroke-linejoin:miter;stroke-miterlimit:4;stroke-dasharray:none;stroke-dashoffset:0;stroke-opacity:1;marker:none;color-rendering:auto;image-rendering:auto;shape-rendering:auto;text-rendering:auto;enable-background:accumulate" />
    <path
       id="path5655"
       d="M 8.8790698,1040.8266 H 7.4648562 l 2.1213208,2.1214 0.707106,-0.7071 z"
       style="fill:#d2d2d2;fill-opacity:1;fill-rule:evenodd;stroke:none;stroke-width:1px;stroke-linecap:butt;stroke-linejoin:miter;stroke-opacity:1" />
    <path
       id="path5668"
       d="m 12.414604,1045.7764 -0.707107,0.7071 1.414213,1.4142 h 1.414214 z"
       style="fill:#d2d2d2;fill-opacity:1;fill-rule:evenodd;stroke:none;stroke-width:1px;stroke-linecap:butt;stroke-linejoin:miter;stroke-opacity:1" />
  </g>
</svg>
