<?xml version="1.0" encoding="UTF-8" standalone="no"?>
<svg
   xmlns:dc="http://purl.org/dc/elements/1.1/"
   xmlns:cc="http://creativecommons.org/ns#"
   xmlns:rdf="http://www.w3.org/1999/02/22-rdf-syntax-ns#"
   xmlns:svg="http://www.w3.org/2000/svg"
   xmlns="http://www.w3.org/2000/svg"
   version="1.1"
   width="16"
   height="16"
   id="svg6190">
  <metadata
     id="metadata6196">
    <rdf:RDF>
      <cc:Work
         rdf:about="">
        <dc:format>image/svg+xml</dc:format>
        <dc:type
           rdf:resource="http://purl.org/dc/dcmitype/StillImage" />
        <dc:title></dc:title>
        <dc:date>2015</dc:date>
        <dc:creator>
          <cc:Agent>
            <dc:title>Timothée Giet</dc:title>
          </cc:Agent>
        </dc:creator>
        <cc:license
           rdf:resource="http://creativecommons.org/licenses/by-sa/4.0/" />
      </cc:Work>
      <cc:License
         rdf:about="http://creativecommons.org/licenses/by-sa/4.0/">
        <cc:permits
           rdf:resource="http://creativecommons.org/ns#Reproduction" />
        <cc:permits
           rdf:resource="http://creativecommons.org/ns#Distribution" />
        <cc:requires
           rdf:resource="http://creativecommons.org/ns#Notice" />
        <cc:requires
           rdf:resource="http://creativecommons.org/ns#Attribution" />
        <cc:permits
           rdf:resource="http://creativecommons.org/ns#DerivativeWorks" />
        <cc:requires
           rdf:resource="http://creativecommons.org/ns#ShareAlike" />
      </cc:License>
    </rdf:RDF>
  </metadata>
  <defs
     id="defs6194" />
  <g
     id="g6344"
     transform="matrix(0.77777778,0,0,0.77777778,-0.55555558,-0.94444447)">
    <path
       id="path6348"
       transform="matrix(1.2857143,0,0,1.2857143,0.71428574,1.2142857)"
       d="m 1,3 v 9 H 15 V 3 Z M 2,4 H 3 V 5 H 2 Z m 2,0 h 8 v 7 H 4 Z m 9,0 h 1 V 5 H 13 Z M 2,6 H 3 V 7 H 2 Z m 11,0 h 1 V 7 H 13 Z M 2,8 H 3 V 9 H 2 Z m 11,0 h 1 V 9 H 13 Z M 2,10 h 1 v 1 H 2 Z m 11,0 h 1 v 1 h -1 z"
       style="color:#000000;display:inline;overflow:visible;visibility:visible;fill:#d2d2d2;fill-opacity:1;fill-rule:nonzero;stroke:none;stroke-width:0.77777779;marker:none;enable-background:accumulate" />
  </g>
</svg>
