<?xml version="1.0" encoding="UTF-8"?>
<svg width="16" height="16" version="1.1" xmlns="http://www.w3.org/2000/svg">
 <g transform="matrix(.24227 0 0 .24227 -197.45 -48.979)">
  <g>
   <path d="m858.34 245.51c8e-3 11.396-9.2342 20.638-20.638 20.638s-20.646-9.242-20.638-20.638c-8e-3 -11.396 9.2342-20.638 20.638-20.638s20.646 9.242 20.638 20.638z" color="#000000" fill="#ff15a1" stroke="#373737" stroke-width="2.0638"/>
   <path transform="matrix(4.1276 0 0 4.1276 815 202.17)" d="m8 1.4004c-2.7628 0-5.0019 2.2391-5 5-0.00126 1.8549 1.0108 3.4709 2.5117 4.334-0.0035789-0.078141-0.011772-0.15534-0.011719-0.23438-0.00194-2.7609 2.2372-5 5-5 0.9067 0 1.7551 0.24441 2.4883 0.66602-0.12144-2.6515-2.3045-4.7656-4.9883-4.7656z" fill="#1583ff"/>
   <path transform="matrix(4.1276 0 0 4.1276 815 202.17)" d="m10.5 5.5c-2.7628 0-5.0019 2.2391-5 5-5.37e-5 0.07904 0.00814 0.15623 0.011719 0.23438 0.73318 0.4216 1.5816 0.66602 2.4883 0.66602 2.7628 0 5.0019-2.2391 5-5 5.4e-5 -0.079036-0.0081-0.15623-0.01172-0.23438-0.73318-0.42161-1.5816-0.66602-2.4883-0.66602z" fill="#00cf2d"/>
   <path transform="matrix(4.1276 0 0 4.1276 815 202.17)" d="m12.988 6.166c0.0036 0.078141 0.01177 0.15534 0.01172 0.23438 0.0019 2.761-2.2372 5-5 5-0.9067 0-1.7551-0.24441-2.4883-0.66602 0.12144 2.6515 2.3045 4.7656 4.9883 4.7656 2.7628 0 5.0019-2.239 5-5 0.0013-1.8549-1.0108-3.4709-2.5117-4.334z" fill="#f8ff15"/>
   <path transform="matrix(4.1276 0 0 4.1276 815 202.17)" d="m5.5117 10.734c0.080159 1.7502 1.0586 3.2653 2.4863 4.0938 1.4311-0.82727 2.4094-2.3409 2.4902-4.0918-0.73294 0.42122-1.582 0.66406-2.4883 0.66406-0.9067 0-1.7551-0.24441-2.4883-0.66602z" fill="#ef0000"/>
   <path transform="matrix(4.1276 0 0 4.1276 815 202.17)" d="m7.998 6.1719c-1.494 0.86487-2.4993 2.4784-2.498 4.3281-5.37e-5 0.07904 0.00814 0.15623 0.011719 0.23438 0.73318 0.4216 1.5816 0.66602 2.4883 0.66602 0.90625 0 1.7553-0.24285 2.4883-0.66406 0.003637-0.078782 0.011775-0.15664 0.011719-0.23633 0.001255-1.8508-1.0065-3.4636-2.502-4.3281z" fill="#383027"/>
   <path transform="matrix(4.1276 0 0 4.1276 815 202.17)" d="m5.5 5.5c-0.90922 0-1.7596 0.24614-2.4941 0.66992-0.0034067 0.076281-0.0059135 0.15334-0.0058594 0.23047-0.00126 1.8549 1.0108 3.4709 2.5117 4.334-0.0035789-0.078141-0.011772-0.15534-0.011719-0.23438-0.0012997-1.8497 1.004-3.4633 2.498-4.3281-0.73542-0.42513-1.5873-0.67188-2.498-0.67188z" fill="#5100cc"/>
  </g>
  <path d="m848.02 207.95c-11.085 0-20.125 8.7314-20.614 19.687-6.1814 3.5661-10.349 10.227-10.343 17.873-8e-3 11.396 9.2342 20.638 20.638 20.638 3.7594 0 7.2754-1.0185 10.311-2.7732 3.0348 1.7609 6.5617 2.7732 10.327 2.7732 11.404 0 20.646-9.242 20.638-20.638 5e-3 -7.6562-4.1722-14.327-10.367-17.889-0.50126-10.944-9.5123-19.671-20.59-19.671z" fill="none" stroke="#d2d2d2" stroke-width="4.1276"/>
 </g>
</svg>
