<?xml version="1.0" encoding="UTF-8" standalone="no"?>
<!-- Created with Inkscape (http://www.inkscape.org/) -->

<svg
   xmlns:dc="http://purl.org/dc/elements/1.1/"
   xmlns:cc="http://creativecommons.org/ns#"
   xmlns:rdf="http://www.w3.org/1999/02/22-rdf-syntax-ns#"
   xmlns:svg="http://www.w3.org/2000/svg"
   xmlns="http://www.w3.org/2000/svg"
   xmlns:xlink="http://www.w3.org/1999/xlink"
   xmlns:sodipodi="http://sodipodi.sourceforge.net/DTD/sodipodi-0.dtd"
   xmlns:inkscape="http://www.inkscape.org/namespaces/inkscape"
   version="1.1"
   width="16"
   height="16"
   id="svg3071"
   inkscape:version="0.48.5 r10040"
   sodipodi:docname="docker_lock_icons_a.svg">
  <sodipodi:namedview
     pagecolor="#ffffff"
     bordercolor="#666666"
     borderopacity="1"
     objecttolerance="10"
     gridtolerance="10"
     guidetolerance="10"
     inkscape:pageopacity="0"
     inkscape:pageshadow="2"
     inkscape:window-width="1920"
     inkscape:window-height="1026"
     id="namedview24"
     showgrid="false"
     inkscape:zoom="11.784166"
     inkscape:cx="-6.9718673"
     inkscape:cy="5.7626802"
     inkscape:window-x="-4"
     inkscape:window-y="31"
     inkscape:window-maximized="1"
     inkscape:current-layer="svg3071" />
  <metadata
     id="metadata3077">
    <rdf:RDF>
      <cc:Work
         rdf:about="">
        <dc:format>image/svg+xml</dc:format>
        <dc:type
           rdf:resource="http://purl.org/dc/dcmitype/StillImage" />
        <dc:title />
      </cc:Work>
    </rdf:RDF>
  </metadata>
  <defs
     id="defs3075">
    <linearGradient
       id="linearGradient3859">
      <stop
         id="stop3861"
         style="stop-color:#ffffff;stop-opacity:1"
         offset="0" />
      <stop
         id="stop3863"
         style="stop-color:#ffffff;stop-opacity:0"
         offset="1" />
    </linearGradient>
    <radialGradient
       cx="1067.5958"
       cy="295.76364"
       r="35.585094"
       fx="1067.5958"
       fy="295.76364"
       id="radialGradient5339"
       xlink:href="#linearGradient3859"
       gradientUnits="userSpaceOnUse"
       gradientTransform="matrix(3.4969761,-0.02608536,0.03182808,4.0230733,-2674.6413,-829.34823)" />
    <radialGradient
       cx="1067.5958"
       cy="295.76364"
       r="35.585094"
       fx="1067.5958"
       fy="295.76364"
       id="radialGradient5341"
       xlink:href="#linearGradient3859"
       gradientUnits="userSpaceOnUse"
       gradientTransform="matrix(3.4969761,-0.02608536,0.03182808,4.0230733,-2674.6413,-829.34823)" />
    <radialGradient
       cx="1067.5958"
       cy="295.76364"
       r="35.585094"
       fx="1067.5958"
       fy="295.76364"
       id="radialGradient5373"
       xlink:href="#linearGradient3859"
       gradientUnits="userSpaceOnUse"
       gradientTransform="matrix(3.4969761,-0.02608536,0.03182808,4.0230733,-2674.6413,-829.34823)" />
    <radialGradient
       cx="1067.5958"
       cy="295.76364"
       r="35.585094"
       fx="1067.5958"
       fy="295.76364"
       id="radialGradient5375"
       xlink:href="#linearGradient3859"
       gradientUnits="userSpaceOnUse"
       gradientTransform="matrix(3.4969761,-0.02608536,0.03182808,4.0230733,-2674.6413,-829.34823)" />
    <radialGradient
       cx="1067.5958"
       cy="295.76364"
       r="35.585094"
       fx="1067.5958"
       fy="295.76364"
       id="radialGradient5373-3"
       xlink:href="#linearGradient3859-3"
       gradientUnits="userSpaceOnUse"
       gradientTransform="matrix(3.4969761,-0.02608536,0.03182808,4.0230733,-2674.6413,-829.34823)" />
    <linearGradient
       id="linearGradient3859-3">
      <stop
         id="stop3861-6"
         style="stop-color:#ffffff;stop-opacity:1"
         offset="0" />
      <stop
         id="stop3863-1"
         style="stop-color:#ffffff;stop-opacity:0"
         offset="1" />
    </linearGradient>
    <radialGradient
       cx="1067.5958"
       cy="295.76364"
       r="35.585094"
       fx="1067.5958"
       fy="295.76364"
       id="radialGradient5375-8"
       xlink:href="#linearGradient3859-3"
       gradientUnits="userSpaceOnUse"
       gradientTransform="matrix(3.4969761,-0.02608536,0.03182808,4.0230733,-2674.6413,-829.34823)" />
    <linearGradient
       id="linearGradient3020">
      <stop
         id="stop3022"
         style="stop-color:#ffffff;stop-opacity:1"
         offset="0" />
      <stop
         id="stop3024"
         style="stop-color:#ffffff;stop-opacity:0"
         offset="1" />
    </linearGradient>
  </defs>
  <g
     transform="matrix(0.24227062,0,0,0.24227062,-197.44864,-48.979043)"
     id="g5365">
    <path
       d="m 1099.9697,233.25606 a 32.884708,31.931528 0 1 1 -65.7694,0 32.884708,31.931528 0 1 1 65.7694,0 z"
       transform="matrix(0.91227812,0,0,0.93951031,-125.46529,16.041114)"
       id="path5367"
       style="color:#000000;fill:#000000;fill-opacity:0;fill-rule:nonzero;stroke:url(#radialGradient5375-8);stroke-width:6.4809227;stroke-miterlimit:4;stroke-dasharray:none;marker:none;visibility:visible;display:inline;overflow:visible;enable-background:accumulate"
       inkscape:connector-curvature="0" />
    <g
       transform="translate(0.28948514,0.70769159)"
       id="g5369">
      <path
         d="m 768.125,214.5625 c -3.61431,0.0873 -6.73195,1.30715 -8.6875,3.71875 -1.93781,2.38973 -2.58562,5.58862 -2.5,9.21875 7.8e-4,0.0332 -9.1e-4,0.0606 0,0.0937 l -0.15625,12.8125 c -1.19693,0.37907 -2.09375,1.86086 -2.09375,3.625 l 0,8.09375 c 0,2.05368 1.22517,3.6875 2.71875,3.6875 l 21.21875,0 c 1.49358,0 2.6875,-1.63382 2.6875,-3.6875 l 0,-8.09375 c 0,-1.77761 -0.88295,-3.25985 -2.09375,-3.625 0.0402,-0.51885 0.028,-0.99615 0.0312,-1.6875 0.005,-1.16095 -0.0329,-2.56119 -0.0625,-4 -0.0592,-2.87762 -0.11527,-6.00712 -0.0625,-7.0625 0.19045,-3.80894 -0.67807,-7.13592 -2.65625,-9.53125 -1.97818,-2.39533 -5.04327,-3.64219 -8.34375,-3.5625 z m 0.125,5 c 2.08995,-0.0505 3.40404,0.57429 4.375,1.75 0.97096,1.17571 1.64655,3.16269 1.5,6.09375 -0.0819,1.63726 0.004,4.55403 0.0625,7.40625 0.0294,1.42611 0.0676,2.8028 0.0625,3.875 -0.003,0.68331 -0.0723,1.32808 -0.0937,1.625 l -12.375,0 0.15625,-12.75 0,-0.0625 0,-0.0625 c -0.0814,-2.97982 0.50523,-4.88885 1.40625,-6 0.90102,-1.11115 2.24122,-1.81065 4.90625,-1.875 z"
         transform="translate(79.710515,-0.70769159)"
         id="path5371"
         style="color:#000000;fill:#ffffff;fill-opacity:0.81372549;fill-rule:nonzero;stroke:none;stroke-width:5;marker:none;visibility:visible;display:inline;overflow:visible;enable-background:accumulate"
         inkscape:connector-curvature="0" />
    </g>
  </g>
</svg>
