<?xml version="1.0" encoding="UTF-8" standalone="no"?>
<!-- Created with Inkscape (http://www.inkscape.org/) -->

<svg
   xmlns:dc="http://purl.org/dc/elements/1.1/"
   xmlns:cc="http://creativecommons.org/ns#"
   xmlns:rdf="http://www.w3.org/1999/02/22-rdf-syntax-ns#"
   xmlns:svg="http://www.w3.org/2000/svg"
   xmlns="http://www.w3.org/2000/svg"
   xmlns:xlink="http://www.w3.org/1999/xlink"
   version="1.1"
   width="22"
   height="22"
   id="svg6190">
  <metadata
     id="metadata6196">
    <rdf:RDF>
      <cc:Work
         rdf:about="">
        <dc:format>image/svg+xml</dc:format>
        <dc:type
           rdf:resource="http://purl.org/dc/dcmitype/StillImage" />
        <dc:title></dc:title>
      </cc:Work>
    </rdf:RDF>
  </metadata>
  <defs
     id="defs6194">
    <linearGradient
       x1="169.27542"
       y1="7.6329279"
       x2="169"
       y2="22.362183"
       id="linearGradient10736"
       xlink:href="#linearGradient6935"
       gradientUnits="userSpaceOnUse"
       gradientTransform="matrix(0.93513011,-0.93513011,0.93513011,0.93513011,48.841877,196.8352)" />
    <linearGradient
       id="linearGradient6935">
      <stop
         id="stop6937"
         style="stop-color:#666666;stop-opacity:1"
         offset="0" />
      <stop
         id="stop6939"
         style="stop-color:#1a1a1a;stop-opacity:1"
         offset="1" />
    </linearGradient>
    <linearGradient
       x1="169.27542"
       y1="7.6329279"
       x2="169"
       y2="22.362183"
       id="linearGradient8068"
       xlink:href="#linearGradient5536"
       gradientUnits="userSpaceOnUse" />
    <linearGradient
       id="linearGradient5536">
      <stop
         id="stop5538"
         style="stop-color:#e6e6e6;stop-opacity:1"
         offset="0" />
      <stop
         id="stop5540"
         style="stop-color:#aaaaaa;stop-opacity:1"
         offset="1" />
    </linearGradient>
    <linearGradient
       id="linearGradient6294">
      <stop
         id="stop6296"
         style="stop-color:#e6e6e6;stop-opacity:1"
         offset="0" />
      <stop
         id="stop6298"
         style="stop-color:#aaaaaa;stop-opacity:1"
         offset="1" />
    </linearGradient>
    <linearGradient
       id="linearGradient6301">
      <stop
         id="stop6303"
         style="stop-color:#e6e6e6;stop-opacity:1"
         offset="0" />
      <stop
         id="stop6305"
         style="stop-color:#aaaaaa;stop-opacity:1"
         offset="1" />
    </linearGradient>
    <linearGradient
       x1="169.27542"
       y1="7.6329279"
       x2="169"
       y2="22.362183"
       id="linearGradient6317"
       xlink:href="#linearGradient5536"
       gradientUnits="userSpaceOnUse" />
    <linearGradient
       id="linearGradient6935-0">
      <stop
         id="stop6937-2"
         style="stop-color:#666666;stop-opacity:1"
         offset="0" />
      <stop
         id="stop6939-9"
         style="stop-color:#1a1a1a;stop-opacity:1"
         offset="1" />
    </linearGradient>
    <linearGradient
       id="linearGradient6487">
      <stop
         id="stop6489"
         style="stop-color:#666666;stop-opacity:1"
         offset="0" />
      <stop
         id="stop6491"
         style="stop-color:#1a1a1a;stop-opacity:1"
         offset="1" />
    </linearGradient>
    <linearGradient
       id="linearGradient5536-3">
      <stop
         id="stop5538-1"
         style="stop-color:#e6e6e6;stop-opacity:1"
         offset="0" />
      <stop
         id="stop5540-1"
         style="stop-color:#aaaaaa;stop-opacity:1"
         offset="1" />
    </linearGradient>
    <linearGradient
       id="linearGradient6622">
      <stop
         id="stop6624"
         style="stop-color:#e6e6e6;stop-opacity:1"
         offset="0" />
      <stop
         id="stop6626"
         style="stop-color:#aaaaaa;stop-opacity:1"
         offset="1" />
    </linearGradient>
    <linearGradient
       x1="140.52614"
       y1="1255.219"
       x2="124.65959"
       y2="1255.219"
       id="linearGradient10387"
       xlink:href="#linearGradient8666"
       gradientUnits="userSpaceOnUse"
       gradientTransform="matrix(1.2061786,0,0,1.2061786,61.727197,-1332.3163)" />
    <linearGradient
       id="linearGradient8666">
      <stop
         id="stop8668"
         style="stop-color:#4d4d4d;stop-opacity:1"
         offset="0" />
      <stop
         id="stop8670"
         style="stop-color:#f2f2f2;stop-opacity:1"
         offset="1" />
    </linearGradient>
    <linearGradient
       x1="140.52614"
       y1="1255.219"
       x2="124.65959"
       y2="1255.219"
       id="linearGradient6773"
       xlink:href="#linearGradient8666"
       gradientUnits="userSpaceOnUse"
       gradientTransform="matrix(1.2061786,0,0,1.2061786,61.727197,-1332.3163)" />
    <linearGradient
       x1="140.52614"
       y1="1255.219"
       x2="124.65959"
       y2="1255.219"
       id="linearGradient8138"
       xlink:href="#linearGradient8666-2"
       gradientUnits="userSpaceOnUse"
       gradientTransform="translate(-28.255668,0.48706582)" />
    <linearGradient
       id="linearGradient8666-2">
      <stop
         id="stop8668-5"
         style="stop-color:#4d4d4d;stop-opacity:1"
         offset="0" />
      <stop
         id="stop8670-2"
         style="stop-color:#f2f2f2;stop-opacity:1"
         offset="1" />
    </linearGradient>
    <linearGradient
       x1="140.52614"
       y1="1255.219"
       x2="124.65959"
       y2="1255.219"
       id="linearGradient7008"
       xlink:href="#linearGradient8666-2"
       gradientUnits="userSpaceOnUse"
       gradientTransform="translate(-28.255668,0.48706582)" />
  </defs>
  <g
     transform="matrix(1.2061786,0,0,1.2061786,-114.73727,-1503.7941)"
     id="g7999"
     style="display:inline">
    <path
       d="m 96.244324,1247.8309 0,16.5313 15.999996,0 0,-16 z"
       id="path8001"
       style="fill:#1a1a1a;fill-opacity:1;stroke:none;display:inline" />
    <path
       d="m 103.08807,1249.2806 2.3125,0 0,1.5 c 0.41289,0.1069 0.76543,0.2894 1.125,0.5 l 1.09375,-1.0625 2.39167,1.4583 -1.0625,1.0625 c 0.20629,0.3523 0.39302,0.7215 0.5,1.125 l 1.46875,0 0.2,3.2565 -1.46875,0 c -0.10582,0.4075 -0.26135,0.7707 -0.46875,1.125 l 1.03125,1.0938 -1.625,1.625 -2.06042,-1.1958 c -0.35963,0.208 -0.71217,0.3948 -1.125,0.5 l 0,1.4687 -2.3125,0 0,-1.4687 c -0.41283,-0.1052 -0.76537,-0.292 -1.125,-0.5 l -2.127083,1.0625 -1.624996,-1.625 1.031246,-1.0938 c -0.2074,-0.3543 -0.362926,-0.7175 -0.468746,-1.125 l -1.46875,0 0.03333,-3.3565 1.46875,0 c 0.10698,-0.4035 0.293706,-0.7727 0.499996,-1.125 l -1.062496,-1.0625 2.624999,-1.225 1.09375,1.0625 c 0.35957,-0.2106 0.71211,-0.3931 1.125,-0.5 z"
       id="path8003"
       style="fill:#1a1a1a;fill-opacity:1;stroke:none;display:inline" />
    <path
       d="m 104.24432,1253.8473 c -1.06841,0 -1.9375,0.9153 -1.9375,1.9836 0,1.0684 0.86909,1.9062 1.9375,1.9062 1.06841,0 1.9375,-0.8378 1.9375,-1.9062 0,-1.0683 -0.86909,-1.9836 -1.9375,-1.9836 z"
       id="path8005"
       style="fill:#1a1a1a;fill-opacity:1;stroke:none;display:inline" />
    <path
       d="m 96.244324,1247.3622 0,16 15.999996,0 0,-16 -15.999996,0 z m 6.843746,2.0625 2.3125,0 0,1.5 c 0.41289,0.1069 0.76543,0.2894 1.125,0.5 l 1.09375,-1.0625 1.625,1.625 -1.0625,1.0625 c 0.20629,0.3523 0.39302,0.7215 0.5,1.125 l 1.46875,0 0,2.3437 -1.46875,0 c -0.10582,0.4075 -0.26135,0.7707 -0.46875,1.125 l 1.03125,1.0938 -1.625,1.625 -1.09375,-1.0625 c -0.35963,0.208 -0.71217,0.3948 -1.125,0.5 l 0,1.4687 -2.3125,0 0,-1.4687 c -0.41283,-0.1052 -0.76537,-0.292 -1.125,-0.5 l -1.09375,1.0625 -1.624996,-1.625 1.031246,-1.0938 c -0.2074,-0.3543 -0.362926,-0.7175 -0.468746,-1.125 l -1.46875,0 0,-2.3437 1.46875,0 c 0.10698,-0.4035 0.293706,-0.7727 0.499996,-1.125 l -1.062496,-1.0625 1.624996,-1.625 1.09375,1.0625 c 0.35957,-0.2106 0.71211,-0.3931 1.125,-0.5 l 0,-1.5 z m 1.15625,4 c -1.06841,0 -1.9375,0.8692 -1.9375,1.9375 0,1.0684 0.86909,1.9062 1.9375,1.9062 1.06841,0 1.9375,-0.8378 1.9375,-1.9062 0,-1.0683 -0.86909,-1.9375 -1.9375,-1.9375 z"
       id="path8007"
       style="fill:url(#linearGradient7008);fill-opacity:1;stroke:none;display:inline" />
  </g>
</svg>
