<svg xmlns:dc="http://purl.org/dc/elements/1.1/" xmlns:cc="http://creativecommons.org/ns#" xmlns:rdf="http://www.w3.org/1999/02/22-rdf-syntax-ns#" xmlns="http://www.w3.org/2000/svg" xmlns:xlink="http://www.w3.org/1999/xlink" width="32" height="32" viewBox="0 0 32 32" version="1.1" id="svg820"><defs id="defs814"><linearGradient xlink:href="#linearGradient4424" id="linearGradient4358" x1="401.57144" y1="535.79797" x2="401.57144" y2="520.79797" gradientUnits="userSpaceOnUse" gradientTransform="matrix(1.25 0 0 1.2 -484.714 468.561)"/><linearGradient id="linearGradient4424"><stop id="stop4426" offset="0" style="stop-color:#60a5e7;stop-opacity:0"/><stop id="stop4428" offset="1" style="stop-color:#a6f3fb;stop-opacity:.25773194"/></linearGradient></defs><metadata id="metadata817"><rdf:RDF><cc:Work><dc:format>image/svg+xml</dc:format><dc:type rdf:resource="http://purl.org/dc/dcmitype/StillImage"/><dc:title/><dc:date>2021</dc:date><dc:creator><cc:Agent><dc:title>Timothée Giet</dc:title></cc:Agent></dc:creator><cc:license rdf:resource="http://creativecommons.org/licenses/by-sa/4.0/"/></cc:Work><cc:License rdf:about="http://creativecommons.org/licenses/by-sa/4.0/"><cc:permits rdf:resource="http://creativecommons.org/ns#Reproduction"/><cc:permits rdf:resource="http://creativecommons.org/ns#Distribution"/><cc:requires rdf:resource="http://creativecommons.org/ns#Notice"/><cc:requires rdf:resource="http://creativecommons.org/ns#Attribution"/><cc:permits rdf:resource="http://creativecommons.org/ns#DerivativeWorks"/><cc:requires rdf:resource="http://creativecommons.org/ns#ShareAlike"/></cc:License></rdf:RDF></metadata><g id="layer1" transform="translate(.072 -1091.192)"><path style="opacity:1;vector-effect:none;fill:#d2d2d2;fill-opacity:1;stroke:none;stroke-width:2;stroke-linecap:butt;stroke-linejoin:bevel;stroke-miterlimit:4;stroke-dasharray:none;stroke-dashoffset:3.20000005;stroke-opacity:1" d="m17.198 1099.53-1.65 2.858a7 7 30 0 0-1.42-.187l-.854-3.186-3.863 1.035.852 3.18a7 7 30 0 0-1.14.877l-2.853-1.648-2 3.464 2.857 1.65a7 7 30 0 0-.187 1.42l-3.186.854 1.036 3.864 3.18-.853a7 7 30 0 0 .876 1.14l-1.648 2.853 3.464 2 1.65-2.857a7 7 30 0 0 1.421.187l.854 3.186 3.863-1.035-.852-3.18a7 7 30 0 0 1.14-.876l2.853 1.647 2-3.464-2.857-1.65a7 7 30 0 0 .186-1.42l3.186-.854-1.035-3.864-3.18.853a7 7 30 0 0-.876-1.14l1.647-2.853zm-1.268 6.197a4 4 0 0 1 1.464 5.464 4 4 0 0 1-5.464 1.464 4 4 0 0 1-1.464-5.464 4 4 0 0 1 5.464-1.464z" id="rect2175-7"/><path style="opacity:1;vector-effect:none;fill:#d2d2d2;fill-opacity:1;stroke:none;stroke-width:2;stroke-linecap:butt;stroke-linejoin:bevel;stroke-miterlimit:4;stroke-dasharray:none;stroke-dashoffset:3.20000005;stroke-opacity:1" d="m18.585 1096.867.98.566a4 4 0 0 0 1.05 3.917l-.566.981 1.732 1 .566-.979a4 4 0 0 0 3.917-1.05l.982.567 1-1.732-.98-.566a4 4 0 0 0-1.051-3.917l.566-.982-1.732-1-.565.98a4 4 0 0 0-3.918 1.05l-.981-.567zm3.098.634a2 2 30 0 1 2.732-.732 2 2 30 0 1 .732 2.732 2 2 30 0 1-2.732.732 2 2 30 0 1-.732-2.732z" id="rect2261"/></g></svg>