<svg width="22" height="22" viewBox="0 0 22 22" fill="none" xmlns="http://www.w3.org/2000/svg" xmlns:dc="http://purl.org/dc/elements/1.1/" xmlns:cc="http://creativecommons.org/ns#" xmlns:rdf="http://www.w3.org/1999/02/22-rdf-syntax-ns#"><metadata id="metadata7"><rdf:RDF><cc:Work><dc:format>image/svg+xml</dc:format><dc:type rdf:resource="http://purl.org/dc/dcmitype/StillImage"/><dc:date>2026</dc:date><dc:creator><cc:Agent><dc:title>Timothée Giet and superfurryfrog</dc:title></cc:Agent></dc:creator><cc:license rdf:resource="http://creativecommons.org/licenses/by-sa/4.0/"/></cc:Work><cc:License rdf:about="http://creativecommons.org/licenses/by-sa/4.0/"><cc:permits rdf:resource="http://creativecommons.org/ns#Reproduction"/><cc:permits rdf:resource="http://creativecommons.org/ns#Distribution"/><cc:requires rdf:resource="http://creativecommons.org/ns#Notice"/><cc:requires rdf:resource="http://creativecommons.org/ns#Attribution"/><cc:permits rdf:resource="http://creativecommons.org/ns#DerivativeWorks"/><cc:requires rdf:resource="http://creativecommons.org/ns#ShareAlike"/></cc:License></rdf:RDF></metadata><path d="M20 4v13h-5.864l-.834-1 .834-1H16V7.236l1-2V7h2V5h-1.882l.5-1H20zm-7.118 0-1 2H6v9h1.864l.833 1-.833 1H2V4h10.882zM3 14v2h2v-2H3zm14 0v2h2v-2h-2zM3 11v2h2v-2H3zm14 0v2h2v-2h-2zM3 8v2h2V8H3zm14 0v2h2V8h-2zM3 5v2h2V5H3z" fill="#D2D2D2"/><path fill-rule="evenodd" clip-rule="evenodd" d="m15 2-4 8v2l2-1 4-8-2-1z" fill="#D2D2D2"/><path fill-rule="evenodd" clip-rule="evenodd" d="M7.5 13h2l5 6h-2l-5-6z" fill="#D2D2D2"/><path fill-rule="evenodd" clip-rule="evenodd" d="M14.5 13h-2l-5 6h2l5-6z" fill="#D2D2D2"/></svg>