<svg width="16" height="16" viewBox="0 0 16 16" fill="none" xmlns="http://www.w3.org/2000/svg" xmlns:dc="http://purl.org/dc/elements/1.1/" xmlns:cc="http://creativecommons.org/ns#" xmlns:rdf="http://www.w3.org/1999/02/22-rdf-syntax-ns#"><metadata id="metadata7"><rdf:RDF><cc:Work><dc:format>image/svg+xml</dc:format><dc:type rdf:resource="http://purl.org/dc/dcmitype/StillImage"/><dc:date>2026</dc:date><dc:creator><cc:Agent><dc:title>superfurryfrog</dc:title></cc:Agent></dc:creator><cc:license rdf:resource="http://creativecommons.org/licenses/by-sa/4.0/"/></cc:Work><cc:License rdf:about="http://creativecommons.org/licenses/by-sa/4.0/"><cc:permits rdf:resource="http://creativecommons.org/ns#Reproduction"/><cc:permits rdf:resource="http://creativecommons.org/ns#Distribution"/><cc:requires rdf:resource="http://creativecommons.org/ns#Notice"/><cc:requires rdf:resource="http://creativecommons.org/ns#Attribution"/><cc:permits rdf:resource="http://creativecommons.org/ns#DerivativeWorks"/><cc:requires rdf:resource="http://creativecommons.org/ns#ShareAlike"/></cc:License></rdf:RDF></metadata><path d="M9 16H8l2-8h1l-2 8z" fill="#D2D2D2"/><path d="M3 11.5 7 9v1.25L4.5 12 7 13.75V15l-4-2.5v-1z" fill="#D2D2D2"/><path d="M16 11.5 12 9v1.25L14.5 12 12 13.75V15l4-2.429V11.5z" fill="#D2D2D2"/><path d="M2.568 0C1.682-.02.811.385.336 1.125c-.69 1.076-.282 2.453.914 3.074.457.238.962.33 1.451.293L1 7h1l2.492-3.389.004-.004a2.28 2.28 0 0 0 .17-.232c.69-1.076.28-2.451-.916-3.072A2.698 2.698 0 0 0 2.568 0zm-.027 1c.242.005.485.06.709.168.717.345.963 1.11.549 1.707-.414.598-1.332.802-2.049.457-.717-.345-.963-1.11-.549-1.707.285-.411.808-.637 1.34-.625z" fill="#D2D2D2"/></svg>
