<?xml version="1.0" encoding="UTF-8"?>
<svg width="16" height="16" version="1.1" viewBox="0 0 16 16" xmlns="http://www.w3.org/2000/svg">
 <g fill="#d2d2d2" stroke-width=".82858px">
  <path transform="matrix(1.1485 0 0 1.2471 -1.233 -1.917)" d="m6.298 4.744-5.224 2.64.743.377 1.404.709-2.147 1.085 2.147 1.086-2.147 1.085 5.224 2.64 5.224-2.64-2.148-1.085 2.148-1.086L9.374 8.47l2.148-1.085zm0 .938 3.365 1.703L8.445 8 6.297 9.085 4.15 8l-1.218-.615zM4.15 8.94l2.148 1.085L8.445 8.94l1.218.615-1.218.616-2.147 1.087L4.15 10.17l-1.218-.616zm0 2.17 2.148 1.086 2.147-1.086 1.218.616-3.365 1.702-3.366-1.702z" fill-opacity=".4" style="-inkscape-stroke:none"/>
 </g>
 <g transform="matrix(-.20429 -.74483 -.77578 .203 18.624 11.315)" fill="#d2d2d2" stroke-width="1.2707">
  <path d="m8.338 4.35a0.5 0.5 0 0 0-0.342 0.146l-7 7a0.5 0.5 0 0 0-0.142 0.299l-0.35 3.15a0.5 0.5 0 0 0 0.55 0.551l3.2-0.35a0.5 0.5 0 0 0 0.299-0.142l7-7a0.5 0.5 0 0 0-2e-3 -0.711l-2.851-2.799a0.5 0.5 0 0 0-0.363-0.144zm0.016 1.205 2.136 2.097-6.52 6.52-2.406 0.264 0.264-2.356z" color="#000000" color-rendering="auto" dominant-baseline="auto" image-rendering="auto" shape-rendering="auto" solid-color="#000000" style="font-feature-settings:normal;font-variant-alternates:normal;font-variant-caps:normal;font-variant-ligatures:normal;font-variant-numeric:normal;font-variant-position:normal;isolation:auto;mix-blend-mode:normal;shape-padding:0;text-decoration-color:#000000;text-decoration-line:none;text-decoration-style:solid;text-indent:0;text-orientation:mixed;text-transform:none;white-space:normal"/>
  <rect class="st1" transform="rotate(-45)" x="1.9802" y="6.8361" width="2" height="8.9998" stroke-width=".63535"/>
  <path class="st1" d="m12.6 7.65-4.25-4.25 2.45-2.45c1.15-1.15 3.05-1.15 4.25 0 1.15 1.15 1.15 3.05 0 4.25z" stroke-width=".63536"/>
 </g>
</svg>
