<?xml version="1.0" encoding="UTF-8"?>
<svg width="16" height="16" version="1.1" viewBox="0 0 16 16" xmlns="http://www.w3.org/2000/svg">
 <g transform="matrix(1.1485,0,0,1.2471,-1.2331,-1.9166)" fill="#d2d2d2" stroke-width=".82858px">
  <rect x="1.0737" y="1.5368" width="13.931" height="12.83" fill-opacity=".25"/>
  <path d="m1.0736 1.5368v12.831h13.931v-12.831h-13.931zm0.83495 0.83633h2.4096c-0.27857 1.9343 0.041412 3.9495 1.046 5.6778 0.80261 1.428 1.7973 2.8413 1.9318 4.4896-0.049857 0.34271 0.32823 1.1413-0.31238 0.99108h-5.0751c-6.1e-6 -3.7195-1.22e-5 -7.439-1.83e-5 -11.159zm3.253 0h9.0061v2.8535c-2.578 1.0044-5.1559 2.0088-7.7339 3.0132-0.85955-1.3706-1.4196-2.9259-1.3703-4.5228 0.0018156-0.44922 0.035454-0.89877 0.098093-1.3438zm9.0061 3.7524v7.4061h-5.9943c0.071173-1.6024-0.46026-3.177-1.3128-4.5605 2.4357-0.94854 4.8714-1.8971 7.3071-2.8456z" color="#000000" stroke-width=".69232px" style="-inkscape-stroke:none"/>
 </g>
</svg>
