<svg xmlns:dc="http://purl.org/dc/elements/1.1/" xmlns:cc="http://creativecommons.org/ns#" xmlns:rdf="http://www.w3.org/1999/02/22-rdf-syntax-ns#" xmlns="http://www.w3.org/2000/svg" version="1.1" id="svg2" viewBox="0 0 16 16" height="16" width="16"><metadata id="metadata7"><rdf:RDF><cc:Work><dc:format>image/svg+xml</dc:format><dc:type rdf:resource="http://purl.org/dc/dcmitype/StillImage"/><dc:title/><dc:date>2021</dc:date><dc:creator><cc:Agent><dc:title>Timothée Giet</dc:title></cc:Agent></dc:creator><cc:license rdf:resource="http://creativecommons.org/licenses/by-sa/4.0/"/></cc:Work><cc:License rdf:about="http://creativecommons.org/licenses/by-sa/4.0/"><cc:permits rdf:resource="http://creativecommons.org/ns#Reproduction"/><cc:permits rdf:resource="http://creativecommons.org/ns#Distribution"/><cc:requires rdf:resource="http://creativecommons.org/ns#Notice"/><cc:requires rdf:resource="http://creativecommons.org/ns#Attribution"/><cc:permits rdf:resource="http://creativecommons.org/ns#DerivativeWorks"/><cc:requires rdf:resource="http://creativecommons.org/ns#ShareAlike"/></cc:License></rdf:RDF></metadata><circle r="6" cy="8" cx="9" id="path1057" style="opacity:1;vector-effect:none;fill:#d2d2d2;fill-opacity:.50196081;stroke:none;stroke-width:4;stroke-linecap:square;stroke-linejoin:round;stroke-miterlimit:4;stroke-dasharray:none;stroke-dashoffset:3.20000005;stroke-opacity:1"/><path id="path1012" d="M4.78 2.424a7 7 0 0 0-2.258 2.942l1.848.751a5 5 0 0 1 1.616-2.099zm1.502-.866.776 1.84a5 5 0 0 1 2.627-.345l.273-1.984a7 7 0 0 0-3.676.49zM2.07 7.042a7 7 0 0 0 .49 3.676l1.839-.776a5 5 0 0 1-.345-2.627zm9.565-5.52-.751 1.848a5 5 0 0 1 2.099 1.616l1.594-1.207a7 7 0 0 0-2.942-2.257zm-6.616 9.492L3.424 12.22a7 7 0 0 0 2.942 2.257l.751-1.848a5 5 0 0 1-2.099-1.616zm8.584-4.956a5 5 0 0 1 .345 2.627l1.984.273a7 7 0 0 0-.49-3.676zm-5.287 6.889-.273 1.984a7 7 0 0 0 3.676-.49l-.776-1.839a5 5 0 0 1-2.627.345zm5.315-3.064a5 5 0 0 1-1.616 2.099l1.207 1.594a7 7 0 0 0 2.257-2.942z" style="opacity:1;vector-effect:none;fill:#d2d2d2;fill-opacity:1;stroke:none;stroke-width:4;stroke-linecap:square;stroke-linejoin:round;stroke-miterlimit:4;stroke-dasharray:none;stroke-dashoffset:3.20000005;stroke-opacity:1"/></svg>