<svg xmlns:dc="http://purl.org/dc/elements/1.1/" xmlns:cc="http://creativecommons.org/ns#" xmlns:rdf="http://www.w3.org/1999/02/22-rdf-syntax-ns#" xmlns="http://www.w3.org/2000/svg" height="16" width="16" version="1.1" viewBox="0 0 16 16" data-name="Layer 2" id="Layer_2"><metadata id="metadata17"><rdf:RDF><cc:Work><dc:format>image/svg+xml</dc:format><dc:type rdf:resource="http://purl.org/dc/dcmitype/StillImage"/><dc:title/><dc:creator><cc:Agent><dc:title>Andrei Rudenko</dc:title></cc:Agent></dc:creator><dc:date>2021</dc:date><cc:license rdf:resource="http://creativecommons.org/licenses/by-sa/4.0/"/></cc:Work><cc:License rdf:about="http://creativecommons.org/licenses/by-sa/4.0/"><cc:permits rdf:resource="http://creativecommons.org/ns#Reproduction"/><cc:permits rdf:resource="http://creativecommons.org/ns#Distribution"/><cc:requires rdf:resource="http://creativecommons.org/ns#Notice"/><cc:requires rdf:resource="http://creativecommons.org/ns#Attribution"/><cc:permits rdf:resource="http://creativecommons.org/ns#DerivativeWorks"/><cc:requires rdf:resource="http://creativecommons.org/ns#ShareAlike"/></cc:License></rdf:RDF></metadata><defs id="defs4"><style id="style2">.cls-1,.cls-2{fill:#cacaca}.cls-2{fill-rule:evenodd}</style></defs><path style="fill:#373737;stroke-width:.5;fill-opacity:1" d="M5.85 9.09a2 2 0 0 0-1.585 2.11c.035.865-.895 1.55-1.475 1.665a3.685 3.685 0 0 0 3 .5c1.535-.31 2.58-1.5 2.305-2.885A1.77 1.77 0 0 0 5.85 9.09z" class="cls-1" id="path6"/><path style="fill:#373737;fill-rule:evenodd;stroke-width:.5;fill-opacity:1" d="M7 8.545a2 2 0 0 1 1.5 1.26c.075.26.72-.28.625-.65A2.045 2.045 0 0 0 7.36 7.89c-.255.005-.55.645-.36.655z" class="cls-2" id="path4174-1"/><path style="fill:#373737;fill-rule:evenodd;stroke-width:.5;fill-opacity:1" id="path8" d="M16 0v4.75c-.81 2.295-1.745 4.7-1.84 4.595a2.22 2.22 0 0 0-2-.525 22.855 22.855 0 0 1 .715-3.32c-1.83 1.845-3.38 3.34-3.41 3.235A2.22 2.22 0 0 0 7.89 7.42c-.08 0 1.335-1.75 3.055-3.775C9.24 4.3 7.79 4.8 7.805 4.69a2.19 2.19 0 0 0-.87-1.85c-.105-.06 2.85-1.68 5.22-2.815z" class="cls-2"/><path style="fill:#373737;stroke-width:.5;fill-opacity:1" d="M4.37 3.5a2 2 0 0 0-2.325 1.225c-.335.8-1.465 1.03-2.045.89a3.705 3.705 0 0 0 2.5 1.73c1.525.365 3-.275 3.305-1.64A1.765 1.765 0 0 0 4.37 3.5z" class="cls-1" id="path6-8"/><path style="fill:#373737;fill-rule:evenodd;stroke-width:.5;fill-opacity:1" d="M5.645 3.5a2 2 0 0 1 .815 1.765c-.045.27.77.05.835-.325a2.035 2.035 0 0 0-1.06-1.89c-.235-.12-.735.335-.59.45z" class="cls-2" id="path4174-1-6"/><path style="fill:#373737;stroke-width:.5;fill-opacity:1" d="M11.045 11.215a2 2 0 0 0-.545 2.58c.395.77-.155 1.785-.635 2.135a3.68 3.68 0 0 0 2.94-.805c1.255-.93 1.7-2.455.865-3.585a1.765 1.765 0 0 0-2.625-.325z" class="cls-1" id="path6-8-5"/><path style="fill:#373737;fill-rule:evenodd;stroke-width:.5;fill-opacity:1" d="M11.86 10.235a2 2 0 0 1 1.875.5c.18.2.535-.56.29-.855a2.045 2.045 0 0 0-2.135-.4c-.215.12-.215.825-.03.755z" class="cls-2" id="path4174-1-6-1"/></svg>