<svg xmlns:dc="http://purl.org/dc/elements/1.1/" xmlns:cc="http://creativecommons.org/ns#" xmlns:rdf="http://www.w3.org/1999/02/22-rdf-syntax-ns#" xmlns="http://www.w3.org/2000/svg" width="16" height="16" version="1.1" viewBox="0 0 16 16" id="svg10"><metadata id="metadata16"><rdf:RDF><cc:Work><dc:format>image/svg+xml</dc:format><dc:type rdf:resource="http://purl.org/dc/dcmitype/StillImage"/><dc:title/><dc:date>2022</dc:date><dc:creator><cc:Agent><dc:title>Timothée Giet</dc:title></cc:Agent></dc:creator><cc:license rdf:resource="http://creativecommons.org/licenses/by-sa/4.0/"/></cc:Work><cc:License rdf:about="http://creativecommons.org/licenses/by-sa/4.0/"><cc:permits rdf:resource="http://creativecommons.org/ns#Reproduction"/><cc:permits rdf:resource="http://creativecommons.org/ns#Distribution"/><cc:requires rdf:resource="http://creativecommons.org/ns#Notice"/><cc:requires rdf:resource="http://creativecommons.org/ns#Attribution"/><cc:permits rdf:resource="http://creativecommons.org/ns#DerivativeWorks"/><cc:requires rdf:resource="http://creativecommons.org/ns#ShareAlike"/></cc:License></rdf:RDF></metadata><path id="path47" style="fill:#373737;fill-opacity:1;fill-rule:evenodd" d="M4 8a4 4 0 1 0 8 0c0-2.21-1.79-4-4.018-3.983A3.984 3.984 0 0 0 4 8zm3.984-2.986A2.982 2.982 0 0 1 11 8H5a2.986 2.986 0 0 1 2.984-2.986z"/><path style="fill:#373737;fill-opacity:1;stroke-width:.499998" id="path6" d="M8 0a8 8 0 0 0-1.94.24l.5 1.94a5.97 5.97 0 0 1 2.91 0l.5-1.94A8 8 0 0 0 8 0zM3.885 1.14l1.03 1.715a5.86 5.86 0 0 0-2.06 2.06L1.14 3.885A8.07 8.07 0 0 1 3.885 1.14zM.24 6.06l1.94.5a5.97 5.97 0 0 0 0 2.91l-1.94.5a7.96 7.96 0 0 1 0-3.88zm.9 6.055 1.715-1.03a5.86 5.86 0 0 0 2.06 2.06l-1.03 1.715a8.07 8.07 0 0 1-2.745-2.745zm4.92 3.645.5-1.94a5.97 5.97 0 0 0 2.91 0l.5 1.94a7.96 7.96 0 0 1-3.88 0zm6.055-.9-1.03-1.715a5.86 5.86 0 0 0 2.06-2.06l1.715 1.03a8.07 8.07 0 0 1-2.745 2.745zm3.645-4.92-1.94-.5a5.97 5.97 0 0 0 0-2.91l1.94-.5a7.96 7.96 0 0 1 0 3.88zm-.9-6.055-1.715 1.03a5.86 5.86 0 0 0-2.06-2.06l1.03-1.715a8.07 8.07 0 0 1 2.745 2.745z" class="cls-1"/></svg>