<svg xmlns:dc="http://purl.org/dc/elements/1.1/" xmlns:cc="http://creativecommons.org/ns#" xmlns:rdf="http://www.w3.org/1999/02/22-rdf-syntax-ns#" xmlns="http://www.w3.org/2000/svg" height="16" width="16" xml:space="preserve" viewBox="0 0 16 16" y="0px" x="0px" id="Layer_2_1_" version="1.1"><metadata id="metadata16"><rdf:RDF><cc:Work><dc:format>image/svg+xml</dc:format><dc:type rdf:resource="http://purl.org/dc/dcmitype/StillImage"/><dc:title/><dc:date>2021</dc:date><dc:creator><cc:Agent><dc:title>Andrei Rudenko and Timothée Giet</dc:title></cc:Agent></dc:creator><cc:license rdf:resource="http://creativecommons.org/licenses/by-sa/4.0/"/></cc:Work><cc:License rdf:about="http://creativecommons.org/licenses/by-sa/4.0/"><cc:permits rdf:resource="http://creativecommons.org/ns#Reproduction"/><cc:permits rdf:resource="http://creativecommons.org/ns#Distribution"/><cc:requires rdf:resource="http://creativecommons.org/ns#Notice"/><cc:requires rdf:resource="http://creativecommons.org/ns#Attribution"/><cc:permits rdf:resource="http://creativecommons.org/ns#DerivativeWorks"/><cc:requires rdf:resource="http://creativecommons.org/ns#ShareAlike"/></cc:License></rdf:RDF></metadata><style id="style2" type="text/css">.st0{fill:#cacaca}</style><path style="fill:#373737;stroke-width:.5;fill-opacity:1" d="M0 0v4h2V2h2V0zm0 6v4h2V6zm0 6v4h4v-2H2v-2zm14 0v2h-2v2h4v-4zm-8 2v2h4v-2z" class="st0" id="rect4883"/><path id="path5" d="M9.648 3.75a.5.5 0 0 0-.351.146l-4.75 4.75a.5.5 0 0 0-.14.276l-.401 2.5a.5.5 0 0 0 .562.574l2.5-.351a.5.5 0 0 0 .286-.141l4.75-4.75a.5.5 0 0 0 .003-.703l-2.1-2.15a.5.5 0 0 0-.359-.151zm-.002 1.21 1.4 1.436-4.28 4.282-1.664.232.265-1.672z" style="color:#000;font-style:normal;font-variant:normal;font-weight:400;font-stretch:normal;font-size:medium;line-height:normal;font-family:sans-serif;font-variant-ligatures:normal;font-variant-position:normal;font-variant-caps:normal;font-variant-numeric:normal;font-variant-alternates:normal;font-feature-settings:normal;text-indent:0;text-align:start;text-decoration:none;text-decoration-line:none;text-decoration-style:solid;text-decoration-color:#000;letter-spacing:normal;word-spacing:normal;text-transform:none;writing-mode:lr-tb;direction:ltr;text-orientation:mixed;dominant-baseline:auto;baseline-shift:baseline;text-anchor:start;white-space:normal;shape-padding:0;clip-rule:nonzero;display:inline;overflow:visible;visibility:visible;opacity:1;isolation:auto;mix-blend-mode:normal;color-interpolation:sRGB;color-interpolation-filters:linearRGB;solid-color:#000;solid-opacity:1;vector-effect:none;fill:#373737;fill-opacity:1;fill-rule:nonzero;stroke:none;stroke-width:1;stroke-linecap:butt;stroke-linejoin:round;stroke-miterlimit:4;stroke-dasharray:none;stroke-dashoffset:0;stroke-opacity:1;color-rendering:auto;image-rendering:auto;shape-rendering:auto;text-rendering:auto;enable-background:accumulate"/><rect style="fill:#373737;stroke-width:.4999952;fill-opacity:1" id="rect7" height="7.9999232" width="1.9999808" class="st0" transform="rotate(-45)" y="7.3397331" x="3.3013825"/><path style="fill:#373737;stroke-width:.5;fill-opacity:1" id="path9" d="M12.8 6.75 9.25 3.2 11.7.75c1-1 2.55-1 3.55 0s1 2.55 0 3.55L12.8 6.75z" class="st0"/></svg>