<?xml version="1.0" standalone="no"?>
<!DOCTYPE svg PUBLIC "-//W3C//DTD SVG 20010904//EN" "http://www.w3.org/TR/2001/REC-SVG-20010904/DTD/svg10.dtd">
<!-- Created using Krita: https://krita.org -->
<svg xmlns="http://www.w3.org/2000/svg" 
    xmlns:xlink="http://www.w3.org/1999/xlink"
    xmlns:krita="http://krita.org/namespaces/svg/krita"
    xmlns:sodipodi="http://sodipodi.sourceforge.net/DTD/sodipodi-0.dtd"
    width="61.44pt"
    height="61.44pt"
    viewBox="0 0 61.44 61.44">
<defs/>
<path id="shape0" transform="matrix(0.0751599025787525 -0.99717149429993 -0.99717149429993 -0.0751599025787525 50.6870976685865 47.4352637643834)" fill="#373737" fill-rule="evenodd" stroke-opacity="0" stroke="#000000" stroke-width="0" stroke-linecap="square" stroke-linejoin="bevel" d="M28.8 1.92C24.5131 7.43148 18.4611 18.6506 15.36 23.04C14.032 24.9197 11.5208 23.0449 11.52 23.04C11.5129 23.0378 7.67289 30.0778 6.17365e-06 44.16C0.00486402 44.1604 0.00486402 46.0804 6.17365e-06 49.92C-0.00689281 49.9073 5.77066 46.0721 5.76001 46.08C5.76691 46.0721 12.2338 31.2196 16.7932 25.1404L13.44 19.2L23.04 3.84L28.8 2.25162e-15C28.77 -4.38337e-08 28.77 0.64 28.8 1.92Z" sodipodi:nodetypes="ccccccccccc"/><path id="shape01" transform="matrix(0.997219564281803 -0.0745193975660873 0.0745193975660873 0.997219564281803 13.5400341110883 10.9824790004781)" fill="#373737" fill-rule="evenodd" stroke-opacity="0" stroke="#000000" stroke-width="0" stroke-linecap="square" stroke-linejoin="bevel" d="M28.8 1.92C24.5131 7.43148 18.4611 18.6506 15.36 23.04C14.032 24.9197 11.5208 23.0449 11.52 23.04C11.5129 23.0378 7.67289 30.0778 6.17365e-06 44.16C0.00486402 44.1604 0.00486402 46.0804 6.17365e-06 49.92C-0.00689281 49.9073 5.77066 46.0721 5.76001 46.08C5.76691 46.0721 12.7305 31.0145 17.2899 24.9353L13.44 19.2L23.04 3.84L28.8 2.25162e-15C28.77 -4.38337e-08 28.77 0.64 28.8 1.92Z" sodipodi:nodetypes="ccccccccccc"/><circle id="shape02" transform="translate(48, 19.2)" r="5.76" cx="5.76" cy="5.76" fill="none" stroke="#373737" stroke-width="1.92" stroke-linecap="square" stroke-linejoin="bevel"/><path id="shape011" transform="matrix(0.833333333333333 0 0 0.833333333333333 24.72 27.12)" sodipodi:type="arc" sodipodi:rx="5.76" sodipodi:ry="5.76" sodipodi:cx="5.76" sodipodi:cy="5.76" sodipodi:start="6.28318530717959" sodipodi:end="0" sodipodi:open="true" d="M11.52 5.76C11.52 2.57884 8.94116 4.84847e-15 5.76 -1.77636e-15C2.57884 -8.40118e-15 6.81961e-15 2.57884 0 5.76C-6.81961e-15 8.94116 2.57884 11.52 5.76 11.52C8.94116 11.52 11.52 8.94116 11.52 5.76Z" fill="#373737" stroke-opacity="0" stroke="#000000" stroke-width="0" stroke-linecap="square" stroke-linejoin="bevel"/><circle id="shape03" transform="translate(30.72, 1.92)" r="5.76" cx="5.76" cy="5.76" fill="none" stroke="#373737" stroke-width="1.92" stroke-linecap="square" stroke-linejoin="bevel"/>
</svg>
