<?xml version="1.0" encoding="UTF-8" standalone="no"?>
<svg
   xmlns:dc="http://purl.org/dc/elements/1.1/"
   xmlns:cc="http://creativecommons.org/ns#"
   xmlns:rdf="http://www.w3.org/1999/02/22-rdf-syntax-ns#"
   xmlns:svg="http://www.w3.org/2000/svg"
   xmlns="http://www.w3.org/2000/svg"
   height="16"
   width="16"
   version="1.1"
   viewBox="0 0 16 16"
   data-name="Layer 2"
   id="Layer_2">
  <metadata
     id="metadata17">
    <rdf:RDF>
      <cc:Work
         rdf:about="">
        <dc:format>image/svg+xml</dc:format>
        <dc:type
           rdf:resource="http://purl.org/dc/dcmitype/StillImage" />
        <dc:title></dc:title>
        <dc:creator>
          <cc:Agent>
            <dc:title>Andrei Rudenko</dc:title>
          </cc:Agent>
        </dc:creator>
        <dc:date>2021</dc:date>
        <cc:license
           rdf:resource="http://creativecommons.org/licenses/by-sa/4.0/" />
      </cc:Work>
      <cc:License
         rdf:about="http://creativecommons.org/licenses/by-sa/4.0/">
        <cc:permits
           rdf:resource="http://creativecommons.org/ns#Reproduction" />
        <cc:permits
           rdf:resource="http://creativecommons.org/ns#Distribution" />
        <cc:requires
           rdf:resource="http://creativecommons.org/ns#Notice" />
        <cc:requires
           rdf:resource="http://creativecommons.org/ns#Attribution" />
        <cc:permits
           rdf:resource="http://creativecommons.org/ns#DerivativeWorks" />
        <cc:requires
           rdf:resource="http://creativecommons.org/ns#ShareAlike" />
      </cc:License>
    </rdf:RDF>
  </metadata>
  <defs
     id="defs4">
    <style
       id="style2">.cls-1,.cls-2{fill:#cacaca;}.cls-2{fill-rule:evenodd;}</style>
  </defs>
  <path
     style="fill:#373737;stroke-width:0.5;fill-opacity:1"
     d="m 5.85,9.090137 a 2,2 0 0 0 -1.585,2.11 c 0.035,0.865 -0.895,1.55 -1.475,1.665 a 3.685,3.685 0 0 0 3,0.5 c 1.535,-0.31 2.58,-1.5 2.305,-2.885 a 1.77,1.77 0 0 0 -2.245,-1.39 z"
     class="cls-1"
     id="path6" />
  <path
     style="fill:#373737;fill-rule:evenodd;stroke-width:0.5;fill-opacity:1"
     d="m 7,8.545137 a 2,2 0 0 1 1.5,1.26 c 0.075,0.26 0.72,-0.28 0.625,-0.65 a 2.045,2.045 0 0 0 -1.765,-1.265 c -0.255,0.005 -0.55,0.645 -0.36,0.655 z"
     class="cls-2"
     id="path4174-1" />
  <path
     style="fill:#373737;fill-rule:evenodd;stroke-width:0.5;fill-opacity:1"
     id="path8"
     d="M 16,1.3700221e-4 V 4.750137 c -0.81,2.295 -1.745,4.7 -1.84,4.595 a 2.22,2.22 0 0 0 -2,-0.525 22.855,22.855 0 0 1 0.715,-3.32 c -1.83,1.845 -3.38,3.34 -3.41,3.235 a 2.22,2.22 0 0 0 -1.575,-1.315 c -0.08,0 1.335,-1.75 3.055,-3.775 -1.705,0.655 -3.155,1.155 -3.14,1.045 a 2.19,2.19 0 0 0 -0.87,-1.85 c -0.105,-0.06 2.85,-1.68 5.22,-2.815 z"
     class="cls-2" />
  <path
     style="fill:#373737;stroke-width:0.5;fill-opacity:1"
     d="m 4.37,3.500137 a 2,2 0 0 0 -2.325,1.225 c -0.335,0.8 -1.465,1.03 -2.045,0.89 a 3.705,3.705 0 0 0 2.5,1.73 c 1.525,0.365 3,-0.275 3.305,-1.64 a 1.765,1.765 0 0 0 -1.435,-2.205 z"
     class="cls-1"
     id="path6-8" />
  <path
     style="fill:#373737;fill-rule:evenodd;stroke-width:0.5;fill-opacity:1"
     d="m 5.645,3.500137 a 2,2 0 0 1 0.815,1.765 c -0.045,0.27 0.77,0.05 0.835,-0.325 a 2.035,2.035 0 0 0 -1.06,-1.89 c -0.235,-0.12 -0.735,0.335 -0.59,0.45 z"
     class="cls-2"
     id="path4174-1-6" />
  <path
     style="fill:#373737;stroke-width:0.5;fill-opacity:1"
     d="m 11.045,11.215137 a 2,2 0 0 0 -0.545,2.58 c 0.395,0.77 -0.155,1.785 -0.635,2.135 a 3.68,3.68 0 0 0 2.94,-0.805 c 1.255,-0.93 1.7,-2.455 0.865,-3.585 a 1.765,1.765 0 0 0 -2.625,-0.325 z"
     class="cls-1"
     id="path6-8-5" />
  <path
     style="fill:#373737;fill-rule:evenodd;stroke-width:0.5;fill-opacity:1"
     d="m 11.86,10.235137 a 2,2 0 0 1 1.875,0.5 c 0.18,0.2 0.535,-0.56 0.29,-0.855 a 2.045,2.045 0 0 0 -2.135,-0.4 c -0.215,0.12 -0.215,0.825 -0.03,0.755 z"
     class="cls-2"
     id="path4174-1-6-1" />
</svg>
