<svg xmlns:dc="http://purl.org/dc/elements/1.1/" xmlns:cc="http://creativecommons.org/ns#" xmlns:rdf="http://www.w3.org/1999/02/22-rdf-syntax-ns#" xmlns="http://www.w3.org/2000/svg" width="32" height="32" viewBox="0 0 32 32.000001" id="svg2" version="1.1"><metadata id="metadata7"><rdf:RDF><cc:Work><dc:format>image/svg+xml</dc:format><dc:type rdf:resource="http://purl.org/dc/dcmitype/StillImage"/><dc:title/><dc:creator><cc:Agent><dc:title>Andrei Rudenko</dc:title></cc:Agent></dc:creator><cc:license rdf:resource="http://creativecommons.org/licenses/by-sa/4.0/"/></cc:Work><cc:License rdf:about="http://creativecommons.org/licenses/by-sa/4.0/"><cc:permits rdf:resource="http://creativecommons.org/ns#Reproduction"/><cc:permits rdf:resource="http://creativecommons.org/ns#Distribution"/><cc:requires rdf:resource="http://creativecommons.org/ns#Notice"/><cc:requires rdf:resource="http://creativecommons.org/ns#Attribution"/><cc:permits rdf:resource="http://creativecommons.org/ns#DerivativeWorks"/><cc:requires rdf:resource="http://creativecommons.org/ns#ShareAlike"/></cc:License></rdf:RDF></metadata><g id="g4710" style="display:inline"><path id="rect4712" d="M4 4v2h2V4zm2 2v2H4v6h2v-2h2v-2h2V8h2V6h2V4H8v2zm8 0v2h-2v2h-2v2H8v2H6v2H4v6h2v-2h2v-2h2v-2h2v-2h2v-2h2v-2h2V8h2V6h2V4h-6v2zm8 0v2h-2v2h-2v2h-2v2h-2v2h-2v2h-2v2H8v2H6v2H4v4h4v-2h2v-2h2v-2h2v-2h2v-2h2v-2h2v-2h2v-2h2v-2h2V8h2V4h-4v2zm4 4v2h-2v2h-2v2h-2v2h-2v2h-2v2h-2v2h-2v2h-2v2h6v-2h2v-2h2v-2h2v-2h2v-2h2v-2h2v-6zm0 8v2h-2v2h-2v2h-2v2h-2v2h6v-2h2v-2h2v-6zm0 8v2h2v-2z" style="opacity:1;fill:#373737;fill-opacity:1;stroke:none;stroke-width:4;stroke-linecap:square;stroke-linejoin:miter;stroke-miterlimit:4;stroke-dasharray:none;stroke-dashoffset:0;stroke-opacity:1"/><path id="rect4619" d="M0 0v32h32V0zm2 2h28v28H2z" style="opacity:1;fill:#373737;fill-opacity:1;stroke:none;stroke-width:4;stroke-linecap:square;stroke-linejoin:miter;stroke-miterlimit:4;stroke-dasharray:none;stroke-dashoffset:0;stroke-opacity:1"/></g></svg>