<?xml version="1.0" encoding="UTF-8" standalone="no"?>
<!-- Created with Inkscape (http://www.inkscape.org/) -->

<svg
   xmlns:dc="http://purl.org/dc/elements/1.1/"
   xmlns:cc="http://creativecommons.org/ns#"
   xmlns:rdf="http://www.w3.org/1999/02/22-rdf-syntax-ns#"
   xmlns:svg="http://www.w3.org/2000/svg"
   xmlns="http://www.w3.org/2000/svg"
   xmlns:sodipodi="http://sodipodi.sourceforge.net/DTD/sodipodi-0.dtd"
   xmlns:inkscape="http://www.inkscape.org/namespaces/inkscape"
   width="32"
   height="32"
   viewBox="0 0 32 32.000001"
   id="svg2"
   version="1.1"
   inkscape:version="0.91 r13725"
   sodipodi:docname="dark_artistic_text.svg"
   inkscape:export-filename="/run/media/andrei/C2942CC0942CB8B5/dribbble/krita icons/Collaborate/1_flat_dark/tools/light_draw-text.png"
   inkscape:export-xdpi="45"
   inkscape:export-ydpi="45">
  <defs
     id="defs4">
    <filter
       style="color-interpolation-filters:sRGB;"
       inkscape:label="Drop Shadow"
       id="filter4429">
      <feFlood
         flood-opacity="0.501961"
         flood-color="rgb(0,0,0)"
         result="flood"
         id="feFlood4431" />
      <feComposite
         in="flood"
         in2="SourceGraphic"
         operator="in"
         result="composite1"
         id="feComposite4433" />
      <feGaussianBlur
         in="composite1"
         stdDeviation="0"
         result="blur"
         id="feGaussianBlur4435" />
      <feOffset
         dx="0"
         dy="-2"
         result="offset"
         id="feOffset4437" />
      <feComposite
         in="SourceGraphic"
         in2="offset"
         operator="over"
         result="composite2"
         id="feComposite4439" />
    </filter>
    <filter
       style="color-interpolation-filters:sRGB;"
       inkscape:label="Drop Shadow"
       id="filter4326">
      <feFlood
         flood-opacity="0.501961"
         flood-color="rgb(0,0,0)"
         result="flood"
         id="feFlood4328" />
      <feComposite
         in="flood"
         in2="SourceGraphic"
         operator="in"
         result="composite1"
         id="feComposite4330" />
      <feGaussianBlur
         in="composite1"
         stdDeviation="0"
         result="blur"
         id="feGaussianBlur4332" />
      <feOffset
         dx="0"
         dy="-2"
         result="offset"
         id="feOffset4334" />
      <feComposite
         in="SourceGraphic"
         in2="offset"
         operator="over"
         result="composite2"
         id="feComposite4336" />
    </filter>
    <filter
       style="color-interpolation-filters:sRGB;"
       inkscape:label="Drop Shadow"
       id="filter5523">
      <feFlood
         flood-opacity="0.501961"
         flood-color="rgb(0,0,0)"
         result="flood"
         id="feFlood5525" />
      <feComposite
         in="flood"
         in2="SourceGraphic"
         operator="in"
         result="composite1"
         id="feComposite5527" />
      <feGaussianBlur
         in="composite1"
         stdDeviation="0"
         result="blur"
         id="feGaussianBlur5529" />
      <feOffset
         dx="0"
         dy="-2"
         result="offset"
         id="feOffset5531" />
      <feComposite
         in="SourceGraphic"
         in2="offset"
         operator="over"
         result="composite2"
         id="feComposite5533" />
    </filter>
  </defs>
  <sodipodi:namedview
     id="base"
     pagecolor="#474747"
     bordercolor="#666666"
     borderopacity="1.0"
     inkscape:pageopacity="0"
     inkscape:pageshadow="2"
     inkscape:zoom="7.9999999"
     inkscape:cx="27.589973"
     inkscape:cy="18.068852"
     inkscape:document-units="px"
     inkscape:current-layer="g4154"
     showgrid="false"
     units="px"
     inkscape:showpageshadow="false"
     showborder="true"
     inkscape:window-width="1149"
     inkscape:window-height="517"
     inkscape:window-x="2124"
     inkscape:window-y="367"
     inkscape:window-maximized="1"
     objecttolerance="20">
    <inkscape:grid
       type="xygrid"
       id="grid3336"
       dotted="false"
       empspacing="1"
       snapvisiblegridlinesonly="true"
       enabled="true"
       visible="true"
       empcolor="#aaaaff"
       empopacity="0.25098039"
       color="#7878ff"
       opacity="0.1254902"
       spacingx="2"
       spacingy="2.0000001" />
  </sodipodi:namedview>
  <metadata
     id="metadata7">
    <rdf:RDF>
      <cc:Work
         rdf:about="">
        <dc:format>image/svg+xml</dc:format>
        <dc:type
           rdf:resource="http://purl.org/dc/dcmitype/StillImage" />
        <dc:title />
        <dc:creator>
          <cc:Agent>
            <dc:title>Andrei Rudenko</dc:title>
          </cc:Agent>
        </dc:creator>
      </cc:Work>
    </rdf:RDF>
  </metadata>
  <g
     inkscape:groupmode="layer"
     id="layer3"
     inkscape:label="v1"
     style="display:none">
    <path
       style="opacity:1;fill:#cacaca;fill-opacity:1;stroke:none;stroke-width:2;stroke-linecap:square;stroke-linejoin:miter;stroke-miterlimit:4;stroke-dasharray:none;stroke-dashoffset:1;stroke-opacity:1"
       d="m 2,0 0,4 0,6 4,0 0,-2 C 6,5.9999995 8,4 12,4 l 2,0 0,22 c 0,1 -1,2 -2,2 l -2,0 0,4 4,0 4,0 4,0 0,-4 -2,0 c -1,0 -2,-1 -2,-2 l 0,-22 2,0 c 4,0 6,1.9999995 6,4 l 0,2 4,0 L 30,0 6,0 Z"
       id="rect4360"
       inkscape:connector-curvature="0"
       sodipodi:nodetypes="ccccssccccccccccccssccccc" />
  </g>
  <g
     style="display:inline"
     inkscape:label="v1 copy"
     id="g4154"
     inkscape:groupmode="layer">
    <path
       style="display:inline;fill:none;fill-rule:evenodd;stroke:#1e1e1e;stroke-width:2.03568077;stroke-linecap:butt;stroke-linejoin:miter;stroke-miterlimit:4;stroke-dasharray:none;stroke-opacity:1"
       d="m 30.109625,2.1497056 c 0,0 3.036297,11.4038404 -7.176455,21.4821874 -7.774523,7.672201 -21.2304316,5.830883 -21.2304316,5.830883"
       id="path4149-2"
       inkscape:connector-curvature="0"
       sodipodi:nodetypes="csc" />
    <path
       inkscape:connector-curvature="0"
       d="m 6.9842654,11.950882 c -0.511725,-0.375509 -0.885061,-0.594638 -1.137125,-0.634428 -0.2521,-0.03974 -0.543075,0.15815 -0.872919,0.593677 -0.60634,0.800613 -0.930911,1.482025 -0.973715,2.044237 -0.04436,0.550964 -0.0039,1.176235 0.12137,1.875826 0.123724,0.68833 0.07887,1.173406 -0.134567,1.455225 -0.460817,0.608463 -0.992252,0.684709 -1.594312,0.228742 -0.269005,-0.20373 -0.487258,-0.43455 -0.654782,-0.692429 -1.01687401,-1.092633 -1.52542699,-1.785182 -1.52566199,-2.077641 -6.2e-4,-0.212106 0.21735798,-0.606385 0.65392198,-1.182826 L 10.194394,1.2446616 c 0.436561,-0.57643603 0.754585,-0.88989503 0.954081,-0.94038503 0.464963,-0.121551 1.271835,0.177094 2.420619,0.89593903 0.295188,0.10262 0.574082,0.253369 0.836681,0.452248 0.60206,0.455967 0.675107,0.984978 0.219139,1.587039 -0.213431,0.281815 -0.670621,0.459642 -1.371578,0.533492 -0.707358,0.069 -1.322627,0.202704 -1.845801,0.401116 -0.524723,0.187152 -1.090256,0.681036 -1.696596,1.481649 -0.324996,0.429125 -0.436634,0.76284 -0.334907,1.001137 0.106578,0.23189 0.407125,0.547131 0.918843,0.922649 l 8.915644,6.5425814 c 0.686619,0.503856 1.220389,0.697488 1.624407,0.549941 l 0.364733,-0.16219 c 0.507063,-0.190453 0.895099,-0.183812 1.164101,0.01991 0.550821,0.417161 0.537616,1.006834 -0.03962,1.769014 l -3.456131,4.563482 c -0.596636,0.7878 -1.170369,0.97312 -1.721189,0.555959 -0.198548,-0.150369 -0.307919,-0.298728 -0.328135,-0.445044 -0.02661,-0.151177 -0.02635,-0.377749 7.8e-4,-0.679713 l 0.05,-0.38543 c 0.03254,-0.428884 -0.282948,-0.910737 -0.969564,-1.414597 z"
       style="font-style:normal;font-variant:normal;font-weight:bold;font-stretch:normal;font-size:76.15584564px;line-height:50%;font-family:JasmineUPC;-inkscape-font-specification:'JasmineUPC, Bold';text-align:start;letter-spacing:0px;word-spacing:0px;writing-mode:lr-tb;text-anchor:start;display:inline;opacity:0.594;fill:#050505;fill-opacity:1;stroke:none;stroke-width:1px;stroke-linecap:butt;stroke-linejoin:miter;stroke-opacity:1"
       id="path4293"
       sodipodi:nodetypes="sssccssccssccssccscssccsssscccss" />
  </g>
</svg>
