<?xml version="1.0" standalone="no"?>
<!DOCTYPE svg PUBLIC "-//W3C//DTD SVG 20010904//EN" "http://www.w3.org/TR/2001/REC-SVG-20010904/DTD/svg10.dtd">
<!-- Created using Krita: https://krita.org -->
<svg xmlns="http://www.w3.org/2000/svg" 
    xmlns:xlink="http://www.w3.org/1999/xlink"
    xmlns:krita="http://krita.org/namespaces/svg/krita"
    xmlns:sodipodi="http://sodipodi.sourceforge.net/DTD/sodipodi-0.dtd"
    width="61.44pt"
    height="61.44pt"
    viewBox="0 0 61.44 61.44">
<defs/>
<path id="shape0" transform="translate(19.2, 53.76)" fill="#373737" fill-rule="evenodd" stroke-opacity="0" stroke="#000000" stroke-width="0" stroke-linecap="square" stroke-linejoin="bevel" d="M0 7.68L5.76 7.68C6.82157 6.91865 8.40812 5.5339 9.6 5.76C10.7919 5.9861 10.5575 6.00712 11.52 5.76C12.4825 5.51288 12.4853 2.15216 11.52 1.92C10.5547 1.68784 10.7927 1.65875 9.6 1.92C8.40732 2.18125 6.39584 0.890508 5.76 0L0 0C0.0399999 0.0249996 0.0399999 2.585 0 7.68Z" sodipodi:nodetypes="cczzzzccc"/><path id="shape01" transform="translate(40.1355209496626, 9.6)" fill="none" stroke="#373737" stroke-width="3.84" stroke-linecap="square" stroke-linejoin="bevel" d="M0.18448 51.84C-1.13356 23.2808 4.47846 3.9998 21.3045 0" sodipodi:nodetypes="cc"/><path id="shape02" transform="matrix(-1 0 0 1 21.3044790503374 9.6)" fill="none" stroke="#373737" stroke-width="3.84" stroke-linecap="square" stroke-linejoin="bevel" d="M0.18448 51.84C-1.13356 23.2808 4.47846 3.9998 21.3045 0" sodipodi:nodetypes="cc"/><path id="shape03" transform="matrix(0.996590737708951 -0.0825039484675053 0.0825039484675053 0.996590737708951 18.7825921228841 39.638136384428)" fill="#373737" fill-rule="evenodd" stroke-opacity="0" stroke="#000000" stroke-width="0" stroke-linecap="square" stroke-linejoin="bevel" d="M0 7.68L5.76 7.68C6.82157 6.91865 8.40812 5.5339 9.6 5.76C10.7919 5.9861 10.5575 6.00712 11.52 5.76C12.4825 5.51288 12.4853 2.15216 11.52 1.92C10.5547 1.68784 10.7927 1.65875 9.6 1.92C8.40732 2.18125 6.39584 0.890508 5.76 0L0 0C0.0399999 0.0249996 0.0399999 2.585 0 7.68Z" sodipodi:nodetypes="cczzzzccc"/><path id="shape04" transform="matrix(0.96718237039967 -0.25408318005739 0.25408318005739 0.96718237039967 15.9037500878928 26.8813803272711)" fill="#373737" fill-rule="evenodd" stroke-opacity="0" stroke="#000000" stroke-width="0" stroke-linecap="square" stroke-linejoin="bevel" d="M0 7.68L5.76 7.68C6.82157 6.91865 8.40812 5.5339 9.6 5.76C10.7919 5.9861 10.5575 6.00712 11.52 5.76C12.4825 5.51288 12.4853 2.15216 11.52 1.92C10.5547 1.68784 10.7927 1.65875 9.6 1.92C8.40732 2.18125 6.39584 0.890508 5.76 0L0 0C0.0399999 0.0249996 0.0399999 2.585 0 7.68Z" sodipodi:nodetypes="cczzzzccc"/><path id="shape05" transform="matrix(0.774658020026771 -0.63238038553406 0.63238038553406 0.774658020026771 8.90961938803588 16.0164059467116)" fill="#373737" fill-rule="evenodd" stroke-opacity="0" stroke="#000000" stroke-width="0" stroke-linecap="square" stroke-linejoin="bevel" d="M0 7.68L5.76 7.68C6.82157 6.91865 8.40812 5.5339 9.6 5.76C10.7919 5.9861 10.5575 6.00712 11.52 5.76C12.4825 5.51288 12.4853 2.15216 11.52 1.92C10.5547 1.68784 10.7927 1.65875 9.6 1.92C8.40732 2.18125 6.39584 0.890508 5.76 0L0 0C0.0399999 0.0249996 0.0399999 2.585 0 7.68Z" sodipodi:nodetypes="cczzzzccc"/><path id="shape06" transform="matrix(0.387243904739178 -0.921977308962838 0.921977308962838 0.387243904739178 -1.59089186343906 10.6368328232515)" fill="#373737" fill-rule="evenodd" stroke-opacity="0" stroke="#000000" stroke-width="0" stroke-linecap="square" stroke-linejoin="bevel" d="M0 7.68L5.76 7.68C6.82157 6.91865 8.40812 5.5339 9.6 5.76C10.7919 5.9861 10.5575 6.00712 11.52 5.76C12.4825 5.51288 12.4853 2.15216 11.52 1.92C10.5547 1.68784 10.7927 1.65875 9.6 1.92C8.40732 2.18125 6.39584 0.890508 5.76 0L0 0C0.0399999 0.0249996 0.0399999 2.585 0 7.68Z" sodipodi:nodetypes="cczzzzccc"/><path id="shape07" transform="matrix(-0.999672530679325 -0.025589673800034 -0.025589673800034 0.999672530679325 42.217722142142 46.7179037078252)" fill="#373737" fill-rule="evenodd" stroke-opacity="0" stroke="#000000" stroke-width="0" stroke-linecap="square" stroke-linejoin="bevel" d="M0 7.68L5.76 7.68C6.82157 6.91865 8.40812 5.5339 9.6 5.76C10.7919 5.9861 10.5575 6.00712 11.52 5.76C12.4825 5.51288 12.4853 2.15216 11.52 1.92C10.5547 1.68784 10.7927 1.65875 9.6 1.92C8.40732 2.18125 6.39584 0.890508 5.76 0L0 0C0.0399999 0.0249996 0.0399999 2.585 0 7.68Z" sodipodi:nodetypes="cczzzzccc"/><path id="shape08" transform="matrix(-1 0 0 1 42.121462385879 60.48)" fill="#373737" fill-rule="evenodd" stroke-opacity="0" stroke="#000000" stroke-width="0" stroke-linecap="square" stroke-linejoin="bevel" d="M0 7.68L5.76 7.68C6.82157 6.91865 8.40812 5.5339 9.6 5.76C10.7919 5.9861 10.5575 6.00712 11.52 5.76C12.4825 5.51288 12.4853 2.15216 11.52 1.92C10.5547 1.68784 10.7927 1.65875 9.6 1.92C8.40732 2.18125 6.39584 0.890508 5.76 0L0 0C0.0399999 0.0249996 0.0399999 2.585 0 7.68Z" sodipodi:nodetypes="cczzzzccc"/><path id="shape09" transform="matrix(-0.989591581640205 -0.143904487584087 -0.143904487584087 0.989591581640205 43.5703408767159 33.0808742344068)" fill="#373737" fill-rule="evenodd" stroke-opacity="0" stroke="#000000" stroke-width="0" stroke-linecap="square" stroke-linejoin="bevel" d="M0 7.68L5.76 7.68C6.82157 6.91865 8.40812 5.5339 9.6 5.76C10.7919 5.9861 10.5575 6.00712 11.52 5.76C12.4825 5.51288 12.4853 2.15216 11.52 1.92C10.5547 1.68784 10.7927 1.65875 9.6 1.92C8.40732 2.18125 6.39584 0.890508 5.76 0L0 0C0.0399999 0.0249996 0.0399999 2.585 0 7.68Z" sodipodi:nodetypes="cczzzzccc"/><path id="shape010" transform="matrix(-0.916625600908334 -0.399746804564388 -0.399746804564388 0.916625600908334 47.9461168674213 21.4871927205282)" fill="#373737" fill-rule="evenodd" stroke-opacity="0" stroke="#000000" stroke-width="0" stroke-linecap="square" stroke-linejoin="bevel" d="M0 7.68L5.76 7.68C6.82157 6.91865 8.40812 5.5339 9.6 5.76C10.7919 5.9861 10.5575 6.00712 11.52 5.76C12.4825 5.51288 12.4853 2.15216 11.52 1.92C10.5547 1.68784 10.7927 1.65875 9.6 1.92C8.40732 2.18125 6.39584 0.890508 5.76 0L0 0C0.0399999 0.0249996 0.0399999 2.585 0 7.68Z" sodipodi:nodetypes="cczzzzccc"/><path id="shape011" transform="matrix(-0.646775870701053 -0.762680125005825 -0.762680125005825 0.646775870701053 55.847905844613 13.2250983541886)" fill="#373737" fill-rule="evenodd" stroke-opacity="0" stroke="#000000" stroke-width="0" stroke-linecap="square" stroke-linejoin="bevel" d="M0 7.68L5.76 7.68C6.82157 6.91865 8.40812 5.5339 9.6 5.76C10.7919 5.9861 10.5575 6.00712 11.52 5.76C12.4825 5.51288 12.4853 2.15216 11.52 1.92C10.5547 1.68784 10.7927 1.65875 9.6 1.92C8.40732 2.18125 6.39584 0.890508 5.76 0L0 0C0.0399999 0.0249996 0.0399999 2.585 0 7.68Z" sodipodi:nodetypes="cczzzzccc"/><path id="shape012" transform="matrix(-0.185681840539906 -0.982609919598676 -0.982609919598676 0.185681840539906 67.3098664938647 10.3419913951416)" fill="#373737" fill-rule="evenodd" stroke-opacity="0" stroke="#000000" stroke-width="0" stroke-linecap="square" stroke-linejoin="bevel" d="M0 7.68L5.76 7.68C6.82157 6.91865 8.40812 5.5339 9.6 5.76C10.7919 5.9861 10.5575 6.00712 11.52 5.76C12.4825 5.51288 12.4853 2.15216 11.52 1.92C10.5547 1.68784 10.7927 1.65875 9.6 1.92C8.40732 2.18125 6.39584 0.890508 5.76 0L0 0C0.0399999 0.0249996 0.0399999 2.585 0 7.68Z" sodipodi:nodetypes="cczzzzccc"/>
</svg>
