<?xml version="1.0" encoding="UTF-8" standalone="no"?>
<svg
   xmlns:dc="http://purl.org/dc/elements/1.1/"
   xmlns:cc="http://creativecommons.org/ns#"
   xmlns:rdf="http://www.w3.org/1999/02/22-rdf-syntax-ns#"
   xmlns:svg="http://www.w3.org/2000/svg"
   xmlns="http://www.w3.org/2000/svg"
   height="16"
   width="16"
   xml:space="preserve"
   viewBox="0 0 16 16"
   y="0px"
   x="0px"
   id="Layer_2_1_"
   version="1.1"><metadata
   id="metadata16"><rdf:RDF><cc:Work
       rdf:about=""><dc:format>image/svg+xml</dc:format><dc:type
         rdf:resource="http://purl.org/dc/dcmitype/StillImage" /><dc:title></dc:title><dc:date>2021</dc:date><dc:creator><cc:Agent><dc:title>Andrei Rudenko and Timothée Giet</dc:title></cc:Agent></dc:creator><cc:license
         rdf:resource="http://creativecommons.org/licenses/by-sa/4.0/" /></cc:Work><cc:License
       rdf:about="http://creativecommons.org/licenses/by-sa/4.0/"><cc:permits
         rdf:resource="http://creativecommons.org/ns#Reproduction" /><cc:permits
         rdf:resource="http://creativecommons.org/ns#Distribution" /><cc:requires
         rdf:resource="http://creativecommons.org/ns#Notice" /><cc:requires
         rdf:resource="http://creativecommons.org/ns#Attribution" /><cc:permits
         rdf:resource="http://creativecommons.org/ns#DerivativeWorks" /><cc:requires
         rdf:resource="http://creativecommons.org/ns#ShareAlike" /></cc:License></rdf:RDF></metadata><defs
   id="defs14" />
<style
   id="style2"
   type="text/css">
	.st0{fill:#CACACA;}
	.st1{fill:none;stroke:#CACACA;stroke-width:2;stroke-linejoin:round;}
</style>
<path
   style="fill:#373737;stroke-width:0.5;fill-opacity:1"
   d="M 0,0 V 4 H 2 V 2 H 4 V 0 Z m 0,6 v 4 H 2 V 6 Z m 0,6 v 4 H 4 V 14 H 2 v -2 z m 14,0 v 2 h -2 v 2 h 4 v -4 z m -8,2 v 2 h 4 v -2 z"
   class="st0"
   id="rect4883" />
<path
   id="path5"
   d="M 9.6484375,3.75 A 0.50005,0.50005 0 0 0 9.296875,3.8964844 l -4.75,4.75 A 0.50005,0.50005 0 0 0 4.40625,8.921875 l -0.4003906,2.5 a 0.50005,0.50005 0 0 0 0.5625,0.574219 l 2.5,-0.351563 A 0.50005,0.50005 0 0 0 7.3535156,11.503906 L 12.103516,6.7539062 a 0.50005,0.50005 0 0 0 0.0039,-0.703125 L 10.007812,3.9003906 A 0.50005,0.50005 0 0 0 9.6484375,3.75 Z m -0.00195,1.2109375 1.4003906,1.4355469 -4.28125,4.2812496 -1.6640625,0.232422 0.265625,-1.6718748 z"
   style="color:#000000;font-style:normal;font-variant:normal;font-weight:normal;font-stretch:normal;font-size:medium;line-height:normal;font-family:sans-serif;font-variant-ligatures:normal;font-variant-position:normal;font-variant-caps:normal;font-variant-numeric:normal;font-variant-alternates:normal;font-feature-settings:normal;text-indent:0;text-align:start;text-decoration:none;text-decoration-line:none;text-decoration-style:solid;text-decoration-color:#000000;letter-spacing:normal;word-spacing:normal;text-transform:none;writing-mode:lr-tb;direction:ltr;text-orientation:mixed;dominant-baseline:auto;baseline-shift:baseline;text-anchor:start;white-space:normal;shape-padding:0;clip-rule:nonzero;display:inline;overflow:visible;visibility:visible;opacity:1;isolation:auto;mix-blend-mode:normal;color-interpolation:sRGB;color-interpolation-filters:linearRGB;solid-color:#000000;solid-opacity:1;vector-effect:none;fill:#373737;fill-opacity:1;fill-rule:nonzero;stroke:none;stroke-width:1;stroke-linecap:butt;stroke-linejoin:round;stroke-miterlimit:4;stroke-dasharray:none;stroke-dashoffset:0;stroke-opacity:1;color-rendering:auto;image-rendering:auto;shape-rendering:auto;text-rendering:auto;enable-background:accumulate" />
<rect
   style="fill:#373737;stroke-width:0.4999952;fill-opacity:1"
   id="rect7"
   height="7.9999232"
   width="1.9999808"
   class="st0"
   transform="rotate(-45)"
   y="7.3397331"
   x="3.3013825" />
<path
   style="fill:#373737;stroke-width:0.5;fill-opacity:1"
   id="path9"
   d="M 12.8,6.75 9.25,3.2 v 0 L 11.7,0.75 c 1,-1 2.55,-1 3.55,0 v 0 c 1,1 1,2.55 0,3.55 L 12.8,6.75 c 0,0 0,0 0,0 z"
   class="st0" />
</svg>