<?xml version="1.0" encoding="UTF-8" standalone="no"?>
<!-- Created with Inkscape (http://www.inkscape.org/) -->

<svg
   xmlns:dc="http://purl.org/dc/elements/1.1/"
   xmlns:cc="http://creativecommons.org/ns#"
   xmlns:rdf="http://www.w3.org/1999/02/22-rdf-syntax-ns#"
   xmlns:svg="http://www.w3.org/2000/svg"
   xmlns="http://www.w3.org/2000/svg"
   xmlns:sodipodi="http://sodipodi.sourceforge.net/DTD/sodipodi-0.dtd"
   xmlns:inkscape="http://www.inkscape.org/namespaces/inkscape"
   width="32"
   height="32"
   viewBox="0 0 32 32.000001"
   id="svg2"
   version="1.1"
   inkscape:version="0.91 r13725"
   sodipodi:docname="light_tool_rect_selection.svg"
   inkscape:export-filename="/run/media/andrei/C2942CC0942CB8B5/dribbble/krita icons/Collaborate/1_flat_dark/tools/light_tool_rect_selection.png"
   inkscape:export-xdpi="45"
   inkscape:export-ydpi="45">
  <defs
     id="defs4">
    <filter
       style="color-interpolation-filters:sRGB;"
       inkscape:label="Drop Shadow"
       id="filter4429">
      <feFlood
         flood-opacity="0.501961"
         flood-color="rgb(0,0,0)"
         result="flood"
         id="feFlood4431" />
      <feComposite
         in="flood"
         in2="SourceGraphic"
         operator="in"
         result="composite1"
         id="feComposite4433" />
      <feGaussianBlur
         in="composite1"
         stdDeviation="0"
         result="blur"
         id="feGaussianBlur4435" />
      <feOffset
         dx="0"
         dy="-2"
         result="offset"
         id="feOffset4437" />
      <feComposite
         in="SourceGraphic"
         in2="offset"
         operator="over"
         result="composite2"
         id="feComposite4439" />
    </filter>
    <filter
       style="color-interpolation-filters:sRGB;"
       inkscape:label="Drop Shadow"
       id="filter4238">
      <feFlood
         flood-opacity="0.501961"
         flood-color="rgb(0,0,0)"
         result="flood"
         id="feFlood4240" />
      <feComposite
         in="flood"
         in2="SourceGraphic"
         operator="in"
         result="composite1"
         id="feComposite4242" />
      <feGaussianBlur
         in="composite1"
         stdDeviation="0"
         result="blur"
         id="feGaussianBlur4244" />
      <feOffset
         dx="0"
         dy="-2"
         result="offset"
         id="feOffset4246" />
      <feComposite
         in="SourceGraphic"
         in2="offset"
         operator="over"
         result="composite2"
         id="feComposite4248" />
    </filter>
  </defs>
  <sodipodi:namedview
     id="base"
     pagecolor="#474747"
     bordercolor="#666666"
     borderopacity="1.0"
     inkscape:pageopacity="0"
     inkscape:pageshadow="2"
     inkscape:zoom="16"
     inkscape:cx="11.283153"
     inkscape:cy="14.478486"
     inkscape:document-units="px"
     inkscape:current-layer="layer4"
     showgrid="true"
     units="px"
     inkscape:showpageshadow="false"
     showborder="true"
     inkscape:window-width="1920"
     inkscape:window-height="1041"
     inkscape:window-x="1366"
     inkscape:window-y="0"
     inkscape:window-maximized="1"
     objecttolerance="20"
     showguides="false">
    <inkscape:grid
       type="xygrid"
       id="grid3336"
       dotted="false"
       empspacing="1"
       snapvisiblegridlinesonly="true"
       enabled="true"
       visible="true"
       empcolor="#aaaaff"
       empopacity="0.25098039"
       color="#7878ff"
       opacity="0.1254902"
       spacingx="2"
       spacingy="2.0000001" />
  </sodipodi:namedview>
  <metadata
     id="metadata7">
    <rdf:RDF>
      <cc:Work
         rdf:about="">
        <dc:format>image/svg+xml</dc:format>
        <dc:type
           rdf:resource="http://purl.org/dc/dcmitype/StillImage" />
        <dc:title />
        <dc:creator>
          <cc:Agent>
            <dc:title>Andrei Rudenko</dc:title>
          </cc:Agent>
        </dc:creator>
      </cc:Work>
    </rdf:RDF>
  </metadata>
  <g
     inkscape:groupmode="layer"
     id="layer3"
     inkscape:label="Layer 3"
     style="display:none">
    <path
       style="opacity:1;fill:#cacaca;fill-opacity:1;stroke:none;stroke-width:4;stroke-linecap:butt;stroke-linejoin:bevel;stroke-miterlimit:4;stroke-dasharray:none;stroke-dashoffset:1;stroke-opacity:1"
       d="M 4,0 C 1.784,0 0,1.784 0,4 l 4,0 z m 4,0 0,4 6,0 0,-4 z m 10,0 0,4 6,0 0,-4 z m 10,0 0,4 4,0 C 32,1.784 30.216,0 28,0 Z M 0,8 0,14 4,14 4,8 Z m 28,0 0,6 4,0 0,-6 z m -28,10 0,6 4,0 0,-6 z m 28,0 0,6 4,0 0,-6 z M 0,28 c 0,2.216 1.784,4 4,4 l 0,-4 z m 8,0 0,4 6,0 0,-4 z m 10,0 0,4 6,0 0,-4 z m 10,0 0,4 c 2.216,0 4,-1.784 4,-4 z"
       id="rect4165"
       inkscape:connector-curvature="0"
       sodipodi:nodetypes="cccccccccccccccccccccccccccccccccccccccccccccccccccccccc" />
  </g>
  <g
     inkscape:groupmode="layer"
     id="layer4"
     inkscape:label="v2"
     style="display:inline">
    <path
       style="opacity:1;fill:#373737;fill-opacity:1;stroke:none;stroke-width:4;stroke-linecap:butt;stroke-linejoin:bevel;stroke-miterlimit:4;stroke-dasharray:none;stroke-dashoffset:1;stroke-opacity:1"
       d="M 0,0 0,4 0,8 4,8 4,4 8,4 8,0 Z m 12,0 0,4 8,0 0,-4 z m 12,0 0,4 4,0 0,4 4,0 0,-4 0,-4 z m -24,12 0,8 4,0 0,-8 z m 28,0 0,8 4,0 0,-8 z m -28,12 0,4 0,4 8,0 0,-4 -4,0 0,-4 z m 28,0 0,4 -4,0 0,4 8,0 0,-4 0,-4 z m -16,4 0,4 8,0 0,-4 z"
       id="rect4883"
       inkscape:connector-curvature="0"
       sodipodi:nodetypes="cccccccccccccccccccccccccccccccccccccccccccccccccccc" />
  </g>
</svg>
