<?xml version="1.0" encoding="UTF-8" standalone="no"?>
<svg
   xmlns:dc="http://purl.org/dc/elements/1.1/"
   xmlns:cc="http://creativecommons.org/ns#"
   xmlns:rdf="http://www.w3.org/1999/02/22-rdf-syntax-ns#"
   xmlns:svg="http://www.w3.org/2000/svg"
   xmlns="http://www.w3.org/2000/svg"
   id="Layer_2"
   data-name="Layer 2"
   viewBox="0 0 16 16"
   version="1.1"
   width="16"
   height="16">
  <metadata
     id="metadata27">
    <rdf:RDF>
      <cc:Work
         rdf:about="">
        <dc:format>image/svg+xml</dc:format>
        <dc:type
           rdf:resource="http://purl.org/dc/dcmitype/StillImage" />
        <dc:title></dc:title>
        <dc:creator>
          <cc:Agent>
            <dc:title>Timothée Giet</dc:title>
          </cc:Agent>
        </dc:creator>
        <dc:date>2021</dc:date>
        <cc:license
           rdf:resource="http://creativecommons.org/licenses/by-sa/4.0/" />
      </cc:Work>
      <cc:License
         rdf:about="http://creativecommons.org/licenses/by-sa/4.0/">
        <cc:permits
           rdf:resource="http://creativecommons.org/ns#Reproduction" />
        <cc:permits
           rdf:resource="http://creativecommons.org/ns#Distribution" />
        <cc:requires
           rdf:resource="http://creativecommons.org/ns#Notice" />
        <cc:requires
           rdf:resource="http://creativecommons.org/ns#Attribution" />
        <cc:permits
           rdf:resource="http://creativecommons.org/ns#DerivativeWorks" />
        <cc:requires
           rdf:resource="http://creativecommons.org/ns#ShareAlike" />
      </cc:License>
    </rdf:RDF>
  </metadata>
  <defs
     id="defs4">
    <style
       id="style2">.cls-1{fill:none;stroke:#cacaca;stroke-linecap:round;stroke-miterlimit:10;stroke-width:4px;}.cls-2,.cls-3{fill:#cacaca;}.cls-3{fill-rule:evenodd;}</style>
  </defs>
  <path
     style="opacity:1;vector-effect:none;fill:#373737;fill-opacity:1;stroke:none;stroke-width:2;stroke-linecap:butt;stroke-linejoin:bevel;stroke-miterlimit:4;stroke-dasharray:none;stroke-dashoffset:3.20000005;stroke-opacity:1"
     d="M 9,2 C 9,2.5522847 8.552285,3 8,3 7.447715,3 7,2.5522847 7,2 7,1 8,0 8,0 8,0 9,1 9,2 Z"
     id="path875" />
  <path
     style="opacity:1;vector-effect:none;fill:#373737;fill-opacity:1;stroke:none;stroke-width:2;stroke-linecap:butt;stroke-linejoin:bevel;stroke-miterlimit:4;stroke-dasharray:none;stroke-dashoffset:3.20000005;stroke-opacity:1"
     d="m 9,14 c 0,-0.552285 -0.447715,-1 -1,-1 -0.552285,0 -1,0.447715 -1,1 0,1 1,2 1,2 0,0 1,-1 1,-2 z"
     id="path875-7" />
  <path
     style="opacity:1;vector-effect:none;fill:#373737;fill-opacity:1;stroke:none;stroke-width:2;stroke-linecap:butt;stroke-linejoin:bevel;stroke-miterlimit:4;stroke-dasharray:none;stroke-dashoffset:3.20000005;stroke-opacity:1"
     d="M 2,7 C 2.5522847,7 3,7.447715 3,8 3,8.552285 2.5522847,9 2,9 1,9 0,8 0,8 0,8 1,7 2,7 Z"
     id="path875-5" />
  <path
     style="opacity:1;vector-effect:none;fill:#373737;fill-opacity:1;stroke:none;stroke-width:2;stroke-linecap:butt;stroke-linejoin:bevel;stroke-miterlimit:4;stroke-dasharray:none;stroke-dashoffset:3.20000005;stroke-opacity:1"
     d="m 14,7 c -0.552285,0 -1,0.447715 -1,1 0,0.552285 0.447715,1 1,1 1,0 2,-1 2,-1 0,0 -1,-1 -2,-1 z"
     id="path875-7-3" />
  <path
     style="opacity:1;vector-effect:none;fill:#373737;fill-opacity:1;stroke:none;stroke-width:2;stroke-linecap:butt;stroke-linejoin:bevel;stroke-miterlimit:4;stroke-dasharray:none;stroke-dashoffset:3.20000005;stroke-opacity:1"
     d="m 4.4644661,3.0502525 c 0.3905243,0.3905243 0.3905245,1.0236891 0,1.4142136 -0.3905245,0.3905245 -1.0236893,0.3905243 -1.4142136,0 C 2.3431458,3.7573593 2.3431458,2.3431458 2.3431458,2.3431458 c 0,0 1.4142135,0 2.1213203,0.7071067 z"
     id="path875-56" />
  <path
     style="opacity:1;vector-effect:none;fill:#373737;fill-opacity:1;stroke:none;stroke-width:2;stroke-linecap:butt;stroke-linejoin:bevel;stroke-miterlimit:4;stroke-dasharray:none;stroke-dashoffset:3.20000005;stroke-opacity:1"
     d="m 12.949747,11.535534 c -0.390524,-0.390525 -1.023689,-0.390525 -1.414213,0 -0.390525,0.390524 -0.390525,1.023689 0,1.414213 0.707107,0.707107 2.12132,0.707107 2.12132,0.707107 0,0 0,-1.414213 -0.707107,-2.12132 z"
     id="path875-7-2" />
  <path
     style="opacity:1;vector-effect:none;fill:#373737;fill-opacity:1;stroke:none;stroke-width:2;stroke-linecap:butt;stroke-linejoin:bevel;stroke-miterlimit:4;stroke-dasharray:none;stroke-dashoffset:3.20000005;stroke-opacity:1"
     d="m 3.0502525,11.535534 c 0.3905243,-0.390524 1.0236891,-0.390525 1.4142136,0 0.3905245,0.390524 0.3905243,1.023689 0,1.414213 -0.7071068,0.707107 -2.1213203,0.707107 -2.1213203,0.707107 0,0 0,-1.414213 0.7071067,-2.12132 z"
     id="path875-9" />
  <path
     style="display:inline;fill:#373737;fill-opacity:1"
     id="path6-2"
     d="m 8.8611214,4.306418 c -1.599665,0.346691 -2.20499,1.785615 -2.160129,2.8786 0.04838,1.1787693 -1.218497,2.1128283 -2.014134,2.2744279 1.081828,0.8589801 2.66478,0.9873321 4.095033,0.6968341 C 10.875175,9.7311139 12.300572,8.098706 11.919408,6.222069 11.633105,4.812469 10.429155,3.966583 8.8611214,4.306418 Z" />
  <path
     id="path4174-1-7"
     d="m 10.436261,3.566736 c 0.875213,0.145118 1.835891,0.962243 2.01968,1.716751 0.103948,0.353764 0.980521,-0.381855 0.847489,-0.88809 -0.472907,-1.0433 -1.48891,-1.755279 -2.403118,-1.723616 -0.33047,0.0053 -0.731253,0.877894 -0.464051,0.894955 z"
     style="display:inline;fill:#373737;fill-opacity:1;fill-rule:evenodd;stroke:none;stroke-width:1px;stroke-linecap:butt;stroke-linejoin:miter;stroke-opacity:1" />
  <path
     id="path4174-3-9"
     d="m 11.646448,2 c 0.875213,0.145118 1.958525,1.036823 2.142314,1.791332 0.103948,0.353764 3.236146,-2.94242 3.103114,-3.44865496 C 17.297351,-2.739131 16.733785,-1.6598259 13.925268,-1.8118439 13.031309,-1.7567839 11.379246,1.982939 11.646448,2 Z"
     style="display:inline;fill:#373737;fill-opacity:1;fill-rule:evenodd;stroke:none;stroke-width:1px;stroke-linecap:butt;stroke-linejoin:miter;stroke-opacity:1" />
</svg>
