<?xml version="1.0" encoding="UTF-8" standalone="no"?>
<svg
   xmlns:dc="http://purl.org/dc/elements/1.1/"
   xmlns:cc="http://creativecommons.org/ns#"
   xmlns:rdf="http://www.w3.org/1999/02/22-rdf-syntax-ns#"
   xmlns:svg="http://www.w3.org/2000/svg"
   xmlns="http://www.w3.org/2000/svg"
   version="1.1"
   id="svg2"
   viewBox="0 0 32 32.000001"
   height="32"
   width="32">
  <defs
     id="defs4" />
  <metadata
     id="metadata7">
    <rdf:RDF>
      <cc:Work
         rdf:about="">
        <dc:format>image/svg+xml</dc:format>
        <dc:type
           rdf:resource="http://purl.org/dc/dcmitype/StillImage" />
        <dc:title></dc:title>
        <dc:creator>
          <cc:Agent>
            <dc:title>Andrei Rudenko</dc:title>
          </cc:Agent>
        </dc:creator>
        <cc:license
           rdf:resource="http://creativecommons.org/licenses/by-sa/4.0/" />
      </cc:Work>
      <cc:License
         rdf:about="http://creativecommons.org/licenses/by-sa/4.0/">
        <cc:permits
           rdf:resource="http://creativecommons.org/ns#Reproduction" />
        <cc:permits
           rdf:resource="http://creativecommons.org/ns#Distribution" />
        <cc:requires
           rdf:resource="http://creativecommons.org/ns#Notice" />
        <cc:requires
           rdf:resource="http://creativecommons.org/ns#Attribution" />
        <cc:permits
           rdf:resource="http://creativecommons.org/ns#DerivativeWorks" />
        <cc:requires
           rdf:resource="http://creativecommons.org/ns#ShareAlike" />
      </cc:License>
    </rdf:RDF>
  </metadata>
  <g
     id="layer3"
     style="display:none">
    <rect
       style="opacity:1;fill:#f2f2f2;fill-opacity:1;stroke:none;stroke-width:2;stroke-linecap:butt;stroke-linejoin:bevel;stroke-miterlimit:4;stroke-dasharray:none;stroke-dashoffset:1;stroke-opacity:0.50196078"
       id="rect4483"
       width="4"
       height="30"
       x="28"
       y="-5.9999996e-007" />
    <path
       style="display:inline;opacity:1;fill:#f2f2f2;fill-opacity:1;stroke:none;stroke-width:2;stroke-linecap:butt;stroke-linejoin:bevel;stroke-miterlimit:4;stroke-dasharray:none;stroke-dashoffset:1;stroke-opacity:0.50196078"
       d="m 0,0 0,2 2,0 0,2 2,0 0,2 2,0 0,2 2,0 0,2 2,0 0,2 2,0 0,2 2,0 0,2 2,0 0,2 2,0 0,2 2,0 0,2 2,0 0,2 2,0 0,2 2,0 0,2 2,0 0,-4 -2,0 0,-2 -2,0 0,-2 -2,0 0,-2 -2,0 0,-2 -2,0 0,-2 -2,0 0,-2 -2,0 0,-2 -2,0 L 12,8 10,8 10,6 8,6 8,4 6,4 6,2 4,2 4,0 2,0 0,0 Z"
       id="rect4485-8" />
    <path
       style="fill:none;fill-rule:evenodd;stroke:#f2f2f2;stroke-width:2;stroke-linecap:butt;stroke-linejoin:miter;stroke-miterlimit:4;stroke-dasharray:none;stroke-opacity:1"
       d="M 16.456345,15.536612 C 18.1875,10.6875 26.125,9.2499996 30.125,13.25"
       id="path4583" />
  </g>
  <g
     id="layer2">
    <path
       style="display:inline;opacity:1;fill:#373737;fill-opacity:1;stroke:none;stroke-width:2;stroke-linecap:butt;stroke-linejoin:bevel;stroke-miterlimit:4;stroke-dasharray:none;stroke-dashoffset:1;stroke-opacity:0.50196078"
       d="m 16.078124,18.171891 c 2.793969,3.32545 9,4.731014 13.3125,12.25 l 1.125,0.625 1.5625,-0.875 V 2.1718911 0.17189074 h -4 V 2.1718911 11.171891 c -0.903976,-0.47257 -1.8745,-1.153983 -3.678002,-1.285424 -0.762754,-0.05559 -1.53003,0.02616 -2.273438,0.154297 -2.527253,0.435606 -4.671631,1.992169 -5.952857,4.131127 h -0.0957 c -1.042589,1.462211 0,4 0,4 z m 8.936773,-5.040134 c 1.402388,0.19339 1.962238,0.731617 2.709143,1.321462 0.104109,0.08222 0.227821,0.145097 0.354084,0.215455 v 9.503217 h -2 c -3.273718,-3.481071 -5.798969,-6.375 -7.351562,-8 0.554615,-1.027171 2.196023,-2.567038 4.036382,-3.010837 0.687772,-0.165855 1.639855,-0.113706 2.251953,-0.0293 z"
       id="rect4483-7-3" />
    <path
       style="fill:#373737;fill-opacity:1;fill-rule:evenodd;stroke:none;stroke-width:1px;stroke-linecap:butt;stroke-linejoin:miter;stroke-opacity:1"
       d="m 32.015623,32.171891 c -1.229167,0 -1.173503,0.07024 -2.625,0 L -0.07812507,3.1469234 V 0.04689174 H 3.8906249 L 32.078123,28.234391 Z"
       id="path4169" />
  </g>
</svg>
