<svg xmlns:dc="http://purl.org/dc/elements/1.1/" xmlns:cc="http://creativecommons.org/ns#" xmlns:rdf="http://www.w3.org/1999/02/22-rdf-syntax-ns#" xmlns="http://www.w3.org/2000/svg" id="Layer_2" data-name="Layer 2" viewBox="0 0 16 16" version="1.1" width="16" height="16"><metadata id="metadata27"><rdf:RDF><cc:Work><dc:format>image/svg+xml</dc:format><dc:type rdf:resource="http://purl.org/dc/dcmitype/StillImage"/><dc:title/><dc:creator><cc:Agent><dc:title>Timothée Giet</dc:title></cc:Agent></dc:creator><dc:date>2021</dc:date><cc:license rdf:resource="http://creativecommons.org/licenses/by-sa/4.0/"/></cc:Work><cc:License rdf:about="http://creativecommons.org/licenses/by-sa/4.0/"><cc:permits rdf:resource="http://creativecommons.org/ns#Reproduction"/><cc:permits rdf:resource="http://creativecommons.org/ns#Distribution"/><cc:requires rdf:resource="http://creativecommons.org/ns#Notice"/><cc:requires rdf:resource="http://creativecommons.org/ns#Attribution"/><cc:permits rdf:resource="http://creativecommons.org/ns#DerivativeWorks"/><cc:requires rdf:resource="http://creativecommons.org/ns#ShareAlike"/></cc:License></rdf:RDF></metadata><defs id="defs4"><style id="style2"></style></defs><path style="opacity:1;vector-effect:none;fill:#373737;fill-opacity:1;stroke:none;stroke-width:2;stroke-linecap:butt;stroke-linejoin:bevel;stroke-miterlimit:4;stroke-dasharray:none;stroke-dashoffset:3.20000005;stroke-opacity:1" d="M9 2a1 1 0 1 1-2 0c0-1 1-2 1-2s1 1 1 2z" id="path875"/><path style="opacity:1;vector-effect:none;fill:#373737;fill-opacity:1;stroke:none;stroke-width:2;stroke-linecap:butt;stroke-linejoin:bevel;stroke-miterlimit:4;stroke-dasharray:none;stroke-dashoffset:3.20000005;stroke-opacity:1" d="M9 14a1 1 0 1 0-2 0c0 1 1 2 1 2s1-1 1-2z" id="path875-7"/><path style="opacity:1;vector-effect:none;fill:#373737;fill-opacity:1;stroke:none;stroke-width:2;stroke-linecap:butt;stroke-linejoin:bevel;stroke-miterlimit:4;stroke-dasharray:none;stroke-dashoffset:3.20000005;stroke-opacity:1" d="M2 7a1 1 0 1 1 0 2C1 9 0 8 0 8s1-1 2-1z" id="path875-5"/><path style="opacity:1;vector-effect:none;fill:#373737;fill-opacity:1;stroke:none;stroke-width:2;stroke-linecap:butt;stroke-linejoin:bevel;stroke-miterlimit:4;stroke-dasharray:none;stroke-dashoffset:3.20000005;stroke-opacity:1" d="M14 7a1 1 0 1 0 0 2c1 0 2-1 2-1s-1-1-2-1z" id="path875-7-3"/><path style="opacity:1;vector-effect:none;fill:#373737;fill-opacity:1;stroke:none;stroke-width:2;stroke-linecap:butt;stroke-linejoin:bevel;stroke-miterlimit:4;stroke-dasharray:none;stroke-dashoffset:3.20000005;stroke-opacity:1" d="M4.464 3.05A1 1 0 1 1 3.05 4.464c-.707-.707-.707-2.12-.707-2.12s1.414 0 2.121.706z" id="path875-56"/><path style="opacity:1;vector-effect:none;fill:#373737;fill-opacity:1;stroke:none;stroke-width:2;stroke-linecap:butt;stroke-linejoin:bevel;stroke-miterlimit:4;stroke-dasharray:none;stroke-dashoffset:3.20000005;stroke-opacity:1" d="M12.95 11.536a1 1 0 1 0-1.414 1.414c.707.707 2.12.707 2.12.707s0-1.414-.706-2.121z" id="path875-7-2"/><path style="opacity:1;vector-effect:none;fill:#373737;fill-opacity:1;stroke:none;stroke-width:2;stroke-linecap:butt;stroke-linejoin:bevel;stroke-miterlimit:4;stroke-dasharray:none;stroke-dashoffset:3.20000005;stroke-opacity:1" d="M3.05 11.536a1 1 0 1 1 1.414 1.414c-.707.707-2.12.707-2.12.707s0-1.414.706-2.121z" id="path875-9"/><path style="display:inline;fill:#373737;fill-opacity:1" id="path6-2" d="M8.861 4.306c-1.6.347-2.205 1.786-2.16 2.879.048 1.179-1.219 2.113-2.014 2.274 1.082.86 2.665.988 4.095.697 2.093-.425 3.519-2.057 3.137-3.934-.286-1.41-1.49-2.255-3.058-1.916z"/><path id="path4174-1-7" d="M10.436 3.567c.875.145 1.836.962 2.02 1.716.104.354.98-.381.847-.888-.472-1.043-1.488-1.755-2.403-1.723-.33.005-.73.878-.464.895z" style="display:inline;fill:#373737;fill-opacity:1;fill-rule:evenodd;stroke:none;stroke-width:1px;stroke-linecap:butt;stroke-linejoin:miter;stroke-opacity:1"/><path id="path4174-3-9" d="M11.646 2c.876.145 1.959 1.037 2.143 1.791.104.354 3.236-2.942 3.103-3.448.405-3.082-.158-2.003-2.967-2.155-.894.055-2.546 3.795-2.279 3.812z" style="display:inline;fill:#373737;fill-opacity:1;fill-rule:evenodd;stroke:none;stroke-width:1px;stroke-linecap:butt;stroke-linejoin:miter;stroke-opacity:1"/></svg>