<?xml version="1.0" encoding="UTF-8" standalone="no"?>
<svg
   xmlns:dc="http://purl.org/dc/elements/1.1/"
   xmlns:cc="http://creativecommons.org/ns#"
   xmlns:rdf="http://www.w3.org/1999/02/22-rdf-syntax-ns#"
   xmlns:svg="http://www.w3.org/2000/svg"
   xmlns="http://www.w3.org/2000/svg"
   width="16"
   height="16"
   viewBox="0 0 16 16"
   id="svg2"
   version="1.1">
  <defs
     id="defs4" />
  <metadata
     id="metadata7">
    <rdf:RDF>
      <cc:Work
         rdf:about="">
        <dc:format>image/svg+xml</dc:format>
        <dc:type
           rdf:resource="http://purl.org/dc/dcmitype/StillImage" />
        <dc:title></dc:title>
        <dc:creator>
          <cc:Agent>
            <dc:title>Andrei Rudenko</dc:title>
          </cc:Agent>
        </dc:creator>
        <cc:license
           rdf:resource="http://creativecommons.org/licenses/by-sa/4.0/" />
      </cc:Work>
      <cc:License
         rdf:about="http://creativecommons.org/licenses/by-sa/4.0/">
        <cc:permits
           rdf:resource="http://creativecommons.org/ns#Reproduction" />
        <cc:permits
           rdf:resource="http://creativecommons.org/ns#Distribution" />
        <cc:requires
           rdf:resource="http://creativecommons.org/ns#Notice" />
        <cc:requires
           rdf:resource="http://creativecommons.org/ns#Attribution" />
        <cc:permits
           rdf:resource="http://creativecommons.org/ns#DerivativeWorks" />
        <cc:requires
           rdf:resource="http://creativecommons.org/ns#ShareAlike" />
      </cc:License>
    </rdf:RDF>
  </metadata>
  <g
     transform="translate(0,-16)"
     id="layer3"
     style="display:none">
    <path
       style="opacity:1;fill:#d2d2d2;fill-opacity:1;stroke:none;stroke-width:4;stroke-linecap:butt;stroke-linejoin:bevel;stroke-miterlimit:4;stroke-dasharray:none;stroke-dashoffset:1;stroke-opacity:1"
       d="M 4,0 C 1.784,0 0,1.784 0,4 h 4 z m 4,0 v 4 h 6 V 0 Z m 10,0 v 4 h 6 V 0 Z m 10,0 v 4 h 4 C 32,1.784 30.216,0 28,0 Z M 0,8 v 6 H 4 V 8 Z m 28,0 v 6 h 4 V 8 Z M 0,18 v 6 h 4 v -6 z m 28,0 v 6 h 4 V 18 Z M 0,28 c 0,2.216 1.784,4 4,4 v -4 z m 8,0 v 4 h 6 v -4 z m 10,0 v 4 h 6 v -4 z m 10,0 v 4 c 2.216,0 4,-1.784 4,-4 z"
       id="rect4165" />
  </g>
  <g
     transform="scale(0.5)"
     id="layer4"
     style="display:inline">
    <path
       style="opacity:1;fill:#d2d2d2;fill-opacity:1;stroke:none;stroke-width:4;stroke-linecap:butt;stroke-linejoin:bevel;stroke-miterlimit:4;stroke-dasharray:none;stroke-dashoffset:1;stroke-opacity:1"
       d="M 0,0 V 8 H 4 V 4 H 8 V 0 Z m 12,0 v 4 h 8 V 0 Z m 12,0 v 4 h 4 v 4 h 4 V 0 Z M 0,12 v 8 h 4 v -8 z m 28,0 v 8 h 4 V 12 Z M 0,24 v 8 H 8 V 28 H 4 v -4 z m 28,0 v 4 h -4 v 4 h 8 v -8 z m -16,4 v 4 h 8 v -4 z"
       id="rect4883" />
  </g>
</svg>
