<?xml version="1.0" encoding="UTF-8" standalone="no"?>
<!-- Created with Inkscape (http://www.inkscape.org/) -->

<svg
   xmlns:dc="http://purl.org/dc/elements/1.1/"
   xmlns:cc="http://creativecommons.org/ns#"
   xmlns:rdf="http://www.w3.org/1999/02/22-rdf-syntax-ns#"
   xmlns:svg="http://www.w3.org/2000/svg"
   xmlns="http://www.w3.org/2000/svg"
   xmlns:sodipodi="http://sodipodi.sourceforge.net/DTD/sodipodi-0.dtd"
   xmlns:inkscape="http://www.inkscape.org/namespaces/inkscape"
   width="32"
   height="32"
   viewBox="0 0 32 32.000001"
   id="svg2"
   version="1.1"
   inkscape:version="0.91 r13725"
   sodipodi:docname="light_artistic_text.svg"
   inkscape:export-filename="/run/media/andrei/C2942CC0942CB8B5/dribbble/krita icons/Collaborate/1_flat_dark/tools/light_draw-text.png"
   inkscape:export-xdpi="45"
   inkscape:export-ydpi="45">
  <defs
     id="defs4">
    <filter
       style="color-interpolation-filters:sRGB;"
       inkscape:label="Drop Shadow"
       id="filter4429">
      <feFlood
         flood-opacity="0.501961"
         flood-color="rgb(0,0,0)"
         result="flood"
         id="feFlood4431" />
      <feComposite
         in="flood"
         in2="SourceGraphic"
         operator="in"
         result="composite1"
         id="feComposite4433" />
      <feGaussianBlur
         in="composite1"
         stdDeviation="0"
         result="blur"
         id="feGaussianBlur4435" />
      <feOffset
         dx="0"
         dy="-2"
         result="offset"
         id="feOffset4437" />
      <feComposite
         in="SourceGraphic"
         in2="offset"
         operator="over"
         result="composite2"
         id="feComposite4439" />
    </filter>
    <filter
       style="color-interpolation-filters:sRGB;"
       inkscape:label="Drop Shadow"
       id="filter4326">
      <feFlood
         flood-opacity="0.501961"
         flood-color="rgb(0,0,0)"
         result="flood"
         id="feFlood4328" />
      <feComposite
         in="flood"
         in2="SourceGraphic"
         operator="in"
         result="composite1"
         id="feComposite4330" />
      <feGaussianBlur
         in="composite1"
         stdDeviation="0"
         result="blur"
         id="feGaussianBlur4332" />
      <feOffset
         dx="0"
         dy="-2"
         result="offset"
         id="feOffset4334" />
      <feComposite
         in="SourceGraphic"
         in2="offset"
         operator="over"
         result="composite2"
         id="feComposite4336" />
    </filter>
    <filter
       style="color-interpolation-filters:sRGB;"
       inkscape:label="Drop Shadow"
       id="filter5523">
      <feFlood
         flood-opacity="0.501961"
         flood-color="rgb(0,0,0)"
         result="flood"
         id="feFlood5525" />
      <feComposite
         in="flood"
         in2="SourceGraphic"
         operator="in"
         result="composite1"
         id="feComposite5527" />
      <feGaussianBlur
         in="composite1"
         stdDeviation="0"
         result="blur"
         id="feGaussianBlur5529" />
      <feOffset
         dx="0"
         dy="-2"
         result="offset"
         id="feOffset5531" />
      <feComposite
         in="SourceGraphic"
         in2="offset"
         operator="over"
         result="composite2"
         id="feComposite5533" />
    </filter>
  </defs>
  <sodipodi:namedview
     id="base"
     pagecolor="#474747"
     bordercolor="#666666"
     borderopacity="1.0"
     inkscape:pageopacity="0"
     inkscape:pageshadow="2"
     inkscape:zoom="0.49999998"
     inkscape:cx="-6.8777134"
     inkscape:cy="0.37268398"
     inkscape:document-units="px"
     inkscape:current-layer="flowRoot4202"
     showgrid="false"
     units="px"
     inkscape:showpageshadow="false"
     showborder="true"
     inkscape:window-width="989"
     inkscape:window-height="450"
     inkscape:window-x="336"
     inkscape:window-y="505"
     inkscape:window-maximized="0"
     objecttolerance="20">
    <inkscape:grid
       type="xygrid"
       id="grid3336"
       dotted="false"
       empspacing="1"
       snapvisiblegridlinesonly="true"
       enabled="true"
       visible="true"
       empcolor="#aaaaff"
       empopacity="0.25098039"
       color="#7878ff"
       opacity="0.1254902"
       spacingx="2"
       spacingy="2.0000001" />
  </sodipodi:namedview>
  <metadata
     id="metadata7">
    <rdf:RDF>
      <cc:Work
         rdf:about="">
        <dc:format>image/svg+xml</dc:format>
        <dc:type
           rdf:resource="http://purl.org/dc/dcmitype/StillImage" />
        <dc:title />
        <dc:creator>
          <cc:Agent>
            <dc:title>Andrei Rudenko</dc:title>
          </cc:Agent>
        </dc:creator>
      </cc:Work>
    </rdf:RDF>
  </metadata>
  <g
     inkscape:groupmode="layer"
     id="layer3"
     inkscape:label="v1"
     style="display:none">
    <path
       style="opacity:1;fill:#cacaca;fill-opacity:1;stroke:none;stroke-width:2;stroke-linecap:square;stroke-linejoin:miter;stroke-miterlimit:4;stroke-dasharray:none;stroke-dashoffset:1;stroke-opacity:1"
       d="m 2,0 0,4 0,6 4,0 0,-2 C 6,5.9999995 8,4 12,4 l 2,0 0,22 c 0,1 -1,2 -2,2 l -2,0 0,4 4,0 4,0 4,0 0,-4 -2,0 c -1,0 -2,-1 -2,-2 l 0,-22 2,0 c 4,0 6,1.9999995 6,4 l 0,2 4,0 L 30,0 6,0 Z"
       id="rect4360"
       inkscape:connector-curvature="0"
       sodipodi:nodetypes="ccccssccccccccccccssccccc" />
  </g>
  <g
     style="display:inline"
     inkscape:label="v1 copy"
     id="g4154"
     inkscape:groupmode="layer">
    <path
       style="fill:none;fill-rule:evenodd;stroke:#dcdcdc;stroke-width:2.03568077;stroke-linecap:butt;stroke-linejoin:miter;stroke-miterlimit:4;stroke-dasharray:none;stroke-opacity:1"
       d="m 30.067546,2.2290808 c 0,0 3.036297,11.4038402 -7.176455,21.4821872 -7.774523,7.672201 -21.2304324,5.830883 -21.2304324,5.830883"
       id="path4149-2"
       inkscape:connector-curvature="0"
       sodipodi:nodetypes="csc" />
    <g
       transform="matrix(0.3409489,-0.45018961,0.45018961,0.3409489,-96.753651,60.714388)"
       style="font-style:normal;font-weight:normal;font-size:76.15584564px;line-height:125%;font-family:sans-serif;letter-spacing:0px;word-spacing:0px;fill:#f0f0f0;fill-opacity:1;stroke:none;stroke-width:1px;stroke-linecap:butt;stroke-linejoin:miter;stroke-opacity:1"
       id="flowRoot4202">
      <path
         inkscape:connector-curvature="0"
         d="m 179.58309,94.331763 c -0.017,-1.123812 -0.1068,-1.885089 -0.32011,-2.283446 -0.21341,-0.39836 -0.80384,-0.597539 -1.77127,-0.597539 -1.77839,0 -3.08728,0.270315 -3.92667,0.810944 -0.82518,0.526403 -1.66457,1.251984 -2.5182,2.176744 -0.83939,0.910534 -1.57209,1.3658 -2.19809,1.3658 -1.35157,0 -2.02735,-0.668672 -2.02735,-2.006019 0,-0.597538 0.0925,-1.152394 0.27743,-1.664568 0.45526,-2.603558 0.88919,-4.061835 1.30178,-4.37483 0.29875,-0.227634 1.08836,-0.34145 2.3688,-0.34145 l 27.3587,0 c 1.28043,0 2.06291,0.113815 2.34746,0.34145 0.66867,0.526403 1.10971,1.984678 1.32312,4.37483 0.17072,0.526403 0.25608,1.081259 0.25608,1.664568 0,1.337347 -0.66867,2.006019 -2.00602,2.006019 -0.62599,0 -1.36579,-0.455266 -2.21942,-1.3658 -0.85362,-0.92476 -1.70014,-1.650341 -2.53954,-2.176744 -0.82516,-0.540629 -2.12694,-0.810944 -3.90533,-0.810944 -0.95321,0 -1.54364,0.199179 -1.77127,0.597539 -0.2134,0.398357 -0.33709,1.159634 -0.32011,2.283446 l 0.29593,19.580077 c 0.0228,1.50791 0.32011,2.4684 0.96032,2.88098 l 0.61888,0.34147 c 0.81094,0.51217 1.21641,1.06703 1.21641,1.66456 0,1.22353 -0.84651,1.8353 -2.53953,1.8353 l -10.1368,0 c -1.74993,0 -2.6249,-0.61177 -2.6249,-1.8353 0,-0.44103 0.0925,-0.75403 0.27743,-0.93899 0.18496,-0.19918 0.50507,-0.44104 0.96033,-0.72557 l 0.59754,-0.34147 c 0.64021,-0.41258 0.98312,-1.37307 0.96033,-2.88098 z"
         style="font-style:normal;font-variant:normal;font-weight:bold;font-stretch:normal;font-size:76.15584564px;line-height:50%;font-family:JasmineUPC;-inkscape-font-specification:'JasmineUPC, Bold';text-align:start;writing-mode:lr-tb;text-anchor:start;opacity:0.594;fill:#f0f0f0;fill-opacity:1"
         id="path4293"
         sodipodi:nodetypes="sssccssccssccssccscssccsssscccss" />
    </g>
  </g>
</svg>
