<?xml version="1.0" encoding="UTF-8" standalone="no"?>
<svg
   xmlns:dc="http://purl.org/dc/elements/1.1/"
   xmlns:cc="http://creativecommons.org/ns#"
   xmlns:rdf="http://www.w3.org/1999/02/22-rdf-syntax-ns#"
   xmlns:svg="http://www.w3.org/2000/svg"
   xmlns="http://www.w3.org/2000/svg"
   version="1.1"
   id="svg2"
   viewBox="0 0 32 32.000001"
   height="32"
   width="32">
  <defs
     id="defs4" />
  <metadata
     id="metadata7">
    <rdf:RDF>
      <cc:Work
         rdf:about="">
        <dc:format>image/svg+xml</dc:format>
        <dc:type
           rdf:resource="http://purl.org/dc/dcmitype/StillImage" />
        <dc:title></dc:title>
        <dc:creator>
          <cc:Agent>
            <dc:title>Andrei Rudenko</dc:title>
          </cc:Agent>
        </dc:creator>
        <cc:license
           rdf:resource="http://creativecommons.org/licenses/by-sa/4.0/" />
      </cc:Work>
      <cc:License
         rdf:about="http://creativecommons.org/licenses/by-sa/4.0/">
        <cc:permits
           rdf:resource="http://creativecommons.org/ns#Reproduction" />
        <cc:permits
           rdf:resource="http://creativecommons.org/ns#Distribution" />
        <cc:requires
           rdf:resource="http://creativecommons.org/ns#Notice" />
        <cc:requires
           rdf:resource="http://creativecommons.org/ns#Attribution" />
        <cc:permits
           rdf:resource="http://creativecommons.org/ns#DerivativeWorks" />
        <cc:requires
           rdf:resource="http://creativecommons.org/ns#ShareAlike" />
      </cc:License>
    </rdf:RDF>
  </metadata>
  <g
     style="display:none"
     id="layer3">
    <path
       id="rect4360"
       d="m 2,0 0,4 0,6 4,0 0,-2 C 6,5.9999995 8,4 12,4 l 2,0 0,22 c 0,1 -1,2 -2,2 l -2,0 0,4 4,0 4,0 4,0 0,-4 -2,0 c -1,0 -2,-1 -2,-2 l 0,-22 2,0 c 4,0 6,1.9999995 6,4 l 0,2 4,0 L 30,0 6,0 Z"
       style="opacity:1;fill:#cacaca;fill-opacity:1;stroke:none;stroke-width:2;stroke-linecap:square;stroke-linejoin:miter;stroke-miterlimit:4;stroke-dasharray:none;stroke-dashoffset:1;stroke-opacity:1" />
  </g>
  <g
     id="g4154"
     style="display:inline">
    <path
       id="path4149-2"
       d="m 30.067546,2.2290808 c 0,0 3.036297,11.4038402 -7.176455,21.4821872 -7.774523,7.672201 -21.2304324,5.830883 -21.2304324,5.830883"
       style="fill:none;fill-rule:evenodd;stroke:#dcdcdc;stroke-width:2.03568077;stroke-linecap:butt;stroke-linejoin:miter;stroke-miterlimit:4;stroke-dasharray:none;stroke-opacity:1" />
    <g
       id="flowRoot4202"
       style="font-style:normal;font-weight:normal;font-size:76.15584564px;line-height:125%;font-family:sans-serif;letter-spacing:0px;word-spacing:0px;fill:#f0f0f0;fill-opacity:1;stroke:none;stroke-width:1px;stroke-linecap:butt;stroke-linejoin:miter;stroke-opacity:1"
       transform="matrix(0.3409489,-0.45018961,0.45018961,0.3409489,-96.753651,60.714388)">
      <path
         id="path4293"
         style="font-style:normal;font-variant:normal;font-weight:bold;font-stretch:normal;font-size:76.15584564px;line-height:50%;font-family:JasmineUPC;-inkscape-font-specification:'JasmineUPC, Bold';text-align:start;writing-mode:lr-tb;text-anchor:start;opacity:0.594;fill:#f0f0f0;fill-opacity:1"
         d="m 179.58309,94.331763 c -0.017,-1.123812 -0.1068,-1.885089 -0.32011,-2.283446 -0.21341,-0.39836 -0.80384,-0.597539 -1.77127,-0.597539 -1.77839,0 -3.08728,0.270315 -3.92667,0.810944 -0.82518,0.526403 -1.66457,1.251984 -2.5182,2.176744 -0.83939,0.910534 -1.57209,1.3658 -2.19809,1.3658 -1.35157,0 -2.02735,-0.668672 -2.02735,-2.006019 0,-0.597538 0.0925,-1.152394 0.27743,-1.664568 0.45526,-2.603558 0.88919,-4.061835 1.30178,-4.37483 0.29875,-0.227634 1.08836,-0.34145 2.3688,-0.34145 l 27.3587,0 c 1.28043,0 2.06291,0.113815 2.34746,0.34145 0.66867,0.526403 1.10971,1.984678 1.32312,4.37483 0.17072,0.526403 0.25608,1.081259 0.25608,1.664568 0,1.337347 -0.66867,2.006019 -2.00602,2.006019 -0.62599,0 -1.36579,-0.455266 -2.21942,-1.3658 -0.85362,-0.92476 -1.70014,-1.650341 -2.53954,-2.176744 -0.82516,-0.540629 -2.12694,-0.810944 -3.90533,-0.810944 -0.95321,0 -1.54364,0.199179 -1.77127,0.597539 -0.2134,0.398357 -0.33709,1.159634 -0.32011,2.283446 l 0.29593,19.580077 c 0.0228,1.50791 0.32011,2.4684 0.96032,2.88098 l 0.61888,0.34147 c 0.81094,0.51217 1.21641,1.06703 1.21641,1.66456 0,1.22353 -0.84651,1.8353 -2.53953,1.8353 l -10.1368,0 c -1.74993,0 -2.6249,-0.61177 -2.6249,-1.8353 0,-0.44103 0.0925,-0.75403 0.27743,-0.93899 0.18496,-0.19918 0.50507,-0.44104 0.96033,-0.72557 l 0.59754,-0.34147 c 0.64021,-0.41258 0.98312,-1.37307 0.96033,-2.88098 z" />
    </g>
  </g>
</svg>
