<svg xmlns:dc="http://purl.org/dc/elements/1.1/" xmlns:cc="http://creativecommons.org/ns#" xmlns:rdf="http://www.w3.org/1999/02/22-rdf-syntax-ns#" xmlns="http://www.w3.org/2000/svg" width="16" height="16" viewBox="0 0 16 16" id="svg2" version="1.1"><metadata id="metadata7"><rdf:RDF><cc:Work><dc:format>image/svg+xml</dc:format><dc:type rdf:resource="http://purl.org/dc/dcmitype/StillImage"/><dc:title/><dc:creator><cc:Agent><dc:title>Timothée Giet</dc:title></cc:Agent></dc:creator><dc:date>2017</dc:date><cc:license rdf:resource="http://creativecommons.org/licenses/by-sa/4.0/"/></cc:Work><cc:License rdf:about="http://creativecommons.org/licenses/by-sa/4.0/"><cc:permits rdf:resource="http://creativecommons.org/ns#Reproduction"/><cc:permits rdf:resource="http://creativecommons.org/ns#Distribution"/><cc:requires rdf:resource="http://creativecommons.org/ns#Notice"/><cc:requires rdf:resource="http://creativecommons.org/ns#Attribution"/><cc:permits rdf:resource="http://creativecommons.org/ns#DerivativeWorks"/><cc:requires rdf:resource="http://creativecommons.org/ns#ShareAlike"/></cc:License></rdf:RDF></metadata><g transform="matrix(.5 0 0 .5 0 0)" style="display:inline" id="g4152"><path d="M11.22 15.892c-4.266.925-5.88 4.762-5.76 7.676.128 3.144-3.25 5.634-5.372 6.065 2.885 2.29 7.106 2.633 10.92 1.858 5.582-1.133 9.383-5.486 8.367-10.49-.764-3.76-3.974-6.015-8.156-5.109z" id="path6" style="fill:#d2d2d2"/><path style="display:inline;fill:#d2d2d2;fill-opacity:1;fill-rule:evenodd;stroke:none;stroke-width:1px;stroke-linecap:butt;stroke-linejoin:miter;stroke-opacity:1" d="M15.42 13.92c2.334.387 4.895 2.566 5.385 4.578.278.943 2.615-1.019 2.26-2.369-1.26-2.782-3.97-4.68-6.408-4.596-.881.014-1.95 2.341-1.237 2.387z" id="path4174-1"/><path style="display:inline;fill:#d2d2d2;fill-opacity:1;fill-rule:evenodd;stroke:none;stroke-width:1px;stroke-linecap:butt;stroke-linejoin:miter;stroke-opacity:1" d="M18.647 9.742c2.334.387 5.222 2.765 5.712 4.777.278.943 8.63-7.847 8.275-9.197 1.081-8.218-.421-5.34-7.91-5.745-2.384.147-6.79 10.12-6.077 10.165z" id="path4174-3-9"/></g></svg>