<?xml version="1.0" encoding="UTF-8" standalone="no"?>
<!-- Created with Inkscape (http://www.inkscape.org/) -->

<svg
   xmlns:dc="http://purl.org/dc/elements/1.1/"
   xmlns:cc="http://creativecommons.org/ns#"
   xmlns:rdf="http://www.w3.org/1999/02/22-rdf-syntax-ns#"
   xmlns:svg="http://www.w3.org/2000/svg"
   xmlns="http://www.w3.org/2000/svg"
   xmlns:sodipodi="http://sodipodi.sourceforge.net/DTD/sodipodi-0.dtd"
   xmlns:inkscape="http://www.inkscape.org/namespaces/inkscape"
   width="32"
   height="32"
   viewBox="0 0 32 32.000001"
   id="svg2"
   version="1.1"
   inkscape:version="0.91 r13725"
   sodipodi:docname="light_krita_tool_reference_images.svg"
   inkscape:export-filename="C:\dribbble\krita icons\Collaborate\1_flat\tools\light_calligraphy.png"
   inkscape:export-xdpi="45"
   inkscape:export-ydpi="45">
  <defs
     id="defs4" />
  <sodipodi:namedview
     id="base"
     pagecolor="#474747"
     bordercolor="#666666"
     borderopacity="1.0"
     inkscape:pageopacity="0"
     inkscape:pageshadow="2"
     inkscape:zoom="7.9999996"
     inkscape:cx="18.806513"
     inkscape:cy="8.5471467"
     inkscape:document-units="px"
     inkscape:current-layer="layer1"
     showgrid="true"
     units="px"
     inkscape:showpageshadow="false"
     showborder="true"
     inkscape:window-width="937"
     inkscape:window-height="1059"
     inkscape:window-x="0"
     inkscape:window-y="0"
     inkscape:window-maximized="0"
     objecttolerance="10"
     guidetolerance="10"
     inkscape:snap-perpendicular="true"
     inkscape:snap-tangential="true"
     inkscape:snap-path-clip="true"
     inkscape:snap-path-mask="true"
     gridtolerance="10"
     showguides="true"
     inkscape:object-nodes="true">
    <inkscape:grid
       type="xygrid"
       id="grid3336"
       dotted="false"
       empspacing="1"
       snapvisiblegridlinesonly="true"
       enabled="true"
       visible="true"
       empcolor="#aaaaff"
       empopacity="0.25098039"
       color="#7878ff"
       opacity="0.1254902"
       spacingx="2"
       spacingy="2.0000001" />
  </sodipodi:namedview>
  <metadata
     id="metadata7">
    <rdf:RDF>
      <cc:Work
         rdf:about="">
        <dc:format>image/svg+xml</dc:format>
        <dc:type
           rdf:resource="http://purl.org/dc/dcmitype/StillImage" />
        <dc:title />
        <dc:creator>
          <cc:Agent>
            <dc:title>Andrei Rudenko</dc:title>
          </cc:Agent>
        </dc:creator>
      </cc:Work>
    </rdf:RDF>
  </metadata>
  <g
     inkscape:groupmode="layer"
     id="layer3"
     inkscape:label="Layer 3"
     style="display:none">
    <path
       style="opacity:1;fill:#cacaca;fill-opacity:1;stroke:none;stroke-width:2;stroke-linecap:square;stroke-linejoin:miter;stroke-miterlimit:4;stroke-dasharray:none;stroke-dashoffset:1;stroke-opacity:1"
       d="m 19.640491,21.608542 c 0.481192,4.391997 -4.559846,6.992766 -6.439853,7.675092 -3.31028,1.201425 -10.1403284,0.675039 -13.10407386,-0.819812 -0.6788232,-0.49186 5.36634866,-1.494359 5.98233156,-5.017737 0.3786527,-2.165867 1.2795682,-7.586077 6.0251183,-8.244047 3.962098,-0.549344 7.165987,3.024927 7.536477,6.406504 z"
       id="path4171"
       inkscape:connector-curvature="0"
       sodipodi:nodetypes="sscsss" />
    <path
       style="fill:#cacaca;fill-opacity:1;fill-rule:evenodd;stroke:none;stroke-width:1px;stroke-linecap:butt;stroke-linejoin:miter;stroke-opacity:1"
       d="m 15.207024,13.937147 c 2.333842,0.386972 4.895586,2.565916 5.385678,4.577888 0.277189,0.943348 2.614657,-1.018254 2.259914,-2.36818 -1.261052,-2.782065 -3.970326,-4.680627 -6.408155,-4.596194 -0.881229,0.01424 -1.949958,2.340991 -1.237437,2.386486 z"
       id="path4174"
       inkscape:connector-curvature="0"
       sodipodi:nodetypes="ccccc" />
    <path
       style="display:inline;fill:#cacaca;fill-opacity:1;fill-rule:evenodd;stroke:none;stroke-width:1px;stroke-linecap:butt;stroke-linejoin:miter;stroke-opacity:1"
       d="m 18.434109,9.7592901 c 2.333842,0.3869719 5.2226,2.7647909 5.712692,4.7767629 0.277189,0.943348 8.629506,-7.8462545 8.274763,-9.1961805 C 33.502804,-2.8780764 32,-6e-7 24.510808,-0.4053706 22.126977,-0.2585481 17.721588,9.7137951 18.434109,9.7592901 Z"
       id="path4174-3"
       inkscape:connector-curvature="0"
       sodipodi:nodetypes="ccccc" />
    <g
       style="display:inline"
       id="g4261-8-5"
       transform="translate(0,6)" />
  </g>
  <g
     style="display:none;opacity:0.19599998"
     inkscape:label="Layer 3 copy"
     id="g4152"
     inkscape:groupmode="layer"
     sodipodi:insensitive="true">
    <g
       transform="translate(0,6)"
       id="g4160"
       style="display:inline" />
    <path
       inkscape:connector-curvature="0"
       d="m 11.219417,15.892144 c -4.2656666,0.924486 -5.8798289,4.76152 -5.7602025,7.676073 0.1290153,3.143304 -3.2492423,5.634064 -5.37088721,6.064991 2.88480171,2.290554 7.10590391,2.632817 10.91981371,1.858174 5.581946,-1.133748 9.38291,-5.486724 8.3665,-10.490964 -0.763458,-3.75884 -3.973912,-6.014478 -8.155224,-5.108274 z"
       id="path6"
       sodipodi:nodetypes="sscsss"
       style="fill:#cacaca" />
    <path
       style="display:inline;fill:#cacaca;fill-opacity:1;fill-rule:evenodd;stroke:none;stroke-width:1px;stroke-linecap:butt;stroke-linejoin:miter;stroke-opacity:1"
       d="m 15.419679,13.919707 c 2.333842,0.386972 4.895586,2.565916 5.385678,4.577888 0.277189,0.943348 2.614657,-1.018254 2.259914,-2.36818 -1.261052,-2.782065 -3.970326,-4.680627 -6.408155,-4.596194 -0.881229,0.01424 -1.949958,2.340991 -1.237437,2.386486 z"
       id="path4174-1"
       inkscape:connector-curvature="0"
       sodipodi:nodetypes="ccccc" />
    <path
       style="display:inline;fill:#cacaca;fill-opacity:1;fill-rule:evenodd;stroke:none;stroke-width:1px;stroke-linecap:butt;stroke-linejoin:miter;stroke-opacity:1"
       d="m 18.646764,9.7418502 c 2.333842,0.3869718 5.2226,2.7647908 5.712692,4.7767628 0.277189,0.943348 8.629506,-7.8462544 8.274763,-9.1961804 1.08124,-8.2179489 -0.421564,-5.33987312 -7.910756,-5.74524312 -2.383831,0.1468225 -6.78922,10.11916572 -6.076699,10.16466072 z"
       id="path4174-3-9"
       inkscape:connector-curvature="0"
       sodipodi:nodetypes="ccccc" />
  </g>
  <g
     inkscape:groupmode="layer"
     id="layer1"
     inkscape:label="Layer 3 copy 1"
     style="opacity:1">
    <path
       style="color:#000000;clip-rule:nonzero;display:inline;overflow:visible;visibility:visible;opacity:1;isolation:auto;mix-blend-mode:normal;color-interpolation:sRGB;color-interpolation-filters:linearRGB;solid-color:#000000;solid-opacity:1;fill:#c8c8c8;fill-opacity:1;fill-rule:evenodd;stroke:none;stroke-width:1px;stroke-linecap:butt;stroke-linejoin:miter;stroke-miterlimit:4;stroke-dasharray:none;stroke-dashoffset:0;stroke-opacity:1;color-rendering:auto;image-rendering:auto;shape-rendering:auto;text-rendering:auto;enable-background:accumulate"
       d="M 20.705882,-5.9999998e-7 11.294116,13.17647 l -7.5294103,0 6.4797803,6.47978 L 0,32 12.34375,21.755516 l 6.47978,6.479779 0,-7.529411 13.176469,-9.411766 z"
       id="path4148"
       inkscape:connector-curvature="0"
       sodipodi:nodetypes="cccccccccc" />
  </g>
</svg>
