<?xml version="1.0" encoding="UTF-8" standalone="no"?>
<svg
   xmlns:dc="http://purl.org/dc/elements/1.1/"
   xmlns:cc="http://creativecommons.org/ns#"
   xmlns:rdf="http://www.w3.org/1999/02/22-rdf-syntax-ns#"
   xmlns:svg="http://www.w3.org/2000/svg"
   xmlns="http://www.w3.org/2000/svg"
   height="16"
   width="16"
   version="1.1"
   viewBox="0 0 16 16"
   data-name="Layer 2"
   id="Layer_2">
  <metadata
     id="metadata12">
    <rdf:RDF>
      <cc:Work
         rdf:about="">
        <dc:format>image/svg+xml</dc:format>
        <dc:type
           rdf:resource="http://purl.org/dc/dcmitype/StillImage" />
        <dc:title></dc:title>
        <dc:creator>
          <cc:Agent>
            <dc:title>Andrei Rudenko</dc:title>
          </cc:Agent>
        </dc:creator>
        <dc:date>2021</dc:date>
        <cc:license
           rdf:resource="http://creativecommons.org/licenses/by-sa/4.0/" />
      </cc:Work>
      <cc:License
         rdf:about="http://creativecommons.org/licenses/by-sa/4.0/">
        <cc:permits
           rdf:resource="http://creativecommons.org/ns#Reproduction" />
        <cc:permits
           rdf:resource="http://creativecommons.org/ns#Distribution" />
        <cc:requires
           rdf:resource="http://creativecommons.org/ns#Notice" />
        <cc:requires
           rdf:resource="http://creativecommons.org/ns#Attribution" />
        <cc:permits
           rdf:resource="http://creativecommons.org/ns#DerivativeWorks" />
        <cc:requires
           rdf:resource="http://creativecommons.org/ns#ShareAlike" />
      </cc:License>
    </rdf:RDF>
  </metadata>
  <defs
     id="defs4">
    <style
       id="style2">.cls-1{fill:#cacaca;}</style>
  </defs>
  <circle
     style="fill:#d2d2d2;stroke-width:0.5;fill-opacity:1"
     r="1.5"
     cy="5.5"
     cx="8.5"
     class="cls-1"
     id="circle4220" />
  <path
     style="fill:#d2d2d2;stroke-width:0.49996591;fill-opacity:1"
     id="path7"
     d="M 15.997818,4.9999999 C 15.997818,10.025 5.9141935,15.195 0,16 v -2 c 5.534245,-0.81 13.998091,-5.6950001 13.998091,-9.0000001 0.02885,-0.6269519 -0.204854,-1.2375656 -0.644912,-1.685 -0.894878,-0.88 -2.739626,-1.315 -5.3542699,-1.315 -1.432729,2.345e-4 -2.8610986,0.157846 -4.2594191,0.47 C 2.4463336,2.8033329 1.9464018,0.86333287 3.2395582,0.52999987 4.8019305,0.18024137 6.3978786,0.00251686 7.9989091,-1.3519435e-7 11.188474,-1.3519435e-7 13.498159,0.60999987 14.767986,1.8949999 c 0.82197,0.820149 1.267252,1.9443702 1.229832,3.105 z"
     class="cls-1" />
</svg>
