<?xml version="1.0" encoding="UTF-8" standalone="no"?>
<svg
   xmlns:dc="http://purl.org/dc/elements/1.1/"
   xmlns:cc="http://creativecommons.org/ns#"
   xmlns:rdf="http://www.w3.org/1999/02/22-rdf-syntax-ns#"
   xmlns:svg="http://www.w3.org/2000/svg"
   xmlns="http://www.w3.org/2000/svg"
   version="1.1"
   id="svg2"
   viewBox="0 0 29.999998 29.999999"
   height="32"
   width="32">
  <defs
     id="defs4" />
  <metadata
     id="metadata7">
    <rdf:RDF>
      <cc:Work
         rdf:about="">
        <dc:format>image/svg+xml</dc:format>
        <dc:type
           rdf:resource="http://purl.org/dc/dcmitype/StillImage" />
        <dc:title></dc:title>
        <dc:creator>
          <cc:Agent>
            <dc:title>Timothée Giet</dc:title>
          </cc:Agent>
        </dc:creator>
        <cc:license
           rdf:resource="http://creativecommons.org/licenses/by-sa/4.0/" />
        <dc:date>2020</dc:date>
      </cc:Work>
      <cc:License
         rdf:about="http://creativecommons.org/licenses/by-sa/4.0/">
        <cc:permits
           rdf:resource="http://creativecommons.org/ns#Reproduction" />
        <cc:permits
           rdf:resource="http://creativecommons.org/ns#Distribution" />
        <cc:requires
           rdf:resource="http://creativecommons.org/ns#Notice" />
        <cc:requires
           rdf:resource="http://creativecommons.org/ns#Attribution" />
        <cc:permits
           rdf:resource="http://creativecommons.org/ns#DerivativeWorks" />
        <cc:requires
           rdf:resource="http://creativecommons.org/ns#ShareAlike" />
      </cc:License>
    </rdf:RDF>
  </metadata>
  <path
     id="path816"
     transform="scale(0.93749995)"
     d="M 16 0 A 16 16 0 0 0 12.736328 0.33984375 L 13.554688 4.265625 A 12 12 0 0 1 16 4 A 12 12 0 0 1 18.962891 4.3867188 L 19.951172 0.50976562 A 16 16 0 0 0 16 0 z M 7.8417969 2.2578125 A 16 16 0 0 0 2.6230469 7.2363281 L 5.9707031 9.4296875 A 12 12 0 0 1 9.8808594 5.6914062 L 7.8417969 2.2578125 z M 24.763672 2.6230469 L 22.570312 5.9707031 A 12 12 0 0 1 26.308594 9.8808594 L 29.742188 7.8417969 A 16 16 0 0 0 24.763672 2.6230469 z M 0.50976562 12.048828 A 16 16 0 0 0 0 16 A 16 16 0 0 0 0.33984375 19.263672 L 4.265625 18.445312 A 12 12 0 0 1 4 16 A 12 12 0 0 1 4.3867188 13.037109 L 0.50976562 12.048828 z M 31.660156 12.736328 L 27.734375 13.554688 A 12 12 0 0 1 28 16 A 12 12 0 0 1 27.613281 18.962891 L 31.490234 19.951172 A 16 16 0 0 0 32 16 A 16 16 0 0 0 31.660156 12.736328 z M 5.6914062 22.119141 L 2.2578125 24.158203 A 16 16 0 0 0 7.2363281 29.376953 L 9.4296875 26.029297 A 12 12 0 0 1 5.6914062 22.119141 z M 26.029297 22.570312 A 12 12 0 0 1 22.119141 26.308594 L 24.158203 29.742188 A 16 16 0 0 0 29.376953 24.763672 L 26.029297 22.570312 z M 13.037109 27.613281 L 12.048828 31.490234 A 16 16 0 0 0 16 32 A 16 16 0 0 0 19.263672 31.660156 L 18.445312 27.734375 A 12 12 0 0 1 16 28 A 12 12 0 0 1 13.037109 27.613281 z "
     style="opacity:1;vector-effect:none;fill:#cacaca;fill-opacity:1;stroke:none;stroke-width:4;stroke-linecap:square;stroke-linejoin:bevel;stroke-miterlimit:4;stroke-dasharray:3.99999998, 7.99999994000000036;stroke-dashoffset:3.20000005;stroke-opacity:1" />
</svg>
