<svg xmlns:dc="http://purl.org/dc/elements/1.1/" xmlns:cc="http://creativecommons.org/ns#" xmlns:rdf="http://www.w3.org/1999/02/22-rdf-syntax-ns#" xmlns="http://www.w3.org/2000/svg" height="16" width="16" version="1.1" viewBox="0 0 16 16" data-name="Layer 2" id="Layer_2"><metadata id="metadata12"><rdf:RDF><cc:Work><dc:format>image/svg+xml</dc:format><dc:type rdf:resource="http://purl.org/dc/dcmitype/StillImage"/><dc:title/><dc:creator><cc:Agent><dc:title>Andrei Rudenko</dc:title></cc:Agent></dc:creator><dc:date>2021</dc:date><cc:license rdf:resource="http://creativecommons.org/licenses/by-sa/4.0/"/></cc:Work><cc:License rdf:about="http://creativecommons.org/licenses/by-sa/4.0/"><cc:permits rdf:resource="http://creativecommons.org/ns#Reproduction"/><cc:permits rdf:resource="http://creativecommons.org/ns#Distribution"/><cc:requires rdf:resource="http://creativecommons.org/ns#Notice"/><cc:requires rdf:resource="http://creativecommons.org/ns#Attribution"/><cc:permits rdf:resource="http://creativecommons.org/ns#DerivativeWorks"/><cc:requires rdf:resource="http://creativecommons.org/ns#ShareAlike"/></cc:License></rdf:RDF></metadata><defs id="defs4"><style id="style2">.cls-1{fill:#cacaca}</style></defs><circle style="fill:#d2d2d2;stroke-width:.5;fill-opacity:1" r="1.5" cy="5.5" cx="8.5" class="cls-1" id="circle4220"/><path style="fill:#d2d2d2;stroke-width:.49996591;fill-opacity:1" id="path7" d="M15.998 5c0 5.025-10.084 10.195-15.998 11v-2c5.534-.81 13.998-5.695 13.998-9a2.255 2.255 0 0 0-.645-1.685C12.458 2.435 10.613 2 8 2c-1.433 0-2.861.158-4.26.47-1.293.333-1.793-1.607-.5-1.94A21.944 21.944 0 0 1 8 0c3.19 0 5.5.61 6.769 1.895A4.195 4.195 0 0 1 15.998 5z" class="cls-1"/></svg>