<?xml version="1.0" encoding="UTF-8" standalone="no"?>
<svg
   xmlns:dc="http://purl.org/dc/elements/1.1/"
   xmlns:cc="http://creativecommons.org/ns#"
   xmlns:rdf="http://www.w3.org/1999/02/22-rdf-syntax-ns#"
   xmlns:svg="http://www.w3.org/2000/svg"
   xmlns="http://www.w3.org/2000/svg"
   width="32"
   height="32"
   viewBox="0 0 32 32.000001"
   id="svg2"
   version="1.1">
  <defs
     id="defs4" />
  <metadata
     id="metadata7">
    <rdf:RDF>
      <cc:Work
         rdf:about="">
        <dc:format>image/svg+xml</dc:format>
        <dc:type
           rdf:resource="http://purl.org/dc/dcmitype/StillImage" />
        <dc:title></dc:title>
        <dc:creator>
          <cc:Agent>
            <dc:title>Timothée Giet</dc:title>
          </cc:Agent>
        </dc:creator>
        <dc:date>2017</dc:date>
        <cc:license
           rdf:resource="http://creativecommons.org/licenses/by-sa/4.0/" />
      </cc:Work>
      <cc:License
         rdf:about="http://creativecommons.org/licenses/by-sa/4.0/">
        <cc:permits
           rdf:resource="http://creativecommons.org/ns#Reproduction" />
        <cc:permits
           rdf:resource="http://creativecommons.org/ns#Distribution" />
        <cc:requires
           rdf:resource="http://creativecommons.org/ns#Notice" />
        <cc:requires
           rdf:resource="http://creativecommons.org/ns#Attribution" />
        <cc:permits
           rdf:resource="http://creativecommons.org/ns#DerivativeWorks" />
        <cc:requires
           rdf:resource="http://creativecommons.org/ns#ShareAlike" />
      </cc:License>
    </rdf:RDF>
  </metadata>
  <g
     id="layer3"
     style="display:none">
    <path
       style="opacity:1;fill:#cacaca;fill-opacity:1;stroke:none;stroke-width:2;stroke-linecap:square;stroke-linejoin:miter;stroke-miterlimit:4;stroke-dasharray:none;stroke-dashoffset:1;stroke-opacity:1"
       d="m 19.640491,21.608542 c 0.481192,4.391997 -4.559846,6.992766 -6.439853,7.675092 -3.31028,1.201425 -10.1403284,0.675039 -13.10407386,-0.819812 -0.6788232,-0.49186 5.36634866,-1.494359 5.98233156,-5.017737 0.3786527,-2.165867 1.2795682,-7.586077 6.0251183,-8.244047 3.962098,-0.549344 7.165987,3.024927 7.536477,6.406504 z"
       id="path4171" />
    <path
       style="fill:#cacaca;fill-opacity:1;fill-rule:evenodd;stroke:none;stroke-width:1px;stroke-linecap:butt;stroke-linejoin:miter;stroke-opacity:1"
       d="m 15.207024,13.937147 c 2.333842,0.386972 4.895586,2.565916 5.385678,4.577888 0.277189,0.943348 2.614657,-1.018254 2.259914,-2.36818 -1.261052,-2.782065 -3.970326,-4.680627 -6.408155,-4.596194 -0.881229,0.01424 -1.949958,2.340991 -1.237437,2.386486 z"
       id="path4174" />
    <path
       style="display:inline;fill:#cacaca;fill-opacity:1;fill-rule:evenodd;stroke:none;stroke-width:1px;stroke-linecap:butt;stroke-linejoin:miter;stroke-opacity:1"
       d="m 18.434109,9.7592901 c 2.333842,0.3869719 5.2226,2.7647909 5.712692,4.7767629 0.277189,0.943348 8.629506,-7.8462545 8.274763,-9.1961805 C 33.502804,-2.8780764 32,-6e-7 24.510808,-0.4053706 22.126977,-0.2585481 17.721588,9.7137951 18.434109,9.7592901 Z"
       id="path4174-3" />
    <g
       style="display:inline"
       id="g4261-8-5"
       transform="translate(0,6)" />
  </g>
  <g
     style="display:none;opacity:0.19599998"
     id="g4152">
    <g
       transform="translate(0,6)"
       id="g4160"
       style="display:inline" />
    <path
       d="m 11.219417,15.892144 c -4.2656666,0.924486 -5.8798289,4.76152 -5.7602025,7.676073 0.1290153,3.143304 -3.2492423,5.634064 -5.37088721,6.064991 2.88480171,2.290554 7.10590391,2.632817 10.91981371,1.858174 5.581946,-1.133748 9.38291,-5.486724 8.3665,-10.490964 -0.763458,-3.75884 -3.973912,-6.014478 -8.155224,-5.108274 z"
       id="path6"
       style="fill:#cacaca" />
    <path
       style="display:inline;fill:#cacaca;fill-opacity:1;fill-rule:evenodd;stroke:none;stroke-width:1px;stroke-linecap:butt;stroke-linejoin:miter;stroke-opacity:1"
       d="m 15.419679,13.919707 c 2.333842,0.386972 4.895586,2.565916 5.385678,4.577888 0.277189,0.943348 2.614657,-1.018254 2.259914,-2.36818 -1.261052,-2.782065 -3.970326,-4.680627 -6.408155,-4.596194 -0.881229,0.01424 -1.949958,2.340991 -1.237437,2.386486 z"
       id="path4174-1" />
    <path
       style="display:inline;fill:#cacaca;fill-opacity:1;fill-rule:evenodd;stroke:none;stroke-width:1px;stroke-linecap:butt;stroke-linejoin:miter;stroke-opacity:1"
       d="m 18.646764,9.7418502 c 2.333842,0.3869718 5.2226,2.7647908 5.712692,4.7767628 0.277189,0.943348 8.629506,-7.8462544 8.274763,-9.1961804 1.08124,-8.2179489 -0.421564,-5.33987312 -7.910756,-5.74524312 -2.383831,0.1468225 -6.78922,10.11916572 -6.076699,10.16466072 z"
       id="path4174-3-9" />
  </g>
  <g
     id="layer1"
     style="opacity:1">
    <path
       style="fill:#cacaca;fill-opacity:1;fill-rule:evenodd;stroke:none;stroke-width:1px;stroke-linecap:butt;stroke-linejoin:miter;stroke-opacity:1"
       d="M 24,-1.6e-6 22,1.9999986 30,9.999999 32,7.9999988 Z"
       id="path889" />
    <path
       style="opacity:1;fill:#cacaca;fill-opacity:1;fill-rule:evenodd;stroke:none;stroke-width:1px;stroke-linecap:butt;stroke-linejoin:miter;stroke-opacity:1"
       d="M 22,4 10,5.9999987 8,11.999999 0,26 2,28 12.130859,17.869141 C 12.044806,17.587423 12.000713,17.294567 12,17 c 0,-1.656854 1.343146,-3 3,-3 1.656854,0 3,1.343146 3,3 0,1.656854 -1.343146,3 -3,3 -0.294567,-7.13e-4 -0.587423,-0.04481 -0.869141,-0.130859 L 4,30 l 2,2 14,-8 6,-2 2,-12 z"
       id="path891" />
  </g>
</svg>
