<svg xmlns:dc="http://purl.org/dc/elements/1.1/" xmlns:cc="http://creativecommons.org/ns#" xmlns:rdf="http://www.w3.org/1999/02/22-rdf-syntax-ns#" xmlns="http://www.w3.org/2000/svg" viewBox="0 0 22 22" version="1.1" id="svg2" height="22" width="22"><title id="title4184">I REALLY hate this icon</title><metadata id="metadata7"><rdf:RDF><cc:Work><dc:format>image/svg+xml</dc:format><dc:type rdf:resource="http://purl.org/dc/dcmitype/StillImage"/><dc:title>I REALLY hate this icon</dc:title><dc:date>November 20th 2014</dc:date><dc:creator><cc:Agent><dc:title>Uri Herrera</dc:title></cc:Agent></dc:creator><dc:rights><cc:Agent><dc:title/></cc:Agent></dc:rights><dc:language>English</dc:language><dc:description>Migh as well use Tango... for crying out loud. This damn icon has to die, but no because obviously we&apos;re still using floppies therefore it is still relevant in 2014.</dc:description><cc:license/></cc:Work></rdf:RDF></metadata><g transform="translate(0 -1030.362)" id="layer1"><path id="rect4126" transform="translate(0 1030.362)" d="M2 2.998V19h9v-1H6v-6h5v-1H5v7H3V4h3v5h8V4h.293L17 6.707V10h1V6.3h-.008L18 6.292l-3.293-3.293-.008.01v-.01H14zM7 4h3.9v4H7zm11 7-.996.994H17l-5 4.998.008.01-.004 1.004H12v1h2l.006-.01h.014l-.006-.01L15 18l4-3.996-.705-.71-4.99 4.987-.594-.592 4.992-4.988.592.594.705.703 1-1z" style="fill:#d2d2d2;fill-opacity:1;stroke:none"/></g></svg>