<?xml version="1.0" encoding="UTF-8" standalone="no"?>
<!-- Created with Inkscape (http://www.inkscape.org/) -->

<svg
   xmlns:dc="http://purl.org/dc/elements/1.1/"
   xmlns:cc="http://creativecommons.org/ns#"
   xmlns:rdf="http://www.w3.org/1999/02/22-rdf-syntax-ns#"
   xmlns:svg="http://www.w3.org/2000/svg"
   xmlns="http://www.w3.org/2000/svg"
   xmlns:sodipodi="http://sodipodi.sourceforge.net/DTD/sodipodi-0.dtd"
   xmlns:inkscape="http://www.inkscape.org/namespaces/inkscape"
   width="22"
   height="22"
   id="svg3613"
   version="1.1"
   inkscape:version="0.91pre2 r"
   sodipodi:docname="applications-system.svg">
  <defs
     id="defs3615" />
  <sodipodi:namedview
     id="base"
     pagecolor="#ffffff"
     bordercolor="#666666"
     borderopacity="1.0"
     inkscape:pageopacity="0.0"
     inkscape:pageshadow="2"
     inkscape:zoom="8"
     inkscape:cx="-21.611725"
     inkscape:cy="-4.0441868"
     inkscape:document-units="px"
     inkscape:current-layer="layer1"
     showgrid="true"
     inkscape:window-width="1366"
     inkscape:window-height="716"
     inkscape:window-x="-4"
     inkscape:window-y="25"
     inkscape:window-maximized="1"
     inkscape:showpageshadow="false"
     borderlayer="true">
    <sodipodi:guide
       position="2,20.000017"
       orientation="18,0"
       id="guide4074" />
    <sodipodi:guide
       position="2,2.0000174"
       orientation="0,18"
       id="guide4076" />
    <sodipodi:guide
       position="20,2.0000174"
       orientation="-18,0"
       id="guide4078" />
    <sodipodi:guide
       position="20,20.000017"
       orientation="0,-18"
       id="guide4080" />
    <sodipodi:guide
       position="3,19.000017"
       orientation="16,0"
       id="guide4082" />
    <sodipodi:guide
       position="3,3.0000174"
       orientation="0,16"
       id="guide4084" />
    <sodipodi:guide
       position="19,3.0000174"
       orientation="-16,0"
       id="guide4086" />
    <sodipodi:guide
       position="19,19.000017"
       orientation="0,-16"
       id="guide4088" />
    <inkscape:grid
       type="xygrid"
       id="grid4090" />
  </sodipodi:namedview>
  <metadata
     id="metadata3618">
    <rdf:RDF>
      <cc:Work
         rdf:about="">
        <dc:format>image/svg+xml</dc:format>
        <dc:type
           rdf:resource="http://purl.org/dc/dcmitype/StillImage" />
        <dc:title />
      </cc:Work>
    </rdf:RDF>
  </metadata>
  <g
     inkscape:label="Capa 1"
     inkscape:groupmode="layer"
     id="layer1"
     transform="translate(0,-1030.3622)">
    <path
       style="fill:#f2f2f2;fill-opacity:1;stroke:none"
       d="M 11.5 3 C 10.286139 3 9.2809778 3.8559279 9.0507812 5 L 3 5 L 3 6 L 9.0507812 6 C 9.2809778 7.1440721 10.286139 8 11.5 8 C 12.713861 8 13.719022 7.1440721 13.949219 6 L 19 6 L 19 5 L 13.949219 5 C 13.719022 3.8559279 12.713861 3 11.5 3 z M 5.5 14 C 4.1149999 14 3 15.115 3 16.5 C 3 17.885 4.1149999 19 5.5 19 C 6.7138604 19 7.7190223 18.144072 7.9492188 17 L 19 17 L 19 16 L 7.9492188 16 C 7.7190223 14.855928 6.7138604 14 5.5 14 z M 5.5 15 C 6.3310001 15 7 15.669 7 16.5 C 7 17.331 6.3310001 18 5.5 18 C 4.6689999 18 4 17.331 4 16.5 C 4 15.669 4.6689999 15 5.5 15 z "
       transform="translate(0,1030.3622)"
       id="rect4139" />
  </g>
</svg>
