<?xml version="1.0" encoding="UTF-8" standalone="no"?>
<svg
   xmlns:dc="http://purl.org/dc/elements/1.1/"
   xmlns:cc="http://creativecommons.org/ns#"
   xmlns:rdf="http://www.w3.org/1999/02/22-rdf-syntax-ns#"
   xmlns:svg="http://www.w3.org/2000/svg"
   xmlns="http://www.w3.org/2000/svg"
   xmlns:sodipodi="http://sodipodi.sourceforge.net/DTD/sodipodi-0.dtd"
   xmlns:inkscape="http://www.inkscape.org/namespaces/inkscape"
   viewBox="0 0 22 22"
   id="svg2"
   version="1.1"
   inkscape:version="0.91 r13725"
   sodipodi:docname="light_zoom-out.svg">
  <metadata
     id="metadata10">
    <rdf:RDF>
      <cc:Work
         rdf:about="">
        <dc:format>image/svg+xml</dc:format>
        <dc:type
           rdf:resource="http://purl.org/dc/dcmitype/StillImage" />
      </cc:Work>
    </rdf:RDF>
  </metadata>
  <sodipodi:namedview
     pagecolor="#ffffff"
     bordercolor="#666666"
     borderopacity="1"
     objecttolerance="10"
     gridtolerance="10"
     guidetolerance="10"
     inkscape:pageopacity="0"
     inkscape:pageshadow="2"
     inkscape:window-width="1884"
     inkscape:window-height="1051"
     id="namedview8"
     showgrid="false"
     inkscape:zoom="10.727273"
     inkscape:cx="-0.32627119"
     inkscape:cy="11"
     inkscape:window-x="0"
     inkscape:window-y="0"
     inkscape:window-maximized="1"
     inkscape:current-layer="svg2" />
  <defs
     id="defs3051">
    <style
       type="text/css"
       id="current-color-scheme">
      .ColorScheme-Text {
        color:#f2f2f2
      }
      </style>
  </defs>
  <path
     style="fill:#f2f2f2;fill-opacity:1;stroke:none"
     d="M 3 3 L 3 10 L 4 10 L 4 4 L 18 4 L 18 18 L 12 18 L 12 19 L 19 19 L 19 18 L 19 4 L 19 3 L 4 3 L 3 3 z M 14.292969 7 L 11 10.292969 L 11 8 L 10 8 L 10 12 L 11 12 L 14 12 L 14 11 L 11.707031 11 L 15 7.7070312 L 14.292969 7 z M 3 13 L 3 15 L 4 15 L 4 14 L 5 14 L 5 13 L 3 13 z M 7 13 L 7 14 L 8 14 L 8 15 L 9 15 L 9 13 L 7 13 z M 3 17 L 3 19 L 5 19 L 5 18 L 4 18 L 4 17 L 3 17 z M 8 17 L 8 18 L 7 18 L 7 19 L 9 19 L 9 17 L 8 17 z "
     class="ColorScheme-Text"
     id="path6" />
</svg>
