<?xml version="1.0" encoding="UTF-8" standalone="no"?>
<!-- Created with Inkscape (http://www.inkscape.org/) -->

<svg
   xmlns:dc="http://purl.org/dc/elements/1.1/"
   xmlns:cc="http://creativecommons.org/ns#"
   xmlns:rdf="http://www.w3.org/1999/02/22-rdf-syntax-ns#"
   xmlns:svg="http://www.w3.org/2000/svg"
   xmlns="http://www.w3.org/2000/svg"
   xmlns:sodipodi="http://sodipodi.sourceforge.net/DTD/sodipodi-0.dtd"
   xmlns:inkscape="http://www.inkscape.org/namespaces/inkscape"
   width="16"
   height="16"
   id="svg3049"
   version="1.1"
   inkscape:version="0.48.4 r9939"
   sodipodi:docname="sc_text_marquee.svg"
   inkscape:export-filename="/home/uri/.kde/share/icons/NITRUX-KDE/16x16/actions/view-right-new.png"
   inkscape:export-xdpi="30"
   inkscape:export-ydpi="30">
  <defs
     id="defs3051" />
  <sodipodi:namedview
     id="base"
     pagecolor="#ffffff"
     bordercolor="#666666"
     borderopacity="1.0"
     inkscape:pageopacity="0.0"
     inkscape:pageshadow="2"
     inkscape:zoom="45.254834"
     inkscape:cx="4.557228"
     inkscape:cy="8.8085124"
     inkscape:document-units="px"
     inkscape:current-layer="layer1"
     showgrid="true"
     fit-margin-top="0"
     fit-margin-left="0"
     fit-margin-right="0"
     fit-margin-bottom="0"
     inkscape:window-width="1868"
     inkscape:window-height="1060"
     inkscape:window-x="50"
     inkscape:window-y="-3"
     inkscape:window-maximized="1"
     inkscape:showpageshadow="false"
     borderlayer="true"
     inkscape:snap-bbox="true"
     inkscape:snap-global="false">
    <inkscape:grid
       type="xygrid"
       id="grid4085" />
    <sodipodi:guide
       position="2.0000044,14.00003"
       orientation="12,0"
       id="guide4075" />
    <sodipodi:guide
       position="2.0000044,2.0000296"
       orientation="0,12"
       id="guide4077" />
    <sodipodi:guide
       position="14,9"
       orientation="-12,0"
       id="guide4079" />
    <sodipodi:guide
       position="14.000004,14.00003"
       orientation="0,-12"
       id="guide4081" />
  </sodipodi:namedview>
  <metadata
     id="metadata3054">
    <rdf:RDF>
      <cc:Work
         rdf:about="">
        <dc:format>image/svg+xml</dc:format>
        <dc:type
           rdf:resource="http://purl.org/dc/dcmitype/StillImage" />
        <dc:title></dc:title>
      </cc:Work>
    </rdf:RDF>
  </metadata>
  <g
     inkscape:label="Capa 1"
     inkscape:groupmode="layer"
     id="layer1"
     transform="translate(-421.71429,-531.79074)">
    <path
       style="text-decoration:none;color:#000000;fill:#f2f2f2;fill-opacity:1;fill-rule:nonzero;stroke:none;visibility:visible;display:inline;overflow:visible;enable-background:accumulate"
       d="M 5,2 C 4.56699,2.75 4.34824,2.75001 4.78125,3.5 l 2.625,4.5 -1.5,2.21875 C 5.6347025,10.080881 5.3253907,10 5,10 c -1.1045695,0 -2,0.895439 -2,2 0,1.104561 0.8954305,2 2,2 1.1045695,0 2,-0.895439 2,-2 0,-0.404537 -0.1372503,-0.779029 -0.34375,-1.09375 -0.00494,-0.0075 0.00504,-0.02379 0,-0.03125 L 7.09375,10.25 C 7.8961731,10.22493 8.0078568,9.6573598 8.5,9.65625 c 0.010583,-2.39e-5 0.020299,-5.114e-4 0.03125,0 l 0.03125,0.0625 0.78125,1.15625 0,0.03125 C 9.1372503,11.220971 9,11.595464 9,12 c 0,1.10456 0.89543,2 2,2 1.10457,0 2,-0.89544 2,-2 0,-1.10456 -0.89543,-2 -2,-2 -0.325391,0 -0.634702,0.08088 -0.90625,0.21875 L 8.59375,8 c 0,0 2.634956,-4.508384 2.625,-4.5 C 11.65176,2.75001 11.433,2.75 11,2 L 8,7.125 z M 8,8 C 8.2761424,8 8.5,8.2238576 8.5,8.5 8.5,8.7537525 8.3074248,8.9676786 8.0625,9 L 7.9375,9 C 7.6925752,8.9676786 7.5,8.7537525 7.5,8.5 7.5,8.2238576 7.7238576,8 8,8 z m -3,3 c 0.5522847,0 1,0.447715 1,1 0,0.552285 -0.4477153,1 -1,1 -0.5522847,0 -1,-0.447715 -1,-1 0,-0.552285 0.4477153,-1 1,-1 z m 6,0 c 0.55228,0 1,0.44772 1,1 0,0.55228 -0.44772,1 -1,1 -0.55228,0 -1,-0.44772 -1,-1 0,-0.55228 0.44772,-1 1,-1 z"
       transform="translate(421.71429,531.79074)"
       id="HATE_THIS"
       inkscape:connector-curvature="0"
       sodipodi:nodetypes="ccccsssscccsccccssssccccccssccssssssssssss" />
  </g>
</svg>
