<?xml version="1.0" encoding="UTF-8" standalone="no"?>
<svg
   xmlns:dc="http://purl.org/dc/elements/1.1/"
   xmlns:cc="http://creativecommons.org/ns#"
   xmlns:rdf="http://www.w3.org/1999/02/22-rdf-syntax-ns#"
   xmlns:svg="http://www.w3.org/2000/svg"
   xmlns="http://www.w3.org/2000/svg"
   viewBox="0 0 22 22"
   version="1.1"
   id="svg2"
   height="22"
   width="22">
  <title
     id="title4184">I REALLY hate this icon</title>
  <defs
     id="defs4" />
  <metadata
     id="metadata7">
    <rdf:RDF>
      <cc:Work
         rdf:about="">
        <dc:format>image/svg+xml</dc:format>
        <dc:type
           rdf:resource="http://purl.org/dc/dcmitype/StillImage" />
        <dc:title>I REALLY hate this icon</dc:title>
        <dc:date>November 20th 2014</dc:date>
        <dc:creator>
          <cc:Agent>
            <dc:title>Uri Herrera</dc:title>
          </cc:Agent>
        </dc:creator>
        <dc:rights>
          <cc:Agent>
            <dc:title />
          </cc:Agent>
        </dc:rights>
        <dc:language>English</dc:language>
        <dc:description>Migh as well use Tango... for crying out loud. This damn icon has to die, but no because obviously we're still using floppies therefore it is still relevant in 2014.</dc:description>
        <cc:license
           rdf:resource="" />
      </cc:Work>
    </rdf:RDF>
  </metadata>
  <g
     transform="translate(0,-1030.3622)"
     id="layer1">
    <path
       id="rect4126"
       transform="translate(0,1030.3622)"
       d="M 2,2.9980469 V 3 4 19 h 1 8 V 18 H 6 v -6 h 5 V 11 H 6 5 v 7 H 3 V 4 h 3 v 4 1 h 8 V 8 4 h 0.292969 L 17,6.7070312 V 7 10 h 1 V 7 6.3007812 H 17.9922 L 18,6.2910156 14.707031,2.9980469 l -0.0078,0.00977 v -0.00977 H 14 Z M 7,4 h 3.900391 V 8 H 7 Z m 11,7 -0.996094,0.994141 H 17 l -5,4.998047 0.0078,0.0098 -0.0039,1.003906 H 12 v 0.990235 0.0098 h 2 l 0.0059,-0.0098 h 0.0039 0.0098 L 14.0137,18.986329 15,18 l 4,-3.996094 -0.705078,-0.708984 -4.990234,4.986328 -0.59375,-0.591797 4.992187,-4.988281 0.591797,0.59375 L 19,13.998047 l 1,-1 z"
       style="fill:#d2d2d2;fill-opacity:1;stroke:none" />
  </g>
</svg>
