<!--Created with Inkscape (http://www.inkscape.org/)--><svg xmlns:dc="http://purl.org/dc/elements/1.1/" xmlns:cc="http://creativecommons.org/ns#" xmlns:rdf="http://www.w3.org/1999/02/22-rdf-syntax-ns#" xmlns="http://www.w3.org/2000/svg" xmlns:sodipodi="http://sodipodi.sourceforge.net/DTD/sodipodi-0.dtd" xmlns:inkscape="http://www.inkscape.org/namespaces/inkscape" width="22" height="22" id="svg2" version="1.1" inkscape:version="0.91+devel r" viewBox="0 0 22 22" sodipodi:docname="emblem-symbolic-link.svg"><sodipodi:namedview id="base" pagecolor="#ffffff" bordercolor="#666666" borderopacity="1.0" inkscape:pageopacity="0.0" inkscape:pageshadow="2" inkscape:zoom="23" inkscape:cx="-4.0069645" inkscape:cy="12.02454" inkscape:document-units="px" inkscape:current-layer="layer1" showgrid="true" inkscape:showpageshadow="false" borderlayer="true" units="px" inkscape:window-width="1366" inkscape:window-height="670" inkscape:window-x="-4" inkscape:window-y="29" inkscape:window-maximized="1" inkscape:snap-bbox="true" showguides="true"><inkscape:grid type="xygrid" id="grid4062"/><sodipodi:guide position="0,22.000017" orientation="22,0" id="guide3338"/><sodipodi:guide position="0,1.7382813e-05" orientation="0,22" id="guide3340"/><sodipodi:guide position="22,1.7382813e-05" orientation="-22,0" id="guide3342"/><sodipodi:guide position="22,22.000017" orientation="0,-22" id="guide3344"/><sodipodi:guide position="3,19.000017" orientation="16,0" id="guide3348"/><sodipodi:guide position="3,3.0000174" orientation="0,16" id="guide3350"/><sodipodi:guide position="19,3.0000174" orientation="-16,0" id="guide3352"/><sodipodi:guide position="19,19.000017" orientation="0,-16" id="guide3354"/></sodipodi:namedview><metadata id="metadata7"><rdf:RDF><cc:Work><dc:format>image/svg+xml</dc:format><dc:type rdf:resource="http://purl.org/dc/dcmitype/StillImage"/><dc:title/></cc:Work></rdf:RDF></metadata><g inkscape:label="Capa 1" inkscape:groupmode="layer" id="layer1" transform="translate(0 -1030.362)"><path style="opacity:1;fill:#d2d2d2;fill-opacity:1;stroke:none" d="M3 7c-.554 0-1 .446-1 1v6c0 .554.446 1 1 1h6c.554 0 1-.446 1-1v-1h2v1c0 .554.446 1 1 1h6c.554 0 1-.446 1-1V8c0-.554-.446-1-1-1h-6c-.554 0-1 .446-1 1v1h-2V8c0-.554-.446-1-1-1H3zm0 1h6v1c-.554 0-1 .446-1 1v2c0 .554.446 1 1 1v1H3V8zm10 0h6v6h-6v-1c.554 0 1-.446 1-1v-2c0-.554-.446-1-1-1V8zm-4 2h4v2H9v-2z" transform="translate(0 1030.362)" id="rect4161"/></g></svg>