<!--Created with Inkscape (http://www.inkscape.org/)--><svg xmlns:dc="http://purl.org/dc/elements/1.1/" xmlns:cc="http://creativecommons.org/ns#" xmlns:rdf="http://www.w3.org/1999/02/22-rdf-syntax-ns#" xmlns="http://www.w3.org/2000/svg" xmlns:sodipodi="http://sodipodi.sourceforge.net/DTD/sodipodi-0.dtd" xmlns:inkscape="http://www.inkscape.org/namespaces/inkscape" width="22" height="22" id="svg18109" version="1.1" inkscape:version="0.91pre2 r" sodipodi:docname="object-rotate-right.svg"><sodipodi:namedview id="base" pagecolor="#ffffff" bordercolor="#666666" borderopacity="1.0" inkscape:pageopacity="0.0" inkscape:pageshadow="2" inkscape:zoom="22.627417" inkscape:cx="6.5453363" inkscape:cy="10.899178" inkscape:document-units="px" inkscape:current-layer="layer1" showgrid="true" inkscape:window-width="1366" inkscape:window-height="672" inkscape:window-x="-4" inkscape:window-y="25" inkscape:window-maximized="1" inkscape:showpageshadow="false" showguides="true"><inkscape:grid type="xygrid" id="grid4122"/><sodipodi:guide position="3,3.0000174" orientation="-16,0" id="guide4126"/><sodipodi:guide position="3,19.000017" orientation="0,16" id="guide4128"/><sodipodi:guide position="19,19.000017" orientation="16,0" id="guide4130"/><sodipodi:guide position="19,3.0000174" orientation="0,-16" id="guide4132"/><sodipodi:guide position="2,2.0000174" orientation="-18,0" id="guide4134"/><sodipodi:guide position="2,20.000017" orientation="0,18" id="guide4136"/><sodipodi:guide position="20,20.000017" orientation="18,0" id="guide4138"/><sodipodi:guide position="20,2.0000174" orientation="0,-18" id="guide4140"/></sodipodi:namedview><metadata id="metadata18114"><rdf:RDF><cc:Work><dc:format>image/svg+xml</dc:format><dc:type rdf:resource="http://purl.org/dc/dcmitype/StillImage"/><dc:title/></cc:Work></rdf:RDF></metadata><g inkscape:label="Capa 1" inkscape:groupmode="layer" id="layer1" transform="translate(0 -1030.362)"><path style="color:#000;text-decoration:none;text-decoration-line:none;text-decoration-style:solid;text-decoration-color:#000;clip-rule:nonzero;display:inline;overflow:visible;visibility:visible;opacity:1;isolation:auto;mix-blend-mode:normal;color-interpolation:sRGB;color-interpolation-filters:linearRGB;solid-color:#000;solid-opacity:1;fill:#d2d2d2;fill-opacity:1;fill-rule:nonzero;stroke:none;stroke-width:1;stroke-linecap:butt;stroke-linejoin:miter;stroke-miterlimit:4;stroke-dasharray:none;stroke-dashoffset:0;stroke-opacity:1;color-rendering:auto;image-rendering:auto;shape-rendering:auto;text-rendering:auto;enable-background:accumulate" d="m9.6 1033.362 3.293 3.293.207.207-.207.207-3.293 3.293-.707-.707 2.293-2.293H8v-1h3.186l-2.293-2.293.707-.707zm-3.1 3a.499.499 0 1 1 0 1 .499.499 0 1 1 0-1zm8.55 2 4.95 4.95-6.05 6.05-4.95-4.949 6.05-6.05zm-11.55 0a.499.499 0 1 1 0 1 .499.499 0 1 1 0-1zm11.55 1.414-4.777 4.778 3.536 3.535 4.777-4.778-3.535-3.535zm-12.55 1.586a.499.499 0 1 1 0 1 .499.499 0 1 1 0-1zm1 3a.499.499 0 1 1 0 1 .499.499 0 1 1 0-1zm3 2a.499.499 0 1 1 0 1 .499.499 0 1 1 0-1z" id="rect4144" inkscape:connector-curvature="0"/></g></svg>