<!--Created with Inkscape (http://www.inkscape.org/)--><svg xmlns:dc="http://purl.org/dc/elements/1.1/" xmlns:cc="http://creativecommons.org/ns#" xmlns:rdf="http://www.w3.org/1999/02/22-rdf-syntax-ns#" xmlns="http://www.w3.org/2000/svg" xmlns:sodipodi="http://sodipodi.sourceforge.net/DTD/sodipodi-0.dtd" xmlns:inkscape="http://www.inkscape.org/namespaces/inkscape" width="16" height="16" id="svg2" version="1.1" inkscape:version="0.91+devel r" viewBox="0 0 16 16" sodipodi:docname="application-pdf.svg"><sodipodi:namedview id="base" pagecolor="#ffffff" bordercolor="#666666" borderopacity="1.0" inkscape:pageopacity="0.0" inkscape:pageshadow="2" inkscape:zoom="22.4" inkscape:cx="-2.4589378" inkscape:cy="12.959453" inkscape:document-units="px" inkscape:current-layer="layer1" showgrid="true" inkscape:showpageshadow="false" borderlayer="true" inkscape:window-width="1366" inkscape:window-height="670" inkscape:window-x="-4" inkscape:window-y="29" inkscape:window-maximized="1" units="px" inkscape:snap-bbox="true" inkscape:snap-global="false"><inkscape:grid type="xygrid" id="grid4101"/><sodipodi:guide position="2,14.000017" orientation="12,0" id="guide4071"/><sodipodi:guide position="2,2.0000174" orientation="0,12" id="guide4073"/><sodipodi:guide position="14,2.0000174" orientation="-12,0" id="guide4075"/><sodipodi:guide position="14,14.000017" orientation="0,-12" id="guide4077"/></sodipodi:namedview><metadata id="metadata7"><rdf:RDF><cc:Work><dc:format>image/svg+xml</dc:format><dc:type rdf:resource="http://purl.org/dc/dcmitype/StillImage"/><dc:title/></cc:Work></rdf:RDF></metadata><g inkscape:label="Capa 1" inkscape:groupmode="layer" id="layer1" transform="translate(0 -1036.362)"><path style="fill:#cf000f;fill-opacity:1" inkscape:connector-curvature="0" d="M3.856 1038.362c-.162.01-.336 0-.527.132-1.704.732-.56 2.741 1.611 4.27.013-.288.133-.915.13-1.191-1.853-1.269-2.937-2.504-1.756-2.994 1.245-.516 1.632.893 1.654 2.939.116.12.92.653 1.041.737-.045-1.865-1.038-3.77-1.992-3.877-.05-.01-.107-.01-.16-.01m1.734 3.245-.388-.15-.321.215-.065.681.406.311.169.226c1.25.828 2.315 1.466 3.716 1.993l.874.13h.575c.53-.312.214-.432 2.14-.672l-2.17.168c-1.675-.649-3.383-1.58-4.937-2.595m3.82 2.715c.251 0 2.21-.17 2.989-.242.77-.12 1.718-.156 1.539.745.204-.48-.261-1.296-.922-1.44-1.022-.228-2.644.398-3.227.59m.94.25c-.304.12-.999.206-1.327.314.465.24 2.8 1.101 3.764.921.154 0 .805-.467.82-.803-.05.612-2.903.156-3.257-.445m.635.011c-.25-.12-1.421-.114-1.68-.21-1.467.513-3.44 1.716-4.852 2.527l-.409.12c-.078.56-.424.754-.74 1.117l.478.48.374-.612c1.653-.997 4.922-2.606 6.828-3.38m-6.828 3.38c-.202.12-.395.24-.578.36-.424 1.201-.918 2.01-1.39 1.975.73.349 2.3-1.367 2.829-2.98m-2.829 2.98c-1.112-.66 1.242-1.863 1.77-2.212.118-.336-.207-.893-.101-1.29-1.66 1.033-2.642 2.527-2.085 3.235.134.168.276.252.417.264m1.616-2.515c.077-.31 1.103-1.013 1.288-1.121.248-1.951.26-2.144.47-3.66a23.06 23.06 0 0 0-1.021-.808c-.15 1.62-.43 3.817-.825 5.284" id="path26" sodipodi:nodetypes="ccccccccccccccccccccccccccccccccccccccccccccccccccccc"/></g></svg>