<svg viewBox="0 0 22 22" xmlns="http://www.w3.org/2000/svg"><path fill="currentColor" d="M10.943 3.002a8 8 0 0 0-6.129 2.922 8.006 8.006 0 0 0 .168 10.35l.752-.659a6.994 6.994 0 0 1-.146-9.054A6.997 6.997 0 0 1 14.5 4.938l-.5.867 2.48-.3-.98-2.298-.5.865a7.972 7.972 0 0 0-4.057-1.07zm6.073 2.727-.752.658a6.985 6.985 0 0 1 1.578 6.066 3.99 4.002 0 0 1 .879.625 7.988 7.988 0 0 0-1.705-7.35zM10.998 6l-4 4h2v5h3.14a3.99 4.002 0 0 1 .86-1.627V10h2l-4-4zM8 16.197l-2.482.3.982 2.298.5-.865a7.993 7.993 0 0 0 6.082.795 3.99 4.002 0 0 1-.623-.883 6.978 6.978 0 0 1-4.959-.78l.5-.865z" style="color:#eff0f1"/><path fill="currentColor" d="M16 13a3 3 0 0 0-3 3 3 3 0 0 0 3 3 3 3 0 0 0 3-3 3 3 0 0 0-3-3z" style="color:#f67400"/></svg>