<?xml version="1.0" encoding="UTF-8" standalone="no"?>
<!-- Created with Inkscape (http://www.inkscape.org/) -->

<svg
   xmlns:dc="http://purl.org/dc/elements/1.1/"
   xmlns:cc="http://creativecommons.org/ns#"
   xmlns:rdf="http://www.w3.org/1999/02/22-rdf-syntax-ns#"
   xmlns:svg="http://www.w3.org/2000/svg"
   xmlns="http://www.w3.org/2000/svg"
   xmlns:sodipodi="http://sodipodi.sourceforge.net/DTD/sodipodi-0.dtd"
   xmlns:inkscape="http://www.inkscape.org/namespaces/inkscape"
   width="48"
   height="48"
   id="svg3531"
   version="1.1"
   inkscape:version="0.48.3.1 r9886"
   sodipodi:docname="icon-select-deselect.svg">
  <defs
     id="defs3533" />
  <sodipodi:namedview
     id="base"
     pagecolor="#888888"
     bordercolor="#666666"
     borderopacity="1.0"
     inkscape:pageopacity="0.50980392"
     inkscape:pageshadow="2"
     inkscape:zoom="5.5"
     inkscape:cx="22.545455"
     inkscape:cy="25.090909"
     inkscape:current-layer="layer1"
     showgrid="true"
     inkscape:document-units="px"
     inkscape:grid-bbox="true"
     inkscape:window-width="736"
     inkscape:window-height="596"
     inkscape:window-x="1068"
     inkscape:window-y="272"
     inkscape:window-maximized="0">
    <inkscape:grid
       type="xygrid"
       id="grid3539"
       empspacing="8"
       visible="true"
       enabled="true"
       snapvisiblegridlinesonly="true" />
  </sodipodi:namedview>
  <metadata
     id="metadata3536">
    <rdf:RDF>
      <cc:Work
         rdf:about="">
        <dc:format>image/svg+xml</dc:format>
        <dc:type
           rdf:resource="http://purl.org/dc/dcmitype/StillImage" />
        <dc:title></dc:title>
      </cc:Work>
    </rdf:RDF>
  </metadata>
  <g
     id="layer1"
     inkscape:label="Layer 1"
     inkscape:groupmode="layer"
     transform="translate(0,-16)">
    <g
       transform="translate(-80,8.00007)"
       style="display:inline"
       id="g6210">
      <g
         transform="translate(80,-996.36227)"
         id="layer1-9">
        <g
           transform="translate(-792,300.3622)"
           id="g4784"
           style="display:inline">
          <path
             inkscape:connector-curvature="0"
             d="m 816,704 c -13.25483,0 -24,10.74517 -24,24 0,13.25483 10.74517,24 24,24 13.25483,0 24,-10.74517 24,-24 0,-13.25483 -10.74517,-24 -24,-24 z m 0,4 c 11.04569,0 19.99999,8.9543 19.99999,20 0,11.04569 -8.9543,19.99999 -19.99999,19.99999 -11.0457,0 -20,-8.9543 -20,-19.99999 0,-11.0457 8.9543,-20 20,-20 z"
             id="path3850-7-4-7-3-6-5"
             style="color:#000000;fill:#ffffff;fill-opacity:1;fill-rule:nonzero;stroke:none;stroke-width:1.5;marker:none;visibility:visible;display:inline;overflow:visible;enable-background:accumulate" />
          <path
             inkscape:connector-curvature="0"
             d="m 812.69416,716.00007 7.48232,7.48232 -7.48232,0 z"
             id="path4564"
             style="fill:#ffffff;fill-opacity:1;stroke:none" />
          <path
             inkscape:connector-curvature="0"
             d="m 822.37831,714.32434 c -1.66832,0.0123 -3.33031,0.64136 -4.59851,1.90955 l -0.039,0.039 -3.31249,3.31249 2.20183,2.22131 3.31249,-3.31248 0.039,-0.039 c 1.37173,-1.37174 3.47087,-1.38098 4.79336,-0.0584 l 0.0974,0.0974 c 1.32247,1.32248 1.33278,3.42161 -0.039,4.79336 l -4.07241,4.05292 2.22131,2.22132 4.05293,-4.05293 c 2.53637,-2.53637 2.58294,-6.69204 0.0584,-9.2165 l -0.11691,-0.0974 c -1.26223,-1.26224 -2.93019,-1.88288 -4.59851,-1.87058 z m -1.90955,13.32789 -1.36397,1.36396 2.20183,2.22132 1.36397,-1.36397 -2.20183,-2.22131 z m -2.00698,2.02646 -0.68198,0.6625 2.20183,2.22131 0.68198,-0.68198 -2.20183,-2.20183 z"
             id="path4594"
             style="font-size:medium;font-style:normal;font-variant:normal;font-weight:normal;font-stretch:normal;text-indent:0;text-align:start;text-decoration:none;line-height:normal;letter-spacing:normal;word-spacing:normal;text-transform:none;direction:ltr;block-progression:tb;writing-mode:lr-tb;text-anchor:start;baseline-shift:baseline;color:#000000;fill:#ffffff;fill-opacity:1;stroke:none;stroke-width:5;marker:none;visibility:visible;display:inline;overflow:visible;enable-background:accumulate;font-family:Sans;-inkscape-font-specification:Sans" />
        </g>
      </g>
      <path
         style="font-size:medium;font-style:normal;font-variant:normal;font-weight:normal;font-stretch:normal;text-indent:0;text-align:start;text-decoration:none;line-height:normal;letter-spacing:normal;word-spacing:normal;text-transform:none;direction:ltr;block-progression:tb;writing-mode:lr-tb;text-anchor:start;baseline-shift:baseline;color:#000000;fill:#ffffff;fill-opacity:1;stroke:none;stroke-width:1;marker:none;visibility:visible;display:inline;overflow:visible;enable-background:accumulate;font-family:Sans;-inkscape-font-specification:Sans"
         d="m 93.5,22 0,1 1,0 0,-0.5 0.5,0 0,-1 -1,0 -0.5,0 z m 3.5,0.5 2,0 0,-1 -2,0 z m -3.5,4.5 1,0 0,-2 -1,0 z m 0,4 1,0 0,-2 -1,0 z m 0,4 1,0 0,-2 -1,0 z m 20,0 1,0 0,-2 -1,0 z m -20,4 1,0 0,-2 -1,0 z m 20,0 1,0 0,-2 -1,0 z m -20,3 0,0.5 0.5,0 1,0 0,-1 -0.5,0 0,-0.5 -1,0 z m 20,-0.5 -0.5,0 0,1 1,0 0.5,0 0,-0.5 0,-1 -1,0 z m -16.5,1 2,0 0,-1 -2,0 z m 4,0 2,0 0,-1 -2,0 z m 4,0 2,0 0,-1 -2,0 z m 4,0 2,0 0,-1 -2,0 z"
         id="rect6027"
         inkscape:connector-curvature="0" />
    </g>
  </g>
</svg>
