<?xml version="1.0" encoding="UTF-8" standalone="no"?>
<!-- Created with Inkscape (http://www.inkscape.org/) -->

<svg
   xmlns:dc="http://purl.org/dc/elements/1.1/"
   xmlns:cc="http://creativecommons.org/ns#"
   xmlns:rdf="http://www.w3.org/1999/02/22-rdf-syntax-ns#"
   xmlns:svg="http://www.w3.org/2000/svg"
   xmlns="http://www.w3.org/2000/svg"
   xmlns:xlink="http://www.w3.org/1999/xlink"
   xmlns:sodipodi="http://sodipodi.sourceforge.net/DTD/sodipodi-0.dtd"
   xmlns:inkscape="http://www.inkscape.org/namespaces/inkscape"
   width="48"
   height="48"
   id="svg3531"
   version="1.1"
   inkscape:version="0.48.3.1 r9886"
   sodipodi:docname="icon-select-apply.svg">
  <defs
     id="defs3533">
    <linearGradient
       id="linearGradient9325-9-2-1">
      <stop
         style="stop-color:#ffffff;stop-opacity:0.58823532;"
         offset="0"
         id="stop9327-9-6-9" />
      <stop
         style="stop-color:#ffffff;stop-opacity:0;"
         offset="1"
         id="stop9329-0-5-2" />
    </linearGradient>
    <linearGradient
       id="linearGradient6412">
      <stop
         style="stop-color:#00821e;stop-opacity:0.58823532;"
         offset="0"
         id="stop6414" />
      <stop
         id="stop6478"
         offset="0.39999965"
         style="stop-color:#00821e;stop-opacity:1;" />
      <stop
         style="stop-color:#00821e;stop-opacity:0;"
         offset="1"
         id="stop6416" />
    </linearGradient>
    <linearGradient
       id="linearGradient6430">
      <stop
         style="stop-color:#00821e;stop-opacity:1;"
         offset="0"
         id="stop6432" />
      <stop
         style="stop-color:#00821e;stop-opacity:0;"
         offset="1"
         id="stop6434" />
    </linearGradient>
    <linearGradient
       inkscape:collect="always"
       xlink:href="#linearGradient6486"
       id="linearGradient6492"
       x1="208"
       y1="95"
       x2="208"
       y2="104"
       gradientUnits="userSpaceOnUse"
       gradientTransform="matrix(0.70710678,0.70710678,-0.70710678,0.70710678,134.89243,-124.92385)" />
    <linearGradient
       inkscape:collect="always"
       id="linearGradient6486">
      <stop
         style="stop-color:#00821e;stop-opacity:1;"
         offset="0"
         id="stop6488" />
      <stop
         style="stop-color:#00821e;stop-opacity:0;"
         offset="1"
         id="stop6490" />
    </linearGradient>
  </defs>
  <sodipodi:namedview
     id="base"
     pagecolor="#888888"
     bordercolor="#666666"
     borderopacity="1.0"
     inkscape:pageopacity="0.50980392"
     inkscape:pageshadow="2"
     inkscape:zoom="5.5"
     inkscape:cx="3.3636361"
     inkscape:cy="13.454545"
     inkscape:current-layer="layer1"
     showgrid="true"
     inkscape:document-units="px"
     inkscape:grid-bbox="true"
     inkscape:window-width="747"
     inkscape:window-height="596"
     inkscape:window-x="1068"
     inkscape:window-y="272"
     inkscape:window-maximized="0">
    <inkscape:grid
       type="xygrid"
       id="grid3539"
       empspacing="8"
       visible="true"
       enabled="true"
       snapvisiblegridlinesonly="true" />
  </sodipodi:namedview>
  <metadata
     id="metadata3536">
    <rdf:RDF>
      <cc:Work
         rdf:about="">
        <dc:format>image/svg+xml</dc:format>
        <dc:type
           rdf:resource="http://purl.org/dc/dcmitype/StillImage" />
        <dc:title></dc:title>
      </cc:Work>
    </rdf:RDF>
  </metadata>
  <g
     id="layer1"
     inkscape:label="Layer 1"
     inkscape:groupmode="layer"
     transform="translate(0,-16)">
    <g
       transform="translate(-184,8)"
       style="display:inline"
       id="g3531">
      <g
         transform="translate(184,8)"
         id="layer1-2"
         inkscape:label="Layer 1">
        <g
           style="display:inline"
           inkscape:label="Layer 1"
           id="layer1-1">
          <g
             id="g3392"
             style="display:inline"
             transform="translate(-48,-287.99995)">
            <path
               style="color:#000000;fill:#ffffff;fill-opacity:1;fill-rule:nonzero;stroke:none;stroke-width:1.5;marker:none;visibility:visible;display:inline;overflow:visible;enable-background:accumulate"
               id="path3850-7-3"
               d="m 71.999999,287.99995 c -13.254833,0 -23.999999,10.74517 -23.999999,24 0,13.25483 10.745166,24 23.999999,24 13.254831,0 24.000001,-10.74517 24.000001,-24 0,-13.25483 -10.74517,-24 -24.000001,-24 z m 0,4 c 11.045691,0 19.999993,8.9543 19.999993,20 0,11.04569 -8.954302,19.99999 -19.999993,19.99999 -11.0457,0 -20.000002,-8.9543 -20.000002,-19.99999 0,-11.0457 8.954302,-20 20.000002,-20 z"
               inkscape:connector-curvature="0" />
            <path
               sodipodi:nodetypes="sccsccscscccscc"
               inkscape:connector-curvature="0"
               id="path9402"
               transform="translate(-136,279.99995)"
               d="M 213.96875,20 C 209.86746,20 208,22 207,23 l 0,0 c 2,-1 3.47989,-2 7,-2 3.52012,0 5,1 7,2 l 0,0 c -1,-1 -2.98661,-3 -7.03125,-3 z M 205,26 c 0,0 2.42731,6 8.96875,6 6.54144,0 9,-5.90625 9,-5.90625 L 223,26 l -1,0 c -0.10708,0.30563 -1.9762,5 -8,5 -6.0238,0 -7.89292,-4.69437 -8,-5 z"
               style="font-size:medium;font-style:normal;font-variant:normal;font-weight:normal;font-stretch:normal;text-indent:0;text-align:start;text-decoration:none;line-height:normal;letter-spacing:normal;word-spacing:normal;text-transform:none;direction:ltr;block-progression:tb;writing-mode:lr-tb;text-anchor:start;baseline-shift:baseline;color:#000000;fill:#ffffff;fill-opacity:1;stroke:none;stroke-width:1;marker:none;visibility:visible;display:inline;overflow:visible;enable-background:accumulate;font-family:Sans;-inkscape-font-specification:Sans" />
          </g>
        </g>
      </g>
      <path
         inkscape:connector-curvature="0"
         id="rect6027-0"
         d="m 197.5,22 0,1 1,0 0,-0.5 0.5,0 0,-1 -1,0 -0.5,0 z m 3.5,0.5 2,0 0,-1 -2,0 z m 4,0 2,0 0,-1 -2,0 z m -7.5,4.5 1,0 0,-2 -1,0 z m 0,4 1,0 0,-2 -1,0 z m 0,4 1,0 0,-2 -1,0 z m 20,0 1,0 0,-2 -1,0 z m -20,4 1,0 0,-2 -1,0 z m 20,0 1,0 0,-2 -1,0 z m -20,3 0,0.5 0.5,0 1,0 0,-1 -0.5,0 0,-0.5 -1,0 z m 20,-0.5 -0.5,0 0,1 1,0 0.5,0 0,-0.5 0,-1 -1,0 z m -16.5,1 2,0 0,-1 -2,0 z m 4,0 2,0 0,-1 -2,0 z m 4,0 2,0 0,-1 -2,0 z m 4,0 2,0 0,-1 -2,0 z"
         style="font-size:medium;font-style:normal;font-variant:normal;font-weight:normal;font-stretch:normal;text-indent:0;text-align:start;text-decoration:none;line-height:normal;letter-spacing:normal;word-spacing:normal;text-transform:none;direction:ltr;block-progression:tb;writing-mode:lr-tb;text-anchor:start;baseline-shift:baseline;color:#000000;fill:#ffffff;fill-opacity:1;stroke:none;stroke-width:1;marker:none;visibility:visible;display:inline;overflow:visible;enable-background:accumulate;font-family:Sans;-inkscape-font-specification:Sans" />
    </g>
  </g>
</svg>
