<?xml version="1.0" encoding="UTF-8" standalone="no"?>
<!-- Created with Inkscape (http://www.inkscape.org/) -->

<svg
   xmlns:dc="http://purl.org/dc/elements/1.1/"
   xmlns:cc="http://creativecommons.org/ns#"
   xmlns:rdf="http://www.w3.org/1999/02/22-rdf-syntax-ns#"
   xmlns:svg="http://www.w3.org/2000/svg"
   xmlns="http://www.w3.org/2000/svg"
   version="1.1"
   width="48"
   height="48"
   id="svg3930">
  <defs
     id="defs3932" />
  <metadata
     id="metadata3935">
    <rdf:RDF>
      <cc:Work
         rdf:about="">
        <dc:format>image/svg+xml</dc:format>
        <dc:type
           rdf:resource="http://purl.org/dc/dcmitype/StillImage" />
        <dc:title></dc:title>
      </cc:Work>
    </rdf:RDF>
  </metadata>
  <g
     transform="translate(0,-1004.3622)"
     id="layer1">
    <g
       transform="translate(-1280,300.3622)"
       id="g4773"
       style="display:inline">
      <path
         d="m 1304,704 c -13.2548,0 -24,10.74517 -24,24 0,13.25483 10.7452,24 24,24 13.2548,0 24,-10.74517 24,-24 0,-13.25483 -10.7452,-24 -24,-24 z m 0,4 c 11.0457,0 20,8.9543 20,20 0,11.04569 -8.9543,19.99999 -20,19.99999 -11.0457,0 -20,-8.9543 -20,-19.99999 0,-11.0457 8.9543,-20 20,-20 z"
         id="path3850-7-4-7-3-6-5-9-1-5"
         style="color:#000000;fill:#ffffff;fill-opacity:1;fill-rule:nonzero;stroke:none;stroke-width:1.5;marker:none;visibility:visible;display:inline;overflow:visible;enable-background:accumulate" />
      <g
         transform="matrix(0.70710678,0.70710678,-0.70710678,0.70710678,897.24533,-707.97763)"
         id="g4744">
        <path
           d="m 1305,712 c -4,0 -7,2 -7,5 0,3 3,6 3,6 0,0 -1,14 -1,17 0,5 6,5 6,0 0,-3 -1,-17 -1,-17 0,0 1.7579,-1.40748 2,-2 l -5,-4 3,-5 z m -4.2812,6 a 0.50005,0.50005 0 0 1 0.062,0 0.50005,0.50005 0 0 1 0.3126,0.125 l 1.5,1.125 0.031,0 c 0.1196,-0.0506 0.2369,-0.0625 0.375,-0.0625 0.5523,0 1,0.44772 1,1 0,0.0352 -0.028,0.0595 -0.031,0.0937 l 1.125,0.84375 a 0.51253811,0.51253811 0 1 1 -0.625,0.8125 l -1.0938,-0.84375 -0.031,0 c -0.112,0.0433 -0.2166,0.0937 -0.3438,0.0937 -0.5523,0 -1,-0.44772 -1,-1 0,-0.0326 0.028,-0.062 0.031,-0.0937 l -1.5624,-1.15625 a 0.50005,0.50005 0 0 1 0.1874,-0.90625 0.50005,0.50005 0 0 1 0.063,-0.0312 z M 1303,738 c 1.1046,0 2,0.89543 2,2 0,1.10457 -0.8954,2 -2,2 -1.1046,0 -2,-0.89543 -2,-2 0,-1.10457 0.8954,-2 2,-2 z"
           id="path4721"
           style="fill:#ffffff;fill-opacity:1;stroke:none" />
        <path
           d="M 1304.7273,718.18181 1307,720 c 0.4545,-0.45455 0.9091,-3.63636 -0.4545,-5 z"
           id="path4723"
           style="fill:#ffffff;fill-opacity:1;stroke:none" />
      </g>
    </g>
  </g>
</svg>
