<?xml version="1.0" encoding="UTF-8" standalone="no"?>
<!-- Created with Inkscape (http://www.inkscape.org/) -->

<svg
   xmlns:dc="http://purl.org/dc/elements/1.1/"
   xmlns:cc="http://creativecommons.org/ns#"
   xmlns:rdf="http://www.w3.org/1999/02/22-rdf-syntax-ns#"
   xmlns:svg="http://www.w3.org/2000/svg"
   xmlns="http://www.w3.org/2000/svg"
   xmlns:xlink="http://www.w3.org/1999/xlink"
   version="1.1"
   width="22"
   height="22"
   id="svg6190">
  <metadata
     id="metadata6196">
    <rdf:RDF>
      <cc:Work
         rdf:about="">
        <dc:format>image/svg+xml</dc:format>
        <dc:type
           rdf:resource="http://purl.org/dc/dcmitype/StillImage" />
        <dc:title></dc:title>
      </cc:Work>
    </rdf:RDF>
  </metadata>
  <defs
     id="defs6194">
    <linearGradient
       x1="169.27542"
       y1="7.6329279"
       x2="169"
       y2="22.362183"
       id="linearGradient10736"
       xlink:href="#linearGradient6935"
       gradientUnits="userSpaceOnUse"
       gradientTransform="matrix(0.93513011,-0.93513011,0.93513011,0.93513011,48.841877,196.8352)" />
    <linearGradient
       id="linearGradient6935">
      <stop
         id="stop6937"
         style="stop-color:#666666;stop-opacity:1"
         offset="0" />
      <stop
         id="stop6939"
         style="stop-color:#1a1a1a;stop-opacity:1"
         offset="1" />
    </linearGradient>
    <linearGradient
       x1="169.27542"
       y1="7.6329279"
       x2="169"
       y2="22.362183"
       id="linearGradient6229"
       xlink:href="#linearGradient6935"
       gradientUnits="userSpaceOnUse"
       gradientTransform="matrix(0.93513011,-0.93513011,0.93513011,0.93513011,48.841877,196.8352)" />
    <linearGradient
       x1="169.27542"
       y1="7.6329279"
       x2="169"
       y2="22.362183"
       id="linearGradient8068"
       xlink:href="#linearGradient5536"
       gradientUnits="userSpaceOnUse" />
    <linearGradient
       id="linearGradient5536">
      <stop
         id="stop5538"
         style="stop-color:#e6e6e6;stop-opacity:1"
         offset="0" />
      <stop
         id="stop5540"
         style="stop-color:#aaaaaa;stop-opacity:1"
         offset="1" />
    </linearGradient>
    <linearGradient
       x1="169.27542"
       y1="7.6329279"
       x2="169"
       y2="22.362183"
       id="linearGradient8064"
       xlink:href="#linearGradient5536"
       gradientUnits="userSpaceOnUse" />
    <linearGradient
       id="linearGradient6294">
      <stop
         id="stop6296"
         style="stop-color:#e6e6e6;stop-opacity:1"
         offset="0" />
      <stop
         id="stop6298"
         style="stop-color:#aaaaaa;stop-opacity:1"
         offset="1" />
    </linearGradient>
    <linearGradient
       x1="169.27542"
       y1="7.6329279"
       x2="169"
       y2="22.362183"
       id="linearGradient8066"
       xlink:href="#linearGradient5536"
       gradientUnits="userSpaceOnUse" />
    <linearGradient
       id="linearGradient6301">
      <stop
         id="stop6303"
         style="stop-color:#e6e6e6;stop-opacity:1"
         offset="0" />
      <stop
         id="stop6305"
         style="stop-color:#aaaaaa;stop-opacity:1"
         offset="1" />
    </linearGradient>
    <linearGradient
       x1="169.27542"
       y1="7.6329279"
       x2="169"
       y2="22.362183"
       id="linearGradient6317"
       xlink:href="#linearGradient5536"
       gradientUnits="userSpaceOnUse" />
    <linearGradient
       x1="163.03883"
       y1="1276.6127"
       x2="178.20804"
       y2="1290.1803"
       id="linearGradient10465"
       xlink:href="#linearGradient6935-4"
       gradientUnits="userSpaceOnUse"
       gradientTransform="matrix(1.2865905,0,0,1.2865905,2.6313671,-1434.2524)" />
    <linearGradient
       id="linearGradient6935-4">
      <stop
         id="stop6937-9"
         style="stop-color:#666666;stop-opacity:1"
         offset="0" />
      <stop
         id="stop6939-2"
         style="stop-color:#1a1a1a;stop-opacity:1"
         offset="1" />
    </linearGradient>
    <linearGradient
       x1="163.03883"
       y1="1276.6127"
       x2="178.20804"
       y2="1290.1803"
       id="linearGradient4463"
       xlink:href="#linearGradient6935-4"
       gradientUnits="userSpaceOnUse"
       gradientTransform="matrix(1.2865905,0,0,1.2865905,2.6313671,-1434.2524)" />
  </defs>
  <g
     transform="translate(-211.40973,-205.26932)"
     id="g4442"
     style="display:inline">
    <path
       d="m 212.225,207.236 0,8.4432 5.38761,3.6989 c 0.0772,-0.984 0.85806,-2.3092 1.88967,-3.0958 l 1.04536,0 0,-1.8495 -1.24639,0 -7.07625,-7.1968 z m 9.08655,9.2472 c -0.86693,1.2799 -3.57185,-0.2474 -3.13607,3.2567 l 2.97524,2.0505 c 0,-1.2864 1.19731,-2.6113 2.73401,-2.6938 l -0.36185,-0.3619 0.0805,0 0,-1.2865 -1.32681,0 -0.96494,-0.965 z m 3.77936,2.6134 c -0.97712,-0.1234 -2.28733,1.0372 -2.97524,2.2919 l -0.40207,0 0,2.2112 0.04,0 c 1.595,3.3539 10.50196,3.03 10.81541,2.9351 l 0,-0.8041 -2.45257,-0.2413 c -1.83274,-1.6747 -2.1567,-4.9302 -4.34224,-6.1917 -0.21552,-0.1248 -0.46325,-0.1727 -0.6835,-0.2011 z"
       id="path10042"
       style="fill:#ffffff;fill-opacity:1;stroke:none" />
    <path
       d="m 212.225,205.9495 0,8.4431 5.02575,3.4577 c -0.19527,-1.4917 1.68166,-3.184 3.33708,-3.3772 l -8.36283,-8.5236 z m 9.12676,9.3278 c -1.52593,0.3561 -2.99728,1.5407 -3.17628,3.2566 l 2.53298,1.6082 c 0.065,-1.2649 1.31793,-2.531 2.85462,-2.6133 l -2.21132,-2.2515 z m 2.734,3.0152 c -1.69284,0.2295 -2.7219,2.3322 -2.25153,3.6186 1.31131,3.5891 11.67644,3.8916 10.69477,3.8196 -5.25786,-0.609 -3.2241,-6.5441 -7.67932,-7.3978 -0.26705,-0.053 -0.52208,-0.073 -0.76392,-0.04 z"
       id="path10044"
       style="fill:url(#linearGradient4463);fill-opacity:1" />
  </g>
</svg>
