<?xml version="1.0" encoding="UTF-8" standalone="no"?>
<!-- Created with Inkscape (http://www.inkscape.org/) -->

<svg
   xmlns:dc="http://purl.org/dc/elements/1.1/"
   xmlns:cc="http://creativecommons.org/ns#"
   xmlns:rdf="http://www.w3.org/1999/02/22-rdf-syntax-ns#"
   xmlns:svg="http://www.w3.org/2000/svg"
   xmlns="http://www.w3.org/2000/svg"
   xmlns:xlink="http://www.w3.org/1999/xlink"
   version="1.1"
   width="22"
   height="22"
   id="svg6190">
  <metadata
     id="metadata6196">
    <rdf:RDF>
      <cc:Work
         rdf:about="">
        <dc:format>image/svg+xml</dc:format>
        <dc:type
           rdf:resource="http://purl.org/dc/dcmitype/StillImage" />
        <dc:title></dc:title>
      </cc:Work>
    </rdf:RDF>
  </metadata>
  <defs
     id="defs6194">
    <linearGradient
       x1="169.27542"
       y1="7.6329279"
       x2="169"
       y2="22.362183"
       id="linearGradient10736"
       xlink:href="#linearGradient6935"
       gradientUnits="userSpaceOnUse"
       gradientTransform="matrix(0.93513011,-0.93513011,0.93513011,0.93513011,48.841877,196.8352)" />
    <linearGradient
       id="linearGradient6935">
      <stop
         id="stop6937"
         style="stop-color:#666666;stop-opacity:1"
         offset="0" />
      <stop
         id="stop6939"
         style="stop-color:#1a1a1a;stop-opacity:1"
         offset="1" />
    </linearGradient>
    <linearGradient
       x1="169.27542"
       y1="7.6329279"
       x2="169"
       y2="22.362183"
       id="linearGradient6229"
       xlink:href="#linearGradient6935"
       gradientUnits="userSpaceOnUse"
       gradientTransform="matrix(0.93513011,-0.93513011,0.93513011,0.93513011,48.841877,196.8352)" />
    <linearGradient
       x1="169.27542"
       y1="7.6329279"
       x2="169"
       y2="22.362183"
       id="linearGradient8068"
       xlink:href="#linearGradient5536"
       gradientUnits="userSpaceOnUse" />
    <linearGradient
       id="linearGradient5536">
      <stop
         id="stop5538"
         style="stop-color:#e6e6e6;stop-opacity:1"
         offset="0" />
      <stop
         id="stop5540"
         style="stop-color:#aaaaaa;stop-opacity:1"
         offset="1" />
    </linearGradient>
    <linearGradient
       x1="169.27542"
       y1="7.6329279"
       x2="169"
       y2="22.362183"
       id="linearGradient8064"
       xlink:href="#linearGradient5536"
       gradientUnits="userSpaceOnUse" />
    <linearGradient
       id="linearGradient6294">
      <stop
         id="stop6296"
         style="stop-color:#e6e6e6;stop-opacity:1"
         offset="0" />
      <stop
         id="stop6298"
         style="stop-color:#aaaaaa;stop-opacity:1"
         offset="1" />
    </linearGradient>
    <linearGradient
       x1="169.27542"
       y1="7.6329279"
       x2="169"
       y2="22.362183"
       id="linearGradient8066"
       xlink:href="#linearGradient5536"
       gradientUnits="userSpaceOnUse" />
    <linearGradient
       id="linearGradient6301">
      <stop
         id="stop6303"
         style="stop-color:#e6e6e6;stop-opacity:1"
         offset="0" />
      <stop
         id="stop6305"
         style="stop-color:#aaaaaa;stop-opacity:1"
         offset="1" />
    </linearGradient>
    <linearGradient
       x1="169.27542"
       y1="7.6329279"
       x2="169"
       y2="22.362183"
       id="linearGradient6317"
       xlink:href="#linearGradient5536"
       gradientUnits="userSpaceOnUse" />
    <linearGradient
       x1="163.03883"
       y1="1276.6127"
       x2="178.20804"
       y2="1290.1803"
       id="linearGradient10465"
       xlink:href="#linearGradient6935-4"
       gradientUnits="userSpaceOnUse"
       gradientTransform="matrix(1.2865905,0,0,1.2865905,2.6313671,-1434.2524)" />
    <linearGradient
       id="linearGradient6935-4">
      <stop
         id="stop6937-9"
         style="stop-color:#666666;stop-opacity:1"
         offset="0" />
      <stop
         id="stop6939-2"
         style="stop-color:#1a1a1a;stop-opacity:1"
         offset="1" />
    </linearGradient>
    <linearGradient
       id="linearGradient5536-1">
      <stop
         id="stop5538-8"
         style="stop-color:#e6e6e6;stop-opacity:1"
         offset="0" />
      <stop
         id="stop5540-8"
         style="stop-color:#aaaaaa;stop-opacity:1"
         offset="1" />
    </linearGradient>
    <linearGradient
       x1="162.30716"
       y1="1300.1305"
       x2="174.5314"
       y2="1312.568"
       id="linearGradient10439"
       xlink:href="#linearGradient6935-0"
       gradientUnits="userSpaceOnUse"
       gradientTransform="matrix(1.2865905,0,0,1.2865905,2.6313671,-1434.2524)" />
    <linearGradient
       id="linearGradient6935-0">
      <stop
         id="stop6937-2"
         style="stop-color:#666666;stop-opacity:1"
         offset="0" />
      <stop
         id="stop6939-23"
         style="stop-color:#1a1a1a;stop-opacity:1"
         offset="1" />
    </linearGradient>
    <linearGradient
       id="linearGradient5536-4">
      <stop
         id="stop5538-2"
         style="stop-color:#e6e6e6;stop-opacity:1"
         offset="0" />
      <stop
         id="stop5540-7"
         style="stop-color:#aaaaaa;stop-opacity:1"
         offset="1" />
    </linearGradient>
    <linearGradient
       x1="219.03647"
       y1="1300.413"
       x2="234.08066"
       y2="1315.4572"
       id="linearGradient10574"
       xlink:href="#linearGradient6935-3"
       gradientUnits="userSpaceOnUse"
       gradientTransform="matrix(1.2865905,0,0,1.2865905,-70.149173,-1405.3041)" />
    <linearGradient
       id="linearGradient6935-3">
      <stop
         id="stop6937-6"
         style="stop-color:#666666;stop-opacity:1"
         offset="0" />
      <stop
         id="stop6939-6"
         style="stop-color:#1a1a1a;stop-opacity:1"
         offset="1" />
    </linearGradient>
    <linearGradient
       x1="219.03647"
       y1="1300.413"
       x2="234.08066"
       y2="1315.4572"
       id="linearGradient8078"
       xlink:href="#linearGradient5536-7"
       gradientUnits="userSpaceOnUse"
       gradientTransform="matrix(1.2865905,0,0,1.2865905,-758.55119,-397.3041)" />
    <linearGradient
       id="linearGradient5536-7">
      <stop
         id="stop5538-4"
         style="stop-color:#e6e6e6;stop-opacity:1"
         offset="0" />
      <stop
         id="stop5540-3"
         style="stop-color:#aaaaaa;stop-opacity:1"
         offset="1" />
    </linearGradient>
    <linearGradient
       x1="110.58035"
       y1="209.98843"
       x2="121.60714"
       y2="221.46933"
       id="linearGradient10570"
       xlink:href="#linearGradient6935-1"
       gradientUnits="userSpaceOnUse"
       gradientTransform="matrix(1.5168235,0,0,1.4616527,46.664167,-3.1660959)" />
    <linearGradient
       id="linearGradient6935-1">
      <stop
         id="stop6937-1"
         style="stop-color:#666666;stop-opacity:1"
         offset="0" />
      <stop
         id="stop6939-60"
         style="stop-color:#1a1a1a;stop-opacity:1"
         offset="1" />
    </linearGradient>
    <linearGradient
       x1="110.58035"
       y1="209.98843"
       x2="121.60714"
       y2="221.46933"
       id="linearGradient8080"
       xlink:href="#linearGradient5536-9"
       gradientUnits="userSpaceOnUse"
       gradientTransform="matrix(1.5168235,0,0,1.4616527,-641.73785,1004.8339)" />
    <linearGradient
       id="linearGradient5536-9">
      <stop
         id="stop5538-1"
         style="stop-color:#e6e6e6;stop-opacity:1"
         offset="0" />
      <stop
         id="stop5540-84"
         style="stop-color:#aaaaaa;stop-opacity:1"
         offset="1" />
    </linearGradient>
    <linearGradient
       id="linearGradient6935-47">
      <stop
         id="stop6937-67"
         style="stop-color:#666666;stop-opacity:1"
         offset="0" />
      <stop
         id="stop6939-28"
         style="stop-color:#1a1a1a;stop-opacity:1"
         offset="1" />
    </linearGradient>
    <linearGradient
       x1="164.4178"
       y1="1376.9011"
       x2="177.87065"
       y2="1389.3638"
       id="linearGradient8120"
       xlink:href="#linearGradient5536-0"
       gradientUnits="userSpaceOnUse"
       gradientTransform="matrix(1.2865906,0,0,1.2865906,-685.77066,-426.25241)" />
    <linearGradient
       id="linearGradient5536-0">
      <stop
         id="stop5538-5"
         style="stop-color:#e6e6e6;stop-opacity:1"
         offset="0" />
      <stop
         id="stop5540-88"
         style="stop-color:#aaaaaa;stop-opacity:1"
         offset="1" />
    </linearGradient>
    <linearGradient
       id="linearGradient6935-5">
      <stop
         id="stop6937-21"
         style="stop-color:#666666;stop-opacity:1"
         offset="0" />
      <stop
         id="stop6939-8"
         style="stop-color:#1a1a1a;stop-opacity:1"
         offset="1" />
    </linearGradient>
    <linearGradient
       x1="218.41147"
       y1="1352.7328"
       x2="234.38399"
       y2="1366.9677"
       id="linearGradient8074"
       xlink:href="#linearGradient5536-75"
       gradientUnits="userSpaceOnUse"
       gradientTransform="matrix(1.2865906,0,0,1.2865906,-758.55121,-359.67134)" />
    <linearGradient
       id="linearGradient5536-75">
      <stop
         id="stop5538-7"
         style="stop-color:#e6e6e6;stop-opacity:1"
         offset="0" />
      <stop
         id="stop5540-0"
         style="stop-color:#aaaaaa;stop-opacity:1"
         offset="1" />
    </linearGradient>
    <linearGradient
       id="linearGradient6935-15">
      <stop
         id="stop6937-97"
         style="stop-color:#666666;stop-opacity:1"
         offset="0" />
      <stop
         id="stop6939-9"
         style="stop-color:#1a1a1a;stop-opacity:1"
         offset="1" />
    </linearGradient>
    <linearGradient
       x1="218.47807"
       y1="1381.1764"
       x2="233.41148"
       y2="1394.7928"
       id="linearGradient8076"
       xlink:href="#linearGradient5536-00"
       gradientUnits="userSpaceOnUse"
       gradientTransform="matrix(1.2865905,0,0,1.2865905,-758.55119,-359.67133)" />
    <linearGradient
       id="linearGradient5536-00">
      <stop
         id="stop5538-51"
         style="stop-color:#e6e6e6;stop-opacity:1"
         offset="0" />
      <stop
         id="stop5540-9"
         style="stop-color:#aaaaaa;stop-opacity:1"
         offset="1" />
    </linearGradient>
    <linearGradient
       id="linearGradient6935-7">
      <stop
         id="stop6937-16"
         style="stop-color:#666666;stop-opacity:1"
         offset="0" />
      <stop
         id="stop6939-3"
         style="stop-color:#1a1a1a;stop-opacity:1"
         offset="1" />
    </linearGradient>
    <linearGradient
       id="linearGradient5536-94">
      <stop
         id="stop5538-0"
         style="stop-color:#e6e6e6;stop-opacity:1"
         offset="0" />
      <stop
         id="stop5540-34"
         style="stop-color:#aaaaaa;stop-opacity:1"
         offset="1" />
    </linearGradient>
    <linearGradient
       id="linearGradient6935-2">
      <stop
         id="stop6937-8"
         style="stop-color:#666666;stop-opacity:1"
         offset="0" />
      <stop
         id="stop6939-21"
         style="stop-color:#1a1a1a;stop-opacity:1"
         offset="1" />
    </linearGradient>
    <linearGradient
       x1="164.52249"
       y1="1482.4421"
       x2="173.59126"
       y2="1491.8171"
       id="linearGradient8132"
       xlink:href="#linearGradient5536-6"
       gradientUnits="userSpaceOnUse"
       gradientTransform="matrix(1.2865905,0,0,1.2865905,-685.77065,-426.2524)" />
    <linearGradient
       id="linearGradient5536-6">
      <stop
         id="stop5538-54"
         style="stop-color:#e6e6e6;stop-opacity:1"
         offset="0" />
      <stop
         id="stop5540-6"
         style="stop-color:#aaaaaa;stop-opacity:1"
         offset="1" />
    </linearGradient>
    <linearGradient
       x1="164.52249"
       y1="1482.4421"
       x2="173.59126"
       y2="1491.8171"
       id="linearGradient6093"
       xlink:href="#linearGradient5536-6"
       gradientUnits="userSpaceOnUse"
       gradientTransform="matrix(1.2865905,0,0,1.2865905,-685.77065,-426.2524)" />
    <linearGradient
       x1="164.41899"
       y1="1276.6371"
       x2="170.89439"
       y2="1295.3601"
       id="linearGradient10378"
       xlink:href="#linearGradient6935-21"
       gradientUnits="userSpaceOnUse"
       gradientTransform="matrix(0.92627788,-0.39712497,0.39712497,0.92627788,-656.83793,-1116.1655)" />
    <linearGradient
       id="linearGradient6935-21">
      <stop
         id="stop6937-4"
         style="stop-color:#666666;stop-opacity:1"
         offset="0" />
      <stop
         id="stop6939-4"
         style="stop-color:#1a1a1a;stop-opacity:1"
         offset="1" />
    </linearGradient>
    <linearGradient
       x1="164.41899"
       y1="1276.6371"
       x2="170.89439"
       y2="1295.3601"
       id="linearGradient10332"
       xlink:href="#linearGradient5536-49"
       gradientUnits="userSpaceOnUse"
       gradientTransform="matrix(0.92627788,-0.39712497,0.39712497,0.92627788,-656.83793,-1116.1655)" />
    <linearGradient
       id="linearGradient5536-49">
      <stop
         id="stop5538-3"
         style="stop-color:#e6e6e6;stop-opacity:1"
         offset="0" />
      <stop
         id="stop5540-2"
         style="stop-color:#aaaaaa;stop-opacity:1"
         offset="1" />
    </linearGradient>
  </defs>
  <path
     d="m 1.611915,1.6722 0,0.8845 2.33194,9.8504 c 0.45132,-0.2381 0.97816,-0.3683 1.48763,-0.3216 l -1.12578,-5.669 3.89999,4.5432 c 0.27199,-0.4321 0.70163,-0.7906 1.16597,-1.0052 l -3.21649,-4.5031 5.06596,2.131 c 0.019,-0.5101 0.22793,-1.0296 0.52267,-1.4472 l -8.20201,-4.463 -1.92988,0 z m 12.2226,4.1814 c -0.19377,0.013 -0.38696,0.031 -0.60308,0.08 -1.45067,0.3432 -1.59405,1.9133 -0.80411,2.7741 1.5747,1.715 6.25056,0.618 7.96076,0.1609 -3.14655,0.465 -3.82865,-3.1401 -6.55357,-3.0155 z m -3.4577,4.463 c -1.21229,0.039 -1.87063,1.2939 -1.64844,2.2916 0.50388,2.2633 5.0401,3.5826 6.75459,4.0207 -3.09746,-1.2847 -1.39263,-5.2748 -4.58349,-6.2321 -0.17849,-0.053 -0.34949,-0.087 -0.52266,-0.08 z m -5.26699,2.372 c -0.86178,0.043 -1.46984,0.6705 -1.68864,1.3671 -0.7317,2.3276 2.91043,5.9496 4.02059,6.9958 l 0,-0.04 c -2.1799,-2.6906 1.38459,-5.3096 -0.92474,-7.7596 -0.38346,-0.4067 -0.89014,-0.5896 -1.40721,-0.563 z"
     id="path10178"
     style="fill:#ffffff;fill-opacity:1;display:inline" />
  <path
     d="m 11.732675,5.4078 0,0.7225 -0.62211,0.079 -0.0106,-0.814 z"
     id="path10180"
     style="fill:#ffffff;stroke:none;display:inline" />
  <path
     d="m 9.360535,9.2275 0,0.7226 -0.47136,0.029 -0.0482,-0.7553 z"
     id="path10182"
     style="fill:#ffffff;stroke:none;display:inline" />
  <path
     d="m 5.420275,11.3584 0,0.7226 -0.63209,-0.2835 0.12054,-1.0553 z"
     id="path10184"
     style="fill:#ffffff;stroke:none;display:inline" />
  <path
     d="m 15.482965,16.6289 0,-0.7238 -2.4626,-1.2628 0.41209,1.0854 z"
     id="path10186"
     style="fill:#ffffff;stroke:none;display:inline" />
  <path
     d="m 7.441775,21.0515 0.12056,-0.6031 C 6.817915,19.8049 6.550465,18.923 6.044545,18.1601 l -0.12056,0.9448 z"
     id="path10188"
     style="fill:#ffffff;stroke:none;display:inline" />
  <path
     d="m 1.611915,0.9485 0,0.8844 2.33194,9.8504 c 0.45132,-0.2376 0.97816,-0.3676 1.48763,-0.3215 l -1.12578,-5.669 3.89999,4.5432 c 0.27199,-0.4316 0.70163,-0.7906 1.16597,-1.0051 l -3.21649,-4.503 5.06596,2.1309 c 0.019,-0.5097 0.22793,-1.029 0.52267,-1.4475 l -8.20201,-4.4628 -1.92988,0 z m 12.2226,4.1814 c -0.19377,0.013 -0.38696,0.031 -0.60308,0.08 -1.45067,0.3433 -1.59405,1.914 -0.80411,2.7741 1.5747,1.7155 6.25056,0.6187 7.96076,0.1608 -3.14655,0.4654 -3.82865,-3.1399 -6.55357,-3.0153 z m -3.4577,4.4628 c -1.21229,0.039 -1.87063,1.294 -1.64844,2.2918 0.50388,2.2632 5.0401,3.5825 6.75459,4.0206 -3.09746,-1.2847 -1.39263,-5.275 -4.58349,-6.2319 -0.17849,-0.053 -0.34949,-0.086 -0.52266,-0.081 z m -5.26699,2.3721 c -0.86178,0.043 -1.46984,0.6705 -1.68864,1.3671 -0.78151,2.4862 3.38008,6.418 4.14121,7.1165 -2.44202,-2.7436 1.30682,-5.425 -1.04536,-7.9206 -0.38346,-0.4067 -0.89014,-0.5897 -1.40721,-0.563 z"
     id="path10190"
     style="fill:url(#linearGradient10332);fill-opacity:1;display:inline" />
  <path
     d="m 20.388085,8.1448 0,0.7238 c 0,0 -3.55171,0.6901 -3.6174,-0.026 -0.0657,-0.7159 0.24705,-1.2954 0.24705,-1.2954 1.11731,0.2163 2.06676,0.9026 3.37035,0.5974 z"
     id="path10192"
     style="fill:#ffffff;stroke:none;display:inline" />
  <path
     d="m 1.611915,1.6722 0,0.8845 2.33194,9.8504 c 0.45132,-0.2381 0.97816,-0.3683 1.48763,-0.3216 l -1.12578,-5.669 3.89999,4.5432 c 0.27199,-0.4321 0.70163,-0.7906 1.16597,-1.0052 l -3.21649,-4.5031 5.06596,2.131 c 0.019,-0.5101 0.22793,-1.0296 0.52267,-1.4472 l -8.20201,-4.463 -1.92988,0 z m 12.2226,4.1814 c -0.19377,0.013 -0.38696,0.031 -0.60308,0.08 -1.45067,0.3432 -1.59405,1.9133 -0.80411,2.7741 1.5747,1.715 6.25056,0.618 7.96076,0.1609 -3.14655,0.465 -3.82865,-3.1401 -6.55357,-3.0155 z m -3.4577,4.463 c -1.21229,0.039 -1.87063,1.2939 -1.64844,2.2916 0.50388,2.2633 5.0401,3.5826 6.75459,4.0207 -3.09746,-1.2847 -1.39263,-5.2748 -4.58349,-6.2321 -0.17849,-0.053 -0.34949,-0.087 -0.52266,-0.08 z m -5.26699,2.372 c -0.86178,0.043 -1.46984,0.6705 -1.68864,1.3671 -0.7317,2.3276 2.91043,5.9496 4.02059,6.9958 l 0,-0.04 c -2.1799,-2.6906 1.38459,-5.3096 -0.92474,-7.7596 -0.38346,-0.4067 -0.89014,-0.5896 -1.40721,-0.563 z"
     id="path10196"
     style="fill:#ffffff;fill-opacity:1;display:inline" />
  <path
     d="m 11.732675,5.4078 0,0.7225 -0.62211,0.079 -0.0106,-0.814 z"
     id="path10198"
     style="fill:#ffffff;stroke:none;display:inline" />
  <path
     d="m 9.360535,9.2275 0,0.7226 -0.47136,0.029 -0.0482,-0.7553 z"
     id="path10200"
     style="fill:#ffffff;stroke:none;display:inline" />
  <path
     d="m 5.420275,11.3584 0,0.7226 -0.63209,-0.2835 0.12054,-1.0553 z"
     id="path10202"
     style="fill:#ffffff;stroke:none;display:inline" />
  <path
     d="m 15.482965,16.6289 0,-0.7238 -2.4626,-1.2628 0.41209,1.0854 z"
     id="path10204"
     style="fill:#ffffff;stroke:none;display:inline" />
  <path
     d="m 7.441775,21.0515 0.12056,-0.6031 C 6.817915,19.8049 6.550465,18.923 6.044545,18.1601 l -0.12056,0.9448 z"
     id="path10206"
     style="fill:#ffffff;stroke:none;display:inline" />
  <path
     d="m 1.611915,0.9485 0,0.8844 2.33194,9.8504 c 0.45132,-0.2376 0.97816,-0.3676 1.48763,-0.3215 l -1.12578,-5.669 3.89999,4.5432 c 0.27199,-0.4316 0.70163,-0.7906 1.16597,-1.0051 l -3.21649,-4.503 5.06596,2.1309 c 0.019,-0.5097 0.22793,-1.029 0.52267,-1.4475 l -8.20201,-4.4628 -1.92988,0 z m 12.2226,4.1814 c -0.19377,0.013 -0.38696,0.031 -0.60308,0.08 -1.45067,0.3433 -1.59405,1.914 -0.80411,2.7741 1.5747,1.7155 6.25056,0.6187 7.96076,0.1608 -3.14655,0.4654 -3.82865,-3.1399 -6.55357,-3.0153 z m -3.4577,4.4628 c -1.21229,0.039 -1.87063,1.294 -1.64844,2.2918 0.50388,2.2632 5.0401,3.5825 6.75459,4.0206 -3.09746,-1.2847 -1.39263,-5.275 -4.58349,-6.2319 -0.17849,-0.053 -0.34949,-0.086 -0.52266,-0.081 z m -5.26699,2.3721 c -0.86178,0.043 -1.46984,0.6705 -1.68864,1.3671 -0.78151,2.4862 3.38008,6.418 4.14121,7.1165 -2.44202,-2.7436 1.30682,-5.425 -1.04536,-7.9206 -0.38346,-0.4067 -0.89014,-0.5897 -1.40721,-0.563 z"
     id="path10208"
     style="fill:url(#linearGradient10378);fill-opacity:1;display:inline" />
</svg>
