<?xml version="1.0" encoding="UTF-8" standalone="no"?>
<svg
   xmlns:dc="http://purl.org/dc/elements/1.1/"
   xmlns:cc="http://creativecommons.org/ns#"
   xmlns:rdf="http://www.w3.org/1999/02/22-rdf-syntax-ns#"
   xmlns:svg="http://www.w3.org/2000/svg"
   xmlns="http://www.w3.org/2000/svg"
   version="1.1"
   width="16"
   height="16"
   id="svg3071">
  <metadata
     id="metadata3077">
    <rdf:RDF>
      <cc:Work
         rdf:about="">
        <dc:format>image/svg+xml</dc:format>
        <dc:type
           rdf:resource="http://purl.org/dc/dcmitype/StillImage" />
        <dc:title></dc:title>
        <dc:creator>
          <cc:Agent>
            <dc:title>Timothée Giet</dc:title>
          </cc:Agent>
        </dc:creator>
        <cc:license
           rdf:resource="http://creativecommons.org/licenses/by-sa/4.0/" />
        <dc:date>2020</dc:date>
      </cc:Work>
      <cc:License
         rdf:about="http://creativecommons.org/licenses/by-sa/4.0/">
        <cc:permits
           rdf:resource="http://creativecommons.org/ns#Reproduction" />
        <cc:permits
           rdf:resource="http://creativecommons.org/ns#Distribution" />
        <cc:requires
           rdf:resource="http://creativecommons.org/ns#Notice" />
        <cc:requires
           rdf:resource="http://creativecommons.org/ns#Attribution" />
        <cc:permits
           rdf:resource="http://creativecommons.org/ns#DerivativeWorks" />
        <cc:requires
           rdf:resource="http://creativecommons.org/ns#ShareAlike" />
      </cc:License>
    </rdf:RDF>
  </metadata>
  <defs
     id="defs3075" />
  <g
     transform="matrix(0.24227062,0,0,0.24227062,-197.44864,-48.979043)"
     id="g5357"
     style="fill:#000000">
    <path
       transform="matrix(4.1276156,0,0,4.1276156,814.99209,202.16666)"
       style="opacity:1;vector-effect:none;fill:#cacaca;fill-opacity:1;stroke:none;stroke-width:6;stroke-linecap:round;stroke-linejoin:bevel;stroke-miterlimit:4;stroke-dasharray:none;stroke-dashoffset:0;stroke-opacity:1"
       d="M 8,0 A 7.9999996,7.9999996 0 0 0 0,8 7.9999996,7.9999996 0 0 0 8,16 7.9999996,7.9999996 0 0 0 16,8 7.9999996,7.9999996 0 0 0 8,0 Z M 8,1 A 6.9999998,6.9999998 0 0 1 15,8 6.9999998,6.9999998 0 0 1 8,15 6.9999998,6.9999998 0 0 1 1,8 6.9999998,6.9999998 0 0 1 8,1 Z"
       id="path821" />
    <path
       style="opacity:1;vector-effect:none;fill:#cacaca;fill-opacity:1;stroke:none;stroke-width:24.76569366;stroke-linecap:round;stroke-linejoin:bevel;stroke-miterlimit:4;stroke-dasharray:none;stroke-dashoffset:0;stroke-opacity:1"
       d="m 848.01299,218.67712 a 12.382847,12.382847 0 0 0 -12.38284,12.38284 h 4.12761 a 8.2552308,8.2552308 0 0 1 8.25523,-8.25523 8.2552308,8.2552308 0 0 1 8.25524,8.25523 v 16.51047 h 4.12761 v -16.51047 a 12.382847,12.382847 0 0 0 -12.38285,-12.38284 z"
       id="path841" />
    <rect
       style="opacity:1;vector-effect:none;fill:#cacaca;fill-opacity:1;stroke:none;stroke-width:24.76569366;stroke-linecap:round;stroke-linejoin:bevel;stroke-miterlimit:4;stroke-dasharray:none;stroke-dashoffset:0;stroke-opacity:1"
       id="rect851"
       width="33.020924"
       height="16.510462"
       x="831.50256"
       y="231.05997" />
  </g>
</svg>
