<?xml version="1.0" encoding="UTF-8" standalone="no"?>
<!-- Created with Inkscape (http://www.inkscape.org/) -->

<svg
   xmlns:dc="http://purl.org/dc/elements/1.1/"
   xmlns:cc="http://creativecommons.org/ns#"
   xmlns:rdf="http://www.w3.org/1999/02/22-rdf-syntax-ns#"
   xmlns:svg="http://www.w3.org/2000/svg"
   xmlns="http://www.w3.org/2000/svg"
   xmlns:sodipodi="http://sodipodi.sourceforge.net/DTD/sodipodi-0.dtd"
   xmlns:inkscape="http://www.inkscape.org/namespaces/inkscape"
   width="12"
   height="12"
   viewBox="0 0 12 12"
   id="svg2"
   version="1.1"
   inkscape:version="0.92.1 r15371"
   sodipodi:docname="light_selectionMask.svg">
  <defs
     id="defs4" />
  <sodipodi:namedview
     id="base"
     pagecolor="#ffffff"
     bordercolor="#666666"
     borderopacity="1.0"
     inkscape:pageopacity="0.0"
     inkscape:pageshadow="2"
     inkscape:zoom="31.678384"
     inkscape:cx="6.6817669"
     inkscape:cy="6.3292777"
     inkscape:document-units="px"
     inkscape:current-layer="layer1"
     showgrid="true"
     units="px"
     inkscape:window-width="1884"
     inkscape:window-height="1051"
     inkscape:window-x="0"
     inkscape:window-y="0"
     inkscape:window-maximized="1">
    <inkscape:grid
       type="xygrid"
       id="grid4684" />
  </sodipodi:namedview>
  <metadata
     id="metadata7">
    <rdf:RDF>
      <cc:Work
         rdf:about="">
        <dc:format>image/svg+xml</dc:format>
        <dc:type
           rdf:resource="http://purl.org/dc/dcmitype/StillImage" />
        <dc:title></dc:title>
        <dc:date>2016</dc:date>
        <dc:creator>
          <cc:Agent>
            <dc:title>Timothée Giet</dc:title>
          </cc:Agent>
        </dc:creator>
        <cc:license
           rdf:resource="http://creativecommons.org/licenses/by-sa/4.0/" />
      </cc:Work>
      <cc:License
         rdf:about="http://creativecommons.org/licenses/by-sa/4.0/">
        <cc:permits
           rdf:resource="http://creativecommons.org/ns#Reproduction" />
        <cc:permits
           rdf:resource="http://creativecommons.org/ns#Distribution" />
        <cc:requires
           rdf:resource="http://creativecommons.org/ns#Notice" />
        <cc:requires
           rdf:resource="http://creativecommons.org/ns#Attribution" />
        <cc:permits
           rdf:resource="http://creativecommons.org/ns#DerivativeWorks" />
        <cc:requires
           rdf:resource="http://creativecommons.org/ns#ShareAlike" />
      </cc:License>
    </rdf:RDF>
  </metadata>
  <g
     inkscape:label="Calque 1"
     inkscape:groupmode="layer"
     id="layer1"
     transform="translate(0,-1040.3622)">
    <path
       style="color:#000000;clip-rule:nonzero;display:inline;overflow:visible;visibility:visible;opacity:1;isolation:auto;mix-blend-mode:normal;color-interpolation:sRGB;color-interpolation-filters:linearRGB;solid-color:#000000;solid-opacity:1;fill:#f2f2f2;fill-opacity:1;fill-rule:nonzero;stroke:none;stroke-width:1;stroke-linecap:butt;stroke-linejoin:miter;stroke-miterlimit:4;stroke-dasharray:none;stroke-dashoffset:0;stroke-opacity:1;marker:none;color-rendering:auto;image-rendering:auto;shape-rendering:auto;text-rendering:auto;enable-background:accumulate"
       d="m 6.3018832,1041.3719 a 5,5 0 0 0 -3.0535609,0.8236 l 0.7221754,0.7233 a 4,4 0 0 1 2.0649838,-0.5527 l 0.2664017,-0.9942 z m 1.9308406,0.5214 -0.2658961,0.9923 a 4,4 0 0 1 1.5143523,1.5098 l 0.987061,-0.2653 a 5,5 0 0 0 -2.2355172,-2.2368 z m -6.3982056,1.7149 a 5,5 0 0 0 -0.6641473,1.4599 5,5 0 0 0 -0.1566588,1.5959 l 0.9870605,-0.2653 a 4,4 0 0 1 0.1355242,-1.0718 4,4 0 0 1 0.4222834,-0.9949 l -0.724062,-0.7238 z m 9.1517698,2.4522 -0.9870604,0.2653 a 4,4 0 0 1 -0.1355242,1.0718 4,4 0 0 1 -0.4222835,0.9949 l 0.7240621,0.7238 a 5,5 0 0 0 0.664147,-1.4599 5,5 0 0 0 0.156659,-1.5959 z m -8.4674679,2.2686 -0.9870605,0.2653 a 5,5 0 0 0 2.2355168,2.2368 l 0.2658961,-0.9923 a 4,4 0 0 1 -1.5143524,-1.5098 z m 5.5106823,1.4766 a 4,4 0 0 1 -2.0649838,0.5527 l -0.2664018,0.9942 a 5,5 0 0 0 3.053561,-0.8236 l -0.7221754,-0.7233 z"
       id="path4270"
       inkscape:connector-curvature="0" />
  </g>
</svg>
