# Blender3D v249 OBJ File: 20090911-3dbrush-03.blend
# www.blender3d.org
mtllib smudge-finger.mtl
v 0.480193 0.652335 0.419048
v 0.480193 0.652335 -0.419048
v -0.173378 1.083859 0.417117
v -0.173377 1.083859 -0.417117
v -0.176783 0.709129 0.414652
v -0.176783 0.709129 -0.414652
v 0.071056 1.101666 0.553353
v 0.095940 1.101666 -0.549811
v 0.033819 0.695415 0.553543
v 0.033819 0.695415 -0.553543
v -0.148317 0.154906 -0.000000
v 0.494887 0.045021 0.000000
v 0.616516 0.831108 0.000000
v -0.291923 1.083859 -0.000000
v 0.565977 0.754629 0.000000
v -0.293662 0.698946 -0.000000
v 0.070488 -0.033344 0.000000
v 0.491472 0.593976 0.340921
v 0.493099 0.593976 -0.360348
v 0.539389 0.137191 0.000000
v 0.512209 1.006972 0.405495
v 0.512209 1.006972 -0.405495
v 0.660000 1.108494 0.000000
v -0.146820 2.388534 0.408463
v -0.146820 2.348753 -0.452450
v 0.189765 2.265177 0.546009
v 0.189765 2.256117 -0.579317
v -0.255229 2.396256 -0.000000
v 0.624616 2.249232 0.389983
v 0.624616 2.279727 -0.387943
v 0.728092 2.334942 -0.000000
v -0.111150 2.622973 0.467112
v -0.103191 2.577838 -0.464201
v 0.221649 2.647574 0.582770
v 0.224483 2.631500 -0.594985
v -0.227894 2.602388 -0.000000
v 0.640583 2.731735 0.396674
v 0.637833 2.747332 -0.413476
v 0.773012 2.766800 -0.001837
v 0.022321 0.340711 0.484960
v 0.022321 0.340711 -0.484960
v -0.164981 0.399406 0.323062
v -0.164981 0.399406 -0.323062
v 0.421807 0.340722 0.415218
v 0.421807 0.340722 -0.415218
v -0.105903 0.199692 0.191173
v -0.105903 0.199692 -0.191173
v 0.058406 0.064478 0.298521
v 0.058406 0.064478 -0.298521
v 0.424385 0.138347 0.254170
v 0.424385 0.138347 -0.254170
v 0.499193 0.203956 0.202582
v 0.499193 0.203955 -0.202582
v 0.433996 0.350866 0.349220
v 0.435622 0.350866 -0.368647
v -0.417971 4.391366 0.541703
v -0.419063 4.397555 -0.535419
v -0.016924 4.488561 0.714868
v -0.026082 4.522573 -0.649605
v -0.536898 4.383158 -0.000000
v 0.470937 4.655063 0.580336
v 0.423041 4.672223 -0.515072
v 0.575430 4.753452 0.002809
v -0.109869 1.425671 0.384751
v -0.109869 1.425671 -0.384751
v 0.117378 1.475622 0.562360
v 0.117378 1.475622 -0.543509
v -0.225117 1.435971 -0.000000
v 0.566352 1.423655 0.401877
v 0.566352 1.423655 -0.401877
v 0.695473 1.412969 -0.000000
v -0.153717 1.694263 0.379471
v -0.153717 1.694263 -0.392038
v 0.136702 1.699837 0.553597
v 0.136702 1.709467 -0.553597
v -0.267700 1.704086 -0.000000
v 0.564403 1.753525 0.397467
v 0.564403 1.753525 -0.395562
v 0.687927 1.769240 0.000953
v -0.227222 2.887993 0.467516
v -0.227221 2.887993 -0.434019
v 0.203139 3.043831 0.585518
v 0.174342 2.988230 -0.573772
v -0.345262 2.884157 -0.000000
v 0.615933 3.160320 0.393871
v 0.613428 3.104701 -0.370619
v 0.728373 3.159728 -0.000431
v 0.565385 0.793483 0.213239
v 0.565385 0.793483 -0.213239
v 0.556153 0.725693 0.189830
v 0.556153 0.725693 -0.189830
v -0.244423 0.398302 -0.000000
v 0.600958 0.790594 0.000000
v 0.512671 0.108332 0.000000
v 0.494041 0.625572 0.362774
v 0.495668 0.625572 -0.382200
v 0.455594 0.186356 0.226410
v 0.455594 0.186356 -0.226410
v 0.565201 0.747157 0.190749
v 0.565201 0.747157 -0.190749
v -0.046045 4.573133 -0.000000
v -0.395824 3.672057 0.508241
v -0.395824 3.672057 -0.510356
v 0.084605 3.836806 0.622148
v 0.077979 3.773629 -0.612150
v -0.514327 3.666286 -0.000000
v 0.565173 3.923665 0.458914
v 0.509843 3.855851 -0.452390
v 0.638587 3.931226 -0.000000
v 0.319058 -0.047000 0.000000
v 0.292888 1.077729 0.498601
v 0.292888 1.077729 -0.498601
v 0.256876 0.682068 0.505747
v 0.256876 0.682068 -0.505748
v 0.235691 0.309602 0.468093
v 0.235691 0.309602 -0.468092
v 0.276115 0.052398 0.287399
v 0.276115 0.052398 -0.287399
v -0.159974 1.254765 0.396618
v -0.161046 1.264881 -0.405474
v 0.041112 1.276077 0.547775
v 0.062962 1.316232 -0.540414
v -0.276871 1.259915 -0.004316
vn 0.955931 -0.112491 0.271065
vn 0.992248 -0.124149 0.000000
vn 0.724601 -0.063143 0.686239
vn 0.951201 -0.082583 -0.297250
vn 0.724601 -0.063143 -0.686239
vn 0.975127 -0.221595 0.000000
vn 0.721000 -0.091403 0.686850
vn 0.716239 -0.077303 -0.693503
vn 0.816645 -0.314005 -0.484207
vn 0.939817 -0.195318 -0.280282
vn 0.925077 -0.173009 -0.337992
vn 0.946410 -0.252144 0.201697
vn 0.841762 -0.266549 0.469436
vn 0.911863 -0.171850 0.372753
vn -0.205603 0.010804 -0.978545
vn 0.696310 -0.033906 -0.716910
vn 0.254799 -0.001282 -0.966979
vn -0.231697 0.030366 0.972289
vn 0.243965 -0.025605 0.969420
vn 0.733146 -0.037324 0.679006
vn -0.134251 0.025361 -0.990600
vn -0.232978 0.063784 -0.970367
vn -0.241188 0.035188 0.969817
vn -0.135105 0.011597 0.990753
vn -0.749901 0.175726 -0.637776
vn -0.774773 0.050447 -0.630177
vn -0.983001 0.183477 -0.001007
vn -0.998810 0.046937 0.013153
vn -0.811396 0.083651 -0.578448
vn -0.996948 0.077273 -0.009369
vn -0.824915 0.197363 0.529618
vn -0.831874 0.072268 0.550188
vn -0.769402 0.056154 0.636250
vn 0.238716 -0.770898 -0.590503
vn -0.370495 -0.752739 -0.544115
vn 0.207221 -0.394330 -0.895260
vn -0.330485 -0.361156 -0.871944
vn 0.670583 -0.529588 -0.519425
vn 0.650349 -0.307596 -0.694540
vn 0.238716 -0.770898 0.590503
vn 0.704672 -0.499496 0.503891
vn 0.207221 -0.394330 0.895260
vn 0.694082 -0.298318 0.655141
vn -0.370495 -0.752739 0.544115
vn -0.330485 -0.361156 0.871944
vn 0.232673 -0.085574 -0.968749
vn -0.276742 -0.097140 -0.955992
vn 0.232551 -0.085086 0.968841
vn -0.275277 -0.103275 0.955779
vn 0.277261 -0.960784 0.000000
vn -0.415693 -0.909482 0.000000
vn 0.765435 -0.643483 0.000000
vn 0.092410 -0.038881 -0.994934
vn 0.706656 0.022675 -0.707175
vn 0.696127 0.071963 -0.714286
vn 0.025819 0.004517 -0.999634
vn -0.143162 0.514634 -0.845332
vn 0.446028 0.616474 -0.648823
vn 0.032563 -0.087497 0.995605
vn 0.758385 -0.008271 0.651723
vn -0.173681 0.436201 0.882900
vn 0.499496 0.578997 0.644368
vn 0.072756 -0.019684 0.997131
vn 0.766472 0.023652 0.641804
vn 0.995453 0.095065 0.001312
vn 0.993225 0.114048 -0.022217
vn 0.628163 0.777581 -0.027528
vn -0.991577 -0.128330 -0.017090
vn -0.715415 -0.130131 -0.686422
vn -0.726371 -0.223579 -0.649892
vn -0.954436 -0.298166 -0.010224
vn -0.875271 0.483596 0.002930
vn -0.687551 0.415113 -0.595752
vn -0.723563 -0.119785 0.679739
vn -0.690146 0.383312 0.613788
vn -0.680197 -0.234565 0.694449
vn 0.967620 -0.226600 -0.110935
vn 0.907651 -0.411542 -0.082339
vn 0.953093 -0.302561 0.000000
vn 0.855983 -0.516984 0.000000
vn 0.908353 -0.408246 0.090426
vn 0.965819 -0.224006 0.130314
vn 0.727134 -0.503189 -0.466903
vn 0.725639 -0.488052 0.485000
vn 0.821589 -0.570055 0.000000
vn -0.811823 -0.583880 0.000000
vn -0.956603 -0.291299 0.000000
vn -0.757958 -0.546831 -0.355541
vn -0.788690 -0.306711 -0.532762
vn -0.788690 -0.306711 0.532762
vn -0.757958 -0.546831 0.355541
vn -0.997070 -0.076144 0.000000
vn -0.789605 -0.100497 -0.605304
vn -0.789605 -0.100497 0.605304
vn 0.759178 0.028535 -0.650227
vn 0.054262 0.008179 -0.998474
vn 0.030824 -0.055849 0.997955
vn 0.778710 -0.000580 0.627338
vn 0.999969 0.003967 -0.004669
vn -0.785211 -0.065310 -0.615741
vn -0.991363 -0.131077 0.000061
vn -0.767388 -0.169744 0.618275
vn 0.759453 -0.066836 -0.647084
vn 0.728324 -0.030213 -0.684530
vn -0.060579 -0.041353 -0.997284
vn -0.041566 -0.036012 -0.998474
vn -0.089358 0.034242 0.995392
vn 0.737297 -0.032533 0.674734
vn -0.114841 -0.039308 0.992584
vn 0.723960 -0.059877 0.687185
vn 0.996368 -0.085086 0.000549
vn 0.999512 -0.031037 0.001495
vn 0.998840 -0.047884 -0.000336
vn -0.758049 0.029695 -0.651479
vn -0.749352 -0.088412 -0.656209
vn -0.997467 -0.070315 0.008911
vn -0.997009 0.076998 0.005097
vn -0.764702 -0.049928 0.642415
vn -0.770806 -0.025483 0.636525
vn -0.314493 0.949095 0.017335
vn 0.832575 -0.370006 0.412152
vn 0.836879 -0.378307 -0.395550
vn 0.909055 -0.416608 0.000000
g finger_Plane.041_skin
usemtl skin
s 1
f 88//1 23//2 21//3
f 23//2 89//4 22//5
f 13//6 23//2 88//1
f 23//2 13//6 89//4
f 21//3 1//7 88//1
f 22//5 89//4 2//8
f 55//9 96//10 19//11
f 95//12 54//13 18//14
f 67//15 70//16 112//17
f 70//16 22//5 112//17
f 66//18 111//19 69//20
f 111//19 21//3 69//20
f 8//21 122//22 112//17
f 122//22 67//15 112//17
f 66//18 121//23 111//19
f 121//23 7//24 111//19
f 120//25 4//26 123//27
f 4//26 14//28 123//27
f 65//29 120//25 68//30
f 120//25 123//27 68//30
f 119//31 64//32 68//30
f 119//31 68//30 123//27
f 3//33 119//31 14//28
f 119//31 123//27 14//28
f 122//22 8//21 120//25
f 8//21 4//26 120//25
f 67//15 122//22 65//29
f 122//22 120//25 65//29
f 121//23 66//18 64//32
f 121//23 64//32 119//31
f 7//24 121//23 3//33
f 121//23 119//31 3//33
f 118//34 49//35 116//36
f 49//35 41//37 116//36
f 51//38 118//34 116//36
f 51//38 116//36 45//39
f 117//40 50//41 115//42
f 50//41 44//43 115//42
f 48//44 117//40 115//42
f 48//44 115//42 40//45
f 112//17 22//5 114//46
f 22//5 2//8 114//46
f 8//21 112//17 114//46
f 8//21 114//46 10//47
f 113//48 1//7 21//3
f 113//48 21//3 111//19
f 9//49 113//48 7//24
f 113//48 111//19 7//24
f 110//50 17//51 118//34
f 17//51 49//35 118//34
f 12//52 110//50 51//38
f 110//50 118//34 51//38
f 110//50 12//52 50//41
f 110//50 50//41 117//40
f 17//51 110//50 117//40
f 17//51 117//40 48//44
f 116//36 41//37 114//46
f 41//37 10//47 114//46
f 45//39 116//36 114//46
f 45//39 114//46 2//8
f 113//48 9//49 40//45
f 113//48 40//45 115//42
f 1//7 113//48 44//43
f 113//48 115//42 44//43
f 105//53 108//54 86//55
f 105//53 86//55 83//56
f 59//57 62//58 108//54
f 59//57 108//54 105//53
f 104//59 107//60 58//61
f 107//60 61//62 58//61
f 82//63 85//64 104//59
f 85//64 107//60 104//59
f 108//54 109//65 87//66
f 108//54 87//66 86//55
f 62//58 63//67 109//65
f 62//58 109//65 108//54
f 107//60 109//65 61//62
f 109//65 63//67 61//62
f 85//64 87//66 109//65
f 85//64 109//65 107//60
f 106//68 103//69 81//70
f 106//68 81//70 84//71
f 60//72 57//73 103//69
f 60//72 103//69 106//68
f 106//68 102//74 60//72
f 102//74 56//75 60//72
f 84//71 80//76 102//74
f 84//71 102//74 106//68
f 103//69 105//53 83//56
f 103//69 83//56 81//70
f 57//73 59//57 105//53
f 57//73 105//53 103//69
f 102//74 104//59 56//75
f 104//59 58//61 56//75
f 80//76 82//63 102//74
f 82//63 104//59 102//74
f 91//77 100//78 15//79
f 100//78 93//80 15//79
f 93//80 99//81 15//79
f 99//81 90//82 15//79
f 100//78 89//4 13//6
f 100//78 13//6 93//80
f 13//6 88//1 99//81
f 13//6 99//81 93//80
f 19//11 96//10 91//77
f 96//10 100//78 91//77
f 99//81 95//12 90//82
f 95//12 18//14 90//82
f 89//4 100//78 96//10
f 89//4 96//10 2//8
f 88//1 1//7 95//12
f 88//1 95//12 99//81
f 45//39 55//9 51//38
f 55//9 98//83 51//38
f 97//84 54//13 50//41
f 54//13 44//43 50//41
f 94//85 12//52 98//83
f 12//52 51//38 98//83
f 50//41 12//52 97//84
f 12//52 94//85 97//84
f 55//9 45//39 96//10
f 45//39 2//8 96//10
f 1//7 44//43 95//12
f 44//43 54//13 95//12
f 11//86 92//87 47//88
f 92//87 43//89 47//88
f 42//90 92//87 46//91
f 92//87 11//86 46//91
f 92//87 16//92 43//89
f 16//92 6//93 43//89
f 5//94 16//92 42//90
f 16//92 92//87 42//90
f 86//55 38//95 83//56
f 38//95 35//96 83//56
f 34//97 37//98 82//63
f 37//98 85//64 82//63
f 87//66 39//99 86//55
f 39//99 38//95 86//55
f 37//98 39//99 85//64
f 39//99 87//66 85//64
f 81//70 33//100 36//101
f 81//70 36//101 84//71
f 36//101 32//102 80//76
f 36//101 80//76 84//71
f 83//56 35//96 33//100
f 83//56 33//100 81//70
f 32//102 34//97 80//76
f 34//97 82//63 80//76
f 30//103 78//104 27//105
f 78//104 75//106 27//105
f 74//107 77//108 26//109
f 77//108 29//110 26//109
f 78//104 70//16 75//106
f 70//16 67//15 75//106
f 66//18 69//20 74//107
f 69//20 77//108 74//107
f 31//111 79//112 30//103
f 79//112 78//104 30//103
f 77//108 79//112 29//110
f 79//112 31//111 29//110
f 79//112 71//113 78//104
f 71//113 70//16 78//104
f 69//20 71//113 77//108
f 71//113 79//112 77//108
f 25//114 73//115 76//116
f 25//114 76//116 28//117
f 76//116 72//118 28//117
f 72//118 24//119 28//117
f 73//115 65//29 68//30
f 73//115 68//30 76//116
f 68//30 64//32 72//118
f 68//30 72//118 76//116
f 27//105 75//106 73//115
f 27//105 73//115 25//114
f 72//118 74//107 26//109
f 72//118 26//109 24//119
f 75//106 67//15 73//115
f 67//15 65//29 73//115
f 64//32 66//18 72//118
f 66//18 74//107 72//118
f 71//113 23//2 70//16
f 23//2 22//5 70//16
f 21//3 23//2 69//20
f 23//2 71//113 69//20
f 47//88 43//89 41//37
f 47//88 41//37 49//35
f 40//45 42//90 46//91
f 40//45 46//91 48//44
f 35//96 38//95 30//103
f 35//96 30//103 27//105
f 29//110 37//98 34//97
f 29//110 34//97 26//109
f 38//95 39//99 31//111
f 38//95 31//111 30//103
f 31//111 39//99 37//98
f 31//111 37//98 29//110
f 36//101 33//100 28//117
f 33//100 25//114 28//117
f 24//119 32//102 36//101
f 24//119 36//101 28//117
f 33//100 35//96 27//105
f 33//100 27//105 25//114
f 26//109 34//97 32//102
f 26//109 32//102 24//119
f 17//51 11//86 47//88
f 17//51 47//88 49//35
f 46//91 11//86 17//51
f 46//91 17//51 48//44
f 6//93 16//92 14//28
f 6//93 14//28 4//26
f 14//28 16//92 5//94
f 14//28 5//94 3//33
f 10//47 6//93 4//26
f 10//47 4//26 8//21
f 3//33 5//94 9//49
f 3//33 9//49 7//24
f 6//93 10//47 43//89
f 10//47 41//37 43//89
f 40//45 9//49 42//90
f 9//49 5//94 42//90
g finger_Plane.041_flesh
usemtl flesh
f 101//120 59//57 57//73
f 101//120 57//73 60//72
f 56//75 58//61 101//120
f 56//75 101//120 60//72
f 63//67 62//58 101//120
f 62//58 59//57 101//120
f 58//61 61//62 101//120
f 61//62 63//67 101//120
g finger_Plane.041_nail
usemtl nail
f 52//121 54//13 97//84
f 55//9 53//122 98//83
f 20//123 94//85 53//122
f 94//85 98//83 53//122
f 97//84 94//85 52//121
f 94//85 20//123 52//121
f 19//11 91//77 53//122
f 19//11 53//122 55//9
f 52//121 90//82 18//14
f 52//121 18//14 54//13
f 91//77 15//79 53//122
f 15//79 20//123 53//122
f 20//123 15//79 52//121
f 15//79 90//82 52//121
