<?xml version="1.0" encoding="UTF-8" standalone="no"?>
<!-- Created with Inkscape (http://www.inkscape.org/) -->

<svg
   xmlns:dc="http://purl.org/dc/elements/1.1/"
   xmlns:cc="http://creativecommons.org/ns#"
   xmlns:rdf="http://www.w3.org/1999/02/22-rdf-syntax-ns#"
   xmlns:svg="http://www.w3.org/2000/svg"
   xmlns="http://www.w3.org/2000/svg"
   xmlns:sodipodi="http://sodipodi.sourceforge.net/DTD/sodipodi-0.dtd"
   xmlns:inkscape="http://www.inkscape.org/namespaces/inkscape"
   width="16"
   height="16"
   id="svg3049"
   version="1.1"
   inkscape:version="0.48.4 r9939"
   sodipodi:docname="sc_basicshapes.cube.svg"
   inkscape:export-filename="/home/uri/.kde/share/icons/NITRUX-KDE/16x16/actions/view-right-new.png"
   inkscape:export-xdpi="30"
   inkscape:export-ydpi="30">
  <defs
     id="defs3051" />
  <sodipodi:namedview
     id="base"
     pagecolor="#ffffff"
     bordercolor="#666666"
     borderopacity="1.0"
     inkscape:pageopacity="0.0"
     inkscape:pageshadow="2"
     inkscape:zoom="48.822612"
     inkscape:cx="7.7212445"
     inkscape:cy="7.6649415"
     inkscape:document-units="px"
     inkscape:current-layer="layer1"
     showgrid="true"
     fit-margin-top="0"
     fit-margin-left="0"
     fit-margin-right="0"
     fit-margin-bottom="0"
     inkscape:window-width="1407"
     inkscape:window-height="1053"
     inkscape:window-x="511"
     inkscape:window-y="0"
     inkscape:window-maximized="0"
     inkscape:showpageshadow="false"
     borderlayer="true"
     inkscape:snap-bbox="true"
     inkscape:snap-global="true">
    <inkscape:grid
       type="xygrid"
       id="grid4085" />
    <sodipodi:guide
       position="2,15"
       orientation="12,0"
       id="guide4075" />
    <sodipodi:guide
       position="17,2"
       orientation="0,12"
       id="guide4077" />
    <sodipodi:guide
       position="14,13"
       orientation="-12,0"
       id="guide4079" />
    <sodipodi:guide
       position="0,14"
       orientation="0,-12"
       id="guide4081" />
  </sodipodi:namedview>
  <metadata
     id="metadata3054">
    <rdf:RDF>
      <cc:Work
         rdf:about="">
        <dc:format>image/svg+xml</dc:format>
        <dc:type
           rdf:resource="http://purl.org/dc/dcmitype/StillImage" />
        <dc:title></dc:title>
      </cc:Work>
    </rdf:RDF>
  </metadata>
  <g
     inkscape:label="Capa 1"
     inkscape:groupmode="layer"
     id="layer1"
     transform="translate(-421.71429,-531.79074)">
    <path
       style="fill:#373737;fill-opacity:1;stroke:none"
       d="M 2.375 2 C 2.24647 2 2.12349 2.01355 2 2.03125 L 2 3 C 2.5522847 3 3 3.4477153 3 4 L 3 12 C 3 12.552285 2.5522847 13 2 13 L 2 13.96875 C 2.12349 13.98675 2.24647 14 2.375 14 L 3.5 14 L 6.5 14 L 10.25 14 C 12.3275 14 14 12.3275 14 10.25 C 14 8.59629 12.9177 7.21992 11.4375 6.71875 C 12.07059 6.24035 12.5 5.4832 12.5 4.625 C 12.5 3.17075 11.32925 2 9.875 2 L 6.5 2 L 3.5 2 L 2.375 2 z M 6 3 L 9 3 C 9.5522847 3 10 3.8954305 10 5 C 10 6.1045695 9.5522847 7 9 7 L 6 7 L 6 3 z M 6 8 L 6.5 8 L 8.75 8 L 9 8 C 9.0534726 8 9.1038355 8.0261011 9.15625 8.03125 C 10.186547 8.132461 11 9.1861289 11 10.5 C 11 11.880712 10.104569 13 9 13 L 6 13 L 6 8 z "
       transform="translate(421.71429,531.79074)"
       id="rect4164" />
  </g>
</svg>
