<?xml version="1.0" encoding="UTF-8" standalone="no"?>
<svg
   viewBox="0 0 16 16"
   version="1.1"
   id="svg6"
   sodipodi:docname="16_light_format-text-direction-horizontal.svg"
   inkscape:version="1.2.2 (b0a8486541, 2022-12-01)"
   xmlns:inkscape="http://www.inkscape.org/namespaces/inkscape"
   xmlns:sodipodi="http://sodipodi.sourceforge.net/DTD/sodipodi-0.dtd"
   xmlns="http://www.w3.org/2000/svg"
   xmlns:svg="http://www.w3.org/2000/svg">
  <sodipodi:namedview
     id="namedview8"
     pagecolor="#ffffff"
     bordercolor="#666666"
     borderopacity="1.0"
     inkscape:showpageshadow="2"
     inkscape:pageopacity="0.0"
     inkscape:pagecheckerboard="0"
     inkscape:deskcolor="#d1d1d1"
     showgrid="false"
     inkscape:zoom="14.75"
     inkscape:cx="7.4915254"
     inkscape:cy="8"
     inkscape:window-width="1920"
     inkscape:window-height="1010"
     inkscape:window-x="0"
     inkscape:window-y="0"
     inkscape:window-maximized="1"
     inkscape:current-layer="svg6" />
  <defs
     id="defs3051">
    <style
       type="text/css"
       id="current-color-scheme">
      .ColorScheme-Text {
        color:#232629;
      }
      </style>
  </defs>
  <path
     style="fill:#d2d2d2;fill-opacity:1;stroke:none"
     d="M 4.6875 3 L 2 10 L 2.84375 10 L 3.6875 7.78125 L 6.46875 7.78125 L 7.28125 10 L 8.125 10 L 5.53125 3 L 4.6875 3 z M 7 3 L 7 4 L 11 4 L 11 3 L 7 3 z M 12 3 L 12 7 L 14 5 L 12 3 z M 5.09375 3.84375 C 5.16302 4.08307 5.52308 5.16349 6.1875 7.09375 L 3.9375 7.09375 L 5.09375 3.84375 z M 8 6 L 8 7 L 11 7 L 11 6 L 8 6 z M 9 9 L 9 10 L 11 10 L 11 9 L 9 9 z M 12 9 L 12 13 L 14 11 L 12 9 z M 2 12 L 2 13 L 11 13 L 11 12 L 2 12 z "
     class="ColorScheme-Text"
     id="path4" />
</svg>
