<?xml version="1.0" encoding="UTF-8" standalone="no"?>
<!-- Created with Inkscape (http://www.inkscape.org/) -->

<svg
   xmlns:dc="http://purl.org/dc/elements/1.1/"
   xmlns:cc="http://creativecommons.org/ns#"
   xmlns:rdf="http://www.w3.org/1999/02/22-rdf-syntax-ns#"
   xmlns:svg="http://www.w3.org/2000/svg"
   xmlns="http://www.w3.org/2000/svg"
   xmlns:sodipodi="http://sodipodi.sourceforge.net/DTD/sodipodi-0.dtd"
   xmlns:inkscape="http://www.inkscape.org/namespaces/inkscape"
   width="22"
   height="22"
   id="svg4355"
   version="1.1"
   inkscape:version="0.91 r13725"
   sodipodi:docname="draw-freehand.svg">
  <defs
     id="defs4357" />
  <sodipodi:namedview
     id="base"
     pagecolor="#ffffff"
     bordercolor="#666666"
     borderopacity="1.0"
     inkscape:pageopacity="0.0"
     inkscape:pageshadow="2"
     inkscape:zoom="16.556338"
     inkscape:cx="-1.3362846"
     inkscape:cy="10.936514"
     inkscape:document-units="px"
     inkscape:current-layer="layer1"
     showgrid="true"
     width="0px"
     height="0px"
     fit-margin-top="0"
     fit-margin-left="0"
     fit-margin-right="0"
     fit-margin-bottom="0"
     inkscape:window-width="1920"
     inkscape:window-height="1021"
     inkscape:window-x="-4"
     inkscape:window-y="0"
     inkscape:window-maximized="1"
     inkscape:showpageshadow="false"
     inkscape:snap-bbox="true"
     inkscape:object-nodes="true">
    <inkscape:grid
       type="xygrid"
       id="grid4114" />
    <sodipodi:guide
       position="2.0000011,19.999996"
       orientation="18,0"
       id="guide4120" />
    <sodipodi:guide
       position="2.0000011,1.9999962"
       orientation="0,18"
       id="guide4122" />
    <sodipodi:guide
       position="20.000001,1.9999962"
       orientation="-18,0"
       id="guide4124" />
    <sodipodi:guide
       position="20.000001,19.999996"
       orientation="0,-18"
       id="guide4126" />
    <sodipodi:guide
       position="3.0000011,18.999996"
       orientation="16,0"
       id="guide4128" />
    <sodipodi:guide
       position="3.0000011,2.9999962"
       orientation="0,16"
       id="guide4130" />
    <sodipodi:guide
       position="19.000001,2.9999962"
       orientation="-16,0"
       id="guide4132" />
    <sodipodi:guide
       position="19.000001,18.999996"
       orientation="0,-16"
       id="guide4134" />
  </sodipodi:namedview>
  <metadata
     id="metadata4360">
    <rdf:RDF>
      <cc:Work
         rdf:about="">
        <dc:format>image/svg+xml</dc:format>
        <dc:type
           rdf:resource="http://purl.org/dc/dcmitype/StillImage" />
        <dc:title />
      </cc:Work>
    </rdf:RDF>
  </metadata>
  <g
     inkscape:label="Capa 1"
     inkscape:groupmode="layer"
     id="layer1"
     transform="translate(-544.57141,-742.93359)">
    <path
       inkscape:connector-curvature="0"
       style="fill:#4d4d4d;fill-opacity:1;stroke:none"
       d="m 556.57254,745.93345 -7.34308,7.3125 -1.40613,1.4375 -0.24997,0.25 0,4 0.99991,0 1.99981,0 0.99991,0 0.24998,-0.25 0.37497,-0.3437 0.68743,-0.7188 0.37497,-0.3437 6.31193,-6.3438 0.99991,-1 -3.99964,-4 z m -0.5937,2 2.59352,2.5938 -4.28086,4.25 -2.56227,-2.5938 4.24961,-4.25 z m -4.9683,4.9688 2.59352,2.5937 -0.71869,0.7188 -2.59351,-2.5938 0.28122,-0.2812 0.43746,-0.4375 z m -1.40612,1.4062 2.59352,2.5938 -0.71869,0.7187 -2.59351,-2.5937 0.71868,-0.7188 z"
       id="rect4112" />
    <path
       style="color:#000000;font-style:normal;font-variant:normal;font-weight:normal;font-stretch:normal;font-size:medium;line-height:normal;font-family:Sans;-inkscape-font-specification:Sans;text-indent:0;text-align:start;text-decoration:none;text-decoration-line:none;letter-spacing:normal;word-spacing:normal;text-transform:none;direction:ltr;block-progression:tb;writing-mode:lr-tb;baseline-shift:baseline;text-anchor:start;display:inline;overflow:visible;visibility:visible;fill:#4d4d4d;fill-opacity:1;stroke:none;stroke-width:1px;marker:none;enable-background:accumulate"
       d="m 561.07018,756.93345 c -0.26166,10e-4 -0.9543,0.046 -2.06232,0.5625 -0.34638,0.1616 -0.63556,0.3445 -1.03115,0.5625 -0.21118,0.1164 -0.96812,0.4943 -1.24989,0.625 -0.82567,0.3832 -1.09988,0.4799 -1.81233,0.75 -0.68951,0.2615 -1.43298,0.4987 -1.93733,0.6875 -2.1229,0.7948 -5.40576,0.8125 -5.40576,0.8125 l 0,1 c 0,0 3.32689,0.032 5.74948,-0.875 0.32135,-0.1203 0.88135,-0.3176 1.40612,-0.5 0.80702,-0.29436 1.67898,-0.65674 2.40603,-0.96875 0.30465,-0.1414 1.01275,-0.49105 1.31238,-0.65625 0.44021,-0.2426 0.73373,-0.42175 0.96867,-0.53125 0.51337,-0.3024 1.08325,-0.48235 1.6561,-0.46875 -0.0448,2e-4 0.17375,0.01 0.37496,0.0937 0.20121,0.084 0.42473,0.2336 0.5937,0.375 0.32732,0.3319 0.46457,0.58515 0.5312,1.03125 -0.0257,0.682 -0.26057,0.89575 -0.74993,1.28125 -0.32384,0.21454 -0.77967,0.2536 -1.24794,0.22266 l 0,0.96875 c 0.78372,0.002 1.41089,-0.15435 1.77914,-0.34766 0.83671,-0.4772 1.24786,-1.33645 1.21864,-2.15625 -0.005,-0.2879 -0.0772,-0.52505 -0.21873,-0.84375 -0.14158,-0.3186 -0.34397,-0.6761 -0.65619,-0.9375 -0.48186,-0.4232 -0.72351,-0.6094 -1.62485,-0.6875 z"
       id="path3826"
       inkscape:connector-curvature="0"
       sodipodi:nodetypes="ccccccccccccccscccccccccc" />
  </g>
</svg>
