<?xml version="1.0" encoding="UTF-8" standalone="no"?>
<!-- Created with Inkscape (http://www.inkscape.org/) -->

<svg
   xmlns:dc="http://purl.org/dc/elements/1.1/"
   xmlns:cc="http://creativecommons.org/ns#"
   xmlns:rdf="http://www.w3.org/1999/02/22-rdf-syntax-ns#"
   xmlns:svg="http://www.w3.org/2000/svg"
   xmlns="http://www.w3.org/2000/svg"
   xmlns:sodipodi="http://sodipodi.sourceforge.net/DTD/sodipodi-0.dtd"
   xmlns:inkscape="http://www.inkscape.org/namespaces/inkscape"
   width="22"
   height="22"
   id="svg3869"
   version="1.1"
   inkscape:version="0.91 r13725"
   sodipodi:docname="application-x-wmf.svg">
  <defs
     id="defs3871" />
  <sodipodi:namedview
     id="base"
     pagecolor="#ffffff"
     bordercolor="#666666"
     borderopacity="1.0"
     inkscape:pageopacity="0.0"
     inkscape:pageshadow="2"
     inkscape:zoom="31.999999"
     inkscape:cx="8.6775876"
     inkscape:cy="13.425096"
     inkscape:document-units="px"
     inkscape:current-layer="layer1"
     showgrid="true"
     fit-margin-top="0"
     fit-margin-left="0"
     fit-margin-right="0"
     fit-margin-bottom="0"
     inkscape:window-width="1920"
     inkscape:window-height="1021"
     inkscape:window-x="-4"
     inkscape:window-y="0"
     inkscape:window-maximized="1"
     inkscape:showpageshadow="false"
     inkscape:snap-bbox="true"
     inkscape:object-nodes="true"
     inkscape:snap-global="true">
    <inkscape:grid
       type="xygrid"
       id="grid4132" />
    <sodipodi:guide
       position="2,20.000017"
       orientation="18,0"
       id="guide4138" />
    <sodipodi:guide
       position="2,2.0000174"
       orientation="0,18"
       id="guide4140" />
    <sodipodi:guide
       position="20,2.0000174"
       orientation="-18,0"
       id="guide4142" />
    <sodipodi:guide
       position="13,20"
       orientation="0,-18"
       id="guide4144" />
    <sodipodi:guide
       position="3,19.000017"
       orientation="16,0"
       id="guide4146" />
    <sodipodi:guide
       position="3,3.0000174"
       orientation="0,16"
       id="guide4148" />
    <sodipodi:guide
       position="19,3.0000174"
       orientation="-16,0"
       id="guide4150" />
    <sodipodi:guide
       position="24.562501,19.000001"
       orientation="0,-16"
       id="guide4152" />
  </sodipodi:namedview>
  <metadata
     id="metadata3874">
    <rdf:RDF>
      <cc:Work
         rdf:about="">
        <dc:format>image/svg+xml</dc:format>
        <dc:type
           rdf:resource="http://purl.org/dc/dcmitype/StillImage" />
        <dc:title></dc:title>
      </cc:Work>
    </rdf:RDF>
  </metadata>
  <g
     inkscape:label="Capa 1"
     inkscape:groupmode="layer"
     id="layer1"
     transform="translate(-326,-534.3622)">
    <rect
       style="fill:#04896a;fill-opacity:1;stroke:none"
       id="rect4035"
       width="0"
       height="14.668059"
       x="273.38181"
       y="518.47876" />
    <rect
       style="fill:#16907d;fill-opacity:1;stroke:none"
       id="rect4035-8"
       width="0"
       height="14.668059"
       x="280.34238"
       y="541.04938" />
    <rect
       style="fill:#6c7a89;fill-opacity:1;stroke:none"
       id="rect4035-0"
       width="0"
       height="14.668059"
       x="282.15567"
       y="539.98865" />
    <path
       style="fill:#22a7f0;fill-opacity:1;stroke:none"
       d="M 5.5 3 A 2.5000005 2.5000005 0 0 0 3 5.5 A 2.5000005 2.5000005 0 0 0 5.5 8 A 2.5000005 2.5000005 0 0 0 6.4082031 7.8242188 C 6.9057571 8.880864 7.1075793 9.9248024 7.0566406 10.976562 C 7.0067785 12.005851 6.7112898 13.053304 6.2363281 14.113281 A 2.5000005 2.5000005 0 0 0 5.5 14 A 2.5000005 2.5000005 0 0 0 3 16.5 A 2.5000005 2.5000005 0 0 0 5.5 19 A 2.5000005 2.5000005 0 0 0 7.4980469 18 L 15 18 L 15 19 L 19 19 L 19 15 L 15 15 L 15 17 L 7.9453125 17 A 2.5000005 2.5000005 0 0 0 8 16.5 A 2.5000005 2.5000005 0 0 0 7.1132812 14.59375 C 7.648962 13.419312 7.9962549 12.23192 8.0546875 11.025391 C 8.1150462 9.7790892 7.8494398 8.5241126 7.2460938 7.2832031 A 2.5000005 2.5000005 0 0 0 7.9453125 6 L 14 6 L 14 8 L 19 8 L 19 3 L 14 3 L 14 5 L 7.9492188 5 A 2.5000005 2.5000005 0 0 0 5.5 3 z M 5.5 4 A 1.5 1.5 0 0 1 7 5.5 A 1.5 1.5 0 0 1 6.7382812 6.3476562 A 1.5 1.5 0 0 1 6.1796875 6.8359375 A 1.5 1.5 0 0 1 5.9296875 6.9355469 A 1.5 1.5 0 0 1 5.5 7 A 1.5 1.5 0 0 1 4 5.5 A 1.5 1.5 0 0 1 5.5 4 z M 15 4 L 18 4 L 18 7 L 15 7 L 15 4 z M 5.5 15 A 1.5 1.5 0 0 1 5.7890625 15.027344 A 1.5 1.5 0 0 1 5.7988281 15.029297 A 1.5 1.5 0 0 1 5.9335938 15.064453 A 1.5 1.5 0 0 1 6.0234375 15.097656 A 1.5 1.5 0 0 1 6.0761719 15.115234 A 1.5 1.5 0 0 1 6.0839844 15.119141 A 1.5 1.5 0 0 1 6.2109375 15.179688 A 1.5 1.5 0 0 1 6.21875 15.183594 A 1.5 1.5 0 0 1 6.4589844 15.347656 A 1.5 1.5 0 0 1 6.4667969 15.353516 A 1.5 1.5 0 0 1 6.5683594 15.449219 A 1.5 1.5 0 0 1 6.6484375 15.537109 L 6.6484375 15.539062 A 1.5 1.5 0 0 1 7 16.5 A 1.5 1.5 0 0 1 5.5 18 A 1.5 1.5 0 0 1 4 16.5 A 1.5 1.5 0 0 1 5.5 15 z M 16 16 L 18 16 L 18 18 L 16 18 L 16 16 z "
       transform="translate(326,534.3622)"
       id="path4733" />
  </g>
</svg>
