<?xml version="1.0" encoding="UTF-8" standalone="no"?>
<svg
   viewBox="0 0 22 22"
   version="1.1"
   id="svg6"
   sodipodi:docname="22_light]_format-text-direction-horizontal-tb.svg"
   inkscape:version="1.1.2 (0a00cf5339, 2022-02-04)"
   xmlns:inkscape="http://www.inkscape.org/namespaces/inkscape"
   xmlns:sodipodi="http://sodipodi.sourceforge.net/DTD/sodipodi-0.dtd"
   xmlns="http://www.w3.org/2000/svg"
   xmlns:svg="http://www.w3.org/2000/svg">
  <sodipodi:namedview
     id="namedview8"
     pagecolor="#ffffff"
     bordercolor="#666666"
     borderopacity="1.0"
     inkscape:pageshadow="2"
     inkscape:pageopacity="0.0"
     inkscape:pagecheckerboard="0"
     showgrid="false"
     inkscape:zoom="28.545455"
     inkscape:cx="10.982484"
     inkscape:cy="11"
     inkscape:window-width="1920"
     inkscape:window-height="1013"
     inkscape:window-x="0"
     inkscape:window-y="0"
     inkscape:window-maximized="1"
     inkscape:current-layer="svg6" />
  <defs
     id="defs3051">
    <style
       type="text/css"
       id="current-color-scheme">
      .ColorScheme-Text {
        color:#232629;
      }
      </style>
  </defs>
  <path
     style="fill:#d2d2d2;fill-opacity:1;stroke:none"
     d="M 6.9433594 3 L 3 9.828125 L 3 10 L 4.0566406 10 L 5.2109375 8 L 9.7890625 8 L 10.943359 10 L 12 10 L 12 9.828125 L 8.0566406 3 L 8 3 L 6.9433594 3 z M 11 3 L 11 4 L 16 4 L 16 3 L 11 3 z M 17 3 L 17 7 L 19 5 L 17 3 z M 7.5 4.0371094 L 9.2109375 7 L 5.7890625 7 L 7.5 4.0371094 z M 12 6 L 12 7 L 16 7 L 16 6 L 12 6 z M 13 9 L 13 10 L 16 10 L 16 9 L 13 9 z M 17 9 L 17 13 L 19 11 L 17 9 z M 3 12 L 3 13 L 16 13 L 16 12 L 3 12 z M 3 15 L 3 16 L 16 16 L 16 15 L 3 15 z M 17 15 L 17 19 L 19 17 L 17 15 z M 3 18 L 3 19 L 16 19 L 16 18 L 3 18 z "
     class="ColorScheme-Text"
     id="path4" />
</svg>
