<?xml version="1.0" encoding="UTF-8" standalone="no"?>
<svg
   viewBox="0 0 22 22"
   version="1.1"
   id="svg6"
   sodipodi:docname="22_light_format-text-direction-vertical-rl.svg"
   inkscape:version="1.1.2 (0a00cf5339, 2022-02-04)"
   xmlns:inkscape="http://www.inkscape.org/namespaces/inkscape"
   xmlns:sodipodi="http://sodipodi.sourceforge.net/DTD/sodipodi-0.dtd"
   xmlns="http://www.w3.org/2000/svg"
   xmlns:svg="http://www.w3.org/2000/svg">
  <sodipodi:namedview
     id="namedview8"
     pagecolor="#ffffff"
     bordercolor="#666666"
     borderopacity="1.0"
     inkscape:pageshadow="2"
     inkscape:pageopacity="0.0"
     inkscape:pagecheckerboard="0"
     showgrid="false"
     inkscape:zoom="28.545455"
     inkscape:cx="10.982484"
     inkscape:cy="11"
     inkscape:window-width="1920"
     inkscape:window-height="1013"
     inkscape:window-x="0"
     inkscape:window-y="0"
     inkscape:window-maximized="1"
     inkscape:current-layer="svg6" />
  <defs
     id="defs3051">
    <style
       type="text/css"
       id="current-color-scheme">
      .ColorScheme-Text {
        color:#232629;
      }
      </style>
  </defs>
  <path
     style="fill:#d2d2d2;fill-opacity:1;stroke:none"
     d="M 15.056641,3 19,9.828125 V 10 H 17.943359 L 16.789062,8 h -4.578124 l -1.154297,2 H 10 V 9.828125 L 13.943359,3 H 14 Z M 7,3 V 16 H 6 V 3 Z M 4,3 V 16 H 3 V 3 Z M 14.5,4.0371094 12.789063,7 h 3.421874 z M 19,11 v 5 h -1 v -5 z m -3,0 v 5 h -1 v -5 z m -3,0 v 5 h -1 v -5 z m -3,0 v 5 H 9 v -5 z m 9,6 -2,2 -2,-2 z m -6,0 -2,2 -2,-2 z M 7,17 5,19 3,17 Z"
     class="ColorScheme-Text"
     id="path4" />
</svg>
