<?xml version="1.0" encoding="UTF-8" standalone="no"?>
<!-- Created with Inkscape (http://www.inkscape.org/) -->

<svg
   xmlns:dc="http://purl.org/dc/elements/1.1/"
   xmlns:cc="http://creativecommons.org/ns#"
   xmlns:rdf="http://www.w3.org/1999/02/22-rdf-syntax-ns#"
   xmlns:svg="http://www.w3.org/2000/svg"
   xmlns="http://www.w3.org/2000/svg"
   xmlns:sodipodi="http://sodipodi.sourceforge.net/DTD/sodipodi-0.dtd"
   xmlns:inkscape="http://www.inkscape.org/namespaces/inkscape"
   width="24"
   height="24"
   id="svg2"
   version="1.1"
   inkscape:version="0.91 r13725"
   viewBox="0 0 24 24"
   sodipodi:docname="draw-freehand.svg">
  <defs
     id="defs4" />
  <sodipodi:namedview
     id="base"
     pagecolor="#ffffff"
     bordercolor="#666666"
     borderopacity="1.0"
     inkscape:pageopacity="0.0"
     inkscape:pageshadow="2"
     inkscape:zoom="33.683996"
     inkscape:cx="8.8351784"
     inkscape:cy="13.354899"
     inkscape:document-units="px"
     inkscape:current-layer="layer1"
     showgrid="true"
     inkscape:showpageshadow="false"
     borderlayer="true"
     inkscape:window-width="1920"
     inkscape:window-height="957"
     inkscape:window-x="-4"
     inkscape:window-y="0"
     inkscape:window-maximized="1"
     units="px"
     fit-margin-top="0"
     fit-margin-left="0"
     fit-margin-right="0"
     fit-margin-bottom="0"
     inkscape:object-nodes="true"
     inkscape:snap-bbox="true">
    <sodipodi:guide
       position="4,20"
       orientation="16,0"
       id="guide4093" />
    <sodipodi:guide
       position="4,4"
       orientation="0,16"
       id="guide4095" />
    <sodipodi:guide
       position="20,4"
       orientation="-16,0"
       id="guide4097" />
    <sodipodi:guide
       position="20,20"
       orientation="0,-16"
       id="guide4099" />
    <inkscape:grid
       type="xygrid"
       id="grid4101"
       originx="1px"
       originy="0.99998262px" />
    <sodipodi:guide
       position="4,20"
       orientation="16,0"
       id="guide4123" />
    <sodipodi:guide
       position="4,4"
       orientation="0,2.000001"
       id="guide4125" />
    <sodipodi:guide
       position="6.000001,20"
       orientation="0,-2.000001"
       id="guide4129" />
    <sodipodi:guide
       position="18,4"
       orientation="0,2"
       id="guide4133" />
    <sodipodi:guide
       position="20,4"
       orientation="-16,0"
       id="guide4135" />
    <sodipodi:guide
       position="20,20"
       orientation="0,-2"
       id="guide4137" />
  </sodipodi:namedview>
  <metadata
     id="metadata7">
    <rdf:RDF>
      <cc:Work
         rdf:about="">
        <dc:format>image/svg+xml</dc:format>
        <dc:type
           rdf:resource="http://purl.org/dc/dcmitype/StillImage" />
        <dc:title></dc:title>
      </cc:Work>
    </rdf:RDF>
  </metadata>
  <g
     inkscape:label="Capa 1"
     inkscape:groupmode="layer"
     id="layer1"
     transform="translate(1,-1029.3622)">
    <path
       inkscape:connector-curvature="0"
       style="fill:#373737;fill-opacity:1;stroke:none"
       d="m 12.00114,1033.3621 -7.34308,7.3125 -1.40613,1.4375 -0.24997,0.25 0,4 0.99991,0 1.99981,0 0.99991,0 0.24998,-0.25 0.37497,-0.3437 0.68743,-0.7188 0.37497,-0.3437 6.31193,-6.3438 0.99991,-1 -3.99964,-4 z m -0.5937,2 2.59352,2.5938 -4.28086,4.25 -2.56227,-2.5938 4.24961,-4.25 z m -4.9683,4.9688 2.59352,2.5937 -0.71869,0.7188 -2.59351,-2.5938 0.28122,-0.2812 0.43746,-0.4375 z m -1.40612,1.4062 2.59352,2.5938 -0.71869,0.7187 -2.59351,-2.5937 0.71868,-0.7188 z"
       id="rect4112" />
    <path
       style="color:#000000;font-style:normal;font-variant:normal;font-weight:normal;font-stretch:normal;font-size:medium;line-height:normal;font-family:Sans;-inkscape-font-specification:Sans;text-indent:0;text-align:start;text-decoration:none;text-decoration-line:none;letter-spacing:normal;word-spacing:normal;text-transform:none;direction:ltr;block-progression:tb;writing-mode:lr-tb;baseline-shift:baseline;text-anchor:start;display:inline;overflow:visible;visibility:visible;fill:#373737;fill-opacity:1;stroke:none;stroke-width:1px;marker:none;enable-background:accumulate"
       d="m 16.49878,1044.3621 c -0.26166,10e-4 -0.9543,0.046 -2.06232,0.5625 -0.34638,0.1616 -0.63556,0.3445 -1.03115,0.5625 -0.21118,0.1164 -0.96812,0.4943 -1.24989,0.625 -0.82567,0.3832 -1.09988,0.4799 -1.81233,0.75 -0.68951,0.2615 -1.43298,0.4987 -1.93733,0.6875 C 6.28286,1048.3444 3,1048.3621 3,1048.3621 l 0,1 c 0,0 3.32689,0.032 5.74948,-0.875 0.32135,-0.1203 0.88135,-0.3176 1.40612,-0.5 0.80702,-0.2944 1.67898,-0.6567 2.40603,-0.9687 0.30465,-0.1414 1.01275,-0.4911 1.31238,-0.6563 0.44021,-0.2426 0.73373,-0.4217 0.96867,-0.5312 0.51337,-0.3024 1.08325,-0.4824 1.6561,-0.4688 -0.0448,2e-4 0.17375,0.01 0.37496,0.094 0.20121,0.084 0.42473,0.2336 0.5937,0.375 0.32732,0.3319 0.46457,0.5852 0.5312,1.0313 -0.0257,0.682 -0.26057,0.8957 -0.74993,1.2812 -0.32384,0.2145 -0.77967,0.2536 -1.24794,0.2227 l 0,0.9687 c 0.78372,0 1.41089,-0.1543 1.77914,-0.3476 0.83671,-0.4772 1.24786,-1.3365 1.21864,-2.1563 -0.005,-0.2879 -0.0772,-0.525 -0.21873,-0.8437 -0.14158,-0.3186 -0.34397,-0.6761 -0.65619,-0.9375 -0.48186,-0.4232 -0.72351,-0.6094 -1.62485,-0.6875 z"
       id="path3826"
       inkscape:connector-curvature="0"
       sodipodi:nodetypes="ccccccccccccccscccccccccc" />
  </g>
</svg>
