<?xml version="1.0" encoding="UTF-8" standalone="no"?>
<!-- Created with Inkscape (http://www.inkscape.org/) -->

<svg
   xmlns:dc="http://purl.org/dc/elements/1.1/"
   xmlns:cc="http://creativecommons.org/ns#"
   xmlns:rdf="http://www.w3.org/1999/02/22-rdf-syntax-ns#"
   xmlns:svg="http://www.w3.org/2000/svg"
   xmlns="http://www.w3.org/2000/svg"
   xmlns:xlink="http://www.w3.org/1999/xlink"
   xmlns:sodipodi="http://sodipodi.sourceforge.net/DTD/sodipodi-0.dtd"
   xmlns:inkscape="http://www.inkscape.org/namespaces/inkscape"
   width="16"
   height="16"
   id="svg2"
   version="1.1"
   inkscape:version="0.48.4 r9939"
   sodipodi:docname="transform_icons_liquify_rotate_light.svg">
  <defs
     id="defs4" />
  <sodipodi:namedview
     id="base"
     pagecolor="#757575"
     bordercolor="#666666"
     borderopacity="1.0"
     inkscape:pageopacity="0"
     inkscape:pageshadow="2"
     inkscape:zoom="13.830092"
     inkscape:cx="6.3124371"
     inkscape:cy="7.7737906"
     inkscape:document-units="px"
     inkscape:current-layer="svg2"
     showgrid="false"
     showguides="true"
     inkscape:guide-bbox="true"
     inkscape:window-width="501"
     inkscape:window-height="481"
     inkscape:window-x="0"
     inkscape:window-y="59"
     inkscape:window-maximized="0" />
  <metadata
     id="metadata7">
    <rdf:RDF>
      <cc:Work
         rdf:about="">
        <dc:format>image/svg+xml</dc:format>
        <dc:type
           rdf:resource="http://purl.org/dc/dcmitype/StillImage" />
        <dc:title />
      </cc:Work>
    </rdf:RDF>
  </metadata>
  <path
     style="fill:#ffffff;fill-opacity:1;stroke:none"
     d="m 2.4099134,1.2292037 a 0.22293192,0.22293192 0 0 0 -0.09375,0.1875 0.22293192,0.22293192 0 0 0 0,0.03125 0.22293192,0.22293192 0 0 0 0,0.0625 0.22293192,0.22293192 0 0 0 0.03125,0.0625 0.22293192,0.22293192 0 0 0 0.03125,0.03125 l 1.34375,1.34375 -2.09375,2.03125 a 0.22293192,0.22293192 0 0 0 -0.0625,0.125 0.22293192,0.22293192 0 0 0 0,0.03125 0.22293192,0.22293192 0 0 0 0,0.03125 0.22293192,0.22293192 0 0 0 0,0.03125 0.22293192,0.22293192 0 0 0 0.03125,0.0625 0.22293192,0.22293192 0 0 0 0.03125,0.03125 l 1.3125,1.375 a 0.22293192,0.22293192 0 0 0 0.125,0.0625 0.22293192,0.22293192 0 0 0 0.03125,0 0.22293192,0.22293192 0 0 0 0.03125,0 0.22293192,0.22293192 0 0 0 0.125,-0.03125 0.22293192,0.22293192 0 0 0 0.03125,-0.03125 l 2.0625,-2.09375 1.34375,1.34375 a 0.22293192,0.22293192 0 0 0 0.03125,0.03125 0.22293192,0.22293192 0 0 0 0.0625,0.03125 0.22293192,0.22293192 0 0 0 0.03125,0 0.22293192,0.22293192 0 0 0 0.0625,0 0.22293192,0.22293192 0 0 0 0.0625,-0.03125 0.22293192,0.22293192 0 0 0 0.03125,-0.03125 0.22293192,0.22293192 0 0 0 0.0625,-0.0625 0.22293192,0.22293192 0 0 0 0.03125,-0.0625 0.22293192,0.22293192 0 0 0 0,-0.03125 l 0,-4.3125 a 0.22293192,0.22293192 0 0 0 0,-0.03125 0.22293192,0.22293192 0 0 0 0,-0.03125 0.22293192,0.22293192 0 0 0 -0.03125,-0.0625 0.22293192,0.22293192 0 0 0 -0.03125,-0.03125 0.22293192,0.22293192 0 0 0 -0.03125,-0.03125 0.22293192,0.22293192 0 0 0 -0.0625,-0.03125 0.22293192,0.22293192 0 0 0 -0.03125,0 0.22293192,0.22293192 0 0 0 -0.03125,0 l -4.3125,0 a 0.22293192,0.22293192 0 0 0 -0.03125,0 0.22293192,0.22293192 0 0 0 -0.03125,0 0.22293192,0.22293192 0 0 0 -0.03125,0 0.22293192,0.22293192 0 0 0 -0.03125,0 z m 9.0937496,0 a 0.22293192,0.22293192 0 0 0 0,0.03125 0.22293192,0.22293192 0 0 0 -0.03125,0.03125 l -1.34375,1.34375 a 0.22293192,0.22293192 0 0 0 -0.03125,0.0625 0.22293192,0.22293192 0 0 0 -0.03125,0.09375 0.22293192,0.22293192 0 0 0 0,0.03125 0.22293192,0.22293192 0 0 0 0.03125,0.0625 0.22293192,0.22293192 0 0 0 0.03125,0.0625 l 2.09375,2.0625 -1.34375,1.34375 a 0.22293192,0.22293192 0 0 0 -0.03125,0.03125 0.22293192,0.22293192 0 0 0 -0.03125,0.0625 0.22293192,0.22293192 0 0 0 0,0.03125 0.22293192,0.22293192 0 0 0 0,0.0625 0.22293192,0.22293192 0 0 0 0.03125,0.0625 0.22293192,0.22293192 0 0 0 0.1875,0.125 l 4.3125,0 a 0.22293192,0.22293192 0 0 0 0.03125,0 0.22293192,0.22293192 0 0 0 0.0625,-0.03125 0.22293192,0.22293192 0 0 0 0.125,-0.125 0.22293192,0.22293192 0 0 0 0,-0.03125 0.22293192,0.22293192 0 0 0 0,-0.03125 l 0,-4.3125 a 0.22293192,0.22293192 0 0 0 0,-0.03125 0.22293192,0.22293192 0 0 0 -0.03125,-0.0625 0.22293192,0.22293192 0 0 0 -0.03125,-0.0625 0.22293192,0.22293192 0 0 0 -0.03125,-0.03125 0.22293192,0.22293192 0 0 0 -0.0625,-0.03125 0.22293192,0.22293192 0 0 0 -0.03125,0 0.22293192,0.22293192 0 0 0 -0.03125,0 0.22293192,0.22293192 0 0 0 -0.03125,0 0.22293192,0.22293192 0 0 0 -0.03125,0 0.22293192,0.22293192 0 0 0 -0.0625,0.03125 0.22293192,0.22293192 0 0 0 -0.03125,0.03125 l -1.34375,1.34375 -2.0625,-2.09375 a 0.22293192,0.22293192 0 0 0 -0.03125,-0.03125 0.22293192,0.22293192 0 0 0 -0.0625,-0.03125 0.22293192,0.22293192 0 0 0 -0.03125,0 0.22293192,0.22293192 0 0 0 -0.03125,0 0.22293192,0.22293192 0 0 0 -0.03125,0 0.22293192,0.22293192 0 0 0 -0.0625,0 0.22293192,0.22293192 0 0 0 -0.03125,0 z m -8.4374996,0.4375 3.5625,0 0,3.5625 -1.125,-1.125 a 0.22293192,0.22293192 0 0 0 -0.125,-0.0625 0.22293192,0.22293192 0 0 0 -0.03125,0 0.22293192,0.22293192 0 0 0 -0.03125,0 0.22293192,0.22293192 0 0 0 -0.03125,0 0.22293192,0.22293192 0 0 0 -0.0625,0.03125 0.22293192,0.22293192 0 0 0 -0.03125,0.03125 l -2.0625,2.0625 -1.03125,-1.03125 2.09375,-2.03125 a 0.22293192,0.22293192 0 0 0 0.0625,-0.125 0.22293192,0.22293192 0 0 0 0,-0.03125 0.22293192,0.22293192 0 0 0 0,-0.03125 0.22293192,0.22293192 0 0 0 -0.03125,-0.0625 0.22293192,0.22293192 0 0 0 0,-0.03125 0.22293192,0.22293192 0 0 0 -0.03125,-0.03125 l -1.125,-1.125 z m 8.5624996,0.09375 2.0625,2.09375 a 0.22293192,0.22293192 0 0 0 0.0625,0.03125 0.22293192,0.22293192 0 0 0 0.09375,0.03125 0.22293192,0.22293192 0 0 0 0.03125,0 0.22293192,0.22293192 0 0 0 0.09375,-0.03125 0.22293192,0.22293192 0 0 0 0.03125,-0.03125 l 1.125,-1.125 0,3.5625 -3.5625,0 1.125,-1.125 a 0.22293192,0.22293192 0 0 0 0.03125,-0.0625 0.22293192,0.22293192 0 0 0 0.03125,-0.0625 0.22293192,0.22293192 0 0 0 0,-0.03125 0.22293192,0.22293192 0 0 0 0,-0.03125 0.22293192,0.22293192 0 0 0 -0.03125,-0.0625 0.22293192,0.22293192 0 0 0 -0.03125,-0.0625 l -2.09375,-2.0625 1.03125,-1.03125 z m -3.2499996,2.40625 c 0,0 -2.21875,2.7855714 -2.21875,4.5625 0,0.4583176 0.047599,0.84072 0.15625,1.15625 0.3125958,0.9078033 1.0738014,1.2493563 2.0625,1.2812503 0.6661732,0.02149 1.256651,-0.134992 1.6874996,-0.531251 a 0.22293192,0.22293192 0 0 0 0,0.0625 l 0,4.3125 a 0.22293192,0.22293192 0 0 0 0,0.03125 0.22293192,0.22293192 0 0 0 0.03125,0.0625 0.22293192,0.22293192 0 0 0 0.125,0.125 0.22293192,0.22293192 0 0 0 0.03125,0 0.22293192,0.22293192 0 0 0 0.03125,0 l 4.3125,0 a 0.22293192,0.22293192 0 0 0 0.03125,0 0.22293192,0.22293192 0 0 0 0.0625,-0.03125 0.22293192,0.22293192 0 0 0 0.0625,-0.03125 0.22293192,0.22293192 0 0 0 0.03125,-0.03125 0.22293192,0.22293192 0 0 0 0.03125,-0.0625 0.22293192,0.22293192 0 0 0 0,-0.03125 0.22293192,0.22293192 0 0 0 0,-0.03125 0.22293192,0.22293192 0 0 0 0,-0.03125 0.22293192,0.22293192 0 0 0 0,-0.03125 0.22293192,0.22293192 0 0 0 -0.03125,-0.0625 0.22293192,0.22293192 0 0 0 -0.03125,-0.03125 l -1.34375,-1.34375 2.09375,-2.03125 a 0.22293192,0.22293192 0 0 0 0.03125,-0.0625 0.22293192,0.22293192 0 0 0 0.03125,-0.09375 0.22293192,0.22293192 0 0 0 0,-0.03125 0.22293192,0.22293192 0 0 0 0,-0.03125 0.22293192,0.22293192 0 0 0 -0.03125,-0.0625 0.22293192,0.22293192 0 0 0 -0.03125,-0.03125 l -1.3125,-1.3749995 a 0.22293192,0.22293192 0 0 0 -0.03125,-0.03125 0.22293192,0.22293192 0 0 0 -0.0625,-0.03125 0.22293192,0.22293192 0 0 0 -0.03125,0 0.22293192,0.22293192 0 0 0 -0.03125,0 0.22293192,0.22293192 0 0 0 -0.03125,0 0.22293192,0.22293192 0 0 0 -0.0625,0 0.22293192,0.22293192 0 0 0 -0.0625,0.03125 0.22293192,0.22293192 0 0 0 -0.03125,0.03125 l -2.0625,2.0937505 -1.34375,-1.343751 a 0.22293192,0.22293192 0 0 0 -0.03125,-0.03125 0.22293192,0.22293192 0 0 0 -0.0625,-0.03125 0.22293192,0.22293192 0 0 0 -0.03125,0 0.22293192,0.22293192 0 0 0 -0.0625,0 0.22293192,0.22293192 0 0 0 -0.03125,0 c 0.338803,-0.397055 0.549786,-0.9714933 0.53125,-1.7499993 -0.04231,-1.7769286 -2.3749996,-4.5625 -2.3749996,-4.5625 z m -2.0625,5.71875 a 0.22293192,0.22293192 0 0 0 -0.03125,-0.03125 0.22293192,0.22293192 0 0 0 -0.03125,-0.0625 0.22293192,0.22293192 0 0 0 -0.03125,-0.03125 0.22293192,0.22293192 0 0 0 -0.0625,-0.03125 0.22293192,0.22293192 0 0 0 -0.03125,0 0.22293192,0.22293192 0 0 0 -0.03125,0 l -4.3125,0 a 0.22293192,0.22293192 0 0 0 -0.03125,0 0.22293192,0.22293192 0 0 0 -0.03125,0 0.22293192,0.22293192 0 0 0 -0.03125,0 0.22293192,0.22293192 0 0 0 -0.125,0.1875 0.22293192,0.22293192 0 0 0 0,0.03125 l 0,4.3125003 a 0.22293192,0.22293192 0 0 0 0,0.03125 0.22293192,0.22293192 0 0 0 0.03125,0.0625 0.22293192,0.22293192 0 0 0 0.1875,0.125 0.22293192,0.22293192 0 0 0 0.03125,0 0.22293192,0.22293192 0 0 0 0.03125,0 0.22293192,0.22293192 0 0 0 0.0625,-0.03125 0.22293192,0.22293192 0 0 0 0.03125,-0.03125 l 1.34375,-1.34375 2.0625,2.09375 a 0.22293192,0.22293192 0 0 0 0.125,0.0625 0.22293192,0.22293192 0 0 0 0.03125,0 0.22293192,0.22293192 0 0 0 0.03125,0 0.22293192,0.22293192 0 0 0 0.09375,-0.03125 0.22293192,0.22293192 0 0 0 0.03125,-0.03125 l 1.34375,-1.375 a 0.22293192,0.22293192 0 0 0 0.03125,-0.03125 0.22293192,0.22293192 0 0 0 0.03125,-0.0625 0.22293192,0.22293192 0 0 0 0,-0.03125 0.22293192,0.22293192 0 0 0 0,-0.0625 0.22293192,0.22293192 0 0 0 -0.03125,-0.0625 0.22293192,0.22293192 0 0 0 -0.03125,-0.0625 l -2.09375,-2.03125 1.34375,-1.34375 a 0.22293192,0.22293192 0 0 0 0.0625,-0.1250003 0.22293192,0.22293192 0 0 0 0,-0.03125 0.22293192,0.22293192 0 0 0 0,-0.03125 0.22293192,0.22293192 0 0 0 0,-0.03125 z m 0.5625,-1.78125 c 0,0 0.054429,1.128735 0.375,1.5625 0.562702,0.7613933 1.15625,0.9374993 1.15625,0.9374993 0,0 -1.3153473,0.12903 -1.625,-0.8124993 -0.3140396,-0.9548665 0.09375,-1.6875 0.09375,-1.6875 z m -4.875,2.0624993 3.5625,0 -1.125,1.125001 a 0.22293192,0.22293192 0 0 0 -0.03125,0.03125 0.22293192,0.22293192 0 0 0 -0.03125,0.0625 0.22293192,0.22293192 0 0 0 0,0.03125 0.22293192,0.22293192 0 0 0 0,0.0625 0.22293192,0.22293192 0 0 0 0.03125,0.0625 0.22293192,0.22293192 0 0 0 0.03125,0.0625 l 2.09375,2.03125 -1.03125,1.0625 -2.0625,-2.09375 a 0.22293192,0.22293192 0 0 0 -0.125,-0.0625 0.22293192,0.22293192 0 0 0 -0.03125,0 0.22293192,0.22293192 0 0 0 -0.03125,0 0.22293192,0.22293192 0 0 0 -0.03125,0 0.22293192,0.22293192 0 0 0 -0.0625,0.03125 0.22293192,0.22293192 0 0 0 -0.03125,0.03125 l -1.125,1.125 0,-3.562501 z m 11.9999996,0.125 1.03125,1.000001 -2.09375,2.0625 a 0.22293192,0.22293192 0 0 0 -0.03125,0.0625 0.22293192,0.22293192 0 0 0 -0.03125,0.09375 0.22293192,0.22293192 0 0 0 0,0.03125 0.22293192,0.22293192 0 0 0 0.03125,0.09375 0.22293192,0.22293192 0 0 0 0.03125,0.03125 l 1.125,1.125 -3.5625,0 0,-3.5625 1.125,1.125 a 0.22293192,0.22293192 0 0 0 0.0625,0.03125 0.22293192,0.22293192 0 0 0 0.0625,0.03125 0.22293192,0.22293192 0 0 0 0.03125,0 0.22293192,0.22293192 0 0 0 0.03125,0 0.22293192,0.22293192 0 0 0 0.0625,-0.03125 0.22293192,0.22293192 0 0 0 0.0625,-0.03125 l 2.0625,-2.062501 z"
     id="path4690"
     inkscape:connector-curvature="0" />
  <g
     inkscape:label="Layer 1"
     inkscape:groupmode="layer"
     id="layer1"
     sodipodi:insensitive="true"
     style="opacity:0.47976882;display:none"
     transform="translate(0,-1036.3622)">
    <image
       y="61.505039"
       x="-574.85712"
       id="image3082"
       xlink:href="file:///mnt/6A0F06C454D4F476/One-offs/MyPaint/scrap009_a.png"
       height="896"
       width="1344" />
  </g>
  <g
     inkscape:groupmode="layer"
     id="layer2"
     inkscape:label="basde"
     transform="translate(0,-1036.3622)" />
  <path
     sodipodi:nodetypes="csssccscsc"
     inkscape:connector-curvature="0"
     id="path3863"
     d="m 7.6751373,3.5774357 c 0,0 -2.2012326,2.7927189 -2.2012326,4.5696475 0,1.7769287 0.8688861,2.4090268 2.2012326,2.4520058 C 9.0074838,10.642069 10.08586,9.9240119 10.043552,8.1470832 10.001243,6.3701546 7.6751373,3.5774357 7.6751373,3.5774357 z M 6.1725458,7.5131349 c 0,0 0.057127,1.139634 0.3776981,1.573399 0.562702,0.761394 1.1645892,0.9449851 1.1645892,0.9449851 0,0 -1.3154567,0.115858 -1.6251094,-0.8256711 -0.3140396,-0.9548665 0.082822,-1.692713 0.082822,-1.692713 z"
     style="fill:#000000;fill-opacity:1;stroke:none" />
  <path
     inkscape:connector-curvature="0"
     id="path3898"
     d="m 6.1408793,0.86668287 0,4.30494233 L 4.6501711,3.680917 2.4141088,5.9239452 1.0905828,4.5655896 3.3266451,2.3573911 1.8359369,0.86668287 l 4.3049424,0 z"
     style="fill:none;stroke:#000000;stroke-width:0.44581926;stroke-linecap:round;stroke-linejoin:round;stroke-miterlimit:4;stroke-opacity:1;stroke-dasharray:none" />
  <path
     inkscape:connector-curvature="0"
     id="use3900"
     d="m 14.644763,5.9239541 0,-4.3049423 -1.490707,1.4907081 -2.236063,-2.24302813 -1.3235258,1.35835553 2.2360628,2.2081986 -1.490709,1.4907082 4.304942,0 z"
     style="fill:none;stroke:#000000;stroke-width:0.44581926;stroke-linecap:round;stroke-linejoin:round;stroke-miterlimit:4;stroke-opacity:1;stroke-dasharray:none" />
  <path
     inkscape:connector-curvature="0"
     id="use3902"
     d="m 1.0905828,9.3705699 0,4.3049421 1.4907082,-1.490708 2.2360623,2.243028 1.323526,-1.358356 -2.2360623,-2.208198 1.4907082,-1.4907081 -4.3049424,0 z"
     style="fill:none;stroke:#000000;stroke-width:0.44581926;stroke-linecap:round;stroke-linejoin:round;stroke-miterlimit:4;stroke-opacity:1;stroke-dasharray:none" />
  <path
     inkscape:connector-curvature="0"
     id="use3904"
     d="m 9.5944672,14.427845 0,-4.304942 1.4907078,1.490709 2.236062,-2.2430291 1.323526,1.3583551 -2.236062,2.208199 1.490709,1.490708 -4.3049428,0 z"
     style="fill:none;stroke:#000000;stroke-width:0.44581926;stroke-linecap:round;stroke-linejoin:round;stroke-miterlimit:4;stroke-opacity:1;stroke-dasharray:none" />
</svg>
