<?xml version="1.0" encoding="UTF-8" standalone="no"?>
<!-- Created with Inkscape (http://www.inkscape.org/) -->

<svg
   xmlns:dc="http://purl.org/dc/elements/1.1/"
   xmlns:cc="http://creativecommons.org/ns#"
   xmlns:rdf="http://www.w3.org/1999/02/22-rdf-syntax-ns#"
   xmlns:svg="http://www.w3.org/2000/svg"
   xmlns="http://www.w3.org/2000/svg"
   xmlns:xlink="http://www.w3.org/1999/xlink"
   xmlns:sodipodi="http://sodipodi.sourceforge.net/DTD/sodipodi-0.dtd"
   xmlns:inkscape="http://www.inkscape.org/namespaces/inkscape"
   width="16"
   height="16"
   id="svg2"
   version="1.1"
   inkscape:version="0.48.4 r9939"
   sodipodi:docname="transform_icons_liquify_move_light.svg">
  <defs
     id="defs4" />
  <sodipodi:namedview
     id="base"
     pagecolor="#8a8a8a"
     bordercolor="#666666"
     borderopacity="1.0"
     inkscape:pageopacity="0"
     inkscape:pageshadow="2"
     inkscape:zoom="14.999478"
     inkscape:cx="8.0002838"
     inkscape:cy="7.9997108"
     inkscape:document-units="px"
     inkscape:current-layer="svg2"
     showgrid="false"
     showguides="true"
     inkscape:guide-bbox="true"
     inkscape:window-width="501"
     inkscape:window-height="481"
     inkscape:window-x="0"
     inkscape:window-y="59"
     inkscape:window-maximized="0" />
  <metadata
     id="metadata7">
    <rdf:RDF>
      <cc:Work
         rdf:about="">
        <dc:format>image/svg+xml</dc:format>
        <dc:type
           rdf:resource="http://purl.org/dc/dcmitype/StillImage" />
        <dc:title />
      </cc:Work>
    </rdf:RDF>
  </metadata>
  <path
     style="fill:#ffffff;fill-opacity:1;stroke:none"
     d="m 8.0749722,0.9999652 a 0.21535987,0.21535987 0 0 0 -0.03125,0.0625 0.21535987,0.21535987 0 0 0 -0.03125,0.03125 0.21535987,0.21535987 0 0 0 -0.03125,0.0625 l -2.09375,2.0625 a 0.21535987,0.21535987 0 0 0 -0.03125,0.03125 0.21535987,0.21535987 0 0 0 -0.03125,0.09375 0.21535987,0.21535987 0 0 0 0,0.03125 0.21535987,0.21535987 0 0 0 0,0.03125 0.21535987,0.21535987 0 0 0 0,0.03125 0.21535987,0.21535987 0 0 0 0.03125,0.0625 0.21535987,0.21535987 0 0 0 0.03125,0.03125 0.21535987,0.21535987 0 0 0 0.0625,0.03125 0.21535987,0.21535987 0 0 0 0.0625,0.03125 0.21535987,0.21535987 0 0 0 0.03125,0 l 1.25,0 0,1.34375 c -0.5618422,0.8747927 -1.1928952,2.0277033 -1.28125,3 l 0,-0.625 a 0.21535987,0.21535987 0 0 0 -0.03125,-0.0625 0.21535987,0.21535987 0 0 0 0,-0.03125 0.21535987,0.21535987 0 0 0 -0.0625,-0.0625 0.21535987,0.21535987 0 0 0 -0.0625,-0.03125 0.21535987,0.21535987 0 0 0 -0.03125,0 0.21535987,0.21535987 0 0 0 -0.03125,0 l -2,0 0,-1.28125 a 0.21535987,0.21535987 0 0 0 -0.03125,-0.0625 0.21535987,0.21535987 0 0 0 -0.03125,-0.0625 0.21535987,0.21535987 0 0 0 -0.03125,-0.03125 0.21535987,0.21535987 0 0 0 -0.09375,-0.03125 0.21535987,0.21535987 0 0 0 -0.0625,-0.03125 0.21535987,0.21535987 0 0 0 -0.0625,0.03125 0.21535987,0.21535987 0 0 0 -0.0625,0.0625 l -2.0625,2.09375 -0.0625,0 a 0.21535987,0.21535987 0 0 0 0,0.03125 0.21535987,0.21535987 0 0 0 -0.03125,0.03125 0.21535987,0.21535987 0 0 0 -0.03125,0.03125 0.21535987,0.21535987 0 0 0 -0.03125,0.0625 0.21535987,0.21535987 0 0 0 0,0.03125 0.21535987,0.21535987 0 0 0 0,0.03125 0.21535987,0.21535987 0 0 0 0,0.03125 0.21535987,0.21535987 0 0 0 0.03125,0.0625 0.21535987,0.21535987 0 0 0 0.03125,0.03125 l 0.03125,0.03125 a 0.21535987,0.21535987 0 0 0 0.03125,0.03125 l 2.09375,2.0937498 a 0.21535987,0.21535987 0 0 0 0.03125,0.03125 0.21535987,0.21535987 0 0 0 0.09375,0.03125 0.21535987,0.21535987 0 0 0 0.03125,0 0.21535987,0.21535987 0 0 0 0.03125,0 0.21535987,0.21535987 0 0 0 0.03125,0 0.21535987,0.21535987 0 0 0 0.0625,-0.03125 0.21535987,0.21535987 0 0 0 0.03125,-0.03125 0.21535987,0.21535987 0 0 0 0.03125,-0.0625 0.21535987,0.21535987 0 0 0 0.03125,-0.0625 0.21535987,0.21535987 0 0 0 0,-0.03125 l 0,-1.2812498 2.03125,0 a 0.21535987,0.21535987 0 0 0 0.03125,0 0.21535987,0.21535987 0 0 0 0.03125,0 0.21535987,0.21535987 0 0 0 0.0625,-0.03125 0.21535987,0.21535987 0 0 0 0.03125,-0.03125 0.21535987,0.21535987 0 0 0 0.03125,-0.09375 0.21535987,0.21535987 0 0 0 0,-0.03125 0.21535987,0.21535987 0 0 0 0,-0.03125 l 0,-0.21875 c 0.070413,1.139564 0.5457621,1.7376878 1.3125,1.9687498 l 0,2 -1.28125,0 a 0.21535987,0.21535987 0 0 0 -0.0625,0.03125 0.21535987,0.21535987 0 0 0 -0.09375,0.09375 0.21535987,0.21535987 0 0 0 -0.03125,0.0625 0.21535987,0.21535987 0 0 0 0,0.03125 0.21535987,0.21535987 0 0 0 0,0.03125 0.21535987,0.21535987 0 0 0 0,0.03125 0.21535987,0.21535987 0 0 0 0,0.03125 0.21535987,0.21535987 0 0 0 0.03125,0.03125 0.21535987,0.21535987 0 0 0 0.03125,0.03125 l 2.09375,2.0625 a 0.21535987,0.21535987 0 0 0 0.03125,0.0625 0.21535987,0.21535987 0 0 0 0.03125,0.03125 0.21535987,0.21535987 0 0 0 0.03125,0.03125 0.21535987,0.21535987 0 0 0 0.09375,0.03125 0.21535987,0.21535987 0 0 0 0.03125,0 0.21535987,0.21535987 0 0 0 0.03125,0 0.21535987,0.21535987 0 0 0 0.0625,-0.03125 0.21535987,0.21535987 0 0 0 0.03125,-0.03125 l 2.1562498,-2.15625 a 0.21535987,0.21535987 0 0 0 0.03125,-0.03125 0.21535987,0.21535987 0 0 0 0.03125,-0.09375 0.21535987,0.21535987 0 0 0 0,-0.03125 0.21535987,0.21535987 0 0 0 0,-0.03125 0.21535987,0.21535987 0 0 0 0,-0.03125 0.21535987,0.21535987 0 0 0 -0.03125,-0.0625 0.21535987,0.21535987 0 0 0 -0.03125,-0.03125 0.21535987,0.21535987 0 0 0 -0.0625,-0.03125 0.21535987,0.21535987 0 0 0 -0.0625,-0.03125 0.21535987,0.21535987 0 0 0 -0.03125,0 l -1.2499998,0 0,-2 a 0.21535987,0.21535987 0 0 0 0,-0.03125 C 9.7610902,10.139682 10.264518,9.6104439 10.387472,8.7187149 a 0.21535987,0.21535987 0 0 0 0.03125,0.03125 0.21535987,0.21535987 0 0 0 0,0.03125 0.21535987,0.21535987 0 0 0 0.0625,0.0625 0.21535987,0.21535987 0 0 0 0.0625,0.03125 0.21535987,0.21535987 0 0 0 0.03125,0 0.21535987,0.21535987 0 0 0 0.03125,0 l 2,0 0,1.2812501 a 0.21535987,0.21535987 0 0 0 0.03125,0.0625 0.21535987,0.21535987 0 0 0 0.03125,0.0625 0.21535987,0.21535987 0 0 0 0.03125,0.03125 0.21535987,0.21535987 0 0 0 0.09375,0.03125 0.21535987,0.21535987 0 0 0 0.03125,0 0.21535987,0.21535987 0 0 0 0.0625,0 0.21535987,0.21535987 0 0 0 0.03125,0 0.21535987,0.21535987 0 0 0 0.0625,-0.0625 l 2.0625,-2.0937501 0.09375,-0.0625 a 0.21535987,0.21535987 0 0 0 0.03125,-0.03125 0.21535987,0.21535987 0 0 0 0.03125,-0.0625 0.21535987,0.21535987 0 0 0 0,-0.03125 0.21535987,0.21535987 0 0 0 0,-0.03125 0.21535987,0.21535987 0 0 0 0,-0.03125 0.21535987,0.21535987 0 0 0 -0.03125,-0.0625 0.21535987,0.21535987 0 0 0 -0.03125,-0.03125 l -0.09375,-0.0625 -2.0625,-2.09375 a 0.21535987,0.21535987 0 0 0 -0.03125,-0.03125 0.21535987,0.21535987 0 0 0 -0.09375,-0.03125 0.21535987,0.21535987 0 0 0 -0.03125,0 0.21535987,0.21535987 0 0 0 -0.03125,0 0.21535987,0.21535987 0 0 0 -0.03125,0 0.21535987,0.21535987 0 0 0 -0.03125,0 0.21535987,0.21535987 0 0 0 -0.0625,0.0625 0.21535987,0.21535987 0 0 0 -0.03125,0.0625 0.21535987,0.21535987 0 0 0 -0.03125,0.0625 0.21535987,0.21535987 0 0 0 0,0.03125 l 0,1.28125 -2.03125,0 a 0.21535987,0.21535987 0 0 0 -0.03125,0 0.21535987,0.21535987 0 0 0 -0.03125,0 0.21535987,0.21535987 0 0 0 -0.0625,0.03125 0.21535987,0.21535987 0 0 0 -0.03125,0.03125 0.21535987,0.21535987 0 0 0 -0.03125,0.09375 0.21535987,0.21535987 0 0 0 0,0.03125 0.21535987,0.21535987 0 0 0 0,0.03125 l 0,0.65625 C 10.300558,7.0564811 9.6691025,5.9153369 9.0749725,5.0312149 l 0,-1.4375 1.2812495,0 a 0.21535987,0.21535987 0 0 0 0.0625,-0.03125 0.21535987,0.21535987 0 0 0 0.09375,-0.09375 0.21535987,0.21535987 0 0 0 0.03125,-0.0625 0.21535987,0.21535987 0 0 0 0,-0.03125 0.21535987,0.21535987 0 0 0 0,-0.03125 0.21535987,0.21535987 0 0 0 0,-0.03125 0.21535987,0.21535987 0 0 0 0,-0.03125 0.21535987,0.21535987 0 0 0 -0.03125,-0.03125 0.21535987,0.21535987 0 0 0 -0.03125,-0.03125 l -2.1562495,-2.15625 a 0.21535987,0.21535987 0 0 0 -0.03125,-0.03125 0.21535987,0.21535987 0 0 0 -0.0625,-0.03125 0.21535987,0.21535987 0 0 0 -0.03125,0 0.21535987,0.21535987 0 0 0 -0.03125,0 0.21535987,0.21535987 0 0 0 -0.03125,0 0.21535987,0.21535987 0 0 0 -0.03125,0 0.21535987,0.21535987 0 0 0 -0.03125,0 z m 0.125,0.53125 1.625,1.625 -0.96875,0 a 0.21535987,0.21535987 0 0 0 -0.03125,0 0.21535987,0.21535987 0 0 0 -0.03125,0 0.21535987,0.21535987 0 0 0 -0.0625,0.03125 0.21535987,0.21535987 0 0 0 -0.03125,0.03125 0.21535987,0.21535987 0 0 0 -0.03125,0.03125 0.21535987,0.21535987 0 0 0 -0.03125,0.09375 0.21535987,0.21535987 0 0 0 0,0.03125 l 0,1.03125 c -0.2828384,-0.3841772 -0.53125,-0.65625 -0.53125,-0.65625 0,0 -0.1475324,0.2085592 -0.375,0.53125 l 0,-0.90625 a 0.21535987,0.21535987 0 0 0 0,-0.03125 0.21535987,0.21535987 0 0 0 0,-0.03125 0.21535987,0.21535987 0 0 0 -0.03125,-0.0625 0.21535987,0.21535987 0 0 0 -0.03125,-0.03125 0.21535987,0.21535987 0 0 0 -0.03125,-0.03125 0.21535987,0.21535987 0 0 0 -0.0625,-0.03125 0.21535987,0.21535987 0 0 0 -0.03125,0 0.21535987,0.21535987 0 0 0 -0.03125,0 l -0.9375,0 1.625,-1.625 z m -4.84375,4.84375 0,0.96875 a 0.21535987,0.21535987 0 0 0 0,0.03125 0.21535987,0.21535987 0 0 0 0,0.03125 0.21535987,0.21535987 0 0 0 0.03125,0.0625 0.21535987,0.21535987 0 0 0 0.03125,0.03125 0.21535987,0.21535987 0 0 0 0.03125,0.03125 0.21535987,0.21535987 0 0 0 0.09375,0.03125 0.21535987,0.21535987 0 0 0 0.03125,0 l 2,-0.03125 0.03125,0.9375 -2.03125,0 a 0.21535987,0.21535987 0 0 0 -0.03125,0 0.21535987,0.21535987 0 0 0 -0.03125,0 0.21535987,0.21535987 0 0 0 -0.03125,0 0.21535987,0.21535987 0 0 0 -0.09375,0.09375 0.21535987,0.21535987 0 0 0 -0.03125,0.0625 0.21535987,0.21535987 0 0 0 0,0.03125 0.21535987,0.21535987 0 0 0 0,0.03125 l 0,0.9375 -1.625,-1.625 1.625,-1.625 z m 9.6874998,0 1.625,1.625 -1.625,1.625 0,-0.96875 a 0.21535987,0.21535987 0 0 0 0,-0.03125 0.21535987,0.21535987 0 0 0 0,-0.03125 0.21535987,0.21535987 0 0 0 -0.03125,-0.0625 0.21535987,0.21535987 0 0 0 -0.03125,-0.03125 0.21535987,0.21535987 0 0 0 -0.03125,-0.03125 0.21535987,0.21535987 0 0 0 -0.09375,-0.03125 0.21535987,0.21535987 0 0 0 -0.03125,0 l -2,0.03125 -0.03125,-0.9375 2.03125,0 a 0.21535987,0.21535987 0 0 0 0.03125,0 0.21535987,0.21535987 0 0 0 0.03125,0 0.21535987,0.21535987 0 0 0 0.03125,0 0.21535987,0.21535987 0 0 0 0.09375,-0.09375 0.21535987,0.21535987 0 0 0 0.03125,-0.0625 0.21535987,0.21535987 0 0 0 0,-0.03125 0.21535987,0.21535987 0 0 0 0,-0.03125 l 0,-0.9375 z m -6.3749998,1.1875 c 0,0 0.065318,1.0809685 0.375,1.5 0.5435893,0.735533 1.125,0.90625 1.125,0.90625 0,0 -1.2946149,0.1282978 -1.59375,-0.78125 -0.303373,-0.9224344 0.09375,-1.625 0.09375,-1.625 z m 1.09375,3.0312498 0.90625,0.03125 0,2 a 0.21535987,0.21535987 0 0 0 0,0.03125 0.21535987,0.21535987 0 0 0 0,0.03125 0.21535987,0.21535987 0 0 0 0.03125,0.0625 0.21535987,0.21535987 0 0 0 0.03125,0.03125 0.21535987,0.21535987 0 0 0 0.03125,0.03125 0.21535987,0.21535987 0 0 0 0.0625,0.03125 0.21535987,0.21535987 0 0 0 0.03125,0 0.21535987,0.21535987 0 0 0 0.03125,0 l 0.9375,0 -1.625,1.625 -1.625,-1.625 0.96875,0 a 0.21535987,0.21535987 0 0 0 0.03125,0 0.21535987,0.21535987 0 0 0 0.03125,0 0.21535987,0.21535987 0 0 0 0.0625,-0.03125 0.21535987,0.21535987 0 0 0 0.03125,-0.03125 0.21535987,0.21535987 0 0 0 0.03125,-0.03125 0.21535987,0.21535987 0 0 0 0.03125,-0.09375 0.21535987,0.21535987 0 0 0 0,-0.03125 l 0,-2.03125 z"
     id="path4732"
     inkscape:connector-curvature="0" />
  <g
     inkscape:label="Layer 1"
     inkscape:groupmode="layer"
     id="layer1"
     sodipodi:insensitive="true"
     style="opacity:0.47976882;display:none"
     transform="translate(0,-1036.3622)">
    <image
       y="61.505039"
       x="-574.85712"
       id="image3082"
       xlink:href="file:///mnt/6A0F06C454D4F476/One-offs/MyPaint/scrap009_a.png"
       height="896"
       width="1344" />
  </g>
  <g
     inkscape:groupmode="layer"
     id="layer2"
     inkscape:label="basde"
     transform="translate(0,-1036.3622)" />
  <path
     sodipodi:nodetypes="csssccscsc"
     inkscape:connector-curvature="0"
     id="path3882"
     d="m 7.5186865,3.1462064 c 0,0 -2.126466,2.6978621 -2.126466,4.4144359 0,1.7165736 0.8393737,2.3272026 2.126466,2.3687216 1.2870923,0.04152 2.3288411,-0.652148 2.2879698,-2.3687216 C 9.7657851,5.8440685 7.5186865,3.1462064 7.5186865,3.1462064 z M 6.0671317,6.9482265 c 0,0 0.055187,1.1009259 0.3648693,1.5199574 0.5435893,0.735533 1.125033,0.912888 1.125033,0.912888 0,0 -1.2707761,0.111922 -1.5699112,-0.797626 -0.303373,-0.9224344 0.080009,-1.6352194 0.080009,-1.6352194 z"
     style="fill:#000000;fill-opacity:1;stroke:none" />
  <path
     inkscape:connector-curvature="0"
     id="path3884"
     d="M 0.81535921,7.4147011 2.9748969,9.5638039 2.9712793,8.0718146 5.2127575,8.0698765 5.192085,6.7278256 2.9680815,6.747163 2.9644638,5.2551741 0.81536137,7.4147118 z"
     style="fill:none;stroke:#000000;stroke-width:0.43067667;stroke-linecap:round;stroke-linejoin:round;stroke-miterlimit:4;stroke-opacity:1;stroke-dasharray:none" />
  <path
     inkscape:connector-curvature="0"
     id="use3886"
     d="m 7.5818474,0.61536302 2.1595377,2.14910458 -1.4919888,0.00362 0.00892,2.2414588 -1.342135,-0.014169 0.00855,-2.2240746 -1.4919889,0.00362 2.1491024,-2.15953768 z"
     style="fill:none;stroke:#000000;stroke-width:0.43067667;stroke-linecap:round;stroke-linejoin:round;stroke-miterlimit:4;stroke-opacity:1;stroke-dasharray:none" />
  <path
     inkscape:connector-curvature="0"
     id="use3888"
     d="m 7.6181944,14.184676 -2.1595377,-2.149105 1.4919888,-0.0036 -0.00892,-2.2414581 1.342135,0.01417 -0.00855,2.2240741 1.4919889,-0.0036 -2.1491024,2.159537 z"
     style="fill:none;stroke:#000000;stroke-width:0.43067667;stroke-linecap:round;stroke-linejoin:round;stroke-miterlimit:4;stroke-opacity:1;stroke-dasharray:none" />
  <path
     inkscape:connector-curvature="0"
     id="use3890"
     d="m 14.384681,7.3853203 -2.159538,-2.1491024 0.0036,1.4919888 -2.2414779,0.00194 0.020672,1.3420488 2.224006,-0.019337 0.0036,1.4919884 2.149105,-2.1595372 z"
     style="fill:none;stroke:#000000;stroke-width:0.43067667;stroke-linecap:round;stroke-linejoin:round;stroke-miterlimit:4;stroke-opacity:1;stroke-dasharray:none" />
</svg>
