<?xml version="1.0" encoding="UTF-8" standalone="no"?>
<!-- Created with Inkscape (http://www.inkscape.org/) -->

<svg
   xmlns:dc="http://purl.org/dc/elements/1.1/"
   xmlns:cc="http://creativecommons.org/ns#"
   xmlns:rdf="http://www.w3.org/1999/02/22-rdf-syntax-ns#"
   xmlns:svg="http://www.w3.org/2000/svg"
   xmlns="http://www.w3.org/2000/svg"
   xmlns:xlink="http://www.w3.org/1999/xlink"
   xmlns:sodipodi="http://sodipodi.sourceforge.net/DTD/sodipodi-0.dtd"
   xmlns:inkscape="http://www.inkscape.org/namespaces/inkscape"
   width="16"
   height="16"
   id="svg2"
   version="1.1"
   inkscape:version="0.48.4 r9939"
   sodipodi:docname="transform_icons_cage_light.svg">
  <defs
     id="defs4" />
  <sodipodi:namedview
     id="base"
     pagecolor="#919191"
     bordercolor="#666666"
     borderopacity="1.0"
     inkscape:pageopacity="0"
     inkscape:pageshadow="2"
     inkscape:zoom="12.735661"
     inkscape:cx="10.818505"
     inkscape:cy="6.9924482"
     inkscape:document-units="px"
     inkscape:current-layer="svg2"
     showgrid="false"
     showguides="true"
     inkscape:guide-bbox="true"
     inkscape:window-width="501"
     inkscape:window-height="481"
     inkscape:window-x="0"
     inkscape:window-y="27"
     inkscape:window-maximized="0" />
  <metadata
     id="metadata7">
    <rdf:RDF>
      <cc:Work
         rdf:about="">
        <dc:format>image/svg+xml</dc:format>
        <dc:type
           rdf:resource="http://purl.org/dc/dcmitype/StillImage" />
        <dc:title />
      </cc:Work>
    </rdf:RDF>
  </metadata>
  <path
     style="color:#000000;fill:#ffffff;fill-opacity:1;fill-rule:nonzero;stroke:none;stroke-width:2;marker:none;visibility:visible;display:inline;overflow:visible;enable-background:accumulate"
     d="m 11.573119,1.5558256 c -0.585235,0 -1.0625,0.4772679 -1.0625,1.0625 0,0.5852348 0.477265,1.0625 1.0625,1.0625 0.585232,0 1.0625,-0.4772652 1.0625,-1.0625 0,-0.5852321 -0.477268,-1.0625 -1.0625,-1.0625 z m -1.21875,1.75 a 0.27457292,0.27457292 0 0 0 -0.03125,0.03125 0.27457292,0.27457292 0 0 0 -0.09375,0.03125 l -3.4687498,2.3125 a 0.27457292,0.27457292 0 0 0 -0.03125,0.03125 0.27457292,0.27457292 0 0 0 -0.03125,0.03125 0.27457292,0.27457292 0 0 0 -0.0625,0.15625 0.27457292,0.27457292 0 0 0 0.0625,0.1875 0.27457292,0.27457292 0 0 0 0.0625,0.0625 0.27457292,0.27457292 0 0 0 0.09375,0.03125 0.27457292,0.27457292 0 0 0 0.09375,0 0.27457292,0.27457292 0 0 0 0.09375,-0.03125 0.27457292,0.27457292 0 0 0 0.03125,0 l 3.4687498,-2.3125 a 0.27457292,0.27457292 0 0 0 0.03125,-0.03125 0.27457292,0.27457292 0 0 0 0.03125,-0.03125 0.27457292,0.27457292 0 0 0 0.03125,-0.03125 0.27457292,0.27457292 0 0 0 0.03125,-0.15625 0.27457292,0.27457292 0 0 0 0,-0.0625 0.27457292,0.27457292 0 0 0 -0.03125,-0.0625 0.27457292,0.27457292 0 0 0 -0.03125,-0.0625 0.27457292,0.27457292 0 0 0 -0.03125,-0.03125 0.27457292,0.27457292 0 0 0 -0.0625,-0.03125 0.27457292,0.27457292 0 0 0 -0.0625,-0.03125 0.27457292,0.27457292 0 0 0 -0.09375,0 z m 2.09375,0.3125 a 0.27457292,0.27457292 0 0 0 -0.03125,0.03125 0.27457292,0.27457292 0 0 0 -0.03125,0.03125 0.27457292,0.27457292 0 0 0 -0.0625,0.09375 0.27457292,0.27457292 0 0 0 -0.03125,0.09375 0.27457292,0.27457292 0 0 0 0.0625,0.15625 l 1.28125,1.90625 a 0.27457292,0.27457292 0 0 0 0.03125,0.03125 0.27457292,0.27457292 0 0 0 0.09375,0.0625 0.27457292,0.27457292 0 0 0 0.09375,0.03125 0.27457292,0.27457292 0 0 0 0.09375,-0.03125 0.27457292,0.27457292 0 0 0 0.0625,-0.03125 0.27457292,0.27457292 0 0 0 0.09375,-0.125 0.27457292,0.27457292 0 0 0 0.03125,-0.125 0.27457292,0.27457292 0 0 0 -0.03125,-0.125 l -1.3125,-1.90625 a 0.27457292,0.27457292 0 0 0 -0.03125,-0.03125 0.27457292,0.27457292 0 0 0 -0.15625,-0.0625 0.27457292,0.27457292 0 0 0 -0.09375,0 0.27457292,0.27457292 0 0 0 -0.0625,0 z m -6.6874998,2.4375 c -0.5852348,0 -1.0625,0.4772679 -1.0625,1.0625 0,0.2616344 0.092851,0.5026483 0.25,0.6875 a 0.27457292,0.27457292 0 0 0 -0.0625,0 0.27457292,0.27457292 0 0 0 -0.0625,0 0.27457292,0.27457292 0 0 0 -0.0625,0.03125 0.27457292,0.27457292 0 0 0 -0.125,0.125 0.27457292,0.27457292 0 0 0 0,0.0625 c -0.058081,0.2323248 -0.4114466,1.1684735 -0.71875,2.0000004 -0.3073034,0.831526 -0.59375,1.593749 -0.59375,1.593749 a 0.27457292,0.27457292 0 0 0 0,0.03125 0.27457292,0.27457292 0 0 0 0,0.09375 0.27457292,0.27457292 0 0 0 0.0625,0.15625 0.27457292,0.27457292 0 0 0 0.03125,0.03125 0.27457292,0.27457292 0 0 0 0.0625,0.03125 0.27457292,0.27457292 0 0 0 0.09375,0.03125 0.27457292,0.27457292 0 0 0 0.09375,-0.03125 0.27457292,0.27457292 0 0 0 0.0625,-0.03125 0.27457292,0.27457292 0 0 0 0.09375,-0.09375 0.27457292,0.27457292 0 0 0 0.03125,-0.03125 c 0,0 0.2852858,-0.759082 0.59375,-1.593749 0.3084642,-0.8346679 0.6319451,-1.7152788 0.71875,-2.0625004 a 0.27457292,0.27457292 0 0 0 0,-0.09375 0.27457292,0.27457292 0 0 0 0,-0.0625 c 0.1698982,0.1159032 0.3725657,0.1875 0.59375,0.1875 0.5852321,0 1.0625,-0.4772652 1.0625,-1.0625 0,-0.5852321 -0.4772679,-1.0625 -1.0625,-1.0625 z m 8.8437498,0.28125 c -0.585235,0 -1.0625,0.4772679 -1.0625,1.0625 0,0.055893 0.02291,0.102695 0.03125,0.15625 a 0.27457292,0.27457292 0 0 0 -0.125,-0.03125 0.27457292,0.27457292 0 0 0 -0.09375,0 0.27457292,0.27457292 0 0 0 -0.03125,0.03125 l -2.46875,1.3125 a 0.27457292,0.27457292 0 0 0 -0.0625,0.03125 0.27457292,0.27457292 0 0 0 -0.03125,0.03125 0.27457292,0.27457292 0 0 0 -0.0625,0.15625 0.27457292,0.27457292 0 0 0 0.0625,0.1875 0.27457292,0.27457292 0 0 0 0.03125,0.03125 0.27457292,0.27457292 0 0 0 0.03125,0.03125 0.27457292,0.27457292 0 0 0 0.0625,0.03125 0.27457292,0.27457292 0 0 0 0.09375,0 0.27457292,0.27457292 0 0 0 0.125,-0.03125 l 2.46875,-1.3125 a 0.27457292,0.27457292 0 0 0 0.0625,-0.03125 0.27457292,0.27457292 0 0 0 0.03125,-0.03125 0.27457292,0.27457292 0 0 0 0.03125,-0.03125 c 0.184299,0.3124435 0.517241,0.53125 0.90625,0.53125 0.585232,0 1.0625,-0.4772652 1.0625,-1.0625 0,-0.5852321 -0.477268,-1.0625 -1.0625,-1.0625 z m -4.5,3.03125 c -0.5852346,0 -1.0624998,0.477268 -1.0624998,1.0625004 0,0.206208 0.054355,0.399711 0.15625,0.562499 a 0.27457292,0.27457292 0 0 0 -0.03125,0 0.27457292,0.27457292 0 0 0 -0.09375,0 0.27457292,0.27457292 0 0 0 -0.0625,0 0.27457292,0.27457292 0 0 0 -0.03125,0.03125 0.27457292,0.27457292 0 0 0 -0.0625,0.03125 0.27457292,0.27457292 0 0 0 -0.03125,0.03125 0.27457292,0.27457292 0 0 0 -0.03125,0.03125 l -1.15625,1.59375 a 0.27457292,0.27457292 0 0 0 -0.03125,0.0625 0.27457292,0.27457292 0 0 0 0,0.125 0.27457292,0.27457292 0 0 0 0.03125,0.125 0.27457292,0.27457292 0 0 0 0.03125,0.03125 0.27457292,0.27457292 0 0 0 0.03125,0.03125 0.27457292,0.27457292 0 0 0 0.03125,0.03125 0.27457292,0.27457292 0 0 0 0.09375,0.03125 0.27457292,0.27457292 0 0 0 0.09375,0 0.27457292,0.27457292 0 0 0 0.125,-0.0625 0.27457292,0.27457292 0 0 0 0.03125,-0.03125 0.27457292,0.27457292 0 0 0 0.03125,-0.03125 l 1.15625,-1.59375 a 0.27457292,0.27457292 0 0 0 0.03125,-0.0625 0.27457292,0.27457292 0 0 0 0,-0.15625 0.27457292,0.27457292 0 0 0 0,-0.03125 c 0.1917601,0.19176 0.457383,0.3125 0.7499998,0.3125 0.585232,0 1.0625,-0.477265 1.0625,-1.062499 0,-0.5852324 -0.477268,-1.0625004 -1.0625,-1.0625004 z M 2.7293692,11.993325 c -0.5852348,0 -1.0625,0.477268 -1.0625,1.0625 0,0.585235 0.4772652,1.0625 1.0625,1.0625 0.5852321,0 1.0625,-0.477265 1.0625,-1.0625 0,-0.585232 -0.4772679,-1.0625 -1.0625,-1.0625 z m 4.78125,1.4375 c -0.5852348,0 -1.0625,0.477268 -1.0625,1.0625 0,0.585235 0.4772652,1.0625 1.0625,1.0625 0.5852321,0 1.0625,-0.477265 1.0625,-1.0625 0,-0.585232 -0.4772679,-1.0625 -1.0625,-1.0625 z m -3.90625,0.46875 a 0.27457292,0.27457292 0 0 0 -0.03125,0.03125 0.27457292,0.27457292 0 0 0 -0.03125,0.03125 0.27457292,0.27457292 0 0 0 -0.03125,0.03125 0.27457292,0.27457292 0 0 0 -0.0625,0.09375 0.27457292,0.27457292 0 0 0 0,0.125 0.27457292,0.27457292 0 0 0 0.03125,0.0625 0.27457292,0.27457292 0 0 0 0.03125,0.0625 0.27457292,0.27457292 0 0 0 0.03125,0.03125 0.27457292,0.27457292 0 0 0 0.03125,0.03125 0.27457292,0.27457292 0 0 0 0.0625,0.03125 0.27457292,0.27457292 0 0 0 0.03125,0 l 2.03125,0.4375 a 0.27457292,0.27457292 0 0 0 0.09375,0 0.27457292,0.27457292 0 0 0 0.03125,0 0.27457292,0.27457292 0 0 0 0.0625,-0.03125 0.27457292,0.27457292 0 0 0 0.0625,-0.03125 0.27457292,0.27457292 0 0 0 0.03125,-0.03125 0.27457292,0.27457292 0 0 0 0.03125,-0.03125 0.27457292,0.27457292 0 0 0 0.03125,-0.125 0.27457292,0.27457292 0 0 0 -0.0625,-0.1875 0.27457292,0.27457292 0 0 0 -0.03125,-0.03125 0.27457292,0.27457292 0 0 0 -0.03125,-0.03125 0.27457292,0.27457292 0 0 0 -0.09375,-0.03125 l -2.03125,-0.4375 a 0.27457292,0.27457292 0 0 0 -0.09375,0 0.27457292,0.27457292 0 0 0 -0.03125,0 0.27457292,0.27457292 0 0 0 -0.03125,0 0.27457292,0.27457292 0 0 0 -0.03125,0 z"
     id="path4430"
     inkscape:connector-curvature="0" />
  <g
     inkscape:label="Layer 1"
     inkscape:groupmode="layer"
     id="layer1"
     sodipodi:insensitive="true"
     style="opacity:0.47976882;display:none"
     transform="translate(0,-1036.3622)">
    <image
       y="61.505039"
       x="-574.85712"
       id="image3082"
       xlink:href="file:///mnt/6A0F06C454D4F476/One-offs/MyPaint/scrap009_a.png"
       height="896"
       width="1344" />
  </g>
  <g
     inkscape:groupmode="layer"
     id="layer2"
     inkscape:label="basde"
     transform="translate(0,-1036.3622)" />
  <path
     transform="matrix(0.27454546,0,0,0.27454546,-27.333978,-158.1253)"
     d="m 142.30308,581.43066 a 3.8596776,3.8596776 0 1 1 -7.71935,0 3.8596776,3.8596776 0 1 1 7.71935,0 z"
     sodipodi:ry="3.8596776"
     sodipodi:rx="3.8596776"
     sodipodi:cy="581.43066"
     sodipodi:cx="138.44341"
     id="use3950"
     style="color:#000000;fill:#000000;fill-opacity:1;fill-rule:nonzero;stroke:none;stroke-width:2;marker:none;visibility:visible;display:inline;overflow:visible;enable-background:accumulate"
     sodipodi:type="arc" />
  <path
     transform="matrix(0.27454546,0,0,0.27454546,-24.291363,-153.34407)"
     d="m 142.30308,581.43066 a 3.8596776,3.8596776 0 1 1 -7.71935,0 3.8596776,3.8596776 0 1 1 7.71935,0 z"
     sodipodi:ry="3.8596776"
     sodipodi:rx="3.8596776"
     sodipodi:cy="581.43066"
     sodipodi:cx="138.44341"
     id="use3952"
     style="color:#000000;fill:#000000;fill-opacity:1;fill-rule:nonzero;stroke:none;stroke-width:2;marker:none;visibility:visible;display:inline;overflow:visible;enable-background:accumulate"
     sodipodi:type="arc" />
  <path
     transform="matrix(0.27454546,0,0,0.27454546,-28.782842,-150.30144)"
     d="m 142.30308,581.43066 a 3.8596776,3.8596776 0 1 1 -7.71935,0 3.8596776,3.8596776 0 1 1 7.71935,0 z"
     sodipodi:ry="3.8596776"
     sodipodi:rx="3.8596776"
     sodipodi:cy="581.43066"
     sodipodi:cx="138.44341"
     id="use3954"
     style="color:#000000;fill:#000000;fill-opacity:1;fill-rule:nonzero;stroke:none;stroke-width:2;marker:none;visibility:visible;display:inline;overflow:visible;enable-background:accumulate"
     sodipodi:type="arc" />
  <path
     transform="matrix(0.27454546,0,0,0.27454546,-33.129435,-153.63384)"
     d="m 142.30308,581.43066 a 3.8596776,3.8596776 0 1 1 -7.71935,0 3.8596776,3.8596776 0 1 1 7.71935,0 z"
     sodipodi:ry="3.8596776"
     sodipodi:rx="3.8596776"
     sodipodi:cy="581.43066"
     sodipodi:cx="138.44341"
     id="use3956"
     style="color:#000000;fill:#000000;fill-opacity:1;fill-rule:nonzero;stroke:none;stroke-width:2;marker:none;visibility:visible;display:inline;overflow:visible;enable-background:accumulate"
     sodipodi:type="arc" />
  <path
     transform="matrix(0.27454546,0,0,0.27454546,-31.390796,-146.24464)"
     d="m 142.30308,581.43066 a 3.8596776,3.8596776 0 1 1 -7.71935,0 3.8596776,3.8596776 0 1 1 7.71935,0 z"
     sodipodi:ry="3.8596776"
     sodipodi:rx="3.8596776"
     sodipodi:cy="581.43066"
     sodipodi:cx="138.44341"
     id="use3958"
     style="color:#000000;fill:#000000;fill-opacity:1;fill-rule:nonzero;stroke:none;stroke-width:2;marker:none;visibility:visible;display:inline;overflow:visible;enable-background:accumulate"
     sodipodi:type="arc" />
  <path
     transform="matrix(0.27454546,0,0,0.27454546,-36.172049,-147.69349)"
     d="m 142.30308,581.43066 a 3.8596776,3.8596776 0 1 1 -7.71935,0 3.8596776,3.8596776 0 1 1 7.71935,0 z"
     sodipodi:ry="3.8596776"
     sodipodi:rx="3.8596776"
     sodipodi:cy="581.43066"
     sodipodi:cx="138.44341"
     id="use3960"
     style="color:#000000;fill:#000000;fill-opacity:1;fill-rule:nonzero;stroke:none;stroke-width:2;marker:none;visibility:visible;display:inline;overflow:visible;enable-background:accumulate"
     sodipodi:type="arc" />
  <path
     style="fill:none;stroke:#000000;stroke-width:0.54909092;stroke-linecap:round;stroke-linejoin:miter;stroke-miterlimit:4;stroke-opacity:1;stroke-dasharray:none"
     d="M 7.043265,11.755065 8.2023547,10.161312"
     id="path4020"
     inkscape:connector-curvature="0" />
  <path
     style="fill:none;stroke:#000000;stroke-width:0.54909092;stroke-linecap:round;stroke-linejoin:miter;stroke-miterlimit:4;stroke-opacity:1;stroke-dasharray:none"
     d="M 10.085879,7.988019 12.548947,6.6840405"
     id="path4022"
     inkscape:connector-curvature="0" />
  <path
     style="fill:none;stroke:#000000;stroke-width:0.54909092;stroke-linecap:round;stroke-linejoin:miter;stroke-miterlimit:4;stroke-opacity:1;stroke-dasharray:none"
     d="M 12.983605,4.65563 11.679629,2.7721081"
     id="path4024"
     inkscape:connector-curvature="0" />
  <path
     style="fill:none;stroke:#000000;stroke-width:0.54909092;stroke-linecap:round;stroke-linejoin:miter;stroke-miterlimit:4;stroke-opacity:1;stroke-dasharray:none"
     d="M 9.5063304,2.4823363 6.0290583,4.8005158"
     id="path4026"
     inkscape:connector-curvature="0"
     sodipodi:nodetypes="cc" />
  <path
     style="fill:none;stroke:#000000;stroke-width:0.54909092;stroke-linecap:round;stroke-linejoin:miter;stroke-miterlimit:4;stroke-opacity:1;stroke-dasharray:none"
     d="M 4.0006478,6.9738122 C 3.855762,7.5533586 2.6966696,10.595973 2.6966696,10.595973"
     id="path4028"
     inkscape:connector-curvature="0"
     sodipodi:nodetypes="cc" />
  <path
     style="fill:none;stroke:#000000;stroke-width:0.54909092;stroke-linecap:round;stroke-linejoin:miter;stroke-miterlimit:4;stroke-opacity:1;stroke-dasharray:none"
     d="m 2.8415582,13.059041 2.0284104,0.43466"
     id="path4030"
     inkscape:connector-curvature="0" />
</svg>
