<?xml version="1.0" encoding="UTF-8" standalone="no"?>
<!-- Created with Inkscape (http://www.inkscape.org/) -->

<svg
   xmlns:dc="http://purl.org/dc/elements/1.1/"
   xmlns:cc="http://creativecommons.org/ns#"
   xmlns:rdf="http://www.w3.org/1999/02/22-rdf-syntax-ns#"
   xmlns:svg="http://www.w3.org/2000/svg"
   xmlns="http://www.w3.org/2000/svg"
   xmlns:xlink="http://www.w3.org/1999/xlink"
   xmlns:sodipodi="http://sodipodi.sourceforge.net/DTD/sodipodi-0.dtd"
   xmlns:inkscape="http://www.inkscape.org/namespaces/inkscape"
   width="16"
   height="16"
   id="svg2"
   version="1.1"
   inkscape:version="0.48.4 r9939"
   sodipodi:docname="transform_icons_liquify_offset_light.svg">
  <defs
     id="defs4" />
  <sodipodi:namedview
     id="base"
     pagecolor="#7c7c7c"
     bordercolor="#666666"
     borderopacity="1.0"
     inkscape:pageopacity="0"
     inkscape:pageshadow="2"
     inkscape:zoom="14.94052"
     inkscape:cx="8.0009584"
     inkscape:cy="8.0275157"
     inkscape:document-units="px"
     inkscape:current-layer="svg2"
     showgrid="false"
     showguides="true"
     inkscape:guide-bbox="true"
     inkscape:window-width="622"
     inkscape:window-height="481"
     inkscape:window-x="0"
     inkscape:window-y="27"
     inkscape:window-maximized="0" />
  <metadata
     id="metadata7">
    <rdf:RDF>
      <cc:Work
         rdf:about="">
        <dc:format>image/svg+xml</dc:format>
        <dc:type
           rdf:resource="http://purl.org/dc/dcmitype/StillImage" />
        <dc:title />
      </cc:Work>
    </rdf:RDF>
  </metadata>
  <path
     style="fill:#ffffff;fill-opacity:1;stroke:none"
     d="m 8.8931792,1.4610132 a 0.25568807,0.25568807 0 0 0 -0.0625,0.0625 0.25568807,0.25568807 0 0 0 -0.0625,0.09375 0.25568807,0.25568807 0 0 0 -0.03125,0.09375 l 0,1.53125 -2.40625,0 a 0.25568807,0.25568807 0 0 0 -0.09375,0.03125 0.25568807,0.25568807 0 0 0 -0.0625,0.03125 0.25568807,0.25568807 0 0 0 -0.03125,0.03125 0.25568807,0.25568807 0 0 0 -0.03125,0.03125 0.25568807,0.25568807 0 0 0 -0.03125,0.09375 0.25568807,0.25568807 0 0 0 0,0.03125 l 0.03125,1.59375 a 0.25568807,0.25568807 0 0 0 0.03125,0.09375 0.25568807,0.25568807 0 0 0 0.03125,0.0625 0.25568807,0.25568807 0 0 0 0.03125,0.03125 0.25568807,0.25568807 0 0 0 0.0625,0.03125 0.25568807,0.25568807 0 0 0 0.09375,0.03125 l 2.40625,-0.03125 0,1.53125 a 0.25568807,0.25568807 0 0 0 0,0.0625 0.25568807,0.25568807 0 0 0 0.03125,0.0625 0.25568807,0.25568807 0 0 0 0.09375,0.09375 0.25568807,0.25568807 0 0 0 0.09375,0.03125 0.25568807,0.25568807 0 0 0 0.0625,0 0.25568807,0.25568807 0 0 0 0.125,-0.03125 0.25568807,0.25568807 0 0 0 0.03125,-0.03125 l 2.4999998,-2.53125 a 0.25568807,0.25568807 0 0 0 0.03125,-0.03125 0.25568807,0.25568807 0 0 0 0.03125,-0.03125 0.25568807,0.25568807 0 0 0 0.03125,-0.0625 0.25568807,0.25568807 0 0 0 0,-0.1875 0.25568807,0.25568807 0 0 0 -0.03125,-0.0625 0.25568807,0.25568807 0 0 0 -0.03125,-0.03125 0.25568807,0.25568807 0 0 0 -0.03125,-0.03125 l -0.03125,0 a 0.25568807,0.25568807 0 0 0 0,-0.03125 l -0.03125,0 -2.4687498,-2.5 a 0.25568807,0.25568807 0 0 0 -0.0625,-0.03125 0.25568807,0.25568807 0 0 0 -0.0625,-0.03125 0.25568807,0.25568807 0 0 0 -0.0625,0 0.25568807,0.25568807 0 0 0 -0.03125,0 0.25568807,0.25568807 0 0 0 -0.0625,0 z m 0.375,0.875 1.9374998,1.9375 -1.9374998,1.9375 0,-1.15625 a 0.25568807,0.25568807 0 0 0 0,-0.03125 0.25568807,0.25568807 0 0 0 -0.03125,-0.09375 0.25568807,0.25568807 0 0 0 -0.03125,-0.03125 0.25568807,0.25568807 0 0 0 -0.03125,-0.03125 0.25568807,0.25568807 0 0 0 -0.0625,-0.03125 0.25568807,0.25568807 0 0 0 -0.09375,-0.03125 l -2.40625,0.03125 0,-1.09375 2.40625,0 a 0.25568807,0.25568807 0 0 0 0.0625,0 0.25568807,0.25568807 0 0 0 0.0625,-0.03125 0.25568807,0.25568807 0 0 0 0.0625,-0.0625 0.25568807,0.25568807 0 0 0 0.03125,-0.03125 0.25568807,0.25568807 0 0 0 0.03125,-0.09375 0.25568807,0.25568807 0 0 0 0,-0.03125 l 0,-1.15625 z m -5.40625,1.28125 c 0,0 -2.53125,3.2119812 -2.53125,5.25 0,2.0380188 1.0031373,2.7632048 2.53125,2.8124998 1.5281128,0.04929 2.7672748,-0.774481 2.71875,-2.8124998 -0.048525,-2.0380188 -2.71875,-5.25 -2.71875,-5.25 z m 8.5624998,2.21875 a 0.25568807,0.25568807 0 0 0 -0.03125,0.03125 0.25568807,0.25568807 0 0 0 -0.0625,0.0625 0.25568807,0.25568807 0 0 0 -0.03125,0.03125 0.25568807,0.25568807 0 0 0 -0.03125,0.09375 0.25568807,0.25568807 0 0 0 0,0.0625 l 0,1.5 -2.4062498,0 a 0.25568807,0.25568807 0 0 0 -0.09375,0.03125 0.25568807,0.25568807 0 0 0 -0.0625,0.03125 0.25568807,0.25568807 0 0 0 -0.09375,0.09375 0.25568807,0.25568807 0 0 0 0,0.0625 0.25568807,0.25568807 0 0 0 0,0.03125 l 0,1.5937497 a 0.25568807,0.25568807 0 0 0 0,0.0625 0.25568807,0.25568807 0 0 0 0.03125,0.0625 0.25568807,0.25568807 0 0 0 0.0625,0.0625 0.25568807,0.25568807 0 0 0 0.03125,0.03125 0.25568807,0.25568807 0 0 0 0.0625,0.03125 0.25568807,0.25568807 0 0 0 0.09375,0.03125 l 2.3749998,-0.03125 0,1.5000001 a 0.25568807,0.25568807 0 0 0 0,0.0625 0.25568807,0.25568807 0 0 0 0.0625,0.125 0.25568807,0.25568807 0 0 0 0.03125,0.03125 0.25568807,0.25568807 0 0 0 0.09375,0.03125 0.25568807,0.25568807 0 0 0 0.0625,0 0.25568807,0.25568807 0 0 0 0.0625,0 0.25568807,0.25568807 0 0 0 0.125,-0.0625 l 2.46875,-2.4999998 0.0625,-0.03125 a 0.25568807,0.25568807 0 0 0 0,-0.03125 l 0.03125,0 a 0.25568807,0.25568807 0 0 0 0,-0.03125 0.25568807,0.25568807 0 0 0 0.03125,-0.03125 0.25568807,0.25568807 0 0 0 0.03125,-0.09375 0.25568807,0.25568807 0 0 0 0,-0.0625 0.25568807,0.25568807 0 0 0 -0.03125,-0.0625 0.25568807,0.25568807 0 0 0 -0.03125,-0.0625 0.25568807,0.25568807 0 0 0 0,-0.03125 l -0.03125,0 a 0.25568807,0.25568807 0 0 0 -0.03125,-0.03125 l -2.5,-2.5 a 0.25568807,0.25568807 0 0 0 -0.03125,-0.03125 0.25568807,0.25568807 0 0 0 -0.0625,-0.03125 0.25568807,0.25568807 0 0 0 -0.09375,-0.03125 0.25568807,0.25568807 0 0 0 -0.03125,0 0.25568807,0.25568807 0 0 0 -0.0625,0 z m 0.34375,0.875 1.9375,1.9375 -1.9375,1.9687498 0,-1.1562501 a 0.25568807,0.25568807 0 0 0 0,-0.0625 0.25568807,0.25568807 0 0 0 -0.0625,-0.125 0.25568807,0.25568807 0 0 0 -0.03125,-0.03125 0.25568807,0.25568807 0 0 0 -0.0625,-0.03125 0.25568807,0.25568807 0 0 0 -0.09375,-0.03125 l -2.375,0.03125 -0.03125,-1.0624997 2.40625,-0.03125 a 0.25568807,0.25568807 0 0 0 0.0625,0 0.25568807,0.25568807 0 0 0 0.09375,-0.03125 0.25568807,0.25568807 0 0 0 0.03125,-0.03125 0.25568807,0.25568807 0 0 0 0.03125,-0.03125 0.25568807,0.25568807 0 0 0 0.03125,-0.09375 0.25568807,0.25568807 0 0 0 0,-0.0625 l 0,-1.15625 z m -10.6249998,1.4375 c 0,0 0.069826,1.2837517 0.4375,1.7812497 0.6453816,0.8732691 1.3125,1.0937501 1.3125,1.0937501 0,0 -1.488599,0.14237 -1.84375,-0.9375 -0.3601825,-1.0951686 0.09375,-1.9374998 0.09375,-1.9374998 z m 7.03125,1.7499997 a 0.25568807,0.25568807 0 0 0 -0.0625,0.0625 0.25568807,0.25568807 0 0 0 -0.03125,0.03125 0.25568807,0.25568807 0 0 0 -0.03125,0.03125 0.25568807,0.25568807 0 0 0 -0.03125,0.09375 0.25568807,0.25568807 0 0 0 0,0.03125 l 0,1.53125 -2.40625,0 a 0.25568807,0.25568807 0 0 0 -0.0625,0 0.25568807,0.25568807 0 0 0 -0.0625,0.03125 0.25568807,0.25568807 0 0 0 -0.09375,0.09375 0.25568807,0.25568807 0 0 0 -0.03125,0.0625 0.25568807,0.25568807 0 0 0 0,0.0625 l 0.03125,1.59375 a 0.25568807,0.25568807 0 0 0 0,0.0625 0.25568807,0.25568807 0 0 0 0.03125,0.0625 0.25568807,0.25568807 0 0 0 0.09375,0.09375 0.25568807,0.25568807 0 0 0 0.09375,0.03125 0.25568807,0.25568807 0 0 0 0.03125,0 l 2.375,-0.03125 0,1.53125 a 0.25568807,0.25568807 0 0 0 0,0.0625 0.25568807,0.25568807 0 0 0 0.0625,0.09375 0.25568807,0.25568807 0 0 0 0.03125,0.03125 0.25568807,0.25568807 0 0 0 0.03125,0.03125 0.25568807,0.25568807 0 0 0 0.09375,0.03125 0.25568807,0.25568807 0 0 0 0.09375,0 0.25568807,0.25568807 0 0 0 0.125,-0.0625 l 2.4687498,-2.5 a 0.25568807,0.25568807 0 0 0 0.03125,-0.03125 0.25568807,0.25568807 0 0 0 0.03125,-0.03125 l 0.03125,0 a 0.25568807,0.25568807 0 0 0 0,-0.03125 0.25568807,0.25568807 0 0 0 0.03125,0 0.25568807,0.25568807 0 0 0 0.03125,-0.0625 0.25568807,0.25568807 0 0 0 0,-0.0625 0.25568807,0.25568807 0 0 0 0,-0.0625 0.25568807,0.25568807 0 0 0 0,-0.0625 0.25568807,0.25568807 0 0 0 -0.0625,-0.09375 0.25568807,0.25568807 0 0 0 -0.03125,-0.03125 l -0.03125,0 a 0.25568807,0.25568807 0 0 0 0,-0.03125 l -0.03125,0 -2.4687498,-2.5000001 a 0.25568807,0.25568807 0 0 0 -0.03125,-0.03125 0.25568807,0.25568807 0 0 0 -0.09375,-0.03125 0.25568807,0.25568807 0 0 0 -0.0625,0 0.25568807,0.25568807 0 0 0 -0.0625,0 0.25568807,0.25568807 0 0 0 -0.03125,0 z m 0.34375,0.8750001 1.9374998,1.9375 -1.9062498,1.9375 0,-1.15625 a 0.25568807,0.25568807 0 0 0 -0.03125,-0.0625 0.25568807,0.25568807 0 0 0 -0.03125,-0.09375 0.25568807,0.25568807 0 0 0 -0.03125,-0.03125 0.25568807,0.25568807 0 0 0 -0.0625,-0.03125 0.25568807,0.25568807 0 0 0 -0.09375,-0.03125 0.25568807,0.25568807 0 0 0 -0.03125,0 l -2.375,0.03125 -0.03125,-1.09375 2.40625,0 a 0.25568807,0.25568807 0 0 0 0.0625,0 0.25568807,0.25568807 0 0 0 0.125,-0.0625 0.25568807,0.25568807 0 0 0 0.03125,-0.03125 0.25568807,0.25568807 0 0 0 0.03125,-0.09375 0.25568807,0.25568807 0 0 0 0,-0.0625 l 0,-1.15625 z"
     id="path4812"
     inkscape:connector-curvature="0" />
  <g
     inkscape:label="Layer 1"
     inkscape:groupmode="layer"
     id="layer1"
     sodipodi:insensitive="true"
     style="opacity:0.47976882;display:none"
     transform="translate(0,-1036.3622)">
    <image
       y="61.505039"
       x="-574.85712"
       id="image3082"
       xlink:href="file:///mnt/6A0F06C454D4F476/One-offs/MyPaint/scrap009_a.png"
       height="896"
       width="1344" />
  </g>
  <g
     inkscape:groupmode="layer"
     id="layer2"
     inkscape:label="basde"
     transform="translate(0,-1036.3622)" />
  <path
     style="fill:#000000;fill-opacity:1;stroke:none"
     d="m 3.3947843,3.0958723 c 0,0 -2.52466731,3.2030627 -2.52466731,5.2410815 0,2.0380192 0.99655461,2.7629932 2.52466731,2.8122882 1.5281128,0.04929 2.764939,-0.774269 2.7164142,-2.8122882 C 6.0626738,6.298935 3.3947843,3.0958723 3.3947843,3.0958723 z m -1.7233724,4.513985 c 0,0 0.065521,1.3070848 0.4331946,1.8045836 0.6453816,0.8732691 1.3357062,1.0838351 1.3357062,1.0838351 0,0 -1.5087412,0.132881 -1.8638922,-0.9469891 C 1.216238,8.4561181 1.6714119,7.6098573 1.6714119,7.6098573 z"
     id="path4060"
     inkscape:connector-curvature="0"
     sodipodi:nodetypes="csssccscsc" />
  <path
     style="fill:none;stroke:#000000;stroke-width:0.511325;stroke-linecap:round;stroke-linejoin:round;stroke-miterlimit:4;stroke-opacity:1;stroke-dasharray:none"
     d="m 14.614452,8.1288011 -2.563932,-2.5515426 0.0043,1.7713782 -2.6612166,0.0023 0.024544,1.5933604 2.6404716,-0.022959 0.0043,1.7713789 2.551545,-2.5639327 z"
     id="path4068"
     inkscape:connector-curvature="0" />
  <path
     inkscape:connector-curvature="0"
     id="path4074"
     d="m 11.106499,3.7438591 -2.5639321,-2.5515425 0.0043,1.7713782 -2.6612167,0.0023 0.024544,1.5933604 2.6404722,-0.022959 0.0043,1.7713782 2.5515446,-2.563932 z"
     style="fill:none;stroke:#000000;stroke-width:0.511325;stroke-linecap:round;stroke-linejoin:round;stroke-miterlimit:4;stroke-opacity:1;stroke-dasharray:none" />
  <path
     style="fill:none;stroke:#000000;stroke-width:0.511325;stroke-linecap:round;stroke-linejoin:round;stroke-miterlimit:4;stroke-opacity:1;stroke-dasharray:none"
     d="m 11.37634,12.17644 -2.5639315,-2.5515431 0.0043,1.7713781 -2.6612166,0.0023 0.024544,1.593361 2.6404722,-0.02296 0.0043,1.771378 2.5515449,-2.563931 z"
     id="path4076"
     inkscape:connector-curvature="0" />
</svg>
