<?xml version="1.0" encoding="UTF-8" standalone="no"?>
<!-- Created with Inkscape (http://www.inkscape.org/) -->

<svg
   xmlns:dc="http://purl.org/dc/elements/1.1/"
   xmlns:cc="http://creativecommons.org/ns#"
   xmlns:rdf="http://www.w3.org/1999/02/22-rdf-syntax-ns#"
   xmlns:svg="http://www.w3.org/2000/svg"
   xmlns="http://www.w3.org/2000/svg"
   xmlns:xlink="http://www.w3.org/1999/xlink"
   xmlns:sodipodi="http://sodipodi.sourceforge.net/DTD/sodipodi-0.dtd"
   xmlns:inkscape="http://www.inkscape.org/namespaces/inkscape"
   version="1.1"
   width="16"
   height="16"
   id="svg2"
   inkscape:version="0.48.4 r9939"
   sodipodi:docname="transform_icons_main_light.svg">
  <sodipodi:namedview
     pagecolor="#919191"
     bordercolor="#666666"
     borderopacity="1"
     objecttolerance="10"
     gridtolerance="10"
     guidetolerance="10"
     inkscape:pageopacity="0"
     inkscape:pageshadow="2"
     inkscape:window-width="640"
     inkscape:window-height="480"
     id="namedview17"
     showgrid="false"
     inkscape:zoom="14.75"
     inkscape:cx="8"
     inkscape:cy="8"
     inkscape:window-x="0"
     inkscape:window-y="27"
     inkscape:window-maximized="0"
     inkscape:current-layer="svg2" />
  <defs
     id="defs4" />
  <metadata
     id="metadata7">
    <rdf:RDF>
      <cc:Work
         rdf:about="">
        <dc:format>image/svg+xml</dc:format>
        <dc:type
           rdf:resource="http://purl.org/dc/dcmitype/StillImage" />
        <dc:title />
      </cc:Work>
    </rdf:RDF>
  </metadata>
  <path
     d="m 14.426377,1.6138772 c -0.568452,0 -1.03125,0.4628007 -1.03125,1.03125 0,0.5141616 0.382348,0.923299 0.875,1 a 0.26669895,0.26669895 0 0 0 -0.09375,0.0625 0.26669895,0.26669895 0 0 0 -0.03125,0.03125 0.26669895,0.26669895 0 0 0 -0.03125,0.03125 0.26669895,0.26669895 0 0 0 -0.03125,0.0625 0.26669895,0.26669895 0 0 0 -0.03125,0.09375 l 0.125,8.6562498 a 0.26669895,0.26669895 0 0 0 0,0.09375 0.26669895,0.26669895 0 0 0 0.0625,0.09375 0.26669895,0.26669895 0 0 0 0.03125,0.03125 0.26669895,0.26669895 0 0 0 0.03125,0.03125 0.26669895,0.26669895 0 0 0 0.09375,0.03125 0.26669895,0.26669895 0 0 0 0.09375,0 0.26669895,0.26669895 0 0 0 0.0625,-0.03125 0.26669895,0.26669895 0 0 0 0.09375,-0.09375 0.26669895,0.26669895 0 0 0 0.03125,-0.03125 0.26669895,0.26669895 0 0 0 0.03125,-0.125 l -0.125,-8.6562498 a 0.26669895,0.26669895 0 0 0 0,-0.09375 0.26669895,0.26669895 0 0 0 -0.03125,-0.0625 0.26669895,0.26669895 0 0 0 -0.03125,-0.03125 0.26669895,0.26669895 0 0 0 -0.03125,-0.03125 0.26669895,0.26669895 0 0 0 -0.03125,-0.03125 c 0.554096,-0.016405 1,-0.4731771 1,-1.03125 0,-0.5684493 -0.462801,-1.03125 -1.03125,-1.03125 z m -1.5,0.25 c 0,0 -2.141124,0.025167 -4.3437499,0.0625 -1.101313,0.018667 -2.2198179,0.039133 -3.09375,0.0625 -0.436966,0.011684 -0.8094417,0.018889 -1.09375,0.03125 -0.2843083,0.012361 -0.4324179,0.036484 -0.5625,0.0625 a 0.26669895,0.26669895 0 0 0 -0.09375,0.03125 0.26669895,0.26669895 0 0 0 -0.0625,0.0625 0.26669895,0.26669895 0 0 0 -0.0625,0.09375 0.26669895,0.26669895 0 0 0 0,0.03125 0.26669895,0.26669895 0 0 0 0,0.09375 0.26669895,0.26669895 0 0 0 0.03125,0.0625 0.26669895,0.26669895 0 0 0 0.125,0.125 0.26669895,0.26669895 0 0 0 0.0625,0.03125 0.26669895,0.26669895 0 0 0 0.09375,0 c -0.00569,0.00114 0.2210535,-0.050372 0.5,-0.0625 0.2789465,-0.012128 0.6584294,-0.01961 1.09375,-0.03125 0.8706412,-0.023279 1.9933559,-0.043849 3.09375,-0.0625 2.2007879,-0.037302 4.3124999,-0.0625 4.3124999,-0.0625 a 0.26669895,0.26669895 0 0 0 0.09375,0 0.26669895,0.26669895 0 0 0 0.09375,-0.0625 0.26669895,0.26669895 0 0 0 0.03125,-0.03125 0.26669895,0.26669895 0 0 0 0.03125,-0.03125 0.26669895,0.26669895 0 0 0 0.03125,-0.0625 0.26669895,0.26669895 0 0 0 0,-0.0625 0.26669895,0.26669895 0 0 0 -0.03125,-0.125 0.26669895,0.26669895 0 0 0 -0.21875,-0.15625 0.26669895,0.26669895 0 0 0 -0.03125,0 z m -10.4374999,0.03125 c -0.568452,0 -1.03125,0.4628007 -1.03125,1.03125 0,0.568452 0.462798,1.03125 1.03125,1.03125 0.5684493,0 1.03125,-0.462798 1.03125,-1.03125 0,-0.5684493 -0.4628007,-1.03125 -1.03125,-1.03125 z m -0.3125,2.5625 a 0.26669895,0.26669895 0 0 0 -0.03125,0.03125 0.26669895,0.26669895 0 0 0 -0.03125,0.03125 0.26669895,0.26669895 0 0 0 -0.03125,0.03125 0.26669895,0.26669895 0 0 0 -0.03125,0.0625 0.26669895,0.26669895 0 0 0 -0.03125,0.0625 0.26669895,0.26669895 0 0 0 0,0.03125 c 0,0 -0.018804,1.9397308 -0.03125,3.90625 -0.00622,0.98326 -0.00468,1.9735808 0,2.7499998 0.00234,0.38821 -0.0069,0.717662 0,0.96875 0.00345,0.125544 0.026209,0.22951 0.03125,0.3125 0.00504,0.08299 -0.01906,0.142511 0,0.21875 a 0.26669895,0.26669895 0 0 0 0.03125,0.0625 0.26669895,0.26669895 0 0 0 0.03125,0.03125 0.26669895,0.26669895 0 0 0 0.03125,0.03125 0.26669895,0.26669895 0 0 0 0.125,0.0625 0.26669895,0.26669895 0 0 0 0.09375,0 0.26669895,0.26669895 0 0 0 0.125,-0.0625 0.26669895,0.26669895 0 0 0 0.03125,-0.03125 0.26669895,0.26669895 0 0 0 0.0625,-0.125 0.26669895,0.26669895 0 0 0 0,-0.09375 0.26669895,0.26669895 0 0 0 0,-0.03125 c 0.00662,0.02648 0.00443,-0.02077 0,-0.09375 -0.00443,-0.07298 -0.027897,-0.15918 -0.03125,-0.28125 -0.00671,-0.24414 0.00233,-0.582631 0,-0.96875 -0.00465,-0.772239 -0.00622,-1.7678938 0,-2.7499998 0.012432,-1.964212 0.03125,-3.875 0.03125,-3.875 a 0.26669895,0.26669895 0 0 0 0,-0.09375 0.26669895,0.26669895 0 0 0 -0.0625,-0.09375 0.26669895,0.26669895 0 0 0 -0.03125,-0.03125 0.26669895,0.26669895 0 0 0 -0.03125,-0.03125 0.26669895,0.26669895 0 0 0 -0.0625,-0.03125 0.26669895,0.26669895 0 0 0 -0.0625,0 0.26669895,0.26669895 0 0 0 -0.09375,0 0.26669895,0.26669895 0 0 0 -0.03125,0 z M 14.332627,13.301377 c -0.568452,0 -1.03125,0.462801 -1.03125,1.03125 0,0.568452 0.462798,1.03125 1.03125,1.03125 0.568449,0 1.03125,-0.462798 1.03125,-1.03125 0,-0.568449 -0.462801,-1.03125 -1.03125,-1.03125 z m -11.7812499,0.09375 c -0.568452,0 -1.03125,0.462801 -1.03125,1.03125 0,0.568452 0.462798,1.03125 1.03125,1.03125 0.5684493,0 1,-0.462798 1,-1.03125 0,-0.568449 -0.4315507,-1.03125 -1,-1.03125 z m 9.9374999,0.8125 c -0.153462,0.0341 -0.792052,0.0987 -1.5625,0.125 -0.770448,0.0263 -1.725077,0.02504 -2.6562499,0.03125 -0.9311729,0.0062 -1.8343772,0.01084 -2.53125,0 -0.3484364,-0.0054 -0.6297619,-0.02229 -0.84375,-0.03125 -0.1069941,-0.0045 -0.2202422,0.0049 -0.28125,0 -0.061008,-0.0049 -0.1165757,-0.01802 -0.0625,0 a 0.26669895,0.26669895 0 0 0 -0.1875,0 0.26669895,0.26669895 0 0 0 -0.125,0.125 0.26669895,0.26669895 0 0 0 -0.03125,0.0625 0.26669895,0.26669895 0 0 0 0,0.09375 0.26669895,0.26669895 0 0 0 0.0625,0.125 0.26669895,0.26669895 0 0 0 0.03125,0.03125 0.26669895,0.26669895 0 0 0 0.03125,0.03125 0.26669895,0.26669895 0 0 0 0.0625,0.03125 c 0.091393,0.03046 0.1146911,0.02535 0.1875,0.03125 0.072809,0.0059 0.1701724,-0.0047 0.28125,0 0.2221553,0.0093 0.5237412,0.02579 0.875,0.03125 0.7025177,0.01093 1.5965691,0.0062 2.53125,0 0.9346809,-0.0062 1.9092889,-0.0047 2.6874999,-0.03125 0.778211,-0.02656 1.330658,-0.05959 1.625,-0.125 a 0.26669895,0.26669895 0 0 0 0.1875,-0.125 0.26669895,0.26669895 0 0 0 0.03125,-0.125 0.26669895,0.26669895 0 0 0 0,-0.0625 0.26669895,0.26669895 0 0 0 -0.03125,-0.09375 0.26669895,0.26669895 0 0 0 -0.03125,-0.03125 0.26669895,0.26669895 0 0 0 -0.03125,-0.03125 0.26669895,0.26669895 0 0 0 -0.0625,-0.03125 0.26669895,0.26669895 0 0 0 -0.0625,-0.03125 0.26669895,0.26669895 0 0 0 -0.09375,0 z"
     id="path4167"
     style="color:#000000;fill:#ffffff;fill-opacity:1;fill-rule:nonzero;stroke:none;stroke-width:2;marker:none;visibility:visible;display:inline;overflow:visible;enable-background:accumulate"
     inkscape:connector-curvature="0" />
  <g
     transform="translate(0,-1036.3622)"
     id="layer1"
     style="opacity:0.47976882;display:none">
    <image
       xlink:href="file:///mnt/6A0F06C454D4F476/One-offs/MyPaint/scrap009_a.png"
       x="-574.85712"
       y="61.505039"
       width="1344"
       height="896"
       id="image3082" />
  </g>
  <g
     transform="translate(0,-1036.3622)"
     id="layer2" />
  <path
     d="m 2.5331111,1.8838594 a 1.029269,1.029269 0 1 1 -2.0585367,0 1.029269,1.029269 0 1 1 2.0585367,0 z"
     id="path3916"
     style="color:#000000;fill:#000000;fill-opacity:1;fill-rule:nonzero;stroke:none;stroke-width:2;marker:none;visibility:visible;display:inline;overflow:visible;enable-background:accumulate"
     inkscape:connector-curvature="0" />
  <use
     transform="translate(11.941462,-0.2985361)"
     id="use3918"
     x="0"
     y="0"
     width="744.09448"
     height="1052.3622"
     xlink:href="#path3916" />
  <use
     transform="translate(-0.09951131,11.692677)"
     id="use3920"
     x="0"
     y="0"
     width="744.09448"
     height="1052.3622"
     xlink:href="#use3918" />
  <use
     transform="translate(-11.792195,0.099499)"
     id="use3922"
     x="0"
     y="0"
     width="744.09448"
     height="1052.3622"
     xlink:href="#use3920" />
  <path
     d="m 13.345794,2.8789994 0.09951,8.6575586"
     id="path3980"
     style="fill:none;stroke:#000000;stroke-width:0.53334457;stroke-linecap:round;stroke-linejoin:miter;stroke-miterlimit:4;stroke-opacity:1;stroke-dasharray:none"
     inkscape:connector-curvature="0" />
  <path
     d="m 11.554576,13.427291 c -0.895608,0.199023 -7.7619503,0.199023 -8.0604872,0.09951"
     id="path3982"
     style="fill:none;stroke:#000000;stroke-width:0.53334457;stroke-linecap:round;stroke-linejoin:miter;stroke-miterlimit:4;stroke-opacity:1;stroke-dasharray:none"
     inkscape:connector-curvature="0" />
  <path
     d="m 1.3048212,11.735583 c -0.099511,-0.398048 0,-8.0604868 0,-8.0604868"
     id="path3984"
     style="fill:none;stroke:#000000;stroke-width:0.53334457;stroke-linecap:round;stroke-linejoin:miter;stroke-miterlimit:4;stroke-opacity:1;stroke-dasharray:none"
     inkscape:connector-curvature="0" />
  <path
     d="M 2.8970147,1.2868031 C 3.3945774,1.1872917 11.952624,1.0877776 11.952624,1.0877776"
     id="path3986"
     style="fill:none;stroke:#000000;stroke-width:0.53334457;stroke-linecap:round;stroke-linejoin:miter;stroke-miterlimit:4;stroke-opacity:1;stroke-dasharray:none"
     inkscape:connector-curvature="0" />
</svg>
