<svg xmlns:dc="http://purl.org/dc/elements/1.1/" xmlns:cc="http://creativecommons.org/ns#" xmlns:rdf="http://www.w3.org/1999/02/22-rdf-syntax-ns#" xmlns="http://www.w3.org/2000/svg" xmlns:sodipodi="http://sodipodi.sourceforge.net/DTD/sodipodi-0.dtd" xmlns:inkscape="http://www.inkscape.org/namespaces/inkscape" version="1.1" id="svg4141" viewBox="0 0 16 16" height="16" width="16" sodipodi:docname="dark_transform_icons_mesh.svg" inkscape:version="0.92.4 (5da689c313, 2019-01-14)"><sodipodi:namedview pagecolor="#ffffff" bordercolor="#666666" borderopacity="1" objecttolerance="10" gridtolerance="10" guidetolerance="10" inkscape:pageopacity="0" inkscape:pageshadow="2" inkscape:window-width="1884" inkscape:window-height="1054" id="namedview11" showgrid="false" inkscape:zoom="14.75" inkscape:cx="8" inkscape:cy="8" inkscape:window-x="0" inkscape:window-y="0" inkscape:window-maximized="1" inkscape:current-layer="svg4141"/><metadata id="metadata4146"><rdf:RDF><cc:Work><dc:format>image/svg+xml</dc:format><dc:type rdf:resource="http://purl.org/dc/dcmitype/StillImage"/><dc:title/><dc:date>2020</dc:date><dc:creator><cc:Agent><dc:title>Timothée Giet</dc:title></cc:Agent></dc:creator><cc:license rdf:resource="http://creativecommons.org/licenses/by-sa/4.0/"/></cc:Work><cc:License rdf:about="http://creativecommons.org/licenses/by-sa/4.0/"><cc:permits rdf:resource="http://creativecommons.org/ns#Reproduction"/><cc:permits rdf:resource="http://creativecommons.org/ns#Distribution"/><cc:requires rdf:resource="http://creativecommons.org/ns#Notice"/><cc:requires rdf:resource="http://creativecommons.org/ns#Attribution"/><cc:permits rdf:resource="http://creativecommons.org/ns#DerivativeWorks"/><cc:requires rdf:resource="http://creativecommons.org/ns#ShareAlike"/></cc:License></rdf:RDF></metadata><path style="opacity:1;vector-effect:none;fill:#373737;fill-opacity:1;stroke:none;stroke-width:2;stroke-linecap:square;stroke-linejoin:miter;stroke-miterlimit:4;stroke-dasharray:none;stroke-dashoffset:0;stroke-opacity:1;marker:none" d="M1.5 0A1.5 1.5 0 0 0 0 1.5 1.5 1.5 0 0 0 1.5 3 1.5 1.5 0 0 0 3 1.5 1.5 1.5 0 0 0 1.5 0zm13 0A1.5 1.5 0 0 0 13 1.5 1.5 1.5 0 0 0 14.5 3 1.5 1.5 0 0 0 16 1.5 1.5 1.5 0 0 0 14.5 0zm-13 13A1.5 1.5 0 0 0 0 14.5 1.5 1.5 0 0 0 1.5 16 1.5 1.5 0 0 0 3 14.5 1.5 1.5 0 0 0 1.5 13zm13 0a1.5 1.5 0 0 0-1.5 1.5 1.5 1.5 0 0 0 1.5 1.5 1.5 1.5 0 0 0 1.5-1.5 1.5 1.5 0 0 0-1.5-1.5z" id="path834"/><path inkscape:connector-curvature="0" style="opacity:1;vector-effect:none;fill:#373737;fill-opacity:1;stroke:none;stroke-width:2;stroke-linecap:butt;stroke-linejoin:miter;stroke-miterlimit:4;stroke-dasharray:none;stroke-dashoffset:0;stroke-opacity:1" d="M4 1v1h2V1zm3 0v1h2V1zm3 0v1h2V1zM1 4v2h1V4zm13 0v2h1V4zM1 7v2h1V7zm13 0v2h1V7zM1 10v2h1v-2zm13 0v2h1v-2zM4 14v1h2v-1zm3 0v1h2v-1zm3 0v1h2v-1z" id="rect829"/></svg>