<?xml version="1.0" encoding="UTF-8" standalone="no"?>
<!-- Created with Inkscape (http://www.inkscape.org/) -->

<svg
   xmlns:dc="http://purl.org/dc/elements/1.1/"
   xmlns:cc="http://creativecommons.org/ns#"
   xmlns:rdf="http://www.w3.org/1999/02/22-rdf-syntax-ns#"
   xmlns:svg="http://www.w3.org/2000/svg"
   xmlns="http://www.w3.org/2000/svg"
   xmlns:xlink="http://www.w3.org/1999/xlink"
   xmlns:sodipodi="http://sodipodi.sourceforge.net/DTD/sodipodi-0.dtd"
   xmlns:inkscape="http://www.inkscape.org/namespaces/inkscape"
   version="1.1"
   width="16"
   height="16"
   id="svg2"
   inkscape:version="0.48.4 r9939"
   sodipodi:docname="transform_icons_warp_light.svg"
   inkscape:export-filename="/home/wolthera/Pictures/transform_icons_warp_light.png"
   inkscape:export-xdpi="90"
   inkscape:export-ydpi="90">
  <sodipodi:namedview
     pagecolor="#797979"
     bordercolor="#666666"
     borderopacity="1"
     objecttolerance="10"
     gridtolerance="10"
     guidetolerance="10"
     inkscape:pageopacity="0"
     inkscape:pageshadow="2"
     inkscape:window-width="640"
     inkscape:window-height="480"
     id="namedview30"
     showgrid="false"
     showguides="true"
     inkscape:guide-bbox="true"
     inkscape:zoom="14.75"
     inkscape:cx="8"
     inkscape:cy="8"
     inkscape:window-x="0"
     inkscape:window-y="27"
     inkscape:window-maximized="0"
     inkscape:current-layer="svg2" />
  <defs
     id="defs4" />
  <metadata
     id="metadata7">
    <rdf:RDF>
      <cc:Work
         rdf:about="">
        <dc:format>image/svg+xml</dc:format>
        <dc:type
           rdf:resource="http://purl.org/dc/dcmitype/StillImage" />
        <dc:title></dc:title>
      </cc:Work>
    </rdf:RDF>
  </metadata>
  <path
     d="m 12.837924,1.5926907 c -0.53537,0 -0.96875,0.4333827 -0.96875,0.96875 0,0.5353698 0.43338,0.96875 0.96875,0.96875 0.535367,0 0.96875,-0.4333802 0.96875,-0.96875 0,-0.5353673 -0.433383,-0.96875 -0.96875,-0.96875 z m -4.9062503,0.125 c -0.5353698,0 -0.96875,0.4333827 -0.96875,0.96875 0,0.5353698 0.4333802,0.96875 0.96875,0.96875 0.5353673,0 0.96875,-0.4333802 0.96875,-0.96875 0,-0.5353673 -0.4333827,-0.96875 -0.96875,-0.96875 z m 3.6250003,0.375 -2.2500003,0.09375 a 0.25117787,0.25117787 0 0 0 -0.09375,0.03125 0.25117787,0.25117787 0 0 0 -0.0625,0.03125 0.25117787,0.25117787 0 0 0 -0.03125,0.03125 0.25117787,0.25117787 0 0 0 -0.03125,0.03125 0.25117787,0.25117787 0 0 0 -0.03125,0.0625 0.25117787,0.25117787 0 0 0 0,0.0625 0.25117787,0.25117787 0 0 0 0,0.03125 0.25117787,0.25117787 0 0 0 0.03125,0.09375 0.25117787,0.25117787 0 0 0 0.09375,0.09375 0.25117787,0.25117787 0 0 0 0.0625,0.03125 0.25117787,0.25117787 0 0 0 0.0625,0 l 2.2500003,-0.09375 a 0.25117787,0.25117787 0 0 0 0.0625,0 0.25117787,0.25117787 0 0 0 0.09375,-0.03125 0.25117787,0.25117787 0 0 0 0.03125,-0.03125 0.25117787,0.25117787 0 0 0 0.03125,-0.0625 0.25117787,0.25117787 0 0 0 0.03125,-0.09375 0.25117787,0.25117787 0 0 0 0,-0.0625 0.25117787,0.25117787 0 0 0 -0.03125,-0.09375 0.25117787,0.25117787 0 0 0 -0.0625,-0.0625 0.25117787,0.25117787 0 0 0 -0.0625,-0.03125 0.25117787,0.25117787 0 0 0 -0.09375,-0.03125 z m -9.0625003,0.15625 c -0.5353698,0 -0.96875,0.4333827 -0.96875,0.96875 0,0.5353698 0.4333802,0.96875 0.96875,0.96875 0.099477,0 0.1909065,-0.00342 0.28125,-0.03125 a 0.25117787,0.25117787 0 0 0 -0.03125,0.03125 0.25117787,0.25117787 0 0 0 -0.0625,0.03125 0.25117787,0.25117787 0 0 0 -0.03125,0.03125 0.25117787,0.25117787 0 0 0 -0.03125,0.03125 0.25117787,0.25117787 0 0 0 -0.03125,0.09375 0.25117787,0.25117787 0 0 0 0,0.0625 l 0.1875,3.5625 a 0.25117787,0.25117787 0 0 0 0.03125,0.09375 0.25117787,0.25117787 0 0 0 0,0.03125 c -0.063103,-0.012913 -0.1205791,-0.03125 -0.1875,-0.03125 -0.5353698,0 -0.96875,0.4333827 -0.96875,0.96875 0,0.53537 0.4333802,0.9687503 0.96875,0.9687503 0.5353673,0 0.96875,-0.4333803 0.96875,-0.9687503 0,-0.3446254 -0.1665509,-0.6718585 -0.4375,-0.84375 a 0.25117787,0.25117787 0 0 0 0.03125,-0.03125 0.25117787,0.25117787 0 0 0 0.0625,-0.0625 0.25117787,0.25117787 0 0 0 0.03125,-0.0625 0.25117787,0.25117787 0 0 0 0,-0.0625 0.25117787,0.25117787 0 0 0 0,-0.03125 l -0.1875,-3.5625 a 0.25117787,0.25117787 0 0 0 0,-0.0625 0.25117787,0.25117787 0 0 0 -0.125,-0.15625 0.25117787,0.25117787 0 0 0 -0.09375,-0.03125 c 0.3526797,-0.145 0.59375,-0.5325362 0.59375,-0.9375 0,-0.5353673 -0.4333827,-0.96875 -0.96875,-0.96875 z m 4.09375,0.21875 -2.53125,0.09375 a 0.25117787,0.25117787 0 0 0 -0.0625,0 0.25117787,0.25117787 0 0 0 -0.09375,0.0625 0.25117787,0.25117787 0 0 0 -0.03125,0.03125 0.25117787,0.25117787 0 0 0 -0.03125,0.0625 0.25117787,0.25117787 0 0 0 -0.03125,0.125 0.25117787,0.25117787 0 0 0 0.03125,0.09375 0.25117787,0.25117787 0 0 0 0.09375,0.09375 0.25117787,0.25117787 0 0 0 0.0625,0.03125 0.25117787,0.25117787 0 0 0 0.0625,0 l 2.53125,-0.09375 a 0.25117787,0.25117787 0 0 0 0.0625,0 0.25117787,0.25117787 0 0 0 0.09375,-0.03125 0.25117787,0.25117787 0 0 0 0.03125,-0.03125 0.25117787,0.25117787 0 0 0 0.03125,-0.03125 0.25117787,0.25117787 0 0 0 0.03125,-0.09375 0.25117787,0.25117787 0 0 0 0,-0.03125 0.25117787,0.25117787 0 0 0 0,-0.0625 0.25117787,0.25117787 0 0 0 -0.03125,-0.09375 0.25117787,0.25117787 0 0 0 -0.09375,-0.09375 0.25117787,0.25117787 0 0 0 -0.125,-0.03125 z m 6.8437503,1.03125 a 0.25117787,0.25117787 0 0 0 -0.03125,0.03125 0.25117787,0.25117787 0 0 0 -0.09375,0.09375 0.25117787,0.25117787 0 0 0 -0.03125,0.09375 0.25117787,0.25117787 0 0 0 0,0.0625 0.25117787,0.25117787 0 0 0 0,0.03125 l 0.9375,3.46875 a 0.25117787,0.25117787 0 0 0 0.03125,0.0625 0.25117787,0.25117787 0 0 0 0.09375,0.09375 0.25117787,0.25117787 0 0 0 0.0625,0.03125 0.25117787,0.25117787 0 0 0 0.0625,0 0.25117787,0.25117787 0 0 0 0.0625,0 0.25117787,0.25117787 0 0 0 0.09375,-0.03125 0.25117787,0.25117787 0 0 0 0.0625,-0.0625 0.25117787,0.25117787 0 0 0 0.03125,-0.0625 0.25117787,0.25117787 0 0 0 0,-0.0625 0.25117787,0.25117787 0 0 0 0,-0.0625 0.25117787,0.25117787 0 0 0 0,-0.03125 l -0.9375,-3.46875 a 0.25117787,0.25117787 0 0 0 -0.0625,-0.09375 0.25117787,0.25117787 0 0 0 -0.03125,-0.03125 0.25117787,0.25117787 0 0 0 -0.03125,-0.03125 0.25117787,0.25117787 0 0 0 -0.09375,-0.03125 0.25117787,0.25117787 0 0 0 -0.0625,0 0.25117787,0.25117787 0 0 0 -0.03125,0 0.25117787,0.25117787 0 0 0 -0.03125,0 z m -5.0625003,0.09375 a 0.25117787,0.25117787 0 0 0 -0.03125,0.03125 0.25117787,0.25117787 0 0 0 -0.09375,0.09375 0.25117787,0.25117787 0 0 0 -0.03125,0.09375 0.25117787,0.25117787 0 0 0 0,0.0625 0.25117787,0.25117787 0 0 0 0.03125,0.09375 l 1.6875,3.375 a 0.25117787,0.25117787 0 0 0 0.09375,0.09375 0.25117787,0.25117787 0 0 0 0.0625,0.03125 0.25117787,0.25117787 0 0 0 0.0625,0 0.25117787,0.25117787 0 0 0 0.0625,0 0.25117787,0.25117787 0 0 0 0.09375,-0.03125 0.25117787,0.25117787 0 0 0 0.0625,-0.0625 0.25117787,0.25117787 0 0 0 0.03125,-0.0625 0.25117787,0.25117787 0 0 0 0,-0.0625 0.25117787,0.25117787 0 0 0 0,-0.0625 0.25117787,0.25117787 0 0 0 -0.03125,-0.0625 l -1.6875003,-3.375 a 0.25117787,0.25117787 0 0 0 -0.03125,-0.0625 0.25117787,0.25117787 0 0 0 -0.03125,-0.03125 0.25117787,0.25117787 0 0 0 -0.03125,-0.03125 0.25117787,0.25117787 0 0 0 -0.09375,-0.03125 0.25117787,0.25117787 0 0 0 -0.0625,0 0.25117787,0.25117787 0 0 0 -0.03125,0 0.25117787,0.25117787 0 0 0 -0.03125,0 z m 6.1875003,3.96875 c -0.502814,0 -0.920331,0.3849229 -0.96875,0.875 a 0.25117787,0.25117787 0 0 0 -0.03125,-0.03125 0.25117787,0.25117787 0 0 0 -0.09375,-0.09375 0.25117787,0.25117787 0 0 0 -0.09375,-0.03125 c 0,0 -0.348968,-0.012152 -0.75,0 -0.401032,0.012152 -0.853962,0.018627 -1.1875,0.21875 a 0.25117787,0.25117787 0 0 0 -0.03125,0.03125 0.25117787,0.25117787 0 0 0 -0.03125,0.03125 0.25117787,0.25117787 0 0 0 -0.03125,0.03125 0.25117787,0.25117787 0 0 0 -0.03125,0.09375 0.25117787,0.25117787 0 0 0 0,0.0625 0.25117787,0.25117787 0 0 0 0.03125,0.09375 0.25117787,0.25117787 0 0 0 0.09375,0.09375 0.25117787,0.25117787 0 0 0 0.0625,0.03125 0.25117787,0.25117787 0 0 0 0.0625,0 0.25117787,0.25117787 0 0 0 0.03125,0 0.25117787,0.25117787 0 0 0 0.09375,-0.03125 c 0.135068,-0.081041 0.565334,-0.1449726 0.9375,-0.15625 0.372166,-0.011277 0.71875,0 0.71875,0 a 0.25117787,0.25117787 0 0 0 0.0625,0 0.25117787,0.25117787 0 0 0 0.03125,0 0.25117787,0.25117787 0 0 0 0.09375,-0.0625 0.25117787,0.25117787 0 0 0 0.03125,-0.0625 0.25117787,0.25117787 0 0 0 0.03125,-0.03125 c 0.0454,0.4595252 0.414993,0.831246 0.875,0.875 a 0.25117787,0.25117787 0 0 0 -0.03125,0.03125 0.25117787,0.25117787 0 0 0 -0.09375,0.09375 0.25117787,0.25117787 0 0 0 -0.03125,0.0625 l -1.03125,3.1875003 a 0.25117787,0.25117787 0 0 0 0,0.0625 0.25117787,0.25117787 0 0 0 0,0.0625 0.25117787,0.25117787 0 0 0 0.125,0.15625 0.25117787,0.25117787 0 0 0 0.0625,0.03125 0.25117787,0.25117787 0 0 0 0.0625,0 0.25117787,0.25117787 0 0 0 0.0625,0 0.25117787,0.25117787 0 0 0 0.125,-0.0625 0.25117787,0.25117787 0 0 0 0.03125,-0.03125 0.25117787,0.25117787 0 0 0 0.03125,-0.0625 l 1.03125,-3.1875003 a 0.25117787,0.25117787 0 0 0 0,-0.0625 0.25117787,0.25117787 0 0 0 0,-0.0625 0.25117787,0.25117787 0 0 0 -0.03125,-0.09375 0.25117787,0.25117787 0 0 0 -0.09375,-0.09375 0.25117787,0.25117787 0 0 0 -0.03125,-0.03125 c 0.49177,-0.046775 0.875,-0.4647281 0.875,-0.96875 0,-0.5353673 -0.433383,-0.96875 -0.96875,-0.96875 z m -4.25,0.25 c -0.5353703,0 -0.9687503,0.4333827 -0.9687503,0.96875 0,0.53537 0.43338,0.96875 0.9687503,0.96875 0.535367,0 0.96875,-0.43338 0.96875,-0.96875 0,-0.5353673 -0.433383,-0.96875 -0.96875,-0.96875 z m -6.0937503,0.71875 c -0.177015,0.00656 -0.2730096,0.010851 -0.375,0.03125 a 0.25117787,0.25117787 0 0 0 -0.09375,0.03125 0.25117787,0.25117787 0 0 0 -0.09375,0.09375 0.25117787,0.25117787 0 0 0 -0.03125,0.09375 0.25117787,0.25117787 0 0 0 0,0.0625 0.25117787,0.25117787 0 0 0 0.03125,0.09375 0.25117787,0.25117787 0 0 0 0.09375,0.09375 0.25117787,0.25117787 0 0 0 0.0625,0.03125 0.25117787,0.25117787 0 0 0 0.0625,0 0.25117787,0.25117787 0 0 0 0.0625,0 c 0.01516,-0.00303 0.1435533,-0.024993 0.3125,-0.03125 0.1689467,-0.00626 0.3737855,0.00218 0.625,0 0.5024291,-0.00437 1.1357917,-0.00585 1.75,0 1.2284165,0.011699 2.40625,0.03125 2.40625,0.03125 a 0.25117787,0.25117787 0 0 0 0.0625,0 0.25117787,0.25117787 0 0 0 0.125,-0.0625 0.25117787,0.25117787 0 0 0 0.03125,-0.03125 0.25117787,0.25117787 0 0 0 0.03125,-0.0625 0.25117787,0.25117787 0 0 0 0,-0.0625 0.25117787,0.25117787 0 0 0 0,-0.0625 0.25117787,0.25117787 0 0 0 -0.03125,-0.09375 0.25117787,0.25117787 0 0 0 -0.09375,-0.09375 0.25117787,0.25117787 0 0 0 -0.0625,-0.03125 0.25117787,0.25117787 0 0 0 -0.0625,0 c 0,0 -1.1744927,-0.019519 -2.40625,-0.03125 -0.6158786,-0.00587 -1.2420008,-0.00442 -1.75,0 -0.2539996,0.00221 -0.479235,-0.00656 -0.65625,0 z m 5.8125003,1.34375 a 0.25117787,0.25117787 0 0 0 -0.03125,0.0625 0.25117787,0.25117787 0 0 0 -0.03125,0.03125 0.25117787,0.25117787 0 0 0 -0.03125,0.0625 l -1.125,2.90625 a 0.25117787,0.25117787 0 0 0 -0.03125,0.09375 0.25117787,0.25117787 0 0 0 0,0.0625 0.25117787,0.25117787 0 0 0 0.0625,0.09375 0.25117787,0.25117787 0 0 0 0.03125,0.03125 0.25117787,0.25117787 0 0 0 0.03125,0.03125 0.25117787,0.25117787 0 0 0 0.125,0.03125 0.25117787,0.25117787 0 0 0 0.0625,0 0.25117787,0.25117787 0 0 0 0.0625,-0.03125 0.25117787,0.25117787 0 0 0 0.0625,-0.03125 0.25117787,0.25117787 0 0 0 0.03125,-0.0625 0.25117787,0.25117787 0 0 0 0.03125,-0.03125 l 1.1250003,-2.90625 a 0.25117787,0.25117787 0 0 0 0,-0.0625 0.25117787,0.25117787 0 0 0 0,-0.0625 0.25117787,0.25117787 0 0 0 0,-0.03125 0.25117787,0.25117787 0 0 0 -0.125,-0.1562503 0.25117787,0.25117787 0 0 0 -0.09375,-0.03125 0.25117787,0.25117787 0 0 0 -0.0625,0 0.25117787,0.25117787 0 0 0 -0.0625,0 0.25117787,0.25117787 0 0 0 -0.03125,0 z M 2.6816737,10.061441 a 0.25117787,0.25117787 0 0 0 -0.03125,0.03125 0.25117787,0.25117787 0 0 0 -0.0625,0.03125 0.25117787,0.25117787 0 0 0 -0.03125,0.03125 0.25117787,0.25117787 0 0 0 -0.03125,0.03125 0.25117787,0.25117787 0 0 0 -0.03125,0.125 l -0.09375,2.4375 a 0.25117787,0.25117787 0 0 0 0,0.03125 0.25117787,0.25117787 0 0 0 0.03125,0.09375 0.25117787,0.25117787 0 0 0 0.09375,0.09375 0.25117787,0.25117787 0 0 0 0.03125,0.03125 c -0.4364241,0.09443 -0.78125,0.472813 -0.78125,0.9375 0,0.53537 0.4646302,1 1,1 0.5353673,0 0.96875,-0.46463 0.96875,-1 0,-0.52487 -0.4166527,-0.95219 -0.9375,-0.96875 a 0.25117787,0.25117787 0 0 0 0.03125,-0.03125 0.25117787,0.25117787 0 0 0 0.03125,-0.03125 0.25117787,0.25117787 0 0 0 0.03125,-0.0625 0.25117787,0.25117787 0 0 0 0,-0.0625 0.25117787,0.25117787 0 0 0 0,-0.03125 l 0.09375,-2.4375 a 0.25117787,0.25117787 0 0 0 0,-0.0625 0.25117787,0.25117787 0 0 0 -0.125,-0.15625 0.25117787,0.25117787 0 0 0 -0.125,-0.03125 0.25117787,0.25117787 0 0 0 -0.0625,0 z m 5.65625,3.1875 c -0.4920891,0 -0.9062497,0.368726 -0.96875,0.84375 a 0.25117787,0.25117787 0 0 0 -0.0625,-0.03125 0.25117787,0.25117787 0 0 0 -0.03125,-0.03125 0.25117787,0.25117787 0 0 0 -0.125,-0.03125 0.25117787,0.25117787 0 0 0 -0.0625,0 c 9.147e-4,-2.29e-4 -0.087459,0.03006 -0.1875,0.03125 -0.1000408,0.0012 -0.2285207,-0.02479 -0.375,-0.03125 -0.2929586,-0.01292 -0.6503879,-0.03337 -1,-0.0625 -0.6992242,-0.05827 -1.34375,-0.125 -1.34375,-0.125 a 0.25117787,0.25117787 0 0 0 -0.0625,0 0.25117787,0.25117787 0 0 0 -0.03125,0 0.25117787,0.25117787 0 0 0 -0.0625,0.03125 0.25117787,0.25117787 0 0 0 -0.09375,0.09375 0.25117787,0.25117787 0 0 0 -0.03125,0.09375 0.25117787,0.25117787 0 0 0 0,0.0625 0.25117787,0.25117787 0 0 0 0.03125,0.09375 0.25117787,0.25117787 0 0 0 0.0625,0.0625 0.25117787,0.25117787 0 0 0 0.03125,0.03125 0.25117787,0.25117787 0 0 0 0.09375,0.03125 c 0,0 0.6684111,0.06612 1.375,0.125 0.3532945,0.02944 0.726738,0.04907 1.03125,0.0625 0.152256,0.0067 0.2910257,0.03262 0.40625,0.03125 0.1152243,-0.0014 0.1866145,-0.0076 0.28125,-0.03125 a 0.25117787,0.25117787 0 0 0 0.0625,-0.03125 0.25117787,0.25117787 0 0 0 0.09375,-0.0625 0.25117787,0.25117787 0 0 0 0.03125,-0.03125 c 0.078118,0.457025 0.4581993,0.8125 0.9375,0.8125 0.5353673,0 0.96875,-0.43338 0.96875,-0.96875 0,-0.535367 -0.4333827,-0.96875 -0.96875,-0.96875 z m 4.7500003,0 c -0.53537,0 -0.96875,0.433383 -0.96875,0.96875 0,0.02099 -0.0013,0.04184 0,0.0625 a 0.25117787,0.25117787 0 0 0 -0.0625,-0.0625 0.25117787,0.25117787 0 0 0 -0.09375,-0.03125 0.25117787,0.25117787 0 0 0 -0.03125,0 l -2.3437503,0 a 0.25117787,0.25117787 0 0 0 -0.03125,0 0.25117787,0.25117787 0 0 0 -0.03125,0 0.25117787,0.25117787 0 0 0 -0.0625,0.03125 0.25117787,0.25117787 0 0 0 -0.09375,0.09375 0.25117787,0.25117787 0 0 0 -0.03125,0.09375 0.25117787,0.25117787 0 0 0 0,0.0625 0.25117787,0.25117787 0 0 0 0.03125,0.09375 0.25117787,0.25117787 0 0 0 0.09375,0.09375 0.25117787,0.25117787 0 0 0 0.125,0.03125 l 2.3437503,0 a 0.25117787,0.25117787 0 0 0 0.0625,0 0.25117787,0.25117787 0 0 0 0.0625,-0.03125 0.25117787,0.25117787 0 0 0 0.0625,-0.03125 0.25117787,0.25117787 0 0 0 0.03125,-0.0625 0.25117787,0.25117787 0 0 0 0.03125,-0.03125 c 0.130717,0.380803 0.481103,0.65625 0.90625,0.65625 0.535367,0 0.96875,-0.43338 0.96875,-0.96875 0,-0.535367 -0.433383,-0.96875 -0.96875,-0.96875 z"
     id="path4285"
     style="color:#000000;fill:#000000;fill-opacity:1;fill-rule:nonzero;stroke:none;stroke-width:2;marker:none;visibility:visible;display:inline;overflow:visible;enable-background:accumulate"
     inkscape:connector-curvature="0" />
  <g
     transform="translate(0,-1036.3622)"
     id="layer1"
     style="opacity:0.47976882;display:none">
    <image
       xlink:href="file:///mnt/6A0F06C454D4F476/One-offs/MyPaint/scrap009_a.png"
       x="-574.85712"
       y="61.505039"
       width="1344"
       height="896"
       id="image3082" />
  </g>
  <g
     transform="translate(0,-1036.3622)"
     id="layer2" />
  <path
     d="m 2.6167008,2.3686839 a 0.96936872,0.96936872 0 1 1 -1.93873611,0 0.96936872,0.96936872 0 1 1 1.93873611,0 z"
     id="use3932"
     style="color:#000000;fill:#ffffff;fill-opacity:1;fill-rule:nonzero;stroke:none;stroke-width:2;marker:none;visibility:visible;display:inline;overflow:visible;enable-background:accumulate"
     inkscape:connector-curvature="0" />
  <path
     d="m 8.0508958,1.8385339 a 0.96936872,0.96936872 0 1 1 -1.9387361,0 0.96936872,0.96936872 0 1 1 1.9387361,0 z"
     id="use3934"
     style="color:#000000;fill:#ffffff;fill-opacity:1;fill-rule:nonzero;stroke:none;stroke-width:2;marker:none;visibility:visible;display:inline;overflow:visible;enable-background:accumulate"
     inkscape:connector-curvature="0" />
  <path
     d="m 12.954926,1.7060039 a 0.96936872,0.96936872 0 1 1 -1.938736,0 0.96936872,0.96936872 0 1 1 1.938736,0 z"
     id="use3936"
     style="color:#000000;fill:#ffffff;fill-opacity:1;fill-rule:nonzero;stroke:none;stroke-width:2;marker:none;visibility:visible;display:inline;overflow:visible;enable-background:accumulate"
     inkscape:connector-curvature="0" />
  <path
     d="m 14.677963,7.6703639 a 0.96936872,0.96936872 0 1 1 -1.938736,0 0.96936872,0.96936872 0 1 1 1.938736,0 z"
     id="use3938"
     style="color:#000000;fill:#ffffff;fill-opacity:1;fill-rule:nonzero;stroke:none;stroke-width:2;marker:none;visibility:visible;display:inline;overflow:visible;enable-background:accumulate"
     inkscape:connector-curvature="0" />
  <path
     d="m 10.436641,7.9354339 a 0.96936872,0.96936872 0 1 1 -1.9387363,0 0.96936872,0.96936872 0 1 1 1.9387363,0 z"
     id="use3940"
     style="color:#000000;fill:#ffffff;fill-opacity:1;fill-rule:nonzero;stroke:none;stroke-width:2;marker:none;visibility:visible;display:inline;overflow:visible;enable-background:accumulate"
     inkscape:connector-curvature="0" />
  <path
     d="m 2.7492418,8.2005039 a 0.96936872,0.96936872 0 1 1 -1.93873611,0 0.96936872,0.96936872 0 1 1 1.93873611,0 z"
     id="use3942"
     style="color:#000000;fill:#ffffff;fill-opacity:1;fill-rule:nonzero;stroke:none;stroke-width:2;marker:none;visibility:visible;display:inline;overflow:visible;enable-background:accumulate"
     inkscape:connector-curvature="0" />
  <path
     d="m 2.8817848,13.104544 a 0.96936872,0.96936872 0 1 1 -1.93873611,0 0.96936872,0.96936872 0 1 1 1.93873611,0 z"
     id="use3944"
     style="color:#000000;fill:#ffffff;fill-opacity:1;fill-rule:nonzero;stroke:none;stroke-width:2;marker:none;visibility:visible;display:inline;overflow:visible;enable-background:accumulate"
     inkscape:connector-curvature="0" />
  <path
     d="m 8.4485208,13.369614 a 0.96936872,0.96936872 0 1 1 -1.9387361,0 0.96936872,0.96936872 0 1 1 1.9387361,0 z"
     id="use3946"
     style="color:#000000;fill:#ffffff;fill-opacity:1;fill-rule:nonzero;stroke:none;stroke-width:2;marker:none;visibility:visible;display:inline;overflow:visible;enable-background:accumulate"
     inkscape:connector-curvature="0" />
  <path
     d="m 13.220009,13.369614 a 0.96936872,0.96936872 0 1 1 -1.938736,0 0.96936872,0.96936872 0 1 1 1.938736,0 z"
     id="use3948"
     style="color:#000000;fill:#ffffff;fill-opacity:1;fill-rule:nonzero;stroke:none;stroke-width:2;marker:none;visibility:visible;display:inline;overflow:visible;enable-background:accumulate"
     inkscape:connector-curvature="0" />
  <path
     d="m 3.2148529,1.9701846 2.5304646,-0.09372"
     id="path3996"
     style="fill:none;stroke:#ffffff;stroke-width:0.50230551000000001;stroke-linecap:round;stroke-linejoin:miter;stroke-miterlimit:4;stroke-opacity:1;stroke-dasharray:none"
     inkscape:connector-curvature="0" />
  <path
     d="M 8.4632249,1.595304 10.712524,1.5015813"
     id="path3998"
     style="fill:none;stroke:#ffffff;stroke-width:0.50230551000000001;stroke-linecap:round;stroke-linejoin:miter;stroke-miterlimit:4;stroke-opacity:1;stroke-dasharray:none"
     inkscape:connector-curvature="0" />
  <path
     d="m 12.680662,2.9073939 0.93721,3.4676738"
     id="path4000"
     style="fill:none;stroke:#ffffff;stroke-width:0.50230551000000001;stroke-linecap:round;stroke-linejoin:miter;stroke-miterlimit:4;stroke-opacity:1;stroke-dasharray:none"
     inkscape:connector-curvature="0" />
  <path
     d="m 13.711592,8.9055301 -1.03093,3.1865109"
     id="path4002"
     style="fill:none;stroke:#ffffff;stroke-width:0.50230551000000001;stroke-linecap:round;stroke-linejoin:miter;stroke-miterlimit:4;stroke-opacity:1;stroke-dasharray:none"
     inkscape:connector-curvature="0" />
  <path
     d="m 11.087407,13.591576 -2.3430216,0"
     id="path4004"
     style="fill:none;stroke:#ffffff;stroke-width:0.50230551000000001;stroke-linecap:round;stroke-linejoin:miter;stroke-miterlimit:4;stroke-opacity:1;stroke-dasharray:none"
     inkscape:connector-curvature="0" />
  <path
     d="M 6.3076435,13.404133 C 5.9327603,13.497853 3.3085756,13.21669 3.3085756,13.21669"
     id="path4006"
     style="fill:none;stroke:#ffffff;stroke-width:0.50230551000000001;stroke-linecap:round;stroke-linejoin:miter;stroke-miterlimit:4;stroke-opacity:1;stroke-dasharray:none"
     inkscape:connector-curvature="0" />
  <path
     d="m 1.8090403,11.9046 0.09372,-2.4367439"
     id="path4008"
     style="fill:none;stroke:#ffffff;stroke-width:0.50230551000000001;stroke-linecap:round;stroke-linejoin:miter;stroke-miterlimit:4;stroke-opacity:1;stroke-dasharray:none"
     inkscape:connector-curvature="0" />
  <path
     d="M 2.1839235,7.124834 1.9964832,3.56344"
     id="path4010"
     style="fill:none;stroke:#ffffff;stroke-width:0.50230551000000001;stroke-linecap:round;stroke-linejoin:miter;stroke-miterlimit:4;stroke-opacity:1;stroke-dasharray:none"
     inkscape:connector-curvature="0" />
  <path
     d="m 3.0274126,7.9683232 c 0.4686033,-0.093723 5.1546493,0 5.1546493,0"
     id="path4012"
     style="fill:none;stroke:#ffffff;stroke-width:0.50230551000000001;stroke-linecap:round;stroke-linejoin:miter;stroke-miterlimit:4;stroke-opacity:1;stroke-dasharray:none"
     inkscape:connector-curvature="0" />
  <path
     d="M 10.712524,7.8746005 C 11.18113,7.5934374 12.493222,7.68716 12.493222,7.68716"
     id="path4014"
     style="fill:none;stroke:#ffffff;stroke-width:0.50230551000000001;stroke-linecap:round;stroke-linejoin:miter;stroke-miterlimit:4;stroke-opacity:1;stroke-dasharray:none"
     inkscape:connector-curvature="0" />
  <path
     d="M 9.306709,9.2804151 8.1820619,12.185761"
     id="path4016"
     style="fill:#ffffff;stroke:#ffffff;stroke-width:0.50230551000000001;stroke-linecap:round;stroke-linejoin:miter;stroke-miterlimit:4;stroke-opacity:1;stroke-dasharray:none"
     inkscape:connector-curvature="0" />
  <path
     d="M 9.3067115,6.3750677 7.6197359,3.0011165"
     id="path4018"
     style="fill:#ffffff;stroke:#ffffff;stroke-width:0.50230551000000001;stroke-linecap:round;stroke-linejoin:miter;stroke-miterlimit:4;stroke-opacity:1;stroke-dasharray:none"
     inkscape:connector-curvature="0" />
</svg>
