<?xml version="1.0" encoding="UTF-8" standalone="no"?>
<!-- Created with Inkscape (http://www.inkscape.org/) -->

<svg
   xmlns:dc="http://purl.org/dc/elements/1.1/"
   xmlns:cc="http://creativecommons.org/ns#"
   xmlns:rdf="http://www.w3.org/1999/02/22-rdf-syntax-ns#"
   xmlns:svg="http://www.w3.org/2000/svg"
   xmlns="http://www.w3.org/2000/svg"
   xmlns:xlink="http://www.w3.org/1999/xlink"
   xmlns:sodipodi="http://sodipodi.sourceforge.net/DTD/sodipodi-0.dtd"
   xmlns:inkscape="http://www.inkscape.org/namespaces/inkscape"
   version="1.1"
   width="16"
   height="16"
   id="svg2"
   inkscape:version="0.48.4 r9939"
   sodipodi:docname="transform_icons_perspective_light.svg"
   inkscape:export-filename="/home/wolthera/Pictures/transform_icons_perspective_light.png"
   inkscape:export-xdpi="90"
   inkscape:export-ydpi="90">
  <sodipodi:namedview
     pagecolor="#7a7a7a"
     bordercolor="#666666"
     borderopacity="1"
     objecttolerance="10"
     gridtolerance="10"
     guidetolerance="10"
     inkscape:pageopacity="0"
     inkscape:pageshadow="2"
     inkscape:window-width="640"
     inkscape:window-height="480"
     id="namedview17"
     showgrid="false"
     inkscape:zoom="14.75"
     inkscape:cx="8"
     inkscape:cy="8"
     inkscape:window-x="0"
     inkscape:window-y="27"
     inkscape:window-maximized="0"
     inkscape:current-layer="svg2" />
  <defs
     id="defs4" />
  <metadata
     id="metadata7">
    <rdf:RDF>
      <cc:Work
         rdf:about="">
        <dc:format>image/svg+xml</dc:format>
        <dc:type
           rdf:resource="http://purl.org/dc/dcmitype/StillImage" />
        <dc:title></dc:title>
      </cc:Work>
    </rdf:RDF>
  </metadata>
  <path
     d="m 8.6710805,5.9205508 c -0.5104045,0 -0.9375,0.3958479 -0.9375,0.90625 0,0.5104045 0.4270955,0.9375 0.9375,0.9375 0.5104021,0 0.90625,-0.4270955 0.90625,-0.9375 0,-0.5104021 -0.3958479,-0.90625 -0.90625,-0.90625 z m -1.59375,1.125 c 0,0 -0.915519,0.4309502 -1.875,0.84375 -0.4797405,0.2063999 -0.9518145,0.3998886 -1.34375,0.5625 -0.1959678,0.081306 -0.3682684,0.136005 -0.5,0.1875 -0.1317316,0.051495 -0.2406243,0.091406 -0.25,0.09375 a 0.23946501,0.23946501 0 0 0 -0.0625,0.03125 0.23946501,0.23946501 0 0 0 -0.03125,0.03125 0.23946501,0.23946501 0 0 0 -0.0625,0.0625 0.23946501,0.23946501 0 0 0 -0.03125,0.0625 0.23946501,0.23946501 0 0 0 0,0.0625 0.23946501,0.23946501 0 0 0 0,0.03125 c -0.1641771,-0.1494389 -0.3542536,-0.25 -0.59375,-0.25 -0.5104045,0 -0.9375,0.427098 -0.9375,0.9375 0,0.5104052 0.4270955,0.9062502 0.9375,0.9062502 0.5104021,0 0.90625,-0.395845 0.90625,-0.9062502 0,-0.183548 -0.06398,-0.356196 -0.15625,-0.5 a 0.23946501,0.23946501 0 0 0 0.0625,0 0.23946501,0.23946501 0 0 0 0.03125,0 0.23946501,0.23946501 0 0 0 0.0625,0 c 0.079975,-0.019994 0.1442319,-0.040188 0.28125,-0.09375 0.1370181,-0.053562 0.333517,-0.1367119 0.53125,-0.21875 0.395466,-0.1640762 0.8629723,-0.3556539 1.34375,-0.5625 0.9615555,-0.4136922 1.875,-0.84375 1.875,-0.84375 a 0.23946501,0.23946501 0 0 0 0.03125,0 0.23946501,0.23946501 0 0 0 0.09375,-0.0625 0.23946501,0.23946501 0 0 0 0.03125,-0.09375 0.23946501,0.23946501 0 0 0 0,-0.0625 0.23946501,0.23946501 0 0 0 0,-0.03125 0.23946501,0.23946501 0 0 0 -0.03125,-0.0625 0.23946501,0.23946501 0 0 0 -0.03125,-0.0625 0.23946501,0.23946501 0 0 0 -0.09375,-0.0625 0.23946501,0.23946501 0 0 0 -0.03125,0 0.23946501,0.23946501 0 0 0 -0.0625,0 0.23946501,0.23946501 0 0 0 -0.03125,0 0.23946501,0.23946501 0 0 0 -0.0625,0 z m 2.6875,0.09375 a 0.23946501,0.23946501 0 0 0 -0.03125,0.03125 0.23946501,0.23946501 0 0 0 -0.09375,0.09375 0.23946501,0.23946501 0 0 0 -0.03125,0.09375 0.23946501,0.23946501 0 0 0 0,0.03125 0.23946501,0.23946501 0 0 0 0.03125,0.0625 0.23946501,0.23946501 0 0 0 0.03125,0.0625 0.23946501,0.23946501 0 0 0 0.03125,0.03125 0.23946501,0.23946501 0 0 0 0.09375,0.0625 0.23946501,0.23946501 0 0 0 0.0625,0 c -0.01519,0 0.0763,0.00345 0.1874995,0.03125 0.111199,0.0278 0.272072,0.075372 0.4375,0.125 0.330856,0.099257 0.724185,0.241395 1.125,0.375 0.801631,0.2672099 1.5625,0.53125 1.5625,0.53125 a 0.23946501,0.23946501 0 0 0 0.0625,0 0.23946501,0.23946501 0 0 0 0.03125,0 0.23946501,0.23946501 0 0 0 0.0625,0 0.23946501,0.23946501 0 0 0 0.03125,0 0.23946501,0.23946501 0 0 0 0.125,-0.15625 0.23946501,0.23946501 0 0 0 0,-0.09375 0.23946501,0.23946501 0 0 0 0,-0.03125 0.23946501,0.23946501 0 0 0 0,-0.03125 0.23946501,0.23946501 0 0 0 -0.03125,-0.0625 0.23946501,0.23946501 0 0 0 -0.03125,-0.03125 0.23946501,0.23946501 0 0 0 -0.03125,-0.03125 0.23946501,0.23946501 0 0 0 -0.0625,-0.03125 c 0,0 -0.755821,-0.2623574 -1.5625,-0.53125 -0.403339,-0.1344463 -0.816978,-0.2732183 -1.15625,-0.375 -0.169636,-0.050891 -0.314155,-0.094164 -0.4375,-0.125 -0.123345,-0.030836 -0.2079635,-0.03125 -0.3124995,-0.03125 a 0.23946501,0.23946501 0 0 0 -0.03125,0 0.23946501,0.23946501 0 0 0 -0.0625,0 z m 4.6874995,1.09375 c -0.510405,0 -0.90625,0.4270979 -0.90625,0.9375 0,0.183549 0.06398,0.324945 0.15625,0.46875 a 0.23946501,0.23946501 0 0 0 -0.0625,0 0.23946501,0.23946501 0 0 0 -0.0625,0 0.23946501,0.23946501 0 0 0 -0.03125,0 0.23946501,0.23946501 0 0 0 -0.03125,0 L 9.8585805,11.358051 a 0.23946501,0.23946501 0 0 0 -0.0625,0.03125 0.23946501,0.23946501 0 0 0 -0.03125,0.03125 0.23946501,0.23946501 0 0 0 -0.03125,0.03125 0.23946501,0.23946501 0 0 0 -0.03125,0.09375 0.23946501,0.23946501 0 0 0 0,0.03125 0.23946501,0.23946501 0 0 0 0.03125,0.0625 0.23946501,0.23946501 0 0 0 0.09375,0.125 0.23946501,0.23946501 0 0 0 0.0625,0.03125 0.23946501,0.23946501 0 0 0 0.0625,0 0.23946501,0.23946501 0 0 0 0.03125,0 0.23946501,0.23946501 0 0 0 0.062499,0 l 3.65625,-1.71875 a 0.23946501,0.23946501 0 0 0 0.125,-0.09375 0.23946501,0.23946501 0 0 0 0.03125,-0.09375 0.23946501,0.23946501 0 0 0 0,-0.0625 c 0.164177,0.149439 0.354252,0.25 0.59375,0.25 0.510402,0 0.9375,-0.395845 0.9375,-0.90625 0,-0.5104021 -0.427098,-0.9375 -0.9375,-0.9375 z M 3.5148305,10.076801 a 0.23946501,0.23946501 0 0 0 -0.125,0.125 0.23946501,0.23946501 0 0 0 0,0.03125 0.23946501,0.23946501 0 0 0 0,0.125 0.23946501,0.23946501 0 0 0 0,0.03125 0.23946501,0.23946501 0 0 0 0.125,0.15625 l 3.75,1.4375 a 0.23946501,0.23946501 0 0 0 0.0625,0 0.23946501,0.23946501 0 0 0 0.03125,0 0.23946501,0.23946501 0 0 0 0.0625,0 0.23946501,0.23946501 0 0 0 0.0625,-0.03125 0.23946501,0.23946501 0 0 0 0.09375,-0.09375 0.23946501,0.23946501 0 0 0 0.03125,-0.0625 0.23946501,0.23946501 0 0 0 0,-0.0625 0.23946501,0.23946501 0 0 0 0,-0.03125 0.23946501,0.23946501 0 0 0 0,-0.03125 0.23946501,0.23946501 0 0 0 -0.09375,-0.125 0.23946501,0.23946501 0 0 0 -0.0625,-0.03125 l -3.75,-1.40625 a 0.23946501,0.23946501 0 0 0 -0.0625,-0.03125 0.23946501,0.23946501 0 0 0 -0.0625,0 0.23946501,0.23946501 0 0 0 -0.03125,0 0.23946501,0.23946501 0 0 0 -0.03125,0 z m 5.15625,1.0625 c -0.5104045,0 -0.9375,0.395848 -0.9375,0.90625 0,0.510405 0.4270955,0.9375 0.9375,0.9375 0.5104021,0 0.90625,-0.427095 0.90625,-0.9375 0,-0.510402 -0.3958479,-0.90625 -0.90625,-0.90625 z"
     id="path4229"
     style="color:#000000;fill:#000000;fill-opacity:1;fill-rule:nonzero;stroke:none;stroke-width:2;marker:none;visibility:visible;display:inline;overflow:visible;enable-background:accumulate"
     inkscape:connector-curvature="0" />
  <g
     transform="translate(0,-1036.3622)"
     id="layer1"
     style="opacity:0.47976882;display:none">
    <image
       xlink:href="file:///mnt/6A0F06C454D4F476/One-offs/MyPaint/scrap009_a.png"
       x="-574.85712"
       y="61.505039"
       width="1344"
       height="896"
       id="image3082" />
  </g>
  <g
     transform="translate(0,-1036.3622)"
     id="layer2" />
  <path
     d="m 8.8023818,5.8488235 a 0.9241653,0.9241653 0 1 1 -1.8483293,0 0.9241653,0.9241653 0 1 1 1.8483293,0 z"
     id="use3924"
     style="color:#000000;fill:#ffffff;fill-opacity:1;fill-rule:nonzero;stroke:none;stroke-width:2;marker:none;visibility:visible;display:inline;overflow:visible;enable-background:accumulate"
     inkscape:connector-curvature="0" />
  <path
     d="m 14.610166,8.1719335 a 0.9241653,0.9241653 0 1 1 -1.84833,0 0.9241653,0.9241653 0 1 1 1.84833,0 z"
     id="use3926"
     style="color:#000000;fill:#ffffff;fill-opacity:1;fill-rule:nonzero;stroke:none;stroke-width:2;marker:none;visibility:visible;display:inline;overflow:visible;enable-background:accumulate"
     inkscape:connector-curvature="0" />
  <path
     d="m 8.8023818,11.075834 a 0.9241653,0.9241653 0 1 1 -1.8483293,0 0.9241653,0.9241653 0 1 1 1.8483293,0 z"
     id="use3928"
     style="color:#000000;fill:#ffffff;fill-opacity:1;fill-rule:nonzero;stroke:none;stroke-width:2;marker:none;visibility:visible;display:inline;overflow:visible;enable-background:accumulate"
     inkscape:connector-curvature="0" />
  <path
     d="m 2.4584968,8.7080535 a 0.9241653,0.9241653 0 1 1 -1.84832934,0 0.9241653,0.9241653 0 1 1 1.84832934,0 z"
     id="use3930"
     style="color:#000000;fill:#ffffff;fill-opacity:1;fill-rule:nonzero;stroke:none;stroke-width:2;marker:none;visibility:visible;display:inline;overflow:visible;enable-background:accumulate"
     inkscape:connector-curvature="0" />
  <path
     d="m 9.0844525,6.384957 c 0.357401,0 3.3953185,1.072205 3.3953185,1.072205"
     id="path3988"
     style="fill:none;stroke:#ffffff;stroke-width:0.47888213000000002;stroke-linecap:round;stroke-linejoin:miter;stroke-miterlimit:4;stroke-opacity:1;stroke-dasharray:none"
     inkscape:connector-curvature="0" />
  <path
     d="M 12.837173,8.886771 9.1738025,10.58443"
     id="path3990"
     style="fill:none;stroke:#ffffff;stroke-width:0.47888213000000002;stroke-linecap:round;stroke-linejoin:miter;stroke-miterlimit:4;stroke-opacity:1;stroke-dasharray:none"
     inkscape:connector-curvature="0" />
  <path
     d="M 6.5826375,10.763132 2.8299165,9.333523"
     id="path3992"
     style="fill:none;stroke:#ffffff;stroke-width:0.47888213000000002;stroke-linecap:round;stroke-linejoin:miter;stroke-miterlimit:4;stroke-opacity:1;stroke-dasharray:none"
     inkscape:connector-curvature="0" />
  <path
     d="m 2.3831645,7.993266 c 0.357402,-0.08935 4.020774,-1.697659 4.020774,-1.697659"
     id="path3994"
     style="fill:none;stroke:#ffffff;stroke-width:0.47888213000000002;stroke-linecap:round;stroke-linejoin:miter;stroke-miterlimit:4;stroke-opacity:1;stroke-dasharray:none"
     inkscape:connector-curvature="0" />
</svg>
