<?xml version="1.0" encoding="UTF-8" standalone="no"?>
<!-- Created with Inkscape (http://www.inkscape.org/) -->

<svg
   xmlns:dc="http://purl.org/dc/elements/1.1/"
   xmlns:cc="http://creativecommons.org/ns#"
   xmlns:rdf="http://www.w3.org/1999/02/22-rdf-syntax-ns#"
   xmlns:svg="http://www.w3.org/2000/svg"
   xmlns="http://www.w3.org/2000/svg"
   xmlns:xlink="http://www.w3.org/1999/xlink"
   xmlns:sodipodi="http://sodipodi.sourceforge.net/DTD/sodipodi-0.dtd"
   xmlns:inkscape="http://www.inkscape.org/namespaces/inkscape"
   width="16"
   height="16"
   id="svg2"
   version="1.1"
   inkscape:version="0.48.4 r9939"
   sodipodi:docname="transform_icons_liquify_main_light.svg"
   inkscape:export-filename="/home/wolthera/Pictures/transform_icons_liquify_main_light.png"
   inkscape:export-xdpi="90"
   inkscape:export-ydpi="90">
  <defs
     id="defs4" />
  <sodipodi:namedview
     id="base"
     pagecolor="#777777"
     bordercolor="#666666"
     borderopacity="1.0"
     inkscape:pageopacity="0"
     inkscape:pageshadow="2"
     inkscape:zoom="16.340215"
     inkscape:cx="8.955908"
     inkscape:cy="7.4485943"
     inkscape:document-units="px"
     inkscape:current-layer="svg2"
     showgrid="false"
     showguides="true"
     inkscape:guide-bbox="true"
     inkscape:window-width="501"
     inkscape:window-height="481"
     inkscape:window-x="0"
     inkscape:window-y="59"
     inkscape:window-maximized="0" />
  <metadata
     id="metadata7">
    <rdf:RDF>
      <cc:Work
         rdf:about="">
        <dc:format>image/svg+xml</dc:format>
        <dc:type
           rdf:resource="http://purl.org/dc/dcmitype/StillImage" />
        <dc:title></dc:title>
      </cc:Work>
    </rdf:RDF>
  </metadata>
  <path
     style="fill:#000000;fill-opacity:1;stroke:none"
     d="m 12.450494,1.6432181 c -0.560484,0 -1,0.4395186 -1,1 0,0.064796 0.01964,0.1260789 0.03125,0.1875 a 0.26296068,0.26296068 0 0 0 -0.03125,-0.03125 0.26296068,0.26296068 0 0 0 -0.03125,-0.03125 0.26296068,0.26296068 0 0 0 -0.03125,-0.03125 0.26296068,0.26296068 0 0 0 -0.03125,-0.03125 0.26296068,0.26296068 0 0 0 -0.124999,-0.03125 0.26296068,0.26296068 0 0 0 -0.0625,0 0.26296068,0.26296068 0 0 0 -0.03125,0 0.26296068,0.26296068 0 0 0 -0.03125,0.03125 l -1.5625005,0.6875 a 0.26296068,0.26296068 0 0 0 -0.03125,0 0.26296068,0.26296068 0 0 0 -0.0625,0.03125 c -0.154061,-0.3642414 -0.5171394,-0.625 -0.9375005,-0.625 -0.5604841,0 -1,0.4707686 -1,1.03125 0,0.5604841 0.4395159,1 1,1 0.5494916,0 1.0139125,-0.4234673 1.0312505,-0.96875 a 0.26296068,0.26296068 0 0 0 0.03125,0 0.26296068,0.26296068 0 0 0 0.1875,0 l 1.5624995,-0.6875 a 0.26296068,0.26296068 0 0 0 0.0625,-0.03125 0.26296068,0.26296068 0 0 0 0.03125,-0.03125 0.26296068,0.26296068 0 0 0 0.03125,-0.03125 0.26296068,0.26296068 0 0 0 0.03125,-0.03125 c 0.151979,0.3688412 0.545066,0.625 0.96875,0.625 0.14012,0 0.284836,-0.042396 0.40625,-0.09375 a 0.26296068,0.26296068 0 0 0 -0.03125,0.0625 0.26296068,0.26296068 0 0 0 0,0.03125 0.26296068,0.26296068 0 0 0 0,0.09375 0.26296068,0.26296068 0 0 0 0.03125,0.0625 0.26296068,0.26296068 0 0 0 0,0.03125 l 1.375,2.25 a 0.26296068,0.26296068 0 0 0 0.03125,0.03125 0.26296068,0.26296068 0 0 0 0.03125,0.03125 0.26296068,0.26296068 0 0 0 0.03125,0.03125 0.26296068,0.26296068 0 0 0 0.0625,0.03125 0.26296068,0.26296068 0 0 0 0.0625,0 0.26296068,0.26296068 0 0 0 0.09375,0 0.26296068,0.26296068 0 0 0 0.09375,-0.0625 0.26296068,0.26296068 0 0 0 0.03125,-0.03125 0.26296068,0.26296068 0 0 0 0.03125,-0.03125 0.26296068,0.26296068 0 0 0 0.03125,-0.09375 0.26296068,0.26296068 0 0 0 0,-0.0625 0.26296068,0.26296068 0 0 0 -0.03125,-0.0625 0.26296068,0.26296068 0 0 0 -0.03125,-0.0625 l -1.34375,-2.25 a 0.26296068,0.26296068 0 0 0 -0.03125,-0.03125 0.26296068,0.26296068 0 0 0 -0.03125,-0.03125 0.26296068,0.26296068 0 0 0 -0.0625,-0.03125 0.26296068,0.26296068 0 0 0 -0.09375,-0.03125 c 0.231897,-0.1859887 0.375,-0.4921025 0.375,-0.8125 0,-0.5604814 -0.470769,-1 -1.03125,-1 z m -7.28125,1.71875 c 0,0 -0.6150111,0.7925423 -1.25,1.84375 0.0036,-0.034765 0.03125,-0.058033 0.03125,-0.09375 0,-0.5604814 -0.4707686,-1.03125 -1.03125,-1.03125 -0.5604841,0 -1,0.4707686 -1,1.03125 0,0.5604841 0.4395159,1 1,1 0.2388629,0 0.451641,-0.080659 0.625,-0.21875 -0.511133,0.9482854 -0.96875,1.9893718 -0.96875,2.8437505 0,1.6220784 0.6189968,2.4416444 1.625,2.7499994 a 0.26296068,0.26296068 0 0 0 -0.03125,0.03125 0.26296068,0.26296068 0 0 0 -0.0625,0.03125 0.26296068,0.26296068 0 0 0 -0.03125,0.03125 0.26296068,0.26296068 0 0 0 -0.03125,0.03125 c 0,0 -0.119322,0.17103 -0.25,0.40625 -0.130678,0.23522 -0.28125,0.506709 -0.28125,0.8125 a 0.26296068,0.26296068 0 0 0 0,0.09375 0.26296068,0.26296068 0 0 0 0.0625,0.09375 0.26296068,0.26296068 0 0 0 0.03125,0.03125 0.26296068,0.26296068 0 0 0 0.0625,0.0625 c -0.5321018,0.03152 -0.96875,0.491236 -0.96875,1.03125 0,0.560484 0.4707659,1 1.03125,1 0.5604814,0 1,-0.439516 1,-1 0,-0.538502 -0.4075097,-0.997526 -0.9375,-1.03125 a 0.26296068,0.26296068 0 0 0 0.03125,0 0.26296068,0.26296068 0 0 0 0.15625,-0.125 0.26296068,0.26296068 0 0 0 0.03125,-0.0625 0.26296068,0.26296068 0 0 0 0,-0.09375 c 0,-0.08668 0.1041339,-0.324942 0.21875,-0.53125 0.1146161,-0.206308 0.25,-0.375 0.25,-0.375 a 0.26296068,0.26296068 0 0 0 0.03125,-0.1875 0.26296068,0.26296068 0 0 0 0,-0.03125 0.26296068,0.26296068 0 0 0 -0.0625,-0.125 0.26296068,0.26296068 0 0 0 -0.03125,-0.03125 c 0.2343267,0.05256 0.4813296,0.08508 0.75,0.09375 1.4007052,0.04519 2.580301,-0.651518 2.78125,-2.2812494 a 0.26296068,0.26296068 0 0 0 0.21875,0 0.26296068,0.26296068 0 0 0 0.03125,0 c 0.149199,-0.0746 0.4208735,-0.171676 0.65625,-0.21875 0.2353765,-0.04708 0.4375005,-0.0625 0.4375005,-0.0625 a 0.26296068,0.26296068 0 0 0 0.15625,-0.0625 0.26296068,0.26296068 0 0 0 0.03125,-0.03125 c 0.02744,0.450098 0.355839,0.803428 0.7812505,0.90625 a 0.26296068,0.26296068 0 0 0 -0.03125,0.03125 0.26296068,0.26296068 0 0 0 -0.03125,0.03125 0.26296068,0.26296068 0 0 0 -0.03125,0.09375 l -0.3750005,2.249999 a 0.26296068,0.26296068 0 0 0 0,0.09375 0.26296068,0.26296068 0 0 0 0,0.03125 0.26296068,0.26296068 0 0 0 0.03125,0.0625 0.26296068,0.26296068 0 0 0 0.09375,0.09375 0.26296068,0.26296068 0 0 0 0.0625,0.03125 0.26296068,0.26296068 0 0 0 0.062501,0 0.26296068,0.26296068 0 0 0 0.0625,0 0.26296068,0.26296068 0 0 0 0.0625,-0.03125 0.26296068,0.26296068 0 0 0 0.125,-0.125 0.26296068,0.26296068 0 0 0 0,-0.0625 l 0.40625,-2.249999 a 0.26296068,0.26296068 0 0 0 0,-0.09375 0.26296068,0.26296068 0 0 0 -0.0625,-0.1250004 c 0.485745,-0.07563 0.874999,-0.493045 0.874999,-1 0,-0.5604819 -0.470769,-1.0000005 -1.031249,-1.0000005 -0.4851595,0 -0.8684825,0.3262286 -0.9687505,0.7812505 a 0.26296068,0.26296068 0 0 0 -0.03125,-0.03125 0.26296068,0.26296068 0 0 0 -0.0625,-0.0625 0.26296068,0.26296068 0 0 0 -0.03125,-0.03125 0.26296068,0.26296068 0 0 0 -0.0625,-0.03125 0.26296068,0.26296068 0 0 0 -0.093751,0 l -0.46875,0.09375 c -0.2466589,0.04933 -0.5416892,0.135289 -0.78125,0.25 5.709e-4,-0.05502 0.00135,-0.0994 0,-0.15625 -0.029263,-1.2290503 -0.9645545,-2.7902416 -1.75,-3.9375005 l 0.96875,-0.4375 a 0.26296068,0.26296068 0 0 0 0.125,-0.125 0.26296068,0.26296068 0 0 0 0.03125,-0.0625 0.26296068,0.26296068 0 0 0 0,-0.0625 0.26296068,0.26296068 0 0 0 0,-0.09375 0.26296068,0.26296068 0 0 0 -0.0625,-0.09375 0.26296068,0.26296068 0 0 0 -0.03125,-0.03125 0.26296068,0.26296068 0 0 0 -0.0625,-0.03125 0.26296068,0.26296068 0 0 0 -0.0625,0 0.26296068,0.26296068 0 0 0 -0.09375,0 0.26296068,0.26296068 0 0 0 -0.0625,0 l -1.0625,0.5 c -0.4090234,-0.5667368 -0.75,-1 -0.75,-1 z m 3.78125,1.5625 a 0.26296068,0.26296068 0 0 0 -0.03125,0.03125 0.26296068,0.26296068 0 0 0 -0.03125,0.03125 0.26296068,0.26296068 0 0 0 -0.03125,0.03125 0.26296068,0.26296068 0 0 0 -0.0625,0.15625 0.26296068,0.26296068 0 0 0 0.03125,0.125 l 0.9687505,2.15625 a 0.26296068,0.26296068 0 0 0 0.125,0.125 0.26296068,0.26296068 0 0 0 0.0625,0.03125 0.26296068,0.26296068 0 0 0 0.062501,0 0.26296068,0.26296068 0 0 0 0.0625,0 0.26296068,0.26296068 0 0 0 0.0625,-0.03125 0.26296068,0.26296068 0 0 0 0.125,-0.15625 0.26296068,0.26296068 0 0 0 0,-0.0625 0.26296068,0.26296068 0 0 0 0,-0.09375 0.26296068,0.26296068 0 0 0 0,-0.03125 l -1.0000005,-2.15625 a 0.26296068,0.26296068 0 0 0 -0.062501,-0.09375 0.26296068,0.26296068 0 0 0 -0.0625,-0.03125 0.26296068,0.26296068 0 0 0 -0.0625,-0.03125 0.26296068,0.26296068 0 0 0 -0.09375,0 0.26296068,0.26296068 0 0 0 -0.03125,0 0.26296068,0.26296068 0 0 0 -0.03125,0 z m 5.96875,1.625 c -0.560484,0 -1.03125,0.4395186 -1.03125,1 0,0.5502505 0.453668,1.0150755 1,1.0312505 l -0.40625,2.4687494 a 0.26296068,0.26296068 0 0 0 0,0.0625 0.26296068,0.26296068 0 0 0 0.03125,0.0625 0.26296068,0.26296068 0 0 0 0.03125,0.0625 0.26296068,0.26296068 0 0 0 0.03125,0.03125 0.26296068,0.26296068 0 0 0 0.03125,0.03125 0.26296068,0.26296068 0 0 0 0.0625,0.03125 0.26296068,0.26296068 0 0 0 0.0625,0 0.26296068,0.26296068 0 0 0 0.09375,0 0.26296068,0.26296068 0 0 0 0.03125,0 0.26296068,0.26296068 0 0 0 0.15625,-0.1875 0.26296068,0.26296068 0 0 0 0,-0.03125 l 0.40625,-2.4374994 a 0.26296068,0.26296068 0 0 0 0,-0.0625 0.26296068,0.26296068 0 0 0 -0.03125,-0.0625 0.26296068,0.26296068 0 0 0 -0.03125,-0.093751 c 0.329402,-0.1677033 0.5625,-0.511278 0.5625,-0.90625 0,-0.5604814 -0.439519,-1 -1,-1 z m -1.625,1.03125 c 0,0 -1.293788,0.4093826 -1.65625,0.5 a 0.26296068,0.26296068 0 0 0 -0.0625,0.03125 0.26296068,0.26296068 0 0 0 -0.09375,0.09375 0.26296068,0.26296068 0 0 0 -0.03125,0.0625 0.26296068,0.26296068 0 0 0 0,0.09375 0.26296068,0.26296068 0 0 0 0.03125,0.09375 0.26296068,0.26296068 0 0 0 0.0625,0.062501 0.26296068,0.26296068 0 0 0 0.125,0.0625 0.26296068,0.26296068 0 0 0 0.09375,0 c 0.422476,-0.1056217 1.6875,-0.5000005 1.6875,-0.5000005 a 0.26296068,0.26296068 0 0 0 0.09375,-0.03125 0.26296068,0.26296068 0 0 0 0.03125,-0.03125 0.26296068,0.26296068 0 0 0 0.03125,-0.03125 0.26296068,0.26296068 0 0 0 0.03125,-0.0625 0.26296068,0.26296068 0 0 0 0,-0.0625 0.26296068,0.26296068 0 0 0 0,-0.09375 0.26296068,0.26296068 0 0 0 -0.03125,-0.0625 0.26296068,0.26296068 0 0 0 -0.09375,-0.09375 0.26296068,0.26296068 0 0 0 -0.0625,-0.03125 0.26296068,0.26296068 0 0 0 -0.0625,0 0.26296068,0.26296068 0 0 0 -0.09375,0 z m -9.875,0.40625 c 0,0 0.059369,1.3633515 0.4375,1.8750005 0.6637384,0.8981074 1.375,1.0937494 1.375,1.0937494 0,0 -1.5409973,0.141835 -1.90625,-0.9687494 -0.3704272,-1.126319 0.09375,-2.0000005 0.09375,-2.0000005 z m 11.1875,3.7499999 c -0.4641,0 -0.847882,0.324651 -0.96875,0.75 a 0.26296068,0.26296068 0 0 0 -0.03125,-0.0625 0.26296068,0.26296068 0 0 0 -0.125,-0.125 0.26296068,0.26296068 0 0 0 -0.0625,0 0.26296068,0.26296068 0 0 0 -0.09375,0 0.26296068,0.26296068 0 0 0 -0.0625,0 0.26296068,0.26296068 0 0 0 -0.03125,0.03125 l -2.156249,1.28125 a 0.26296068,0.26296068 0 0 0 -0.0625,0.0625 0.26296068,0.26296068 0 0 0 -0.0625,0.125 0.26296068,0.26296068 0 0 0 0,0.09375 0.26296068,0.26296068 0 0 0 0.03125,0.0625 0.26296068,0.26296068 0 0 0 0.0625,0.0625 0.26296068,0.26296068 0 0 0 0.03125,0.03125 0.26296068,0.26296068 0 0 0 0.0625,0.03125 0.26296068,0.26296068 0 0 0 0.0625,0 0.26296068,0.26296068 0 0 0 0.09375,0 0.26296068,0.26296068 0 0 0 0.0625,-0.03125 l 2.15625,-1.28125 a 0.26296068,0.26296068 0 0 0 0.0625,-0.0625 0.26296068,0.26296068 0 0 0 0.03125,-0.03125 c -0.0028,0.03085 0,0.06216 0,0.09375 0,0.560484 0.439516,1 1,1 0.560481,0 1.031249,-0.439516 1.031249,-1 0,-0.560481 -0.470768,-1.03125 -1.031249,-1.03125 z m -4.8124995,1.09375 c -0.5604846,0 -1.0000005,0.439519 -1.0000005,1 0,0.560484 0.4395159,1.03125 1.0000005,1.03125 0.5604805,0 1.0312505,-0.470766 1.0312505,-1.03125 0,-0.560481 -0.47077,-1 -1.0312505,-1 z m -1.4375005,0.71875 -3.21875,0.125 a 0.26296068,0.26296068 0 0 0 -0.09375,0 0.26296068,0.26296068 0 0 0 -0.09375,0.0625 0.26296068,0.26296068 0 0 0 -0.03125,0.03125 0.26296068,0.26296068 0 0 0 -0.03125,0.125 0.26296068,0.26296068 0 0 0 0,0.09375 0.26296068,0.26296068 0 0 0 0.0625,0.125 0.26296068,0.26296068 0 0 0 0.03125,0.03125 0.26296068,0.26296068 0 0 0 0.125,0.03125 0.26296068,0.26296068 0 0 0 0.03125,0 l 3.25,-0.09375 a 0.26296068,0.26296068 0 0 0 0.0625,0 0.26296068,0.26296068 0 0 0 0.0625,-0.03125 0.26296068,0.26296068 0 0 0 0.09375,-0.09375 0.26296068,0.26296068 0 0 0 0.03125,-0.0625 0.26296068,0.26296068 0 0 0 0,-0.09375 0.26296068,0.26296068 0 0 0 -0.1875,-0.21875 0.26296068,0.26296068 0 0 0 -0.0625,-0.03125 0.26296068,0.26296068 0 0 0 -0.03125,0 z"
     id="path4504"
     inkscape:connector-curvature="0" />
  <g
     inkscape:label="Layer 1"
     inkscape:groupmode="layer"
     id="layer1"
     sodipodi:insensitive="true"
     style="opacity:0.47976882;display:none"
     transform="translate(0,-1036.3622)">
    <image
       y="61.505039"
       x="-574.85712"
       id="image3082"
       xlink:href="file:///mnt/6A0F06C454D4F476/One-offs/MyPaint/scrap009_a.png"
       height="896"
       width="1344" />
  </g>
  <g
     inkscape:groupmode="layer"
     id="layer2"
     inkscape:label="basde"
     transform="translate(0,-1036.3622)" />
  <path
     sodipodi:nodetypes="csssccscsc"
     inkscape:connector-curvature="0"
     id="path3912"
     d="m 4.5304623,2.6986345 c 0,0 -2.5964771,3.2941682 -2.5964771,5.3901549 0,2.0959876 1.0248998,2.8415826 2.5964771,2.8922786 1.5715772,0.0507 2.8435827,-0.796291 2.7936778,-2.8922786 C 7.2742351,5.9928027 4.5304623,2.6986345 4.5304623,2.6986345 z M 2.7580715,7.3410118 c 0,0 0.067385,1.3442628 0.445516,1.8559118 0.6637384,0.8981084 1.3736982,1.1146634 1.3736982,1.1146634 0,0 -1.5516548,0.13666 -1.9169075,-0.9739254 C 2.289951,8.2113432 2.7580715,7.3410118 2.7580715,7.3410118 z"
     style="fill:#ffffff;fill-opacity:1;stroke:none" />
  <path
     transform="matrix(0.26293438,0,0,0.26293438,-28.528388,-149.70569)"
     d="m 142.30308,581.43066 a 3.8596776,3.8596776 0 1 1 -7.71935,0 3.8596776,3.8596776 0 1 1 7.71935,0 z"
     sodipodi:ry="3.8596776"
     sodipodi:rx="3.8596776"
     sodipodi:cy="581.43066"
     sodipodi:cx="138.44341"
     id="use3962"
     style="color:#000000;fill:#ffffff;fill-opacity:1;fill-rule:nonzero;stroke:none;stroke-width:2;marker:none;visibility:visible;display:inline;overflow:visible;enable-background:accumulate"
     sodipodi:type="arc" />
  <path
     transform="matrix(0.26293438,0,0,0.26293438,-26.56604,-144.6036)"
     d="m 142.30308,581.43066 a 3.8596776,3.8596776 0 1 1 -7.71935,0 3.8596776,3.8596776 0 1 1 7.71935,0 z"
     sodipodi:ry="3.8596776"
     sodipodi:rx="3.8596776"
     sodipodi:cy="581.43066"
     sodipodi:cx="138.44341"
     id="use3964"
     style="color:#000000;fill:#ffffff;fill-opacity:1;fill-rule:nonzero;stroke:none;stroke-width:2;marker:none;visibility:visible;display:inline;overflow:visible;enable-background:accumulate"
     sodipodi:type="arc" />
  <path
     transform="matrix(0.26293438,0,0,0.26293438,-27.252861,-139.69774)"
     d="m 142.30308,581.43066 a 3.8596776,3.8596776 0 1 1 -7.71935,0 3.8596776,3.8596776 0 1 1 7.71935,0 z"
     sodipodi:ry="3.8596776"
     sodipodi:rx="3.8596776"
     sodipodi:cy="581.43066"
     sodipodi:cx="138.44341"
     id="use3966"
     style="color:#000000;fill:#ffffff;fill-opacity:1;fill-rule:nonzero;stroke:none;stroke-width:2;marker:none;visibility:visible;display:inline;overflow:visible;enable-background:accumulate"
     sodipodi:type="arc" />
  <path
     transform="matrix(0.26293438,0,0,0.26293438,-22.445111,-140.77703)"
     d="m 142.30308,581.43066 a 3.8596776,3.8596776 0 1 1 -7.71935,0 3.8596776,3.8596776 0 1 1 7.71935,0 z"
     sodipodi:ry="3.8596776"
     sodipodi:rx="3.8596776"
     sodipodi:cy="581.43066"
     sodipodi:cx="138.44341"
     id="use3968"
     style="color:#000000;fill:#ffffff;fill-opacity:1;fill-rule:nonzero;stroke:none;stroke-width:2;marker:none;visibility:visible;display:inline;overflow:visible;enable-background:accumulate"
     sodipodi:type="arc" />
  <path
     transform="matrix(0.26293438,0,0,0.26293438,-22.150759,-145.97723)"
     d="m 142.30308,581.43066 a 3.8596776,3.8596776 0 1 1 -7.71935,0 3.8596776,3.8596776 0 1 1 7.71935,0 z"
     sodipodi:ry="3.8596776"
     sodipodi:rx="3.8596776"
     sodipodi:cy="581.43066"
     sodipodi:cx="138.44341"
     id="use3970"
     style="color:#000000;fill:#ffffff;fill-opacity:1;fill-rule:nonzero;stroke:none;stroke-width:2;marker:none;visibility:visible;display:inline;overflow:visible;enable-background:accumulate"
     sodipodi:type="arc" />
  <path
     transform="matrix(0.26293438,0,0,0.26293438,-24.603693,-150.88311)"
     d="m 142.30308,581.43066 a 3.8596776,3.8596776 0 1 1 -7.71935,0 3.8596776,3.8596776 0 1 1 7.71935,0 z"
     sodipodi:ry="3.8596776"
     sodipodi:rx="3.8596776"
     sodipodi:cy="581.43066"
     sodipodi:cx="138.44341"
     id="use3972"
     style="color:#000000;fill:#ffffff;fill-opacity:1;fill-rule:nonzero;stroke:none;stroke-width:2;marker:none;visibility:visible;display:inline;overflow:visible;enable-background:accumulate"
     sodipodi:type="arc" />
  <path
     transform="matrix(0.26293438,0,0,0.26293438,-34.121075,-148.43017)"
     d="m 142.30308,581.43066 a 3.8596776,3.8596776 0 1 1 -7.71935,0 3.8596776,3.8596776 0 1 1 7.71935,0 z"
     sodipodi:ry="3.8596776"
     sodipodi:rx="3.8596776"
     sodipodi:cy="581.43066"
     sodipodi:cx="138.44341"
     id="use3974"
     style="color:#000000;fill:#ffffff;fill-opacity:1;fill-rule:nonzero;stroke:none;stroke-width:2;marker:none;visibility:visible;display:inline;overflow:visible;enable-background:accumulate"
     sodipodi:type="arc" />
  <path
     transform="matrix(0.26293438,0,0,0.26293438,-33.336135,-139.40336)"
     d="m 142.30308,581.43066 a 3.8596776,3.8596776 0 1 1 -7.71935,0 3.8596776,3.8596776 0 1 1 7.71935,0 z"
     sodipodi:ry="3.8596776"
     sodipodi:rx="3.8596776"
     sodipodi:cy="581.43066"
     sodipodi:cx="138.44341"
     id="use3976"
     style="color:#000000;fill:#ffffff;fill-opacity:1;fill-rule:nonzero;stroke:none;stroke-width:2;marker:none;visibility:visible;display:inline;overflow:visible;enable-background:accumulate"
     sodipodi:type="arc" />
  <path
     style="fill:none;stroke:#ffffff;stroke-width:0.52586876999999999;stroke-linecap:round;stroke-linejoin:miter;stroke-miterlimit:4;stroke-opacity:1;stroke-dasharray:none"
     d="M 8.9986061,2.9669196 10.568485,2.2800982"
     id="path4034"
     inkscape:connector-curvature="0" />
  <path
     style="fill:none;stroke:#ffffff;stroke-width:0.52586876999999999;stroke-linecap:round;stroke-linejoin:miter;stroke-miterlimit:4;stroke-opacity:1;stroke-dasharray:none"
     d="m 12.432714,3.0650362 1.373643,2.2567001"
     id="path4036"
     inkscape:connector-curvature="0" />
  <path
     style="fill:none;stroke:#ffffff;stroke-width:0.52586876999999999;stroke-linecap:round;stroke-linejoin:miter;stroke-miterlimit:4;stroke-opacity:1;stroke-dasharray:none"
     d="M 14.493178,7.9709028 14.100709,10.423839"
     id="path4038"
     inkscape:connector-curvature="0" />
  <path
     style="fill:none;stroke:#ffffff;stroke-width:0.52586876999999999;stroke-linecap:round;stroke-linejoin:miter;stroke-miterlimit:4;stroke-opacity:1;stroke-dasharray:none"
     d="M 9.7835465,9.4426646 9.3910755,11.699363"
     id="path4040"
     inkscape:connector-curvature="0" />
  <path
     style="fill:none;stroke:#ffffff;stroke-width:0.52586876999999999;stroke-linecap:round;stroke-linejoin:miter;stroke-miterlimit:4;stroke-opacity:1;stroke-dasharray:none"
     d="m 12.727066,11.895598 -2.158581,1.275524"
     id="path4044"
     inkscape:connector-curvature="0" />
  <path
     style="fill:none;stroke:#ffffff;stroke-width:0.52586876999999999;stroke-linecap:round;stroke-linejoin:miter;stroke-miterlimit:4;stroke-opacity:1;stroke-dasharray:none"
     d="m 7.7230825,13.171122 -3.2378738,0.09812"
     id="path4046"
     inkscape:connector-curvature="0" />
  <path
     style="fill:none;stroke:#ffffff;stroke-width:0.52586876999999999;stroke-linecap:round;stroke-linejoin:miter;stroke-miterlimit:4;stroke-opacity:1;stroke-dasharray:none"
     d="m 3.1115657,12.189951 c 0,-0.392469 0.4905883,-1.079291 0.4905883,-1.079291"
     id="path4048"
     inkscape:connector-curvature="0" />
  <path
     style="fill:none;stroke:#ffffff;stroke-width:0.52586876999999999;stroke-linecap:round;stroke-linejoin:miter;stroke-miterlimit:4;stroke-opacity:1;stroke-dasharray:none"
     d="M 7.4287301,8.461491 C 7.8211991,8.2652552 8.6061371,8.1671386 8.6061371,8.1671386"
     id="path4050"
     inkscape:connector-curvature="0" />
  <path
     style="fill:none;stroke:#ffffff;stroke-width:0.52586876999999999;stroke-linecap:round;stroke-linejoin:miter;stroke-miterlimit:4;stroke-opacity:1;stroke-dasharray:none"
     d="M 11.059071,7.676553 C 11.45154,7.5784337 12.727066,7.1859647 12.727066,7.1859647"
     id="path4052"
     inkscape:connector-curvature="0" />
  <path
     style="fill:none;stroke:#ffffff;stroke-width:0.52586876999999999;stroke-linecap:round;stroke-linejoin:miter;stroke-miterlimit:4;stroke-opacity:1;stroke-dasharray:none"
     d="M 8.409904,4.5367983 9.3910755,6.6953791"
     id="path4054"
     inkscape:connector-curvature="0" />
  <path
     style="fill:none;stroke:#ffffff;stroke-width:0.52586876999999999;stroke-linecap:round;stroke-linejoin:miter;stroke-miterlimit:4;stroke-opacity:1;stroke-dasharray:none"
     d="M 6.4475563,3.4575052 5.3682659,3.9480935"
     id="path4058"
     inkscape:connector-curvature="0" />
</svg>
