<?xml version="1.0" encoding="UTF-8" standalone="no"?>
<!-- Created with Inkscape (http://www.inkscape.org/) -->

<svg
   xmlns:dc="http://purl.org/dc/elements/1.1/"
   xmlns:cc="http://creativecommons.org/ns#"
   xmlns:rdf="http://www.w3.org/1999/02/22-rdf-syntax-ns#"
   xmlns:svg="http://www.w3.org/2000/svg"
   xmlns="http://www.w3.org/2000/svg"
   xmlns:xlink="http://www.w3.org/1999/xlink"
   xmlns:sodipodi="http://sodipodi.sourceforge.net/DTD/sodipodi-0.dtd"
   xmlns:inkscape="http://www.inkscape.org/namespaces/inkscape"
   width="16"
   height="16"
   id="svg2"
   version="1.1"
   inkscape:version="0.48.4 r9939"
   sodipodi:docname="transform_icons_liquify_resize_light.svg"
   inkscape:export-filename="/home/wolthera/Pictures/transform_icons_liquify_resize_light.png"
   inkscape:export-xdpi="90"
   inkscape:export-ydpi="90">
  <defs
     id="defs4" />
  <sodipodi:namedview
     id="base"
     pagecolor="#777777"
     bordercolor="#666666"
     borderopacity="1.0"
     inkscape:pageopacity="0.50196078"
     inkscape:pageshadow="2"
     inkscape:zoom="17.331415"
     inkscape:cx="7.6162274"
     inkscape:cy="8.3086117"
     inkscape:document-units="px"
     inkscape:current-layer="svg2"
     showgrid="false"
     showguides="true"
     inkscape:guide-bbox="true"
     inkscape:window-width="501"
     inkscape:window-height="481"
     inkscape:window-x="0"
     inkscape:window-y="27"
     inkscape:window-maximized="0" />
  <metadata
     id="metadata7">
    <rdf:RDF>
      <cc:Work
         rdf:about="">
        <dc:format>image/svg+xml</dc:format>
        <dc:type
           rdf:resource="http://purl.org/dc/dcmitype/StillImage" />
        <dc:title></dc:title>
      </cc:Work>
    </rdf:RDF>
  </metadata>
  <path
     style="fill:#000000;fill-opacity:1;stroke:none"
     d="m 1.516763,1.3076157 a 0.22293192,0.22293192 0 0 0 0,0.03125 0.22293192,0.22293192 0 0 0 -0.03125,0.03125 0.22293192,0.22293192 0 0 0 -0.0625,0.125 0.22293192,0.22293192 0 0 0 0,0.03125 l 0,4.3125 a 0.22293192,0.22293192 0 0 0 0,0.03125 0.22293192,0.22293192 0 0 0 0.03125,0.0625 0.22293192,0.22293192 0 0 0 0.03125,0.0625 0.22293192,0.22293192 0 0 0 0.03125,0.03125 0.22293192,0.22293192 0 0 0 0.0625,0.03125 0.22293192,0.22293192 0 0 0 0.0625,0 0.22293192,0.22293192 0 0 0 0.03125,0 0.22293192,0.22293192 0 0 0 0.0625,-0.03125 0.22293192,0.22293192 0 0 0 0.0625,-0.03125 l 1.34375,-1.34375 2.0625,2.09375 a 0.22293192,0.22293192 0 0 0 0.125,0.0625 0.22293192,0.22293192 0 0 0 0.03125,0 0.22293192,0.22293192 0 0 0 0.03125,0 0.22293192,0.22293192 0 0 0 0.09375,-0.03125 0.22293192,0.22293192 0 0 0 0.03125,-0.03125 l 1.34375,-1.375 a 0.22293192,0.22293192 0 0 0 0.03125,-0.03125 0.22293192,0.22293192 0 0 0 0.03125,-0.09375 0.22293192,0.22293192 0 0 0 0,-0.03125 0.22293192,0.22293192 0 0 0 0,-0.03125 0.22293192,0.22293192 0 0 0 -0.03125,-0.0625 0.22293192,0.22293192 0 0 0 -0.03125,-0.0625 l -2.09375,-2.03125 1.34375,-1.34375 a 0.22293192,0.22293192 0 0 0 0.0625,-0.125 0.22293192,0.22293192 0 0 0 0,-0.03125 0.22293192,0.22293192 0 0 0 0,-0.0625 0.22293192,0.22293192 0 0 0 -0.03125,-0.0625 0.22293192,0.22293192 0 0 0 -0.03125,-0.03125 0.22293192,0.22293192 0 0 0 -0.03125,-0.03125 0.22293192,0.22293192 0 0 0 -0.0625,-0.03125 0.22293192,0.22293192 0 0 0 -0.03125,0 0.22293192,0.22293192 0 0 0 -0.03125,0 l -4.3125,0 a 0.22293192,0.22293192 0 0 0 -0.03125,0 0.22293192,0.22293192 0 0 0 -0.03125,0 0.22293192,0.22293192 0 0 0 -0.03125,0 0.22293192,0.22293192 0 0 0 -0.03125,0 z m 9.25,0 a 0.22293192,0.22293192 0 0 0 0,0.03125 0.22293192,0.22293192 0 0 0 -0.03125,0.03125 0.22293192,0.22293192 0 0 0 -0.0625,0.125 0.22293192,0.22293192 0 0 0 0,0.03125 0.22293192,0.22293192 0 0 0 0,0.0625 0.22293192,0.22293192 0 0 0 0.03125,0.0625 0.22293192,0.22293192 0 0 0 0.03125,0.03125 l 1.34375,1.34375 -2.0937498,2.03125 a 0.22293192,0.22293192 0 0 0 -0.0625,0.125 0.22293192,0.22293192 0 0 0 0,0.03125 0.22293192,0.22293192 0 0 0 0,0.03125 0.22293192,0.22293192 0 0 0 0,0.03125 0.22293192,0.22293192 0 0 0 0.03125,0.0625 0.22293192,0.22293192 0 0 0 0.03125,0.03125 l 1.3437498,1.375 a 0.22293192,0.22293192 0 0 0 0.03125,0.03125 0.22293192,0.22293192 0 0 0 0.0625,0.03125 0.22293192,0.22293192 0 0 0 0.03125,0 0.22293192,0.22293192 0 0 0 0.03125,0 0.22293192,0.22293192 0 0 0 0.03125,0 0.22293192,0.22293192 0 0 0 0.0625,-0.03125 0.22293192,0.22293192 0 0 0 0.0625,-0.03125 l 2.0625,-2.09375 1.34375,1.34375 a 0.22293192,0.22293192 0 0 0 0.0625,0.03125 0.22293192,0.22293192 0 0 0 0.0625,0.03125 0.22293192,0.22293192 0 0 0 0.03125,0 0.22293192,0.22293192 0 0 0 0.03125,0 0.22293192,0.22293192 0 0 0 0.0625,-0.03125 0.22293192,0.22293192 0 0 0 0.0625,-0.03125 0.22293192,0.22293192 0 0 0 0.03125,-0.0625 0.22293192,0.22293192 0 0 0 0.03125,-0.0625 0.22293192,0.22293192 0 0 0 0,-0.03125 l 0,-4.3125 a 0.22293192,0.22293192 0 0 0 0,-0.03125 0.22293192,0.22293192 0 0 0 0,-0.03125 0.22293192,0.22293192 0 0 0 -0.03125,-0.0625 0.22293192,0.22293192 0 0 0 -0.03125,-0.03125 0.22293192,0.22293192 0 0 0 -0.03125,-0.03125 0.22293192,0.22293192 0 0 0 -0.0625,-0.03125 0.22293192,0.22293192 0 0 0 -0.03125,0 0.22293192,0.22293192 0 0 0 -0.03125,0 l -4.3125,0 a 0.22293192,0.22293192 0 0 0 -0.03125,0 0.22293192,0.22293192 0 0 0 -0.03125,0 0.22293192,0.22293192 0 0 0 -0.03125,0 0.22293192,0.22293192 0 0 0 -0.03125,0 z m -8.9062499,0.4375 3.5625,0 -1.125,1.125 a 0.22293192,0.22293192 0 0 0 -0.03125,0.03125 0.22293192,0.22293192 0 0 0 -0.03125,0.0625 0.22293192,0.22293192 0 0 0 0,0.03125 0.22293192,0.22293192 0 0 0 0,0.03125 0.22293192,0.22293192 0 0 0 0,0.03125 0.22293192,0.22293192 0 0 0 0.03125,0.0625 0.22293192,0.22293192 0 0 0 0.03125,0.0625 l 2.09375,2.03125 -1.03125,1.0625 -2.0625,-2.09375 a 0.22293192,0.22293192 0 0 0 -0.03125,-0.03125 0.22293192,0.22293192 0 0 0 -0.09375,-0.03125 0.22293192,0.22293192 0 0 0 -0.03125,0 0.22293192,0.22293192 0 0 0 -0.03125,0 0.22293192,0.22293192 0 0 0 -0.03125,0 0.22293192,0.22293192 0 0 0 -0.0625,0.03125 0.22293192,0.22293192 0 0 0 -0.03125,0.03125 l -1.125,1.125 0,-3.5625 z m 9.5624999,0 3.5625,0 0,3.5625 -1.125,-1.125 a 0.22293192,0.22293192 0 0 0 -0.125,-0.0625 0.22293192,0.22293192 0 0 0 -0.03125,0 0.22293192,0.22293192 0 0 0 -0.03125,0 0.22293192,0.22293192 0 0 0 -0.03125,0 0.22293192,0.22293192 0 0 0 -0.0625,0.03125 0.22293192,0.22293192 0 0 0 -0.03125,0.03125 l -2.0625,2.09375 -1.03125,-1.0625 2.09375,-2.03125 a 0.22293192,0.22293192 0 0 0 0.0625,-0.125 0.22293192,0.22293192 0 0 0 0,-0.03125 0.22293192,0.22293192 0 0 0 0,-0.03125 0.22293192,0.22293192 0 0 0 -0.03125,-0.09375 0.22293192,0.22293192 0 0 0 -0.03125,-0.03125 l -1.125,-1.125 z m -3.0937499,2.15625 c 0,0 -2.1875,2.7855714 -2.1875,4.5625 0,1.7769283 0.8551535,2.4257703 2.1875,2.4687493 1.332347,0.04298 2.4173079,-0.691821 2.3749999,-2.4687493 -0.04231,-1.7769286 -2.3749999,-4.5625 -2.3749999,-4.5625 z m -1.5,3.9375 c 0,0 0.054429,1.128736 0.375,1.5625 0.5627019,0.7613953 1.1875,0.9687503 1.1875,0.9687503 0,0 -1.3153473,0.09778 -1.625,-0.8437503 -0.3140395,-0.954867 0.0625,-1.6875 0.0625,-1.6875 z m -1.5625,1.96875 a 0.22293192,0.22293192 0 0 0 -0.03125,0.03125 0.22293192,0.22293192 0 0 0 -0.03125,0.03125 l -2.0625,2.0937493 -1.34375,-1.343749 a 0.22293192,0.22293192 0 0 0 -0.1250001,-0.0625 0.22293192,0.22293192 0 0 0 -0.03125,0 0.22293192,0.22293192 0 0 0 -0.03125,0 0.22293192,0.22293192 0 0 0 -0.0625,0.03125 0.22293192,0.22293192 0 0 0 -0.0625,0.03125 0.22293192,0.22293192 0 0 0 -0.03125,0.03125 0.22293192,0.22293192 0 0 0 -0.03125,0.0625 0.22293192,0.22293192 0 0 0 0,0.03125 0.22293192,0.22293192 0 0 0 0,0.03125 l 0,4.3125 a 0.22293192,0.22293192 0 0 0 0,0.03125 0.22293192,0.22293192 0 0 0 0.03125,0.0625 0.22293192,0.22293192 0 0 0 0.125,0.125 0.22293192,0.22293192 0 0 0 0.03125,0 0.22293192,0.22293192 0 0 0 0.03125,0 l 4.3125001,0 a 0.22293192,0.22293192 0 0 0 0.03125,0 0.22293192,0.22293192 0 0 0 0.0625,-0.03125 0.22293192,0.22293192 0 0 0 0.125,-0.125 0.22293192,0.22293192 0 0 0 0,-0.03125 0.22293192,0.22293192 0 0 0 0,-0.03125 0.22293192,0.22293192 0 0 0 0,-0.03125 0.22293192,0.22293192 0 0 0 0,-0.03125 0.22293192,0.22293192 0 0 0 -0.03125,-0.0625 0.22293192,0.22293192 0 0 0 -0.03125,-0.03125 l -1.34375,-1.34375 2.09375,-2.03125 a 0.22293192,0.22293192 0 0 0 0.03125,-0.0625 0.22293192,0.22293192 0 0 0 0.03125,-0.09375 0.22293192,0.22293192 0 0 0 0,-0.03125 0.22293192,0.22293192 0 0 0 0,-0.03125 0.22293192,0.22293192 0 0 0 -0.03125,-0.0625 0.22293192,0.22293192 0 0 0 -0.03125,-0.03125 l -1.34375,-1.3749999 a 0.22293192,0.22293192 0 0 0 -0.03125,-0.03125 0.22293192,0.22293192 0 0 0 -0.0625,-0.03125 0.22293192,0.22293192 0 0 0 -0.03125,0 0.22293192,0.22293192 0 0 0 -0.03125,0 0.22293192,0.22293192 0 0 0 -0.03125,0 0.22293192,0.22293192 0 0 0 -0.03125,0 0.22293192,0.22293192 0 0 0 -0.03125,0 z m 6.0937499,0 a 0.22293192,0.22293192 0 0 0 0,0.03125 0.22293192,0.22293192 0 0 0 -0.03125,0.03125 L 9.9855132,11.245115 a 0.22293192,0.22293192 0 0 0 -0.03125,0.03125 0.22293192,0.22293192 0 0 0 -0.03125,0.0625 0.22293192,0.22293192 0 0 0 0,0.03125 0.22293192,0.22293192 0 0 0 0,0.03125 0.22293192,0.22293192 0 0 0 0.03125,0.0625 0.22293192,0.22293192 0 0 0 0,0.03125 0.22293192,0.22293192 0 0 0 0.03125,0.0625 l 2.0937498,2.03125 -1.34375,1.34375 a 0.22293192,0.22293192 0 0 0 -0.0625,0.125 0.22293192,0.22293192 0 0 0 0,0.03125 0.22293192,0.22293192 0 0 0 0,0.03125 0.22293192,0.22293192 0 0 0 0.03125,0.0625 0.22293192,0.22293192 0 0 0 0.03125,0.0625 0.22293192,0.22293192 0 0 0 0.03125,0.03125 0.22293192,0.22293192 0 0 0 0.0625,0.03125 0.22293192,0.22293192 0 0 0 0.03125,0 0.22293192,0.22293192 0 0 0 0.03125,0 l 4.3125,0 a 0.22293192,0.22293192 0 0 0 0.03125,0 0.22293192,0.22293192 0 0 0 0.0625,-0.03125 0.22293192,0.22293192 0 0 0 0.125,-0.125 0.22293192,0.22293192 0 0 0 0,-0.03125 0.22293192,0.22293192 0 0 0 0,-0.03125 l 0,-4.3125 a 0.22293192,0.22293192 0 0 0 0,-0.03125 0.22293192,0.22293192 0 0 0 -0.03125,-0.0625 0.22293192,0.22293192 0 0 0 -0.125,-0.125 0.22293192,0.22293192 0 0 0 -0.03125,0 0.22293192,0.22293192 0 0 0 -0.03125,0 0.22293192,0.22293192 0 0 0 -0.03125,0 0.22293192,0.22293192 0 0 0 -0.03125,0 0.22293192,0.22293192 0 0 0 -0.0625,0.03125 0.22293192,0.22293192 0 0 0 -0.03125,0.03125 l -1.34375,1.34375 -2.0625,-2.0937497 a 0.22293192,0.22293192 0 0 0 -0.03125,-0.03125 0.22293192,0.22293192 0 0 0 -0.0625,-0.03125 0.22293192,0.22293192 0 0 0 -0.03125,0 0.22293192,0.22293192 0 0 0 -0.03125,0 0.22293192,0.22293192 0 0 0 -0.03125,0 0.22293192,0.22293192 0 0 0 -0.0625,0 0.22293192,0.22293192 0 0 0 -0.03125,0 z m -5.9999999,0.5312503 1.03125,1.031249 -2.09375,2.0625 a 0.22293192,0.22293192 0 0 0 -0.03125,0.0625 0.22293192,0.22293192 0 0 0 -0.03125,0.09375 0.22293192,0.22293192 0 0 0 0,0.03125 0.22293192,0.22293192 0 0 0 0,0.03125 0.22293192,0.22293192 0 0 0 0.03125,0.0625 0.22293192,0.22293192 0 0 0 0.03125,0.03125 l 1.125,1.125 -3.5625,0 0,-3.5625 1.125,1.125 a 0.22293192,0.22293192 0 0 0 0.0625,0.03125 0.22293192,0.22293192 0 0 0 0.0625,0.03125 0.22293192,0.22293192 0 0 0 0.03125,0 0.22293192,0.22293192 0 0 0 0.03125,0 0.22293192,0.22293192 0 0 0 0.0625,-0.03125 0.22293192,0.22293192 0 0 0 0.0625,-0.03125 l 2.0625,-2.093749 z m 6.1249999,0 2.0625,2.093749 a 0.22293192,0.22293192 0 0 0 0.0625,0.03125 0.22293192,0.22293192 0 0 0 0.09375,0.03125 0.22293192,0.22293192 0 0 0 0.03125,0 0.22293192,0.22293192 0 0 0 0.03125,0 0.22293192,0.22293192 0 0 0 0.0625,-0.03125 0.22293192,0.22293192 0 0 0 0.03125,-0.03125 l 1.125,-1.125 0,3.5625 -3.5625,0 1.125,-1.125 a 0.22293192,0.22293192 0 0 0 0.03125,-0.0625 0.22293192,0.22293192 0 0 0 0.03125,-0.0625 0.22293192,0.22293192 0 0 0 0,-0.03125 0.22293192,0.22293192 0 0 0 0,-0.03125 0.22293192,0.22293192 0 0 0 -0.03125,-0.0625 0.22293192,0.22293192 0 0 0 -0.03125,-0.0625 l -2.09375,-2.0625 1.03125,-1.031249 z"
     id="path4616"
     inkscape:connector-curvature="0" />
  <g
     inkscape:label="Layer 1"
     inkscape:groupmode="layer"
     id="layer1"
     sodipodi:insensitive="true"
     style="opacity:0.47976882;display:none"
     transform="translate(0,-1036.3622)">
    <image
       y="61.505039"
       x="-574.85712"
       id="image3082"
       xlink:href="file:///mnt/6A0F06C454D4F476/One-offs/MyPaint/scrap009_a.png"
       height="896"
       width="1344" />
  </g>
  <g
     inkscape:groupmode="layer"
     id="layer2"
     inkscape:label="basde"
     transform="translate(0,-1036.3622)" />
  <path
     style="fill:#ffffff;fill-opacity:1;stroke:none"
     d="m 7.6081913,3.2855077 c 0,0 -2.2012326,2.7927188 -2.2012326,4.5696474 0,1.7769282 0.8688861,2.4090269 2.2012326,2.4520059 C 8.9405378,10.350141 10.018914,9.6320833 9.9766062,7.8551551 9.9342982,6.0782265 7.6081913,3.2855077 7.6081913,3.2855077 z M 6.1055998,7.2212068 c 0,0 0.057127,1.1396345 0.3776981,1.5733985 0.5627019,0.761395 1.1645892,0.944986 1.1645892,0.944986 0,0 -1.3154567,0.115857 -1.6251094,-0.825671 -0.3140395,-0.954867 0.082822,-1.6927135 0.082822,-1.6927135 z"
     id="path3086"
     inkscape:connector-curvature="0"
     sodipodi:nodetypes="csssccscsc" />
  <path
     style="fill:none;stroke:#ffffff;stroke-width:0.44581925999999999;stroke-linecap:round;stroke-linejoin:round;stroke-miterlimit:4;stroke-opacity:1;stroke-dasharray:none"
     d="m 0.91529393,0.90830351 0,4.30494229 L 2.4060021,3.7225376 4.6420643,5.9655658 5.9655903,4.6072102 3.729528,2.3990117 5.2202362,0.90830351 l -4.30494227,0 z"
     id="path3871"
     inkscape:connector-curvature="0" />
  <use
     x="0"
     y="0"
     xlink:href="#path3871"
     id="use3876"
     transform="matrix(-1,0,0,1,15.384768,4.499133e-6)"
     width="744.09448"
     height="1052.3622"
     style="stroke:#ffffff" />
  <use
     x="0"
     y="0"
     xlink:href="#path3871"
     id="use3878"
     transform="matrix(1,0,0,-1,0,15.377778)"
     width="744.09448"
     height="1052.3622"
     style="stroke:#ffffff" />
  <use
     x="0"
     y="0"
     xlink:href="#path3871"
     id="use3880"
     transform="matrix(-1,0,0,-1,15.384768,15.377778)"
     width="744.09448"
     height="1052.3622"
     style="stroke:#ffffff" />
</svg>
