<?xml version="1.0" encoding="UTF-8" standalone="no"?>
<!-- Created with Inkscape (http://www.inkscape.org/) -->

<svg
   xmlns:dc="http://purl.org/dc/elements/1.1/"
   xmlns:cc="http://creativecommons.org/ns#"
   xmlns:rdf="http://www.w3.org/1999/02/22-rdf-syntax-ns#"
   xmlns:svg="http://www.w3.org/2000/svg"
   xmlns="http://www.w3.org/2000/svg"
   xmlns:xlink="http://www.w3.org/1999/xlink"
   version="1.1"
   width="16"
   height="16"
   id="svg2">
  <defs
     id="defs4" />
  <metadata
     id="metadata7">
    <rdf:RDF>
      <cc:Work
         rdf:about="">
        <dc:format>image/svg+xml</dc:format>
        <dc:type
           rdf:resource="http://purl.org/dc/dcmitype/StillImage" />
        <dc:title></dc:title>
      </cc:Work>
    </rdf:RDF>
  </metadata>
  <g
     transform="translate(0,-1036.3622)"
     id="layer1"
     style="opacity:0.47976882;display:none">
    <image
       xlink:href="file:///mnt/6A0F06C454D4F476/One-offs/MyPaint/scrap009_a.png"
       x="-574.85712"
       y="61.505039"
       width="1344"
       height="896"
       id="image3082" />
  </g>
  <g
     transform="translate(0,-1036.3622)"
     id="layer2" />
  <path
     d="m 290.86596,-258.17554 c 0,0 -9.875,12.52848 -9.875,20.5 0,7.97152 3.89793,10.80719 9.875,11 5.97707,0.19281 10.8148,-3.02848 10.625,-11 -0.1898,-7.97152 -10.625,-20.5 -10.625,-20.5 z m -6.74081,17.65603 c 0,0 0.25628,5.11254 1.6944,7.05846 2.52435,3.41571 5.22449,4.23932 5.22449,4.23932 0,0 -5.9013,0.51975 -7.29044,-3.70406 -1.40882,-4.28365 0.37155,-7.59372 0.37155,-7.59372 z"
     id="path3086"
     style="fill:#000000;fill-opacity:1;stroke:none" />
  <path
     d="m 353.24113,-192.52736 c 0,0 -9.875,12.52848 -9.875,20.5 0,7.97152 3.89793,10.80719 9.875,11 5.97707,0.19281 10.8148,-3.02848 10.625,-11 -0.1898,-7.97152 -10.625,-20.5 -10.625,-20.5 z m -6.74081,17.65603 c 0,0 0.25628,5.11254 1.6944,7.05846 2.52435,3.41571 5.22449,4.23932 5.22449,4.23932 0,0 -5.9013,0.51975 -7.29044,-3.70406 -1.40882,-4.28365 0.37155,-7.59372 0.37155,-7.59372 z"
     id="path3863"
     style="fill:#000000;fill-opacity:1;stroke:none" />
  <path
     d="m 260.8408,-268.83997 0,19.3125 6.6875,-6.6875 10.03125,10.0625 5.9375,-6.09375 -10.03125,-9.90625 6.6875,-6.6875 -19.3125,0 z"
     id="path3871"
     style="fill:none;stroke:#000000;stroke-width:2;stroke-linecap:round;stroke-linejoin:round;stroke-miterlimit:4;stroke-opacity:1;stroke-dasharray:none" />
  <use
     transform="matrix(-1,0,0,1,582.48732,1.7382813e-5)"
     id="use3876"
     x="0"
     y="0"
     width="744.09448"
     height="1052.3622"
     xlink:href="#path3871" />
  <use
     transform="matrix(1,0,0,-1,-2.8470282e-8,-476.84286)"
     id="use3878"
     x="0"
     y="0"
     width="744.09448"
     height="1052.3622"
     xlink:href="#path3871" />
  <use
     transform="matrix(-1,0,0,-1,582.48732,-476.84286)"
     id="use3880"
     x="0"
     y="0"
     width="744.09448"
     height="1052.3622"
     xlink:href="#path3871" />
  <path
     d="m 416.96798,-258.17554 c 0,0 -9.875,12.52848 -9.875,20.5 0,7.97152 3.89793,10.80719 9.875,11 5.97707,0.19281 10.8148,-3.02848 10.625,-11 -0.1898,-7.97152 -10.625,-20.5 -10.625,-20.5 z m -6.74081,17.65603 c 0,0 0.25628,5.11254 1.6944,7.05846 2.52435,3.41571 5.22449,4.23932 5.22449,4.23932 0,0 -5.9013,0.51975 -7.29044,-3.70406 -1.40882,-4.28365 0.37155,-7.59372 0.37155,-7.59372 z"
     id="path3882"
     style="fill:#000000;fill-opacity:1;stroke:none" />
  <path
     d="m 385.8387,-238.35327 10.02858,9.98012 -0.0168,-6.92858 10.4091,-0.009 -0.096,-6.23229 -10.32795,0.0898 -0.0168,-6.92858 -9.98012,10.02858 z"
     id="path3884"
     style="fill:none;stroke:#000000;stroke-width:2;stroke-linecap:round;stroke-linejoin:round;stroke-miterlimit:4;stroke-opacity:1;stroke-dasharray:none" />
  <path
     d="m 417.26129,-269.92841 10.02858,9.98013 -6.92858,0.0168 0.0414,10.40901 -6.23268,-0.0658 0.0397,-10.32828 -6.92858,0.0168 9.98012,-10.02858 z"
     id="use3886"
     style="fill:none;stroke:#000000;stroke-width:2;stroke-linecap:round;stroke-linejoin:round;stroke-miterlimit:4;stroke-opacity:1;stroke-dasharray:none" />
  <path
     d="m 417.43008,-206.91449 -10.02858,-9.98013 6.92858,-0.0168 -0.0414,-10.40901 6.23268,0.0658 -0.0397,10.32828 6.92858,-0.0168 -9.98012,10.02858 z"
     id="use3888"
     style="fill:none;stroke:#000000;stroke-width:2;stroke-linecap:round;stroke-linejoin:round;stroke-miterlimit:4;stroke-opacity:1;stroke-dasharray:none" />
  <path
     d="m 448.85266,-238.48971 -10.02858,-9.98012 0.0168,6.92858 -10.4091,0.009 0.096,6.23228 10.32796,-0.0898 0.0168,6.92858 9.98013,-10.02858 z"
     id="use3890"
     style="fill:none;stroke:#000000;stroke-width:2;stroke-linecap:round;stroke-linejoin:round;stroke-miterlimit:4;stroke-opacity:1;stroke-dasharray:none" />
  <path
     d="m 346.35826,-204.68813 0,19.3125 -6.6875,-6.6875 -10.03125,10.0625 -5.9375,-6.09375 10.03125,-9.90625 -6.6875,-6.6875 19.3125,0 z"
     id="path3898"
     style="fill:none;stroke:#000000;stroke-width:2;stroke-linecap:round;stroke-linejoin:round;stroke-miterlimit:4;stroke-opacity:1;stroke-dasharray:none" />
  <use
     transform="matrix(-1,0,0,-1,645.34853,-450.84056)"
     id="use3900"
     x="0"
     y="0"
     width="744.09448"
     height="1052.3622"
     xlink:href="#path3871" />
  <use
     transform="translate(62.861208,102.30132)"
     id="use3902"
     x="0"
     y="0"
     width="744.09448"
     height="1052.3622"
     xlink:href="#path3871" />
  <use
     transform="matrix(1,0,0,-1,101.01068,-412.69106)"
     id="use3904"
     x="0"
     y="0"
     width="744.09448"
     height="1052.3622"
     xlink:href="#path3871" />
  <path
     d="m 509.72082,-207.05318 c 0,0 -6.9788,8.8577 -9.93137,15.29967 -2.95257,6.44197 -1.61049,15.83652 -4.02623,19.32592 -2.41574,3.4894 -11.00504,2.41573 -16.91018,-0.26843 -5.90513,-2.68415 -9.92344,-7.6661 -8.05246,-12.3471 2.09478,-5.24091 6.72327,-7.49545 10.46821,-14.22601 2.10474,-3.78273 4.09781,-7.81984 4.02623,-7.78405"
     id="path3906"
     style="fill:none;stroke:#000000;stroke-width:2;stroke-linecap:round;stroke-linejoin:miter;stroke-miterlimit:4;stroke-opacity:1;stroke-dasharray:none" />
  <path
     d="m 512.9418,-200.87963 c 0,0 -6.9788,8.8577 -9.93137,15.29967 -2.95257,6.44197 -1.61049,15.83652 -4.02623,19.32592 -2.41574,3.4894 -11.00504,2.41573 -16.91018,-0.26843 -5.90513,-2.68415 -11.26552,-4.44512 -11.54186,-14.76284"
     id="path3908"
     style="fill:none;stroke:#000000;stroke-width:2;stroke-linecap:round;stroke-linejoin:miter;stroke-miterlimit:4;stroke-opacity:1;stroke-dasharray:none" />
  <path
     d="m 487.00261,-163.44878 c 0,0 -13.7991,-2.52281 -21.13903,-1.08121 -7.33995,1.4416 -9.39514,1.802 -10.56953,4.6852 -1.17439,2.88321 -1.76158,7.92879 5.28476,8.64959 7.04635,0.7208 13.79909,0.7208 19.96465,1.4416 6.16555,0.7208 11.15671,5.406 18.20306,4.6852 7.04635,-0.7208 16.14788,-5.04559 10.27592,-7.20799 -5.87195,-2.16241 -18.79026,0 -13.7991,-2.88321 4.99117,-2.88319 14.0927,-1.80198 9.39514,-3.96439 -4.69757,-2.1624 -17.61587,-4.32479 -17.61587,-4.32479 z"
     id="path3910"
     style="fill:#000000;fill-opacity:1;stroke:none" />
  <path
     d="m 150.55673,-193.24521 c 0,0 -9.875,12.52848 -9.875,20.5 0,7.97152 3.89793,10.80719 9.875,11 5.97707,0.19281 10.8148,-3.02848 10.625,-11 -0.1898,-7.97152 -10.625,-20.5 -10.625,-20.5 z m -6.74081,17.65603 c 0,0 0.25628,5.11254 1.6944,7.05846 2.52435,3.41571 5.22449,4.23932 5.22449,4.23932 0,0 -5.9013,0.51975 -7.29044,-3.70406 -1.40882,-4.28365 0.37155,-7.59372 0.37155,-7.59372 z"
     id="path3912"
     style="fill:#000000;fill-opacity:1;stroke:none" />
  <path
     d="m 142.30308,581.43066 a 3.8596776,3.8596776 0 1 1 -7.71935,0 3.8596776,3.8596776 0 1 1 7.71935,0 z"
     transform="translate(-134.58373,-612.39059)"
     id="path3916"
     style="color:#000000;fill:#000000;fill-opacity:1;fill-rule:nonzero;stroke:none;stroke-width:2;marker:none;visibility:visible;display:inline;overflow:visible;enable-background:accumulate" />
  <use
     transform="translate(44.77954,-1.1194866)"
     id="use3918"
     x="0"
     y="0"
     width="744.09448"
     height="1052.3622"
     xlink:href="#path3916" />
  <use
     transform="translate(-0.37315956,43.846613)"
     id="use3920"
     x="0"
     y="0"
     width="744.09448"
     height="1052.3622"
     xlink:href="#use3918" />
  <use
     transform="translate(-44.2198,0.3731134)"
     id="use3922"
     x="0"
     y="0"
     width="744.09448"
     height="1052.3622"
     xlink:href="#use3920" />
  <use
     transform="translate(159.58564,-390.94669)"
     id="use3924"
     x="0"
     y="0"
     width="744.09448"
     height="1052.3622"
     xlink:href="#use3922" />
  <use
     transform="translate(24.255585,9.7022174)"
     id="use3926"
     x="0"
     y="0"
     width="744.09448"
     height="1052.3622"
     xlink:href="#use3924" />
  <use
     transform="translate(-24.255585,12.127817)"
     id="use3928"
     x="0"
     y="0"
     width="744.09448"
     height="1052.3622"
     xlink:href="#use3926" />
  <use
     transform="translate(-26.494561,-9.8887826)"
     id="use3930"
     x="0"
     y="0"
     width="744.09448"
     height="1052.3622"
     xlink:href="#use3928" />
  <use
     transform="translate(-23.220206,35.358017)"
     id="use3932"
     x="0"
     y="0"
     width="744.09448"
     height="1052.3622"
     xlink:href="#use3928" />
  <use
     transform="translate(21.63701,-2.1108826)"
     id="use3934"
     x="0"
     y="0"
     width="744.09448"
     height="1052.3622"
     xlink:href="#use3932" />
  <use
     transform="translate(19.526082,-0.52768262)"
     id="use3936"
     x="0"
     y="0"
     width="744.09448"
     height="1052.3622"
     xlink:href="#use3934" />
  <use
     transform="translate(6.8605153,23.747917)"
     id="use3938"
     x="0"
     y="0"
     width="744.09448"
     height="1052.3622"
     xlink:href="#use3936" />
  <use
     transform="translate(-16.887422,1.0554174)"
     id="use3940"
     x="0"
     y="0"
     width="744.09448"
     height="1052.3622"
     xlink:href="#use3938" />
  <use
     transform="translate(-30.608453,1.0554174)"
     id="use3942"
     x="0"
     y="0"
     width="744.09448"
     height="1052.3622"
     xlink:href="#use3940" />
  <use
     transform="translate(0.52773194,19.526117)"
     id="use3944"
     x="0"
     y="0"
     width="744.09448"
     height="1052.3622"
     xlink:href="#use3942" />
  <use
     transform="translate(22.164742,1.0554174)"
     id="use3946"
     x="0"
     y="0"
     width="744.09448"
     height="1052.3622"
     xlink:href="#use3944" />
  <use
     transform="translate(18.99835,1.7382813e-5)"
     id="use3948"
     x="0"
     y="0"
     width="744.09448"
     height="1052.3622"
     xlink:href="#use3946" />
  <use
     transform="translate(-10.554639,18.470617)"
     id="use3950"
     x="0"
     y="0"
     width="744.09448"
     height="1052.3622"
     xlink:href="#use3948" />
  <use
     transform="translate(11.082371,17.415117)"
     id="use3952"
     x="0"
     y="0"
     width="744.09448"
     height="1052.3622"
     xlink:href="#use3950" />
  <use
     transform="translate(-16.35969,11.082417)"
     id="use3954"
     x="0"
     y="0"
     width="744.09448"
     height="1052.3622"
     xlink:href="#use3952" />
  <use
     transform="translate(-15.831958,-12.137883)"
     id="use3956"
     x="0"
     y="0"
     width="744.09448"
     height="1052.3622"
     xlink:href="#use3954" />
  <use
     transform="translate(6.3327833,26.914317)"
     id="use3958"
     x="0"
     y="0"
     width="744.09448"
     height="1052.3622"
     xlink:href="#use3956" />
  <use
     transform="translate(-17.415154,-5.2772826)"
     id="use3960"
     x="0"
     y="0"
     width="744.09448"
     height="1052.3622"
     xlink:href="#use3958" />
  <use
     transform="translate(5.9706054,24.628717)"
     id="use3962"
     x="0"
     y="0"
     width="744.09448"
     height="1052.3622"
     xlink:href="#use3958" />
  <use
     transform="translate(7.4632567,19.404417)"
     id="use3964"
     x="0"
     y="0"
     width="744.09448"
     height="1052.3622"
     xlink:href="#use3962" />
  <use
     transform="translate(-2.6121399,18.658117)"
     id="use3966"
     x="0"
     y="0"
     width="744.09448"
     height="1052.3622"
     xlink:href="#use3964" />
  <use
     transform="translate(18.284979,-4.1047826)"
     id="use3968"
     x="0"
     y="0"
     width="744.09448"
     height="1052.3622"
     xlink:href="#use3966" />
  <use
     transform="translate(1.1194885,-19.777583)"
     id="use3970"
     x="0"
     y="0"
     width="744.09448"
     height="1052.3622"
     xlink:href="#use3968" />
  <use
     transform="translate(-9.3290709,-18.658183)"
     id="use3972"
     x="0"
     y="0"
     width="744.09448"
     height="1052.3622"
     xlink:href="#use3970" />
  <use
     transform="translate(-36.196795,9.3291174)"
     id="use3974"
     x="0"
     y="0"
     width="744.09448"
     height="1052.3622"
     xlink:href="#use3972" />
  <use
     transform="translate(2.9853027,34.331017)"
     id="use3976"
     x="0"
     y="0"
     width="744.09448"
     height="1052.3622"
     xlink:href="#use3974" />
  <path
     d="M 48.26606,-27.228243 48.63923,5.2369166"
     id="path3980"
     style="fill:none;stroke:#000000;stroke-width:2;stroke-linecap:round;stroke-linejoin:miter;stroke-miterlimit:4;stroke-opacity:1;stroke-dasharray:none" />
  <path
     d="m 41.54913,12.327017 c -3.35846,0.74632 -29.1067,0.74632 -30.22619,0.37316"
     id="path3982"
     style="fill:none;stroke:#000000;stroke-width:2;stroke-linecap:round;stroke-linejoin:miter;stroke-miterlimit:4;stroke-opacity:1;stroke-dasharray:none" />
  <path
     d="m 3.1133596,5.9832466 c -0.37316,-1.49265 0,-30.2261896 0,-30.2261896"
     id="path3984"
     style="fill:none;stroke:#000000;stroke-width:2;stroke-linecap:round;stroke-linejoin:miter;stroke-miterlimit:4;stroke-opacity:1;stroke-dasharray:none" />
  <path
     d="m 9.0839596,-33.198853 c 1.8658204,-0.37316 33.9578204,-0.74633 33.9578204,-0.74633"
     id="path3986"
     style="fill:none;stroke:#000000;stroke-width:2;stroke-linecap:round;stroke-linejoin:miter;stroke-miterlimit:4;stroke-opacity:1;stroke-dasharray:none" />
  <path
     d="m 168.6696,-376.5673 c 1.49265,0 14.18019,4.47795 14.18019,4.47795"
     id="path3988"
     style="fill:none;stroke:#000000;stroke-width:2;stroke-linecap:round;stroke-linejoin:miter;stroke-miterlimit:4;stroke-opacity:1;stroke-dasharray:none" />
  <path
     d="m 184.34244,-366.11874 -15.29968,7.09009"
     id="path3990"
     style="fill:none;stroke:#000000;stroke-width:2;stroke-linecap:round;stroke-linejoin:miter;stroke-miterlimit:4;stroke-opacity:1;stroke-dasharray:none" />
  <path
     d="m 158.22104,-358.28232 -15.67284,-5.97061"
     id="path3992"
     style="fill:none;stroke:#000000;stroke-width:2;stroke-linecap:round;stroke-linejoin:miter;stroke-miterlimit:4;stroke-opacity:1;stroke-dasharray:none" />
  <path
     d="m 140.68239,-369.85037 c 1.49265,-0.37316 16.79233,-7.09009 16.79233,-7.09009"
     id="path3994"
     style="fill:none;stroke:#000000;stroke-width:2;stroke-linecap:round;stroke-linejoin:miter;stroke-miterlimit:4;stroke-opacity:1;stroke-dasharray:none" />
  <path
     d="m 146.65299,-323.20502 10.0754,-0.37316"
     id="path3996"
     style="fill:none;stroke:#000000;stroke-width:2;stroke-linecap:round;stroke-linejoin:miter;stroke-miterlimit:4;stroke-opacity:1;stroke-dasharray:none" />
  <path
     d="m 167.55012,-324.69766 8.9559,-0.37317"
     id="path3998"
     style="fill:none;stroke:#000000;stroke-width:2;stroke-linecap:round;stroke-linejoin:miter;stroke-miterlimit:4;stroke-opacity:1;stroke-dasharray:none" />
  <path
     d="m 184.34244,-319.47339 3.73163,13.80703"
     id="path4000"
     style="fill:none;stroke:#000000;stroke-width:2;stroke-linecap:round;stroke-linejoin:miter;stroke-miterlimit:4;stroke-opacity:1;stroke-dasharray:none" />
  <path
     d="m 188.44723,-295.59097 -4.10479,12.68754"
     id="path4002"
     style="fill:none;stroke:#000000;stroke-width:2;stroke-linecap:round;stroke-linejoin:miter;stroke-miterlimit:4;stroke-opacity:1;stroke-dasharray:none" />
  <path
     d="m 177.99867,-276.93282 -9.32907,0"
     id="path4004"
     style="fill:none;stroke:#000000;stroke-width:2;stroke-linecap:round;stroke-linejoin:miter;stroke-miterlimit:4;stroke-opacity:1;stroke-dasharray:none" />
  <path
     d="m 158.96737,-277.67915 c -1.49265,0.37316 -11.94121,-0.74633 -11.94121,-0.74633"
     id="path4006"
     style="fill:none;stroke:#000000;stroke-width:2;stroke-linecap:round;stroke-linejoin:miter;stroke-miterlimit:4;stroke-opacity:1;stroke-dasharray:none" />
  <path
     d="m 141.05555,-283.64975 0.37316,-9.70224"
     id="path4008"
     style="fill:none;stroke:#000000;stroke-width:2;stroke-linecap:round;stroke-linejoin:miter;stroke-miterlimit:4;stroke-opacity:1;stroke-dasharray:none" />
  <path
     d="m 142.5482,-302.68106 -0.74632,-14.18019"
     id="path4010"
     style="fill:none;stroke:#000000;stroke-width:2;stroke-linecap:round;stroke-linejoin:miter;stroke-miterlimit:4;stroke-opacity:1;stroke-dasharray:none" />
  <path
     d="m 145.90667,-299.32259 c 1.86581,-0.37317 20.52396,0 20.52396,0"
     id="path4012"
     style="fill:none;stroke:#000000;stroke-width:2;stroke-linecap:round;stroke-linejoin:miter;stroke-miterlimit:4;stroke-opacity:1;stroke-dasharray:none" />
  <path
     d="m 176.50602,-299.69576 c 1.86582,-1.11949 7.0901,-0.74632 7.0901,-0.74632"
     id="path4014"
     style="fill:none;stroke:#000000;stroke-width:2;stroke-linecap:round;stroke-linejoin:miter;stroke-miterlimit:4;stroke-opacity:1;stroke-dasharray:none" />
  <path
     d="m 170.90857,-294.09831 -4.47794,11.56804"
     id="path4016"
     style="fill:none;stroke:#000000;stroke-width:2;stroke-linecap:round;stroke-linejoin:miter;stroke-miterlimit:4;stroke-opacity:1;stroke-dasharray:none" />
  <path
     d="m 170.90858,-305.66636 -6.71693,-13.43386"
     id="path4018"
     style="fill:none;stroke:#000000;stroke-width:2;stroke-linecap:round;stroke-linejoin:miter;stroke-miterlimit:4;stroke-opacity:1;stroke-dasharray:none" />
  <path
     d="m 158.84732,-222.0071 4.22185,-5.80506"
     id="path4020"
     style="fill:none;stroke:#000000;stroke-width:2;stroke-linecap:round;stroke-linejoin:miter;stroke-miterlimit:4;stroke-opacity:1;stroke-dasharray:none" />
  <path
     d="m 169.92969,-235.72813 8.97144,-4.74959"
     id="path4022"
     style="fill:none;stroke:#000000;stroke-width:2;stroke-linecap:round;stroke-linejoin:miter;stroke-miterlimit:4;stroke-opacity:1;stroke-dasharray:none" />
  <path
     d="m 180.48432,-247.86597 -4.74958,-6.86051"
     id="path4024"
     style="fill:none;stroke:#000000;stroke-width:2;stroke-linecap:round;stroke-linejoin:miter;stroke-miterlimit:4;stroke-opacity:1;stroke-dasharray:none" />
  <path
     d="m 167.81875,-255.78194 -12.66556,8.4437"
     id="path4026"
     style="fill:none;stroke:#000000;stroke-width:2;stroke-linecap:round;stroke-linejoin:miter;stroke-miterlimit:4;stroke-opacity:1;stroke-dasharray:none" />
  <path
     d="m 147.76494,-239.42226 c -0.52773,2.11093 -4.74959,13.1933 -4.74959,13.1933"
     id="path4028"
     style="fill:none;stroke:#000000;stroke-width:2;stroke-linecap:round;stroke-linejoin:miter;stroke-miterlimit:4;stroke-opacity:1;stroke-dasharray:none" />
  <path
     d="m 143.54309,-217.25752 7.38825,1.5832"
     id="path4030"
     style="fill:none;stroke:#000000;stroke-width:2;stroke-linecap:round;stroke-linejoin:miter;stroke-miterlimit:4;stroke-opacity:1;stroke-dasharray:none" />
  <path
     d="m 155.15319,-240.47772 6.33278,4.74959"
     id="path4032"
     style="fill:none;stroke:#000000;stroke-width:2;stroke-linecap:round;stroke-linejoin:miter;stroke-miterlimit:4;stroke-opacity:1;stroke-dasharray:none" />
  <path
     d="m 167.55011,-192.22486 5.97061,-2.61214"
     id="path4034"
     style="fill:none;stroke:#000000;stroke-width:2;stroke-linecap:round;stroke-linejoin:miter;stroke-miterlimit:4;stroke-opacity:1;stroke-dasharray:none" />
  <path
     d="m 180.61081,-191.8517 5.22428,8.58275"
     id="path4036"
     style="fill:none;stroke:#000000;stroke-width:2;stroke-linecap:round;stroke-linejoin:miter;stroke-miterlimit:4;stroke-opacity:1;stroke-dasharray:none" />
  <path
     d="m 188.44723,-173.19356 -1.49265,9.32908"
     id="path4038"
     style="fill:none;stroke:#000000;stroke-width:2;stroke-linecap:round;stroke-linejoin:miter;stroke-miterlimit:4;stroke-opacity:1;stroke-dasharray:none" />
  <path
     d="m 170.53542,-167.59611 -1.49266,8.58274"
     id="path4040"
     style="fill:none;stroke:#000000;stroke-width:2;stroke-linecap:round;stroke-linejoin:miter;stroke-miterlimit:4;stroke-opacity:1;stroke-dasharray:none" />
  <path
     d="m 181.7303,-158.26704 -8.20958,4.85111"
     id="path4044"
     style="fill:none;stroke:#000000;stroke-width:2;stroke-linecap:round;stroke-linejoin:miter;stroke-miterlimit:4;stroke-opacity:1;stroke-dasharray:none" />
  <path
     d="m 162.699,-153.41593 -12.31438,0.37317"
     id="path4046"
     style="fill:none;stroke:#000000;stroke-width:2;stroke-linecap:round;stroke-linejoin:miter;stroke-miterlimit:4;stroke-opacity:1;stroke-dasharray:none" />
  <path
     d="m 145.16034,-157.14755 c 0,-1.49265 1.86582,-4.10479 1.86582,-4.10479"
     id="path4048"
     style="fill:none;stroke:#000000;stroke-width:2;stroke-linecap:round;stroke-linejoin:miter;stroke-miterlimit:4;stroke-opacity:1;stroke-dasharray:none" />
  <path
     d="m 161.57951,-171.32774 c 1.49265,-0.74633 4.47795,-1.11949 4.47795,-1.11949"
     id="path4050"
     style="fill:none;stroke:#000000;stroke-width:2;stroke-linecap:round;stroke-linejoin:miter;stroke-miterlimit:4;stroke-opacity:1;stroke-dasharray:none" />
  <path
     d="m 175.38653,-174.31304 c 1.49265,-0.37317 6.34377,-1.86582 6.34377,-1.86582"
     id="path4052"
     style="fill:none;stroke:#000000;stroke-width:2;stroke-linecap:round;stroke-linejoin:miter;stroke-miterlimit:4;stroke-opacity:1;stroke-dasharray:none" />
  <path
     d="m 165.31114,-186.25425 3.73162,8.20958"
     id="path4054"
     style="fill:none;stroke:#000000;stroke-width:2;stroke-linecap:round;stroke-linejoin:miter;stroke-miterlimit:4;stroke-opacity:1;stroke-dasharray:none" />
  <path
     d="m 157.84788,-190.35905 -4.10479,1.86582"
     id="path4058"
     style="fill:none;stroke:#000000;stroke-width:2;stroke-linecap:round;stroke-linejoin:miter;stroke-miterlimit:4;stroke-opacity:1;stroke-dasharray:none" />
  <path
     d="m 532.96798,-258.17554 c 0,0 -9.875,12.52848 -9.875,20.5 0,7.97152 3.89793,10.80719 9.875,11 5.97707,0.19281 10.8148,-3.02848 10.625,-11 -0.1898,-7.97152 -10.625,-20.5 -10.625,-20.5 z m -6.74081,17.65603 c 0,0 0.25628,5.11254 1.6944,7.05846 2.52435,3.41571 5.22449,4.23932 5.22449,4.23932 0,0 -5.9013,0.51975 -7.29044,-3.70406 -1.40882,-4.28365 0.37155,-7.59372 0.37155,-7.59372 z"
     id="path4060"
     style="fill:#000000;fill-opacity:1;stroke:none" />
  <path
     d="m 576.85266,-238.48971 -10.02858,-9.98012 0.0168,6.92858 -10.4091,0.009 0.096,6.23228 10.32796,-0.0898 0.0168,6.92858 9.98013,-10.02858 z"
     id="path4068"
     style="fill:none;stroke:#000000;stroke-width:2;stroke-linecap:round;stroke-linejoin:round;stroke-miterlimit:4;stroke-opacity:1;stroke-dasharray:none" />
  <path
     d="m 563.13163,-255.641 -10.02858,-9.98012 0.0168,6.92858 -10.4091,0.009 0.096,6.23228 10.32796,-0.0898 0.0168,6.92858 9.98013,-10.02858 z"
     id="path4074"
     style="fill:none;stroke:#000000;stroke-width:2;stroke-linecap:round;stroke-linejoin:round;stroke-miterlimit:4;stroke-opacity:1;stroke-dasharray:none" />
  <path
     d="m 564.18709,-222.65775 -10.02858,-9.98012 0.0168,6.92858 -10.4091,0.009 0.096,6.23228 10.32796,-0.0898 0.0168,6.92858 9.98013,-10.02858 z"
     id="path4076"
     style="fill:none;stroke:#000000;stroke-width:2;stroke-linecap:round;stroke-linejoin:round;stroke-miterlimit:4;stroke-opacity:1;stroke-dasharray:none" />
</svg>
