/* XPM */
static const char * cross_cursor_xpm[] = {
"32 32 2 1",
" 	c None",
".	c #0B0B0B",
"                                ",
"                                ",
"                                ",
"                                ",
"              ..                ",
"              ..                ",
"              ..                ",
"              ..                ",
"              ..                ",
"              ..                ",
"              ..                ",
"              ..                ",
"              ..                ",
"              ..                ",
"    ..........  ..........      ",
"    ..........  ..........      ",
"              ..                ",
"              ..                ",
"              ..                ",
"              ..                ",
"              ..                ",
"              ..                ",
"              ..                ",
"              ..                ",
"              ..                ",
"              ..                ",
"                                ",
"                                ",
"                                ",
"                                ",
"                                ",
"                                "};
