/* XPM */
static const char * forbidden_cursor_xpm[] = {
"32 32 2 1",
" 	c None",
".	c #000000",
"                                ",
"                                ",
"           ..........           ",
"         ..............         ",
"       ..................       ",
"      ......        ......      ",
"     .....            .....     ",
"    ......             .....    ",
"    .......             ....    ",
"   .... ....             ....   ",
"   ...   ....             ...   ",
"  ....    ....            ....  ",
"  ...      ....            ...  ",
"  ...       ....           ...  ",
"  ...        ....          ...  ",
"  ...         ....         ...  ",
"  ...          ....        ...  ",
"  ...           ....       ...  ",
"  ...            ....      ...  ",
"  ...             ....     ...  ",
"  ....             ....   ...   ",
"   ...              ....  ...   ",
"   ....              .... ...   ",
"    ....              ......    ",
"    .....              .....    ",
"     .....             ....     ",
"      ......        ......      ",
"       ..................       ",
"         ..............         ",
"           ..........           ",
"                                ",
"                                "};
