/* XPM */
static const char * const sizehor_cursor_xpm[] = {
"32 32 3 1",
" 	c None",
".	c #000000",
"+	c #FFFFFF",
"                                ",
"                                ",
"                                ",
"                                ",
"                                ",
"                                ",
"                                ",
"                                ",
"                                ",
"                                ",
"                                ",
"        .             .         ",
"       ..             ..        ",
"      ...             ...       ",
"     .....................      ",
"    .......................     ",
"     .....................      ",
"      ...             ...       ",
"       ..             ..        ",
"        .             .         ",
"                                ",
"                                ",
"                                ",
"                                ",
"                                ",
"                                ",
"                                ",
"                                ",
"                                ",
"                                ",
"                                ",
"                                "};
