/* XPM */
static char*play[]={
"20 20 4 1",
"b c #808080",
"# c #000000",
". c None",
"a c #00c000",
"....................",
"....................",
"....................",
"....##..............",
"....#a##............",
"....#aaa#...........",
"....#aaaa##.........",
"....#aaaaaa#........",
"....#aaaaaaa##......",
"....#aaaaaaaaa#.....",
"....#aaaaaaa##bb....",
"....#aaaaaa#bbb.....",
"....#aaaa##bb.......",
"....#aaa#bbb........",
"....#a##bb..........",
"....##bbb...........",
".....bb.............",
"....................",
"....................",
"...................."};
