/* XPM */
static char*rec[]={
"20 20 4 1",
". c #808080",
"# c #000000",
"a c None",
"b c #ff0000",
"aaaaaaaaaaaaaaaaaaaa",
"aaaaaaaaaaaaaaaaaaaa",
"aaaaaaaaaaaaaaaaaaaa",
"aaaaaaaaaaaaaaaaaaaa",
"aaaaaaa#####aaaaaaaa",
"aaaaa##bbbbb##aaaaaa",
"aaaaa#bbbbbbb#aaaaaa",
"aaaa#bbbbbbbbb#aaaaa",
"aaaa#bbbbbbbbb#.aaaa",
"aaaa#bbbbbbbbb#.aaaa",
"aaaa#bbbbbbbbb#.aaaa",
"aaaa#bbbbbbbbb#.aaaa",
"aaaaa#bbbbbbb#..aaaa",
"aaaaa##bbbbb##.aaaaa",
"aaaaaaa#####...aaaaa",
"aaaaaaaa.....aaaaaaa",
"aaaaaaaaaaaaaaaaaaaa",
"aaaaaaaaaaaaaaaaaaaa",
"aaaaaaaaaaaaaaaaaaaa",
"aaaaaaaaaaaaaaaaaaaa"
};
