/* XPM */
static char*record[]={
"20 20 4 1",
"b c #808080",
"# c #000000",
". c None",
"a c #ff0000",
"....................",
"....................",
"....................",
"....................",
".......#####........",
"......#aaaaa#.......",
".....#aaaaaaa#......",
"....#aaaaaaaaa#.....",
"....#aaaaaaaaa#b....",
"....#aaaaaaaaa#b....",
"....#aaaaaaaaa#b....",
"....#aaaaaaaaa#b....",
".....#aaaaaaa#bb....",
"......#aaaaa#bb.....",
".......#####bb......",
"........bbbbb.......",
"....................",
"....................",
"....................",
"...................."};
