/* XPM */
static char*stop[]={
"20 20 5 1",
"c c #808080",
"a c #00ffff",
"# c #000000",
"b c #0000ff",
". c None",
"....................",
"....................",
"....................",
"....................",
"....###########.....",
"....#ababababa#c....",
"....#babababab#c....",
"....#ababababa#c....",
"....#babababab#c....",
"....#ababababa#c....",
"....#babababab#c....",
"....#ababababa#c....",
"....#babababab#c....",
"....#ababababa#c....",
"....###########c....",
".....ccccccccccc....",
"....................",
"....................",
"....................",
"...................."};
