/* XPM */
static char * center_xpm[] = {
"21 19 2 1",
" 	c None",
".	c #000000000000",
"                     ",
"                     ",
"                     ",
"                     ",
"                     ",
"   ..............    ",
"                     ",
"     ..........      ",
"                     ",
"   ..............    ",
"                     ",
"     ..........      ",
"                     ",
"   ..............    ",
"                     ",
"     ..........      ",
"                     ",
"                     ",
"                     "};
