/* XPM */
static char * bold_xpm[] = {
"20 20 2 1",
" 	c none",
".	c #000000000000",
"                    ",
"                    ",
"         ..         ",
"         ..         ",
"        ....        ",
"        ....        ",
"       ......       ",
"       ......       ",
"      ..  ....      ",
"      ..  ....      ",
"     ..    ....     ",
"     ..    ....     ",
"    ............    ",
"    ..      ....    ",
"   ..        ....   ",
"  ...        ....   ",
" .....     ........ ",
"                    ",
"                    ",
"                    "};
