/* XPM */
static char*abort[]={
"22 22 4 1",
"# c #ff8000",
". c None",
"a c #c00000",
"b c #ff0000",
"......................",
"......................",
"......................",
"......................",
"..............#.......",
".....##.....##a.......",
".....#b##..##ba.......",
"....#abbb#bbbaa.......",
"......aabbbaa.........",
"........abb...........",
"........#bb#..........",
".......#baab#.........",
"......#ba..aba........",
"......#a....aa........",
".....#aa.....aa.......",
".....#a.......a.......",
".....#................",
".....#................",
"......................",
"......................",
"......................",
"......................"};
