/* XPM */
static char*clipart[]={
"22 22 6 1",
"c c #c5c2ff",
"b c #ffaa5a",
"# c #000000",
"a c #c5ffc5",
"d c #ffff00",
". c None",
"......................",
".......#####..........",
"......#aaaaa#.........",
".....#aaaaaaa#........",
"....#aaaaaaaaa#.......",
"....#aaaaa#########...",
"....#aaa#aa#bbbbbb#...",
"....#a##c#aa#bbbbb#...",
"....##ccc#aaa#bbbb#...",
"..##cccccc#aa##bbb#...",
".#cccccccc#a#..#bb#...",
".#cccccccc##....db#...",
"..#cccccccc#....#.....",
"..#ccccccccc#d..d..d..",
"...#cccccc##..d#d#d...",
"...#cccc##....#ddd#...",
"....#c##...d#ddd#ddd#.",
".....#........#ddd#...",
"..............d#d#d...",
".............d..d..d..",
"................#.....",
"......................"};
