/* XPM */
static char*insert[]={
"22 22 7 1",
"e c #ffa858",
"c c #c5c2ff",
"b c #ffaa5a",
"# c #000000",
"a c #c5ffc5",
"d c #ffdca8",
". c None",
"......................",
".......#####..........",
"......#aaaaa#.........",
".....#aaaaaaa#........",
"....#aaaaaaaaa#.......",
"....#aaaaa#########...",
"....#aaa#aa#bbbbbb#...",
"....#a##c#aa#bbbbb#...",
"....##ccc#aaa#bbbb#...",
"..##cccccc#aa##bbb#...",
".#cccccccc............",
".#cccccccc..#####.....",
"..#cccccc..#dddd###...",
"..#cccccc..#eeeeee#...",
"...#ccccc..#e########.",
"...#cccc#..#e#dddddd#.",
"....#c##...#e#eddddd#.",
".....#.....##eeeedd#..",
"...........##eeeeee#..",
"...........########...",
"......................",
"......................"};
