/* XPM */
static char*colout[]={
"20 20 4 1",
"# c #000000",
". c None",
"a c #ffffff",
"b c #ff0000",
"....................",
"....................",
"..#aaa#bbb#aaa#.....",
"..#aaa#bbb#aaa#.....",
"..#aaa#bbb#aaa#.....",
"..#aaa#bbb#aaa#.....",
"..#aaa#bbb#aaa#.....",
"..#aaa#bbb#aaa#.....",
"..#aaa#bbb#aaa#.....",
"..#############.....",
"....................",
"............bb..bb..",
"............bb.bbb..",
".............bbbb...",
"..............bb....",
".............bbb....",
"............bb..b...",
"............b...b...",
"....................",
"...................."};
