/* XPM */
static char*rowout[]={
"20 20 4 1",
"# c #000000",
". c None",
"a c #ffffff",
"b c #ff0000",
"....................",
"....................",
"..#########.........",
"..aaaaaaaa#.........",
"..aaaaaaaa#.........",
"..aaaaaaaa#.........",
"..#########.........",
"..bbbbbbbb#.........",
"..bbbbbbbb#.........",
"..bbbbbbbb#.........",
"..#########.........",
"..aaaaaaaa#.bb..bb..",
"..aaaaaaaa#.bb.bbb..",
"..aaaaaaaa#..bbbb...",
"..#########...bb....",
".............bbb....",
"............bb..b...",
"............b...b...",
"....................",
"...................."};
