/* XPM */
static char*rowin[]={
"20 20 5 1",
"# c #000000",
". c None",
"c c #ffff00",
"b c #00c200",
"a c #ffffff",
"....................",
"....................",
"..#########.........",
"..aaaaaaaa#.........",
"..aaaaaaaa#.........",
"..aaaaaaaa#.........",
"..#########.........",
"..bbbbbbbb#.........",
"..bbbbbbbb#.........",
"..bbbbbbbb#..#......",
"..########c..c..c...",
"..aaaaaaaa#c#c#c....",
"..aaaaaaaa##ccc#....",
"..aaaaaaacccc#ccc#..",
"..##########ccc#....",
"...........c#c#c....",
"..........c..c..c...",
".............#......",
"....................",
"...................."};
