/* XPM */
static char*colin[]={
"20 20 5 1",
"# c #000000",
". c None",
"c c #ffff00",
"b c #00c200",
"a c #ffffff",
"....................",
"....................",
"..#aaa#bbb#aaa#.....",
"..#aaa#bbb#aaa#.....",
"..#aaa#bbb#aaa#.....",
"..#aaa#bbb#aaa#.....",
"..#aaa#bbb#aaa#.....",
"..#aaa#bbb#aaa#.....",
"..#aaa#bbb#aaa#.....",
"..#############.....",
"..........c..c..c...",
"...........c#c#c....",
"...........#ccc#....",
".........#ccc#ccc#..",
"...........#ccc#....",
"...........c#c#c....",
"..........c..c..c...",
".............#......",
"....................",
"...................."};
