/* XPM */
static char * italic_xpm[] = {
"20 20 3 1",
" 	c none",
".	c #000000000000",
"X	c #30C230C26185",
"                    ",
"                    ",
"                    ",
"              .     ",
"             ..     ",
"             ..     ",
"            ...     ",
"           X ..     ",
"          X  ..     ",
"          X  ..     ",
"         X   ..     ",
"        .    ..     ",
"        .......     ",
"       X     ..     ",
"      X      ..     ",
"     X       ..     ",
"   XXXXX   ......   ",
"                    ",
"                    ",
"                    "};
