/* XPM */
static char*neonpen[]={
"20 20 5 1",
"a c #c0c0ff",
"# c #000000",
"c c #ffff00",
"b c #0000ff",
". c None",
"....................",
"..........###.......",
".........#aab#......",
".........#ab#.......",
"........#abb#.......",
"........#ab#........",
".......#abb#........",
".......#ab#.........",
"......#abb#.........",
"......#ab#..........",
".....#abb#.....cc...",
".....#ab#....ccccc..",
"....#abb#..ccccc....",
"....####.ccccc......",
"...#cc#ccccc........",
"...#cc#ccc..........",
"..#c##cc............",
".###................",
"....................",
"...................."};
