/* XPM */
static char*done[]={
"22 22 4 1",
"b c #008000",
"a c #004000",
". c None",
"# c #00c000",
"......................",
"......................",
"......................",
"................#.....",
"...............#......",
"..............#.......",
".............#a.......",
"............#a........",
"...........#a.........",
"....##....#ba.........",
".....b##.##a..........",
"......bb##ba..........",
".......abba...........",
"........aba...........",
".........a............",
".........a............",
"......................",
"......................",
"......................",
"......................",
"......................",
"......................"};
