/* XPM */
static char*ok[]={
"20 20 4 1",
"b c #00ff00",
"# c #000000",
". c None",
"a c #00c000",
"....................",
"....................",
"...............##...",
"..............#a#...",
".............#b#....",
".............#a#....",
"............#a#.....",
"...........#ba#.....",
"....##.....#b#......",
"...#b#....#ba#......",
"...#bb#..#ba#.......",
"...#bab#.#ba#.......",
"...#baaa#ba#........",
"....#aaaaaa#........",
".....#aaaaa#........",
"......#aaaa#........",
".......#aa#.........",
"........##..........",
"....................",
"...................."};
