/* XPM */
static char * insert_formula_gear_xpm[] = {
"20 20 43 1",
" 	c None",
".	c #000000",
"+	c #303030",
"@	c #585858",
"#	c #808080",
"$	c #A0A0A0",
"%	c #C3C3C3",
"&	c #DCDCDC",
"*	c #400000",
"=	c #800000",
"-	c #C00000",
";	c #FF0000",
">	c #FFC0C0",
",	c #004000",
"'	c #008000",
")	c #00C000",
"!	c #00FF00",
"~	c #C0FFC0",
"{	c #000000",
"]	c #000080",
"^	c #0000C0",
"/	c #0000FF",
"(	c #C0C0FF",
"_	c #404000",
":	c #808000",
"<	c #C0C000",
"[	c #FFFF00",
"}	c #FFFFC0",
"|	c #004040",
"1	c #008080",
"2	c #00C0C0",
"3	c #00FFFF",
"4	c #C0FFFF",
"5	c #000000",
"6	c #800080",
"7	c #C000C0",
"8	c #FF00FF",
"9	c #FFC0FF",
"0	c #FF8000",
"a	c #C05800",
"b	c #FFA858",
"c	c #FFDCA8",
"d	c #FFFFFF",
"        ..          ",
"      ..cc..        ",
"     .cccccc.       ",
"     ...cc....      ",
"     .00..bb.c..    ",
"     .000bbb.ccc..  ",
"     .000bbb.c..b.  ",
"    ..000bbb..bbb.  ",
"  ..cc..0bbbbbbbb.  ",
" .cccccc.bb         ",
" ...cc..bb  ......  ",
" .00..bbb  .&.&&.&. ",
" .000bbbb .&&&&&&&&.",
" .000bbbb ..&&..&&..",
" .000bbb. .&&&&&&&&.",
" ...0b..0 ..&.&&.&..",
"    ..000 .d......#.",
"     .000 ..d.$$.#. ",
"      ..0   ......  ",
"        ..          "};
