/* XPM */
static char*part[]={
"20 20 10 1",
"g c #808080",
"h c #a0a0a0",
"d c #c0c0ff",
"c c #00ffff",
"# c #000000",
". c None",
"a c #0000c0",
"b c #0000ff",
"e c #dcdcdc",
"f c #ffffff",
"....................",
".............#####..",
".............#aaa#..",
".............#aaa#..",
".........#####aaa#..",
".........#bbb#aaa#..",
".#####...#bbb#aaa#..",
".#ccc#...#bbb#aaa#..",
".#ccc#...#bbb#aaa#..",
".#ccc#####bb........",
".#ccc#ddd#..######..",
".#ccc#ddd..#e#ee#e#.",
".#ccc#ddd.#eeeeeeee#",
".#ccc#ddd.##ee##ee##",
".#ccc#ddd.#eeeeeeee#",
".########.##e#ee#e##",
"..........#f######g#",
"...........#f#hh#g#.",
"............######..",
"...................."};
