/* XPM */
static char*part[]={
"20 20 9 1",
"g c #808080",
"d c #a0a0a0",
"f c #c3c3c3",
"# c #000000",
". c None",
"a c #ffff00",
"c c #0000ff",
"e c #dcdcdc",
"b c #ffffff",
"..#.................",
".#a#.......##.......",
".#a#.....##b#.......",
".#a#...##bb#b#......",
"..#..##bbbb#b#......",
".#c##bbbbbb#bb#.....",
".#c#bbbbbb#bbb#.....",
"##c#bbbbbb##bbb#....",
"##c###bbbb#b##b#....",
".#c#bb####bbbbdd....",
".#c#bb#bbbbb######..",
".###b#bbbbb#e#ee#e#.",
".#c#b#bbbb#eeeeeeee#",
".#c#bfbb#g##ee##ee##",
".#c#bb##..#eeeeeeee#",
".#c###....##e#ee#e##",
".#c#......#b######g#",
".#c#.......#b#dd#g#.",
".#c#........######..",
"..#................."};
