/* XPM */
static char*insert[]={
"20 20 10 1",
"g c #808080",
"h c #a0a0a0",
"b c #c0c0ff",
"# c #000000",
"c c #ffff00",
"a c #ffffc0",
". c None",
"d c #00c000",
"e c #dcdcdc",
"f c #ffffff",
"....................",
".################...",
".#aaaaaaaaaaaaaa#...",
".#a############a#...",
".#a#bbbbbbbbbb#a#...",
".#a#bcccbbbbbb#a#...",
".#a#bcccbbbbbb#a#...",
".#a#bcccbbbbbb#a#...",
".#a#bbbbbbbbbb#a#...",
".#a#bbbbbbb.........",
".#a#dddddd..######..",
".#a#ddddd..#e#ee#e#.",
".#a#ddddd.#eeeeeeee#",
".#a######.##ee##ee##",
".#aaaaaaa.#eeeeeeee#",
".########.##e#ee#e##",
"..........#f######g#",
"...........#f#hh#g#.",
"............######..",
"...................."};
