/* XPM */
static char*part[]={
"20 20 12 1",
"j c #808080",
"g c #ffa858",
"c c #a0a0a0",
"h c #c05800",
"a c #00ffff",
"# c #000000",
". c None",
"e c #303030",
"f c #ffdca8",
"b c #c0ffff",
"i c #dcdcdc",
"d c #ffffff",
".....##.............",
"....#ab##...........",
"....#acab##.........",
".....##acab##.......",
"...##ddd#acab##.....",
".##dddd##e#acab##...",
"#ddddd#f#dd##acab##.",
"#dddd#ff#ddc.##acab#",
".#ddd#gf#dde...##a#.",
".#dd#fg#ddddc....##.",
"..#d#gh#dddd######..",
"...#fg#dddd#i#ii#i#.",
"...#gh#ddd#iiiiiiii#",
"..#fg#dddd##ii##ii##",
"..#gh#dddd#iiiiiiii#",
".#fg#ddddj##i#ii#i##",
".#gh#dd##.#d######j#",
"..##.##....#d#cc#j#.",
"............######..",
"...................."};
