/* XPM */
static char*formula[]={
"20 20 7 1",
"e c #808080",
"a c #a0a0a0",
"b c #c3c3c3",
"# c #000000",
". c None",
"c c #dcdcdc",
"d c #ffffff",
"....................",
"......##............",
".....#.#............",
".....#..............",
"....a#..............",
"...####.........####",
"....#...#....#......",
"....#..#......#.####",
"....#..#.#..#.#.....",
"...a#.#..#.#..b.....",
"...#..#...#.######..",
"...#..#..#.#c#cc#c#.",
".#.#..#.#.#cccccccc#",
".##...#.#.##cc##cc##",
"..........#cccccccc#",
"..........##c#cc#c##",
"..........#d######e#",
"..........##d#aa#e#.",
"............######..",
"...................."};
