/* XPM */
static char*part[]={
"20 20 12 1",
"i c #808080",
"a c #ffa858",
"j c #a0a0a0",
"d c #c0c0ff",
"e c #00ffff",
"# c #000000",
". c None",
"c c #ffff00",
"b c #0000ff",
"f c #00c000",
"g c #dcdcdc",
"h c #ffffff",
"....................",
".################...",
".#aaaaaaaaaaaaaa#...",
".#abbbbbbbbbbbba#...",
".#abbbbbbbbacaba#...",
".#abbbbbbbbcccba#...",
".#adbdbdbdbacaba#...",
".#adddddddddddda#...",
".#aededededededa#...",
".#aeeeeeeee.........",
".#afffffff..######..",
".#affffff..#g#gg#g#.",
".#affffff.#gggggggg#",
".#affffff.##gg##gg##",
".#aaaaaaa.#gggggggg#",
".########.##g#gg#g##",
"..........#h######i#",
"...........#h#jj#i#.",
"............######..",
"...................."};
