/* XPM */
static char*insert[]={
"20 20 7 1",
"d c #808080",
"e c #a0a0a0",
"a c #00ffff",
"# c #000000",
". c None",
"c c #dcdcdc",
"b c #ffffff",
"....................",
".################...",
".#aa#aaa#aaa#aaa#...",
".#aa#aaa#aaa#aaa#...",
".################...",
".#aa#bbb#bbb#bbb#...",
".#aa#bbb#bbb#bbb#...",
".#aa#bbb#bbb#bbb#...",
".################...",
".#aa#bbb#...........",
".#aa#bbb#...######..",
".#aa#bbb#..#c#cc#c#.",
".########.#cccccccc#",
".#aa#bbb#.##cc##cc##",
".#aa#bbb#.#cccccccc#",
".#aa#bbb#.##c#cc#c##",
".########.#b######d#",
"...........#b#ee#d#.",
"............######..",
"...................."};
