/* XPM */
static char*part[]={
"22 22 14 1",
"k c #808080",
"b c #008000",
"e c #ffa858",
"l c #a0a0a0",
"a c #00ff00",
"h c #c0c0ff",
"f c #00ffff",
"# c #000000",
". c None",
"d c #ffdca8",
"g c #0000ff",
"c c #00c000",
"i c #dcdcdc",
"j c #ffffff",
"......................",
"...........##.........",
".........##aa##.......",
".......##aaaaaa##.....",
"......#aaaaaa##b#.....",
"......###aa##bbb###...",
"......#cc##bbbbb#dd##.",
"......#cccbbbbbb###e#.",
"......#cccbbbbb##eee#.",
".....##cccbbb##eeeee#.",
"...##ff##cb###eeeeee#.",
".##ffffff##gg#......#.",
".#h##ff##gggg.######..",
".#hhh##ggggg.#i#ii#i#.",
".#hhhhggggg.#iiiiiiii#",
".#hhhhggggg.##ii##ii##",
".##hhhggg##.#iiiiiiii#",
"...##hg##...##i#ii#i##",
".....##.....#j######k#",
".............#j#ll#k#.",
"..............######..",
"......................"};
