/* XPM */
static char*insert[]={
"22 22 9 1",
"g c #ffa858",
"b c #c5c2ff",
"# c #000000",
"a c #ffffc5",
"c c #ffff00",
"f c #ffdca8",
"d c #ffffc0",
"e c #00c200",
". c None",
"......................",
"......................",
"..################....",
"..#aaaaaaaaaaaaaa#....",
"..#a############a#....",
"..#a#bbbbbbbbbb#a#....",
"..#a#bcccbbbbbb#a#....",
"..#a#bcccbbbbbb#d#....",
"..#a#bcccbbbbbb#d#....",
"..#a#bbbbbbbbbb#d#....",
"..#a#bbbbbb...........",
"..#a#eeeee..####......",
"..#a#eeeee.#ffff###...",
"..#a#eeeee.#gggggg#...",
"..#a######.#g########.",
"..#aaaaaaa.#g#ffffff#.",
"..########.#g#gfffff#.",
"...........##ggggff#..",
"...........##gggggg#..",
"...........########...",
"......................",
"......................"};
