/* XPM */
static char*picture[]={
"22 22 6 1",
"b c #c5c2ff",
"# c #000000",
"a c #ffffc5",
"c c #ffff00",
"d c #00c200",
". c None",
"......................",
"......................",
"..################....",
"..#aaaaaaaaaaaaaa#....",
"..#a############a#....",
"..#a#bbbbbbbbbb#a#....",
"..#a#bcccbbbbbb#a#....",
"..#a#bcccbbbbbb#a#....",
"..#a#bcccbbbbbb#a#....",
"..#a#bbbbbbbbbb.......",
"..#a#bbbbbbbb..c......",
"..#a#ddddddd...#......",
"..#a#dddddd.c..c..c...",
"..#a#ddddd...c#c#c....",
"..#a######...#ccc#....",
"..#aaaaaaa.#ccc#ccc#..",
"..########...#ccc#....",
".............c#c#c....",
"............c..c..c...",
"...............#......",
"......................",
"......................"};
