/* XPM */
static char*picture[]={
"20 20 9 1",
"a c #ffa858",
"d c #c0c0ff",
"e c #00ffff",
"# c #000000",
". c None",
"c c #ffff00",
"g c #ffdca8",
"b c #0000ff",
"f c #00c000",
"....................",
".################...",
".#aaaaaaaaaaaaaa#...",
".#abbbbbbbbbbbba#...",
".#abbbbbbbbacaba#...",
".#abbbbbbbbcccba#...",
".#adbdbdbdbacaba#...",
".#adddddddddddda#...",
".#aededededededa#...",
".#aeeeeeeee.....#...",
".#afffffff.####.....",
".#affffff.#gggg###..",
".#affffff.#aaaaaa#..",
".#affffff.#a########",
".#aaaaaaa.#a#gggggg#",
".########.#a#aggggg#",
"..........##aaaagg#.",
"..........##aaaaaa#.",
"..........########..",
"...................."};
