/* XPM */
static char *redo[] = {
"    22    22        3            1",
". c none",
"# c #808080",
"a c #000000",
"......................",
"......................",
"......................",
"......................",
"......................",
"......................",
"......................",
"......#aaa##..........",
".....aaaaaaa#.........",
"....a#....#aa#........",
"...........#aa........",
"............aaa.......",
"..........aaaaaaa.....",
"...........aaaaa......",
"............aaa.......",
".............a........",
"......................",
"......................",
"......................",
"......................",
"......................",
"......................"
};
