/* XPM */
static char*text[]={
"20 20 12 1",
"i c #c0c000",
"h c #808000",
"g c #c0c0ff",
"a c #000000",
"d c #ff8000",
". c None",
"e c #0000c0",
"j c #ffff00",
"f c #0000ff",
"b c #c00000",
"# c #00c000",
"c c #ff0000",
"....................",
"....................",
"..##############....",
"..######a#######....",
"..######a#######....",
"..#####aaa######....",
"..#####aaa######....",
"..####aa##a#####....",
"..####aa##a#####....",
"..###aa####a####....",
"..###aaaaaaa####....",
"..##aa######a###....",
"..##aa######aaaaaaaa",
"..#aaaa####aabbccdda",
"..##########abbccdda",
"..##########aeeffgga",
"............aeeffgga",
"............ahhiijja",
"............ahhiijja",
"............aaaaaaaa"};
