/* XPM */
static char*text[]={
"20 20 11 1",
"h c #c0c000",
"g c #808000",
"f c #c0c0ff",
"a c #000000",
"d c #ff8000",
". c None",
"e c #0000c0",
"i c #ffff00",
"# c #0000ff",
"b c #c00000",
"c c #ff0000",
"....................",
"....................",
"....................",
"........#...........",
"........#...........",
".......###..........",
".......###..........",
"......##..#.........",
"......##..#.........",
".....##....#........",
".....#######........",
"....##......#.......",
"....##......aaaaaaaa",
"...####....#abbccdda",
"............abbccdda",
"............aee##ffa",
"............aee##ffa",
"............agghhiia",
"............agghhiia",
"............aaaaaaaa"};
