/* XPM */
static char * undo_xpm[] = {
"22 22 3 1",
" 	c None",
".	c #808080",
"+	c #000000",
"                      ",
"                      ",
"                      ",
"                      ",
"                      ",
"                      ",
"                      ",
"          ..+++.      ",
"         .+++++++     ",
"        .++.    .+    ",
"        ++.           ",
"       +++            ",
"     +++++++          ",
"      +++++           ",
"       +++            ",
"        +             ",
"                      ",
"                      ",
"                      ",
"                      ",
"                      ",
"                      "};
