<?xml version="1.0" encoding="UTF-8" standalone="no"?>
<!-- Created with Inkscape (http://www.inkscape.org/) -->

<svg
   xmlns:dc="http://purl.org/dc/elements/1.1/"
   xmlns:cc="http://creativecommons.org/ns#"
   xmlns:rdf="http://www.w3.org/1999/02/22-rdf-syntax-ns#"
   xmlns:svg="http://www.w3.org/2000/svg"
   xmlns="http://www.w3.org/2000/svg"
   version="1.1"
   width="32"
   height="32"
   id="svg3113">
  <defs
     id="defs3115" />
  <metadata
     id="metadata3118">
    <rdf:RDF>
      <cc:Work
         rdf:about="">
        <dc:format>image/svg+xml</dc:format>
        <dc:type
           rdf:resource="http://purl.org/dc/dcmitype/StillImage" />
        <dc:title></dc:title>
      </cc:Work>
    </rdf:RDF>
  </metadata>
  <g
     transform="translate(0,-1020.3622)"
     id="layer1">
    <g
       transform="matrix(0.53333321,0,0,0.53333321,-149.46798,933.76906)"
       id="g4077"
       style="display:inline">
      <path
         d="m 310.25254,162.36218 c -16.56854,0 -30,13.43146 -30,30 0,16.56854 13.43146,30 30,30 16.56854,0 30,-13.43146 30,-30 0,-16.56854 -13.43146,-30 -30,-30 z m 0,5 c 13.80712,0 25,11.19288 25,25 0,13.80712 -11.19288,25 -25,25 -13.80712,0 -25,-11.19288 -25,-25 0,-13.80712 11.19288,-25 25,-25 z"
         id="path3850-3"
         style="color:#000000;fill:#ffffff;fill-opacity:1;fill-rule:nonzero;stroke:none;stroke-width:1.5;marker:none;visibility:visible;display:inline;overflow:visible;enable-background:accumulate" />
      <g
         transform="matrix(0.70710678,0.70710678,-0.70710678,0.70710678,183.79685,-218.58328)"
         id="g3941">
        <g
           id="g3946">
          <path
             d="m 375,214 c 0,0 0,2 5,2 5,0 5,-2 5,-2 l 0,25 c 0,0 0,2 -5,2 -5,0 -5,-2 -5,-2 z"
             transform="translate(0,-27.63782)"
             id="path3921"
             style="fill:#ffffff;fill-opacity:1;stroke:none" />
          <path
             d="m 375,213 c 0,0 0,2 5,2 5,0 5,-2 5,-2 0,0 0,-2 -5,-2 -5,0 -5,2 -5,2 z"
             transform="translate(0,-27.63782)"
             id="path3930"
             style="fill:#ffffff;fill-opacity:1;stroke:none" />
          <path
             d="m 375,212.36218 c 0,0 0,2 5,2 5,0 5,-2 5,-2 0,2 -5,10 -5,10 0,0 -5,-8 -5,-10 z"
             id="path3932"
             style="fill:#ffffff;fill-opacity:1;stroke:none" />
        </g>
      </g>
    </g>
  </g>
</svg>
