<?xml version="1.0" encoding="UTF-8" standalone="no"?>
<svg
   xmlns:dc="http://purl.org/dc/elements/1.1/"
   xmlns:cc="http://creativecommons.org/ns#"
   xmlns:rdf="http://www.w3.org/1999/02/22-rdf-syntax-ns#"
   xmlns:svg="http://www.w3.org/2000/svg"
   xmlns="http://www.w3.org/2000/svg"
   id="svg3930"
   height="48"
   width="48"
   version="1.1">
  <defs
     id="defs3932" />
  <metadata
     id="metadata3935">
    <rdf:RDF>
      <cc:Work
         rdf:about="">
        <dc:format>image/svg+xml</dc:format>
        <dc:type
           rdf:resource="http://purl.org/dc/dcmitype/StillImage" />
        <dc:title></dc:title>
        <dc:date>2012</dc:date>
        <dc:creator>
          <cc:Agent>
            <dc:title>Timothée Giet</dc:title>
          </cc:Agent>
        </dc:creator>
        <cc:license
           rdf:resource="http://creativecommons.org/licenses/by-sa/4.0/" />
      </cc:Work>
      <cc:License
         rdf:about="http://creativecommons.org/licenses/by-sa/4.0/">
        <cc:permits
           rdf:resource="http://creativecommons.org/ns#Reproduction" />
        <cc:permits
           rdf:resource="http://creativecommons.org/ns#Distribution" />
        <cc:requires
           rdf:resource="http://creativecommons.org/ns#Notice" />
        <cc:requires
           rdf:resource="http://creativecommons.org/ns#Attribution" />
        <cc:permits
           rdf:resource="http://creativecommons.org/ns#DerivativeWorks" />
        <cc:requires
           rdf:resource="http://creativecommons.org/ns#ShareAlike" />
      </cc:License>
    </rdf:RDF>
  </metadata>
  <g
     id="layer1"
     transform="translate(0,-1004.3622)">
    <g
       style="display:inline"
       id="g4471"
       transform="translate(-168,300.3622)">
      <g
         style="display:inline"
         transform="matrix(1.5,0,0,1.5,144,572)"
         id="g3974">
        <g
           id="g4719"
           style="display:inline"
           transform="matrix(0.66666667,0,0,0.66666667,-106.66667,-3.3333329e-7)">
          <g
             style="display:inline;fill:#373737;fill-opacity:1"
             transform="matrix(1.5,0,0,1.4999992,184,-1458.5425)"
             id="layer1-0-2">
            <g
               transform="matrix(0.50000001,0,0,0.50000001,-76.000002,928.3622)"
               id="g4182-3-3"
               style="display:inline;fill:#373737;fill-opacity:1">
              <g
                 transform="matrix(0,-1.333334,1.3333333,0,152.00001,248.00005)"
                 id="layer1-1"
                 style="display:inline">
                <g
                   transform="translate(-80,-7.99993)"
                   style="display:inline"
                   id="g4240">
                  <g
                     id="layer1-3"
                     transform="matrix(0,1.5000003,-1.5000003,0,1598.5437,7.9999166)">
                    <g
                       style="display:inline"
                       id="g4077"
                       transform="matrix(0.53333321,0,0,0.53333321,-149.46798,933.76906)">
                      <g
                         id="g3941"
                         transform="rotate(45,355.75179,112.57078)">
                        <g
                           id="g3946">
                          <path
                             style="fill:#373737;fill-opacity:1;stroke:none"
                             id="path3921"
                             transform="translate(0,-27.63782)"
                             d="m 375,214 c 0,0 0,2 5,2 5,0 5,-2 5,-2 v 25 c 0,0 0,2 -5,2 -5,0 -5,-2 -5,-2 z" />
                          <path
                             style="fill:#373737;fill-opacity:1;stroke:none"
                             id="path3930"
                             transform="translate(0,-27.63782)"
                             d="m 375,213 c 0,0 0,2 5,2 5,0 5,-2 5,-2 0,0 0,-2 -5,-2 -5,0 -5,2 -5,2 z" />
                          <path
                             style="fill:#373737;fill-opacity:1;stroke:none"
                             id="path3932"
                             d="m 375,212.36218 c 0,0 0,2 5,2 5,0 5,-2 5,-2 0,2 -5,10 -5,10 0,0 -5,-8 -5,-10 z" />
                        </g>
                      </g>
                    </g>
                  </g>
                </g>
              </g>
            </g>
          </g>
        </g>
      </g>
    </g>
  </g>
  <path
     id="path820"
     d="M 24 1 A 23 23 0 0 0 1 24 A 23 23 0 0 0 24 47 A 23 23 0 0 0 47 24 A 23 23 0 0 0 24 1 z M 24 5 A 19 19 0 0 1 43 24 A 19 19 0 0 1 24 43 A 19 19 0 0 1 5 24 A 19 19 0 0 1 24 5 z "
     style="opacity:1;vector-effect:none;fill:#373737;fill-opacity:1;stroke:none;stroke-width:2;stroke-linecap:butt;stroke-linejoin:bevel;stroke-miterlimit:4;stroke-dasharray:none;stroke-dashoffset:3.20000005;stroke-opacity:1" />
</svg>
