<?xml version="1.0" encoding="UTF-8" standalone="no"?>
<svg
   xmlns:dc="http://purl.org/dc/elements/1.1/"
   xmlns:cc="http://creativecommons.org/ns#"
   xmlns:rdf="http://www.w3.org/1999/02/22-rdf-syntax-ns#"
   xmlns:svg="http://www.w3.org/2000/svg"
   xmlns="http://www.w3.org/2000/svg"
   id="svg3930"
   height="48"
   width="48"
   version="1.1">
  <defs
     id="defs3932" />
  <metadata
     id="metadata3935">
    <rdf:RDF>
      <cc:Work
         rdf:about="">
        <dc:format>image/svg+xml</dc:format>
        <dc:type
           rdf:resource="http://purl.org/dc/dcmitype/StillImage" />
        <dc:title></dc:title>
        <dc:date>2012</dc:date>
        <dc:creator>
          <cc:Agent>
            <dc:title>Timothée Giet</dc:title>
          </cc:Agent>
        </dc:creator>
        <cc:license
           rdf:resource="http://creativecommons.org/licenses/by-sa/4.0/" />
      </cc:Work>
      <cc:License
         rdf:about="http://creativecommons.org/licenses/by-sa/4.0/">
        <cc:permits
           rdf:resource="http://creativecommons.org/ns#Reproduction" />
        <cc:permits
           rdf:resource="http://creativecommons.org/ns#Distribution" />
        <cc:requires
           rdf:resource="http://creativecommons.org/ns#Notice" />
        <cc:requires
           rdf:resource="http://creativecommons.org/ns#Attribution" />
        <cc:permits
           rdf:resource="http://creativecommons.org/ns#DerivativeWorks" />
        <cc:requires
           rdf:resource="http://creativecommons.org/ns#ShareAlike" />
      </cc:License>
    </rdf:RDF>
  </metadata>
  <g
     id="layer1"
     transform="translate(0,-1004.3622)">
    <g
       style="display:inline"
       id="g4471"
       transform="translate(-168,300.3622)">
      <path
         style="fill:#d2d2d2;fill-opacity:1;stroke:none"
         id="path4360"
         d="m 179,721 v 5 h 2 v -5 z m 24,0 v 3 h 2 v -3 z" />
      <path
         style="color:#373737;display:inline;overflow:visible;visibility:visible;fill:#d2d2d2;fill-opacity:1;fill-rule:nonzero;stroke:none;stroke-width:3;marker:none;enable-background:accumulate"
         id="rect4354"
         d="m 182,717 v 9 h 12 v -2 h 12 v -7 z" />
      <path
         style="display:inline;fill:#d2d2d2;fill-opacity:1;stroke:none"
         id="path4356-7"
         d="m 176,727 c 1.06451,0 19,0 19,0 v -2 h 13 l -3,14 h -26 z" />
    </g>
  </g>
  <path
     id="path820"
     d="M 24 1 A 23 23 0 0 0 1 24 A 23 23 0 0 0 24 47 A 23 23 0 0 0 47 24 A 23 23 0 0 0 24 1 z M 24 5 A 19 19 0 0 1 43 24 A 19 19 0 0 1 24 43 A 19 19 0 0 1 5 24 A 19 19 0 0 1 24 5 z "
     style="opacity:1;vector-effect:none;fill:#d2d2d2;fill-opacity:1;stroke:none;stroke-width:2;stroke-linecap:butt;stroke-linejoin:bevel;stroke-miterlimit:4;stroke-dasharray:none;stroke-dashoffset:3.20000005;stroke-opacity:1" />
</svg>
