<?xml version="1.0" encoding="UTF-8" standalone="no"?>
<!-- Created with Inkscape (http://www.inkscape.org/) -->

<svg
   xmlns:dc="http://purl.org/dc/elements/1.1/"
   xmlns:cc="http://creativecommons.org/ns#"
   xmlns:rdf="http://www.w3.org/1999/02/22-rdf-syntax-ns#"
   xmlns:svg="http://www.w3.org/2000/svg"
   xmlns="http://www.w3.org/2000/svg"
   xmlns:sodipodi="http://sodipodi.sourceforge.net/DTD/sodipodi-0.dtd"
   xmlns:inkscape="http://www.inkscape.org/namespaces/inkscape"
   width="48"
   height="48"
   id="svg4351"
   version="1.1"
   inkscape:version="0.48.4 r9939"
   sodipodi:docname="icon-fileclip-green.svg">
  <defs
     id="defs4353" />
  <sodipodi:namedview
     id="base"
     pagecolor="#ffffff"
     bordercolor="#666666"
     borderopacity="1.0"
     inkscape:pageopacity="0.0"
     inkscape:pageshadow="2"
     inkscape:zoom="2.8"
     inkscape:cx="20.714286"
     inkscape:cy="17.857143"
     inkscape:document-units="px"
     inkscape:current-layer="layer1"
     showgrid="false"
     inkscape:window-width="645"
     inkscape:window-height="418"
     inkscape:window-x="825"
     inkscape:window-y="438"
     inkscape:window-maximized="0" />
  <metadata
     id="metadata4356">
    <rdf:RDF>
      <cc:Work
         rdf:about="">
        <dc:format>image/svg+xml</dc:format>
        <dc:type
           rdf:resource="http://purl.org/dc/dcmitype/StillImage" />
        <dc:title />
      </cc:Work>
    </rdf:RDF>
  </metadata>
  <g
     inkscape:label="Layer 1"
     inkscape:groupmode="layer"
     id="layer1"
     transform="translate(0,-1004.3622)">
    <g
       transform="translate(-507.99997,160.0001)"
       style="display:inline;fill:#FFFFFF"
       id="g4538">
      <path
         id="path3850-7-6"
         d="m 184,184 c -17.67311,0 -32,14.32689 -32,32 0,17.67311 14.32689,32 32,32 17.67311,0 32,-14.32689 32,-32 0,-17.67311 -14.32689,-32 -32,-32 z m 0,5.33333 c 14.72759,0 26.66666,11.93907 26.66666,26.66667 0,14.72759 -11.93907,26.66666 -26.66666,26.66666 -14.7276,0 -26.66667,-11.93907 -26.66667,-26.66666 0,-14.7276 11.93907,-26.66667 26.66667,-26.66667 z"
         style="color:#FFFFFF;fill:#FFFFFF;fill-opacity:1;fill-rule:nonzero;stroke:none;stroke-width:1.50000000000000000;marker:none;visibility:visible;display:inline;overflow:visible;enable-background:accumulate"
         inkscape:connector-curvature="0"
         transform="matrix(0.74999994,0,0,0.74999994,393.99998,706.36211)" />
      <path
         inkscape:connector-curvature="0"
         id="rect4318-3"
         transform="translate(1.96e-6,284.36218)"
         d="m 522,571 0,26 20,0 0,-26 -20,0 z m 3,1 14,0 0,1 2,0 0,22 -18,0 0,-22 2,0 0,-1 z"
         style="color:#FFFFFF;fill:#FFFFFF;fill-opacity:1;fill-rule:nonzero;stroke:none;stroke-width:3;marker:none;visibility:visible;display:inline;overflow:visible;enable-background:accumulate" />
      <path
         sodipodi:nodetypes="ccccccccc"
         transform="translate(0,284.36218)"
         inkscape:connector-curvature="0"
         id="path4326"
         d="m 529,570 6,0 0,3 3,0 0,2 -12,0 0,-2 3,0 z"
         style="fill:#FFFFFF;fill-opacity:1;stroke:none" />
      <path
         sodipodi:nodetypes="ccccccccc"
         inkscape:connector-curvature="0"
         id="rect4335"
         transform="translate(0,284.36218)"
         d="m 524,574 0,20 16,0 0,-20 -1,0 0,2 -14,0 0,-2 z"
         style="color:#FFFFFF;fill:#FFFFFF;fill-opacity:1;fill-rule:nonzero;stroke:none;stroke-width:1;marker:none;visibility:visible;display:inline;overflow:visible;enable-background:accumulate" />
    </g>
  </g>
</svg>
