<?xml version="1.0" encoding="UTF-8" standalone="no"?>
<!-- Created with Inkscape (http://www.inkscape.org/) -->

<svg
   xmlns:dc="http://purl.org/dc/elements/1.1/"
   xmlns:cc="http://creativecommons.org/ns#"
   xmlns:rdf="http://www.w3.org/1999/02/22-rdf-syntax-ns#"
   xmlns:svg="http://www.w3.org/2000/svg"
   xmlns="http://www.w3.org/2000/svg"
   version="1.1"
   width="48"
   height="48"
   id="svg3930">
  <defs
     id="defs3932" />
  <metadata
     id="metadata3935">
    <rdf:RDF>
      <cc:Work
         rdf:about="">
        <dc:format>image/svg+xml</dc:format>
        <dc:type
           rdf:resource="http://purl.org/dc/dcmitype/StillImage" />
        <dc:title></dc:title>
      </cc:Work>
    </rdf:RDF>
  </metadata>
  <g
     transform="translate(0,-1004.3622)"
     id="layer1">
    <g
       transform="translate(-1152,300.3622)"
       id="g4768"
       style="display:inline">
      <path
         d="m 1176,704 c -13.2548,0 -24,10.74517 -24,24 0,13.25483 10.7452,24 24,24 13.2548,0 24,-10.74517 24,-24 0,-13.25483 -10.7452,-24 -24,-24 z m 0,4 c 11.0457,0 20,8.9543 20,20 0,11.04569 -8.9543,19.99999 -20,19.99999 -11.0457,0 -20,-8.9543 -20,-19.99999 0,-11.0457 8.9543,-20 20,-20 z"
         id="path3850-7-4-7-3-6-5-9-1"
         style="color:#000000;fill:#ffffff;fill-opacity:1;fill-rule:nonzero;stroke:none;stroke-width:1.5;marker:none;visibility:visible;display:inline;overflow:visible;enable-background:accumulate" />
      <path
         d="m 1169,722 c -0.065,-3.99841 3.1697,-5.95492 7,-6 3.9997,-0.0471 7,2 7,6 0,4 -8,6 -8,8 0,2 1,3 1,3"
         id="path4762"
         style="fill:none;stroke:#ffffff;stroke-width:5;stroke-linecap:round;stroke-linejoin:miter;stroke-miterlimit:4;stroke-opacity:1;stroke-dasharray:none" />
      <path
         d="m 1176.9989,741.04615 a 1,1 0 1 1 4e-4,-0.009"
         transform="matrix(3.0010218,0,0,2.99999,-2353.2006,-1482.9301)"
         id="path4766"
         style="color:#000000;fill:#ffffff;fill-opacity:1;fill-rule:nonzero;stroke:none;stroke-width:5;marker:none;visibility:visible;display:inline;overflow:visible;enable-background:accumulate" />
    </g>
  </g>
</svg>
