<?xml version="1.0" encoding="UTF-8" standalone="no"?>
<svg
   xmlns:dc="http://purl.org/dc/elements/1.1/"
   xmlns:cc="http://creativecommons.org/ns#"
   xmlns:rdf="http://www.w3.org/1999/02/22-rdf-syntax-ns#"
   xmlns:svg="http://www.w3.org/2000/svg"
   xmlns="http://www.w3.org/2000/svg"
   xmlns:xlink="http://www.w3.org/1999/xlink"
   id="svg3930"
   height="48"
   width="48"
   version="1.1">
  <defs
     id="defs3932">
    <linearGradient
       gradientUnits="userSpaceOnUse"
       y2="112"
       x2="176"
       y1="88"
       x1="176"
       id="linearGradient6944"
       xlink:href="#linearGradient6936" />
    <linearGradient
       id="linearGradient6936">
      <stop
         id="stop6938"
         offset="0"
         style="stop-color:#373737;stop-opacity:1;" />
      <stop
         id="stop6940"
         offset="1"
         style="stop-color:#373737;stop-opacity:0;" />
    </linearGradient>
    <linearGradient
       xlink:href="#linearGradient6936"
       id="linearGradient3630"
       gradientUnits="userSpaceOnUse"
       x1="184"
       y1="88"
       x2="184"
       y2="112" />
    <linearGradient
       y2="112"
       x2="176"
       y1="88"
       x1="176"
       gradientUnits="userSpaceOnUse"
       id="linearGradient853"
       xlink:href="#linearGradient6936" />
    <linearGradient
       y2="112"
       x2="184"
       y1="88"
       x1="184"
       gradientUnits="userSpaceOnUse"
       id="linearGradient855"
       xlink:href="#linearGradient6936" />
  </defs>
  <metadata
     id="metadata3935">
    <rdf:RDF>
      <cc:Work
         rdf:about="">
        <dc:format>image/svg+xml</dc:format>
        <dc:type
           rdf:resource="http://purl.org/dc/dcmitype/StillImage" />
        <dc:title></dc:title>
        <dc:date>2012</dc:date>
        <dc:creator>
          <cc:Agent>
            <dc:title>Timothée Giet</dc:title>
          </cc:Agent>
        </dc:creator>
        <cc:license
           rdf:resource="http://creativecommons.org/licenses/by-sa/4.0/" />
      </cc:Work>
      <cc:License
         rdf:about="http://creativecommons.org/licenses/by-sa/4.0/">
        <cc:permits
           rdf:resource="http://creativecommons.org/ns#Reproduction" />
        <cc:permits
           rdf:resource="http://creativecommons.org/ns#Distribution" />
        <cc:requires
           rdf:resource="http://creativecommons.org/ns#Notice" />
        <cc:requires
           rdf:resource="http://creativecommons.org/ns#Attribution" />
        <cc:permits
           rdf:resource="http://creativecommons.org/ns#DerivativeWorks" />
        <cc:requires
           rdf:resource="http://creativecommons.org/ns#ShareAlike" />
      </cc:License>
    </rdf:RDF>
  </metadata>
  <path
     id="path820"
     d="M 24 1 A 23 23 0 0 0 1 24 A 23 23 0 0 0 24 47 A 23 23 0 0 0 47 24 A 23 23 0 0 0 24 1 z M 24 5 A 19 19 0 0 1 43 24 A 19 19 0 0 1 24 43 A 19 19 0 0 1 5 24 A 19 19 0 0 1 24 5 z "
     style="opacity:1;vector-effect:none;fill:#373737;fill-opacity:1;stroke:none;stroke-width:2;stroke-linecap:butt;stroke-linejoin:bevel;stroke-miterlimit:4;stroke-dasharray:none;stroke-dashoffset:3.20000005;stroke-opacity:1" />
  <g
     id="g5000"
     style="display:inline"
     transform="matrix(1.2,0,0,1.2,-192,-146.4)">
    <g
       transform="translate(0,50.000001)"
       id="text6928"
       style="font-style:normal;font-variant:normal;font-weight:bold;font-stretch:normal;font-size:32px;line-height:125%;font-family:'Source Sans Pro';-inkscape-font-specification:'Source Sans Pro Bold';letter-spacing:0px;word-spacing:0px;fill:url(#linearGradient6944);fill-opacity:1;stroke:none">
      <path
         id="path3684"
         style="fill:url(#linearGradient853)"
         d="m 168.432,102 h 4.736 v -8.096 h 7.2 v -3.968 h -7.2 v -4.832 h 8.448 V 81.136 H 168.432 V 102" />
    </g>
    <g
       transform="translate(0,50.000001)"
       id="text6932"
       style="font-style:italic;font-variant:normal;font-weight:bold;font-stretch:normal;font-size:28px;line-height:125%;font-family:'Source Sans Pro';-inkscape-font-specification:'Source Sans Pro Bold Italic';letter-spacing:0px;word-spacing:0px;fill:url(#linearGradient3630);fill-opacity:1;stroke:none">
      <path
         id="path3687"
         d="m 178.88,100 h 4.116 l 1.68,-2.436 c 0.532,-0.811999 1.064,-1.624001 1.568,-2.436 h 0.112 c 0.252,0.811999 0.532,1.652001 0.784,2.436 l 0.868,2.436 h 3.92 l -2.576,-6.552 5.432,-7.336 h -4.088 l -1.428,2.38 c -0.448,0.783999 -0.952,1.596001 -1.428,2.38 h -0.112 c -0.224,-0.783999 -0.448,-1.568001 -0.672,-2.38 l -0.84,-2.38 h -3.864 l 2.408,6.468 -5.88,7.42"
         style="fill:url(#linearGradient855)" />
    </g>
  </g>
</svg>
