<?xml version="1.0" standalone="no"?>
<!DOCTYPE svg PUBLIC "-//W3C//DTD SVG 20010904//EN" "http://www.w3.org/TR/2001/REC-SVG-20010904/DTD/svg10.dtd">
<!-- Created using Karbon, part of Calligra: http://www.calligra.org/karbon -->
<svg xmlns="http://www.w3.org/2000/svg" xmlns:xlink="http://www.w3.org/1999/xlink" width="38.4pt" height="38.4pt">
<defs/>
<g id="layer1">
  <g id="layer1-1" transform="translate(-8.11321, -9.07932)" fill="none">
   <g id="g3419" transform="" fill="none">
    <g id="g9456" transform="translate(12, 8.50004)" fill="none">
     <path id="path9337" transform="matrix(0.999999 0 0 0.999999 0.624999 22.5493)" fill="#373737" d="M0 0L0 25.9843L38.9765 25.9843L38.9765 0ZM30.0444 8.1201C31.3898 8.1201 32.4804 9.21075 32.4804 10.5561C32.4804 11.6212 31.8087 12.5089 30.8564 12.8399L30.8564 17.8642L29.2324 17.8642L29.2324 16.2402L29.2324 12.9922L29.2324 12.84C28.28 12.509 27.6083 11.6213 27.6083 10.5562C27.6083 9.21083 28.699 8.12018 30.0444 8.12018Z"/>
     <path id="path9346" transform="matrix(0.999999 0 0 0.999999 6.26624 0.624999)" fill="#373737" d="M13.847 0C6.74191 0 2.71395 3.03159 1.10859 6.24233C-0.33255 9.12462 0.0147952 11.6304 0.0935764 12.1802L0.042907 12.1802L0.042907 25.1723L4.91497 25.1723L4.91497 12.1802L4.91497 11.9772L4.8643 11.7741C4.8643 11.7741 4.64264 10.0352 5.47331 8.37385C6.30381 6.71253 7.95992 4.87206 13.847 4.87206C19.7341 4.87206 21.3902 6.71253 22.2209 8.37385C23.0515 10.0352 22.8299 12.1802 22.8299 12.1802L27.6004 12.2817C27.6004 12.2817 28.1908 9.45307 26.5854 6.24233C24.98 3.03159 20.9521 0 13.847 0Z"/>
    </g>
   </g>
  </g>
 </g>
</svg>
