<?xml version="1.0" encoding="UTF-8" standalone="no"?>
<!-- Created with Inkscape (http://www.inkscape.org/) -->

<svg
   xmlns:dc="http://purl.org/dc/elements/1.1/"
   xmlns:cc="http://creativecommons.org/ns#"
   xmlns:rdf="http://www.w3.org/1999/02/22-rdf-syntax-ns#"
   xmlns:svg="http://www.w3.org/2000/svg"
   xmlns="http://www.w3.org/2000/svg"
   xmlns:xlink="http://www.w3.org/1999/xlink"
   xmlns:sodipodi="http://sodipodi.sourceforge.net/DTD/sodipodi-0.dtd"
   xmlns:inkscape="http://www.inkscape.org/namespaces/inkscape"
   width="48"
   height="48"
   id="svg5923"
   version="1.1"
   inkscape:version="0.48.4 r9939"
   sodipodi:docname="icon-palette-add-orange.svg">
  <defs
     id="defs5925">
    <linearGradient
       y2="56.055851"
       x2="65.687874"
       y1="55.998959"
       x1="80.010139"
       gradientTransform="matrix(0.70710678,-0.70710678,0.70710678,0.70710678,-16.166522,72.970553)"
       gradientUnits="userSpaceOnUse"
       id="linearGradient4193"
       xlink:href="#linearGradient4214"
       inkscape:collect="always" />
    <linearGradient
       id="linearGradient4214">
      <stop
         id="stop4216"
         offset="0"
         style="stop-color:#ffffff;stop-opacity:1;" />
      <stop
         style="stop-color:#ffffff;stop-opacity:0.47058824;"
         offset="0.79447055"
         id="stop4218" />
      <stop
         id="stop4220"
         offset="1"
         style="stop-color:#ffffff;stop-opacity:0;" />
    </linearGradient>
    <linearGradient
       y2="56.055851"
       x2="65.687874"
       y1="55.998959"
       x1="80.010139"
       gradientTransform="matrix(0.70710678,-0.70710678,0.70710678,0.70710678,-16.166522,72.970553)"
       gradientUnits="userSpaceOnUse"
       id="linearGradient5072"
       xlink:href="#linearGradient4542-2-9"
       inkscape:collect="always" />
    <linearGradient
       id="linearGradient4542-2-9">
      <stop
         style="stop-color:#000000;stop-opacity:1;"
         offset="0"
         id="stop4544-3-5" />
      <stop
         id="stop4546-5-7"
         offset="0.79447055"
         style="stop-color:#000000;stop-opacity:0.47058824;" />
      <stop
         style="stop-color:#000000;stop-opacity:0;"
         offset="1"
         id="stop4548-2-4" />
    </linearGradient>
    <linearGradient
       y2="56.055851"
       x2="65.687874"
       y1="55.998959"
       x1="80.010139"
       gradientTransform="matrix(0.70710678,-0.70710678,0.70710678,0.70710678,-16.166522,72.970553)"
       gradientUnits="userSpaceOnUse"
       id="linearGradient5833"
       xlink:href="#linearGradient4542-2-9"
       inkscape:collect="always" />
  </defs>
  <sodipodi:namedview
     id="base"
     pagecolor="#ffffff"
     bordercolor="#666666"
     borderopacity="1.0"
     inkscape:pageopacity="0.0"
     inkscape:pageshadow="2"
     inkscape:zoom="5.6"
     inkscape:cx="25.519945"
     inkscape:cy="25.112039"
     inkscape:document-units="px"
     inkscape:current-layer="layer1"
     showgrid="true"
     inkscape:window-width="775"
     inkscape:window-height="418"
     inkscape:window-x="1139"
     inkscape:window-y="635"
     inkscape:window-maximized="0">
    <inkscape:grid
       type="xygrid"
       id="grid5998"
       empspacing="8"
       visible="true"
       enabled="true"
       snapvisiblegridlinesonly="true" />
  </sodipodi:namedview>
  <metadata
     id="metadata5928">
    <rdf:RDF>
      <cc:Work
         rdf:about="">
        <dc:format>image/svg+xml</dc:format>
        <dc:type
           rdf:resource="http://purl.org/dc/dcmitype/StillImage" />
        <dc:title />
      </cc:Work>
    </rdf:RDF>
  </metadata>
  <g
     inkscape:label="Layer 1"
     inkscape:groupmode="layer"
     id="layer1"
     transform="translate(0,-1004.3622)">
    <g
       style="display:inline"
       id="g4222-5-0"
       transform="matrix(1.5000003,0,0,1.5000004,-84.000022,932.32783)">
      <g
         id="g4077-6-1"
         style="display:inline"
         transform="matrix(0.53333321,0,0,0.53333321,-93.467983,-38.57024)">
        <path
           inkscape:connector-curvature="0"
           style="color:#000000;fill:#000000;fill-opacity:1;fill-rule:nonzero;stroke:none;stroke-width:1.50000000000000000;marker:none;visibility:visible;display:inline;overflow:visible;enable-background:accumulate"
           d="m 310.25254,162.36218 c -16.56854,0 -30,13.43146 -30,30 0,16.56854 13.43146,30 30,30 16.56854,0 30,-13.43146 30,-30 0,-16.56854 -13.43146,-30 -30,-30 z m 0,5 c 13.80712,0 25,11.19288 25,25 0,13.80712 -11.19288,25 -25,25 -13.80712,0 -25,-11.19288 -25,-25 0,-13.80712 11.19288,-25 25,-25 z"
           id="path3850-3-9-8" />
        <g
           id="g3941-7-8"
           transform="matrix(0.70710678,0.70710678,-0.70710678,0.70710678,183.79685,-218.58328)">
          <g
             id="g3946-0-5" />
        </g>
      </g>
      <path
         id="path3983-1-2"
         d="M 70.28125,63.5625 C 67.832031,63.568359 65.5,64.09375 64,65.59375 c -4,4 0,8 4,8 4,0 7,-4 12,-4 2,0 2,-3 0,-4 -1.02052,-0.51026 -4.139474,-1.547825 -7.46875,-1.90625 -0.347603,0.73427 -0.490746,1.678246 -1.03125,2.21875 -0.707107,0.707107 -2.820464,0 -1.40625,0 0.707107,-0.707107 0.01164,-1.417893 0.71875,-2.125 0.08247,-0.08247 0.167674,-0.138255 0.25,-0.1875 -0.261911,-0.0104 -0.520925,-0.03187 -0.78125,-0.03125 z M 67,66.59375 c 1.104569,0 2,0.447715 2,1 0,0.552285 -0.895431,1 -2,1 -1.104569,0 -2,-0.447715 -2,-1 0,-0.552285 0.895431,-1 2,-1 z m 11.5,0 c 0.828428,0 1.5,0.447716 1.5,1 0,0.552284 -0.671572,1 -1.5,1 -0.828428,0 -1.5,-0.447716 -1.5,-1 0,-0.552284 0.671572,-1 1.5,-1 z m -6.5,1 c 1.104569,0 2,0.447715 2,1 0,0.552285 -0.895431,1 -2,1 -1.104569,0 -2,-0.447715 -2,-1 0,-0.552285 0.895431,-1 2,-1 z m -4,2 c 1.104569,0 2,0.447715 2,1 0,0.552285 -0.895431,1 -2,1 -1.104569,0 -2,-0.447715 -2,-1 0,-0.552285 0.895431,-1 2,-1 z"
         style="fill:#000000;fill-opacity:1;stroke:none"
         inkscape:connector-curvature="0" />
      <g
         transform="translate(0,0.5857864)"
         id="g4016-9-4-5"
         style="fill:#ffffff;fill-opacity:0.49773757;display:inline">
        <path
           id="path3985-3-0"
           d="m 69,66 c 0,0.552285 -0.895431,1 -2,1 -1.104569,0 -2,-0.447715 -2,-1 0,-0.552285 0.895431,-1 2,-1 1.104569,0 2,0.447715 2,1 z"
           style="color:#000000;fill:#6a6a6a;fill-opacity:0.78431373999999998;fill-rule:nonzero;stroke:#6a6a6a;stroke-width:0.33333321999999999;stroke-miterlimit:4;stroke-opacity:0.78431374;stroke-dasharray:none;marker:none;visibility:visible;display:inline;overflow:visible;enable-background:accumulate"
           transform="translate(0,1)"
           inkscape:connector-curvature="0" />
        <path
           id="path3985-5-2-1"
           d="m 69,66 c 0,0.552285 -0.895431,1 -2,1 -1.104569,0 -2,-0.447715 -2,-1 0,-0.552285 0.895431,-1 2,-1 1.104569,0 2,0.447715 2,1 z"
           style="color:#000000;fill:#6a6a6a;fill-opacity:0.50980383;fill-rule:nonzero;stroke:#6a6a6a;stroke-width:0.33333321999999999;stroke-miterlimit:4;stroke-opacity:0.50980382999999996;stroke-dasharray:none;marker:none;visibility:visible;display:inline;overflow:visible;enable-background:accumulate"
           transform="translate(1,4)"
           inkscape:connector-curvature="0" />
        <path
           id="path3985-6-2-5"
           d="m 69,66 c 0,0.552285 -0.895431,1 -2,1 -1.104569,0 -2,-0.447715 -2,-1 0,-0.552285 0.895431,-1 2,-1 1.104569,0 2,0.447715 2,1 z"
           style="color:#000000;fill:#6a6a6a;fill-opacity:0.70588236999999998;fill-rule:nonzero;stroke:#6a6a6a;stroke-width:0.33333321999999999;stroke-miterlimit:4;stroke-opacity:0.70588237;stroke-dasharray:none;marker:none;visibility:visible;display:inline;overflow:visible;enable-background:accumulate"
           transform="translate(5,2)"
           inkscape:connector-curvature="0" />
      </g>
      <path
         id="path4094-8-7"
         d="m 79.8125,55.937495 c -1.150785,0.04682 -5.755558,4.670849 -7.343751,7.40625 -0.553335,0.176681 -1.102915,-0.115835 -1.65625,0.4375 -0.707106,0.707107 -0.01164,1.417893 -0.718749,2.125 -1.414214,0 0.699142,0.707107 1.406249,0 0.571428,-0.571428 0.699535,-1.595109 1.09375,-2.34375 2.91685,-1.66416 8.085717,-6.883034 7.406251,-7.5625 -0.04419,-0.04419 -0.10688,-0.06578 -0.1875,-0.0625 z"
         style="fill:url(#linearGradient5833);fill-opacity:1;stroke:none;display:inline"
         inkscape:connector-curvature="0" />
    </g>
    <rect
       style="color:#000000;fill:#000000;fill-opacity:1;fill-rule:nonzero;stroke:none;stroke-width:1.50000000000000000;marker:none;visibility:visible;display:inline;overflow:visible;enable-background:accumulate"
       id="rect3905-7"
       y="1011.5388"
       x="18.000002"
       ry="1.2006874"
       rx="1.0797362"
       height="9.6054993"
       width="2.4000001" />
    <rect
       style="color:#000000;fill:#000000;fill-opacity:1;fill-rule:nonzero;stroke:none;stroke-width:1.50000000000000000;marker:none;visibility:visible;display:inline;overflow:visible;enable-background:accumulate"
       id="rect3907-0"
       y="1015.1409"
       x="14.400002"
       ry="1.2006874"
       rx="1.2"
       height="2.4013748"
       width="9.6000004" />
  </g>
</svg>
