<?xml version="1.0" encoding="UTF-8" standalone="no"?>
<!-- Created with Inkscape (http://www.inkscape.org/) -->

<svg
   xmlns:dc="http://purl.org/dc/elements/1.1/"
   xmlns:cc="http://creativecommons.org/ns#"
   xmlns:rdf="http://www.w3.org/1999/02/22-rdf-syntax-ns#"
   xmlns:svg="http://www.w3.org/2000/svg"
   xmlns="http://www.w3.org/2000/svg"
   xmlns:xlink="http://www.w3.org/1999/xlink"
   xmlns:sodipodi="http://sodipodi.sourceforge.net/DTD/sodipodi-0.dtd"
   xmlns:inkscape="http://www.inkscape.org/namespaces/inkscape"
   width="48"
   height="48"
   id="svg3531"
   version="1.1"
   inkscape:version="0.48.4 r9939"
   sodipodi:docname="icon-select-color.svg">
  <defs
     id="defs3533">
    <linearGradient
       id="linearGradient9325-9-2-1">
      <stop
         style="stop-color:#ffffff;stop-opacity:0.58823532;"
         offset="0"
         id="stop9327-9-6-9" />
      <stop
         style="stop-color:#ffffff;stop-opacity:0;"
         offset="1"
         id="stop9329-0-5-2" />
    </linearGradient>
    <linearGradient
       inkscape:collect="always"
       xlink:href="#linearGradient6412"
       id="linearGradient6418"
       x1="152.66541"
       y1="92.126663"
       x2="155.85199"
       y2="92.126663"
       gradientUnits="userSpaceOnUse"
       gradientTransform="matrix(0.40610859,-1.5156179,1.5156179,0.40610859,-45.127839,290.46424)" />
    <linearGradient
       id="linearGradient6412">
      <stop
         style="stop-color:#00821e;stop-opacity:0.58823532;"
         offset="0"
         id="stop6414" />
      <stop
         id="stop6478"
         offset="0.39999965"
         style="stop-color:#00821e;stop-opacity:1;" />
      <stop
         style="stop-color:#00821e;stop-opacity:0;"
         offset="1"
         id="stop6416" />
    </linearGradient>
    <linearGradient
       inkscape:collect="always"
       xlink:href="#linearGradient6430"
       id="linearGradient6446"
       gradientUnits="userSpaceOnUse"
       x1="155.85197"
       y1="87.390831"
       x2="155.85197"
       y2="94.401299" />
    <linearGradient
       id="linearGradient6430">
      <stop
         style="stop-color:#00821e;stop-opacity:1;"
         offset="0"
         id="stop6432" />
      <stop
         style="stop-color:#00821e;stop-opacity:0;"
         offset="1"
         id="stop6434" />
    </linearGradient>
    <linearGradient
       inkscape:collect="always"
       xlink:href="#linearGradient6486"
       id="linearGradient6492"
       x1="208"
       y1="95"
       x2="208"
       y2="104"
       gradientUnits="userSpaceOnUse"
       gradientTransform="matrix(0.70710678,0.70710678,-0.70710678,0.70710678,134.89243,-124.92385)" />
    <linearGradient
       id="linearGradient6486">
      <stop
         style="stop-color:#000000;stop-opacity:1;"
         offset="0"
         id="stop6488" />
      <stop
         style="stop-color:#000000;stop-opacity:0;"
         offset="1"
         id="stop6490" />
    </linearGradient>
    <linearGradient
       y2="104"
       x2="208"
       y1="95"
       x1="208"
       gradientTransform="matrix(0.70710678,0.70710678,-0.70710678,0.70710678,134.89243,-124.92385)"
       gradientUnits="userSpaceOnUse"
       id="linearGradient4750"
       xlink:href="#linearGradient6486"
       inkscape:collect="always" />
  </defs>
  <sodipodi:namedview
     id="base"
     pagecolor="#888888"
     bordercolor="#666666"
     borderopacity="1.0"
     inkscape:pageopacity="0.50980392"
     inkscape:pageshadow="2"
     inkscape:zoom="5.5"
     inkscape:cx="23.363636"
     inkscape:cy="24.909091"
     inkscape:current-layer="layer1"
     showgrid="true"
     inkscape:document-units="px"
     inkscape:grid-bbox="true"
     inkscape:window-width="775"
     inkscape:window-height="596"
     inkscape:window-x="1068"
     inkscape:window-y="272"
     inkscape:window-maximized="0">
    <inkscape:grid
       type="xygrid"
       id="grid3539"
       empspacing="8"
       visible="true"
       enabled="true"
       snapvisiblegridlinesonly="true" />
  </sodipodi:namedview>
  <metadata
     id="metadata3536">
    <rdf:RDF>
      <cc:Work
         rdf:about="">
        <dc:format>image/svg+xml</dc:format>
        <dc:type
           rdf:resource="http://purl.org/dc/dcmitype/StillImage" />
        <dc:title />
      </cc:Work>
    </rdf:RDF>
  </metadata>
  <g
     id="layer1"
     inkscape:label="Layer 1"
     inkscape:groupmode="layer"
     transform="translate(0,-16)">
    <g
       transform="translate(-184,-56)"
       style="display:inline"
       id="g4719">
      <g
         transform="translate(176.00003,0)"
         id="g6302-6-0-6"
         style="display:inline">
        <g
           transform="matrix(0.75000001,0,0,0.75,-106.00003,-66)"
           id="g4182-7-9-4-3-0"
           style="fill:#00821e;fill-opacity:1;display:inline">
          <path
             id="path3850-7-6-0-3-7"
             d="m 184,184 c -17.67311,0 -32,14.32689 -32,32 0,17.67311 14.32689,32 32,32 17.67311,0 32,-14.32689 32,-32 0,-17.67311 -14.32689,-32 -32,-32 z m 0,5.33333 c 14.72759,0 26.66666,11.93907 26.66666,26.66667 0,14.72759 -11.93907,26.66666 -26.66666,26.66666 -14.7276,0 -26.66667,-11.93907 -26.66667,-26.66666 0,-14.7276 11.93907,-26.66667 26.66667,-26.66667 z"
             style="color:#000000;fill:#000000;fill-opacity:1;fill-rule:nonzero;stroke:none;stroke-width:1.50000000000000000;marker:none;visibility:visible;display:inline;overflow:visible;enable-background:accumulate"
             inkscape:connector-curvature="0" />
        </g>
        <path
           style="font-size:medium;font-style:normal;font-variant:normal;font-weight:normal;font-stretch:normal;text-indent:0;text-align:start;text-decoration:none;line-height:normal;letter-spacing:normal;word-spacing:normal;text-transform:none;direction:ltr;block-progression:tb;writing-mode:lr-tb;text-anchor:start;baseline-shift:baseline;color:#000000;fill:#000000;fill-opacity:1;stroke:none;stroke-width:1;marker:none;visibility:visible;display:inline;overflow:visible;enable-background:accumulate;font-family:Sans;-inkscape-font-specification:Sans"
           d="m 21.5,86 0,1 1,0 0,-0.5 0.5,0 0,-1 -1,0 -0.5,0 z m 3.5,0.5 2,0 0,-1 -2,0 z m 4,0 2,0 0,-1 -2,0 z m 4,0 2,0 0,-1 -2,0 z m -11.5,4.5 1,0 0,-2 -1,0 z m 0,4 1,0 0,-2 -1,0 z m 20,0 1,0 0,-2 -1,0 z m -20,4 1,0 0,-2 -1,0 z m 20,0 1,0 0,-2 -1,0 z m -20,4 1,0 0,-2 -1,0 z m 20,0 1,0 0,-2 -1,0 z m -20,3 0,0.5 0.5,0 1,0 0,-1 -0.5,0 0,-0.5 -1,0 z m 20,-0.5 -0.5,0 0,1 1,0 0.513864,0.0139 L 42.5,106 l 0,-1 -1,0 z m -16.5,1 2,0 0,-1 -2,0 z m 4,0 2,0 0,-1 -2,0 z m 4,0 2,0 0,-1 -2,0 z m 4,0 2,0 0,-1 -2,0 z"
           id="rect6027-7-2-2-9-0"
           inkscape:connector-curvature="0"
           sodipodi:nodetypes="ccccccccccccccccccccccccccccccccccccccccccccccccccccccccccccccccccccccccccccccccccccccccccccccccc" />
      </g>
      <path
         transform="matrix(0.70710678,0.70710678,-0.70710678,0.70710678,134.89243,-124.92385)"
         d="m 210,90 c 0,1.104569 -0.89543,2 -2,2 -1.10457,0 -2,-0.895431 -2,-2 0,-1.104569 0.89543,-2 2,-2 1.10457,0 2,0.895431 2,2 z"
         sodipodi:ry="2"
         sodipodi:rx="2"
         sodipodi:cy="90"
         sodipodi:cx="208"
         id="path6480"
         style="color:#000000;fill:#000000;fill-opacity:1;fill-rule:nonzero;stroke:none;stroke-width:0.40000001000000002;marker:none;visibility:visible;display:inline;overflow:visible;enable-background:accumulate"
         sodipodi:type="arc" />
      <path
         inkscape:connector-curvature="0"
         id="path6482"
         d="m 217.62392,86.501078 c -0.18162,-0.181621 -0.45311,-0.350575 -0.7734,-0.508233 0.0423,0.314217 0.17605,0.61799 0.41985,0.861786 0.2438,0.243796 0.54757,0.377539 0.86179,0.419845 -0.15766,-0.32029 -0.32662,-0.591778 -0.50824,-0.773398 z m -1.76776,-0.883884 c -0.70711,-0.176776 -1.41422,-0.176776 -1.76777,0.176777 -0.70711,0.707107 -0.70711,3.535534 -0.70711,3.535534 l 1.41422,1.414213 c 0,0 2.82842,0 3.53553,-0.707106 0.35355,-0.353554 0.35355,-1.060661 0.17678,-1.767767 -0.70022,0.05057 -1.4123,-0.174861 -1.94455,-0.707107 -0.53224,-0.532246 -0.75768,-1.244323 -0.7071,-1.944544 z"
         style="fill:#000000;fill-opacity:1;stroke:none" />
      <path
         sodipodi:nodetypes="cccccc"
         inkscape:connector-curvature="0"
         id="path6484"
         d="m 208.82614,96.08807 1.01961,-0.3946 4.94975,-4.949752 -1.41422,-1.414213 -4.94975,4.949745 -0.3321,1.08211"
         style="fill:url(#linearGradient4750);fill-opacity:1;stroke:#000000;stroke-width:0.50000000000000000;stroke-linecap:round;stroke-miterlimit:4;stroke-opacity:1;stroke-dasharray:none" />
    </g>
  </g>
</svg>
