<?xml version="1.0" encoding="UTF-8" standalone="no"?>
<svg
   xmlns:dc="http://purl.org/dc/elements/1.1/"
   xmlns:cc="http://creativecommons.org/ns#"
   xmlns:rdf="http://www.w3.org/1999/02/22-rdf-syntax-ns#"
   xmlns:svg="http://www.w3.org/2000/svg"
   xmlns="http://www.w3.org/2000/svg"
   id="svg3930"
   height="48"
   width="48"
   version="1.1">
  <defs
     id="defs3932" />
  <metadata
     id="metadata3935">
    <rdf:RDF>
      <cc:Work
         rdf:about="">
        <dc:format>image/svg+xml</dc:format>
        <dc:type
           rdf:resource="http://purl.org/dc/dcmitype/StillImage" />
        <dc:title></dc:title>
        <dc:date>2012</dc:date>
        <dc:creator>
          <cc:Agent>
            <dc:title>Timothée Giet</dc:title>
          </cc:Agent>
        </dc:creator>
        <cc:license
           rdf:resource="http://creativecommons.org/licenses/by-sa/4.0/" />
      </cc:Work>
      <cc:License
         rdf:about="http://creativecommons.org/licenses/by-sa/4.0/">
        <cc:permits
           rdf:resource="http://creativecommons.org/ns#Reproduction" />
        <cc:permits
           rdf:resource="http://creativecommons.org/ns#Distribution" />
        <cc:requires
           rdf:resource="http://creativecommons.org/ns#Notice" />
        <cc:requires
           rdf:resource="http://creativecommons.org/ns#Attribution" />
        <cc:permits
           rdf:resource="http://creativecommons.org/ns#DerivativeWorks" />
        <cc:requires
           rdf:resource="http://creativecommons.org/ns#ShareAlike" />
      </cc:License>
    </rdf:RDF>
  </metadata>
  <g
     id="layer1"
     transform="translate(0,-1004.3622)">
    <g
       style="display:inline"
       id="g4471"
       transform="translate(-168,300.3622)">
      <g
         style="display:inline"
         transform="matrix(1.5,0,0,1.5,144,572)"
         id="g3974">
        <g
           id="g4719"
           style="display:inline"
           transform="matrix(0.66666667,0,0,0.66666667,-106.66667,-3.3333329e-7)">
          <g
             style="display:inline;fill:#d2d2d2;fill-opacity:1"
             transform="matrix(1.5,0,0,1.4999992,184,-1458.5425)"
             id="layer1-0-2">
            <g
               transform="matrix(0.50000001,0,0,0.50000001,-76.000002,928.3622)"
               id="g4182-3-3"
               style="display:inline;fill:#d2d2d2;fill-opacity:1">
              <g
                 transform="matrix(0,-1.333334,1.3333333,0,152.00001,248.00005)"
                 id="layer1-1"
                 style="display:inline">
                <g
                   transform="translate(-80,-7.99993)"
                   style="display:inline"
                   id="g4240">
                  <g
                     id="g4792"
                     style="display:inline"
                     transform="rotate(90,156.00004,-20.000037)">
                    <g
                       style="display:inline"
                       id="layer1-5-1-6"
                       transform="translate(184,8)">
                      <g
                         id="g3450-9-7"
                         style="display:inline"
                         transform="matrix(1.2,0,0,1.2,-48,-86.4)">
                        <g
                           id="g4538"
                           style="display:inline;fill:#d2d2d2"
                           transform="matrix(0.83333333,0,0,0.83333334,-383.3333,-631.63509)">
                          <g
                             id="layer1-6"
                             transform="translate(507.99997,-160.0001)">
                            <g
                               style="display:inline"
                               id="g4477"
                               transform="translate(-40,300.3622)">
                              <g
                                 id="layer1-7"
                                 transform="translate(39.999996,-300.3622)">
                                <g
                                   style="display:inline"
                                   id="g4466"
                                   transform="translate(-296,300.3622)">
                                <g
                                   id="layer1-5"
                                   transform="translate(296,-300.3622)">
                                <g
                                   style="display:inline"
                                   id="g4789"
                                   transform="translate(-424,300.3622)">
                                <g
                                   id="layer1-3"
                                   transform="translate(424,-300.3622)">
                                <g
                                   style="display:inline"
                                   id="g4228"
                                   transform="translate(-552,292.3622)">
                                <g
                                   id="g4192">
                                <g
                                   id="g4797"
                                   transform="translate(-8.0000063e-8,8)">
                                <g
                                   transform="matrix(1.5000003,0,0,1.5000003,467.99998,631.96564)"
                                   id="g4222"
                                   style="display:inline">
                                <g
                                   transform="matrix(0.53333321,0,0,0.53333321,-93.467983,-38.57024)"
                                   style="display:inline"
                                   id="g4077">
                                <g
                                   transform="rotate(45,355.75179,112.57078)"
                                   id="g3941">
                                <g
                                   id="g3946" />
                                </g>
                                <g
                                   transform="matrix(1.25,0,0,1.25,280.25254,162.36218)"
                                   id="layer1-2"
                                   style="display:inline">
                                <g
                                   id="layer1-1-2"
                                   style="display:inline">
                                <g
                                   transform="translate(-48,-287.99995)"
                                   style="display:inline"
                                   id="g3392">
                                <g
                                   id="layer1-9"
                                   transform="translate(47.999998,-716.36225)"
                                   style="display:inline">
                                <g
                                   style="display:inline"
                                   id="g4784"
                                   transform="translate(-792,300.3622)">
                                <path
                                   style="fill:#d2d2d2;fill-opacity:1;stroke:none"
                                   id="path4564"
                                   d="m 812.69416,776.00007 7.48232,7.48232 h -7.48232 z" />
                                <path
                                   style="color:#373737;font-style:normal;font-variant:normal;font-weight:normal;font-stretch:normal;font-size:medium;line-height:normal;font-family:Sans;-inkscape-font-specification:Sans;text-indent:0;text-align:start;text-decoration:none;text-decoration-line:none;letter-spacing:normal;word-spacing:normal;text-transform:none;writing-mode:lr-tb;direction:ltr;baseline-shift:baseline;text-anchor:start;display:inline;overflow:visible;visibility:visible;fill:#d2d2d2;fill-opacity:1;stroke:none;stroke-width:5;marker:none;enable-background:accumulate"
                                   id="path4594"
                                   d="m 822.37831,774.32434 c -1.66832,0.0123 -3.33031,0.64136 -4.59851,1.90955 l -0.039,0.039 -3.31249,3.31249 2.20183,2.22131 3.31249,-3.31248 0.039,-0.039 c 1.37173,-1.37174 3.47087,-1.38098 4.79336,-0.0584 l 0.0974,0.0974 c 1.32247,1.32248 1.33278,3.42161 -0.039,4.79336 l -4.07241,4.05292 2.22131,2.22132 4.05293,-4.05293 c 2.53637,-2.53637 2.58294,-6.69204 0.0584,-9.2165 l -0.11691,-0.0974 c -1.26223,-1.26224 -2.93019,-1.88288 -4.59851,-1.87058 z m -1.90955,13.32789 -1.36397,1.36396 2.20183,2.22132 1.36397,-1.36397 z m -2.00698,2.02646 -0.68198,0.6625 2.20183,2.22131 0.68198,-0.68198 z" />
                                </g>
                                </g>
                                <path
                                   id="rect6027"
                                   d="m 61.499998,362.00005 v 1 h 1 v -0.5 h 0.5 v -1 h -1 -0.5 z m 3.500001,0.5 h 2 v -1 h -2 z m -3.500001,4.5 h 1 v -2 h -1 z m 0,4 h 1 v -2 h -1 z m 0,4 h 1 v -2 h -1 z m 20.000001,0 h 1 v -2 h -1 z m -20.000001,4 h 1 v -2 h -1 z m 20.000001,0 h 1 v -2 h -1 z m -20.000001,3 v 0.5 h 0.5 1 v -1 h -0.5 v -0.5 h -1 z m 20.000001,-0.5 h -0.5 v 1 h 1 0.5 v -0.5 -1 h -1 z m -16.5,1 h 2 v -1 h -2 z m 4,0 h 2 v -1 h -2 z m 4,0 h 2 v -1 h -2 z m 4,0 h 2 v -1 h -2 z"
                                   style="color:#373737;font-style:normal;font-variant:normal;font-weight:normal;font-stretch:normal;font-size:medium;line-height:normal;font-family:Sans;-inkscape-font-specification:Sans;text-indent:0;text-align:start;text-decoration:none;text-decoration-line:none;letter-spacing:normal;word-spacing:normal;text-transform:none;writing-mode:lr-tb;direction:ltr;baseline-shift:baseline;text-anchor:start;display:inline;overflow:visible;visibility:visible;fill:#d2d2d2;fill-opacity:1;stroke:none;stroke-width:1;marker:none;enable-background:accumulate" />
                                </g>
                                </g>
                                </g>
                                </g>
                                </g>
                                </g>
                                </g>
                                </g>
                                </g>
                                </g>
                                </g>
                                </g>
                              </g>
                            </g>
                          </g>
                        </g>
                      </g>
                    </g>
                  </g>
                </g>
              </g>
            </g>
          </g>
        </g>
      </g>
    </g>
  </g>
  <path
     id="path820"
     d="M 24 1 A 23 23 0 0 0 1 24 A 23 23 0 0 0 24 47 A 23 23 0 0 0 47 24 A 23 23 0 0 0 24 1 z M 24 5 A 19 19 0 0 1 43 24 A 19 19 0 0 1 24 43 A 19 19 0 0 1 5 24 A 19 19 0 0 1 24 5 z "
     style="opacity:1;vector-effect:none;fill:#d2d2d2;fill-opacity:1;stroke:none;stroke-width:2;stroke-linecap:butt;stroke-linejoin:bevel;stroke-miterlimit:4;stroke-dasharray:none;stroke-dashoffset:3.20000005;stroke-opacity:1" />
</svg>
