<?xml version="1.0" standalone="no"?>
<!DOCTYPE svg PUBLIC "-//W3C//DTD SVG 20010904//EN" "http://www.w3.org/TR/2001/REC-SVG-20010904/DTD/svg10.dtd">
<!-- Created using Karbon, part of Calligra: http://www.calligra.org/karbon -->
<svg xmlns="http://www.w3.org/2000/svg" xmlns:xlink="http://www.w3.org/1999/xlink" width="38.4pt" height="38.4pt">
<defs/>
<g id="layer1">
  <g id="g3368" transform="translate(3.92353, 9.61862)" fill="none">
   <path id="path9402" transform="translate(0.588247, 13.2923)" fill="#373737" d="M1.15158 0L0 0C0 0 5.37403 14.9706 19.5768 14.9706C33.7796 14.9706 39.1536 0 39.1536 0L38.002 0C38.002 0 33.0119 12.6674 19.5768 12.6674C6.14175 12.6674 1.15158 0 1.15158 0Z"/>
   <path id="path9402-1-6" transform="translate(6.3461, 0.625)" fill="#373737" d="M13.819 0C9.16461 0 6.66259 1.12814 4.60631 2.30316C2.55003 3.47817 0 5.75789 0 5.75789L1.15158 5.75789C1.15158 5.75789 2.63207 4.58288 4.60631 3.45474C6.58056 2.32659 9.26062 1.15158 13.819 1.15158C18.3772 1.15158 21.0573 2.32659 23.0316 3.45474C25.0058 4.58288 26.4863 5.75789 26.4863 5.75789L27.6378 5.75789C27.6378 5.75789 25.0879 3.47817 23.0316 2.30316C20.9753 1.12814 18.4732 0 13.819 0Z"/>
  </g>
 </g>
</svg>
