<?xml version="1.0" standalone="no"?>
<!DOCTYPE svg PUBLIC "-//W3C//DTD SVG 20010904//EN" "http://www.w3.org/TR/2001/REC-SVG-20010904/DTD/svg10.dtd">
<!-- Created using Karbon, part of Calligra: http://www.calligra.org/karbon -->
<svg xmlns="http://www.w3.org/2000/svg" xmlns:xlink="http://www.w3.org/1999/xlink" width="38.4pt" height="38.4pt">
<defs>
  <linearGradient id="gradient0" gradientTransform="translate(-64, -256)" gradientUnits="objectBoundingBox" x1="4.50000000000" y1="16.00000000000" x2="4.50000000000" y2="17.00000000000" spreadMethod="pad">
   <stop stop-color="#373737" offset="0.00000000000" stop-opacity="0.58823529412"/>
   <stop stop-color="#373737" offset="1.00000000000" stop-opacity="0.00000000000"/>
  </linearGradient>
 </defs>
<g id="layer1">
  <g id="layer1-1" transform="translate(3.91886, 10.1918)" fill="none">
   <g id="g3392" transform="" fill="none">
    <path id="path9319" transform="translate(10.8531, 1.76512)" fill="url(#gradient0)" stroke="#373737" stroke-width="1.00000000000" stroke-linecap="round" stroke-linejoin="round" d="M18.2404 9.12018C18.2404 14.1572 14.1572 18.2404 9.12018 18.2404C4.08325 18.2404 0 14.1572 0 9.12018C0 4.08325 4.08325 0 9.12018 0C14.1572 0 18.2404 4.08325 18.2404 9.12018Z"/>
    <path id="path9323" transform="translate(15.4133, 6.32517)" fill="#373737" stroke="#373737" stroke-width="1.00000000000" stroke-linecap="round" stroke-linejoin="round" d="M9.12018 4.56009C9.12018 7.07857 7.07857 9.12018 4.56009 9.12018C2.04162 9.12018 0 7.07857 0 4.56009C0 2.04162 2.04162 0 4.56009 0C7.07857 0 9.12018 2.04162 9.12018 4.56009Z"/>
    <path id="path9402" transform="translate(0.592914, 0.625)" fill="#373737" d="M19.3804 0C5.38345 0 0.0712515 12.3621 0.0712515 12.3621L0 12.5403L0.0712515 12.754C0.0712515 12.754 5.32011 26.2205 19.3804 26.2205C33.4407 26.2205 38.6896 12.754 38.6896 12.754L38.7608 12.5403L38.6896 12.3621C38.6896 12.3621 33.3773 0 19.3804 0ZM19.3804 2.28005C32.3847 2.28005 37.39 11.978 37.6208 12.5403C37.3906 13.2081 32.3281 25.0806 19.3804 25.0806C6.43272 25.0806 1.37018 13.2081 1.14003 12.5403C1.3708 11.978 6.3761 2.28005 19.3804 2.28005Z"/>
   </g>
  </g>
 </g>
</svg>
