<?xml version="1.0" encoding="UTF-8" standalone="no"?>
<!-- Created with Inkscape (http://www.inkscape.org/) -->

<svg
   xmlns:dc="http://purl.org/dc/elements/1.1/"
   xmlns:cc="http://creativecommons.org/ns#"
   xmlns:rdf="http://www.w3.org/1999/02/22-rdf-syntax-ns#"
   xmlns:svg="http://www.w3.org/2000/svg"
   xmlns="http://www.w3.org/2000/svg"
   xmlns:xlink="http://www.w3.org/1999/xlink"
   xmlns:sodipodi="http://sodipodi.sourceforge.net/DTD/sodipodi-0.dtd"
   xmlns:inkscape="http://www.inkscape.org/namespaces/inkscape"
   width="48px"
   height="48px"
   id="svg4244"
   version="1.1"
   inkscape:version="0.48.4 r9939"
   sodipodi:docname="icon-visible_on-red.svg">
  <defs
     id="defs4246">
    <linearGradient
       gradientUnits="userSpaceOnUse"
       y2="272"
       x2="72"
       y1="256"
       x1="72"
       id="linearGradient9331-1"
       xlink:href="#linearGradient9325-9"
       inkscape:collect="always" />
    <linearGradient
       id="linearGradient9325-9">
      <stop
         id="stop9327-9"
         offset="0"
         style="stop-color:#ffffff;stop-opacity:0.58823532;" />
      <stop
         id="stop9329-0"
         offset="1"
         style="stop-color:#ffffff;stop-opacity:0;" />
    </linearGradient>
    <linearGradient
       gradientUnits="userSpaceOnUse"
       y2="272"
       x2="72"
       y1="256"
       x1="72"
       id="linearGradient9331-1-7"
       xlink:href="#linearGradient9325-9-2"
       inkscape:collect="always" />
    <linearGradient
       id="linearGradient9325-9-2">
      <stop
         id="stop9327-9-6"
         offset="0"
         style="stop-color:#000000;stop-opacity:0.58823532;" />
      <stop
         id="stop9329-0-5"
         offset="1"
         style="stop-color:#000000;stop-opacity:0;" />
    </linearGradient>
  </defs>
  <sodipodi:namedview
     id="base"
     pagecolor="#696969"
     bordercolor="#666666"
     borderopacity="1.0"
     inkscape:pageopacity="0.4627451"
     inkscape:pageshadow="2"
     inkscape:zoom="9.8994949"
     inkscape:cx="4.9507549"
     inkscape:cy="22.839286"
     inkscape:current-layer="layer1"
     showgrid="true"
     inkscape:grid-bbox="true"
     inkscape:document-units="px"
     inkscape:window-width="1920"
     inkscape:window-height="1025"
     inkscape:window-x="-3"
     inkscape:window-y="32"
     inkscape:window-maximized="1">
    <inkscape:grid
       type="xygrid"
       id="grid4252"
       empspacing="8"
       visible="true"
       enabled="true"
       snapvisiblegridlinesonly="true" />
  </sodipodi:namedview>
  <metadata
     id="metadata4249">
    <rdf:RDF>
      <cc:Work
         rdf:about="">
        <dc:format>image/svg+xml</dc:format>
        <dc:type
           rdf:resource="http://purl.org/dc/dcmitype/StillImage" />
        <dc:title />
      </cc:Work>
    </rdf:RDF>
  </metadata>
  <g
     id="layer1"
     inkscape:label="Layer 1"
     inkscape:groupmode="layer">
    <g
       style="display:inline"
       inkscape:label="Layer 1"
       id="layer1-1">
      <g
         id="g3392"
         style="display:inline"
         transform="translate(-48,-287.99995)">
        <path
           style="color:#000000;fill:#000000;fill-opacity:1;fill-rule:nonzero;stroke:none;stroke-width:1.50000000000000000;marker:none;visibility:visible;display:inline;overflow:visible;enable-background:accumulate"
           id="path3850-7-3"
           d="m 71.999999,287.99995 c -13.254833,0 -23.999999,10.74517 -23.999999,24 0,13.25483 10.745166,24 23.999999,24 13.254831,0 24.000001,-10.74517 24.000001,-24 0,-13.25483 -10.74517,-24 -24.000001,-24 z m 0,4 c 11.045691,0 19.999993,8.9543 19.999993,20 0,11.04569 -8.954302,19.99999 -19.999993,19.99999 -11.0457,0 -20.000002,-8.9543 -20.000002,-19.99999 0,-11.0457 8.954302,-20 20.000002,-20 z"
           inkscape:connector-curvature="0" />
        <path
           sodipodi:type="arc"
           style="color:#000000;fill:url(#linearGradient9331-1-7);fill-opacity:1;stroke:#000000;stroke-width:1;stroke-linecap:round;stroke-linejoin:round;stroke-miterlimit:4;stroke-opacity:1;stroke-dasharray:none;stroke-dashoffset:0;marker:none;visibility:visible;display:inline;overflow:visible;enable-background:accumulate"
           id="path9319"
           sodipodi:cx="72"
           sodipodi:cy="264"
           sodipodi:rx="8"
           sodipodi:ry="8"
           d="m 80,264 c 0,4.41828 -3.581722,8 -8,8 -4.418278,0 -8,-3.58172 -8,-8 0,-4.41828 3.581722,-8 8,-8 4.418278,0 8,3.58172 8,8 z"
           transform="translate(0,46)" />
        <path
           sodipodi:type="arc"
           style="color:#000000;fill:#000000;fill-opacity:1;stroke:#000000;stroke-width:1;stroke-linecap:round;stroke-linejoin:round;stroke-miterlimit:4;stroke-opacity:1;stroke-dasharray:none;stroke-dashoffset:0;marker:none;visibility:visible;display:inline;overflow:visible;enable-background:accumulate"
           id="path9323"
           sodipodi:cx="72"
           sodipodi:cy="264"
           sodipodi:rx="4"
           sodipodi:ry="4"
           d="m 76,264 c 0,2.20914 -1.790861,4 -4,4 -2.209139,0 -4,-1.79086 -4,-4 0,-2.20914 1.790861,-4 4,-4 2.209139,0 4,1.79086 4,4 z"
           transform="translate(0,46)" />
        <path
           style="font-size:medium;font-style:normal;font-variant:normal;font-weight:normal;font-stretch:normal;text-indent:0;text-align:start;text-decoration:none;line-height:normal;letter-spacing:normal;word-spacing:normal;text-transform:none;direction:ltr;block-progression:tb;writing-mode:lr-tb;text-anchor:start;baseline-shift:baseline;color:#000000;fill:#000000;fill-opacity:1;stroke:none;stroke-width:1;marker:none;visibility:visible;display:inline;overflow:visible;enable-background:accumulate;font-family:Sans;-inkscape-font-specification:Sans"
           d="m 72,300.99995 c -12.277778,0 -16.9375,10.84375 -16.9375,10.84375 L 55,311.99995 l 0.0625,0.1875 c 0,0 4.604167,11.8125 16.9375,11.8125 12.333333,0 16.9375,-11.8125 16.9375,-11.8125 L 89,311.99995 88.9375,311.8437 c 0,0 -4.659722,-10.84375 -16.9375,-10.84375 z m 0,2 c 11.407055,0 15.797569,8.5068 16,9 -0.201884,0.58578 -4.642621,11 -16,11 -11.357379,0 -15.798116,-10.41422 -16,-11 0.202431,-0.4932 4.592945,-9 16,-9 z"
           id="path9402"
           inkscape:connector-curvature="0"
           sodipodi:nodetypes="scccscccsscscs" />
      </g>
    </g>
  </g>
</svg>
