<?xml version="1.0" encoding="UTF-8" standalone="no"?>
<!-- Created with Inkscape (http://www.inkscape.org/) -->

<svg
   xmlns:dc="http://purl.org/dc/elements/1.1/"
   xmlns:cc="http://creativecommons.org/ns#"
   xmlns:rdf="http://www.w3.org/1999/02/22-rdf-syntax-ns#"
   xmlns:svg="http://www.w3.org/2000/svg"
   xmlns="http://www.w3.org/2000/svg"
   xmlns:sodipodi="http://sodipodi.sourceforge.net/DTD/sodipodi-0.dtd"
   xmlns:inkscape="http://www.inkscape.org/namespaces/inkscape"
   width="48"
   height="48"
   id="svg3433"
   version="1.1"
   inkscape:version="0.48.3.1 r9886"
   sodipodi:docname="New document 1">
  <defs
     id="defs3435" />
  <sodipodi:namedview
     id="base"
     pagecolor="#ffffff"
     bordercolor="#666666"
     borderopacity="1.0"
     inkscape:pageopacity="0.0"
     inkscape:pageshadow="2"
     inkscape:zoom="7.9195959"
     inkscape:cx="40.506351"
     inkscape:cy="23.659361"
     inkscape:document-units="px"
     inkscape:current-layer="layer1"
     showgrid="false"
     inkscape:window-width="1920"
     inkscape:window-height="1025"
     inkscape:window-x="-3"
     inkscape:window-y="32"
     inkscape:window-maximized="1" />
  <metadata
     id="metadata3438">
    <rdf:RDF>
      <cc:Work
         rdf:about="">
        <dc:format>image/svg+xml</dc:format>
        <dc:type
           rdf:resource="http://purl.org/dc/dcmitype/StillImage" />
        <dc:title></dc:title>
      </cc:Work>
    </rdf:RDF>
  </metadata>
  <g
     inkscape:label="Layer 1"
     inkscape:groupmode="layer"
     id="layer1"
     transform="translate(0,-1004.3622)">
    <g
       style="display:inline"
       id="g5759"
       transform="translate(-29.999132,688.00002)">
      <path
         id="rect5568"
         transform="translate(0,284.36218)"
         d="m 32,32 0,48 40,0 0,-22 c -4.660167,4.662709 -10.80543,10.814845 -12,12 0,0 -3.515202,0.797482 -5.65625,2.03125 1.294894,-2.073241 2.21875,-5.5 2.21875,-5.5 C 58.06123,65.044332 68.283414,54.728775 72,51 l 0,-19 -40,0 z m 12.5,12.125 c 0.05205,0.01178 0.130173,0.126895 0.1875,0.15625 0.101274,0.0518 0.212725,0.10161 0.3125,0.15625 0.597196,0.32709 1.189751,0.62882 1.8125,0.90625 0.545159,0.244345 1.080269,0.504722 1.625,0.75 l 0.40625,-1.4375 c 1.200723,0.44204 2.32164,1.03626 3.4375,1.65625 2.170338,1.19562 4.284177,2.54734 6.375,3.875 0.292698,0.18462 0.58261,0.34615 0.875,0.53125 0.755706,0.47842 0.661044,0.40692 1.34375,0.875 0.344942,0.2365 0.65553,0.47385 1.03125,0.65625 0.07452,0.0467 0.25446,0.07592 0.21875,0.15625 -0.217915,0.490462 -0.441325,0.976089 -0.71875,1.4375 0.119058,0.0768 0.222395,0.1769 0.34375,0.25 0.181924,0.109583 0.629806,0.350364 0.90625,0.5 0.05329,0.0049 0.11287,0.02183 0.09375,0.0625 0.0062,0.0033 0.02535,-0.0032 0.03125,0 1.131088,0.58814 0.760876,0.69283 -1.03125,2.125 -0.05822,0.04655 -0.12948,0.0076 -0.1875,-0.0625 0.0422,0.01859 0.09418,0.0142 0.125,0 0.07044,-0.0325 -0.09936,-0.10353 -0.15625,-0.15625 -0.01113,-0.0086 -0.02,-0.02255 -0.03125,-0.03125 -0.01066,0.02009 -0.02099,0.04218 -0.03125,0.0625 -0.0249,-0.02964 -0.06798,-0.04517 -0.09375,-0.0625 -0.166972,-0.11226 -0.32798,-0.20813 -0.5,-0.3125 -0.233712,-0.14178 -0.485748,-0.29454 -0.71875,-0.4375 -0.331571,-0.206234 -0.664198,-0.394939 -1,-0.59375 -0.397197,0.503499 -0.743841,1.048706 -1.25,1.4375 -0.131158,0.10074 -0.291011,-0.14198 -0.4375,-0.21875 -0.618587,-0.324181 -1.250389,-0.625545 -1.875,-0.9375 0.666721,0.437281 1.340462,0.895606 2,1.34375 0.148055,0.1006 0.292412,0.17642 0.4375,0.28125 0.09362,0.0676 0.28349,0.10821 0.25,0.21875 -0.13449,0.44396 -0.453339,0.81831 -0.6875,1.21875 -0.212785,-0.0859 -0.419179,-0.1798 -0.625,-0.28125 -0.220494,-0.10869 -0.441299,-0.22448 -0.65625,-0.34375 -0.280242,-0.1555 -0.561801,-0.31637 -0.84375,-0.46875 -0.341678,-0.18467 -0.684925,-0.38671 -1.03125,-0.5625 -0.809094,-0.41069 -1.671765,-0.78956 -2.5,-1.15625 -1.825345,-0.78816 -3.670069,-1.51325 -5.5625,-2.125 -0.36384,-0.117618 -0.626585,-0.19747 -0.90625,-0.28125 0.262893,0.15319 0.519069,0.314347 0.78125,0.46875 0.431583,0.25417 0.881708,0.52575 1.3125,0.78125 1.350041,0.82947 2.691715,1.62221 4.03125,2.46875 0.756208,0.47173 1.496933,0.99217 2.25,1.46875 0.280865,0.17775 0.560073,0.35802 0.84375,0.53125 0.208683,0.12519 0.418041,0.24697 0.625,0.375 0.135622,0.0839 0.290008,0.14082 0.40625,0.25 0.565988,0.53158 0.440253,0.89933 -0.625,1.375 -0.122358,0.05463 -0.251992,-0.0061 -0.375,-0.09375 -0.133372,-0.07843 -0.296434,-0.1551 -0.4375,-0.21875 -0.112951,-0.05096 -0.21726,-0.07047 -0.3125,-0.15625 -0.03111,-0.02802 -0.06954,-0.05928 -0.09375,-0.09375 -0.04169,-0.01993 -0.08324,-0.04272 -0.125,-0.0625 -1.451192,-0.62866 -2.939651,-1.1797 -4.4375,-1.6875 -0.323447,-0.10965 -0.871784,-0.269049 -1.40625,-0.4375 1.09821,0.618675 2.199534,1.228066 3.28125,1.875 0.361329,0.2161 0.739363,0.42895 1.09375,0.65625 0.313209,0.2009 0.599638,0.44542 0.90625,0.65625 0.258657,0.16374 0.522752,0.30476 0.78125,0.46875 0.19477,0.12356 0.397476,0.25384 0.59375,0.375 0.132247,0.0816 0.245704,0.16377 0.375,0.25 0.09689,0.0646 0.29276,0.10288 0.28125,0.21875 -0.151273,1.5232 -0.162036,1.28403 -1.125,1.1875 -1.497218,-0.53947 -3.009145,-1.03638 -4.53125,-1.5 -0.373628,-0.108626 -0.748196,-0.21623 -1.125,-0.3125 0.732781,0.424076 1.457704,0.852038 2.1875,1.28125 0.81424,0.46778 1.610614,0.96996 2.40625,1.46875 0.488772,0.30641 0.985937,0.61043 1.4375,0.96875 0.09347,0.1123 0.28295,0.19764 0.28125,0.34375 -0.0045,0.37902 -0.06615,0.80566 -0.3125,1.09375 -0.893543,0.04108 -1.462507,0.04169 -2.4375,-0.25 -0.712344,-0.145178 -3.915119,-0.53371 -4.40625,-0.625 0.01345,0.0097 0.01725,0.02155 0.03125,0.03125 C 49,68 51,69 54,72 c -4,-3 -6,-4 -6.90625,-4.40625 -0.09572,-0.0692 -0.18852,-0.11434 -0.28125,-0.1875 -0.04911,-0.02455 -0.07108,-0.03432 -0.125,-0.0625 -0.403281,-0.23041 -1.638387,-1.03332 -1.46875,-1.6875 0.202975,-0.78275 0.671171,-0.94588 1.1875,-0.8125 C 47,65 49.074868,65.706212 50.4375,65.65625 c 0.428923,0.08909 0.696016,0.06744 1.125,0.15625 -0.335051,-0.302194 -0.64457,-0.714494 -1.625,-1.15625 -1.581124,-0.91101 -3.169274,-1.83047 -4.84375,-2.5625 -0.175287,-0.0759 -0.357378,-0.13969 -0.53125,-0.21875 -0.43689,-0.19863 -1.102718,-0.47262 -0.96875,-1.1875 0.198243,-1.05786 0.959721,-0.80017 1.53125,-0.65625 0.314948,0.0921 0.89033,0.26849 1.1875,0.34375 0.263595,0.0668 0.517039,0.12323 0.78125,0.1875 0.942939,0.22937 1.87663,0.46235 2.8125,0.71875 0.859117,0.235484 0.992164,0.273517 1.34375,0.375 -0.0402,-0.03108 0.152104,0.08835 -0.6875,-0.4375 -1.488552,-0.93228 -3.017175,-1.78863 -4.59375,-2.5625 -0.348523,-0.16128 -0.71149,-0.31296 -1.0625,-0.46875 -0.569507,-0.25276 -1.110936,-0.4865 -1.6875,-0.71875 -0.02941,-0.0119 -1.1917,-0.43833 -1.1875,-0.53125 0.02502,-0.55903 0.439738,-1.0465 0.65625,-1.5625 0.453705,0.17114 0.89929,0.39929 1.34375,0.59375 1.02129,0.44682 0.702928,0.32387 1.84375,0.71875 0.387136,0.13401 0.768966,0.27268 1.15625,0.40625 1.904363,0.64042 3.803976,1.266044 5.71875,1.875 -0.574119,-0.37184 -1.253895,-0.791125 -1.6875,-1.0625 C 49.731036,57.07294 48.409085,56.2247 47.03125,55.46875 46.261651,55.05058 45.302251,54.52476 44.5,54.15625 44.136103,53.9891 43.7759,53.87276 43.40625,53.71875 42.628244,53.39459 41.845503,53.06997 41.09375,52.6875 40.935951,52.24265 40.518741,51.80365 40.625,51.34375 c 0.204387,-0.8846 1.460522,-0.31988 1.875,-0.1875 0.33652,0.10748 1.51047,0.47399 1.78125,0.5625 1.827146,0.57527 3.651818,1.212142 5.4375,1.90625 C 49.460396,53.504051 49.239295,53.420837 48.8125,53.21875 46.824045,52.27721 48.089318,52.85934 46.15625,52 44.521608,51.2392 45.516188,51.69491 44,51.03125 c -0.268564,-0.11755 -0.545502,-0.25392 -0.8125,-0.375 -0.513522,-0.23287 -1.552186,-0.60687 -1.34375,-1.46875 0.08964,-0.370674 0.449245,-0.551764 0.8125,-0.75 -0.32158,-0.131363 -0.982534,-0.373432 -1.40625,-0.5625 -0.03101,0.0043 -0.0262,-0.0044 -0.0625,0 -0.149883,0.01835 -0.425007,-0.20307 -0.5625,-0.28125 l 0.03125,-0.03125 c -0.08312,-0.04766 -0.16617,-0.0787 -0.25,-0.125 0.01057,-0.75249 -0.251361,-1.55252 0.03125,-2.25 0.123943,-0.30589 0.639279,-0.19924 0.96875,-0.21875 0.14527,-0.009 0.269055,0.07646 0.40625,0.125 0.681092,0.240917 1.349036,0.542623 2.03125,0.78125 0.179759,-0.581807 0.375891,-1.164348 0.625,-1.71875 0.0088,-0.01958 0.0139,-0.03515 0.03125,-0.03125 z m 12.875,12.0625 c 0.101051,0.0801 0.196748,0.19324 0.3125,0.25 0.06961,0.0341 -0.09724,-0.10597 -0.15625,-0.15625 C 57.487775,56.2442 57.42011,56.22257 57.375,56.1875 z m -12.8125,5.375 c -0.02285,0.004 -0.01527,0.0456 -0.03125,0.0625 0.02826,-0.02271 0.06323,-0.04154 0.09375,-0.0625 -0.02047,0.0018 -0.04224,-0.0038 -0.0625,0 z"
         style="color:#000000;fill:#ffffff;fill-opacity:1;fill-rule:nonzero;stroke:#ffffff;stroke-width:0;stroke-linecap:round;stroke-linejoin:round;stroke-miterlimit:4;stroke-opacity:1;stroke-dashoffset:0;marker:none;visibility:visible;display:inline;overflow:visible;enable-background:accumulate"
         inkscape:connector-curvature="0" />
      <g
         style="fill:#ffffff;fill-opacity:1"
         id="g5739">
        <path
           style="fill:#ffffff;fill-opacity:1;stroke:none"
           d="m 75.413129,335.47632 c 0,0 -1.074294,-1.0743 -1.781401,-0.36719 -1.414214,1.41422 -14.849242,14.84924 -16.263456,16.26346 0.707107,0.7071 1.414214,1.41421 2.12132,2.12132 1.414214,-1.41422 15.263459,-15.26346 16.263456,-16.26346 0.707107,-0.7071 -0.339925,-1.75414 -0.339919,-1.75413 z"
           id="path5610"
           inkscape:connector-curvature="0"
           sodipodi:nodetypes="ccccsc" />
        <path
           style="fill:#ffffff;fill-opacity:1;stroke:none"
           d="m 57.368272,351.37259 c 0,0 -0.707107,2.12132 -1.789213,3.86764 1.789213,-1.03922 3.910533,-1.74632 3.910533,-1.74632 0.707107,-0.70711 -2.12132,-2.12132 -2.12132,-2.12132 z"
           id="path5612"
           inkscape:connector-curvature="0"
           sodipodi:nodetypes="cccc" />
      </g>
    </g>
  </g>
</svg>
