<?xml version="1.0" encoding="UTF-8" standalone="no"?>
<!-- Created with Inkscape (http://www.inkscape.org/) -->

<svg
   xmlns:dc="http://purl.org/dc/elements/1.1/"
   xmlns:cc="http://creativecommons.org/ns#"
   xmlns:rdf="http://www.w3.org/1999/02/22-rdf-syntax-ns#"
   xmlns:svg="http://www.w3.org/2000/svg"
   xmlns="http://www.w3.org/2000/svg"
   xmlns:sodipodi="http://sodipodi.sourceforge.net/DTD/sodipodi-0.dtd"
   xmlns:inkscape="http://www.inkscape.org/namespaces/inkscape"
   width="48"
   height="48"
   id="svg4351"
   version="1.1"
   inkscape:version="0.48.4 r9939"
   sodipodi:docname="icon-A4portrait-green.svg">
  <defs
     id="defs4353" />
  <sodipodi:namedview
     id="base"
     pagecolor="#ffffff"
     bordercolor="#666666"
     borderopacity="1.0"
     inkscape:pageopacity="0.0"
     inkscape:pageshadow="2"
     inkscape:zoom="11.2"
     inkscape:cx="12.098215"
     inkscape:cy="23.214286"
     inkscape:document-units="px"
     inkscape:current-layer="layer1"
     showgrid="true"
     inkscape:window-width="1920"
     inkscape:window-height="1025"
     inkscape:window-x="-3"
     inkscape:window-y="32"
     inkscape:window-maximized="1">
    <inkscape:grid
       type="xygrid"
       id="grid2985"
       empspacing="8"
       visible="true"
       enabled="true"
       snapvisiblegridlinesonly="true" />
  </sodipodi:namedview>
  <metadata
     id="metadata4356">
    <rdf:RDF>
      <cc:Work
         rdf:about="">
        <dc:format>image/svg+xml</dc:format>
        <dc:type
           rdf:resource="http://purl.org/dc/dcmitype/StillImage" />
        <dc:title />
      </cc:Work>
    </rdf:RDF>
  </metadata>
  <g
     inkscape:label="Layer 1"
     inkscape:groupmode="layer"
     id="layer1"
     transform="translate(0,-1004.3622)">
    <path
       inkscape:connector-curvature="0"
       style="color:#000000;fill:#000000;fill-opacity:1;fill-rule:nonzero;stroke:none;stroke-width:1.50000000000000000;marker:none;visibility:visible;display:inline;overflow:visible;enable-background:accumulate"
       d="m 24.000001,1004.3622 c -13.254832,0 -23.9999989,10.7452 -23.9999989,24 0,13.2548 10.7451669,24 23.9999989,24 13.254833,0 23.999999,-10.7452 23.999999,-24 0,-13.2548 -10.745166,-24 -23.999999,-24 z m 0,4 c 11.045692,0 19.999994,8.9543 19.999994,20 0,11.0457 -8.954302,20 -19.999994,20 -11.045699,0 -20.0000015,-8.9543 -20.0000015,-20 0,-11.0457 8.9543025,-20 20.0000015,-20 z"
       id="path3850-7" />
    <path
       style="color:#000000;fill:#000000;fill-opacity:1;fill-rule:nonzero;stroke:none;stroke-width:3;marker:none;visibility:visible;display:inline;overflow:visible;enable-background:accumulate"
       d="M 14.15625 11 L 14.15625 37 L 34.15625 37 L 34.15625 11 L 14.15625 11 z M 19.46875 19.4375 L 21.9375 19.4375 L 24.8125 28.5625 L 22.625 28.5625 L 22.0625 26.40625 L 19.25 26.40625 L 18.6875 28.5625 L 16.59375 28.5625 L 19.46875 19.4375 z M 28.1875 19.6875 L 30.71875 19.6875 L 30.71875 24.875 L 31.71875 24.875 L 31.71875 26.4375 L 30.71875 26.4375 L 30.71875 28.5625 L 28.78125 28.5625 L 28.78125 26.4375 L 24.9375 26.4375 L 24.9375 25.03125 L 28.1875 19.6875 z M 20.625 21 C 20.415 21.966 20.15825 23.0275 19.90625 23.9375 L 19.6875 24.78125 L 21.625 24.78125 L 21.40625 23.9375 C 21.15425 23.0275 20.90825 21.952 20.65625 21 L 20.625 21 z M 28.8125 21.4375 C 28.5885 21.9275 28.34575 22.4335 28.09375 22.9375 L 26.90625 24.875 L 28.78125 24.875 L 28.78125 23.4375 C 28.78125 22.8635 28.847 21.9975 28.875 21.4375 L 28.8125 21.4375 z "
       transform="translate(0,1004.3622)"
       id="rect4318" />
    <g
       style="font-size:14px;font-style:normal;font-variant:normal;font-weight:bold;font-stretch:normal;line-height:125%;letter-spacing:0px;word-spacing:0px;fill:#000000;fill-opacity:1;stroke:none;font-family:Source Sans Pro;-inkscape-font-specification:Source Sans Pro Bold"
       id="text2987" />
  </g>
</svg>
