<?xml version="1.0" encoding="UTF-8" standalone="no"?>
<!-- Created with Inkscape (http://www.inkscape.org/) -->

<svg
   xmlns:dc="http://purl.org/dc/elements/1.1/"
   xmlns:cc="http://creativecommons.org/ns#"
   xmlns:rdf="http://www.w3.org/1999/02/22-rdf-syntax-ns#"
   xmlns:svg="http://www.w3.org/2000/svg"
   xmlns="http://www.w3.org/2000/svg"
   xmlns:xlink="http://www.w3.org/1999/xlink"
   xmlns:sodipodi="http://sodipodi.sourceforge.net/DTD/sodipodi-0.dtd"
   xmlns:inkscape="http://www.inkscape.org/namespaces/inkscape"
   width="48px"
   height="48px"
   id="svg3463"
   version="1.1"
   inkscape:version="0.48.4 r9939"
   sodipodi:docname="icon-layer_filter-red.svg">
  <defs
     id="defs3465">
    <linearGradient
       y2="56.055851"
       x2="65.687874"
       y1="55.998959"
       x1="80.010139"
       gradientTransform="matrix(1.0606604,-1.0606604,1.0606604,1.0606604,-71.968564,109.54959)"
       gradientUnits="userSpaceOnUse"
       id="linearGradient7095"
       xlink:href="#linearGradient4214-9-6-6"
       inkscape:collect="always" />
    <linearGradient
       id="linearGradient4214-9-6-6">
      <stop
         style="stop-color:#78001e;stop-opacity:1;"
         offset="0"
         id="stop4216-3-1-6" />
      <stop
         id="stop4218-02-2-7"
         offset="0.79447055"
         style="stop-color:#78001e;stop-opacity:0.47058824;" />
      <stop
         style="stop-color:#78001e;stop-opacity:0;"
         offset="1"
         id="stop4220-56-7-0" />
    </linearGradient>
    <linearGradient
       inkscape:collect="always"
       xlink:href="#linearGradient6936"
       id="linearGradient6944"
       x1="176"
       y1="88"
       x2="176"
       y2="112"
       gradientUnits="userSpaceOnUse" />
    <linearGradient
       id="linearGradient6936">
      <stop
         style="stop-color:#000000;stop-opacity:1;"
         offset="0"
         id="stop6938" />
      <stop
         style="stop-color:#000000;stop-opacity:0;"
         offset="1"
         id="stop6940" />
    </linearGradient>
    <linearGradient
       inkscape:collect="always"
       xlink:href="#linearGradient6936"
       id="linearGradient3601"
       x1="176"
       y1="88"
       x2="176"
       y2="112"
       gradientUnits="userSpaceOnUse" />
    <linearGradient
       inkscape:collect="always"
       xlink:href="#linearGradient6936"
       id="linearGradient6942"
       x1="184"
       y1="88"
       x2="184"
       y2="112"
       gradientUnits="userSpaceOnUse" />
    <linearGradient
       inkscape:collect="always"
       xlink:href="#linearGradient6936"
       id="linearGradient3616"
       x1="184"
       y1="88"
       x2="184"
       y2="112"
       gradientUnits="userSpaceOnUse" />
    <linearGradient
       y2="112"
       x2="184"
       y1="88"
       x1="184"
       gradientUnits="userSpaceOnUse"
       id="linearGradient3630"
       xlink:href="#linearGradient6936"
       inkscape:collect="always" />
    <linearGradient
       inkscape:collect="always"
       xlink:href="#linearGradient6936"
       id="linearGradient3772"
       gradientUnits="userSpaceOnUse"
       x1="176"
       y1="88"
       x2="176"
       y2="112" />
  </defs>
  <sodipodi:namedview
     id="base"
     pagecolor="#ffffff"
     bordercolor="#666666"
     borderopacity="1.0"
     inkscape:pageopacity="0.0"
     inkscape:pageshadow="2"
     inkscape:zoom="3.5"
     inkscape:cx="28.170429"
     inkscape:cy="26.892404"
     inkscape:current-layer="layer1"
     showgrid="true"
     inkscape:grid-bbox="true"
     inkscape:document-units="px"
     inkscape:window-width="775"
     inkscape:window-height="418"
     inkscape:window-x="1005"
     inkscape:window-y="137"
     inkscape:window-maximized="0">
    <inkscape:grid
       type="xygrid"
       id="grid3517"
       empspacing="8"
       visible="true"
       enabled="true"
       snapvisiblegridlinesonly="true" />
  </sodipodi:namedview>
  <metadata
     id="metadata3468">
    <rdf:RDF>
      <cc:Work
         rdf:about="">
        <dc:format>image/svg+xml</dc:format>
        <dc:type
           rdf:resource="http://purl.org/dc/dcmitype/StillImage" />
        <dc:title />
      </cc:Work>
    </rdf:RDF>
  </metadata>
  <g
     id="layer1"
     inkscape:label="Layer 1"
     inkscape:groupmode="layer">
    <g
       transform="matrix(1.2,0,0,1.2,-192,-86.4)"
       style="display:inline"
       id="g5000">
      <path
         inkscape:connector-curvature="0"
         d="M 180,72 C 168.95431,72 160,80.954308 160,91.999999 160,103.04569 168.95431,112 180,112 c 11.04569,0 20,-8.95431 20,-20.000001 C 200,80.954308 191.04569,72 180,72 z m 0,3.333333 c 9.20474,0 16.66666,7.461916 16.66666,16.666666 0,9.204741 -7.46192,16.666661 -16.66666,16.666661 -9.20475,0 -16.66667,-7.46192 -16.66667,-16.666661 0,-9.20475 7.46192,-16.666666 16.66667,-16.666666 z"
         id="path3850-7-4-8-8"
         style="color:#000000;fill:#000000;fill-opacity:1;fill-rule:nonzero;stroke:none;stroke-width:1.50000000000000000;marker:none;visibility:visible;display:inline;overflow:visible;enable-background:accumulate" />
      <g
         style="font-size:32px;font-style:normal;font-variant:normal;font-weight:bold;font-stretch:normal;line-height:125%;letter-spacing:0px;word-spacing:0px;fill:url(#linearGradient6944);fill-opacity:1;stroke:none;font-family:Source Sans Pro;-inkscape-font-specification:Source Sans Pro Bold"
         id="text6928">
        <path
           d="m 168.432,102 4.736,0 0,-8.096 7.2,0 0,-3.968 -7.2,0 0,-4.832 8.448,0 0,-3.968 -13.184,0 0,20.864"
           style="fill:url(#linearGradient3772)"
           id="path3684"
           inkscape:connector-curvature="0" />
      </g>
      <g
         style="font-size:28px;font-style:italic;font-variant:normal;font-weight:bold;font-stretch:normal;line-height:125%;letter-spacing:0px;word-spacing:0px;fill:url(#linearGradient3630);fill-opacity:1;stroke:none;font-family:Source Sans Pro;-inkscape-font-specification:Source Sans Pro Bold Italic"
         id="text6932">
        <path
           d="m 178.88,100 4.116,0 1.68,-2.436 c 0.532,-0.811999 1.064,-1.624001 1.568,-2.436 l 0.112,0 c 0.252,0.811999 0.532,1.652001 0.784,2.436 l 0.868,2.436 3.92,0 -2.576,-6.552 5.432,-7.336 -4.088,0 -1.428,2.38 c -0.448,0.783999 -0.952,1.596001 -1.428,2.38 l -0.112,0 c -0.224,-0.783999 -0.448,-1.568001 -0.672,-2.38 l -0.84,-2.38 -3.864,0 2.408,6.468 -5.88,7.42"
           style=""
           id="path3687" />
      </g>
    </g>
  </g>
</svg>
