<?xml version="1.0" encoding="UTF-8" standalone="no"?>
<!-- Created with Inkscape (http://www.inkscape.org/) -->

<svg
   xmlns:dc="http://purl.org/dc/elements/1.1/"
   xmlns:cc="http://creativecommons.org/ns#"
   xmlns:rdf="http://www.w3.org/1999/02/22-rdf-syntax-ns#"
   xmlns:svg="http://www.w3.org/2000/svg"
   xmlns="http://www.w3.org/2000/svg"
   version="1.1"
   width="48"
   height="48"
   id="svg3930">
  <defs
     id="defs3932" />
  <metadata
     id="metadata3935">
    <rdf:RDF>
      <cc:Work
         rdf:about="">
        <dc:format>image/svg+xml</dc:format>
        <dc:type
           rdf:resource="http://purl.org/dc/dcmitype/StillImage" />
        <dc:title></dc:title>
      </cc:Work>
    </rdf:RDF>
  </metadata>
  <g
     transform="translate(0,-1004.3622)"
     id="layer1">
    <g
       transform="translate(-552,292.3622)"
       id="g4228"
       style="display:inline">
      <path
         d="m 581,728 a 5,5 0 1 1 -10,0 5,5 0 1 1 10,0 z"
         transform="translate(8,16)"
         id="path4562-9"
         style="color:#000000;fill:#ffffff;fill-opacity:1;fill-rule:nonzero;stroke:none;stroke-width:3;marker:none;visibility:visible;display:inline;overflow:visible;enable-background:accumulate" />
      <path
         d="m 581,728 a 5,5 0 1 1 -10,0 5,5 0 1 1 10,0 z"
         transform="translate(-10,8)"
         id="path4562-2"
         style="color:#000000;fill:#ffffff;fill-opacity:1;fill-rule:nonzero;stroke:none;stroke-width:3;marker:none;visibility:visible;display:inline;overflow:visible;enable-background:accumulate" />
      <g
         id="g4192">
        <g
           transform="translate(0,8)"
           id="g4797">
          <path
             d="m 576,704 c -13.25483,0 -24,10.74517 -24,24 0,13.25483 10.74517,24 24,24 13.25483,0 24,-10.74517 24,-24 0,-13.25483 -10.74517,-24 -24,-24 z m 0,4 c 11.04569,0 19.99999,8.9543 19.99999,20 0,11.04569 -8.9543,19.99999 -19.99999,19.99999 -11.0457,0 -20,-8.9543 -20,-19.99999 0,-11.0457 8.9543,-20 20,-20 z"
             id="path3850-7-4-7-3-6"
             style="color:#000000;fill:#ffffff;fill-opacity:1;fill-rule:nonzero;stroke:none;stroke-width:1.5;marker:none;visibility:visible;display:inline;overflow:visible;enable-background:accumulate" />
          <path
             d="m 581,728 a 5,5 0 1 1 -10,0 5,5 0 1 1 10,0 z"
             transform="translate(8,-8)"
             id="path4562"
             style="color:#000000;fill:#ffffff;fill-opacity:1;fill-rule:nonzero;stroke:none;stroke-width:3;marker:none;visibility:visible;display:inline;overflow:visible;enable-background:accumulate" />
        </g>
        <path
           d="m 584,728 -18,8 18,8"
           id="path3122"
           style="fill:none;stroke:#ffffff;stroke-width:3;stroke-linecap:butt;stroke-linejoin:miter;stroke-miterlimit:4;stroke-opacity:1;stroke-dasharray:none" />
      </g>
    </g>
  </g>
</svg>
