<?xml version="1.0" encoding="UTF-8" standalone="no"?>
<!-- Created with Inkscape (http://www.inkscape.org/) -->

<svg
   xmlns:dc="http://purl.org/dc/elements/1.1/"
   xmlns:cc="http://creativecommons.org/ns#"
   xmlns:rdf="http://www.w3.org/1999/02/22-rdf-syntax-ns#"
   xmlns:svg="http://www.w3.org/2000/svg"
   xmlns="http://www.w3.org/2000/svg"
   version="1.1"
   width="48"
   height="48"
   id="svg3930">
  <defs
     id="defs3932" />
  <metadata
     id="metadata3935">
    <rdf:RDF>
      <cc:Work
         rdf:about="">
        <dc:format>image/svg+xml</dc:format>
        <dc:type
           rdf:resource="http://purl.org/dc/dcmitype/StillImage" />
        <dc:title></dc:title>
      </cc:Work>
    </rdf:RDF>
  </metadata>
  <g
     transform="translate(0,-1004.3622)"
     id="layer1">
    <g
       transform="translate(-40,300.3622)"
       id="g4477"
       style="display:inline">
      <g
         transform="matrix(0.74999994,0,0,0.74999994,-73.999989,566.00001)"
         id="g4182"
         style="display:inline">
        <path
           d="m 184,184 c -17.67311,0 -32,14.32689 -32,32 0,17.67311 14.32689,32 32,32 17.67311,0 32,-14.32689 32,-32 0,-17.67311 -14.32689,-32 -32,-32 z m 0,5.33333 c 14.72759,0 26.66666,11.93907 26.66666,26.66667 0,14.72759 -11.93907,26.66666 -26.66666,26.66666 -14.7276,0 -26.66667,-11.93907 -26.66667,-26.66666 0,-14.7276 11.93907,-26.66667 26.66667,-26.66667 z"
           id="path3850-7"
           style="color:#000000;fill:#ffffff;fill-opacity:1;fill-rule:nonzero;stroke:none;stroke-width:1.5;marker:none;visibility:visible;display:inline;overflow:visible;enable-background:accumulate" />
        <g
           id="g4287" />
      </g>
      <path
         d="m 72,713 c -2.761424,0 -5,2.23858 -5,5 0,2.76142 2.238576,5 5,5 2.761424,0 5,-2.23858 5,-5 0,-2.76142 -2.238576,-5 -5,-5 z m 0,1 c 0.553999,0 1,0.446 1,1 l 0,2 2,0 c 0.553999,0 1,0.44609 1,1 0,0.55391 -0.446001,1 -1,1 l -2,0 0,2 c 0,0.554 -0.446001,1 -1,1 -0.553999,0 -1,-0.446 -1,-1 l 0,-2 -2,0 c -0.553999,0 -1,-0.44609 -1,-1 0,-0.55391 0.446001,-1 1,-1 l 2,0 0,-2 c 0,-0.554 0.446001,-1 1,-1 z"
         id="path3517"
         style="color:#000000;fill:#ffffff;fill-opacity:1;fill-rule:nonzero;stroke:none;stroke-width:3;marker:none;visibility:visible;display:inline;overflow:visible;enable-background:accumulate" />
      <path
         d="m 54,715 0,26 20,0 0,-16.28125 C 73.369349,724.90537 72.69117,725 72,725 c -3.865993,0 -7,-3.13401 -7,-7 0,-1.075 0.254495,-2.08984 0.6875,-3 L 54,715 z"
         id="rect4318"
         style="color:#000000;fill:#ffffff;fill-opacity:1;fill-rule:nonzero;stroke:none;stroke-width:3;marker:none;visibility:visible;display:inline;overflow:visible;enable-background:accumulate" />
    </g>
  </g>
</svg>
