<?xml version="1.0" encoding="iso-8859-1"?>
<!-- Generator: Adobe Illustrator 16.0.0, SVG Export Plug-In . SVG Version: 6.00 Build 0)  -->
<!DOCTYPE svg PUBLIC "-//W3C//DTD SVG 1.1//EN" "http://www.w3.org/Graphics/SVG/1.1/DTD/svg11.dtd">
<svg xmlns="http://www.w3.org/2000/svg" xmlns:xlink="http://www.w3.org/1999/xlink" version="1.1" id="Capa_1" x="0px" y="0px" width="512px" height="512px" viewBox="0 0 412.76 412.76" style="enable-background:new 0 0 412.76 412.76;" xml:space="preserve">
<g>
	<path d="M376.493,310.998c-1.577-29.167-24.972-52.562-54.139-54.139v-21.72h-6.235v21.72   c-29.167,1.577-52.562,24.972-54.139,54.139h-21.465v6.235h21.465c1.577,29.167,24.972,52.568,54.139,54.145v21.715h6.235v-21.715   c29.167-1.576,52.562-24.978,54.139-54.145h26.141v-6.235H376.493z M316.119,365.143c-25.733-1.56-46.345-22.178-47.903-47.91   h47.903V365.143z M316.119,310.998h-47.903c1.559-25.732,22.17-46.345,47.903-47.903V310.998z M322.354,365.143v-47.91h47.903   C368.692,342.965,348.087,363.583,322.354,365.143z M322.354,310.998v-47.903c25.732,1.559,46.344,22.171,47.903,47.903H322.354z    M291.336,90.016c-0.755-4.676,2.43-9.091,7.106-9.852c2.064-0.338,50.595-8.716,53.512-50.531   c0.322-4.677,4.365-8.257,9.151-7.974c4.737,0.335,8.312,4.445,7.989,9.17c-3.879,55.512-67.291,66.201-67.931,66.302   c-0.438,0.067-0.901,0.104-1.358,0.104C295.574,97.235,292.012,94.2,291.336,90.016z M32.383,30.83   c-0.329-4.725,3.249-8.835,7.971-9.164c4.874-0.344,8.841,3.291,9.17,7.968c2.92,41.82,51.441,50.199,53.512,50.537   c4.67,0.761,7.858,5.176,7.109,9.846c-0.679,4.184-4.241,7.225-8.473,7.225c-0.457,0-0.916-0.037-1.379-0.11   C99.668,97.031,36.255,86.341,32.383,30.83z M330.562,162.532c2.448,0.101,60.922,3.069,72.655,50.017   c0.555,2.229,0.214,4.536-0.962,6.503c-1.181,1.967-3.062,3.361-5.291,3.91c-0.67,0.182-1.382,0.268-2.083,0.268   c-3.945,0-7.367-2.68-8.33-6.504c-8.592-34.382-56.27-37.01-56.75-37.027c-2.284-0.095-4.403-1.078-5.956-2.768   c-1.553-1.69-2.356-3.885-2.259-6.181c0.195-4.612,3.939-8.229,8.531-8.229L330.562,162.532z M73.686,179.698   c-0.472,0.024-48.193,2.761-56.76,37.027c-0.959,3.824-4.381,6.504-8.33,6.504c-0.703,0-1.41-0.086-2.088-0.268   c-2.22-0.549-4.095-1.943-5.282-3.91c-1.179-1.967-1.52-4.274-0.965-6.503c11.734-46.947,70.208-49.916,72.692-50.022l0.359-0.006   c4.615,0,8.381,3.611,8.58,8.217C82.098,175.471,78.42,179.487,73.686,179.698z M160.925,49.106   c-0.219-1.708-0.332-3.428-0.332-5.133c0-22.289,18.14-40.429,40.429-40.429c22.293,0,40.426,18.14,40.426,40.429   c0,1.705-0.115,3.419-0.335,5.133c24.266,10.692,45.236,31.113,59.291,57.771l1.607,3.054l-3.069,1.589   c-26.348,13.707-55.752,20.658-87.392,20.658l0,0c-46.841,0-86.804-15.013-106.457-23.967l-3.398-1.553l1.827-3.261   C117.494,78.493,137.804,59.306,160.925,49.106z M116.005,298.235c1.148,4.592-1.653,9.262-6.241,10.412   c-0.441,0.122-46.098,12.398-52.008,53.037c-0.612,4.189-4.265,7.355-8.494,7.355c-0.411,0-0.828-0.024-1.245-0.098   c-4.683-0.676-7.946-5.048-7.265-9.736c7.618-52.349,62.502-66.646,64.834-67.23c0.679-0.17,1.388-0.256,2.095-0.256   C111.621,291.732,115.046,294.399,116.005,298.235z M319.236,222.145c-1.419,0-2.801,0.152-4.201,0.219   c2.643-11.971,4.11-24.527,4.11-37.503c0-22.94-4.287-44.88-12.732-65.215l-1.438-3.449l-3.318,1.717   c-21.896,11.317-57.305,17.881-83.147,20.247l-2.405,0.216l-0.603,2.338c-7.021,27.088-11.162,60.313-13.594,91.155   c-3.851-49.042-9.508-90.613-9.603-91.249l-0.429-2.947c-45.039-4.82-83.361-20.372-90.08-23.435l-3.157-1.44l-1.416,3.169   c-9.372,21.029-14.322,44.85-14.322,68.893c0,79.579,52.988,144.319,118.12,144.319c8.675,0,17.11-1.23,25.246-3.41   c5.054,46.838,44.804,83.445,92.963,83.445c51.569,0,93.529-41.96,93.529-93.529C412.76,264.112,370.812,222.145,319.236,222.145z    M319.236,402.968c-48.135,0-87.294-39.153-87.294-87.294c0-48.129,39.159-87.294,87.294-87.294s87.294,39.165,87.294,87.294   C406.53,363.815,367.365,402.968,319.236,402.968z" fill="#FFFFFF"/>
</g>
<g>
</g>
<g>
</g>
<g>
</g>
<g>
</g>
<g>
</g>
<g>
</g>
<g>
</g>
<g>
</g>
<g>
</g>
<g>
</g>
<g>
</g>
<g>
</g>
<g>
</g>
<g>
</g>
<g>
</g>
</svg>
