<svg xmlns:dc="http://purl.org/dc/elements/1.1/" xmlns:cc="http://creativecommons.org/ns#" xmlns:rdf="http://www.w3.org/1999/02/22-rdf-syntax-ns#" xmlns="http://www.w3.org/2000/svg" width="22" height="22" viewBox="0 0 22 22.000001" id="svg2" version="1.1"><metadata id="metadata7"><rdf:RDF><cc:Work><dc:format>image/svg+xml</dc:format><dc:type rdf:resource="http://purl.org/dc/dcmitype/StillImage"/><dc:title/><dc:creator><cc:Agent><dc:title>Timothée Giet</dc:title></cc:Agent></dc:creator><dc:date>2021</dc:date><cc:license rdf:resource="http://creativecommons.org/licenses/by-sa/4.0/"/></cc:Work><cc:License rdf:about="http://creativecommons.org/licenses/by-sa/4.0/"><cc:permits rdf:resource="http://creativecommons.org/ns#Reproduction"/><cc:permits rdf:resource="http://creativecommons.org/ns#Distribution"/><cc:requires rdf:resource="http://creativecommons.org/ns#Notice"/><cc:requires rdf:resource="http://creativecommons.org/ns#Attribution"/><cc:permits rdf:resource="http://creativecommons.org/ns#DerivativeWorks"/><cc:requires rdf:resource="http://creativecommons.org/ns#ShareAlike"/></cc:License></rdf:RDF></metadata><g style="display:inline" id="g4192" transform="translate(0 -10)"><path style="display:inline;opacity:.98999999;fill:#373737;fill-opacity:1;stroke:none;stroke-width:1.375;stroke-linecap:square;stroke-linejoin:miter;stroke-miterlimit:4;stroke-dasharray:none;stroke-dashoffset:1;stroke-opacity:1" d="M0 10v10h10V10zm6 2h2v2H6v4H2v-4h4z" id="path4200-9"/><path style="display:inline;opacity:.98999999;fill:#373737;fill-opacity:1;stroke:none;stroke-width:1.375;stroke-linecap:square;stroke-linejoin:miter;stroke-miterlimit:4;stroke-dasharray:none;stroke-dashoffset:1;stroke-opacity:1" d="M12 10v10h10V10zm6 2h2v2h-2v4h-4v-4h4z" id="path4200-9-3"/><path style="display:inline;opacity:.98999999;fill:#373737;fill-opacity:1;stroke:none;stroke-width:1.375;stroke-linecap:square;stroke-linejoin:miter;stroke-miterlimit:4;stroke-dasharray:none;stroke-dashoffset:1;stroke-opacity:1" d="M0 22v10h10V22zm6 2h2v2H6v4H2v-4h4z" id="path4200-9-6"/><path style="display:inline;opacity:.98999999;fill:#373737;fill-opacity:1;stroke:none;stroke-width:1.375;stroke-linecap:square;stroke-linejoin:miter;stroke-miterlimit:4;stroke-dasharray:none;stroke-dashoffset:1;stroke-opacity:1" d="M12 22v10h10V22zm6 2h2v2h-2v4h-4v-4h4z" id="path4200-9-3-7"/></g></svg>