<svg xmlns:dc="http://purl.org/dc/elements/1.1/" xmlns:cc="http://creativecommons.org/ns#" xmlns:rdf="http://www.w3.org/1999/02/22-rdf-syntax-ns#" xmlns="http://www.w3.org/2000/svg" xmlns:sodipodi="http://sodipodi.sourceforge.net/DTD/sodipodi-0.dtd" xmlns:inkscape="http://www.inkscape.org/namespaces/inkscape" viewBox="0 0 16 16" version="1.1" id="svg8" sodipodi:docname="dark_pathpoint-corner.svg" width="16" height="16" inkscape:version="0.92.1 r15371"><metadata id="metadata12"><rdf:RDF><cc:Work><dc:format>image/svg+xml</dc:format><dc:type rdf:resource="http://purl.org/dc/dcmitype/StillImage"/><dc:title/><dc:date>2017</dc:date><dc:creator><cc:Agent><dc:title>Timothée Giet</dc:title></cc:Agent></dc:creator><dc:description>Based on Breeze icons</dc:description><cc:license rdf:resource="http://creativecommons.org/licenses/by-sa/4.0/"/></cc:Work><cc:License rdf:about="http://creativecommons.org/licenses/by-sa/4.0/"><cc:permits rdf:resource="http://creativecommons.org/ns#Reproduction"/><cc:permits rdf:resource="http://creativecommons.org/ns#Distribution"/><cc:requires rdf:resource="http://creativecommons.org/ns#Notice"/><cc:requires rdf:resource="http://creativecommons.org/ns#Attribution"/><cc:permits rdf:resource="http://creativecommons.org/ns#DerivativeWorks"/><cc:requires rdf:resource="http://creativecommons.org/ns#ShareAlike"/></cc:License></rdf:RDF></metadata><sodipodi:namedview pagecolor="#ffffff" bordercolor="#666666" borderopacity="1" objecttolerance="10" gridtolerance="10" guidetolerance="10" inkscape:pageopacity="0" inkscape:pageshadow="2" inkscape:window-width="1884" inkscape:window-height="1051" id="namedview10" showgrid="true" inkscape:zoom="21.454545" inkscape:cx="-8.097273" inkscape:cy="-0.16058394" inkscape:window-x="0" inkscape:window-y="0" inkscape:window-maximized="1" inkscape:current-layer="g4506"><inkscape:grid type="xygrid" id="grid4489"/></sodipodi:namedview><g id="g4506" transform="translate(-3 -3.5)"><path id="path4493" d="M3.002 3.496 3 3.498v.996l.002.002C6 4.5 8 12.5 8 15.5l1-1c0-3-2-11-5.998-11.004zM9 4.5v3h1v1h1v-1h1v-3zm9-1c0 7-4 11-7 12v1c4-1 8-6 8-13zm-8 2h1v1h-1zm0 4v1h1v-1zm0 2v1h1v-1zm6 4v1h-1v1h1v1h3v-3zm-3 1v1h1v-1zm4 0h1v1h-1z" style="color:#373737;fill:currentColor;fill-opacity:1;stroke:none" inkscape:connector-curvature="0" sodipodi:nodetypes="ccccccccccccccccccccccccccccccccccccccccccccccccccccccc"/><path id="path4495" d="M7 13.5v5h5v-5zm2 2h1v1H9z" style="color:#3daee9;fill:currentColor;fill-opacity:1;stroke:none;stroke-width:1" inkscape:connector-curvature="0" sodipodi:nodetypes="cccccccccc"/></g></svg>