<svg xmlns:dc="http://purl.org/dc/elements/1.1/" xmlns:cc="http://creativecommons.org/ns#" xmlns:rdf="http://www.w3.org/1999/02/22-rdf-syntax-ns#" xmlns="http://www.w3.org/2000/svg" version="1.1" id="svg3760" height="24" width="24"><metadata id="metadata3765"><rdf:RDF><cc:Work><dc:format>image/svg+xml</dc:format><dc:type rdf:resource="http://purl.org/dc/dcmitype/StillImage"/><dc:title/></cc:Work></rdf:RDF></metadata><g transform="translate(-550.286 -606.648)" id="layer1"><path id="path6264" d="M561.306 615.15c.177.236.044.855-.295 1.253-.339.398-2.832 3.171-2.832 3.171l-.987-.987 2.876-2.936s.752-.751 1.238-.5z" style="fill:#373737;fill-opacity:1;stroke:none;stroke-width:.02714091px;stroke-linecap:butt;stroke-linejoin:miter;stroke-opacity:1"/><path id="path6266" d="M557.988 619.884s-.065.706-.354 1.105c-.31.427-1.046.339-1.473.427-.472.236-.501.457-.663.81-.162.354-.133.487-.368.737-.104-.147-.25-1.09-.28-1.517.014-.354.103-1.37.854-1.93.752-.56 1.15-.737 1.15-.737z" style="fill:#373737;fill-opacity:1;stroke:none;stroke-width:.02714091px;stroke-linecap:butt;stroke-linejoin:miter;stroke-opacity:1"/><rect y="613.83307" x="552.34125" height="10.066627" width="10.888916" id="rect4583-7" style="fill:none;fill-opacity:1;stroke:#373737;stroke-width:.84798068;stroke-miterlimit:4;stroke-dasharray:none;stroke-opacity:1"/><path transform="matrix(-2.57388 0 0 -2.43463 605.783 1278.49)" d="M15.676 272.073h-2.824l.706-1.222.706-1.223.706 1.223z" id="path6465-9-8" style="fill:#373737;fill-opacity:1;stroke:none;stroke-width:.47142518;stroke-miterlimit:4;stroke-dasharray:none;stroke-opacity:1"/></g></svg>