<?xml version="1.0" encoding="UTF-8" standalone="no"?>
<svg
   xmlns:dc="http://purl.org/dc/elements/1.1/"
   xmlns:cc="http://creativecommons.org/ns#"
   xmlns:rdf="http://www.w3.org/1999/02/22-rdf-syntax-ns#"
   xmlns:svg="http://www.w3.org/2000/svg"
   xmlns="http://www.w3.org/2000/svg"
   version="1.1"
   id="svg3760"
   height="24"
   width="24">
  <defs
     id="defs3762" />
  <metadata
     id="metadata3765">
    <rdf:RDF>
      <cc:Work
         rdf:about="">
        <dc:format>image/svg+xml</dc:format>
        <dc:type
           rdf:resource="http://purl.org/dc/dcmitype/StillImage" />
        <dc:title></dc:title>
      </cc:Work>
    </rdf:RDF>
  </metadata>
  <g
     transform="translate(-550.28572,-606.6479)"
     id="layer1">
    <path
       id="path6264"
       d="m 561.30594,615.15037 c 0.17681,0.23574 0.0442,0.85453 -0.29467,1.25234 -0.33888,0.3978 -2.8318,3.17174 -2.8318,3.17174 l -0.98714,-0.98714 2.87599,-2.93601 c 0,0 0.75141,-0.75142 1.23762,-0.50093 z"
       style="fill:#373737;fill-opacity:1;stroke:none;stroke-width:0.02714091px;stroke-linecap:butt;stroke-linejoin:miter;stroke-opacity:1" />
    <path
       id="path6266"
       d="m 557.98794,619.88386 c 0,0 -0.0648,0.70619 -0.35361,1.10503 -0.3094,0.42729 -1.04608,0.33887 -1.47335,0.42729 -0.47149,0.23574 -0.50095,0.45672 -0.66302,0.81034 -0.16208,0.3536 -0.1326,0.48621 -0.36834,0.73667 -0.10313,-0.14726 -0.25047,-1.09029 -0.27993,-1.51756 0.0148,-0.35361 0.10316,-1.37022 0.85455,-1.93008 0.75141,-0.55989 1.14921,-0.73671 1.14921,-0.73671 z"
       style="fill:#373737;fill-opacity:1;stroke:none;stroke-width:0.02714091px;stroke-linecap:butt;stroke-linejoin:miter;stroke-opacity:1" />
    <rect
       y="613.83307"
       x="552.34125"
       height="10.066627"
       width="10.888916"
       id="rect4583-7"
       style="fill:none;fill-opacity:1;stroke:#373737;stroke-width:0.84798068;stroke-miterlimit:4;stroke-dasharray:none;stroke-opacity:1" />
    <path
       transform="matrix(-2.5738825,0,0,-2.4346325,605.78275,1278.4894)"
       d="m 15.675568,272.07336 -1.411776,0 -1.411776,0 0.705888,-1.22263 0.705888,-1.22264 0.705888,1.22264 z"
       id="path6465-9-8"
       style="fill:#373737;fill-opacity:1;stroke:none;stroke-width:0.47142518;stroke-miterlimit:4;stroke-dasharray:none;stroke-opacity:1" />
  </g>
</svg>
