<?xml version="1.0" encoding="UTF-8" standalone="no"?>
<!-- Created with Inkscape (http://www.inkscape.org/) -->
<svg
   xmlns:dc="http://purl.org/dc/elements/1.1/"
   xmlns:cc="http://web.resource.org/cc/"
   xmlns:rdf="http://www.w3.org/1999/02/22-rdf-syntax-ns#"
   xmlns:svg="http://www.w3.org/2000/svg"
   xmlns="http://www.w3.org/2000/svg"
   xmlns:xlink="http://www.w3.org/1999/xlink"
   xmlns:sodipodi="http://inkscape.sourceforge.net/DTD/sodipodi-0.dtd"
   xmlns:inkscape="http://www.inkscape.org/namespaces/inkscape"
   inkscape:export-ydpi="33.000000"
   inkscape:export-xdpi="33.000000"
   inkscape:export-filename="/home/danny/work/kde/koffice/krita/krita/new/tool_wizard_selection.png"
   sodipodi:docname="tool_wizard_selection.svg"
   sodipodi:docbase="/home/danny/work/kde/koffice/krita/krita/new"
   inkscape:version="0.41"
   sodipodi:version="0.32"
   id="svg6667"
   height="48.000000pt"
   width="48.000000pt">
  <defs
     id="defs3">
    <linearGradient
       inkscape:collect="always"
       xlink:href="#XMLID_1_"
       id="linearGradient9044"
       gradientUnits="userSpaceOnUse"
       gradientTransform="matrix(0.128610,-6.386046e-2,6.003955e-2,0.117844,48.67348,0.239063)"
       x1="100.6055"
       y1="37.1133"
       x2="100.6055"
       y2="139.7401" />
    <linearGradient
       id="light100to0">
      <stop
         style="stop-color:#ffffff;stop-opacity:1.0000000;"
         offset="0.0000000"
         id="stop2764" />
      <stop
         style="stop-color:#ffffff;stop-opacity:0.0000000;"
         offset="1.0000000"
         id="stop2765" />
    </linearGradient>
    <linearGradient
       inkscape:collect="always"
       xlink:href="#light100to0"
       id="linearGradient9043"
       gradientUnits="userSpaceOnUse"
       gradientTransform="matrix(9.551850e-2,-3.628389e-2,3.912589e-2,0.105125,27.78007,9.907698)"
       x1="146.38470"
       y1="64.407753"
       x2="307.07626"
       y2="436.28043" />
    <linearGradient
       id="redtodarkred">
      <stop
         style="stop-color:#ff0000;stop-opacity:1.0000000;"
         offset="0.0000000"
         id="stop3856" />
      <stop
         style="stop-color:#920000;stop-opacity:1.0000000;"
         offset="1.0000000"
         id="stop3855" />
    </linearGradient>
    <linearGradient
       inkscape:collect="always"
       xlink:href="#redtodarkred"
       id="linearGradient9042"
       gradientUnits="userSpaceOnUse"
       gradientTransform="matrix(9.309382e-2,-3.536275e-2,3.639664e-2,9.779137e-2,28.36097,10.40549)"
       x1="-110.52393"
       y1="27.161866"
       x2="439.44683"
       y2="461.30772" />
    <linearGradient
       id="orangelesstoyelow">
      <stop
         style="stop-color:#ff7d00;stop-opacity:1.0000000;"
         offset="0.0000000"
         id="stop2689" />
      <stop
         style="stop-color:#ffbe00;stop-opacity:1.0000000;"
         offset="0.25358382"
         id="stop2690" />
      <stop
         style="stop-color:#ffff00;stop-opacity:1.0000000;"
         offset="1.0000000"
         id="stop2691" />
    </linearGradient>
    <radialGradient
       inkscape:collect="always"
       xlink:href="#orangelesstoyelow"
       id="radialGradient9041"
       gradientUnits="userSpaceOnUse"
       gradientTransform="matrix(9.250725e-2,-3.513989e-2,3.662747e-2,9.841177e-2,28.36097,10.40549)"
       spreadMethod="reflect"
       cx="186.75356"
       cy="103.61057"
       fx="189.43584"
       fy="25.390987"
       r="117.68623" />
    <linearGradient
       id="XMLID_1_"
       gradientUnits="userSpaceOnUse"
       x1="100.6055"
       y1="37.1133"
       x2="100.6055"
       y2="139.7401">
      <stop
         offset="0"
         style="stop-color:#FFA700"
         id="stop9" />
      <stop
         offset="0.691"
         style="stop-color:#FFFF00"
         id="stop11" />
      <stop
         offset="0.792"
         style="stop-color:#FFFC00"
         id="stop13" />
      <stop
         offset="0.8546"
         style="stop-color:#FFF400"
         id="stop15" />
      <stop
         offset="0.9067"
         style="stop-color:#FFE500"
         id="stop17" />
      <stop
         offset="0.953"
         style="stop-color:#FFD100"
         id="stop19" />
      <stop
         offset="0.9952"
         style="stop-color:#FFB700"
         id="stop21" />
      <stop
         offset="1"
         style="stop-color:#FFB300"
         id="stop23" />
      <midPointStop
         offset="0"
         style="stop-color:#FFA700"
         id="midPointStop25" />
      <midPointStop
         offset="0.5"
         style="stop-color:#FFA700"
         id="midPointStop27" />
      <midPointStop
         offset="0.691"
         style="stop-color:#FFFF00"
         id="midPointStop29" />
      <midPointStop
         offset="0.7952"
         style="stop-color:#FFFF00"
         id="midPointStop31" />
      <midPointStop
         offset="1"
         style="stop-color:#FFB300"
         id="midPointStop33" />
    </linearGradient>
    <linearGradient
       inkscape:collect="always"
       xlink:href="#XMLID_1_"
       id="linearGradient9040"
       gradientUnits="userSpaceOnUse"
       gradientTransform="matrix(0.380689,-0.189029,0.183421,0.360017,48.02610,-0.411723)"
       x1="100.6055"
       y1="37.1133"
       x2="100.6055"
       y2="139.7401" />
    <linearGradient
       id="light75to0">
      <stop
         style="stop-color:#ffffff;stop-opacity:0.72916669;"
         offset="0.0000000"
         id="stop2769" />
      <stop
         style="stop-color:#ffffff;stop-opacity:0.0000000;"
         offset="1.0000000"
         id="stop2770" />
    </linearGradient>
    <linearGradient
       inkscape:collect="always"
       xlink:href="#light75to0"
       id="linearGradient9039"
       gradientUnits="userSpaceOnUse"
       gradientTransform="matrix(1.104176,4.685122e-16,3.725078e-17,0.490191,43.76188,12.01201)"
       x1="5.6831765"
       y1="21.673885"
       x2="14.964557"
       y2="41.796101" />
    <linearGradient
       inkscape:collect="always"
       xlink:href="#light100to25to0"
       id="linearGradient9038"
       gradientUnits="userSpaceOnUse"
       gradientTransform="matrix(0.583981,-5.632389e-2,0.240585,1.738144,24.49778,48.99001)"
       x1="117.48062"
       y1="0.76412511"
       x2="122.96590"
       y2="-4.4011321" />
    <linearGradient
       id="light100to25to0">
      <stop
         style="stop-color:#ffffff;stop-opacity:1.0000000;"
         offset="0.0000000"
         id="stop2785" />
      <stop
         style="stop-color:#ffffff;stop-opacity:0.28749999;"
         offset="0.50000000"
         id="stop2786" />
      <stop
         style="stop-color:#ffffff;stop-opacity:0.0000000;"
         offset="1.0000000"
         id="stop2787" />
    </linearGradient>
    <radialGradient
       inkscape:collect="always"
       xlink:href="#light100to25to0"
       id="radialGradient9037"
       gradientUnits="userSpaceOnUse"
       gradientTransform="matrix(0.407853,-0.182096,0.912747,2.044345,1.983478e-13,8.446378e-14)"
       cx="151.53014"
       cy="30.823576"
       fx="151.53014"
       fy="30.823576"
       r="35.001339" />
    <linearGradient
       id="light90to0">
      <stop
         id="stop1890"
         offset="0.0000000"
         style="stop-color:#ffffff;stop-opacity:0.90833336;" />
      <stop
         id="stop1892"
         offset="1.0000000"
         style="stop-color:#ffffff;stop-opacity:0.0000000;" />
    </linearGradient>
    <linearGradient
       gradientUnits="userSpaceOnUse"
       y2="36.873619"
       x2="39.857029"
       y1="4.5492039"
       x1="10.878086"
       gradientTransform="matrix(0.996235,0.000000,0.000000,1.003779,-3.391159,1.000000)"
       id="linearGradient9512"
       xlink:href="#light90to0"
       inkscape:collect="always" />
    <radialGradient
       gradientUnits="userSpaceOnUse"
       r="31.677956"
       fy="46.914463"
       fx="48.488476"
       cy="46.914463"
       cx="48.488476"
       gradientTransform="matrix(0.983903,0.000000,0.000000,1.016360,-4.000000,0.000000)"
       id="radialGradient10280"
       xlink:href="#light90to0"
       inkscape:collect="always" />
    <linearGradient
       y2="36.873619"
       x2="39.857029"
       y1="4.5492039"
       x1="10.878086"
       gradientTransform="matrix(0.996235,0.000000,0.000000,1.003779,-3.391159,1.000000)"
       gradientUnits="userSpaceOnUse"
       id="linearGradient1404"
       xlink:href="#light90to0"
       inkscape:collect="always" />
    <radialGradient
       r="31.677956"
       fy="46.914463"
       fx="48.488476"
       cy="46.914463"
       cx="48.488476"
       gradientTransform="matrix(0.983903,0.000000,0.000000,1.016360,-4.000000,1.604619e-16)"
       gradientUnits="userSpaceOnUse"
       id="radialGradient1406"
       xlink:href="#light90to0"
       inkscape:collect="always" />
    <linearGradient
       y2="36.873619"
       x2="39.857029"
       y1="4.5492039"
       x1="10.878086"
       gradientTransform="matrix(0.996235,0.000000,0.000000,1.003779,-3.391159,1.000000)"
       gradientUnits="userSpaceOnUse"
       id="linearGradient1449"
       xlink:href="#light90to0"
       inkscape:collect="always" />
    <radialGradient
       r="31.677956"
       fy="46.914463"
       fx="48.488476"
       cy="46.914463"
       cx="48.488476"
       gradientTransform="matrix(0.983903,0.000000,0.000000,1.016360,-4.000000,1.906434e-16)"
       gradientUnits="userSpaceOnUse"
       id="radialGradient1451"
       xlink:href="#light90to0"
       inkscape:collect="always" />
    <linearGradient
       y2="139.7401"
       x2="100.6055"
       y1="37.1133"
       x1="100.6055"
       gradientTransform="matrix(8.790206e-2,-4.397320e-2,4.402614e-2,8.551897e-2,-2.824205,4.263489)"
       gradientUnits="userSpaceOnUse"
       id="linearGradient1373"
       xlink:href="#XMLID_1_"
       inkscape:collect="always" />
    <linearGradient
       y2="436.28043"
       x2="307.07626"
       y1="64.407753"
       x1="146.38470"
       gradientTransform="matrix(6.995425e-2,-3.554481e-2,3.628411e-2,7.145929e-2,3.352522,14.57430)"
       gradientUnits="userSpaceOnUse"
       id="linearGradient1376"
       xlink:href="#light100to0"
       inkscape:collect="always" />
    <radialGradient
       r="117.68623"
       fy="25.390987"
       fx="189.43584"
       cy="103.61057"
       cx="186.75356"
       spreadMethod="reflect"
       gradientTransform="matrix(6.774892e-2,-3.442414e-2,3.396713e-2,6.689590e-2,3.823630,14.87319)"
       gradientUnits="userSpaceOnUse"
       id="radialGradient1379"
       xlink:href="#orangelesstoyelow"
       inkscape:collect="always" />
    <linearGradient
       y2="461.30772"
       x2="439.44683"
       y1="27.161866"
       x1="-110.52393"
       gradientTransform="matrix(6.817850e-2,-3.464245e-2,3.375305e-2,6.647417e-2,3.823630,14.87319)"
       gradientUnits="userSpaceOnUse"
       id="linearGradient1381"
       xlink:href="#redtodarkred"
       inkscape:collect="always" />
    <linearGradient
       y2="139.7401"
       x2="100.6055"
       y1="37.1133"
       x1="100.6055"
       gradientTransform="matrix(0.260192,-0.130162,0.134500,0.261263,-3.286365,3.786571)"
       gradientUnits="userSpaceOnUse"
       id="linearGradient1384"
       xlink:href="#XMLID_1_"
       inkscape:collect="always" />
    <linearGradient
       y2="41.796101"
       x2="14.964557"
       y1="21.673885"
       x1="5.6831765"
       gradientTransform="matrix(0.835329,-0.110198,3.117020e-2,0.351418,15.57686,14.48787)"
       gradientUnits="userSpaceOnUse"
       id="linearGradient1387"
       xlink:href="#light75to0"
       inkscape:collect="always" />
    <linearGradient
       y2="-4.4011321"
       x2="122.96590"
       y1="0.76412511"
       x1="117.48062"
       gradientTransform="matrix(0.403870,-3.186289e-2,0.202056,1.251879,-18.60353,38.92099)"
       gradientUnits="userSpaceOnUse"
       id="linearGradient1390"
       xlink:href="#light100to25to0"
       inkscape:collect="always" />
    <radialGradient
       r="35.001339"
       fy="30.823576"
       fx="151.53014"
       cy="30.823576"
       cx="151.53014"
       gradientTransform="matrix(0.201201,-0.119627,0.661230,1.141715,-7.922129,37.75689)"
       gradientUnits="userSpaceOnUse"
       id="radialGradient1393"
       xlink:href="#light100to25to0"
       inkscape:collect="always" />
  </defs>
  <sodipodi:namedview
     inkscape:window-y="0"
     inkscape:window-x="0"
     inkscape:window-height="691"
     inkscape:window-width="1020"
     inkscape:grid-bbox="true"
     inkscape:document-units="px"
     showgrid="false"
     inkscape:current-layer="layer1"
     inkscape:cy="40.238957"
     inkscape:cx="53.244913"
     inkscape:zoom="5.2023930"
     inkscape:pageshadow="2"
     inkscape:pageopacity="0.0"
     borderopacity="1.0"
     bordercolor="#666666"
     pagecolor="#ffffff"
     id="base" />
  <metadata
     id="metadata4">
    <rdf:RDF
       id="RDF5">
      <cc:Work
         id="Work6"
         rdf:about="">
        <dc:format
           id="format7">image/svg+xml</dc:format>
        <dc:type
           rdf:resource="http://purl.org/dc/dcmitype/StillImage"
           id="type9" />
      </cc:Work>
    </rdf:RDF>
  </metadata>
  <g
     inkscape:groupmode="layer"
     inkscape:label="Layer 1"
     id="layer1">
    <g
       transform="matrix(0.941176,0.000000,0.000000,0.941176,-2.108238e-7,9.521171e-2)"
       id="g1358">
      <path
         id="rect7971"
         d="M 6.6868090,2.0000000 L 45.313191,2.0000000 C 47.355683,2.0000000 49.000000,4.1431522 49.000000,6.8052740 L 49.000000,44.712155 C 49.000000,47.374277 47.355683,49.517429 45.313191,49.517429 L 6.6868090,49.517429 C 4.6443169,49.517429 3.0000000,47.374277 3.0000000,44.712155 L 3.0000000,6.8052740 C 3.0000000,4.1431522 4.6443169,2.0000000 6.6868090,2.0000000 z "
         style="opacity:0.79446638;fill:#0028c6;fill-opacity:0.18099548;stroke:#000000;stroke-width:0.0000000;stroke-linecap:round;stroke-linejoin:round;stroke-miterlimit:4.0000000;stroke-dashoffset:0.0000000;stroke-opacity:0.035294119" />
      <path
         sodipodi:nodetypes="ccccc"
         id="path8746"
         d="M 7.2956500,3.0000000 L 45.922032,3.0000000 C 47.580086,28.372939 22.446326,14.159253 3.6088410,45.712155 L 3.6088410,7.8052740 C 3.6088410,5.1431522 5.2531579,3.0000000 7.2956500,3.0000000 z "
         style="opacity:0.79446638;fill:url(#linearGradient1449);fill-opacity:1.0000000;stroke:#000000;stroke-width:0.0000000;stroke-linecap:round;stroke-linejoin:round;stroke-miterlimit:4.0000000;stroke-dashoffset:0.0000000;stroke-opacity:0.035294119" />
      <path
         id="path9514"
         d="M 6.6868090,2.0000000 L 45.313191,2.0000000 C 47.355683,2.0000000 49.000000,4.1431522 49.000000,6.8052740 L 49.000000,44.712155 C 49.000000,47.374277 47.355683,49.517429 45.313191,49.517429 L 6.6868090,49.517429 C 4.6443169,49.517429 3.0000000,47.374277 3.0000000,44.712155 L 3.0000000,6.8052740 C 3.0000000,4.1431522 4.6443169,2.0000000 6.6868090,2.0000000 z "
         style="opacity:0.97233200;fill:url(#radialGradient1451);fill-opacity:1.0000000;stroke:#000000;stroke-width:0.0000000;stroke-linecap:round;stroke-linejoin:round;stroke-miterlimit:4.0000000;stroke-dashoffset:0.0000000;stroke-opacity:0.035294119" />
      <path
         id="path7697"
         d="M 2.3413308,-0.10033597 C 1.7243134,-0.11705871 1.1269695,0.12078821 0.68574630,0.55887571 C 0.24452389,0.99696321 -0.0028881323,1.5978693 2.5672780e-05,2.2243331 L 2.5672780e-05,9.5857851 C 2.5672780e-05,10.869665 1.0254758,11.910454 2.2904329,11.910454 C 3.5553899,11.910454 4.5808400,10.869665 4.5808400,9.5857851 L 4.5808400,4.5748318 L 6.3113699,4.6006615 C 7.1481858,4.6570677 7.9479789,4.2427377 8.3938888,3.5218208 C 8.8397979,2.8009047 8.8598590,1.8897494 8.4461231,1.1493350 C 8.0323880,0.40892154 7.2516291,-0.041256724 6.4131658,-0.022846998 L 2.3413308,-0.10033597 z "
         style="fill:#373745;fill-opacity:1.0000000;fill-rule:evenodd;stroke:none;stroke-width:5.5999999;stroke-linecap:round;stroke-linejoin:round;stroke-miterlimit:4.0000000;stroke-opacity:1.0000000" />
      <path
         sodipodi:nodetypes="cccccccc"
         id="path7695"
         d="M 33.797503,-0.10101597 C 32.684762,-0.11528138 31.772684,0.91394405 31.760321,2.1978234 C 31.747957,3.4817028 32.639989,4.5340567 33.752730,4.5483222 L 42.282032,4.6774704 C 43.020428,4.7279751 43.722998,4.3055424 44.110120,3.5783008 C 44.497241,2.8510583 44.506093,1.9370257 44.133151,1.1999854 C 43.760208,0.46294586 43.065994,0.022505996 42.326806,0.053961971 L 33.797503,-0.10101597 z "
         style="fill:#373745;fill-opacity:1.0000000;fill-rule:evenodd;stroke:none;stroke-width:5.5999999;stroke-linecap:round;stroke-linejoin:round;stroke-miterlimit:4.0000000;stroke-opacity:1.0000000" />
      <path
         sodipodi:nodetypes="cccccccccc"
         id="path1937"
         d="M 48.683903,5.1664985 C 48.075596,5.1701420 47.494125,5.3917163 47.068783,5.7819534 C 46.643441,6.1721898 46.409488,6.6987401 46.418945,7.2445210 L 46.418945,15.944813 C 46.418945,17.079862 47.444395,18.000000 48.709352,18.000000 C 49.974309,18.000000 50.999759,17.079862 50.999759,15.944813 L 50.999759,7.2445210 C 51.009416,6.6907845 50.768526,6.1571820 50.332108,5.7655828 C 49.895690,5.3739844 49.301016,5.1578335 48.683903,5.1664985 L 48.683903,5.1664985 z "
         style="fill:#373745;fill-opacity:1.0000000;fill-rule:evenodd;stroke:none;stroke-width:5.5999999;stroke-linecap:round;stroke-linejoin:round;stroke-miterlimit:4.0000000;stroke-opacity:1.0000000" />
      <path
         id="path7691"
         d="M 48.683903,39.470697 C 48.075596,39.474819 47.494125,39.725446 47.068783,40.166853 C 46.643441,40.608258 46.409488,41.203851 46.418945,41.821196 L 46.418945,46.935468 L 44.637517,46.935468 C 43.372560,46.935468 42.347110,47.976258 42.347110,49.260137 C 42.347110,50.544017 43.372560,51.584806 44.637517,51.584806 L 48.709352,51.584806 C 49.317617,51.587507 49.901738,51.343454 50.331851,50.906907 C 50.761964,50.470360 51.002420,49.877501 50.999759,49.260137 L 50.999759,41.821196 C 51.009416,41.194852 50.768526,40.591282 50.332108,40.148335 C 49.895690,39.705389 49.301016,39.460896 48.683903,39.470697 z "
         style="fill:#373745;fill-opacity:1.0000000;fill-rule:evenodd;stroke:none;stroke-width:5.5999999;stroke-linecap:round;stroke-linejoin:round;stroke-miterlimit:4.0000000;stroke-opacity:1.0000000" />
      <path
         sodipodi:nodetypes="cccccccc"
         id="path7735"
         d="M 15.184676,-0.10101597 C 14.050324,-0.11528138 13.120533,0.91394405 13.107929,2.1978234 C 13.095325,3.4817028 14.004681,4.5340567 15.139033,4.5483222 L 23.833983,4.6774704 C 24.586719,4.7279751 25.302933,4.3055424 25.697574,3.5783008 C 26.092213,2.8510583 26.101237,1.9370257 25.721052,1.1999854 C 25.340867,0.46294586 24.633170,0.022505996 23.879626,0.053961971 L 15.184676,-0.10101597 z "
         style="fill:#373745;fill-opacity:1.0000000;fill-rule:evenodd;stroke:none;stroke-width:5.5999999;stroke-linecap:round;stroke-linejoin:round;stroke-miterlimit:4.0000000;stroke-opacity:1.0000000" />
      <path
         sodipodi:nodetypes="cccccccc"
         id="path7745"
         d="M 28.517292,46.802270 C 27.438377,46.788005 26.554025,47.817230 26.542037,49.101109 C 26.530049,50.384989 27.394965,51.437343 28.473880,51.451608 L 36.743904,51.580756 C 37.459853,51.631261 38.141066,51.208828 38.516420,50.481587 C 38.891774,49.754344 38.900356,48.840312 38.538751,48.103271 C 38.177146,47.366232 37.504036,46.925792 36.787316,46.957248 L 28.517292,46.802270 z "
         style="fill:#373745;fill-opacity:1.0000000;fill-rule:evenodd;stroke:none;stroke-width:5.5999999;stroke-linecap:round;stroke-linejoin:round;stroke-miterlimit:4.0000000;stroke-opacity:1.0000000" />
      <path
         sodipodi:nodetypes="cccccccc"
         id="path7751"
         d="M 9.4643444,46.802270 C 8.3516032,46.788005 7.4395259,47.817230 7.4271620,49.101109 C 7.4147981,50.384989 8.3068300,51.437343 9.4195712,51.451608 L 17.948874,51.580756 C 18.687269,51.631261 19.389839,51.208828 19.776961,50.481587 C 20.164083,49.754344 20.172934,48.840312 19.799992,48.103271 C 19.427050,47.366232 18.732836,46.925792 17.993647,46.957248 L 9.4643444,46.802270 z "
         style="fill:#373745;fill-opacity:1.0000000;fill-rule:evenodd;stroke:none;stroke-width:5.5999999;stroke-linecap:round;stroke-linejoin:round;stroke-miterlimit:4.0000000;stroke-opacity:1.0000000" />
      <path
         sodipodi:nodetypes="cccccccccc"
         id="path7765"
         d="M 48.599208,22.524021 C 47.990901,22.527564 47.409430,22.742965 46.984088,23.122330 C 46.558746,23.501696 46.324793,24.013577 46.334250,24.544153 L 46.334250,33.002068 C 46.334250,34.105496 47.359700,35.000000 48.624657,35.000000 C 49.889614,35.000000 50.915064,34.105496 50.915064,33.002068 L 50.915064,24.544153 C 50.924721,24.005843 50.683831,23.487106 50.247413,23.106416 C 49.810995,22.725727 49.216321,22.515598 48.599208,22.524021 L 48.599208,22.524021 z "
         style="fill:#373745;fill-opacity:1.0000000;fill-rule:evenodd;stroke:none;stroke-width:5.5999999;stroke-linecap:round;stroke-linejoin:round;stroke-miterlimit:4.0000000;stroke-opacity:1.0000000" />
      <path
         sodipodi:nodetypes="cccccccccc"
         id="path7775"
         d="M 2.3431621,16.481655 C 1.7348552,16.485286 1.1533842,16.706045 0.72804192,17.094848 C 0.30270048,17.483650 0.068747498,18.008265 0.078203928,18.552040 L 0.078203928,27.220351 C 0.078203928,28.351227 1.1036540,29.267983 2.3686111,29.267983 C 3.6335682,29.267983 4.6590183,28.351227 4.6590183,27.220351 L 4.6590183,18.552040 C 4.6686751,18.000339 4.4277853,17.468697 3.9913677,17.078538 C 3.5549492,16.688378 2.9602748,16.473022 2.3431621,16.481655 L 2.3431621,16.481655 z "
         style="fill:#373745;fill-opacity:1.0000000;fill-rule:evenodd;stroke:none;stroke-width:5.5999999;stroke-linecap:round;stroke-linejoin:round;stroke-miterlimit:4.0000000;stroke-opacity:1.0000000" />
      <path
         sodipodi:nodetypes="cccccccccc"
         id="path7781"
         d="M 2.3431621,34.000245 C 1.7348552,34.003807 1.1533842,34.220407 0.72804192,34.601883 C 0.30270048,34.983359 0.068747498,35.498088 0.078203928,36.031617 L 0.078203928,44.536593 C 0.078203928,45.646160 1.1036540,46.545642 2.3686111,46.545642 C 3.6335682,46.545642 4.6590183,45.646160 4.6590183,44.536593 L 4.6590183,36.031617 C 4.6686751,35.490312 4.4277853,34.968689 3.9913677,34.585880 C 3.5549492,34.203073 2.9602748,33.991775 2.3431621,34.000245 L 2.3431621,34.000245 z "
         style="fill:#373745;fill-opacity:1.0000000;fill-rule:evenodd;stroke:none;stroke-width:5.5999999;stroke-linecap:round;stroke-linejoin:round;stroke-miterlimit:4.0000000;stroke-opacity:1.0000000" />
    </g>
    <path
       style="fill:#000000;fill-opacity:0.099999972;stroke:none;stroke-width:0.33090088;stroke-linejoin:round;stroke-miterlimit:4.0000000;stroke-opacity:0.087499984"
       d="M 19.770415,11.024909 C 19.561128,10.997207 19.391399,11.056114 19.284455,11.107716 C 19.071092,11.210398 18.715753,11.499811 18.794420,12.256896 L 19.624571,20.281379 C 19.672502,20.749846 19.352346,21.378414 18.933107,21.606723 L 11.743247,25.528342 C 11.065081,25.893369 11.029459,26.321480 11.064561,26.552818 C 11.099661,26.784156 11.281328,27.209844 12.045352,27.377071 L 20.113993,29.136165 C 20.583179,29.241308 21.078362,29.730905 21.174609,30.192972 L 22.804423,38.111962 C 22.960066,38.857873 23.386329,39.048703 23.621155,39.088751 C 23.857038,39.128275 24.314660,39.095452 24.708119,38.440487 L 28.867416,31.496778 C 28.893923,31.452356 28.960644,31.428054 28.995753,31.386352 L 43.390312,58.848475 C 43.697878,59.464920 43.878866,60.003335 44.620722,59.637851 L 46.188738,58.851331 C 46.930592,58.485845 46.784547,57.800927 46.476994,57.184481 L 33.319044,31.047300 L 38.425552,31.806551 C 39.199917,31.899431 39.500185,31.576778 39.610207,31.369785 C 39.720205,31.162795 39.826341,30.727037 39.305330,30.157182 L 33.795234,24.096404 C 33.480234,23.749095 33.370395,23.048514 33.566558,22.630664 L 37.002237,15.314945 C 37.325244,14.625609 37.099366,14.239161 36.931407,14.071466 C 36.763436,13.903771 36.373953,13.676775 35.660201,13.977382 L 28.091063,17.182384 C 27.658563,17.365527 26.958599,17.245528 26.608424,16.929204 L 20.516822,11.431310 C 20.229224,11.172716 19.979703,11.052609 19.770415,11.024909 z "
       id="path1816"
       sodipodi:nodetypes="cccccccccccccccccccccccccccccccc" />
    <path
       style="fill:#000000;fill-opacity:1.0000000;stroke:none;stroke-width:0.96249998;stroke-linecap:round;stroke-linejoin:round;stroke-miterlimit:4.0000000;stroke-dashoffset:0.0000000;stroke-opacity:0.036734644"
       d="M 25.409871,27.199595 L 26.710269,26.559408 C 27.323811,26.257360 28.065242,26.510520 28.372670,27.127031 L 43.555453,57.574332 C 43.862881,58.190843 43.616442,58.930332 43.002900,59.232379 L 41.702502,59.872567 C 41.088960,60.174614 40.347529,59.921454 40.040102,59.304943 L 24.857318,28.857643 C 24.549890,28.241132 24.796329,27.501642 25.409871,27.199595 z "
       id="rect1353" />
    <path
       style="fill:url(#radialGradient1393);fill-opacity:1.0000000;stroke:none;stroke-width:0.96249998;stroke-linecap:round;stroke-linejoin:round;stroke-miterlimit:4.0000000;stroke-dashoffset:0.0000000;stroke-opacity:0.036734644"
       d="M 27.252217,29.777477 L 28.432129,29.220788 C 28.988824,28.958136 29.090847,29.420106 29.360192,29.978505 L 42.955341,57.249489 C 43.224685,57.807887 43.224533,58.591688 42.667838,58.854341 L 41.565195,59.330294 C 41.008499,59.592946 40.799202,59.364519 40.529858,58.806121 L 26.733534,31.259516 C 26.464189,30.701118 26.695521,30.040128 27.252217,29.777477 z "
       id="path1976"
       sodipodi:nodetypes="ccccccccc" />
    <path
       style="fill:url(#linearGradient1390);fill-opacity:1.0000000;fill-rule:evenodd;stroke:none;stroke-width:0.25354896pt;stroke-linecap:butt;stroke-linejoin:miter;stroke-opacity:1.0000000"
       d="M 26.330588,27.379839 C 30.585925,35.949947 33.739728,39.855137 36.812184,48.796989 C 38.295118,53.112818 38.193352,53.685926 37.688485,53.934234 C 32.698812,44.092228 30.351938,39.140553 25.362246,29.298549 C 25.801171,28.740048 25.891661,27.938339 26.330588,27.379839 z "
       id="path2607"
       sodipodi:nodetypes="csccc" />
    <path
       style="fill:url(#linearGradient1387);fill-opacity:1.0000000;fill-rule:evenodd;stroke:none;stroke-width:0.012500000;stroke-linecap:butt;stroke-linejoin:miter;stroke-miterlimit:4.0000000;stroke-opacity:1.0000000"
       d="M 20.292236,24.075916 C 20.264618,23.750266 20.237001,23.424615 20.209385,23.098970 C 20.181768,22.773320 20.154150,22.447669 20.126539,22.122018 C 20.088547,21.769091 20.174446,21.539593 20.464608,21.479298 C 21.432911,21.348218 22.401210,21.217146 23.369514,21.086072 C 24.337818,20.954999 25.306116,20.823927 26.274420,20.692847 C 26.324223,21.746403 22.161643,22.077620 21.589047,22.215517 C 20.538787,22.468448 21.430948,23.538228 20.292236,24.075916 z "
       id="path6094" />
    <path
       d="M 39.309010,22.438932 C 39.245912,22.576947 39.124945,22.755737 38.896990,22.877331 C 39.125476,22.756130 39.251155,22.587136 39.318425,22.457220 C 39.424263,22.254129 39.520255,21.874932 39.249870,21.375770 C 39.478304,21.871609 39.400465,22.237778 39.309010,22.438932 z "
       id="path1106"
       style="fill:url(#linearGradient1384)" />
    <path
       d="M 33.915348,12.342642 C 33.755366,12.177118 33.385641,11.942832 32.708822,12.235058 L 25.541969,15.348046 C 25.131853,15.526093 24.455727,15.404816 24.122282,15.092445 L 18.326147,9.6603612 C 17.778460,9.1496241 17.358490,9.2421815 17.155710,9.3426463 C 16.953427,9.4426008 16.626193,9.7227657 16.703138,10.467038 L 17.517710,18.366307 C 17.564613,18.826841 17.256921,19.427701 16.859531,19.650187 L 10.045902,23.472732 C 9.4030680,23.828416 9.3640940,24.262914 9.3981080,24.490385 C 9.4321240,24.717856 9.5981350,25.124298 10.324072,25.291994 L 17.991716,27.061047 C 18.437522,27.166436 18.913159,27.657994 19.005918,28.112453 L 20.586631,35.900870 C 20.736631,36.634501 21.133734,36.810914 21.356822,36.851304 C 21.580912,36.891183 22.011454,36.862668 22.383101,36.220828 L 26.309286,29.418465 C 26.538670,29.019622 27.139569,28.720467 27.595818,28.777869 L 35.387589,29.775816 C 36.123122,29.870505 36.406713,29.544130 36.510553,29.341224 C 36.614392,29.138318 36.713681,28.713795 36.217286,28.151543 L 30.974365,22.175354 C 30.674230,21.832690 30.569428,21.147823 30.754436,20.738104 L 33.992148,13.562100 C 34.296788,12.886176 34.075330,12.508164 33.915348,12.342642 z "
       id="path1107"
       style="stroke-dasharray:none;stroke-opacity:0.41874996;stroke-miterlimit:4.0000000;stroke-linejoin:round;stroke-width:1.5000000;stroke:url(#linearGradient1381);fill:url(#radialGradient1379)"
       sodipodi:nodetypes="cccccccccccccccccccccccccc" />
    <path
       d="M 30.009066,19.909439 L 31.929969,15.170480 C 32.160962,14.600491 31.969783,14.271168 31.834692,14.125242 C 31.699984,13.979123 31.391896,13.768980 30.846596,14.001222 L 25.075942,16.474089 C 24.745601,16.615786 24.190578,16.493754 23.909973,16.217609 L 19.031798,11.416501 C 18.571322,10.964876 18.230560,11.033141 18.067775,11.113453 C 17.905181,11.193668 17.645369,11.424692 17.728022,12.063223 L 18.602832,18.842991 C 18.653409,19.238153 18.418213,19.744092 18.099381,19.923710 L 12.636143,23.012974 C 12.120603,23.300012 12.100164,23.670678 12.134172,23.866364 C 12.168072,24.061838 12.314228,24.414038 12.911665,24.576700 L 19.220626,26.294041 C 19.587478,26.395862 19.989122,26.829342 20.076900,27.220547 L 20.125012,27.434953 C 20.751305,27.179172 21.375978,26.897793 21.995924,26.582790 C 25.381182,24.862688 28.120387,22.504242 30.009066,19.909439 z "
       id="path1108"
       style="fill:url(#linearGradient1376)" />
    <path
       d="M 39.570146,22.363828 C 39.505964,22.502489 39.383264,22.682264 39.152883,22.805077 C 39.383802,22.682656 39.511214,22.512687 39.579569,22.382135 C 39.687097,22.178044 39.785390,21.797367 39.514632,21.297758 C 39.743089,21.794192 39.663161,22.161736 39.570146,22.363828 z "
       id="path1109"
       style="fill:url(#linearGradient1373)" />
    <path
       d="M 26.933664,27.470377 C 26.460535,27.388576 25.853245,27.690715 25.633041,28.116575 L 22.280404,36.201160 C 21.923578,36.886622 21.480525,36.900200 21.247809,36.847049 C 21.082151,36.808981 20.822270,36.686765 20.619595,36.326770 C 20.805685,36.728906 21.087626,36.847376 21.263807,36.878554 C 21.489661,36.917691 21.923993,36.887440 22.301282,36.242279 L 26.287135,29.404770 C 26.520011,29.003867 27.127198,28.701524 27.587135,28.757345 L 35.441719,29.728330 C 35.812045,29.774352 36.069408,29.715383 36.247170,29.619140 C 36.069616,29.715792 35.809033,29.768420 35.428112,29.701529 L 26.933664,27.470377 z "
       id="path1110"
       style="opacity:0.29999998;fill:#e89500" />
  </g>
</svg>
