<?xml version="1.0" encoding="UTF-8" standalone="no"?>
<!-- Created with Inkscape (http://www.inkscape.org/) -->

<svg
   xmlns:dc="http://purl.org/dc/elements/1.1/"
   xmlns:cc="http://creativecommons.org/ns#"
   xmlns:rdf="http://www.w3.org/1999/02/22-rdf-syntax-ns#"
   xmlns:svg="http://www.w3.org/2000/svg"
   xmlns="http://www.w3.org/2000/svg"
   xmlns:sodipodi="http://sodipodi.sourceforge.net/DTD/sodipodi-0.dtd"
   xmlns:inkscape="http://www.inkscape.org/namespaces/inkscape"
   width="1000"
   height="1000"
   viewBox="0 0 1000 1000"
   id="svg2"
   version="1.1"
   inkscape:version="0.91 r13725"
   sodipodi:docname="bristles_circle_variable.svg">
  <defs
     id="defs4" />
  <sodipodi:namedview
     id="base"
     pagecolor="#ffffff"
     bordercolor="#666666"
     borderopacity="1.0"
     inkscape:pageopacity="0.0"
     inkscape:pageshadow="2"
     inkscape:zoom="0.35"
     inkscape:cx="6.0738625"
     inkscape:cy="515.71429"
     inkscape:document-units="px"
     inkscape:current-layer="layer1"
     showgrid="false"
     units="px"
     inkscape:window-width="1600"
     inkscape:window-height="871"
     inkscape:window-x="0"
     inkscape:window-y="0"
     inkscape:window-maximized="1" />
  <metadata
     id="metadata7">
    <rdf:RDF>
      <cc:Work
         rdf:about="">
        <dc:format>image/svg+xml</dc:format>
        <dc:type
           rdf:resource="http://purl.org/dc/dcmitype/StillImage" />
        <dc:title></dc:title>
      </cc:Work>
    </rdf:RDF>
  </metadata>
  <g
     inkscape:label="Layer 1"
     inkscape:groupmode="layer"
     id="layer1"
     transform="translate(0,-52.362161)">
    <path
       style="fill:#000000"
       d="m 520.23907,1016.3028 c -16.29932,-23.27066 -2.70743,-49.12523 25.82548,-49.12523 27.28965,0 42.10222,37.21293 20.76223,52.16003 -15.14939,10.6111 -38.07584,9.1176 -46.58771,-3.0348 z M 672.678,927.54927 c -17.76107,-6.34765 -24.01711,-31.42415 -11.06975,-44.37153 10.63171,-10.63169 32.01275,-9.06259 40.43913,2.96771 9.73476,13.89834 8.94479,20.34166 -4.09251,33.37892 -11.52131,11.52135 -13.62493,12.18921 -25.27687,8.0249 z M 291.56416,912.26084 c -10.95621,-4.07395 -29.11784,-25.42529 -29.11784,-34.23176 0,-3.23004 5.31023,-12.18367 11.80056,-19.89688 22.27401,-26.47129 61.12956,-14.16098 61.12956,19.36731 0,23.05155 -24.02986,42.1172 -43.81228,34.76133 z M 478.8728,883.33728 c -19.27443,-8.39834 -41.91402,-35.69329 -47.83059,-57.66575 -10.52302,-39.07955 20.9691,-94.68685 58.0561,-102.51275 6.95747,-1.46812 16.38528,-3.41746 20.95074,-4.33186 25.40591,-5.08847 69.50983,21.50685 84.67239,51.05876 6.89272,13.43394 7.23885,50.34394 0.63189,67.38518 -6.41648,16.54989 -25.35975,37.2428 -42.09989,45.98826 -15.33335,8.0105 -56.07767,8.05329 -74.38064,0.078 z m 214.23204,-86.60445 c -19.31776,-8.41727 -42.20477,-36.03293 -45.81591,-55.28186 -6.39901,-34.10972 21.94928,-76.36673 59.55739,-88.77851 21.922,-7.23494 50.89289,3.23691 70.39038,25.44334 16.58083,18.88452 20.40501,32.07784 17.29518,59.6682 -5.56174,49.34326 -56.08354,78.70626 -101.42704,58.94883 z m -431.12398,-72.3665 c -53.7155,-35.8843 -29.66942,-117.2469 34.65139,-117.2469 49.62483,0 80.71221,57.17681 54.0026,99.32282 -17.70228,27.93276 -60.66838,36.61965 -88.65399,17.92408 z m 612.73978,-46.55875 c -14.55027,-10.19139 -19.87604,-29.7537 -12.72835,-46.753 16.59651,-39.47154 75.05721,-27.96368 75.05721,14.77485 0,31.51258 -36.36016,50.16736 -62.32886,31.97815 z M 59.402316,664.26912 C 53.248963,658.11564 48.21422,651.07014 48.21422,648.61239 c 0,-13.34674 10.738082,-28.97466 23.63461,-34.39724 18.206756,-7.65538 33.43794,-1.78245 42.91715,16.54825 5.79649,11.20922 5.77523,14.40606 -0.17316,25.909 -11.43253,22.10802 -37.140534,25.64663 -55.190504,7.59672 z M 478.31113,620.78926 c -32.63031,-7.37009 -59.86962,-33.7525 -67.26976,-65.15367 -4.53823,-19.25706 5.03244,-47.30979 22.88081,-67.06568 50.22261,-55.59045 143.21086,-21.08856 142.96011,53.04313 -0.17276,51.09029 -49.06074,90.35899 -98.57116,79.17622 z m 214.11473,-35.7609 c -33.43643,-11.63262 -53.65598,-28.78486 -67.64998,-57.38758 -16.62742,-33.98524 -18.75338,-55.50634 -8.66095,-87.67458 11.04435,-35.20225 39.99486,-64.75764 74.17945,-75.72944 30.28668,-9.7207 39.18223,-9.77611 68.13821,-0.42437 59.26754,19.1413 93.57822,82.67446 76.20472,141.10863 -19.17026,64.47761 -83.30104,100.6023 -142.21145,80.10735 z m -460.0875,-37.8369 c -34.0039,-7.62411 -74.77744,-54.8173 -74.70356,-86.46552 0.1499,-63.98032 60.18824,-113.765 119.91743,-99.43619 33.10158,7.94092 63.92632,39.26381 70.97251,72.11949 14.85062,69.24569 -46.56636,129.3918 -116.18638,113.78222 z M 465.28305,402.37458 c -50.26192,-8.82932 -90.6139,-44.76098 -106.7887,-95.09087 -12.56568,-39.09929 -11.05227,-61.36237 6.88818,-101.33933 18.79015,-41.87007 51.12187,-66.94491 100.59527,-78.01656 49.39173,-11.0534 113.57387,19.72059 139.31085,66.7967 19.47483,35.62179 24.19318,66.14404 15.60498,100.9458 -18.06742,73.21437 -84.99676,119.10868 -155.61058,106.70426 z m 217.87203,-91.11236 c -50.94303,-32.00706 -28.94252,-114.40855 30.54608,-114.40855 40.76254,0 74.22012,45.91897 59.44603,81.5868 -14.94342,36.07658 -59.15007,52.19955 -89.99211,32.82175 z M 139.02621,197.20429 c -8.03219,-8.03218 -13.32376,-18.12793 -13.32376,-25.42033 0,-17.25065 22.72954,-38.7441 40.97225,-38.7441 19.18021,0 30.4402,6.63409 38.84454,22.88644 20.72619,40.08012 -33.8257,73.94528 -66.49303,41.27799 z m 602.81825,-38.24896 c -21.63301,-23.02731 -5.26942,-57.82238 27.19302,-57.82238 31.70919,0 47.82645,37.27674 25.27671,58.46115 -14.45661,13.58128 -39.39587,13.27768 -52.46973,-0.63877 z M 298.56079,133.39049 c -26.39297,-26.39298 -10.44776,-64.164454 27.08696,-64.164454 14.54256,0 20.31947,2.715411 29.83508,14.024118 34.37254,40.849426 -19.10602,87.956436 -56.92204,50.140336 z"
       id="path4147"
       inkscape:connector-curvature="0" />
  </g>
</svg>
