<?xml version="1.0" encoding="UTF-8" standalone="no"?>
<!-- Created with Inkscape (http://www.inkscape.org/) -->

<svg
   xmlns:dc="http://purl.org/dc/elements/1.1/"
   xmlns:cc="http://creativecommons.org/ns#"
   xmlns:rdf="http://www.w3.org/1999/02/22-rdf-syntax-ns#"
   xmlns:svg="http://www.w3.org/2000/svg"
   xmlns="http://www.w3.org/2000/svg"
   xmlns:sodipodi="http://sodipodi.sourceforge.net/DTD/sodipodi-0.dtd"
   xmlns:inkscape="http://www.inkscape.org/namespaces/inkscape"
   width="1000"
   height="1000"
   viewBox="0 0 999.99999 999.99999"
   id="svg2"
   version="1.1"
   inkscape:version="0.91 r13725"
   sodipodi:docname="leaves-scattered.svg">
  <defs
     id="defs4" />
  <sodipodi:namedview
     id="base"
     pagecolor="#ffffff"
     bordercolor="#666666"
     borderopacity="1.0"
     inkscape:pageopacity="0.0"
     inkscape:pageshadow="2"
     inkscape:zoom="0.35"
     inkscape:cx="452.02092"
     inkscape:cy="453.16893"
     inkscape:document-units="px"
     inkscape:current-layer="layer1"
     showgrid="false"
     units="px"
     inkscape:window-width="1600"
     inkscape:window-height="835"
     inkscape:window-x="0"
     inkscape:window-y="0"
     inkscape:window-maximized="1" />
  <metadata
     id="metadata7">
    <rdf:RDF>
      <cc:Work
         rdf:about="">
        <dc:format>image/svg+xml</dc:format>
        <dc:type
           rdf:resource="http://purl.org/dc/dcmitype/StillImage" />
        <dc:title></dc:title>
      </cc:Work>
    </rdf:RDF>
  </metadata>
  <g
     inkscape:label="Layer 1"
     inkscape:groupmode="layer"
     id="layer1"
     transform="translate(0,-52.362271)">
    <path
       style="fill:#000000"
       d="m 200.4737,970.72597 c -4.40794,-4.51477 -10.40396,-10.16533 -13.32451,-12.55683 -3.39411,-2.77928 -4.96284,-5.676 -4.34771,-8.02825 0.62459,-2.38846 -1.80052,-6.67282 -6.90956,-12.20691 -7.23185,-7.83349 -7.98447,-9.72796 -9.25622,-23.29918 -1.50862,-16.09934 -4.71496,-21.41742 -10.17885,-16.88278 -4.28112,3.55302 -8.29954,12.20064 -7.42663,15.98211 1.17512,5.09083 -7.20285,8.00124 -18.24909,6.33954 -8.68915,-1.30714 -10.04147,-2.17891 -11.57852,-7.46413 -1.06167,-3.65059 -0.81541,-13.89987 0.63152,-26.28338 1.30451,-11.16459 1.87901,-22.18386 1.27665,-24.48726 -0.73103,-2.79542 1.25086,-7.59856 5.96027,-14.44482 l 7.05547,-10.25684 -4.42162,-9.17097 C 127.273,822.92223 119.5267,809.32251 112.49089,797.74467 99.95345,777.11354 99.69853,776.41253 99.69853,762.5683 l 0,-14.12569 7.95043,-1.27132 c 5.23034,-0.83638 9.00651,-2.88317 11.03731,-5.98255 2.99099,-4.56485 3.93784,-4.7137 30.47526,-4.79067 15.06358,-0.0437 30.62108,-0.7058 34.57221,-1.4713 6.9658,-1.34959 7.28219,-1.14608 10.4234,6.70457 3.33203,8.32753 8.15476,12.28943 14.9597,12.28943 3.51882,0 3.96363,1.7885 4.71446,18.95542 0.45596,10.42549 1.68594,19.788 2.73325,20.8056 2.90459,2.8221 22.64443,-1.42166 32.06997,-6.89455 l 8.20821,-4.76604 4.07633,4.41409 c 2.24199,2.42771 5.55964,7.55798 7.37257,11.40055 7.75035,16.42714 8.33278,16.97227 22.32124,20.89158 3.81005,1.06752 4.36903,0.26741 5.13607,-7.35168 0.95968,-9.53256 0.3007,-10.29834 -11.98313,-13.9253 -9.51014,-2.80804 -9.38055,-2.54438 -13.1117,-26.67605 l -2.42316,-15.67208 -5.4214,9.2509 c -5.30328,9.04936 -5.62793,9.24424 -14.90038,8.94405 -5.21344,-0.16868 -10.93514,0.39455 -12.71485,1.25188 -4.17323,2.01031 -9.73904,-3.4018 -9.73904,-9.47011 0,-2.48915 -4.41153,-13.5468 -9.80341,-24.57259 l -9.80337,-20.04691 3.60056,-5.92066 c 4.86303,-7.99662 16.51112,-19.14573 30.97726,-29.65028 6.58726,-4.7833 14.2225,-11.11068 16.96718,-14.06082 5.98333,-6.43116 26.91325,-16.71018 34.02944,-16.71238 2.79697,-8.5e-4 13.57613,4.37195 23.95367,9.71737 28.56938,14.71595 28.0686,14.71729 41.70709,-0.11119 l 11.50961,-12.51392 -2.94599,-7.03046 c -4.00386,-9.55495 -2.18962,-33.42247 3.69573,-48.6202 3.81987,-9.86406 4.07612,-11.94044 1.67337,-13.55984 -5.10361,-3.43973 -20.01543,0.0926 -34.76706,8.23571 -16.32612,9.0122 -21.19702,9.66013 -30.40683,4.04471 -4.81642,-2.93668 -7.0185,-6.20799 -8.71548,-12.94728 -2.04696,-8.12922 -2.74149,-8.89957 -7.04905,-7.81844 -2.6281,0.65961 -11.00596,1.32422 -18.61751,1.47693 -17.20643,0.34518 -20.82877,-2.20454 -14.48613,-10.19666 2.39841,-3.02215 6.63953,-10.11875 9.42472,-15.77021 2.7852,-5.65146 6.36599,-11.35597 7.95733,-12.67665 2.49504,-2.07069 2.50899,-3.14454 0.10146,-7.80027 -3.16128,-6.11336 -10.64098,-10.16863 -18.75514,-10.16863 -6.67605,0 -10.28601,-3.268 -10.28601,-9.31164 0,-2.48649 -1.57196,-5.30795 -3.49325,-6.26991 -5.13873,-2.5729 -30.52282,-6.63706 -37.2337,-5.96134 -4.91414,0.49477 -6.03856,-0.30057 -7.40084,-5.23486 -0.88349,-3.20005 -2.76727,-6.55478 -4.18619,-7.45495 -2.99869,-1.90241 -22.8267,-2.31597 -20.94766,-0.43693 0.69348,0.6935 -0.95334,5.03916 -3.65958,9.65705 -3.15352,5.38107 -4.92048,11.46101 -4.92048,16.93092 l 0,8.53478 -6.48745,-1.18753 c -3.5681,-0.65311 -11.03257,-1.76139 -16.5877,-2.46279 -9.48921,-1.19812 -10.39495,-0.91464 -14.97104,4.68582 -2.67895,3.27861 -5.76906,7.43715 -6.86695,9.24118 -1.67607,2.75416 -3.19256,2.94307 -9.45816,1.17814 -9.78662,-2.75672 -11.51137,-6.55802 -10.96995,-24.17758 0.24807,-8.07302 -0.24327,-17.95842 -1.09185,-21.96755 -1.96091,-9.26412 1.94422,-13.65722 12.18089,-13.70299 4.03861,-0.0179 10.93599,-2.06153 15.32749,-4.54106 6.70657,-3.78664 8.08145,-5.66027 8.58989,-11.70587 0.56563,-6.72536 1.1338,-7.28216 8.65901,-8.48549 8.02598,-1.2834 8.05215,-1.31684 7.61019,-9.71978 -0.7038,-13.38101 -0.21326,-14.90886 5.22481,-16.27373 6.92175,-1.73726 5.33629,-5.0125 -5.75294,-11.88439 -7.39913,-4.58517 -12.2298,-5.92865 -23.79395,-6.6175 -15.66978,-0.93338 -29.48101,-5.56665 -29.48101,-9.88999 0,-1.88105 2.86475,-2.69106 9.51733,-2.69106 6.89872,0 11.56706,-1.39284 16.96717,-5.06231 7.16494,-4.86869 7.44682,-5.49852 7.37031,-16.46814 l -0.0797,-11.40584 -3.89024,7.79572 c -2.13963,4.28764 -4.28756,8.19304 -4.77315,8.67864 -1.35261,1.3526 -48.747885,1.92283 -50.868817,0.61201 -1.025318,-0.63368 -2.161859,-4.2882 -2.525642,-8.1212 l -0.661421,-6.96903 -20.439864,-0.56865 -20.439865,-0.56863 -1.131532,-5.41979 c -0.622356,-2.98087 -2.029894,-9.01282 -3.12789,-13.40432 -3.731243,-14.92346 -3.619878,-15.10531 11.204788,-18.29729 7.87435,-1.69546 7.979347,-1.83591 7.606628,-10.17524 l -0.37793,-8.45605 10.046469,0 c 8.352026,0 10.22173,-0.67021 11.085599,-3.97368 0.957028,-3.65967 2.45615,-3.92197 18.971327,-3.31925 l 17.93217,0.65443 9.28681,10.04386 c 5.1077,5.52411 12.93989,11.89257 17.40486,14.15212 12.25408,6.20133 13.532,8.59386 12.36379,23.14738 -0.97051,12.09035 -0.69918,13.09969 5.69268,21.17707 3.69148,4.66492 7.60645,11.72188 8.69993,15.68219 1.25202,4.53447 5.68102,10.59556 11.9618,16.36978 l 9.97364,9.16924 5.31446,-5.54711 c 4.89058,-5.10465 5.17848,-6.31081 3.6096,-15.12203 -1.62267,-9.11315 -1.96113,-29.65157 -0.96911,-58.806 0.40794,-11.98835 0.90042,-13.41298 4.99187,-14.43987 3.74114,-0.93896 4.97244,-3.33858 7.00265,-13.6473 3.6483,-18.52471 3.20374,-17.84443 10.73753,-16.4311 4.76702,0.8943 7.61857,0.34483 9.86419,-1.90079 4.28,-4.28002 4.86099,-4.08024 8.4785,2.91525 1.72754,3.34069 11.69803,14.34441 22.15662,24.4527 10.45861,10.10828 21.72955,22.36828 25.04656,27.24438 5.49166,8.07297 5.91999,9.85782 4.79037,19.96139 -0.6823,6.10267 -1.80332,16.4853 -2.49114,23.07256 -0.68781,6.58726 -2.09645,12.53132 -3.1303,13.20905 -1.10308,0.72311 -0.56482,3.77496 1.30273,7.38639 1.75034,3.3848 3.18245,8.73053 3.18245,11.87943 0,8.57302 5.41846,25.14827 10.21392,31.2447 l 4.23391,5.38253 -4.59133,4.88725 c -4.50479,4.79512 -4.51866,4.94314 -0.73646,7.85259 2.12018,1.63092 6.10051,3.46327 8.84521,4.07185 28.87152,6.40173 28.05492,5.51459 32.99961,35.85069 5.30347,32.53708 4.77884,31.39063 9.59114,20.95947 3.38467,-7.33662 4.17815,-13.18624 4.33024,-31.92264 l 0.18624,-22.94001 7.18242,0.61878 c 6.66902,0.57459 7.43281,0.0512 10.68524,-7.32045 3.02968,-6.86695 4.47999,-8.03249 10.73765,-8.62924 3.97916,-0.37948 9.90542,-0.22834 13.16947,0.33585 5.45285,0.94254 5.97444,1.75362 6.42501,9.99098 0.6324,11.56173 1.27623,13.05914 7.31687,17.0171 4.67557,3.06356 5.73132,3.06047 15.07832,-0.0441 9.01298,-2.99363 10.05073,-3.94005 10.05073,-9.16631 0,-7.06965 2.01475,-7.25871 17.12146,-1.60656 15.48418,5.79338 18.80904,9.56373 18.80904,21.32916 0,11.02511 -2.45368,14.3722 -10.53601,14.3722 -5.26347,0 -5.69938,0.54409 -5.19767,6.48745 0.75999,9.00302 -2.26244,25.59819 -5.59146,30.70081 -1.52571,2.33861 -8.13088,7.10716 -14.67811,10.59679 l -11.90402,6.3448 0,11.37284 0,11.37282 12.96027,0.36012 c 15.47944,0.4301 16.98182,1.17606 16.98182,8.43179 0,5.37261 0.46924,5.6353 12.26964,6.86868 26.57406,2.77754 35.23388,0.90736 47.44566,-10.24637 7.47013,-6.8229 13.14561,-6.95351 18.50638,-0.42584 3.62464,4.41361 3.92387,2.54616 -5.12546,31.98728 -2.2381,7.28137 -2.30593,10.21227 -0.34653,14.97104 3.26805,7.93706 1.97987,11.69909 -4.89448,14.29387 -3.57494,1.34939 -6.8104,4.72993 -8.57968,8.9644 -2.55161,6.10685 -3.72456,6.85023 -11.53607,7.31115 -4.78261,0.28219 -9.17158,0.98938 -9.75327,1.57149 -0.5817,0.58214 -0.89386,9.08671 -0.69372,18.89907 0.39795,19.50979 -0.77348,21.6112 -13.83784,24.82329 -5.26773,1.29515 -5.48938,1.85954 -5.48938,13.9782 0,16.43254 -2.06909,21.36678 -11.3323,27.02459 -4.19707,2.56348 -8.68022,6.04401 -9.96254,7.7345 -2.05254,2.70582 -2.88853,2.51843 -6.98648,-1.56613 -6.54384,-6.5224 -19.62602,-14.60699 -19.62602,-12.12856 0,1.13695 0.9007,3.75017 2.00153,5.80711 2.5928,4.84469 1.44716,5.41509 -16.17167,8.05159 -22.91174,3.42854 -23.33584,3.57715 -30.74682,10.77421 -7.34174,7.12981 -8.89903,14.08019 -4.67149,20.84955 3.52001,5.63645 0.72175,10.21805 -6.24081,10.21805 l -6.05106,0 0,12.67704 c 0,6.97235 -1.0227,15.73041 -2.27264,19.46236 -3.04695,9.09706 -9.6887,16.2273 -13.60065,14.60095 -1.69952,-0.70655 -7.96845,-2.60001 -13.93098,-4.20768 l -10.84093,-2.92303 -10.11853,10.63629 c -5.56517,5.84997 -14.3207,12.84617 -19.45673,15.54713 -7.5736,3.98286 -9.57693,6.18336 -10.60157,11.64516 -0.69484,3.70387 -0.68802,9.3538 0.016,12.55539 1.13021,5.14579 0.73275,5.82106 -3.42627,5.82106 -2.58764,0 -6.7012,1.39833 -9.14123,3.10739 -3.73828,2.6184 -4.43643,4.97436 -4.43643,14.97104 l 0,11.86366 -7.75791,0 c -7.66758,0 -7.77363,0.1048 -9.10885,9.00874 -0.74303,4.95481 -0.7847,10.79282 -0.0926,12.97336 0.95895,3.02138 0.0365,4.4291 -3.87673,5.91696 -5.57962,2.12136 -10.18964,10.70952 -12.0796,22.50345 -0.65977,4.11704 -2.28169,7.3618 -3.60428,7.21059 -1.3226,-0.1513 -6.01121,-3.96882 -10.41912,-8.48359 z M 624.10752,800.19104 c -8.52923,-0.97923 -29.20719,-16.21818 -36.63792,-27.0009 -7.83854,-11.37446 -12.2941,-24.47802 -9.56835,-28.13997 1.02779,-1.38083 4.78808,-6.37243 8.35618,-11.09247 9.00554,-11.91291 8.66406,-15.96744 -1.34483,-15.96744 -4.30775,0 -12.45879,1.06794 -18.11344,2.3732 -7.12164,1.64386 -10.69573,1.72946 -11.63011,0.27852 -0.74188,-1.15208 -4.22977,-3.57055 -7.75084,-5.37445 -9.20671,-4.71667 -22.78833,-23.0294 -20.39558,-27.50028 3.48209,-6.50635 1.83533,-11.39377 -6.13876,-18.21929 -11.49515,-9.83942 -10.18678,-15.16672 5.71764,-23.28057 18.8117,-9.59699 49.50094,-12.29306 105.23901,-9.24523 l 28.11688,1.53744 2.47209,-5.96814 c 9.03105,-21.80292 44.33354,-35.94266 76.72812,-30.73202 23.51144,3.78181 83.80886,14.22558 88.63264,15.35155 6.56111,1.53152 5.58782,6.02291 -4.72466,21.80275 -5.06879,7.7561 -12.92859,19.94072 -17.46621,27.07691 -9.28101,14.59597 -20.72544,23.36965 -39.33364,30.15456 -6.50847,2.37311 -11.8336,4.96729 -11.8336,5.76484 0,0.79759 2.24567,4.7593 4.99035,8.80382 6.10186,8.99161 6.12775,9.44944 0.49904,8.82688 -3.95581,-0.43753 -18.2638,0.63051 -44.4141,3.31529 -4.3915,0.45087 -9.33195,0.90511 -10.97877,1.00943 -1.6468,0.1044 0.59885,2.0779 4.99036,4.38576 10.63405,5.58846 16.28019,12.48737 17.75184,21.69067 1.55433,9.72018 8.6473,15.38061 21.39154,17.07119 11.64323,1.54454 12.26049,3.96745 4.77437,18.74059 -6.17454,12.18486 -9.90904,14.25087 -25.55477,14.13756 -6.80602,-0.0493 -31.68722,0.11937 -55.29156,0.3746 -23.60435,0.25531 -45.42167,0.17666 -48.48292,-0.17486 z m 65.73982,-69.0815 1.251,-9.127 -6.25975,0 c -3.44284,0 -6.25973,0.78599 -6.25973,1.74663 0,0.96064 -0.51079,4.32912 -1.13511,7.48552 -0.83778,4.2357 0.0227,6.97536 3.28559,10.45949 3.78814,4.04514 4.66723,4.28002 6.14384,1.64147 0.94775,-1.69354 2.28612,-7.18626 2.97416,-12.20611 z m 120.12861,65.7614 c -2.52233,-5.53592 -11.86818,-8.26926 -21.61142,-6.32062 -4.49755,0.8995 -6.52069,0.21115 -8.75504,-2.97884 -1.59822,-2.28176 -2.63931,-5.62163 -2.31358,-7.42188 1.28331,-7.09246 3.76002,-31.31669 3.36608,-32.923 -1.15493,-4.70931 3.18782,-10.30004 14.25778,-18.35508 9.19742,-6.69246 14.02267,-8.88512 19.55293,-8.88512 7.8249,0 27.93405,6.91765 35.23858,12.12224 5.28278,3.76408 12.40744,18.71054 12.46855,26.15711 0.0371,4.52133 1.73226,6.11605 11.02259,10.3693 11.06597,5.06617 11.91663,6.39858 10.99651,17.22395 -0.92767,10.91391 -2.85068,12.02384 -18.53619,10.69875 -9.86665,-0.83355 -19.36859,-0.19403 -30.10144,2.02615 -20.72207,4.28643 -22.91887,4.13936 -25.58535,-1.71296 z m 87.04614,-20.19241 c -1.00428,-6.69693 -3.19599,-11.42382 -7.11322,-15.34104 -5.31995,-5.31996 -5.47725,-5.94327 -2.60558,-10.32599 1.68088,-2.56534 3.48316,-7.22697 4.00505,-10.35916 1.41778,-8.50895 8.53266,-31.01594 11.41249,-36.10193 2.46904,-4.36051 2.81298,-4.16133 15.84569,9.17618 7.32703,7.49841 21.2267,19.33796 30.88816,26.31013 20.33354,14.6737 20.48953,14.84989 20.52993,23.18827 0.0435,8.98223 -9.39279,16.63182 -20.58303,16.68573 -4.58174,0.0222 -14.16913,0.92609 -21.30533,2.00894 -7.1362,1.08286 -16.72064,2.52443 -21.29879,3.20352 l -8.32388,1.23467 -1.45149,-9.67932 z M 574.77962,607.93517 c 0,-7.17392 -4.39958,-19.42311 -7.38819,-20.56995 -5.27308,-2.02347 -28.10115,-22.05452 -30.28113,-26.57091 -1.7126,-3.54814 -3.84514,-4.49131 -10.15482,-4.49131 -12.07088,0 -22.86635,-5.10504 -26.56765,-12.56354 -1.74676,-3.5199 -5.19282,-10.44197 -7.65793,-15.38241 -3.5876,-7.19011 -4.48286,-12.36848 -4.48638,-25.9498 -0.008,-31.62913 14.82859,-60.83267 49.75345,-97.93063 10.8985,-11.57665 21.83061,-23.47168 24.29359,-26.43343 4.79069,-5.76089 8.36216,-6.94555 8.71204,-2.88981 0.11839,1.37234 0.34297,15.96911 0.49905,32.43726 l 0.28376,29.94208 7.62993,16.89325 c 4.19644,9.29129 8.11923,21.02483 8.7173,26.07456 l 1.08739,9.18132 12.24214,0.0683 c 6.7332,0.0376 19.42827,1.96449 28.21128,4.28201 13.38156,3.53094 25.95326,5.73082 35.93051,6.28738 1.09787,0.0613 -0.64969,2.22835 -3.88348,4.8158 l -5.8796,4.70446 27.93699,1.43938 c 15.36533,0.79167 31.26055,0.81588 35.32265,0.0539 5.85521,-1.09845 7.38567,-0.7639 7.38567,1.61439 0,1.65 -2.04757,3.5139 -4.55019,4.14199 -11.20099,2.81129 -30.29442,28.21942 -37.17582,49.4709 -6.71589,20.74031 -40.09554,37.27528 -64.26877,31.83622 -8.23934,-1.85387 -9.15401,-1.61905 -14.77162,3.79247 -7.11006,6.84921 -14.70798,10.00586 -24.08362,10.00586 -5.66928,0 -6.85655,-0.73761 -6.85655,-4.25972 z m 164.62603,-99.43879 c -2.38249,-2.35508 -8.86432,-4.67591 -16.41721,-5.87822 -15.90489,-2.53181 -23.71826,-7.19571 -27.88804,-16.64675 -2.9852,-6.76612 -4.06507,-7.51783 -10.79947,-7.51783 -8.13494,0 -9.80735,-1.49737 -10.75494,-9.62932 -0.34234,-2.93796 -1.57424,-8.93478 -2.73752,-13.32629 -11.44686,-43.21278 20.89303,-79.82438 75.83852,-85.85586 l 11.886,-1.30475 -4.20706,10.64401 c -5.78896,14.64631 -15.07552,39.6429 -16.74683,45.07741 -1.20517,3.9188 -0.66437,4.49433 4.24266,4.51501 3.09315,0.014 10.56434,1.34977 16.60267,2.97051 18.27768,4.90593 24.10766,4.09213 32.17506,-4.49131 3.8695,-4.11703 8.59192,-9.99862 10.49427,-13.0702 4.11621,-6.64618 13.33079,-12.638 23.8695,-15.5212 5.91133,-1.61723 10.90785,-1.35328 21.95753,1.16 7.86764,1.78949 17.89785,3.07114 22.28935,2.84809 13.0322,-0.66192 13.44603,-0.48308 10.69535,4.62192 -1.33102,2.47022 -2.59683,9.73561 -2.81291,16.14531 -0.50471,14.97127 -3.04868,17.44184 -19.30355,18.74664 l -12.84946,1.03143 3.65169,7.1626 c 6.14924,12.06136 4.9047,19.56375 -4.8662,29.33463 -5.59073,5.59074 -11.59298,9.34209 -17.46622,10.91625 -4.92156,1.31908 -13.95761,5.48376 -20.08008,9.25483 -6.33864,3.90423 -12.4737,6.34155 -14.24835,5.66055 -1.71411,-0.65776 -4.21062,-5.10346 -5.54778,-9.87933 -4.04659,-14.45303 2.56951,-28.7684 13.36786,-28.92429 3.35989,-0.0486 4.88799,-1.82971 6.47632,-7.549 3.89759,-14.03457 3.30135,-15.17916 -7.16014,-13.74526 -5.09368,0.69815 -11.20115,1.26939 -13.57214,1.26939 -3.73636,0 -4.20417,0.91444 -3.50994,6.86107 1.07752,9.22964 -6.51731,25.39865 -18.39166,39.15502 -5.16244,5.98064 -11.06407,12.89496 -13.11473,15.36519 -4.55927,5.49202 -6.04212,5.57234 -11.07255,0.59975 z M 496.45013,405.4452 c -4.67642,-5.02254 -10.96066,-10.42893 -13.96499,-12.01416 -8.0171,-4.2302 -19.4893,-14.78029 -19.4893,-17.92277 0,-1.51824 1.24013,-2.24889 2.80068,-1.65005 3.24492,1.24519 16.27358,-5.01593 29.02629,-13.94906 4.87927,-3.41785 12.5145,-8.28002 16.96719,-10.8048 l 8.0958,-4.59053 -6.64481,1.07884 c -5.1516,0.83642 -8.17944,-0.0916 -13.47393,-4.12997 -7.84685,-5.98508 -8.39674,-10.19187 -2.83686,-21.70218 4.70302,-9.73641 4.95297,-16.79227 0.93551,-26.40743 -3.92371,-9.39078 -2.89091,-11.70616 5.96258,-13.36709 6.93102,-1.30024 7.16715,-1.61882 5.96196,-8.0431 -1.04285,-5.55873 -0.57862,-6.90384 2.7468,-7.95931 2.20095,-0.69855 10.14438,-5.31124 17.65206,-10.25045 7.5077,-4.93917 15.89602,-9.53486 18.64071,-10.21261 2.74468,-0.67777 6.96854,-3.33824 9.38634,-5.91216 2.6983,-2.87256 6.68635,-4.67989 10.32659,-4.67989 3.33241,0 8.40252,-2.07972 11.57309,-4.74717 5.25097,-4.41774 6.36982,-4.59819 16.12228,-2.60002 11.43153,2.34218 11.67394,2.82486 8.11041,16.14848 -1.67597,6.26635 -1.76349,10.21623 -0.29904,13.49822 1.68261,3.77083 1.1586,6.01728 -2.79825,11.9965 -3.36628,5.08678 -5.19253,11.24751 -5.91852,19.96574 -0.5877,7.05745 -2.24389,13.56746 -3.7617,14.78606 -2.1675,1.74026 -2.2461,3.41067 -0.3917,8.32358 3.0155,7.98895 0.11119,11.67517 -10.62808,13.48955 -7.50543,1.26803 -7.9364,1.71486 -7.3706,7.64157 l 0.60091,6.29478 -17.80687,0.99806 c -15.9573,0.8944 -17.85058,1.41276 -18.22745,4.99036 -0.23131,2.19575 -1.87454,7.92283 -3.65161,12.72683 -1.90512,5.15016 -3.23105,14.82909 -3.23105,23.58587 0,16.0592 -2.1768,22.56619 -7.55575,22.58601 -1.88266,0.006 -4.9532,2.70173 -6.82343,5.98842 -4.77682,8.39469 -10.05466,7.56327 -20.03526,-3.15612 z m 80.32669,-38.77408 c -8.31344,-10.49658 -8.01423,-17.94453 0.99701,-24.81774 3.84257,-2.93087 6.98649,-6.5859 6.98649,-8.12229 0,-1.53638 1.14704,-3.51176 2.54899,-4.38973 5.9113,-3.70193 15.41626,-18.43909 15.41626,-23.90248 0,-4.56566 1.23983,-6.23056 5.96913,-8.01566 3.31831,-1.25252 6.83329,-4.52599 7.91504,-7.37119 1.92701,-5.06843 2.00389,-5.08478 7.92674,-1.68553 l 5.98086,3.43254 8.56068,-8.19282 c 10.18688,-9.74912 14.40232,-11.54542 17.71813,-7.55014 1.96287,2.36511 1.76506,7.60927 -0.97428,25.83229 -3.80929,25.34066 -2.93178,38.08353 3.15548,45.82223 4.6104,5.86118 3.18582,9.44347 -3.12552,7.85941 -5.13336,-1.28839 -10.28244,3.43282 -8.58064,7.86765 0.59246,1.54393 -1.12192,4.87309 -3.80973,7.39816 -4.39151,4.1256 -5.55483,4.34951 -11.47532,2.20864 -7.64648,-2.765 -30.87711,-3.07062 -41.73538,-0.54908 -7.11091,1.6513 -7.78343,1.3606 -13.47394,-5.82426 z M 120.47359,300.29816 c -1.80463,-3.5681 -5.47525,-9.41834 -8.15696,-13.00054 -2.68169,-3.58219 -4.71786,-8.0735 -4.52481,-9.98069 0.19302,-1.90719 0.24756,-4.57916 0.12117,-5.93775 -0.2933,-3.15165 -14.99106,-12.50089 -19.65256,-12.50097 -3.18724,-4e-5 -3.54125,-2.44677 -3.61821,-25.00651 -0.0672,-19.73779 0.46207,-24.79645 2.51252,-24.0096 1.42879,0.54828 4.83565,0.14611 7.5708,-0.89388 3.71175,-1.41119 4.97303,-3.34938 4.97303,-7.64192 0,-5.6757 0.18663,-5.76854 14.2227,-7.07306 15.87413,-1.47534 18.60383,-0.2992 20.42367,8.79999 1.70567,8.52834 8.65927,11.23923 21.85627,8.52077 11.57679,-2.3847 13.28055,-1.36429 13.33166,7.98438 0.0242,4.40741 1.30014,6.03581 6.01897,7.6808 3.29363,1.14816 6.07417,2.67339 6.179,3.38941 0.10481,0.71599 0.33362,7.81423 0.50843,15.77383 0.31702,14.43496 0.30419,14.47199 -5.01767,14.47199 -9.22439,0 -11.58863,1.80625 -10.366,7.91942 1.0219,5.10944 0.48682,5.71014 -6.57347,7.37987 -4.22724,0.9997 -7.79818,2.9068 -7.93541,4.23794 -0.13733,1.33117 -0.3618,3.65873 -0.49903,5.17234 -0.13733,1.51361 -2.94844,3.86997 -6.24712,5.23633 -3.29868,1.36636 -8.66081,5.51751 -11.91585,9.2248 -3.25505,3.70727 -6.82088,6.7405 -7.92411,6.7405 -1.10323,0 -3.48237,-2.91935 -5.28698,-6.48745 z"
       id="path4158"
       inkscape:connector-curvature="0" />
  </g>
</svg>
