/* XPM */
const char * const dcolorreset_xpm[] = {
"12 12 4 1",
" 	c None",
".	c #808080",
"+	c #000000",
"@	c #FFFFFF",
"........    ",
".++++++.    ",
".++++++.    ",
".++++++.    ",
".++++++.....",
".++++++.@@@.",
".++++++.@@@.",
"........@@@.",
"    .@@@@@@.",
"    .@@@@@@.",
"    .@@@@@@.",
"    ........"};
