<?xml version="1.0" encoding="UTF-8" standalone="no"?>
<!-- Created with Inkscape (http://www.inkscape.org/) -->
<svg
   xmlns:dc="http://purl.org/dc/elements/1.1/"
   xmlns:cc="http://web.resource.org/cc/"
   xmlns:rdf="http://www.w3.org/1999/02/22-rdf-syntax-ns#"
   xmlns:svg="http://www.w3.org/2000/svg"
   xmlns="http://www.w3.org/2000/svg"
   xmlns:xlink="http://www.w3.org/1999/xlink"
   xmlns:sodipodi="http://inkscape.sourceforge.net/DTD/sodipodi-0.dtd"
   xmlns:inkscape="http://www.inkscape.org/namespaces/inkscape"
   width="64px"
   height="64px"
   id="svg14867"
   sodipodi:version="0.32"
   inkscape:version="0.42"
   sodipodi:docbase="C:\DOCUME~1\Owner\Desktop\Lee\linux\KDE-AR~1\krita"
   sodipodi:docname="krita-modified-4.svg">
  <defs
     id="defs14869">
    <linearGradient
       inkscape:collect="always"
       id="linearGradient15441">
      <stop
         style="stop-color:#6c8fc6;stop-opacity:1;"
         offset="0"
         id="stop15443" />
      <stop
         style="stop-color:#6c8fc6;stop-opacity:0;"
         offset="1"
         id="stop15445" />
    </linearGradient>
    <linearGradient
       inkscape:collect="always"
       xlink:href="#linearGradient15441"
       id="linearGradient1938"
       gradientUnits="userSpaceOnUse"
       gradientTransform="matrix(1.285576,0.000000,0.000000,2.647199,-11.09181,-51.02720)"
       x1="27.730169"
       y1="38.844766"
       x2="38.000000"
       y2="38.844766" />
    <linearGradient
       inkscape:collect="always"
       xlink:href="#linearGradient14707"
       id="linearGradient1941"
       gradientUnits="userSpaceOnUse"
       gradientTransform="matrix(1.284770,0.000000,0.000000,2.862904,-11.11968,-59.23603)"
       x1="26.557112"
       y1="38.015705"
       x2="40.567459"
       y2="38.015705" />
    <linearGradient
       id="linearGradient14707">
      <stop
         style="stop-color:#3369c0;stop-opacity:1;"
         offset="0"
         id="stop14709" />
      <stop
         style="stop-color:#3369c0;stop-opacity:0;"
         offset="1"
         id="stop14711" />
    </linearGradient>
    <linearGradient
       inkscape:collect="always"
       xlink:href="#linearGradient14707"
       id="linearGradient1944"
       gradientUnits="userSpaceOnUse"
       gradientTransform="matrix(1.223476,0.000000,0.000000,1.036798,-7.019671,17.48182)"
       x1="24.536411"
       y1="35.210945"
       x2="37.000000"
       y2="35.210945" />
    <radialGradient
       inkscape:collect="always"
       xlink:href="#linearGradient11625"
       id="radialGradient4378"
       cx="41.397888"
       cy="27.937553"
       fx="41.397888"
       fy="27.937553"
       r="5.6568542"
       gradientTransform="matrix(4.050308,0.453180,1.960825,0.670848,-181.0569,-9.564981)"
       gradientUnits="userSpaceOnUse"
       spreadMethod="pad" />
    <linearGradient
       id="linearGradient11625">
      <stop
         style="stop-color:#aaaaaa;stop-opacity:1.0000000;"
         offset="0.00000000"
         id="stop11627" />
      <stop
         style="stop-color:#1d1d1d;stop-opacity:0;"
         offset="1"
         id="stop11629" />
    </linearGradient>
    <radialGradient
       inkscape:collect="always"
       xlink:href="#linearGradient11625"
       id="radialGradient5114"
       gradientUnits="userSpaceOnUse"
       gradientTransform="matrix(4.050308,0.453180,1.960825,0.670848,-181.0569,-9.564981)"
       cx="41.397888"
       cy="27.937553"
       fx="41.397888"
       fy="27.937553"
       r="5.6568542" />
    <linearGradient
       id="linearGradient4082">
      <stop
         style="stop-color:#be8747;stop-opacity:1.0000000;"
         offset="0.00000000"
         id="stop4084" />
      <stop
         style="stop-color:#db9924;stop-opacity:0.00000000"
         offset="1"
         id="stop4086" />
    </linearGradient>
    <linearGradient
       inkscape:collect="always"
       xlink:href="#linearGradient4082"
       id="linearGradient2032"
       gradientUnits="userSpaceOnUse"
       gradientTransform="matrix(1.115937,0.000000,0.000000,1.447191,-7.419996,-0.521465)"
       x1="63.536396"
       y1="13.377137"
       x2="84.313736"
       y2="-22.228298" />
    <linearGradient
       id="linearGradient5009">
      <stop
         style="stop-color:#ff9200;stop-opacity:1.0000000;"
         offset="0.00000000"
         id="stop5011" />
      <stop
         style="stop-color:#ff7d00;stop-opacity:0;"
         offset="1"
         id="stop5013" />
    </linearGradient>
    <linearGradient
       inkscape:collect="always"
       xlink:href="#linearGradient5009"
       id="linearGradient2192"
       gradientUnits="userSpaceOnUse"
       gradientTransform="matrix(1.000000,0.000000,0.000000,0.718945,0.120918,18.70644)"
       x1="20.503506"
       y1="47.188126"
       x2="18.500000"
       y2="78.438126" />
    <linearGradient
       inkscape:collect="always"
       xlink:href="#linearGradient15441"
       id="linearGradient14922"
       gradientUnits="userSpaceOnUse"
       gradientTransform="matrix(1.285576,0.000000,0.000000,2.659863,-11.21273,-51.57747)"
       x1="27.730169"
       y1="38.844766"
       x2="38.000000"
       y2="38.844766" />
    <linearGradient
       inkscape:collect="always"
       xlink:href="#linearGradient14707"
       id="linearGradient14925"
       gradientUnits="userSpaceOnUse"
       gradientTransform="matrix(1.284770,0.000000,0.000000,2.876600,-11.24060,-59.82557)"
       x1="26.557112"
       y1="38.015705"
       x2="40.567459"
       y2="38.015705" />
    <linearGradient
       inkscape:collect="always"
       xlink:href="#linearGradient14707"
       id="linearGradient14928"
       gradientUnits="userSpaceOnUse"
       gradientTransform="matrix(1.223476,0.000000,0.000000,1.041758,-7.140589,17.25930)"
       x1="24.536411"
       y1="35.210945"
       x2="37.000000"
       y2="35.210945" />
    <linearGradient
       inkscape:collect="always"
       xlink:href="#linearGradient4082"
       id="linearGradient14942"
       gradientUnits="userSpaceOnUse"
       gradientTransform="matrix(1.115937,0.000000,0.000000,1.454114,-7.540914,-0.830113)"
       x1="63.536396"
       y1="13.377137"
       x2="84.313736"
       y2="-22.228298" />
    <linearGradient
       inkscape:collect="always"
       xlink:href="#linearGradient5009"
       id="linearGradient14950"
       gradientUnits="userSpaceOnUse"
       gradientTransform="matrix(1.000000,0.000000,0.000000,0.722384,0.000000,18.48978)"
       x1="20.503506"
       y1="47.188126"
       x2="18.500000"
       y2="78.438126" />
    <radialGradient
       inkscape:collect="always"
       xlink:href="#linearGradient11625"
       id="radialGradient14952"
       gradientUnits="userSpaceOnUse"
       gradientTransform="matrix(4.050308,0.453180,1.960825,0.670848,-181.0569,-9.564981)"
       spreadMethod="pad"
       cx="41.397888"
       cy="27.937553"
       fx="41.397888"
       fy="27.937553"
       r="5.6568542" />
    <radialGradient
       inkscape:collect="always"
       xlink:href="#linearGradient11625"
       id="radialGradient14954"
       gradientUnits="userSpaceOnUse"
       gradientTransform="matrix(4.050308,0.453180,1.960825,0.670848,-181.0569,-9.564981)"
       cx="41.397888"
       cy="27.937553"
       fx="41.397888"
       fy="27.937553"
       r="5.6568542" />
    <linearGradient
       inkscape:collect="always"
       xlink:href="#linearGradient5009"
       id="linearGradient14980"
       gradientUnits="userSpaceOnUse"
       gradientTransform="matrix(1.000000,0.000000,0.000000,0.722384,0.000000,18.48978)"
       x1="20.503506"
       y1="47.188126"
       x2="18.500000"
       y2="78.438126" />
    <linearGradient
       inkscape:collect="always"
       xlink:href="#linearGradient4082"
       id="linearGradient14982"
       gradientUnits="userSpaceOnUse"
       gradientTransform="matrix(1.115937,0.000000,0.000000,1.454114,-7.540914,-0.830113)"
       x1="63.536396"
       y1="13.377137"
       x2="84.313736"
       y2="-22.228298" />
    <radialGradient
       inkscape:collect="always"
       xlink:href="#linearGradient11625"
       id="radialGradient14984"
       gradientUnits="userSpaceOnUse"
       gradientTransform="matrix(4.050308,0.453180,1.960825,0.670848,-181.0569,-9.564981)"
       cx="41.397888"
       cy="27.937553"
       fx="41.397888"
       fy="27.937553"
       r="5.6568542" />
    <radialGradient
       inkscape:collect="always"
       xlink:href="#linearGradient11625"
       id="radialGradient14986"
       gradientUnits="userSpaceOnUse"
       gradientTransform="matrix(4.050308,0.453180,1.960825,0.670848,-181.0569,-9.564981)"
       spreadMethod="pad"
       cx="41.397888"
       cy="27.937553"
       fx="41.397888"
       fy="27.937553"
       r="5.6568542" />
    <linearGradient
       inkscape:collect="always"
       xlink:href="#linearGradient14707"
       id="linearGradient14988"
       gradientUnits="userSpaceOnUse"
       gradientTransform="matrix(1.223476,0.000000,0.000000,1.041758,-7.140589,17.25930)"
       x1="24.536411"
       y1="35.210945"
       x2="37.000000"
       y2="35.210945" />
    <linearGradient
       inkscape:collect="always"
       xlink:href="#linearGradient14707"
       id="linearGradient14990"
       gradientUnits="userSpaceOnUse"
       gradientTransform="matrix(1.284770,0.000000,0.000000,2.876600,-11.24060,-59.82557)"
       x1="26.557112"
       y1="38.015705"
       x2="40.567459"
       y2="38.015705" />
    <linearGradient
       inkscape:collect="always"
       xlink:href="#linearGradient15441"
       id="linearGradient14992"
       gradientUnits="userSpaceOnUse"
       gradientTransform="matrix(1.285576,0.000000,0.000000,2.659863,-11.21273,-51.57747)"
       x1="27.730169"
       y1="38.844766"
       x2="38.000000"
       y2="38.844766" />
    <linearGradient
       inkscape:collect="always"
       xlink:href="#linearGradient15441"
       id="linearGradient14996"
       gradientUnits="userSpaceOnUse"
       gradientTransform="matrix(1.577695,0.000000,0.000000,2.659863,-20.74964,-50.05441)"
       x1="27.730169"
       y1="38.844766"
       x2="38.000000"
       y2="38.844766" />
    <linearGradient
       inkscape:collect="always"
       xlink:href="#linearGradient14707"
       id="linearGradient14999"
       gradientUnits="userSpaceOnUse"
       gradientTransform="matrix(1.317213,0.000000,0.000000,2.668958,-12.98129,-50.69844)"
       x1="26.557112"
       y1="38.015705"
       x2="40.567459"
       y2="38.015705" />
    <linearGradient
       inkscape:collect="always"
       xlink:href="#linearGradient4082"
       id="linearGradient15016"
       gradientUnits="userSpaceOnUse"
       gradientTransform="matrix(1.115937,0.000000,0.000000,1.454114,-7.540914,-0.830113)"
       x1="63.536396"
       y1="13.377137"
       x2="84.313736"
       y2="-22.228298" />
    <linearGradient
       inkscape:collect="always"
       xlink:href="#linearGradient5009"
       id="linearGradient15024"
       gradientUnits="userSpaceOnUse"
       gradientTransform="matrix(1.000000,0.000000,0.000000,0.722384,0.000000,18.48978)"
       x1="20.503506"
       y1="47.188126"
       x2="18.500000"
       y2="78.438126" />
  </defs>
  <sodipodi:namedview
     id="base"
     pagecolor="#ffffff"
     bordercolor="#666666"
     borderopacity="1.0"
     inkscape:pageopacity="0.0"
     inkscape:pageshadow="2"
     inkscape:zoom="7.7781746"
     inkscape:cx="32.000000"
     inkscape:cy="25.166270"
     inkscape:current-layer="layer1"
     showgrid="true"
     inkscape:document-units="px"
     inkscape:grid-bbox="true"
     inkscape:window-width="1024"
     inkscape:window-height="721"
     inkscape:window-x="-4"
     inkscape:window-y="-4" />
  <metadata
     id="metadata14872">
    <rdf:RDF>
      <cc:Work
         rdf:about="">
        <dc:format>image/svg+xml</dc:format>
        <dc:type
           rdf:resource="http://purl.org/dc/dcmitype/StillImage" />
      </cc:Work>
    </rdf:RDF>
  </metadata>
  <g
     id="layer1"
     inkscape:label="Layer 1"
     inkscape:groupmode="layer">
    <g
       id="g15752">
      <path
         sodipodi:nodetypes="csssc"
         id="path2797"
         d="M 64.000000,57.117360 C 64.000000,59.980790 40.447626,64.000023 22.963036,64.000023 C 5.4784466,64.000023 0.65933158,56.380250 0.11611758,53.543835 C -2.5355324,39.698136 42.445320,37.157496 50.311355,47.444590 C 60.271752,60.470662 64.000000,54.253930 64.000000,57.117360 z "
         style="fill:url(#linearGradient15024);fill-opacity:1.0000000;fill-rule:nonzero;stroke:#000000;stroke-width:0.00000000;stroke-miterlimit:0.00000000;stroke-opacity:1.0000000" />
      <path
         sodipodi:nodetypes="csscc"
         id="path3537"
         d="M 50.507784,50.060203 C 50.507784,54.231939 37.422516,46.959049 26.964885,51.488058 C 15.465136,56.468388 2.0000006,54.104239 2.0000006,49.932502 C 2.0000006,45.760768 14.755035,41.714879 26.964885,41.608805 C 41.130859,41.481105 50.507784,45.888468 50.507784,50.060203 z "
         style="opacity:0.51643193;fill:#d7c8ba;fill-opacity:1.0000000;fill-rule:nonzero;stroke:#000000;stroke-width:0.00000000;stroke-miterlimit:0.00000000;stroke-opacity:1.0000000" />
      <path
         style="fill:#288899;fill-opacity:1.0000000;fill-rule:evenodd;stroke:none;stroke-width:1.0000000pt;stroke-linecap:butt;stroke-linejoin:miter;stroke-opacity:1.0000000"
         d="M 35.061674,55.629878 C 35.061674,57.577164 30.846099,62.897673 23.571881,62.897673 C 20.763788,62.897673 15.991013,64.082896 9.7479046,58.191423 C -5.7171557,43.597417 13.851187,58.649584 17.566487,52.671413 C 22.607643,44.559852 35.061674,53.682589 35.061674,55.629878 z "
         id="path9044"
         sodipodi:nodetypes="csssc" />
      <path
         sodipodi:nodetypes="csssc"
         id="path14102"
         d="M 26.454595,50.362550 C 26.454595,50.854669 23.855474,50.500483 23.212137,50.940076 C 21.646521,52.009863 18.879082,52.303395 18.879082,51.811275 C 18.879082,51.319155 21.131300,49.471027 23.024637,49.471027 C 24.917974,49.471027 26.454595,49.870430 26.454595,50.362550 z "
         style="opacity:0.46111110;fill:#ffffff;fill-opacity:1.0000000;fill-rule:nonzero;stroke:#01416f;stroke-width:0.00000000;stroke-miterlimit:0.00000000;stroke-opacity:1.0000000" />
      <path
         style="fill:#000000;fill-opacity:1.0000000;fill-rule:nonzero;stroke:#000000;stroke-width:0.00000000;stroke-miterlimit:0.00000000;stroke-opacity:1.0000000"
         d="M 63.147689,0.051697968 C 61.602578,-0.60661353 58.523577,5.1148748 55.336349,11.924761 C 52.149120,18.734640 40.361509,34.927319 41.659757,38.691096 C 45.205710,48.971225 53.142875,26.788946 56.330101,19.979066 C 59.517331,13.169175 66.066855,2.6937653 63.147689,0.051697968 z "
         id="path10118"
         sodipodi:nodetypes="csssc" />
      <path
         sodipodi:nodetypes="csssc"
         id="path33026"
         d="M 62.494939,0.049846473 C 60.916677,-0.58488911 57.771610,4.9316995 54.515995,11.497707 C 51.260381,18.063712 39.219849,33.676490 40.545953,37.305479 C 44.167989,47.217451 52.275458,25.829574 55.531072,19.263567 C 58.786685,12.697558 65.476739,2.5972958 62.494939,0.049846473 z "
         style="fill:#000000;fill-opacity:1.0000000;fill-rule:nonzero;stroke:#000000;stroke-width:0.00000000;stroke-miterlimit:0.00000000;stroke-opacity:1.0000000" />
      <path
         style="fill:url(#linearGradient15016);fill-opacity:1.0000000;fill-rule:nonzero;stroke:#000000;stroke-width:0.00000000;stroke-miterlimit:0.00000000;stroke-opacity:1.0000000"
         d="M 62.647308,0.67307082 C 61.138008,0.048265746 58.130377,5.4785472 55.017031,11.941829 C 51.903679,18.405110 40.389298,33.773624 41.657452,37.345842 C 45.121212,47.102736 52.874396,26.049473 55.987747,19.586189 C 59.101097,13.122908 65.498805,3.1806646 62.647308,0.67307082 z "
         id="path10116"
         sodipodi:nodetypes="csssc" />
      <path
         sodipodi:type="arc"
         style="fill:#000000;fill-opacity:1.0000000;fill-rule:nonzero;stroke:#000000;stroke-width:0.00000000;stroke-miterlimit:0.00000000;stroke-opacity:1.0000000"
         id="path24603"
         sodipodi:cx="41.397888"
         sodipodi:cy="27.937553"
         sodipodi:rx="5.6568542"
         sodipodi:ry="2.1213202"
         d="M 47.054742 27.937553 A 5.6568542 2.1213202 0 1 1  35.741034,27.937553 A 5.6568542 2.1213202 0 1 1  47.054742 27.937553 z"
         transform="matrix(0.785923,0.730381,0.118901,2.141435,6.183125,-50.92303)" />
      <path
         transform="matrix(-0.713437,-0.659182,-0.116773,-1.915418,74.74183,119.9783)"
         d="M 47.054742 27.937553 A 5.6568542 2.1213202 0 1 1  35.741034,27.937553 A 5.6568542 2.1213202 0 1 1  47.054742 27.937553 z"
         sodipodi:ry="2.1213202"
         sodipodi:rx="5.6568542"
         sodipodi:cy="27.937553"
         sodipodi:cx="41.397888"
         id="path5112"
         style="fill:url(#radialGradient14984);fill-opacity:1.0000000;fill-rule:nonzero;stroke:#000000;stroke-width:0.00000000;stroke-miterlimit:0.00000000;stroke-opacity:1.0000000"
         sodipodi:type="arc" />
      <path
         sodipodi:type="arc"
         style="fill:#000000;fill-opacity:1.0000000;fill-rule:nonzero;stroke:#000000;stroke-width:0.00000000;stroke-miterlimit:0.00000000;stroke-opacity:1.0000000"
         id="path24599"
         sodipodi:cx="41.397888"
         sodipodi:cy="27.937553"
         sodipodi:rx="5.6568542"
         sodipodi:ry="2.1213202"
         d="M 47.054742 27.937553 A 5.6568542 2.1213202 0 1 1  35.741034,27.937553 A 5.6568542 2.1213202 0 1 1  47.054742 27.937553 z"
         transform="matrix(-0.866075,-0.782387,-0.120315,-2.315547,79.97364,138.4691)" />
      <path
         sodipodi:nodetypes="csssc"
         id="path11274"
         d="M 32.879082,56.818098 C 32.879082,58.075554 29.560461,61.511257 23.833990,61.511257 C 21.623378,61.511257 17.866114,62.276611 12.951360,58.472209 C 0.77682365,49.048173 16.181582,58.768066 19.106371,54.907680 C 23.074912,49.669664 32.879082,55.560645 32.879082,56.818098 z "
         style="opacity:0.37222221;fill:#9ddbe6;fill-opacity:1.0000000;fill-rule:evenodd;stroke:none;stroke-width:1.0000000pt;stroke-linecap:butt;stroke-linejoin:miter;stroke-opacity:1.0000000" />
      <path
         style="opacity:0.37222221;fill:#c1dde1;fill-opacity:1.0000000;fill-rule:evenodd;stroke:none;stroke-width:1.0000000pt;stroke-linecap:butt;stroke-linejoin:miter;stroke-opacity:1.0000000"
         d="M 32.879082,57.455484 C 32.879082,58.544426 29.691902,61.519701 24.192241,61.519701 C 22.069185,61.519701 18.460736,62.182487 13.740642,58.887923 C 2.0483057,50.726827 16.842924,59.144132 19.651870,55.801087 C 23.463228,51.265031 32.879082,56.366546 32.879082,57.455484 z "
         id="path14098"
         sodipodi:nodetypes="csssc" />
      <path
         transform="matrix(0.844444,0.000000,0.000000,1.049113,2.492971,-2.838431)"
         d="M 30.062500 59.250000 A 5.6250000 2.1250000 0 1 1  18.812500,59.250000 A 5.6250000 2.1250000 0 1 1  30.062500 59.250000 z"
         sodipodi:ry="2.1250000"
         sodipodi:rx="5.6250000"
         sodipodi:cy="59.250000"
         sodipodi:cx="24.437500"
         id="path14107"
         style="opacity:0.18888886;fill:#ffffff;fill-opacity:1.0000000;fill-rule:nonzero;stroke:#01416f;stroke-width:0.00000000;stroke-miterlimit:0.00000000;stroke-dasharray:none;stroke-opacity:1.0000000"
         sodipodi:type="arc" />
      <path
         sodipodi:nodetypes="ccccc"
         id="path10866"
         d="M 39.401991,55.547456 C 43.099184,52.651053 43.814165,46.648260 40.997926,42.148362 C 38.181695,37.648470 32.895434,36.347086 29.198244,39.243491 C 25.501048,42.139894 26.267806,60.928690 19.249284,60.887220 C 30.462327,59.975286 35.704801,58.443862 39.401991,55.547456 z "
         style="fill:#000000;fill-opacity:1.0000000;fill-rule:evenodd;stroke:#000000;stroke-width:0.00000000;stroke-miterlimit:0.00000000;stroke-opacity:1.0000000" />
      <path
         sodipodi:type="arc"
         style="fill:url(#radialGradient14986);fill-opacity:1.0000000;fill-rule:nonzero;stroke:#000000;stroke-width:0.00000000;stroke-miterlimit:0.00000000;stroke-opacity:1.0000000"
         id="path17734"
         sodipodi:cx="41.397888"
         sodipodi:cy="27.937553"
         sodipodi:rx="5.6568542"
         sodipodi:ry="2.1213202"
         d="M 47.054742 27.937553 A 5.6568542 2.1213202 0 1 1  35.741034,27.937553 A 5.6568542 2.1213202 0 1 1  47.054742 27.937553 z"
         transform="matrix(-0.792506,-0.721552,-0.129715,-2.096639,77.25507,129.7174)" />
      <path
         style="opacity:0.26168224;fill:#d6d6d6;fill-opacity:1.0000000;fill-rule:nonzero;stroke:#000000;stroke-width:0.00000000;stroke-miterlimit:0.00000000;stroke-opacity:1.0000000"
         d="M 62.034818,1.6097295 C 60.761354,1.0857751 58.223650,5.6395757 55.596758,11.059648 C 52.969864,16.479721 42.927404,34.696844 44.324597,32.363318 C 61.606048,3.5005620 58.116646,11.615192 60.743540,6.1951204 C 63.370448,0.77504914 64.440788,3.7125834 62.034818,1.6097295 z "
         id="path2091"
         sodipodi:nodetypes="csssc" />
      <path
         sodipodi:nodetypes="csssc"
         id="path2095"
         d="M 61.494562,2.1009219 C 60.788646,1.8106024 59.381927,4.3338213 57.925770,7.3370331 C 56.469608,10.340246 50.902794,20.434184 51.677297,19.141200 C 61.256883,3.1486134 59.322611,7.6448545 60.778771,4.6416439 C 62.234939,1.6384333 62.828254,3.2660938 61.494562,2.1009219 z "
         style="opacity:0.20560743;fill:#ee840d;fill-opacity:1.0000000;fill-rule:nonzero;stroke:#000000;stroke-width:0.00000000;stroke-miterlimit:0.00000000;stroke-opacity:1.0000000" />
      <path
         style="opacity:0.17674418;fill:#ffffff;fill-opacity:1.0000000;fill-rule:nonzero;stroke:#000000;stroke-width:0.00000000;stroke-miterlimit:0.00000000;stroke-opacity:1.0000000"
         d="M 47.154066,35.450502 C 46.975208,34.002717 48.529699,31.117640 50.379901,28.131162 C 52.230106,25.144678 58.448729,13.727537 57.652152,15.315987 C 47.799522,34.963042 50.569543,30.995984 48.719340,33.982471 C 46.869140,36.968969 47.871898,38.185815 47.154066,35.450502 z "
         id="path3549"
         sodipodi:nodetypes="csssc" />
      <path
         sodipodi:nodetypes="ccccc"
         id="path15449"
         d="M 36.440810,55.695357 C 45.476491,50.387893 36.735802,56.485177 34.589456,47.935668 C 32.592277,45.742889 28.221467,58.024541 27.723224,43.233910 C 28.175728,36.496313 26.977313,59.547967 22.000000,59.527747 C 29.951927,59.083350 33.818879,57.106766 36.440810,55.695357 z "
         style="fill:url(#linearGradient14999);fill-opacity:1.0000000;fill-rule:evenodd;stroke:#000000;stroke-width:0.00000000;stroke-miterlimit:0.00000000;stroke-opacity:1.0000000" />
      <path
         sodipodi:nodetypes="ccccc"
         id="path15451"
         d="M 35.678648,56.493150 C 43.611738,53.021418 35.937644,57.009785 34.053212,51.417386 C 32.299740,49.983038 28.462287,58.016717 28.024839,48.341861 C 28.422125,43.934673 27.369947,59.013209 23.000000,58.999991 C 29.981587,58.709313 33.376666,57.416377 35.678648,56.493150 z "
         style="fill:url(#linearGradient14996);fill-opacity:1.0000000;fill-rule:evenodd;stroke:#000000;stroke-width:0.00000000;stroke-miterlimit:0.00000000;stroke-opacity:1.0000000" />
      <path
         sodipodi:nodetypes="csssc"
         id="path7198"
         d="M 62.982738,56.839006 C 63.214259,57.694043 61.059262,58.910494 59.972966,58.910494 C 58.886670,58.910494 60.436008,57.923711 60.436008,57.403958 C 60.436008,56.884203 57.960585,55.144153 59.509923,56.179897 C 60.349150,56.740926 62.982738,56.319251 62.982738,56.839006 z "
         style="opacity:0.51643193;fill:#d7c8ba;fill-opacity:1.0000000;fill-rule:nonzero;stroke:#000000;stroke-width:0.00000000;stroke-miterlimit:0.00000000;stroke-opacity:1.0000000" />
      <path
         style="fill:#ffffff;fill-opacity:1.0000000;fill-rule:evenodd;stroke:#000000;stroke-width:0.00000000;stroke-miterlimit:0.00000000;stroke-opacity:1.0000000;opacity:0.22777778"
         d="M 30.825071,57.604275 C 35.721251,55.671347 30.984918,57.891923 29.821872,54.778269 C 28.739661,53.979678 28.680177,56.039237 27.909544,50.375524 C 28.154741,47.921752 26.483803,58.268437 23.000000,59.000000 C 27.308927,58.838154 29.404319,58.118299 30.825071,57.604275 z "
         id="path16215"
         sodipodi:nodetypes="ccccc" />
    </g>
  </g>
</svg>
