/* XPM */
static char *rotate_cursor[]={
"22 22 2 1",
". c None",
"# c #000000",
"......................",
"......................",
"......................",
".....#...#####........",
".....####.....##......",
".....###........#.....",
".....####........#....",
"..................#...",
"..................#...",
"...................#..",
"...#...............#..",
"...#...............#..",
"...#...............#..",
"...#...............#..",
"....#.................",
"....#.................",
".....#........####....",
"......#........###....",
".......##.....####....",
".........#####...#....",
"......................",
"......................"};
