/* XPM */
static char *dummy[]={
"32 32 4 1",
". c None",
"b c None",
"a c #000000",
"# c #ffffff",
"................................",
".#####.....................#####",
".#aaa#######################aaa#",
".#aaaaaaaaaaaaaaaaaaaaaaaaaaaaa#",
".#aaa#.....................#aaa#",
".##a##.....................##a##",
"..#a.........................a#.",
"..#a.....##...#b###..........a#.",
"..#a.....#a###a.aaa##........a#.",
"..#a.....#aaaa.....aa#.......a#.",
"..#a.....#aaa#.......a#......a#.",
"..#a.....#aaaa#.......a#.....a#.",
"..#a.....######........a#....a#.",
"..#a...................a#....a#.",
"..#a....................a#...a#.",
"..#a...#a...............a#...a#.",
"..#a...#a...............a#...a#.",
"..#a...#a...............a#...a#.",
"..#a...#a...............a#...a#.",
"..#a....#a...................a#.",
"..#a....#a........#####b.....a#.",
"..#a.....#a.......#aaaa#.....a#.",
"..#a......#a.......#aaa#.....a#.",
"..#a.......#aa....#aaaa#.....a#.",
"..#a........##aaaaa###a#.....a#b",
"..#a..........#####...##.....a#b",
"..#a.........................a#b",
".##a##.....................##a##",
".#aaa#.....................#aaa#",
".#aaaaaaaaaaaaaaaaaaaaaaaaaaaaa#",
".#aaa#######################aaa#",
".#####.....................#####"};
