<svg xmlns:dc="http://purl.org/dc/elements/1.1/" xmlns:cc="http://creativecommons.org/ns#" xmlns:rdf="http://www.w3.org/1999/02/22-rdf-syntax-ns#" xmlns="http://www.w3.org/2000/svg" version="1.1" id="svg2" viewBox="0 0 22 22" height="22" width="22"><metadata id="metadata7"><rdf:RDF><cc:Work><dc:format>image/svg+xml</dc:format><dc:type rdf:resource="http://purl.org/dc/dcmitype/StillImage"/><dc:title/><dc:creator><cc:Agent><dc:title>Timothée Giet</dc:title></cc:Agent></dc:creator><dc:date>2021</dc:date><cc:license rdf:resource="http://creativecommons.org/licenses/by-sa/4.0/"/></cc:Work><cc:License rdf:about="http://creativecommons.org/licenses/by-sa/4.0/"><cc:permits rdf:resource="http://creativecommons.org/ns#Reproduction"/><cc:permits rdf:resource="http://creativecommons.org/ns#Distribution"/><cc:requires rdf:resource="http://creativecommons.org/ns#Notice"/><cc:requires rdf:resource="http://creativecommons.org/ns#Attribution"/><cc:permits rdf:resource="http://creativecommons.org/ns#DerivativeWorks"/><cc:requires rdf:resource="http://creativecommons.org/ns#ShareAlike"/></cc:License></rdf:RDF></metadata><g transform="translate(0 -10)" id="g4152" style="display:inline"><path id="rect994" d="M4 12c-1.108 0-2 .892-2 2v13c0 1.108.892 2 2 2h14c1.108 0 2-.892 2-2V14c0-1.108-.892-2-2-2zm0 1h14c.554 0 1 .446 1 1v13c0 .554-.446 1-1 1H4c-.554 0-1-.446-1-1V14c0-.554.446-1 1-1z" style="opacity:1;vector-effect:none;fill:#373737;fill-opacity:1;stroke:none;stroke-width:4;stroke-linecap:square;stroke-linejoin:round;stroke-miterlimit:4;stroke-dasharray:none;stroke-dashoffset:3.20000005;stroke-opacity:.55063291"/><rect ry="0" y="11" x="8" height="2" width="6" id="rect1001" style="opacity:1;vector-effect:none;fill:#373737;fill-opacity:1;stroke:none;stroke-width:4;stroke-linecap:square;stroke-linejoin:round;stroke-miterlimit:4;stroke-dasharray:none;stroke-dashoffset:3.20000005;stroke-opacity:.55063291"/><rect ry="0.89066058" y="27" x="4" height="2" width="14" id="rect1003" style="opacity:1;vector-effect:none;fill:#373737;fill-opacity:1;stroke:none;stroke-width:4;stroke-linecap:square;stroke-linejoin:round;stroke-miterlimit:4;stroke-dasharray:none;stroke-dashoffset:3.20000005;stroke-opacity:.55063291"/><path id="path1005" d="m8 28-1 3H4l1-3z" style="fill:#373737;fill-opacity:1;stroke:none;stroke-width:1px;stroke-linecap:butt;stroke-linejoin:miter;stroke-opacity:1"/><path id="path1005-3" d="m14 28 1 3h3l-1-3z" style="display:inline;fill:#373737;fill-opacity:1;stroke:none;stroke-width:1px;stroke-linecap:butt;stroke-linejoin:miter;stroke-opacity:1"/><rect transform="rotate(45)" ry="1" y="-5.3433042" x="23.213045" height="14" width="2" id="rect1022" style="opacity:1;vector-effect:none;fill:#373737;fill-opacity:1;stroke:none;stroke-width:4;stroke-linecap:square;stroke-linejoin:round;stroke-miterlimit:4;stroke-dasharray:none;stroke-dashoffset:3.20000005;stroke-opacity:.55063291"/><path id="path1027" d="M8.954 23.3c-.568 1.695-2.406.795-2.593-.368-.424-2.648 5.4-1.754 3.68-6.859-1.064-3.159-6.794-1.565-6.01 1.611.162.656 1.83-.593 2.156.545.426 1.49-.472 2.09-.74 3.701-.349 2.09 1.35 3.963 3.723 3.462 2.373-.5 1.287-2.855-.216-2.091z" style="fill:#373737;fill-opacity:.50196081;stroke:none;stroke-width:.84489px;stroke-linecap:butt;stroke-linejoin:miter;stroke-opacity:1"/><path id="path1040" d="M8.855 25.773c-.742-.169-2.115-.695-2.208-.847 3.172-.688 1.927-4.647 5.041-4.645 1.077.014 1.69.346 2.09 1.133.505.995.377 1.853-.422 2.83-1.044 1.273-2.882 1.898-4.501 1.53z" style="fill:#373737;fill-opacity:1;stroke-width:.11"/></g></svg>