<!--Created with Inkscape (http://www.inkscape.org/)--><svg xmlns:dc="http://purl.org/dc/elements/1.1/" xmlns:cc="http://creativecommons.org/ns#" xmlns:rdf="http://www.w3.org/1999/02/22-rdf-syntax-ns#" xmlns="http://www.w3.org/2000/svg" xmlns:xlink="http://www.w3.org/1999/xlink" xmlns:sodipodi="http://sodipodi.sourceforge.net/DTD/sodipodi-0.dtd" xmlns:inkscape="http://www.inkscape.org/namespaces/inkscape" width="22" height="22" viewBox="0 0 22 22" id="svg2" version="1.1" inkscape:version="0.92.1 r15371" sodipodi:docname="dark_deformbrush.svg" inkscape:export-filename="krita_quickbrush.png" inkscape:export-xdpi="90" inkscape:export-ydpi="90"><defs id="defs4"><linearGradient inkscape:collect="always" id="linearGradient920"><stop style="stop-color:#d2d2d2;stop-opacity:1" offset="0" id="stop916"/><stop style="stop-color:#d2d2d2;stop-opacity:.25882354" offset="1" id="stop918"/></linearGradient><linearGradient inkscape:collect="always" xlink:href="#linearGradient920" id="linearGradient922" x1="6" y1="25" x2="13" y2="25" gradientUnits="userSpaceOnUse" gradientTransform="translate(0 1)"/></defs><sodipodi:namedview id="base" pagecolor="#ffffff" bordercolor="#666666" borderopacity="1.0" inkscape:pageopacity="0" inkscape:pageshadow="2" inkscape:zoom="19.401242" inkscape:cx="1.0053525" inkscape:cy="13.751697" inkscape:document-units="px" inkscape:current-layer="g4152" showgrid="true" units="px" inkscape:showpageshadow="false" showborder="true" inkscape:window-width="1884" inkscape:window-height="1051" inkscape:window-x="0" inkscape:window-y="0" inkscape:window-maximized="1" objecttolerance="10" guidetolerance="10" inkscape:snap-perpendicular="true" inkscape:snap-tangential="true" inkscape:snap-path-clip="true" inkscape:snap-path-mask="true" gridtolerance="10" showguides="false"><inkscape:grid type="xygrid" id="grid3336" dotted="false" empspacing="1" snapvisiblegridlinesonly="false" enabled="true" visible="true" empcolor="#aaaaff" empopacity="0.25098039" color="#7878ff" opacity="0.1254902" spacingx="1" spacingy="1"/></sodipodi:namedview><metadata id="metadata7"><rdf:RDF><cc:Work><dc:format>image/svg+xml</dc:format><dc:type rdf:resource="http://purl.org/dc/dcmitype/StillImage"/><dc:title/><dc:creator><cc:Agent><dc:title>Timothée Giet</dc:title></cc:Agent></dc:creator><dc:date>2018</dc:date><cc:license rdf:resource="http://creativecommons.org/licenses/by-sa/4.0/"/></cc:Work><cc:License rdf:about="http://creativecommons.org/licenses/by-sa/4.0/"><cc:permits rdf:resource="http://creativecommons.org/ns#Reproduction"/><cc:permits rdf:resource="http://creativecommons.org/ns#Distribution"/><cc:requires rdf:resource="http://creativecommons.org/ns#Notice"/><cc:requires rdf:resource="http://creativecommons.org/ns#Attribution"/><cc:permits rdf:resource="http://creativecommons.org/ns#DerivativeWorks"/><cc:requires rdf:resource="http://creativecommons.org/ns#ShareAlike"/></cc:License></rdf:RDF></metadata><g style="display:inline" inkscape:label="Layer 3 copy" id="g4152" inkscape:groupmode="layer" transform="translate(0 -10)"><path style="fill:#373737;fill-opacity:1;stroke:none;stroke-width:1px;stroke-linecap:butt;stroke-linejoin:miter;stroke-opacity:1" d="M8 15c-1.88-.044-3.877.717-4.917 2.352-1.387 2.151-1.25 4.985-.262 7.267.346.854-.024-.513-.014-.848-.237-2 .037-4.295 1.619-5.708 1.328-1.182 3.475-1.547 5.015-.568.59.347.793 1.165.471 1.737-.334 1.02-.69 2.034-1.01 3.057-.258 1.605.338 3.453 1.842 4.248 1.505.8 3.323.84 4.96.49 1.801-.39 3.29-1.817 3.807-3.579.637-2.044.338-4.312-.599-6.216.41 2.072.486 4.433-.79 6.234-1.19 1.69-3.7 2.377-5.528 1.354-.64-.332-.944-1.14-.614-1.793.353-1 .7-2.056 1.03-3.083.258-1.606-.338-3.453-1.842-4.249-.958-.54-2.083-.692-3.168-.695z" id="path898" inkscape:connector-curvature="0"/><path style="display:inline;fill:#373737;fill-opacity:1;stroke:none;stroke-width:1px;stroke-linecap:butt;stroke-linejoin:miter;stroke-opacity:1" d="M4.837 24.073c-.044 1.88.717 3.876 2.352 4.917 2.151 1.386 4.986 1.25 7.268.261.853-.345-.514.025-.849.015-1.999.236-4.295-.037-5.708-1.62-1.182-1.328-1.547-3.475-.568-5.014.348-.591 1.166-.793 1.738-.472 1.02.334 2.033.69 3.056 1.01 1.605.259 3.453-.338 4.249-1.841.8-1.505.84-3.323.49-4.96-.392-1.802-1.818-3.29-3.58-3.807-2.043-.637-4.312-.339-6.215.598 2.071-.408 4.433-.485 6.233.79 1.69 1.19 2.378 3.7 1.354 5.528-.332.64-1.139.945-1.792.615-1.001-.353-2.056-.701-3.084-1.03-1.605-.259-3.453.338-4.248 1.841-.54.959-.693 2.084-.696 3.169z" id="path898-7" inkscape:connector-curvature="0"/></g></svg>