<?xml version="1.0" encoding="UTF-8" standalone="no"?>
<!-- Created with Inkscape (http://www.inkscape.org/) -->

<svg
   xmlns:dc="http://purl.org/dc/elements/1.1/"
   xmlns:cc="http://creativecommons.org/ns#"
   xmlns:rdf="http://www.w3.org/1999/02/22-rdf-syntax-ns#"
   xmlns:svg="http://www.w3.org/2000/svg"
   xmlns="http://www.w3.org/2000/svg"
   xmlns:xlink="http://www.w3.org/1999/xlink"
   xmlns:sodipodi="http://sodipodi.sourceforge.net/DTD/sodipodi-0.dtd"
   xmlns:inkscape="http://www.inkscape.org/namespaces/inkscape"
   width="22"
   height="22"
   viewBox="0 0 22 22"
   id="svg2"
   version="1.1"
   inkscape:version="0.92.1 r15371"
   sodipodi:docname="dark_deformbrush.svg"
   inkscape:export-filename="krita_quickbrush.png"
   inkscape:export-xdpi="90"
   inkscape:export-ydpi="90">
  <defs
     id="defs4">
    <linearGradient
       inkscape:collect="always"
       id="linearGradient920">
      <stop
         style="stop-color:#f2f2f2;stop-opacity:1"
         offset="0"
         id="stop916" />
      <stop
         style="stop-color:#f2f2f2;stop-opacity:0.25882354"
         offset="1"
         id="stop918" />
    </linearGradient>
    <linearGradient
       inkscape:collect="always"
       xlink:href="#linearGradient920"
       id="linearGradient922"
       x1="6"
       y1="25"
       x2="13"
       y2="25"
       gradientUnits="userSpaceOnUse"
       gradientTransform="translate(0,1)" />
  </defs>
  <sodipodi:namedview
     id="base"
     pagecolor="#ffffff"
     bordercolor="#666666"
     borderopacity="1.0"
     inkscape:pageopacity="0"
     inkscape:pageshadow="2"
     inkscape:zoom="19.401242"
     inkscape:cx="1.0053525"
     inkscape:cy="13.751697"
     inkscape:document-units="px"
     inkscape:current-layer="g4152"
     showgrid="true"
     units="px"
     inkscape:showpageshadow="false"
     showborder="true"
     inkscape:window-width="1884"
     inkscape:window-height="1051"
     inkscape:window-x="0"
     inkscape:window-y="0"
     inkscape:window-maximized="1"
     objecttolerance="10"
     guidetolerance="10"
     inkscape:snap-perpendicular="true"
     inkscape:snap-tangential="true"
     inkscape:snap-path-clip="true"
     inkscape:snap-path-mask="true"
     gridtolerance="10"
     showguides="false">
    <inkscape:grid
       type="xygrid"
       id="grid3336"
       dotted="false"
       empspacing="1"
       snapvisiblegridlinesonly="false"
       enabled="true"
       visible="true"
       empcolor="#aaaaff"
       empopacity="0.25098039"
       color="#7878ff"
       opacity="0.1254902"
       spacingx="1"
       spacingy="1" />
  </sodipodi:namedview>
  <metadata
     id="metadata7">
    <rdf:RDF>
      <cc:Work
         rdf:about="">
        <dc:format>image/svg+xml</dc:format>
        <dc:type
           rdf:resource="http://purl.org/dc/dcmitype/StillImage" />
        <dc:title></dc:title>
        <dc:creator>
          <cc:Agent>
            <dc:title>Timothée Giet</dc:title>
          </cc:Agent>
        </dc:creator>
        <dc:date>2018</dc:date>
        <cc:license
           rdf:resource="http://creativecommons.org/licenses/by-sa/4.0/" />
      </cc:Work>
      <cc:License
         rdf:about="http://creativecommons.org/licenses/by-sa/4.0/">
        <cc:permits
           rdf:resource="http://creativecommons.org/ns#Reproduction" />
        <cc:permits
           rdf:resource="http://creativecommons.org/ns#Distribution" />
        <cc:requires
           rdf:resource="http://creativecommons.org/ns#Notice" />
        <cc:requires
           rdf:resource="http://creativecommons.org/ns#Attribution" />
        <cc:permits
           rdf:resource="http://creativecommons.org/ns#DerivativeWorks" />
        <cc:requires
           rdf:resource="http://creativecommons.org/ns#ShareAlike" />
      </cc:License>
    </rdf:RDF>
  </metadata>
  <g
     style="display:inline"
     inkscape:label="Layer 3 copy"
     id="g4152"
     inkscape:groupmode="layer"
     transform="translate(0,-10)">
    <g
       transform="translate(0,6)"
       id="g4160"
       style="display:inline" />
    <path
       style="fill:#373737;fill-opacity:1;stroke:none;stroke-width:1px;stroke-linecap:butt;stroke-linejoin:miter;stroke-opacity:1"
       d="m 8,15 c -1.8804176,-0.04415 -3.8766458,0.717003 -4.9170942,2.35152 -1.3866638,2.151568 -1.2498773,4.985682 -0.2615557,7.267865 0.3454157,0.853776 -0.024849,-0.513259 -0.01452,-0.848233 -0.2363532,-1.99948 0.037167,-4.295404 1.6188253,-5.70816 1.3288315,-1.181965 3.4754424,-1.547262 5.0149078,-0.56813 0.5911958,0.347621 0.7931588,1.165502 0.4715462,1.73756 -0.3337821,1.019425 -0.6897657,2.033253 -1.0097656,3.056152 -0.2586615,1.605569 0.3378614,3.452983 1.8415832,4.248619 1.504839,0.80021 3.323058,0.839971 4.960106,0.490364 1.8012,-0.391444 3.289783,-1.817663 3.806979,-3.579578 0.636945,-2.0435 0.338359,-4.312326 -0.598903,-6.215557 0.408972,2.071401 0.485473,4.432774 -0.789806,6.233288 -1.189622,1.68954 -3.699692,2.377531 -5.528096,1.354145 -0.640546,-0.332058 -0.944616,-1.138994 -0.614349,-1.792375 0.353208,-1.000899 0.701083,-2.056166 1.029908,-3.083632 0.258661,-1.605569 -0.337862,-3.452984 -1.841584,-4.248619 C 10.20974,15.155041 9.0848378,15.00286 8,15 Z"
       id="path898"
       inkscape:connector-curvature="0" />
    <path
       style="display:inline;fill:#373737;fill-opacity:1;stroke:none;stroke-width:1px;stroke-linecap:butt;stroke-linejoin:miter;stroke-opacity:1"
       d="m 4.8373324,24.072591 c -0.04415,1.880418 0.717003,3.876646 2.35152,4.917094 2.151568,1.386664 4.9856816,1.249878 7.2678646,0.261556 0.853776,-0.345416 -0.513259,0.02485 -0.848233,0.01452 -1.99948,0.236353 -4.2954036,-0.03717 -5.7081596,-1.618825 -1.181965,-1.328832 -1.547262,-3.475443 -0.56813,-5.014908 0.347621,-0.591196 1.165502,-0.793159 1.73756,-0.471546 1.0194246,0.333782 2.0332526,0.689766 3.0561516,1.009765 1.605569,0.258662 3.452983,-0.337861 4.248619,-1.841583 0.80021,-1.504839 0.839971,-3.323058 0.490364,-4.960106 -0.391444,-1.8012 -1.817663,-3.289783 -3.579578,-3.806979 -2.0435,-0.636945 -4.3123256,-0.338359 -6.2155566,0.598903 2.071401,-0.408972 4.4327736,-0.485473 6.2332876,0.789806 1.68954,1.189622 2.377531,3.699692 1.354145,5.528096 -0.332058,0.640546 -1.138994,0.944616 -1.792375,0.614349 -1.000899,-0.353208 -2.056166,-0.701083 -3.0836316,-1.029908 -1.605569,-0.258661 -3.452984,0.337862 -4.248619,1.841584 -0.540188,0.958442 -0.692369,2.083344 -0.695229,3.168182 z"
       id="path898-7"
       inkscape:connector-curvature="0" />
  </g>
</svg>
